<?xml version="1.0" encoding="UTF-8" standalone="no"?><svg xmlns="http://www.w3.org/2000/svg" xmlns:xlink="http://www.w3.org/1999/xlink" contentScriptType="application/ecmascript" contentStyleType="text/css" height="713.7px" preserveAspectRatio="none" style="width:794px;height:713px;" version="1.1" viewBox="0 0 794 713" width="794.7px" zoomAndPan="magnify"><defs><style type="text/css"><![CDATA[path:hover { stroke: #FF0000 !important;}]]></style><filter height="300%" id="fhwyi9yrzwtaw" width="300%" x="-1" y="-1"><feGaussianBlur result="blurOut" stdDeviation="1.8"/><feColorMatrix in="blurOut" result="blurOut2" type="matrix" values="0 0 0 0 0 0 0 0 0 0 0 0 0 0 0 0 0 0 .4 0"/><feOffset dx="3.6" dy="3.6" in="blurOut2" result="blurOut3"/><feBlend in="SourceGraphic" in2="blurOut3" mode="normal"/></filter></defs><g><!--MD5=[0b359046a8a923b93d76827db2e7d446]
cluster ess--><rect fill="#FFFFFF" height="574.2" style="stroke:#444444;stroke-width:0.9;stroke-dasharray:7.0,7.0;" width="638.1" x="6.3" y="134.55"/><text fill="#000000" font-family="sans-serif" font-size="12.6" font-style="italic" lengthAdjust="spacing" textLength="72" x="289.35" y="148.5316">«boundary»</text><text fill="#444444" font-family="sans-serif" font-size="14.4" font-weight="bold" lengthAdjust="spacing" textLength="25.2" x="312.75" y="165.1113">ESS</text><text fill="#444444" font-family="sans-serif" font-size="10.8" font-weight="bold" lengthAdjust="spacing" textLength="47.7" x="301.5" y="178.5902">[System]</text><!--MD5=[47c14c564e796a575e671c2b0469a7bb]
cluster backend--><rect fill="#FFFFFF" height="396.9" style="stroke:#444444;stroke-width:0.9;stroke-dasharray:7.0,7.0;" width="594.9" x="27.9" y="290.25"/><text fill="#000000" font-family="sans-serif" font-size="12.6" font-style="italic" lengthAdjust="spacing" textLength="72" x="289.35" y="304.2316">«boundary»</text><text fill="#444444" font-family="sans-serif" font-size="14.4" font-weight="bold" lengthAdjust="spacing" textLength="126" x="262.35" y="320.8113">Backend Services</text><text fill="#444444" font-family="sans-serif" font-size="10.8" font-weight="bold" lengthAdjust="spacing" textLength="47.7" x="301.5" y="334.2902">[System]</text><!--MD5=[e09ba0e20b16521d4950ae0160aa3908]
cluster director--><rect fill="#FFFFFF" height="78.3" style="stroke:#000000;stroke-width:1.35;" width="113.4" x="159.3" y="587.25"/><text fill="#000000" font-family="sans-serif" font-size="12.6" font-weight="bold" lengthAdjust="spacing" textLength="50.4" x="190.8" y="601.2316">director</text><!--MD5=[66b963850fa8f0fb8a64ca802beaa0d3]
cluster allocator--><rect fill="#FFFFFF" height="86.4" style="stroke:#000000;stroke-width:1.35;" width="301.5" x="292.5" y="448.65"/><text fill="#000000" font-family="sans-serif" font-size="12.6" font-weight="bold" lengthAdjust="spacing" textLength="56.7" x="414.9" y="462.6316">allocator</text><!--MD5=[0c566b3e910223add265a40411a13d66]
entity cloud_ui--><rect fill="#FEFECE" height="32.8395" style="stroke:#000000;stroke-width:1.35;" width="94.5" x="168.75" y="195.75"/><text fill="#000000" font-family="sans-serif" font-size="12.6" lengthAdjust="spacing" textLength="76.5" x="177.75" y="216.9316">cloud-ui (JS)</text><!--MD5=[5cb271c79a85f83373ea7c8b0891499a]
entity console_api--><rect fill="#FEFECE" height="32.8395" style="stroke:#000000;stroke-width:1.35;" width="91.8" x="170.1" y="351.45"/><text fill="#000000" font-family="sans-serif" font-size="12.6" lengthAdjust="spacing" textLength="73.8" x="179.1" y="372.6316">console-api</text><!--MD5=[e937783d151d78c9e87fd4c0d99f7485]
entity proxy--><rect fill="#FEFECE" height="32.8395" style="stroke:#000000;stroke-width:1.35;" width="54" x="486" y="351.45"/><text fill="#000000" font-family="sans-serif" font-size="12.6" lengthAdjust="spacing" textLength="36" x="495" y="372.6316">proxy</text><!--MD5=[e5263d57610767296b146270ce7a700d]
entity adminconsole--><rect fill="#FEFECE" height="32.8395" style="stroke:#000000;stroke-width:1.35;" width="104.4" x="163.8" y="484.2"/><text fill="#000000" font-family="sans-serif" font-size="12.6" lengthAdjust="spacing" textLength="86.4" x="172.8" y="505.3816">adminconsole</text><!--MD5=[178d54d189f08210b2f549b07cb743fc]
entity constructor--><rect fill="#FEFECE" height="32.8395" style="stroke:#000000;stroke-width:1.35;" width="89.1" x="42.75" y="484.2"/><text fill="#000000" font-family="sans-serif" font-size="12.6" lengthAdjust="spacing" textLength="71.1" x="51.75" y="505.3816">constructor</text><!--MD5=[6757e56db7bc0b2ef27efcfe2c53d728]
entity zookeeper--><rect fill="#FEFECE" height="32.8395" style="stroke:#000000;stroke-width:1.35;" width="83.7" x="174.15" y="618.75"/><text fill="#000000" font-family="sans-serif" font-size="12.6" lengthAdjust="spacing" textLength="65.7" x="183.15" y="639.9316">zookeeper</text><ellipse cx="552.6827" cy="500.5431" fill="#FEFECE" filter="url(#fhwyi9yrzwtaw)" rx="19.8827" ry="13.1931" style="stroke:#A80036;stroke-width:1.35;"/><text fill="#000000" font-family="sans-serif" font-size="12.6" lengthAdjust="spacing" textLength="13.5" x="545.9327" y="503.505">es</text><ellipse cx="370.816" cy="500.5445" fill="#FEFECE" filter="url(#fhwyi9yrzwtaw)" rx="39.616" ry="13.1945" style="stroke:#A80036;stroke-width:1.35;"/><text fill="#000000" font-family="sans-serif" font-size="12.6" lengthAdjust="spacing" textLength="41.4" x="349.6867" y="503.6285">kibana</text><ellipse cx="471.7786" cy="500.5431" fill="#FEFECE" filter="url(#fhwyi9yrzwtaw)" rx="29.4286" ry="13.1931" style="stroke:#A80036;stroke-width:1.35;"/><text fill="#000000" font-family="sans-serif" font-size="12.6" lengthAdjust="spacing" textLength="27" x="458.2786" y="503.505">apm</text><!--MD5=[92848cbaf65985a669855153c5362c37]
entity customer--><ellipse cx="216" cy="12.6" fill="#FEFECE" filter="url(#fhwyi9yrzwtaw)" rx="7.2" ry="7.2" style="stroke:#A80036;stroke-width:1.35;"/><path d="M216,19.8 L216,44.1 M204.3,27 L227.7,27 M216,44.1 L204.3,57.6 M216,44.1 L227.7,57.6 " fill="none" filter="url(#fhwyi9yrzwtaw)" style="stroke:#A80036;stroke-width:1.35;"/><text fill="#000000" font-family="sans-serif" font-size="12.6" lengthAdjust="spacing" textLength="57.6" x="187.2" y="74.7316">customer</text><!--MD5=[404f01d63f96d00ea7b93303a11d5eab]
entity customer_app--><polygon fill="#FEFECE" filter="url(#fhwyi9yrzwtaw)" points="658.8,200.25,667.8,191.25,779.4,191.25,779.4,224.0895,770.4,233.0895,658.8,233.0895,658.8,200.25" style="stroke:#000000;stroke-width:1.35;"/><line style="stroke:#000000;stroke-width:1.35;" x1="770.4" x2="779.4" y1="200.25" y2="191.25"/><line style="stroke:#000000;stroke-width:1.35;" x1="658.8" x2="770.4" y1="200.25" y2="200.25"/><line style="stroke:#000000;stroke-width:1.35;" x1="770.4" x2="770.4" y1="200.25" y2="233.0895"/><text fill="#000000" font-family="sans-serif" font-size="12.6" lengthAdjust="spacing" textLength="84.6" x="672.3" y="221.4316">customer app</text><!--MD5=[8ada7144fe334a228e7fe25b064e736f]
link cloud_ui to console_api--><path d="M216,228.168 C216,257.589 216,321.714 216,351.261 " fill="none" id="cloud_ui-console_api" style="stroke:#666666;stroke-width:1.8;"/><text fill="#666666" font-family="sans-serif" font-size="12.6" font-weight="bold" lengthAdjust="spacing" textLength="27" x="216.9" y="272.7316">http</text><!--MD5=[91d556c5fcddc95e827581c3721b99f6]
link proxy to es--><path d="M517.698,384.084 C525.69,410.508 541.755,463.644 548.964,487.467 " fill="none" id="proxy-es" style="stroke:#666666;stroke-width:1.8;"/><text fill="#666666" font-family="sans-serif" font-size="12.6" font-weight="bold" lengthAdjust="spacing" textLength="27" x="531" y="423.9316">http</text><!--MD5=[d5ce9240a502b397d9a987b710b8243b]
link proxy to kibana--><path d="M486.099,384.03 C474.021,391.491 459.9,400.959 448.2,410.85 C419.805,434.862 392.661,469.539 379.341,487.575 " fill="none" id="proxy-kibana" style="stroke:#666666;stroke-width:1.8;"/><text fill="#666666" font-family="sans-serif" font-size="12.6" font-weight="bold" lengthAdjust="spacing" textLength="27" x="449.1" y="423.9316">http</text><!--MD5=[533620b3d51777372345317bd685c121]
link proxy to apm--><path d="M502.911,384.075 C498.258,391.842 493.02,401.553 489.6,410.85 C479.943,437.085 475.011,469.692 472.905,487.134 " fill="none" id="proxy-apm" style="stroke:#666666;stroke-width:1.8;"/><text fill="#666666" font-family="sans-serif" font-size="12.6" font-weight="bold" lengthAdjust="spacing" textLength="27" x="490.5" y="423.9316">http</text><!--MD5=[9e4030c7fc43515b887587da5e72ae6c]
link customer to cloud_ui--><path d="M216,76.968 C216,113.499 216,168.687 216,195.426 " fill="none" id="customer-cloud_ui" style="stroke:#666666;stroke-width:1.8;"/><text fill="#666666" font-family="sans-serif" font-size="12.6" font-weight="bold" lengthAdjust="spacing" textLength="27" x="216.9" y="117.0316">http</text><!--MD5=[cd19c6ee08b7806a0e024851c3541181]
link customer_app to proxy--><path d="M696.681,232.731 C682.074,245.43 662.454,262.035 644.4,275.85 C607.824,303.822 563.436,333.738 536.742,351.315 " fill="none" id="customer_app-proxy" style="stroke:#666666;stroke-width:1.8;"/><text fill="#666666" font-family="sans-serif" font-size="12.6" font-weight="bold" lengthAdjust="spacing" textLength="27" x="664.2" y="272.7316">http</text><!--MD5=[7b35a0f7679354375da7e3f91cc9f11f]
link console_api to adminconsole--><path d="M216,384.084 C216,409.284 216,458.793 216,483.984 " fill="none" id="console_api-adminconsole" style="stroke:#666666;stroke-width:1.8;"/><text fill="#666666" font-family="sans-serif" font-size="12.6" font-weight="bold" lengthAdjust="spacing" textLength="27" x="216.9" y="423.9316">http</text><!--MD5=[b8bbf73c649d28ad1cefc4932c9b78ea]
link adminconsole to zookeeper--><path d="M216,516.789 C216,542.367 216,593.145 216,618.66 " fill="none" id="adminconsole-zookeeper" style="stroke:#666666;stroke-width:1.8;"/><text fill="#666666" font-family="sans-serif" font-size="12.6" font-weight="bold" lengthAdjust="spacing" textLength="38.7" x="216.9" y="569.7316">znode</text><!--MD5=[6929e738f8db2d9bb591f4aedfc645e7]
link constructor to zookeeper--><path d="M102.312,516.789 C127.116,542.367 176.346,593.145 201.078,618.66 " fill="none" id="constructor-zookeeper" style="stroke:#666666;stroke-width:1.8;"/><text fill="#666666" font-family="sans-serif" font-size="12.6" font-weight="bold" lengthAdjust="spacing" textLength="38.7" x="155.7" y="569.7316">znode</text><!--MD5=[93b588bbfc5d764e2e43257842aa372d]
link allocator to zookeeper--><path d="M300.104,535.1417 C300.0525,535.4707 299.9988,535.7997 299.9429,536.1284 C299.8311,536.7859 299.7103,537.4425 299.58,538.0972 C299.3195,539.4066 299.0212,540.7083 298.6807,541.994 C297.9998,544.5654 297.1508,547.0729 296.1,549.45 C283.338,578.304 256.383,603.414 237.276,618.615 " fill="none" id="allocator-zookeeper" style="stroke:#666666;stroke-width:1.8;"/><text fill="#666666" font-family="sans-serif" font-size="12.6" font-weight="bold" lengthAdjust="spacing" textLength="38.7" x="292.5" y="569.7316">znode</text></g></svg>