<?xml version="1.0" encoding="UTF-8" standalone="no"?><svg xmlns="http://www.w3.org/2000/svg" xmlns:xlink="http://www.w3.org/1999/xlink" contentScriptType="application/ecmascript" contentStyleType="text/css" height="439.2px" preserveAspectRatio="none" style="width:1833px;height:439px;" version="1.1" viewBox="0 0 1833 439" width="1833.3px" zoomAndPan="magnify"><defs><style type="text/css"><![CDATA[path:hover { stroke: #FF0000 !important;}]]></style></defs><g><!--MD5=[0b359046a8a923b93d76827db2e7d446]
cluster ess--><rect fill="#FFFFFF" height="339.3" style="stroke:#444444;stroke-width:0.9;stroke-dasharray:7.0,7.0;" width="747.9" x="6.3" y="6.3"/><text fill="#FFFFFF" font-family="sans-serif" font-size="5.4" font-style="italic" lengthAdjust="spacing" textLength="30.6" x="364.95" y="13.3207">«boundary»</text><text fill="#444444" font-family="sans-serif" font-size="14.4" font-weight="bold" lengthAdjust="spacing" textLength="25.2" x="367.65" y="31.0219">ESS</text><text fill="#444444" font-family="sans-serif" font-size="10.8" lengthAdjust="spacing" textLength="43.2" x="358.65" y="44.5008">[System]</text><!--MD5=[612ef53195846847e0964d57bbc62bca]
cluster ess_us_east--><rect fill="#FFFFFF" height="255.6" style="stroke:#444444;stroke-width:0.9;stroke-dasharray:7.0,7.0;" width="292.5" x="126" y="68.4"/><text fill="#FFFFFF" font-family="sans-serif" font-size="5.4" font-style="italic" lengthAdjust="spacing" textLength="30.6" x="256.95" y="75.4207">«boundary»</text><text fill="#444444" font-family="sans-serif" font-size="14.4" font-weight="bold" lengthAdjust="spacing" textLength="75.6" x="234.45" y="93.1219">us-east-1</text><text fill="#444444" font-family="sans-serif" font-size="10.8" lengthAdjust="spacing" textLength="43.2" x="250.65" y="106.6008">[System]</text><!--MD5=[e244492c86116b8a919f919e16e7f5e6]
cluster ess_us_east_o11y_clusters--><rect fill="#FFFFFF" height="89.1" style="stroke:#444444;stroke-width:0.9;stroke-dasharray:7.0,7.0;" width="249.3" x="147.6" y="213.3"/><text fill="#FFFFFF" font-family="sans-serif" font-size="5.4" font-style="italic" lengthAdjust="spacing" textLength="30.6" x="256.95" y="220.3207">«boundary»</text><text fill="#444444" font-family="sans-serif" font-size="14.4" font-weight="bold" lengthAdjust="spacing" textLength="162" x="191.25" y="238.0219">Observability Clusters</text><!--MD5=[a153f768585548cedb114d1f95528aeb]
cluster ess_us_central--><rect fill="#FFFFFF" height="255.6" style="stroke:#444444;stroke-width:0.9;stroke-dasharray:7.0,7.0;" width="292.5" x="440.1" y="68.4"/><text fill="#FFFFFF" font-family="sans-serif" font-size="5.4" font-style="italic" lengthAdjust="spacing" textLength="30.6" x="571.05" y="75.4207">«boundary»</text><text fill="#444444" font-family="sans-serif" font-size="14.4" font-weight="bold" lengthAdjust="spacing" textLength="133.2" x="519.75" y="93.1219">gcp-us-central-1</text><text fill="#444444" font-family="sans-serif" font-size="10.8" lengthAdjust="spacing" textLength="43.2" x="564.75" y="106.6008">[System]</text><!--MD5=[20b82cdb07008eb0eae45cc16623e651]
cluster ess_us_central_o11y_clusters--><rect fill="#FFFFFF" height="89.1" style="stroke:#444444;stroke-width:0.9;stroke-dasharray:7.0,7.0;" width="249.3" x="461.7" y="213.3"/><text fill="#FFFFFF" font-family="sans-serif" font-size="5.4" font-style="italic" lengthAdjust="spacing" textLength="30.6" x="571.05" y="220.3207">«boundary»</text><text fill="#444444" font-family="sans-serif" font-size="14.4" font-weight="bold" lengthAdjust="spacing" textLength="162" x="505.35" y="238.0219">Observability Clusters</text><!--MD5=[da3156ff1b1d47a8ee7fe9d05c5e67cb]
cluster ess_more--><rect fill="#FFFFFF" height="101.7" style="stroke:#444444;stroke-width:0.9;stroke-dasharray:7.0,7.0;" width="76.5" x="27.9" y="68.4"/><text fill="#FFFFFF" font-family="sans-serif" font-size="5.4" font-style="italic" lengthAdjust="spacing" textLength="30.6" x="50.85" y="75.4207">«boundary»</text><text fill="#444444" font-family="sans-serif" font-size="14.4" font-weight="bold" lengthAdjust="spacing" textLength="62.1" x="35.1" y="93.1219">55 more</text><text fill="#444444" font-family="sans-serif" font-size="10.8" lengthAdjust="spacing" textLength="43.2" x="44.55" y="106.6008">[System]</text><!--MD5=[3ae4ac48e0fe08538570fb8f9dad59fd]
cluster essp--><rect fill="#FFFFFF" height="339.3" style="stroke:#444444;stroke-width:0.9;stroke-dasharray:7.0,7.0;" width="738" x="1089.9" y="6.3"/><text fill="#FFFFFF" font-family="sans-serif" font-size="5.4" font-style="italic" lengthAdjust="spacing" textLength="30.6" x="1443.6" y="13.3207">«boundary»</text><text fill="#444444" font-family="sans-serif" font-size="14.4" font-weight="bold" lengthAdjust="spacing" textLength="34.2" x="1441.8" y="31.0219">ESSP</text><text fill="#444444" font-family="sans-serif" font-size="10.8" lengthAdjust="spacing" textLength="43.2" x="1437.3" y="44.5008">[System]</text><!--MD5=[07a99ba4556e0742838625fd8776fe88]
cluster essp1--><rect fill="#FFFFFF" height="255.6" style="stroke:#444444;stroke-width:0.9;stroke-dasharray:7.0,7.0;" width="292.5" x="1513.8" y="68.4"/><text fill="#FFFFFF" font-family="sans-serif" font-size="5.4" font-style="italic" lengthAdjust="spacing" textLength="30.6" x="1644.75" y="75.4207">«boundary»</text><text fill="#444444" font-family="sans-serif" font-size="14.4" font-weight="bold" lengthAdjust="spacing" textLength="99" x="1610.55" y="93.1219">ESSP gdw55e</text><text fill="#444444" font-family="sans-serif" font-size="10.8" lengthAdjust="spacing" textLength="43.2" x="1638.45" y="106.6008">[System]</text><!--MD5=[687f463057271c6d554bc600cd95ffce]
cluster essp1_o11y_clusters--><rect fill="#FFFFFF" height="89.1" style="stroke:#444444;stroke-width:0.9;stroke-dasharray:7.0,7.0;" width="249.3" x="1535.4" y="213.3"/><text fill="#FFFFFF" font-family="sans-serif" font-size="5.4" font-style="italic" lengthAdjust="spacing" textLength="30.6" x="1644.75" y="220.3207">«boundary»</text><text fill="#444444" font-family="sans-serif" font-size="14.4" font-weight="bold" lengthAdjust="spacing" textLength="162" x="1579.05" y="238.0219">Observability Clusters</text><!--MD5=[eccc788ec09038d6c3d4358aa28b00e6]
cluster essp2--><rect fill="#FFFFFF" height="255.6" style="stroke:#444444;stroke-width:0.9;stroke-dasharray:7.0,7.0;" width="292.5" x="1199.7" y="68.4"/><text fill="#FFFFFF" font-family="sans-serif" font-size="5.4" font-style="italic" lengthAdjust="spacing" textLength="30.6" x="1330.65" y="75.4207">«boundary»</text><text fill="#444444" font-family="sans-serif" font-size="14.4" font-weight="bold" lengthAdjust="spacing" textLength="82.8" x="1304.55" y="93.1219">ESSP rtj88x</text><text fill="#444444" font-family="sans-serif" font-size="10.8" lengthAdjust="spacing" textLength="43.2" x="1324.35" y="106.6008">[System]</text><!--MD5=[13d45ee6fc100a3b2d58790d809fbe6f]
cluster essp2_o11y_clusters--><rect fill="#FFFFFF" height="89.1" style="stroke:#444444;stroke-width:0.9;stroke-dasharray:7.0,7.0;" width="249.3" x="1221.3" y="213.3"/><text fill="#FFFFFF" font-family="sans-serif" font-size="5.4" font-style="italic" lengthAdjust="spacing" textLength="30.6" x="1330.65" y="220.3207">«boundary»</text><text fill="#444444" font-family="sans-serif" font-size="14.4" font-weight="bold" lengthAdjust="spacing" textLength="162" x="1264.95" y="238.0219">Observability Clusters</text><!--MD5=[b6aea78f2016231188afc541fd6c23e3]
cluster essp_more--><rect fill="#FFFFFF" height="101.7" style="stroke:#444444;stroke-width:0.9;stroke-dasharray:7.0,7.0;" width="66.6" x="1111.5" y="68.4"/><text fill="#FFFFFF" font-family="sans-serif" font-size="5.4" font-style="italic" lengthAdjust="spacing" textLength="30.6" x="1129.5" y="75.4207">«boundary»</text><text fill="#444444" font-family="sans-serif" font-size="14.4" font-weight="bold" lengthAdjust="spacing" textLength="52.2" x="1118.7" y="93.1219">3 more</text><text fill="#444444" font-family="sans-serif" font-size="10.8" lengthAdjust="spacing" textLength="43.2" x="1123.2" y="106.6008">[System]</text><!--MD5=[8be02415f2f27084c92b149d0de03844]
cluster govcloud--><rect fill="#FFFFFF" height="255.6" style="stroke:#444444;stroke-width:0.9;stroke-dasharray:7.0,7.0;" width="292.5" x="775.8" y="68.4"/><text fill="#FFFFFF" font-family="sans-serif" font-size="5.4" font-style="italic" lengthAdjust="spacing" textLength="30.6" x="906.75" y="75.4207">«boundary»</text><text fill="#444444" font-family="sans-serif" font-size="14.4" font-weight="bold" lengthAdjust="spacing" textLength="68.4" x="887.85" y="93.1219">govcloud</text><text fill="#444444" font-family="sans-serif" font-size="10.8" lengthAdjust="spacing" textLength="43.2" x="900.45" y="106.6008">[System]</text><!--MD5=[d8e2ab5414f1e42c1fe17f2e4290b3d1]
cluster govcloud_o11y_clusters--><rect fill="#FFFFFF" height="89.1" style="stroke:#444444;stroke-width:0.9;stroke-dasharray:7.0,7.0;" width="249.3" x="797.4" y="213.3"/><text fill="#FFFFFF" font-family="sans-serif" font-size="5.4" font-style="italic" lengthAdjust="spacing" textLength="30.6" x="906.75" y="220.3207">«boundary»</text><text fill="#444444" font-family="sans-serif" font-size="14.4" font-weight="bold" lengthAdjust="spacing" textLength="162" x="841.05" y="238.0219">Observability Clusters</text><!--MD5=[39d737e0674dffb44c69150f69316e26]
entity ess_us_east_services--><rect fill="#FEFECE" height="32.8395" style="stroke:#000000;stroke-width:1.35;" width="66.6" x="214.2" y="123.3"/><text fill="#000000" font-family="sans-serif" font-size="12.6" lengthAdjust="spacing" textLength="48.6" x="223.2" y="144.4816">services</text><!--MD5=[d1a9bf3c02407ef73b38d5f779fb69ae]
entity ess_us_east_logging_es--><rect fill="#FEFECE" height="32.8395" style="stroke:#000000;stroke-width:1.35;" width="83.7" x="298.35" y="255.6"/><text fill="#000000" font-family="sans-serif" font-size="12.6" lengthAdjust="spacing" textLength="65.7" x="307.35" y="276.7816">logging ES</text><!--MD5=[09f05e6d703dcb2ded8d7cf846304129]
entity ess_us_east_metrics_es--><rect fill="#FEFECE" height="32.8395" style="stroke:#000000;stroke-width:1.35;" width="81" x="162" y="255.6"/><text fill="#000000" font-family="sans-serif" font-size="12.6" lengthAdjust="spacing" textLength="63" x="171" y="276.7816">metrics ES</text><!--MD5=[bfc937493f70561a5fe44c782f5e5d50]
entity ess_us_central_services--><rect fill="#FEFECE" height="32.8395" style="stroke:#000000;stroke-width:1.35;" width="66.6" x="528.3" y="123.3"/><text fill="#000000" font-family="sans-serif" font-size="12.6" lengthAdjust="spacing" textLength="48.6" x="537.3" y="144.4816">services</text><!--MD5=[09496b8cbbc371246b6ec30bfe596318]
entity ess_us_central_logging_es--><rect fill="#FEFECE" height="32.8395" style="stroke:#000000;stroke-width:1.35;" width="83.7" x="612.45" y="255.6"/><text fill="#000000" font-family="sans-serif" font-size="12.6" lengthAdjust="spacing" textLength="65.7" x="621.45" y="276.7816">logging ES</text><!--MD5=[de6547b7208f9c561c77c5ea6b431f0a]
entity ess_us_central_metrics_es--><rect fill="#FEFECE" height="32.8395" style="stroke:#000000;stroke-width:1.35;" width="81" x="476.1" y="255.6"/><text fill="#000000" font-family="sans-serif" font-size="12.6" lengthAdjust="spacing" textLength="63" x="485.1" y="276.7816">metrics ES</text><!--MD5=[531b301f401a3a1a233b386275db4f2f]
entity ess_more_dots--><rect fill="#FEFECE" height="32.8395" style="stroke:#000000;stroke-width:1.35;" width="28.8" x="51.3" y="123.3"/><text fill="#000000" font-family="sans-serif" font-size="12.6" lengthAdjust="spacing" textLength="10.8" x="60.3" y="144.4816">...</text><!--MD5=[26e74a1f6345966f6bfc77f39685301f]
entity essp1_services--><rect fill="#FEFECE" height="32.8395" style="stroke:#000000;stroke-width:1.35;" width="66.6" x="1602" y="123.3"/><text fill="#000000" font-family="sans-serif" font-size="12.6" lengthAdjust="spacing" textLength="48.6" x="1611" y="144.4816">services</text><!--MD5=[0c3c4fb2695defc706e010c1af551051]
entity essp1_logging_es--><rect fill="#FEFECE" height="32.8395" style="stroke:#000000;stroke-width:1.35;" width="83.7" x="1686.15" y="255.6"/><text fill="#000000" font-family="sans-serif" font-size="12.6" lengthAdjust="spacing" textLength="65.7" x="1695.15" y="276.7816">logging ES</text><!--MD5=[2f9ce0debb1a76c896da2b64ddf7e10d]
entity essp1_metrics_es--><rect fill="#FEFECE" height="32.8395" style="stroke:#000000;stroke-width:1.35;" width="81" x="1549.8" y="255.6"/><text fill="#000000" font-family="sans-serif" font-size="12.6" lengthAdjust="spacing" textLength="63" x="1558.8" y="276.7816">metrics ES</text><!--MD5=[9a2a84278056c82d69a7b2b7fcb5a65e]
entity essp2_services--><rect fill="#FEFECE" height="32.8395" style="stroke:#000000;stroke-width:1.35;" width="66.6" x="1287.9" y="123.3"/><text fill="#000000" font-family="sans-serif" font-size="12.6" lengthAdjust="spacing" textLength="48.6" x="1296.9" y="144.4816">services</text><!--MD5=[5b02807551a0fbf48371ece2221f78e6]
entity essp2_logging_es--><rect fill="#FEFECE" height="32.8395" style="stroke:#000000;stroke-width:1.35;" width="83.7" x="1372.05" y="255.6"/><text fill="#000000" font-family="sans-serif" font-size="12.6" lengthAdjust="spacing" textLength="65.7" x="1381.05" y="276.7816">logging ES</text><!--MD5=[436b7a914a8777ad853b615bf3420c8c]
entity essp2_metrics_es--><rect fill="#FEFECE" height="32.8395" style="stroke:#000000;stroke-width:1.35;" width="81" x="1235.7" y="255.6"/><text fill="#000000" font-family="sans-serif" font-size="12.6" lengthAdjust="spacing" textLength="63" x="1244.7" y="276.7816">metrics ES</text><!--MD5=[13cebbea5b961c29f6431267dede7159]
entity essp_more_dots--><rect fill="#FEFECE" height="32.8395" style="stroke:#000000;stroke-width:1.35;" width="28.8" x="1130.4" y="123.3"/><text fill="#000000" font-family="sans-serif" font-size="12.6" lengthAdjust="spacing" textLength="10.8" x="1139.4" y="144.4816">...</text><!--MD5=[15b3147282c1346241f812d17e8d7588]
entity govcloud_services--><rect fill="#FEFECE" height="32.8395" style="stroke:#000000;stroke-width:1.35;" width="66.6" x="864" y="123.3"/><text fill="#000000" font-family="sans-serif" font-size="12.6" lengthAdjust="spacing" textLength="48.6" x="873" y="144.4816">services</text><!--MD5=[2ceca6776f3e0b079d3f930f72c00261]
entity govcloud_logging_es--><rect fill="#FEFECE" height="32.8395" style="stroke:#000000;stroke-width:1.35;" width="83.7" x="948.15" y="255.6"/><text fill="#000000" font-family="sans-serif" font-size="12.6" lengthAdjust="spacing" textLength="65.7" x="957.15" y="276.7816">logging ES</text><!--MD5=[83186f76e141b2ea0568a4d9753f39ff]
entity govcloud_metrics_es--><rect fill="#FEFECE" height="32.8395" style="stroke:#000000;stroke-width:1.35;" width="81" x="811.8" y="255.6"/><text fill="#000000" font-family="sans-serif" font-size="12.6" lengthAdjust="spacing" textLength="63" x="820.8" y="276.7816">metrics ES</text><!--MD5=[1fdd0f40a841a2cf6f58f19fecccf769]
entity central_alerting--><rect fill="#FEFECE" height="32.8395" style="stroke:#000000;stroke-width:1.35;" width="116.1" x="1120.95" y="401.4"/><text fill="#000000" font-family="sans-serif" font-size="12.6" lengthAdjust="spacing" textLength="98.1" x="1129.95" y="422.5816">Central Alerting</text><!--MD5=[5ca3f27956cdfb74c3b0644a217512ac]
entity reporting_scripts--><rect fill="#FEFECE" height="32.8395" style="stroke:#000000;stroke-width:1.35;" width="124.2" x="441" y="401.4"/><text fill="#000000" font-family="sans-serif" font-size="12.6" lengthAdjust="spacing" textLength="106.2" x="450" y="422.5816">Reporting Scripts</text><!--MD5=[fb451c596e3185a9775beb5d099e6c83]
reverse link ess_us_east_metrics_es to ess_us_east_logging_es--><path d="M247.608,271.8 C263.907,271.8 282.231,271.8 298.251,271.8 " fill="none" id="ess_us_east_metrics_es-backto-ess_us_east_logging_es" style="stroke:#666666;stroke-width:1.8;"/><polygon fill="#666666" points="243.072,271.8,251.172,275.4,247.572,271.8,251.172,268.2,243.072,271.8" style="stroke:#666666;stroke-width:1.8;"/><text fill="#666666" font-family="sans-serif" font-size="10.8" font-weight="bold" lengthAdjust="spacing" textLength="22.5" x="259.425" y="266.0414">CCS</text><!--MD5=[c273f090ddd222975d7e3b0ef257bf32]
link ess_us_east_services to ess_us_east_logging_es--><path d="M258.498,155.88 C275.499,179.82 308.133,225.765 326.601,251.757 " fill="none" id="ess_us_east_services-to-ess_us_east_logging_es" style="stroke:#666666;stroke-width:1.8;"/><polygon fill="#666666" points="329.22,255.438,327.4673,246.749,326.6154,251.7684,321.596,250.9165,329.22,255.438" style="stroke:#666666;stroke-width:1.8;"/><text fill="#666666" font-family="sans-serif" font-size="10.8" font-weight="bold" lengthAdjust="spacing" textLength="0" x="293.4" y="195.8414"/><!--MD5=[94cc57b3839d161591c16504949faa7f]
link ess_us_east_services to ess_us_east_metrics_es--><path d="M242.163,155.88 C233.973,179.622 218.322,225.009 209.322,251.109 " fill="none" id="ess_us_east_services-to-ess_us_east_metrics_es" style="stroke:#666666;stroke-width:1.8;"/><polygon fill="#666666" points="207.828,255.438,213.8695,248.9518,209.2934,251.1833,207.0619,246.6072,207.828,255.438" style="stroke:#666666;stroke-width:1.8;"/><text fill="#666666" font-family="sans-serif" font-size="10.8" font-weight="bold" lengthAdjust="spacing" textLength="0" x="236.7" y="195.8414"/><!--MD5=[6f19a8d8bbe4466ee1097af27e1f48a5]
link ess_us_east_logging_es to central_alerting--><path d="M356.697,288.045 C378.693,307.386 419.742,339.669 461.7,352.8 C493.677,362.808 730.683,351.909 763.2,360 C777.087,363.456 778.275,370.359 792,374.4 C902.934,407.052 1038.447,414.954 1116.135,416.601 " fill="none" id="ess_us_east_logging_es-to-central_alerting" style="stroke:#666666;stroke-width:1.8;"/><polygon fill="#666666" points="1120.707,416.691,1112.6806,412.9298,1116.2079,416.601,1112.5366,420.1283,1120.707,416.691" style="stroke:#666666;stroke-width:1.8;"/><text fill="#666666" font-family="sans-serif" font-size="10.8" font-weight="bold" lengthAdjust="spacing" textLength="71.1" x="792.9" y="371.3414">Watch action</text><!--MD5=[e849f358c08f40211b27e51510c76945]
link ess_us_east_metrics_es to central_alerting--><path d="M212.427,288.297 C225.72,307.584 251.298,339.48 282.6,352.8 C320.607,368.973 614.187,350.118 654.3,360 C668.196,363.42 669.321,370.521 683.1,374.4 C762.885,396.855 1001.574,409.41 1116.198,414.288 " fill="none" id="ess_us_east_metrics_es-to-central_alerting" style="stroke:#666666;stroke-width:1.8;"/><polygon fill="#666666" points="1120.896,414.495,1112.9581,410.5505,1116.4002,414.3018,1112.6489,417.7439,1120.896,414.495" style="stroke:#666666;stroke-width:1.8;"/><text fill="#666666" font-family="sans-serif" font-size="10.8" font-weight="bold" lengthAdjust="spacing" textLength="71.1" x="684" y="371.3414">Watch action</text><!--MD5=[451e0639f3e4dc66730210437f908aaf]
reverse link ess_us_east_logging_es to reporting_scripts--><path d="M344.466,292.626 C350.325,315.369 362.979,352.269 387,374.4 C401.985,388.206 421.839,397.593 440.883,403.938 " fill="none" id="ess_us_east_logging_es-backto-reporting_scripts" style="stroke:#666666;stroke-width:1.8;"/><polygon fill="#666666" points="343.323,288,341.7708,296.727,344.4023,292.3686,348.7607,295.0001,343.323,288" style="stroke:#666666;stroke-width:1.8;"/><text fill="#666666" font-family="sans-serif" font-size="10.8" font-weight="bold" lengthAdjust="spacing" textLength="0" x="391.5" y="371.3414"/><!--MD5=[2163a014fd1686873410922fa0a266d6]
reverse link ess_us_east_metrics_es to reporting_scripts--><path d="M217.026,292.059 C231.678,310.257 255.888,337.014 282.6,352.8 C331.668,381.798 394.722,398.34 440.82,407.286 " fill="none" id="ess_us_east_metrics_es-backto-reporting_scripts" style="stroke:#666666;stroke-width:1.8;"/><polygon fill="#666666" points="214.047,288.306,216.2385,296.8948,216.8346,291.8386,221.8907,292.4347,214.047,288.306" style="stroke:#666666;stroke-width:1.8;"/><text fill="#666666" font-family="sans-serif" font-size="10.8" font-weight="bold" lengthAdjust="spacing" textLength="0" x="326.7" y="371.3414"/><!--MD5=[328f6ae60c93daa201235154a0e96b3d]
reverse link ess_us_central_metrics_es to ess_us_central_logging_es--><path d="M561.708,271.8 C578.007,271.8 596.331,271.8 612.351,271.8 " fill="none" id="ess_us_central_metrics_es-backto-ess_us_central_logging_es" style="stroke:#666666;stroke-width:1.8;"/><polygon fill="#666666" points="557.172,271.8,565.272,275.4,561.672,271.8,565.272,268.2,557.172,271.8" style="stroke:#666666;stroke-width:1.8;"/><text fill="#666666" font-family="sans-serif" font-size="10.8" font-weight="bold" lengthAdjust="spacing" textLength="22.5" x="573.525" y="266.0414">CCS</text><!--MD5=[f81e53249be6465be4f5923560c93796]
link ess_us_central_services to ess_us_central_logging_es--><path d="M572.598,155.88 C589.599,179.82 622.233,225.765 640.701,251.757 " fill="none" id="ess_us_central_services-to-ess_us_central_logging_es" style="stroke:#666666;stroke-width:1.8;"/><polygon fill="#666666" points="643.32,255.438,641.5673,246.749,640.7154,251.7684,635.696,250.9165,643.32,255.438" style="stroke:#666666;stroke-width:1.8;"/><text fill="#666666" font-family="sans-serif" font-size="10.8" font-weight="bold" lengthAdjust="spacing" textLength="0" x="606.6" y="195.8414"/><!--MD5=[51ece8976fc5e185c59f8bbe244c19b4]
link ess_us_central_services to ess_us_central_metrics_es--><path d="M556.263,155.88 C548.073,179.622 532.422,225.009 523.422,251.109 " fill="none" id="ess_us_central_services-to-ess_us_central_metrics_es" style="stroke:#666666;stroke-width:1.8;"/><polygon fill="#666666" points="521.928,255.438,527.9695,248.9518,523.3934,251.1833,521.1619,246.6072,521.928,255.438" style="stroke:#666666;stroke-width:1.8;"/><text fill="#666666" font-family="sans-serif" font-size="10.8" font-weight="bold" lengthAdjust="spacing" textLength="0" x="549.9" y="195.8414"/><!--MD5=[6abcf5113dd8c8a9b73d383a8e70ac17]
link ess_us_central_logging_es to central_alerting--><path d="M674.496,288.117 C701.028,307.368 749.853,339.399 797.4,352.8 C836.703,363.879 941.454,349.839 981,360 C994.86,363.564 996.381,369.432 1009.8,374.4 C1044.171,387.117 1083.87,397.26 1116.171,404.433 " fill="none" id="ess_us_central_logging_es-to-central_alerting" style="stroke:#666666;stroke-width:1.8;"/><polygon fill="#666666" points="1120.878,405.468,1113.7372,400.2165,1116.4825,404.5041,1112.1949,407.2494,1120.878,405.468" style="stroke:#666666;stroke-width:1.8;"/><text fill="#666666" font-family="sans-serif" font-size="10.8" font-weight="bold" lengthAdjust="spacing" textLength="71.1" x="1010.7" y="371.3414">Watch action</text><!--MD5=[335385cc317713c787bd1922f2edab4e]
link ess_us_central_metrics_es to central_alerting--><path d="M526.545,288.261 C539.847,307.512 565.443,339.372 596.7,352.8 C624.825,364.887 842.4,352.575 872.1,360 C885.987,363.474 887.256,370.071 900.9,374.4 C972.666,397.17 1058.85,407.862 1116.063,412.758 " fill="none" id="ess_us_central_metrics_es-to-central_alerting" style="stroke:#666666;stroke-width:1.8;"/><polygon fill="#666666" points="1120.815,413.154,1113.0409,408.8956,1116.3305,412.7814,1112.4447,416.0709,1120.815,413.154" style="stroke:#666666;stroke-width:1.8;"/><text fill="#666666" font-family="sans-serif" font-size="10.8" font-weight="bold" lengthAdjust="spacing" textLength="71.1" x="901.8" y="371.3414">Watch action</text><!--MD5=[5f51239489ef98b70171a4f0bec88fb8]
reverse link ess_us_central_logging_es to reporting_scripts--><path d="M641.448,291.843 C627.3,311.112 602.613,339.786 573.3,352.8 C560.214,358.614 454.437,349.596 444.6,360 C430.992,374.391 449.766,389.997 469.575,401.184 " fill="none" id="ess_us_central_logging_es-backto-reporting_scripts" style="stroke:#666666;stroke-width:1.8;"/><polygon fill="#666666" points="644.139,288.126,636.4792,292.5867,641.5052,291.7747,642.3172,296.8007,644.139,288.126" style="stroke:#666666;stroke-width:1.8;"/><text fill="#666666" font-family="sans-serif" font-size="10.8" font-weight="bold" lengthAdjust="spacing" textLength="0" x="449.1" y="371.3414"/><!--MD5=[f9ea7a19b73da158163b244c56bba959]
reverse link ess_us_central_metrics_es to reporting_scripts--><path d="M478.647,290.268 C452.142,304.821 418.824,328.257 403.2,360 C392.454,381.825 414.639,395.73 440.811,404.298 " fill="none" id="ess_us_central_metrics_es-backto-reporting_scripts" style="stroke:#666666;stroke-width:1.8;"/><polygon fill="#666666" points="482.841,288.009,474.0027,288.6829,478.8797,290.144,477.4187,295.021,482.841,288.009" style="stroke:#666666;stroke-width:1.8;"/><text fill="#666666" font-family="sans-serif" font-size="10.8" font-weight="bold" lengthAdjust="spacing" textLength="0" x="407.7" y="371.3414"/><!--MD5=[1aac7250a573efbae2912f8ce54ca4c4]
reverse link essp1_metrics_es to essp1_logging_es--><path d="M1635.408,271.8 C1651.707,271.8 1670.031,271.8 1686.051,271.8 " fill="none" id="essp1_metrics_es-backto-essp1_logging_es" style="stroke:#666666;stroke-width:1.8;"/><polygon fill="#666666" points="1630.872,271.8,1638.972,275.4,1635.372,271.8,1638.972,268.2,1630.872,271.8" style="stroke:#666666;stroke-width:1.8;"/><text fill="#666666" font-family="sans-serif" font-size="10.8" font-weight="bold" lengthAdjust="spacing" textLength="22.5" x="1647.225" y="266.0414">CCS</text><!--MD5=[2f5d7ff8417878c04443b7fce84698a5]
link essp1_services to essp1_logging_es--><path d="M1646.298,155.88 C1663.299,179.82 1695.933,225.765 1714.401,251.757 " fill="none" id="essp1_services-to-essp1_logging_es" style="stroke:#666666;stroke-width:1.8;"/><polygon fill="#666666" points="1717.02,255.438,1715.2673,246.749,1714.4154,251.7684,1709.396,250.9165,1717.02,255.438" style="stroke:#666666;stroke-width:1.8;"/><text fill="#666666" font-family="sans-serif" font-size="10.8" font-weight="bold" lengthAdjust="spacing" textLength="0" x="1680.3" y="195.8414"/><!--MD5=[1579ad354b117a40aec20b05241d692a]
link essp1_services to essp1_metrics_es--><path d="M1629.963,155.88 C1621.773,179.622 1606.122,225.009 1597.122,251.109 " fill="none" id="essp1_services-to-essp1_metrics_es" style="stroke:#666666;stroke-width:1.8;"/><polygon fill="#666666" points="1595.628,255.438,1601.6695,248.9518,1597.0934,251.1833,1594.8619,246.6072,1595.628,255.438" style="stroke:#666666;stroke-width:1.8;"/><text fill="#666666" font-family="sans-serif" font-size="10.8" font-weight="bold" lengthAdjust="spacing" textLength="0" x="1623.6" y="195.8414"/><!--MD5=[2da4e5f5be0c66e9c68133ee5ee87c64]
link essp1_logging_es to central_alerting--><path d="M1727.343,288.081 C1725.453,310.995 1718.262,353.646 1691.1,374.4 C1656.117,401.139 1370.574,411.795 1241.694,415.269 " fill="none" id="essp1_logging_es-to-central_alerting" style="stroke:#666666;stroke-width:1.8;"/><polygon fill="#666666" points="1237.185,415.386,1245.3749,418.7766,1241.6835,415.2703,1245.1898,411.579,1237.185,415.386" style="stroke:#666666;stroke-width:1.8;"/><text fill="#666666" font-family="sans-serif" font-size="10.8" font-weight="bold" lengthAdjust="spacing" textLength="71.1" x="1703.7" y="371.3414">Watch action</text><!--MD5=[5c951c4c02546cff184ae20ad1943251]
link essp1_metrics_es to central_alerting--><path d="M1579.167,288.207 C1561.635,311.292 1525.248,354.15 1483.2,374.4 C1441.755,394.362 1317.96,406.629 1241.667,412.515 " fill="none" id="essp1_metrics_es-to-central_alerting" style="stroke:#666666;stroke-width:1.8;"/><polygon fill="#666666" points="1237.167,412.857,1245.5205,415.8215,1241.6536,412.5099,1244.9652,408.6429,1237.167,412.857" style="stroke:#666666;stroke-width:1.8;"/><text fill="#666666" font-family="sans-serif" font-size="10.8" font-weight="bold" lengthAdjust="spacing" textLength="71.1" x="1507.5" y="371.3414">Watch action</text><!--MD5=[78286616ef671b1a86af8caa9ff4db61]
reverse link essp1_logging_es to reporting_scripts--><path d="M1712.961,291.78 C1697.94,309.708 1673.361,336.204 1647,352.8 C1622.907,367.965 1614.645,368.982 1586.7,374.4 C1486.665,393.795 780.822,410.634 565.389,415.377 " fill="none" id="essp1_logging_es-backto-reporting_scripts" style="stroke:#666666;stroke-width:1.8;"/><polygon fill="#666666" points="1715.832,288.315,1707.8982,292.2678,1712.9664,291.7846,1713.4495,296.8528,1715.832,288.315" style="stroke:#666666;stroke-width:1.8;"/><text fill="#666666" font-family="sans-serif" font-size="10.8" font-weight="bold" lengthAdjust="spacing" textLength="0" x="1638" y="371.3414"/><!--MD5=[bc4bbcd22015448a72f06573454c75f6]
reverse link essp1_metrics_es to reporting_scripts--><path d="M1570.689,291.195 C1548.432,310.815 1510.065,340.623 1470.6,352.8 C1427.121,366.219 696.312,351.549 651.6,360 C648.756,360.54 585.693,384.786 542.673,401.4 " fill="none" id="essp1_metrics_es-backto-reporting_scripts" style="stroke:#666666;stroke-width:1.8;"/><polygon fill="#666666" points="1574.118,288.144,1565.6723,290.8347,1570.7547,291.1336,1570.4557,296.216,1574.118,288.144" style="stroke:#666666;stroke-width:1.8;"/><text fill="#666666" font-family="sans-serif" font-size="10.8" font-weight="bold" lengthAdjust="spacing" textLength="0" x="656.1" y="371.3414"/><!--MD5=[a6a7e26c8ef96beb579c34bafdccbaba]
reverse link essp2_metrics_es to essp2_logging_es--><path d="M1321.308,271.8 C1337.607,271.8 1355.931,271.8 1371.951,271.8 " fill="none" id="essp2_metrics_es-backto-essp2_logging_es" style="stroke:#666666;stroke-width:1.8;"/><polygon fill="#666666" points="1316.772,271.8,1324.872,275.4,1321.272,271.8,1324.872,268.2,1316.772,271.8" style="stroke:#666666;stroke-width:1.8;"/><text fill="#666666" font-family="sans-serif" font-size="10.8" font-weight="bold" lengthAdjust="spacing" textLength="22.5" x="1333.125" y="266.0414">CCS</text><!--MD5=[50ca4004f739ec815079cdccc4ec95d2]
link essp2_services to essp2_logging_es--><path d="M1332.198,155.88 C1349.199,179.82 1381.833,225.765 1400.301,251.757 " fill="none" id="essp2_services-to-essp2_logging_es" style="stroke:#666666;stroke-width:1.8;"/><polygon fill="#666666" points="1402.92,255.438,1401.1673,246.749,1400.3154,251.7684,1395.296,250.9165,1402.92,255.438" style="stroke:#666666;stroke-width:1.8;"/><text fill="#666666" font-family="sans-serif" font-size="10.8" font-weight="bold" lengthAdjust="spacing" textLength="0" x="1366.2" y="195.8414"/><!--MD5=[591baa948c6f75e3c933cb1462a2b96e]
link essp2_services to essp2_metrics_es--><path d="M1315.863,155.88 C1307.673,179.622 1292.022,225.009 1283.022,251.109 " fill="none" id="essp2_services-to-essp2_metrics_es" style="stroke:#666666;stroke-width:1.8;"/><polygon fill="#666666" points="1281.528,255.438,1287.5695,248.9518,1282.9934,251.1833,1280.7619,246.6072,1281.528,255.438" style="stroke:#666666;stroke-width:1.8;"/><text fill="#666666" font-family="sans-serif" font-size="10.8" font-weight="bold" lengthAdjust="spacing" textLength="0" x="1309.5" y="195.8414"/><!--MD5=[4c176b75872c722f7c9a402f24c2914d]
link essp2_logging_es to central_alerting--><path d="M1415.592,288.225 C1417.086,310.545 1416.204,351.531 1393.2,374.4 C1372.221,395.262 1297.17,406.413 1241.802,411.93 " fill="none" id="essp2_logging_es-to-central_alerting" style="stroke:#666666;stroke-width:1.8;"/><polygon fill="#666666" points="1237.176,412.389,1245.5877,415.1843,1241.6547,411.9514,1244.8876,408.0184,1237.176,412.389" style="stroke:#666666;stroke-width:1.8;"/><text fill="#666666" font-family="sans-serif" font-size="10.8" font-weight="bold" lengthAdjust="spacing" textLength="71.1" x="1404" y="371.3414">Watch action</text><!--MD5=[bf1aebb1be3f2dc85c64fdd7c403fba6]
link essp2_metrics_es to central_alerting--><path d="M1288.827,288.207 C1304.487,309.429 1326.888,347.895 1307.7,374.4 C1292.508,395.388 1266.561,406.143 1241.937,411.588 " fill="none" id="essp2_metrics_es-to-central_alerting" style="stroke:#666666;stroke-width:1.8;"/><polygon fill="#666666" points="1237.356,412.542,1246.0239,414.3961,1241.7595,411.615,1244.5406,407.3505,1237.356,412.542" style="stroke:#666666;stroke-width:1.8;"/><text fill="#666666" font-family="sans-serif" font-size="10.8" font-weight="bold" lengthAdjust="spacing" textLength="71.1" x="1314" y="371.3414">Watch action</text><!--MD5=[e8c93611dbc0363adea81e30813ab69f]
reverse link essp2_logging_es to reporting_scripts--><path d="M1401.408,291.78 C1387.395,311.274 1362.681,340.389 1332.9,352.8 C1295.838,368.244 649.116,350.127 610.2,360 C578.385,368.073 545.58,387.36 524.799,401.202 " fill="none" id="essp2_logging_es-backto-reporting_scripts" style="stroke:#666666;stroke-width:1.8;"/><polygon fill="#666666" points="1404.072,288.018,1396.4585,292.5573,1401.4759,291.6936,1402.3396,296.711,1404.072,288.018" style="stroke:#666666;stroke-width:1.8;"/><text fill="#666666" font-family="sans-serif" font-size="10.8" font-weight="bold" lengthAdjust="spacing" textLength="0" x="614.7" y="371.3414"/><!--MD5=[dba3ce73170ceca0fb317ebced0d4a08]
reverse link essp2_metrics_es to reporting_scripts--><path d="M1238.679,290.007 C1194.048,309.591 1116.747,340.389 1046.7,352.8 C1020.555,357.435 593.622,350.559 568.8,360 C546.831,368.361 527.238,387.585 515.286,401.328 " fill="none" id="essp2_metrics_es-backto-reporting_scripts" style="stroke:#666666;stroke-width:1.8;"/><polygon fill="#666666" points="1242.9,288.144,1234.0361,288.1157,1238.782,289.9585,1236.9392,294.7044,1242.9,288.144" style="stroke:#666666;stroke-width:1.8;"/><text fill="#666666" font-family="sans-serif" font-size="10.8" font-weight="bold" lengthAdjust="spacing" textLength="0" x="573.3" y="371.3414"/><!--MD5=[8ea2ac2ccca02a4ca6c3849c2178a55c]
reverse link govcloud_metrics_es to govcloud_logging_es--><path d="M897.408,271.8 C913.707,271.8 932.031,271.8 948.051,271.8 " fill="none" id="govcloud_metrics_es-backto-govcloud_logging_es" style="stroke:#666666;stroke-width:1.8;"/><polygon fill="#666666" points="892.872,271.8,900.972,275.4,897.372,271.8,900.972,268.2,892.872,271.8" style="stroke:#666666;stroke-width:1.8;"/><text fill="#666666" font-family="sans-serif" font-size="10.8" font-weight="bold" lengthAdjust="spacing" textLength="22.5" x="909.225" y="266.0414">CCS</text><!--MD5=[ba49794348ce28a08ead0f8b219c5da8]
link govcloud_services to govcloud_logging_es--><path d="M908.298,155.88 C925.299,179.82 957.933,225.765 976.401,251.757 " fill="none" id="govcloud_services-to-govcloud_logging_es" style="stroke:#666666;stroke-width:1.8;"/><polygon fill="#666666" points="979.02,255.438,977.2673,246.749,976.4154,251.7684,971.396,250.9165,979.02,255.438" style="stroke:#666666;stroke-width:1.8;"/><text fill="#666666" font-family="sans-serif" font-size="10.8" font-weight="bold" lengthAdjust="spacing" textLength="0" x="942.3" y="195.8414"/><!--MD5=[f553b4841e21482a083a515a04c2f06e]
link govcloud_services to govcloud_metrics_es--><path d="M891.963,155.88 C883.773,179.622 868.122,225.009 859.122,251.109 " fill="none" id="govcloud_services-to-govcloud_metrics_es" style="stroke:#666666;stroke-width:1.8;"/><polygon fill="#666666" points="857.628,255.438,863.6695,248.9518,859.0934,251.1833,856.8619,246.6072,857.628,255.438" style="stroke:#666666;stroke-width:1.8;"/><text fill="#666666" font-family="sans-serif" font-size="10.8" font-weight="bold" lengthAdjust="spacing" textLength="0" x="885.6" y="195.8414"/><!--MD5=[208f5cfe67b7309a83436ee13b6b2f71]
link govcloud_logging_es to central_alerting--><path d="M1031.895,276.75 C1081.386,284.031 1161.675,304.236 1198.8,360 C1206.378,371.385 1200.996,385.992 1193.94,397.521 " fill="none" id="govcloud_logging_es-to-central_alerting" style="stroke:#666666;stroke-width:1.8;"/><polygon fill="#666666" points="1191.501,401.31,1198.9094,396.4432,1193.9344,397.5247,1192.8529,392.5497,1191.501,401.31" style="stroke:#666666;stroke-width:1.8;"/><text fill="#666666" font-family="sans-serif" font-size="10.8" font-weight="bold" lengthAdjust="spacing" textLength="71.1" x="1203.3" y="371.3414">Watch action</text><!--MD5=[3b964880af559627dc53ac8f1b012d95]
link govcloud_metrics_es to central_alerting--><path d="M862.281,288.171 C875.637,307.314 901.269,339.066 932.4,352.8 C964.458,366.948 1056.492,349.434 1089.9,360 C1103.229,364.212 1132.299,383.526 1153.629,398.457 " fill="none" id="govcloud_metrics_es-to-central_alerting" style="stroke:#666666;stroke-width:1.8;"/><polygon fill="#666666" points="1157.508,401.193,1152.9509,393.5902,1153.8263,398.6055,1148.811,399.4809,1157.508,401.193" style="stroke:#666666;stroke-width:1.8;"/><text fill="#666666" font-family="sans-serif" font-size="10.8" font-weight="bold" lengthAdjust="spacing" textLength="71.1" x="1116.9" y="371.3414">Watch action</text><!--MD5=[9a911cf6c0ec96e7e5759a532fb53595]
reverse link govcloud_logging_es to reporting_scripts--><path d="M977.247,292.059 C963.171,311.508 938.556,340.326 909,352.8 C889.461,361.044 544.995,348.165 527.4,360 C513.72,369.207 507.699,387.855 505.08,401.256 " fill="none" id="govcloud_logging_es-backto-reporting_scripts" style="stroke:#666666;stroke-width:1.8;"/><polygon fill="#666666" points="979.92,288.306,972.296,292.8275,977.3154,291.9756,978.1673,296.995,979.92,288.306" style="stroke:#666666;stroke-width:1.8;"/><text fill="#666666" font-family="sans-serif" font-size="10.8" font-weight="bold" lengthAdjust="spacing" textLength="0" x="531.9" y="371.3414"/><!--MD5=[18bf296d7db0b571f61e74d552227680]
reverse link govcloud_metrics_es to reporting_scripts--><path d="M828.819,290.799 C802.017,310.275 756.027,340.155 711,352.8 C698.958,356.184 494.703,351.018 486,360 C475.272,371.079 482.985,388.638 491.211,401.283 " fill="none" id="govcloud_metrics_es-backto-reporting_scripts" style="stroke:#666666;stroke-width:1.8;"/><polygon fill="#666666" points="832.635,288.009,823.9751,289.9,829.0074,290.6718,828.2356,295.7041,832.635,288.009" style="stroke:#666666;stroke-width:1.8;"/><text fill="#666666" font-family="sans-serif" font-size="10.8" font-weight="bold" lengthAdjust="spacing" textLength="0" x="490.5" y="371.3414"/></g></svg>