<?xml version="1.0" encoding="UTF-8" standalone="no"?><svg xmlns="http://www.w3.org/2000/svg" xmlns:xlink="http://www.w3.org/1999/xlink" contentScriptType="application/ecmascript" contentStyleType="text/css" height="326.7px" preserveAspectRatio="none" style="width:885px;height:326px;" version="1.1" viewBox="0 0 885 326" width="885.6px" zoomAndPan="magnify"><defs><style type="text/css"><![CDATA[path:hover { stroke: #FF0000 !important;}]]></style><filter height="300%" id="fl8syyltatwnw" width="300%" x="-1" y="-1"><feGaussianBlur result="blurOut" stdDeviation="1.8"/><feColorMatrix in="blurOut" result="blurOut2" type="matrix" values="0 0 0 0 0 0 0 0 0 0 0 0 0 0 0 0 0 0 .4 0"/><feOffset dx="3.6" dy="3.6" in="blurOut2" result="blurOut3"/><feBlend in="SourceGraphic" in2="blurOut3" mode="normal"/></filter></defs><g><!--MD5=[c3a9d24a21b39e5c92db582890ad26f6]
cluster control--><rect fill="#FFFFFF" height="315" style="stroke:#444444;stroke-width:0.9;stroke-dasharray:7.0,7.0;" width="350.1" x="6.3" y="6.3"/><text fill="#000000" font-family="sans-serif" font-size="12.6" font-style="italic" lengthAdjust="spacing" textLength="72" x="145.35" y="20.2816">«boundary»</text><text fill="#444444" font-family="sans-serif" font-size="14.4" font-weight="bold" lengthAdjust="spacing" textLength="195.3" x="83.7" y="36.8613">control region (us-east-1)</text><!--MD5=[ad451f4edf47a429435ab66d58b9bf04]
cluster remote_gcp--><rect fill="#FFFFFF" height="289.8" style="stroke:#444444;stroke-width:0.9;stroke-dasharray:7.0,7.0;" width="257.4" x="378" y="6.3"/><text fill="#000000" font-family="sans-serif" font-size="12.6" font-style="italic" lengthAdjust="spacing" textLength="72" x="470.7" y="20.2816">«boundary»</text><text fill="#444444" font-family="sans-serif" font-size="14.4" font-weight="bold" lengthAdjust="spacing" textLength="243" x="385.2" y="36.8613">remote region (gcp-us-central1)</text><!--MD5=[4ff8e5b4d782ab05bd4fb7eebcda6ebb]
cluster remote_azure--><rect fill="#FFFFFF" height="289.8" style="stroke:#444444;stroke-width:0.9;stroke-dasharray:7.0,7.0;" width="212.4" x="667.8" y="6.3"/><text fill="#000000" font-family="sans-serif" font-size="12.6" font-style="italic" lengthAdjust="spacing" textLength="72" x="738" y="20.2816">«boundary»</text><text fill="#444444" font-family="sans-serif" font-size="14.4" font-weight="bold" lengthAdjust="spacing" textLength="129.6" x="709.2" y="36.8613">remote region (...)</text><!--MD5=[e5263d57610767296b146270ce7a700d]
entity adminconsole--><rect fill="#1168BD" height="92.1973" style="stroke:#3C7FC0;stroke-width:1.35;" width="174.6" x="167.4" y="215.1"/><text fill="#FFFFFF" font-family="sans-serif" font-size="10.8" font-style="italic" lengthAdjust="spacing" textLength="46.8" x="231.3" y="234.5414">«system»</text><text fill="#FFFFFF" font-family="sans-serif" font-size="14.4" font-weight="bold" lengthAdjust="spacing" textLength="103.5" x="202.95" y="250.7414">adminconsole</text><text fill="#FFFFFF" font-family="sans-serif" font-size="12.6" lengthAdjust="spacing" textLength="0" x="256.5" y="265.9605"/><text fill="#FFFFFF" font-family="sans-serif" font-size="12.6" lengthAdjust="spacing" textLength="149.4" x="180" y="280.8">Indexes all deployments</text><text fill="#FFFFFF" font-family="sans-serif" font-size="12.6" lengthAdjust="spacing" textLength="48.6" x="230.4" y="295.6395">globally</text><!--MD5=[330674a275cf859992cdbe9c66ba5b9e]
entity sla_aws--><rect fill="#1168BD" height="92.1973" style="stroke:#3C7FC0;stroke-width:1.35;" width="183.6" x="39.6" y="54.9"/><text fill="#FFFFFF" font-family="sans-serif" font-size="10.8" font-style="italic" lengthAdjust="spacing" textLength="46.8" x="108" y="74.3414">«system»</text><text fill="#FFFFFF" font-family="sans-serif" font-size="14.4" font-weight="bold" lengthAdjust="spacing" textLength="20.7" x="121.05" y="90.5414">sla</text><text fill="#FFFFFF" font-family="sans-serif" font-size="12.6" lengthAdjust="spacing" textLength="0" x="133.2" y="105.7605"/><text fill="#FFFFFF" font-family="sans-serif" font-size="12.6" lengthAdjust="spacing" textLength="157.5" x="52.65" y="120.6">Monitors availability of all</text><text fill="#FFFFFF" font-family="sans-serif" font-size="12.6" lengthAdjust="spacing" textLength="165.6" x="48.6" y="135.4395">deployments in the region.</text><!--MD5=[6ae6ee3bb8f760ffe7b86ccdb6f7c835]
entity elasticsearch_aws--><polygon fill="#FEFECE" filter="url(#fl8syyltatwnw)" points="20.7,249.3,29.7,240.3,135.9,240.3,135.9,273.1395,126.9,282.1395,20.7,282.1395,20.7,249.3" style="stroke:#000000;stroke-width:1.35;"/><line style="stroke:#000000;stroke-width:1.35;" x1="126.9" x2="135.9" y1="249.3" y2="240.3"/><line style="stroke:#000000;stroke-width:1.35;" x1="20.7" x2="126.9" y1="249.3" y2="249.3"/><line style="stroke:#000000;stroke-width:1.35;" x1="126.9" x2="126.9" y1="249.3" y2="282.1395"/><text fill="#000000" font-family="sans-serif" font-size="12.6" lengthAdjust="spacing" textLength="79.2" x="34.2" y="270.4816">elasticsearch</text><!--MD5=[97bbc31c464885e521edd0b1c66c4cbb]
entity sla_gcp--><rect fill="#1168BD" height="92.1973" style="stroke:#3C7FC0;stroke-width:1.35;" width="183.6" x="392.4" y="54.9"/><text fill="#FFFFFF" font-family="sans-serif" font-size="10.8" font-style="italic" lengthAdjust="spacing" textLength="46.8" x="460.8" y="74.3414">«system»</text><text fill="#FFFFFF" font-family="sans-serif" font-size="14.4" font-weight="bold" lengthAdjust="spacing" textLength="20.7" x="473.85" y="90.5414">sla</text><text fill="#FFFFFF" font-family="sans-serif" font-size="12.6" lengthAdjust="spacing" textLength="0" x="486" y="105.7605"/><text fill="#FFFFFF" font-family="sans-serif" font-size="12.6" lengthAdjust="spacing" textLength="157.5" x="405.45" y="120.6">Monitors availability of all</text><text fill="#FFFFFF" font-family="sans-serif" font-size="12.6" lengthAdjust="spacing" textLength="165.6" x="401.4" y="135.4395">deployments in the region.</text><!--MD5=[ed08dd7c4b0be0994035dc3c748614c9]
entity elasticsearch_gcp--><polygon fill="#FEFECE" filter="url(#fl8syyltatwnw)" points="426.6,249.3,435.6,240.3,541.8,240.3,541.8,273.1395,532.8,282.1395,426.6,282.1395,426.6,249.3" style="stroke:#000000;stroke-width:1.35;"/><line style="stroke:#000000;stroke-width:1.35;" x1="532.8" x2="541.8" y1="249.3" y2="240.3"/><line style="stroke:#000000;stroke-width:1.35;" x1="426.6" x2="532.8" y1="249.3" y2="249.3"/><line style="stroke:#000000;stroke-width:1.35;" x1="532.8" x2="532.8" y1="249.3" y2="282.1395"/><text fill="#000000" font-family="sans-serif" font-size="12.6" lengthAdjust="spacing" textLength="79.2" x="440.1" y="270.4816">elasticsearch</text><!--MD5=[67b28d53d79be32b0e0d25a57d9792bf]
entity sla_azure--><rect fill="#1168BD" height="92.1973" style="stroke:#3C7FC0;stroke-width:1.35;" width="183.6" x="682.2" y="54.9"/><text fill="#FFFFFF" font-family="sans-serif" font-size="10.8" font-style="italic" lengthAdjust="spacing" textLength="46.8" x="750.6" y="74.3414">«system»</text><text fill="#FFFFFF" font-family="sans-serif" font-size="14.4" font-weight="bold" lengthAdjust="spacing" textLength="20.7" x="763.65" y="90.5414">sla</text><text fill="#FFFFFF" font-family="sans-serif" font-size="12.6" lengthAdjust="spacing" textLength="0" x="775.8" y="105.7605"/><text fill="#FFFFFF" font-family="sans-serif" font-size="12.6" lengthAdjust="spacing" textLength="157.5" x="695.25" y="120.6">Monitors availability of all</text><text fill="#FFFFFF" font-family="sans-serif" font-size="12.6" lengthAdjust="spacing" textLength="165.6" x="691.2" y="135.4395">deployments in the region.</text><!--MD5=[8e1559c7dc1ede5f411d3d6cdc0c85a6]
entity elasticsearch_azure--><polygon fill="#FEFECE" filter="url(#fl8syyltatwnw)" points="727.2,249.3,736.2,240.3,842.4,240.3,842.4,273.1395,833.4,282.1395,727.2,282.1395,727.2,249.3" style="stroke:#000000;stroke-width:1.35;"/><line style="stroke:#000000;stroke-width:1.35;" x1="833.4" x2="842.4" y1="249.3" y2="240.3"/><line style="stroke:#000000;stroke-width:1.35;" x1="727.2" x2="833.4" y1="249.3" y2="249.3"/><line style="stroke:#000000;stroke-width:1.35;" x1="833.4" x2="833.4" y1="249.3" y2="282.1395"/><text fill="#000000" font-family="sans-serif" font-size="12.6" lengthAdjust="spacing" textLength="79.2" x="740.7" y="270.4816">elasticsearch</text><!--MD5=[5c4ce3390eaff56a2ff742e497c95c3b]
link sla_aws to elasticsearch_aws--><path d="M116.181,147.087 C106.848,174.924 95.22,209.628 87.327,233.181 " fill="none" id="sla_aws-to-elasticsearch_aws" style="stroke:#666666;stroke-width:1.8;"/><polygon fill="#666666" points="85.005,240.111,89.8534,234.1425,84.7334,232.4262,85.005,240.111" style="stroke:#666666;stroke-width:1.8;"/><text fill="#666666" font-family="sans-serif" font-size="10.8" font-weight="bold" lengthAdjust="spacing" textLength="31.5" x="108" y="185.0414">check</text><!--MD5=[0e5aa417cd88e855d6cf87f38502ab64]
link sla_gcp to elasticsearch_gcp--><path d="M484.2,147.087 C484.2,174.807 484.2,209.331 484.2,232.875 " fill="none" id="sla_gcp-to-elasticsearch_gcp" style="stroke:#666666;stroke-width:1.8;"/><polygon fill="#666666" points="484.2,240.111,486.9,232.911,481.5,232.911,484.2,240.111" style="stroke:#666666;stroke-width:1.8;"/><text fill="#666666" font-family="sans-serif" font-size="10.8" font-weight="bold" lengthAdjust="spacing" textLength="31.5" x="485.1" y="185.0414">check</text><!--MD5=[4d3421a3dc75a29777aaed20cf4b4a81]
link sla_azure to elasticsearch_azure--><path d="M777.096,147.087 C778.986,174.807 781.335,209.331 782.946,232.875 " fill="none" id="sla_azure-to-elasticsearch_azure" style="stroke:#666666;stroke-width:1.8;"/><polygon fill="#666666" points="783.441,240.111,785.6456,232.7442,780.258,233.1111,783.441,240.111" style="stroke:#666666;stroke-width:1.8;"/><text fill="#666666" font-family="sans-serif" font-size="10.8" font-weight="bold" lengthAdjust="spacing" textLength="31.5" x="780.3" y="185.0414">check</text><!--MD5=[c30114b2113d409bd85886a9d31f9ec1]
link sla_aws to adminconsole--><path d="M166.734,147.087 C181.827,166.482 199.503,189.189 215.046,209.151 " fill="none" id="sla_aws-to-adminconsole" style="stroke:#666666;stroke-width:1.8;"/><polygon fill="#666666" points="219.573,214.974,217.2816,207.6337,213.0201,210.9504,219.573,214.974" style="stroke:#666666;stroke-width:1.8;"/><text fill="#666666" font-family="sans-serif" font-size="10.8" font-weight="bold" lengthAdjust="spacing" textLength="65.7" x="198" y="185.0414">cluster lists</text><!--MD5=[4ebfda5d126cf8ec364ce4ad1cafe0cc]
link sla_gcp to adminconsole--><path d="M418.743,146.88 C389.925,166.77 355.977,190.197 326.475,210.564 " fill="none" id="sla_gcp-to-adminconsole" style="stroke:#666666;stroke-width:1.8;"/><polygon fill="#666666" points="320.247,214.857,327.7049,212.9837,324.6342,208.5417,320.247,214.857" style="stroke:#666666;stroke-width:1.8;"/><text fill="#666666" font-family="sans-serif" font-size="10.8" font-weight="bold" lengthAdjust="spacing" textLength="65.7" x="377.1" y="185.0414">cluster lists</text><!--MD5=[21e6a15a9ba929e662a5a5592050017f]
link sla_azure to adminconsole--><path d="M692.523,146.754 C661.41,162.153 625.068,178.011 590.4,188.1 C499.032,214.686 470.475,192.645 378,215.1 C368.559,217.395 358.839,220.167 349.2,223.209 " fill="none" id="sla_azure-to-adminconsole" style="stroke:#666666;stroke-width:1.8;"/><polygon fill="#666666" points="342.198,225.459,349.8792,225.8174,348.2209,220.6783,342.198,225.459" style="stroke:#666666;stroke-width:1.8;"/><text fill="#666666" font-family="sans-serif" font-size="10.8" font-weight="bold" lengthAdjust="spacing" textLength="65.7" x="627.3" y="185.0414">cluster lists</text></g></svg>