<?xml version="1.0" encoding="UTF-8" standalone="no"?><svg xmlns="http://www.w3.org/2000/svg" xmlns:xlink="http://www.w3.org/1999/xlink" contentScriptType="application/ecmascript" contentStyleType="text/css" height="326.7px" preserveAspectRatio="none" style="width:774px;height:326px;" version="1.1" viewBox="0 0 774 326" width="774px" zoomAndPan="magnify"><defs><style type="text/css"><![CDATA[path:hover { stroke: #FF0000 !important;}]]></style></defs><g><!--MD5=[c3a9d24a21b39e5c92db582890ad26f6]
cluster control--><rect fill="#FFFFFF" height="315" style="stroke:#444444;stroke-width:0.9;stroke-dasharray:7.0,7.0;" width="223.2" x="6.3" y="6.3"/><text fill="#000000" font-family="sans-serif" font-size="12.6" font-style="italic" lengthAdjust="spacing" textLength="72" x="81.9" y="20.2816">«boundary»</text><text fill="#444444" font-family="sans-serif" font-size="14.4" font-weight="bold" lengthAdjust="spacing" textLength="195.3" x="20.25" y="36.8613">control region (us-east-1)</text><!--MD5=[ad451f4edf47a429435ab66d58b9bf04]
cluster remote_gcp--><rect fill="#FFFFFF" height="315" style="stroke:#444444;stroke-width:0.9;stroke-dasharray:7.0,7.0;" width="257.4" x="251.1" y="6.3"/><text fill="#000000" font-family="sans-serif" font-size="12.6" font-style="italic" lengthAdjust="spacing" textLength="72" x="343.8" y="20.2816">«boundary»</text><text fill="#444444" font-family="sans-serif" font-size="14.4" font-weight="bold" lengthAdjust="spacing" textLength="243" x="258.3" y="36.8613">remote region (gcp-us-central1)</text><!--MD5=[4ff8e5b4d782ab05bd4fb7eebcda6ebb]
cluster remote_azure--><rect fill="#FFFFFF" height="315" style="stroke:#444444;stroke-width:0.9;stroke-dasharray:7.0,7.0;" width="223.2" x="545.4" y="6.3"/><text fill="#000000" font-family="sans-serif" font-size="12.6" font-style="italic" lengthAdjust="spacing" textLength="72" x="621" y="20.2816">«boundary»</text><text fill="#444444" font-family="sans-serif" font-size="14.4" font-weight="bold" lengthAdjust="spacing" textLength="129.6" x="592.2" y="36.8613">remote region (...)</text><!--MD5=[330674a275cf859992cdbe9c66ba5b9e]
entity sla_aws--><rect fill="#1168BD" height="92.1973" style="stroke:#3C7FC0;stroke-width:1.35;" width="183.6" x="31.5" y="54.9"/><text fill="#FFFFFF" font-family="sans-serif" font-size="10.8" font-style="italic" lengthAdjust="spacing" textLength="46.8" x="99.9" y="74.3414">«system»</text><text fill="#FFFFFF" font-family="sans-serif" font-size="14.4" font-weight="bold" lengthAdjust="spacing" textLength="20.7" x="112.95" y="90.5414">sla</text><text fill="#FFFFFF" font-family="sans-serif" font-size="12.6" lengthAdjust="spacing" textLength="0" x="125.1" y="105.7605"/><text fill="#FFFFFF" font-family="sans-serif" font-size="12.6" lengthAdjust="spacing" textLength="157.5" x="44.55" y="120.6">Monitors availability of all</text><text fill="#FFFFFF" font-family="sans-serif" font-size="12.6" lengthAdjust="spacing" textLength="165.6" x="40.5" y="135.4395">deployments in the region.</text><!--MD5=[dd1e67795c4741672cbe9bbacfdc8966]
entity proxy_aws--><rect fill="#1168BD" height="92.1973" style="stroke:#3C7FC0;stroke-width:1.35;" width="193.5" x="21.15" y="215.1"/><text fill="#FFFFFF" font-family="sans-serif" font-size="10.8" font-style="italic" lengthAdjust="spacing" textLength="46.8" x="94.5" y="234.5414">«system»</text><text fill="#FFFFFF" font-family="sans-serif" font-size="14.4" font-weight="bold" lengthAdjust="spacing" textLength="41.4" x="97.2" y="250.7414">proxy</text><text fill="#FFFFFF" font-family="sans-serif" font-size="12.6" lengthAdjust="spacing" textLength="0" x="119.7" y="265.9605"/><text fill="#FFFFFF" font-family="sans-serif" font-size="12.6" lengthAdjust="spacing" textLength="168.3" x="33.75" y="280.8">Gateway to all deployments</text><text fill="#FFFFFF" font-family="sans-serif" font-size="12.6" lengthAdjust="spacing" textLength="82.8" x="76.5" y="295.6395">in the region.</text><!--MD5=[97bbc31c464885e521edd0b1c66c4cbb]
entity sla_gcp--><rect fill="#1168BD" height="92.1973" style="stroke:#3C7FC0;stroke-width:1.35;" width="183.6" x="288" y="54.9"/><text fill="#FFFFFF" font-family="sans-serif" font-size="10.8" font-style="italic" lengthAdjust="spacing" textLength="46.8" x="356.4" y="74.3414">«system»</text><text fill="#FFFFFF" font-family="sans-serif" font-size="14.4" font-weight="bold" lengthAdjust="spacing" textLength="20.7" x="369.45" y="90.5414">sla</text><text fill="#FFFFFF" font-family="sans-serif" font-size="12.6" lengthAdjust="spacing" textLength="0" x="381.6" y="105.7605"/><text fill="#FFFFFF" font-family="sans-serif" font-size="12.6" lengthAdjust="spacing" textLength="157.5" x="301.05" y="120.6">Monitors availability of all</text><text fill="#FFFFFF" font-family="sans-serif" font-size="12.6" lengthAdjust="spacing" textLength="165.6" x="297" y="135.4395">deployments in the region.</text><!--MD5=[86fac31d191310a6558ba4be8726a578]
entity proxy_gcp--><rect fill="#1168BD" height="92.1973" style="stroke:#3C7FC0;stroke-width:1.35;" width="193.5" x="283.05" y="215.1"/><text fill="#FFFFFF" font-family="sans-serif" font-size="10.8" font-style="italic" lengthAdjust="spacing" textLength="46.8" x="356.4" y="234.5414">«system»</text><text fill="#FFFFFF" font-family="sans-serif" font-size="14.4" font-weight="bold" lengthAdjust="spacing" textLength="41.4" x="359.1" y="250.7414">proxy</text><text fill="#FFFFFF" font-family="sans-serif" font-size="12.6" lengthAdjust="spacing" textLength="0" x="381.6" y="265.9605"/><text fill="#FFFFFF" font-family="sans-serif" font-size="12.6" lengthAdjust="spacing" textLength="168.3" x="295.65" y="280.8">Gateway to all deployments</text><text fill="#FFFFFF" font-family="sans-serif" font-size="12.6" lengthAdjust="spacing" textLength="82.8" x="338.4" y="295.6395">in the region.</text><!--MD5=[67b28d53d79be32b0e0d25a57d9792bf]
entity sla_azure--><rect fill="#1168BD" height="92.1973" style="stroke:#3C7FC0;stroke-width:1.35;" width="183.6" x="570.6" y="54.9"/><text fill="#FFFFFF" font-family="sans-serif" font-size="10.8" font-style="italic" lengthAdjust="spacing" textLength="46.8" x="639" y="74.3414">«system»</text><text fill="#FFFFFF" font-family="sans-serif" font-size="14.4" font-weight="bold" lengthAdjust="spacing" textLength="20.7" x="652.05" y="90.5414">sla</text><text fill="#FFFFFF" font-family="sans-serif" font-size="12.6" lengthAdjust="spacing" textLength="0" x="664.2" y="105.7605"/><text fill="#FFFFFF" font-family="sans-serif" font-size="12.6" lengthAdjust="spacing" textLength="157.5" x="583.65" y="120.6">Monitors availability of all</text><text fill="#FFFFFF" font-family="sans-serif" font-size="12.6" lengthAdjust="spacing" textLength="165.6" x="579.6" y="135.4395">deployments in the region.</text><!--MD5=[120f9d537f34804fc24857490ee3a84b]
entity proxy_azure--><rect fill="#1168BD" height="92.1973" style="stroke:#3C7FC0;stroke-width:1.35;" width="193.5" x="560.25" y="215.1"/><text fill="#FFFFFF" font-family="sans-serif" font-size="10.8" font-style="italic" lengthAdjust="spacing" textLength="46.8" x="633.6" y="234.5414">«system»</text><text fill="#FFFFFF" font-family="sans-serif" font-size="14.4" font-weight="bold" lengthAdjust="spacing" textLength="41.4" x="636.3" y="250.7414">proxy</text><text fill="#FFFFFF" font-family="sans-serif" font-size="12.6" lengthAdjust="spacing" textLength="0" x="658.8" y="265.9605"/><text fill="#FFFFFF" font-family="sans-serif" font-size="12.6" lengthAdjust="spacing" textLength="168.3" x="572.85" y="280.8">Gateway to all deployments</text><text fill="#FFFFFF" font-family="sans-serif" font-size="12.6" lengthAdjust="spacing" textLength="82.8" x="615.6" y="295.6395">in the region.</text><!--MD5=[994810d74fe210977258d7e9680554be]
link sla_aws to proxy_aws--><path d="M121.752,147.087 C121.113,165.978 120.357,188.028 119.691,207.603 " fill="none" id="sla_aws-to-proxy_aws" style="stroke:#666666;stroke-width:1.8;"/><polygon fill="#666666" points="119.439,214.974,122.3816,207.8697,116.9847,207.6866,119.439,214.974" style="stroke:#666666;stroke-width:1.8;"/><text fill="#666666" font-family="sans-serif" font-size="10.8" font-weight="bold" lengthAdjust="spacing" textLength="0" x="126" y="185.0414"/><!--MD5=[4a08500939ad12d367f1fefea1c4d944]
link sla_aws to proxy_gcp--><path d="M186.606,146.871 C206.415,160.533 228.528,175.293 249.3,188.1 C261.882,195.858 275.355,203.751 288.693,211.311 " fill="none" id="sla_aws-to-proxy_gcp" style="stroke:#666666;stroke-width:1.8;"/><polygon fill="#666666" points="295.218,215.001,290.2761,209.1097,287.6209,213.8118,295.218,215.001" style="stroke:#666666;stroke-width:1.8;"/><text fill="#666666" font-family="sans-serif" font-size="10.8" font-weight="bold" lengthAdjust="spacing" textLength="0" x="253.8" y="185.0414"/><!--MD5=[329ac4044a3ac400320918d1038bfdc0]
link sla_aws to proxy_azure--><path d="M215.316,133.434 C232.713,138.528 250.893,143.253 268.2,146.7 C396.234,172.197 441.054,121.464 560.7,173.7 C579.861,182.061 597.816,195.768 612.909,209.817 " fill="none" id="sla_aws-to-proxy_azure" style="stroke:#666666;stroke-width:1.8;"/><polygon fill="#666666" points="618.336,215.001,614.9868,208.0791,611.2613,211.988,618.336,215.001" style="stroke:#666666;stroke-width:1.8;"/><text fill="#666666" font-family="sans-serif" font-size="10.8" font-weight="bold" lengthAdjust="spacing" textLength="0" x="589.5" y="185.0414"/><!--MD5=[4276f57153abe61bba6015c52beec28d]
link sla_gcp to proxy_aws--><path d="M320.085,146.754 C300.762,160.623 278.982,175.536 258.3,188.1 C245.205,196.056 231.129,203.976 217.125,211.491 " fill="none" id="sla_gcp-to-proxy_aws" style="stroke:#666666;stroke-width:1.8;"/><polygon fill="#666666" points="210.708,214.911,218.3323,213.9107,215.7946,209.1442,210.708,214.911" style="stroke:#666666;stroke-width:1.8;"/><text fill="#666666" font-family="sans-serif" font-size="10.8" font-weight="bold" lengthAdjust="spacing" textLength="0" x="282.6" y="185.0414"/><!--MD5=[92fe5749201c921949975a3ae1e6ac28]
link sla_gcp to proxy_gcp--><path d="M379.8,147.087 C379.8,165.978 379.8,188.028 379.8,207.603 " fill="none" id="sla_gcp-to-proxy_gcp" style="stroke:#666666;stroke-width:1.8;"/><polygon fill="#666666" points="379.8,214.974,382.5,207.774,377.1,207.774,379.8,214.974" style="stroke:#666666;stroke-width:1.8;"/><text fill="#666666" font-family="sans-serif" font-size="10.8" font-weight="bold" lengthAdjust="spacing" textLength="0" x="384.3" y="185.0414"/><!--MD5=[67896a106109d011860e5c2743413497]
link sla_gcp to proxy_azure--><path d="M471.726,124.713 C523.152,138.888 581.049,157.401 602.1,173.7 C614.178,183.051 624.33,195.858 632.493,208.755 " fill="none" id="sla_gcp-to-proxy_azure" style="stroke:#666666;stroke-width:1.8;"/><polygon fill="#666666" points="636.336,215.073,634.9052,207.5177,630.2901,210.3214,636.336,215.073" style="stroke:#666666;stroke-width:1.8;"/><text fill="#666666" font-family="sans-serif" font-size="10.8" font-weight="bold" lengthAdjust="spacing" textLength="0" x="620.1" y="185.0414"/><!--MD5=[baed1541b3066d76b611ba0a2ac776b7]
link sla_azure to proxy_aws--><path d="M587.304,146.754 C558.27,162.243 524.187,178.164 491.4,188.1 C395.766,217.071 366.021,194.697 268.2,215.1 C253.053,218.259 237.231,222.228 221.778,226.503 " fill="none" id="sla_azure-to-proxy_aws" style="stroke:#666666;stroke-width:1.8;"/><polygon fill="#666666" points="214.704,228.483,222.3654,229.1406,220.9087,223.9408,214.704,228.483" style="stroke:#666666;stroke-width:1.8;"/><text fill="#666666" font-family="sans-serif" font-size="10.8" font-weight="bold" lengthAdjust="spacing" textLength="0" x="534.6" y="185.0414"/><!--MD5=[3d66a1984fdf451c785aaf303fb16281]
link sla_azure to proxy_gcp--><path d="M653.076,146.754 C647.964,161.685 640.134,177.246 628.2,188.1 C622.413,193.365 549.252,214.254 483.822,232.182 " fill="none" id="sla_azure-to-proxy_gcp" style="stroke:#666666;stroke-width:1.8;"/><polygon fill="#666666" points="476.703,234.126,484.3606,234.8268,482.9332,229.6189,476.703,234.126" style="stroke:#666666;stroke-width:1.8;"/><text fill="#666666" font-family="sans-serif" font-size="10.8" font-weight="bold" lengthAdjust="spacing" textLength="0" x="643.5" y="185.0414"/><!--MD5=[9a3a97ae325ac958842bebc968dddd00]
link sla_azure to proxy_azure--><path d="M681.867,146.718 C685.485,159.966 687.438,174.537 684.9,188.1 C683.685,194.58 681.912,201.231 679.833,207.747 " fill="none" id="sla_azure-to-proxy_azure" style="stroke:#666666;stroke-width:1.8;"/><polygon fill="#666666" points="677.466,214.749,682.3279,208.7915,677.2118,207.0636,677.466,214.749" style="stroke:#666666;stroke-width:1.8;"/><text fill="#666666" font-family="sans-serif" font-size="10.8" font-weight="bold" lengthAdjust="spacing" textLength="0" x="690.3" y="185.0414"/></g></svg>