<?xml version="1.0" encoding="UTF-8" standalone="no"?><svg xmlns="http://www.w3.org/2000/svg" xmlns:xlink="http://www.w3.org/1999/xlink" contentScriptType="application/ecmascript" contentStyleType="text/css" height="631px" preserveAspectRatio="none" style="width:925px;height:631px;" version="1.1" viewBox="0 0 925 631" width="925px" zoomAndPan="magnify"><defs><filter height="300%" id="f1vexrsewpgqpg" width="300%" x="-1" y="-1"><feGaussianBlur result="blurOut" stdDeviation="2.0"/><feColorMatrix in="blurOut" result="blurOut2" type="matrix" values="0 0 0 0 0 0 0 0 0 0 0 0 0 0 0 0 0 0 .4 0"/><feOffset dx="4.0" dy="4.0" in="blurOut2" result="blurOut3"/><feBlend in="SourceGraphic" in2="blurOut3" mode="normal"/></filter></defs><g><text fill="#000000" font-family="sans-serif" font-size="18" lengthAdjust="spacingAndGlyphs" textLength="243" x="340" y="26.708">Kernel Validation Workflow</text><rect fill="#FEFECE" filter="url(#f1vexrsewpgqpg)" height="33.9688" rx="12.5" ry="12.5" style="stroke: #A80036; stroke-width: 1.5;" width="92" x="416" y="30.9531"/><text fill="#000000" font-family="sans-serif" font-size="12" lengthAdjust="spacingAndGlyphs" textLength="72" x="426" y="52.0918">Build Image</text><rect fill="#000000" filter="url(#f1vexrsewpgqpg)" height="6" rx="2.5" ry="2.5" style="stroke: #000000; stroke-width: 1.0;" width="904" x="10" y="84.9219"/><polygon fill="#FFFFFF" filter="url(#f1vexrsewpgqpg)" points="24,169.8906,189,169.8906,196,192.1875,203,192.1875,203,329.125,24,329.125,24,169.8906" style="stroke: #000000; stroke-width: 2.0;"/><line style="stroke: #000000; stroke-width: 2.0;" x1="24" x2="196" y1="192.1875" y2="192.1875"/><text fill="#000000" font-family="sans-serif" font-size="14" font-weight="bold" lengthAdjust="spacingAndGlyphs" textLength="159" x="28" y="184.8857">Kernel Performance</text><rect fill="#FEFECE" filter="url(#f1vexrsewpgqpg)" height="33.9688" rx="12.5" ry="12.5" style="stroke: #A80036; stroke-width: 1.5;" width="136" x="45.5" y="206.1875"/><text fill="#000000" font-family="sans-serif" font-size="12" lengthAdjust="spacingAndGlyphs" textLength="116" x="55.5" y="227.3262">Kernel Throughput</text><rect fill="#FEFECE" filter="url(#f1vexrsewpgqpg)" height="33.9688" rx="12.5" ry="12.5" style="stroke: #A80036; stroke-width: 1.5;" width="111" x="58" y="275.1563"/><text fill="#000000" font-family="sans-serif" font-size="12" lengthAdjust="spacingAndGlyphs" textLength="91" x="68" y="296.2949">Kernel Latency</text><rect fill="#FEFECE" filter="url(#f1vexrsewpgqpg)" height="33.9688" rx="12.5" ry="12.5" style="stroke: #A80036; stroke-width: 1.5;" width="121" x="287" y="163.5547"/><text fill="#000000" font-family="sans-serif" font-size="12" lengthAdjust="spacingAndGlyphs" textLength="101" x="297" y="184.6934">Boot verification</text><rect fill="#FEFECE" filter="url(#f1vexrsewpgqpg)" height="33.9688" rx="12.5" ry="12.5" style="stroke: #A80036; stroke-width: 1.5;" width="233" x="231" y="232.5234"/><text fill="#000000" font-family="sans-serif" font-size="12" lengthAdjust="spacingAndGlyphs" textLength="213" x="241" y="253.6621">Verification for known kernel bugs</text><rect fill="#FEFECE" filter="url(#f1vexrsewpgqpg)" height="33.9688" rx="12.5" ry="12.5" style="stroke: #A80036; stroke-width: 1.5;" width="140" x="277.5" y="301.4922"/><text fill="#000000" font-family="sans-serif" font-size="12" lengthAdjust="spacingAndGlyphs" textLength="120" x="287.5" y="322.6309">Canary deployment</text><polygon fill="#FFFFFF" filter="url(#f1vexrsewpgqpg)" points="492,169.8906,585,169.8906,592,192.1875,599,192.1875,599,329.125,492,329.125,492,169.8906" style="stroke: #000000; stroke-width: 2.0;"/><line style="stroke: #000000; stroke-width: 2.0;" x1="492" x2="592" y1="192.1875" y2="192.1875"/><text fill="#000000" font-family="sans-serif" font-size="14" font-weight="bold" lengthAdjust="spacingAndGlyphs" textLength="87" x="496" y="184.8857">Subsystem</text><rect fill="#FEFECE" filter="url(#f1vexrsewpgqpg)" height="33.9688" rx="12.5" ry="12.5" style="stroke: #A80036; stroke-width: 1.5;" width="79" x="506" y="206.1875"/><text fill="#000000" font-family="sans-serif" font-size="12" lengthAdjust="spacingAndGlyphs" textLength="59" x="516" y="227.3262">IO Drivers</text><rect fill="#FEFECE" filter="url(#f1vexrsewpgqpg)" height="33.9688" rx="12.5" ry="12.5" style="stroke: #A80036; stroke-width: 1.5;" width="85" x="503" y="275.1563"/><text fill="#000000" font-family="sans-serif" font-size="12" lengthAdjust="spacingAndGlyphs" textLength="65" x="513" y="296.2949">Filesystem</text><polygon fill="#FFFFFF" filter="url(#f1vexrsewpgqpg)" points="627,100.9219,736,100.9219,743,123.2188,765,123.2188,765,398.0938,627,398.0938,627,100.9219" style="stroke: #000000; stroke-width: 2.0;"/><line style="stroke: #000000; stroke-width: 2.0;" x1="627" x2="743" y1="123.2188" y2="123.2188"/><text fill="#000000" font-family="sans-serif" font-size="14" font-weight="bold" lengthAdjust="spacingAndGlyphs" textLength="103" x="631" y="115.917">Configuraton</text><rect fill="#FEFECE" filter="url(#f1vexrsewpgqpg)" height="33.9688" rx="12.5" ry="12.5" style="stroke: #A80036; stroke-width: 1.5;" width="118" x="637" y="137.2188"/><text fill="#000000" font-family="sans-serif" font-size="12" lengthAdjust="spacingAndGlyphs" textLength="98" x="647" y="158.3574">sysctl and sysfs</text><rect fill="#FEFECE" filter="url(#f1vexrsewpgqpg)" height="33.9688" rx="12.5" ry="12.5" style="stroke: #A80036; stroke-width: 1.5;" width="116" x="638" y="206.1875"/><text fill="#000000" font-family="sans-serif" font-size="12" lengthAdjust="spacingAndGlyphs" textLength="96" x="648" y="227.3262">Module params</text><rect fill="#FEFECE" filter="url(#f1vexrsewpgqpg)" height="33.9688" rx="12.5" ry="12.5" style="stroke: #A80036; stroke-width: 1.5;" width="87" x="652.5" y="275.1563"/><text fill="#000000" font-family="sans-serif" font-size="12" lengthAdjust="spacingAndGlyphs" textLength="67" x="662.5" y="296.2949">Module +/-</text><rect fill="#FEFECE" filter="url(#f1vexrsewpgqpg)" height="33.9688" rx="12.5" ry="12.5" style="stroke: #A80036; stroke-width: 1.5;" width="104" x="644" y="344.125"/><text fill="#000000" font-family="sans-serif" font-size="12" lengthAdjust="spacingAndGlyphs" textLength="84" x="654" y="365.2637">/proc/cmdline</text><polygon fill="#FFFFFF" filter="url(#f1vexrsewpgqpg)" points="793,169.8906,886,169.8906,893,192.1875,900,192.1875,900,329.125,793,329.125,793,169.8906" style="stroke: #000000; stroke-width: 2.0;"/><line style="stroke: #000000; stroke-width: 2.0;" x1="793" x2="893" y1="192.1875" y2="192.1875"/><text fill="#000000" font-family="sans-serif" font-size="14" font-weight="bold" lengthAdjust="spacingAndGlyphs" textLength="87" x="797" y="184.8857">Applicaiton</text><rect fill="#FEFECE" filter="url(#f1vexrsewpgqpg)" height="33.9688" rx="12.5" ry="12.5" style="stroke: #A80036; stroke-width: 1.5;" width="71" x="811" y="206.1875"/><text fill="#000000" font-family="sans-serif" font-size="12" lengthAdjust="spacingAndGlyphs" textLength="51" x="821" y="227.3262">dockerd</text><rect fill="#FEFECE" filter="url(#f1vexrsewpgqpg)" height="33.9688" rx="12.5" ry="12.5" style="stroke: #A80036; stroke-width: 1.5;" width="60" x="816.5" y="275.1563"/><text fill="#000000" font-family="sans-serif" font-size="12" lengthAdjust="spacingAndGlyphs" textLength="40" x="826.5" y="296.2949">Merics</text><rect fill="#000000" filter="url(#f1vexrsewpgqpg)" height="6" rx="2.5" ry="2.5" style="stroke: #000000; stroke-width: 1.0;" width="904" x="10" y="418.0938"/><rect fill="#FEFECE" filter="url(#f1vexrsewpgqpg)" height="33.9688" rx="12.5" ry="12.5" style="stroke: #A80036; stroke-width: 1.5;" width="227" x="348.5" y="444.0938"/><text fill="#000000" font-family="sans-serif" font-size="12" lengthAdjust="spacingAndGlyphs" textLength="207" x="358.5" y="465.2324">Canary deployment in Production</text><rect fill="#FEFECE" filter="url(#f1vexrsewpgqpg)" height="33.9688" rx="12.5" ry="12.5" style="stroke: #A80036; stroke-width: 1.5;" width="168" x="378" y="498.0625"/><text fill="#000000" font-family="sans-serif" font-size="12" lengthAdjust="spacingAndGlyphs" textLength="148" x="388" y="519.2012">Reports and Changelog</text><polygon fill="#FEFECE" filter="url(#f1vexrsewpgqpg)" points="412.5,552.0313,511.5,552.0313,523.5,564.0313,511.5,576.0313,412.5,576.0313,400.5,564.0313,412.5,552.0313" style="stroke: #A80036; stroke-width: 1.5;"/><text fill="#000000" font-family="sans-serif" font-size="11" lengthAdjust="spacingAndGlyphs" textLength="99" x="412.5" y="567.8394">Approval Process</text><text fill="#008000" font-family="sans-serif" font-size="11" font-weight="bold" lengthAdjust="spacingAndGlyphs" textLength="24" x="376.5" y="561.437">YES</text><text fill="#FF0000" font-family="sans-serif" font-size="11" font-weight="bold" lengthAdjust="spacingAndGlyphs" textLength="19" x="523.5" y="561.437">NO</text><rect fill="#FEFECE" filter="url(#f1vexrsewpgqpg)" height="33.9688" rx="12.5" ry="12.5" style="stroke: #A80036; stroke-width: 1.5;" width="180" x="289.5" y="586.0313"/><text fill="#000000" font-family="sans-serif" font-size="12" lengthAdjust="spacingAndGlyphs" textLength="160" x="299.5" y="607.1699">Update repos and history</text><rect fill="#FEFECE" filter="url(#f1vexrsewpgqpg)" height="33.9688" rx="12.5" ry="12.5" style="stroke: #A80036; stroke-width: 1.5;" width="110" x="489.5" y="586.0313"/><text fill="#000000" font-family="sans-serif" font-size="12" lengthAdjust="spacingAndGlyphs" textLength="90" x="499.5" y="607.1699">mark unstable</text><line style="stroke: #A80036; stroke-width: 1.5;" x1="113.5" x2="113.5" y1="240.1563" y2="275.1563"/><polygon fill="#A80036" points="109.5,265.1563,113.5,275.1563,117.5,265.1563,113.5,269.1563" style="stroke: #A80036; stroke-width: 1.0;"/><line style="stroke: #A80036; stroke-width: 1.5;" x1="347.5" x2="347.5" y1="197.5234" y2="232.5234"/><polygon fill="#A80036" points="343.5,222.5234,347.5,232.5234,351.5,222.5234,347.5,226.5234" style="stroke: #A80036; stroke-width: 1.0;"/><line style="stroke: #A80036; stroke-width: 1.5;" x1="347.5" x2="347.5" y1="266.4922" y2="301.4922"/><polygon fill="#A80036" points="343.5,291.4922,347.5,301.4922,351.5,291.4922,347.5,295.4922" style="stroke: #A80036; stroke-width: 1.0;"/><line style="stroke: #A80036; stroke-width: 1.5;" x1="545.5" x2="545.5" y1="240.1563" y2="275.1563"/><polygon fill="#A80036" points="541.5,265.1563,545.5,275.1563,549.5,265.1563,545.5,269.1563" style="stroke: #A80036; stroke-width: 1.0;"/><line style="stroke: #A80036; stroke-width: 1.5;" x1="696" x2="696" y1="171.1875" y2="206.1875"/><polygon fill="#A80036" points="692,196.1875,696,206.1875,700,196.1875,696,200.1875" style="stroke: #A80036; stroke-width: 1.0;"/><line style="stroke: #A80036; stroke-width: 1.5;" x1="696" x2="696" y1="240.1563" y2="275.1563"/><polygon fill="#A80036" points="692,265.1563,696,275.1563,700,265.1563,696,269.1563" style="stroke: #A80036; stroke-width: 1.0;"/><line style="stroke: #A80036; stroke-width: 1.5;" x1="696" x2="696" y1="309.125" y2="344.125"/><polygon fill="#A80036" points="692,334.125,696,344.125,700,334.125,696,338.125" style="stroke: #A80036; stroke-width: 1.0;"/><line style="stroke: #A80036; stroke-width: 1.5;" x1="846.5" x2="846.5" y1="240.1563" y2="275.1563"/><polygon fill="#A80036" points="842.5,265.1563,846.5,275.1563,850.5,265.1563,846.5,269.1563" style="stroke: #A80036; stroke-width: 1.0;"/><line style="stroke: #A80036; stroke-width: 1.5;" x1="113.5" x2="113.5" y1="90.9219" y2="206.1875"/><polygon fill="#A80036" points="109.5,196.1875,113.5,206.1875,117.5,196.1875,113.5,200.1875" style="stroke: #A80036; stroke-width: 1.0;"/><line style="stroke: #A80036; stroke-width: 1.5;" x1="347.5" x2="347.5" y1="90.9219" y2="163.5547"/><polygon fill="#A80036" points="343.5,153.5547,347.5,163.5547,351.5,153.5547,347.5,157.5547" style="stroke: #A80036; stroke-width: 1.0;"/><line style="stroke: #A80036; stroke-width: 1.5;" x1="545.5" x2="545.5" y1="90.9219" y2="206.1875"/><polygon fill="#A80036" points="541.5,196.1875,545.5,206.1875,549.5,196.1875,545.5,200.1875" style="stroke: #A80036; stroke-width: 1.0;"/><line style="stroke: #A80036; stroke-width: 1.5;" x1="696" x2="696" y1="90.9219" y2="137.2188"/><polygon fill="#A80036" points="692,127.2188,696,137.2188,700,127.2188,696,131.2188" style="stroke: #A80036; stroke-width: 1.0;"/><line style="stroke: #A80036; stroke-width: 1.5;" x1="846.5" x2="846.5" y1="90.9219" y2="206.1875"/><polygon fill="#A80036" points="842.5,196.1875,846.5,206.1875,850.5,196.1875,846.5,200.1875" style="stroke: #A80036; stroke-width: 1.0;"/><line style="stroke: #A80036; stroke-width: 1.5;" x1="113.5" x2="113.5" y1="309.125" y2="418.0938"/><polygon fill="#A80036" points="109.5,408.0938,113.5,418.0938,117.5,408.0938,113.5,412.0938" style="stroke: #A80036; stroke-width: 1.0;"/><line style="stroke: #A80036; stroke-width: 1.5;" x1="347.5" x2="347.5" y1="335.4609" y2="418.0938"/><polygon fill="#A80036" points="343.5,408.0938,347.5,418.0938,351.5,408.0938,347.5,412.0938" style="stroke: #A80036; stroke-width: 1.0;"/><line style="stroke: #A80036; stroke-width: 1.5;" x1="545.5" x2="545.5" y1="309.125" y2="418.0938"/><polygon fill="#A80036" points="541.5,408.0938,545.5,418.0938,549.5,408.0938,545.5,412.0938" style="stroke: #A80036; stroke-width: 1.0;"/><line style="stroke: #A80036; stroke-width: 1.5;" x1="696" x2="696" y1="378.0938" y2="418.0938"/><polygon fill="#A80036" points="692,408.0938,696,418.0938,700,408.0938,696,412.0938" style="stroke: #A80036; stroke-width: 1.0;"/><line style="stroke: #A80036; stroke-width: 1.5;" x1="846.5" x2="846.5" y1="309.125" y2="418.0938"/><polygon fill="#A80036" points="842.5,408.0938,846.5,418.0938,850.5,408.0938,846.5,412.0938" style="stroke: #A80036; stroke-width: 1.0;"/><line style="stroke: #A80036; stroke-width: 1.5;" x1="462" x2="462" y1="64.9219" y2="84.9219"/><polygon fill="#A80036" points="458,74.9219,462,84.9219,466,74.9219,462,78.9219" style="stroke: #A80036; stroke-width: 1.0;"/><line style="stroke: #A80036; stroke-width: 1.5;" x1="462" x2="462" y1="424.0938" y2="444.0938"/><polygon fill="#A80036" points="458,434.0938,462,444.0938,466,434.0938,462,438.0938" style="stroke: #A80036; stroke-width: 1.0;"/><line style="stroke: #A80036; stroke-width: 1.5;" x1="462" x2="462" y1="478.0625" y2="498.0625"/><polygon fill="#A80036" points="458,488.0625,462,498.0625,466,488.0625,462,492.0625" style="stroke: #A80036; stroke-width: 1.0;"/><line style="stroke: #A80036; stroke-width: 1.5;" x1="400.5" x2="379.5" y1="564.0313" y2="564.0313"/><line style="stroke: #A80036; stroke-width: 1.5;" x1="379.5" x2="379.5" y1="564.0313" y2="586.0313"/><polygon fill="#A80036" points="375.5,576.0313,379.5,586.0313,383.5,576.0313,379.5,580.0313" style="stroke: #A80036; stroke-width: 1.0;"/><line style="stroke: #A80036; stroke-width: 1.5;" x1="523.5" x2="544.5" y1="564.0313" y2="564.0313"/><line style="stroke: #A80036; stroke-width: 1.5;" x1="544.5" x2="544.5" y1="564.0313" y2="586.0313"/><polygon fill="#A80036" points="540.5,576.0313,544.5,586.0313,548.5,576.0313,544.5,580.0313" style="stroke: #A80036; stroke-width: 1.0;"/><line style="stroke: #A80036; stroke-width: 1.5;" x1="462" x2="462" y1="532.0313" y2="552.0313"/><polygon fill="#A80036" points="458,542.0313,462,552.0313,466,542.0313,462,546.0313" style="stroke: #A80036; stroke-width: 1.0;"/></g></svg>