<svg version="1.1" xmlns="http://www.w3.org/2000/svg" xmlns:xlink="http://www.w3.org/1999/xlink" width="787" height="1551"><defs/><g><g/><g/><g/><g/><g/><g/><g/><g/><g/><g/><g/><g/><g/><g/><g/><g/><g/><g/><g/><g/><g/><g/><g/><g/><g/><g/><g/><g/><g/><g/><g/><g/><g/><g/><g/><g/><g/><g/><g/><g/><g/><g/><g/><g/><g/><g/><g/><g/><g/><g/><g/><g/><g/><g/><g/><g/><g/><g><rect fill="white" stroke="none" x="0" y="0" width="787" height="1551"/></g><g><text fill="black" stroke="none" font-family="sans-serif" font-size="16.5pt" font-style="normal" font-weight="normal" text-decoration="normal" x="293.61454668656637" y="22.6179738" text-anchor="start" dominant-baseline="alphabetic" xml:space="preserve">Allocation Sequence</text></g><g/><g><path fill="none" stroke="black" paint-order="fill stroke markers" d=" M 94.8459617543164 118.97054218800001 L 94.8459617543164 1551.4422161880002" stroke-miterlimit="10" stroke-width="1.2565541" stroke-dasharray="11.598960923076923,5.0262164"/><path fill="none" stroke="black" paint-order="fill stroke markers" d=" M 332.3820048590039 118.97054218800001 L 332.3820048590039 1551.4422161880002" stroke-miterlimit="10" stroke-width="1.2565541" stroke-dasharray="11.598960923076923,5.0262164"/><path fill="none" stroke="black" paint-order="fill stroke markers" d=" M 580.5309477439648 118.97054218800001 L 580.5309477439648 1551.4422161880002" stroke-miterlimit="10" stroke-width="1.2565541" stroke-dasharray="11.598960923076923,5.0262164"/><path fill="none" stroke="black" paint-order="fill stroke markers" d=" M 740.7066087685741 118.97054218800001 L 740.7066087685741 1551.4422161880002" stroke-miterlimit="10" stroke-width="1.2565541" stroke-dasharray="11.598960923076923,5.0262164"/></g><g><path fill="none" stroke="none"/><g><path fill="white" stroke="black" paint-order="fill stroke markers" d=" M 40.6105281901875 78.258189348 L 149.08139531844532 78.258189348 L 149.08139531844532 118.970542188 L 40.6105281901875 118.970542188 L 40.6105281901875 78.258189348 Z" stroke-miterlimit="10" stroke-width="2.4125838720000004" stroke-dasharray=""/></g><g><g/><text fill="black" stroke="none" font-family="sans-serif" font-size="11pt" font-style="normal" font-weight="normal" text-decoration="normal" x="56.9708625721875" y="103.89189298800001" text-anchor="start" dominant-baseline="alphabetic" xml:space="preserve">Constructor</text></g><g><path fill="white" stroke="black" paint-order="fill stroke markers" d=" M 310.36717702700395 89.41638975600002 L 310.36717702700395 57.75122643600001 L 354.3968326910039 57.75122643600001 L 354.3968326910039 89.41638975600002" stroke-miterlimit="10" stroke-width="2.5633703640000003" stroke-dasharray=""/><path fill="white" stroke="black" paint-order="fill stroke markers" d=" M 354.3968326910039 56.65048504440001 L 354.3957319587851 56.750002470476886 L 354.3924298722011 56.849509944894095 L 354.3869267614577 56.9489975169871 L 354.3792231768614 57.04845523808161 L 354.36931988876427 57.147873162488395 L 354.3572178874869 57.24724134849785 L 354.3429183832193 57.3465498593742 L 354.32642280589994 57.4457887643491 L 354.3077328050729 57.54494813961476 L 354.28685024972253 57.64401806931628 L 354.2637772280871 57.74298864654325 L 354.2385160474496 57.841849974320425 L 354.21106923390687 57.940592166597405 L 354.1814395321175 58.03920534923725 L 354.1496299050269 58.13767966100388 L 354.1156435335714 58.23600525454817 L 354.07948381635975 58.334172297392705 L 354.0411543693335 58.43217097291501 L 354.00065902540547 58.529991481329205 L 353.9580018340763 58.62762404066595 L 353.91318706102953 58.72505888775068 L 353.86621918770516 58.82228627917988 L 353.81710291085136 58.91929649229543 L 353.7658431420549 59.01607982615686 L 353.7124450072499 59.11262660251144 L 353.6569138462055 59.20892716676198 L 353.5992552119913 59.304971888932315 L 353.53947487042285 59.400751164630265 L 353.4775787994844 59.49625541600807 L 353.4135731887315 59.59147509272019 L 353.34746443867186 59.68640067287828 L 353.2792591601254 59.78102266400345 L 353.2089641735632 59.87533160397543 L 353.13658650842524 59.969318061978825 L 353.06213340241777 60.06297263944614 L 352.98561230078934 60.15628597099768 L 352.90703085558636 60.24924872537805 L 352.82639692488783 60.34185160638929 L 352.74371857201965 60.43408535382045 L 352.6590040647482 60.52594074437366 L 352.57226187445366 60.617408592586415 L 352.4835006752827 60.708479751750104 L 352.39272934328136 60.79914511482471 L 352.29995695550707 60.88939561534948 L 352.2051927891214 60.97922222834956 L 352.10844632046195 61.06861597123853 L 352.00972722409506 61.15756790471657 L 351.909045371848 61.24606913366447 L 351.8064108318222 61.33411080803308 L 351.701833867386 61.42168412372834 L 351.59532493614876 61.50878032349165 L 351.48689468891484 61.59539069777562 L 351.3765539686187 61.68150658561499 L 351.26431380924026 61.76711937549275 L 351.15018543470205 61.85222050620124 L 351.03418025774636 61.93680146769832 L 350.9163098787942 62.02085380195832 L 350.79658608478525 62.104369103817845 L 350.6750208479992 62.18733902181633 L 350.5516263248583 62.2697552590311 L 350.4264148547122 62.35160957390711 L 350.2993989586035 62.4328937810811 L 350.1705913380159 62.51359975220007 L 350.0400048736042 62.59371941673418 L 349.90765262390596 62.67324476278373 L 349.7735478240359 62.75216783788039 L 349.6377038843622 62.83048074978243 L 349.50013438916574 62.908175667263905 L 349.3608530952813 62.98524482089782 L 349.21987393072226 63.06168050383303 L 349.0772109932875 63.13747507256495 L 348.93287854915195 63.212620947699854 L 348.7868910314397 63.28711061471286 L 348.639263038781 63.360936624699335 L 348.4900093338519 63.4340915951198 L 348.33914484189864 63.50656821053819 L 348.1866846492447 63.578359223353345 L 348.0326440017822 63.64945745452381 L 347.8770383034476 63.71985579428573 L 347.719883114681 63.78954720286377 L 347.56119415087045 63.85852471117517 L 347.40098728077993 63.92678142152658 L 347.239278524963 63.994310508303826 L 347.0760840541605 64.06110521865452 L 346.9114201876835 64.12715887316328 L 346.7453033917815 64.19246486651971 L 346.57775027799556 64.25701666817889 L 346.4087776014975 64.32080782301445 L 346.23840225941404 64.38383195196405 L 346.0666412891376 64.44608275266734 L 345.8935118666219 64.5075540000961 L 345.719031304665 64.56823954717684 L 345.54321705117775 64.62813332540541 L 345.36608668743884 64.6872293454539 L 345.1876579263372 64.74552169776953 L 345.00794861060007 64.80300455316568 L 344.8269767110094 64.8596721634047 L 344.64476032460436 64.91551886177277 L 344.46131767287164 64.97053906364663 L 344.2766670999236 65.0247272670519 L 344.0908270706637 65.07807805321343 L 343.9038161689399 65.13058608709704 L 343.7156530956866 65.18224611794311 L 343.5263566670543 65.23305297979161 L 343.3359458125281 65.28300159199867 L 343.14443957303484 65.33208695974473 L 342.9518570990388 65.38030417453389 L 342.758217648627 65.42764841468485 L 342.56354058558304 65.47411494581308 L 342.367845377451 65.51969912130417 L 342.17115159358855 65.56439638277854 L 341.9734789032103 65.60820226054732 L 341.7748470734205 65.65111237405922 L 341.5752759672366 65.69312243233865 L 341.37478554160293 65.73422823441479 L 341.1733958453949 65.7744256697417 L 340.9711270174144 65.81371071860933 L 340.76799928437566 65.85207945254552 L 340.56403295888265 65.88952803470889 L 340.359248437398 65.9260527202724 L 340.1536661982032 65.96164985679792 L 339.9473067993508 65.99631588460149 L 339.74019087660884 66.03004733710921 L 339.53233914139685 66.06284084120392 L 339.32377237871526 66.09469311756257 L 339.11451144506646 66.12560098098405 L 338.9045772663695 66.15556134070776 L 338.6939908358672 66.18457120072271 L 338.4827732120272 66.21262766006708 L 338.27094551643586 66.23972791311832 L 338.0585289316862 66.26586924987369 L 337.84554469925973 66.2910490562213 L 337.63201411740215 66.31526481420151 L 337.41795853899373 66.3385141022587 L 337.2033993694139 66.36079459548343 L 336.98835806440087 66.38210406584494 L 336.7728561279059 66.40244038241397 L 336.5569151099431 66.42180151157581 L 336.34055660443425 66.44018551723366 L 336.12380224704964 66.45759056100228 L 335.9066737130444 66.4740149023918 L 335.68919271509094 66.48945689898177 L 335.4713810011079 66.5039150065854 L 335.2532603520851 66.51738777940398 L 335.0348525799057 66.52987387017144 L 334.8161795251649 66.54137203028912 L 334.59726305498594 66.55188110995061 L 334.37812506083344 66.56140005825667 L 334.1587874563242 66.5699279233204 L 333.93927217503585 66.57746385236243 L 333.7196011683136 66.58400709179611 L 333.49979640307515 66.58955698730296 L 333.27987985961374 66.59411298389804 L 333.0598735294005 66.59767462598552 L 332.83979941288504 66.60024155740412 L 332.61967951729576 66.60181352146286 L 332.39953585443874 66.60239036096665 L 332.17939043849674 66.601972018232 L 331.95926528382796 66.60055853509284 L 331.7391824027644 66.59815005289633 L 331.5191638034108 66.59474681248865 L 331.2992314874437 66.59034915419102 L 331.0794074479115 66.5849575177656 L 330.85971366703484 66.57857244237155 L 330.64017211400886 66.57119456651108 L 330.42080474280584 66.56282462796563 L 330.2016334899801 66.55346346372208 L 329.9826802724743 66.54311200988904 L 329.7639669854277 66.5317713016033 L 329.54551549998683 66.5194424729262 L 329.3273476611181 66.50612675673037 L 329.1094852854236 66.4918254845763 L 328.8919501589594 66.47654008657929 L 328.6747640350568 66.46027209126643 L 328.45794863214724 66.44302312542368 L 328.2415256315903 66.42479491393324 L 328.0255166755058 66.40558927960109 L 327.8099433646092 66.38540814297464 L 327.59482725605204 66.36425352215073 L 327.3801898612658 66.34212753257384 L 327.1660526438112 66.31903238682447 L 326.95243701723155 66.29497039439796 L 326.7393643429114 66.26994396147349 L 326.52685592794074 66.2439555906735 L 326.31493302298384 66.21700788081341 L 326.10361682015474 66.18910352664176 L 325.8929284508975 66.1602453185707 L 325.6828889838735 66.13043614239702 L 325.4735194228545 66.09967897901345 L 325.26484070462203 66.06797690411072 L 325.05687369687405 66.03533308786992 L 324.849639196138 66.00175079464545 L 324.6431579256913 65.96723338263864 L 324.43745053348897 65.93178430356194 L 324.2325375900987 65.89540710229372 L 324.02843958664414 65.85810541652378 L 323.8251769327555 65.81988297638962 L 323.62276995452885 65.7807436041034 L 323.4212388924933 65.74069121356973 L 323.2206038995871 65.69972980999431 L 323.0208850391424 65.65786348948332 L 322.8221022828788 65.61509643863396 L 322.6242755089062 65.57143293411565 L 322.42742449973724 65.52687734224247 L 322.2315689403087 65.48143411853648 L 322.03672841601343 65.43510780728218 L 321.8429224107414 65.38790304107208 L 321.65017030493163 65.33982454034347 L 321.4584913736341 65.29087711290636 L 321.26790478458224 65.2410656534627 L 321.07842959627607 65.19039514311692 L 320.8900847560766 65.13887064887784 L 320.7028890983108 65.08649732315195 L 320.51686134238855 65.03328040322816 L 320.33202009093037 64.97922521075414 L 320.14838382790737 64.92433715120407 L 319.9659709167928 64.86862171333819 L 319.78479959872584 64.81208446865382 L 319.60488799068725 64.75473107082834 L 319.4262540836879 64.69656725515374 L 319.24891574096966 64.63759883796311 L 319.0728906962191 64.57783171604902 L 318.89819655179383 64.51727186607387 L 318.72485077696285 64.45592534397218 L 318.5528707061592 64.39379828434507 L 318.38227353724653 64.33089689984668 L 318.21307632979966 64.26722748056307 L 318.0452960033983 64.20279639338311 L 317.87894933593526 64.13761008136183 L 317.7140529619387 64.0716750630761 L 317.5506233709086 64.00499793197281 L 317.38867690566786 63.9375853557095 L 317.2282297607281 63.86944407548762 L 317.06929798067 63.80058090537841 L 316.9118974585392 63.7310027316415 L 316.7560439342568 63.660716512036274 L 316.60175299304524 63.58972927512613 L 316.4490400638701 63.518048119575596 L 316.29792041789705 63.44568021344049 L 316.1484091669647 63.372632793451125 L 316.0005212620737 63.29891316428863 L 315.85427149189115 63.22452869785448 L 315.70967448127226 63.149486832533334 L 315.56674468979753 63.0737950724492 L 315.4254964103271 62.997460986715 L 315.28594376757115 62.92049220867569 L 315.1481007166777 62.842896435144944 L 315.0119810418369 62.76468142563545 L 314.8775983549029 62.68585500158298 L 314.7449660940323 62.60642504556425 L 314.6140975223407 62.526399500508674 L 314.4850057265763 62.44578636890406 L 314.357703615811 62.3645937119964 L 314.2322039201498 62.28282964898372 L 314.1085191894577 62.20050235620419 L 313.9866617921047 62.11762006631847 L 313.866643913729 62.0341910674865 L 313.7484775560184 61.95022370253862 L 313.6321745355102 61.86572636814137 L 313.51774648240956 61.78070751395776 L 313.4052048394264 61.695175641802365 L 313.2945608606313 61.60913930479112 L 313.18582561032986 61.52260710648604 L 313.0790099619565 61.43558770003484 L 312.9741245969871 61.348089787305646 L 312.8711800038707 61.26012211801682 L 312.7701864769808 61.17169348886198 L 312.6711541155861 61.08281274263036 L 312.57409282284 60.99348876732251 L 312.479012304791 60.90373049526153 L 312.38592206941166 60.81354690219982 L 312.2948314256479 60.722947006421535 L 312.2057494824882 60.63193986784075 L 312.11868514805275 60.54053458709549 L 312.0336471287023 60.44874030463767 L 311.95064392816795 60.356566199819014 L 311.86968384670064 60.26402148997322 L 311.790774980241 60.17111542949413 L 311.71392521960996 60.07785730891038 L 311.6391422497195 59.98425645395631 L 311.5664335488043 59.89032222463943 L 311.49580638767384 59.79606401430437 L 311.42726782898546 59.70149124869363 L 311.3608247265378 59.606613385004955 L 311.29648372458587 59.511439910945654 L 311.23425125717614 59.41598034378382 L 311.1741335475035 59.32024422939662 L 311.11613660728887 59.224241141315716 L 311.0602662361779 59.127980679769905 L 311.00652802116116 59.03147247072513 L 310.9549273360154 58.93472616492187 L 310.90546934076605 58.83775143691009 L 310.85815898117147 58.74055798408177 L 310.8130009882282 58.64315552570121 L 310.7699998776979 58.54555380193307 L 310.7291599496558 58.44776257286839 L 310.6904852880607 58.3497916175486 L 310.65397976034643 58.25165073298757 L 310.6196470170354 58.15334973319199 L 310.58749049137333 58.054898448179905 L 310.557513398986 57.95630672299779 L 310.52971873755763 57.85758441673599 L 310.5041092865313 57.75874140154287 L 310.4806876068306 57.659787561637586 L 310.45945604060415 57.56073279232165 L 310.4404167109908 57.46158699898947 L 310.42357152190766 57.36236009613774 L 310.40892215785954 57.26306200637407 L 310.39647008377074 57.16370265942468 L 310.38621654483825 57.06429199114147 L 310.3781625664074 56.96483994250841 L 310.3723089538693 56.86535645864751 L 310.36865629258045 56.76585148782425 L 310.36720494780377 56.666334980452774 L 310.3679550646726 56.56681688810091 L 310.37090656817594 56.46730716249495 L 310.37605916316585 56.367815754524536 L 310.38341233438706 56.268352613247544 L 310.3929653465287 56.16892768489523 L 310.4047172442974 56.06955091187757 L 310.4186668525132 55.970232231789055 L 310.434812776227 55.87098157641492 L 310.4531534008597 55.771808870738006 L 310.4736868923643 55.672724031946224 L 310.4964111974087 55.57373696844089 L 310.52132404358133 55.47485757884587 L 310.5484229396183 55.376095751017715 L 310.5777051756527 55.27746136105691 L 310.6091678234851 55.17896427232026 L 310.6428077368772 55.08061433443455 L 310.67862155186555 54.98242138231162 L 310.7166056870985 54.884395235164845 L 310.75675634419423 54.786545695527266 L 310.7990695081204 54.68888254827129 L 310.843540947596 54.59141555963026 L 310.89016621551406 54.49415447622183 L 310.93894064938667 54.39710902407328 L 310.98985937181106 54.30028890764895 L 311.04291729095746 54.20370380887981 L 311.09810910107814 54.10736338619524 L 311.15542928303813 54.01127727355723 L 311.2148721048669 53.91545507949698 L 311.2764316223319 53.81990638615403 L 311.34010167953267 53.724640748318095 L 311.40587590951645 53.629667692473575 L 311.4737477349152 53.53499671584691 L 311.5437103686029 53.440637285456866 L 311.6157568143744 53.34659883716785 L 311.6898798676452 53.252890774746334 L 311.76607211617176 53.15952246892046 L 311.8443259407927 53.066503256443006 L 311.92463351619085 52.973842439157714 L 312.00698681167546 52.88154928306908 L 312.0913775919857 52.78963301741582 L 312.17779741811387 52.69810283374788 L 312.26623764814934 52.606967885007364 L 312.3566894381428 52.51623728461321 L 312.4491437429906 52.425920105549835 L 312.5435913173394 52.33602537945989 L 312.6400227165104 52.24656209574106 L 312.73842829744405 52.15753920064718 L 312.8387982196642 52.06896559639356 L 312.9411224462624 51.980850140266824 L 313.04539074490117 51.893201643739154 L 313.1515926888376 51.80602887158716 L 313.2597176579657 51.71934054101541 L 313.36975483987874 51.63314532078473 L 313.4816932309502 51.5474518303453 L 313.5955216374343 51.46226863897477 L 313.71122867658516 51.37760426492128 L 313.8288027777953 51.29346717455169 L 313.9482321837527 51.20986578150492 L 314.0695049516161 51.12680844585059 L 314.19260895420996 51.04430347325308 L 314.3175318812365 50.962359114140874 L 314.4442612405071 50.88098356288161 L 314.57278435919153 50.800184956962596 L 314.7030883850849 50.71997137617709 L 314.83516028789336 50.64035084181633 L 314.9689868605366 50.5613313158674 L 315.10455472046885 50.48292070021704 L 315.2418503110171 50.40512683586149 L 315.3808599027368 50.32795750212234 L 315.5215695947845 50.25142041586866 L 315.66396531630835 50.17552323074529 L 315.8080328278548 50.100273536407514 L 315.9537577227928 50.025678857762045 L 316.1011254287542 49.95174665421458 L 316.2501212090913 49.878484318923874 L 316.4007301643502 49.8058991780624 L 316.5529372337609 49.733998490083756 L 316.70672719674326 49.662789444996825 L 316.8620846744291 49.59227916364677 L 317.01899413120026 49.52247469700298 L 317.1774398762417 49.45338302545394 L 317.337406065111 49.38501105810922 L 317.49887670132256 49.3173656321086 L 317.6618356379473 49.25045351193829 L 317.8262665792274 49.18428138875455 L 317.99215308220573 49.118855879714566 L 318.15947855837027 49.054183527314706 L 318.3282262753128 48.990270798736326 L 318.4983793584022 48.927124085199026 L 318.66992079247206 48.864749701321536 L 318.8428334235218 48.80315388449026 L 319.0170999604326 48.74234279423555 L 319.1927029766958 48.68232251161576 L 319.3696249121562 48.62309903860914 L 319.54784807476767 48.56467829751363 L 319.72735464236246 48.50706613035466 L 319.90812666443344 48.450268298300934 L 320.09014606392896 48.394290481088326 L 320.2733946390608 48.33913827645191 L 320.45785406512425 48.28481719956619 L 320.6435058963303 48.23133268249359 L 320.8303315676505 48.17869007364124 L 321.01831239667354 48.12689463722616 L 321.20742958547305 48.07595155274883 L 321.39766422248783 48.02586591447525 L 321.58899728441264 47.976642730927495 L 321.7814096381008 47.92828692438291 L 321.97488204247725 47.88080333038186 L 322.1693951504628 47.83419669724416 L 322.36492951090867 47.788471685594295 L 322.5614655705418 47.74363286789533 L 322.7589836759201 47.69968472799165 L 322.9574640753975 47.65663166066065 L 323.1568869210995 47.614477971173166 L 323.35723227090773 47.57322787486302 L 323.55848009045417 47.532885496705475 L 323.76061025512456 47.49345487090473 L 323.9636025520708 47.45493994049049 L 324.1674366822325 47.41734455692372 L 324.3720922623664 47.38067247971144 L 324.577548827085 47.34492737603081 L 324.7837858309032 47.310112820362406 L 324.9907826502923 47.2762322941328 L 325.198518585743 47.24328918536636 L 325.40697286383477 47.21128678834652 L 325.61612463931357 47.18022830328631 L 325.8259529971761 47.150116836008365 L 326.0364369547614 47.120955397634305 L 326.24755546384927 47.09274690428368 L 326.45928741276464 47.06549417678231 L 326.67161162848896 47.03919994038023 L 326.88450687877776 47.01386682447918 L 327.0979518742833 46.98949736236963 L 327.311925270684 46.96609399097749 L 327.52640567081846 46.94365905062039 L 327.7413716268254 46.92219478477368 L 327.9568016422884 46.901703339846044 L 328.1726741743854 46.882186764964906 L 328.3889676360431 46.86364701177149 L 328.60566039809555 46.84608593422567 L 328.8227307914472 46.82950528842056 L 329.04015710923954 46.81390673240693 L 329.25791760902194 46.79929182602737 L 329.475990514926 46.78566203076035 L 329.6943540198428 46.77301870957403 L 329.91298628760376 46.76136312679001 L 330.1318654551644 46.750696447956834 L 330.3509696347903 46.74101973973351 L 330.5702769162461 46.732333969782786 L 330.7897653689864 46.724640006674434 L 331.00941304434883 46.717938619798346 L 331.2291979777489 46.71223047928761 L 331.4490981908765 46.70751615595155 L 331.66909169389345 46.703796121218545 L 331.88915648763276 46.701070747088984 L 332.10927056579857 46.699340306098 L 332.3294119171664 46.698604971288255 L 332.5495585277846 46.69886481619261 L 332.76968838317555 46.700119814826806 L 332.9897794705371 46.702369841692004 L 333.209809780944 46.705614671787416 L 333.4297573115486 46.709853980632715 L 333.649600067781 46.715087344300564 L 333.86931606554884 46.72131423945895 L 334.0888833334355 46.72853404342355 L 334.30827991489707 46.73674603421998 L 334.5274838704583 46.745949390656016 L 334.7464732799063 46.75614319240367 L 334.96522624448255 46.767326420091266 L 335.18372088907296 46.77949795540535 L 335.4019353643951 46.792656581202536 L 335.6198478491833 46.80680098163122 L 335.83743655237066 46.82192974226314 L 336.0546797152682 46.83804135023483 L 336.2715556137407 46.85513419439893 L 336.48804256037903 46.87320656548526 L 336.70411890666884 46.89225665627179 L 336.91976304515566 46.912282561765295 L 337.13495341160535 46.93328227939192 L 337.3496684871605 46.95525370919741 L 337.5638868004926 46.97819465405708 L 337.7775869299487 47.00210281989557 L 337.99074750569406 47.026975815916224 L 338.2033472118487 47.05281115484016 L 338.4153647886191 47.07960625315501 L 338.6267790344244 47.107358431373285 L 338.83756880801604 47.136064914300285 L 339.0477130305925 47.16572283131164 L 339.2571906879064 47.19632921664036 L 339.4659808323668 47.22788100967341 L 339.6740625851332 47.260375055257796 L 339.8814151382036 47.29380810401604 L 340.0880177564956 47.3281768126711 L 340.29384977991947 47.36347774438077 L 340.49889062544446 47.39970736908131 L 340.70311978915686 47.436862063840415 L 340.9065168483105 47.47493811321959 L 341.1090614633689 47.51393170964561 L 341.31073338003944 47.55383895379134 L 341.5115124312984 47.59465585496562 L 341.7113785394081 47.63637833151234 L 341.9103117179242 47.679002211218624 L 342.10829207369454 47.72252323173201 L 342.3052998088487 47.76693704098672 L 342.5013152227773 47.812239197638846 L 342.6963187141022 47.85842517151046 L 342.8902907826368 47.905490344042676 L 343.08321203133596 47.95343000875745 L 343.2750631682355 48.00223937172827 L 343.4658250083816 48.05191355205951 L 343.6554784757493 48.10244758237453 L 343.8440046051499 48.15383640931242 L 344.03138454412743 48.20607489403329 L 344.2175995548443 48.25915781273222 L 344.4026310159545 48.31307985716156 L 344.58646042446617 48.36783563516181 L 344.7690693975917 48.423419671200804 L 344.9504396745858 48.479826406921255 L 345.13055311857204 48.53705020169659 L 345.3093917183561 48.59508533319502 L 345.486937590227 48.65392599795177 L 345.66317297974547 48.71356631194938 L 345.83808026351954 48.77400031120615 L 346.01164195096646 48.835221952372535 L 346.18384068606224 48.89722511333542 L 346.35465924907675 48.96000359383039 L 346.52408055829613 49.0235511160617 L 346.6920876717306 49.08786132533009 L 346.85866378880877 49.152927790668215 L 347.0237922520579 49.21874400548377 L 347.1874565487691 49.285303388210124 L 347.34964031264917 49.35259928296446 L 347.51032732545684 49.420624960213395 L 347.6695015186248 49.489373617445885 L 347.82714697486637 49.55883837985349 L 347.9832479297672 49.62901230101787 L 348.13778877336193 49.69988836360538 L 348.29075405169505 49.77145948006883 L 348.44212846836615 49.8437184933562 L 348.59189688605966 49.916658177626395 L 348.74004432805873 49.99027123897176 L 348.88655597974247 50.0645503161475 L 349.03141719006794 50.13948798130782 L 349.17461347303475 50.21507674074863 L 349.3161305091339 50.29130903565699 L 349.45595414677985 50.36817724286692 L 349.59407040372525 50.44567367562176 L 349.7304654684595 50.52379058434283 L 349.8651257015898 50.602520157404335 L 349.9980376372051 50.68185452191459 L 350.1291879842225 50.76178574450325 L 350.2585636277166 50.84230583211467 L 350.38615163023104 50.92340673280718 L 350.5119392330717 51.00508033655831 L 350.6359138575832 51.08731847607572 L 350.7580631064063 51.17011292761402 L 350.8783747647181 51.25345541179703 L 350.9968368014529 51.33733759444579 L 351.1134373705057 51.42175108741194 L 351.2281648119169 51.506687449416525 L 351.3410076530379 51.592138186894125 L 351.4519546096785 51.6780947548422 L 351.5609945872357 51.76454855767558 L 351.6681166818025 51.85149095008604 L 351.7733101812587 51.93891323790678 L 351.87656456634204 52.02680667898187 L 351.9778695117001 52.115162484040454 L 352.0772148869227 52.20397181757565 L 352.1745907575551 52.293225798728116 L 352.2699873860915 52.38291550217411 L 352.36339523294833 52.47303195901802 L 352.45480495741896 52.56356615768928 L 352.544207418607 52.65450904484346 L 352.63159367634086 52.74585152626762 L 352.7169549920676 52.837584467789746 L 352.80028282972677 52.92969869619212 L 352.881568856604 53.02218500012867 L 352.9608049441644 53.11503413104609 L 353.03798316886525 53.20823680410863 L 353.11309581294836 53.30178369912667 L 353.18613536521195 53.39566546148867 L 353.2570945217616 53.48987270309661 L 353.32596618674086 53.58439600330485 L 353.3927434730405 53.67922590986214 L 353.45741970298775 53.77435293985683 L 353.5199884090133 53.86976758066522 L 353.5804433342988 53.96546029090272 L 353.6387784334021 54.06142150137806 L 353.6949878728619 54.15764161605015 L 353.749066031781 54.254111012987714 L 353.8010075023887 54.350820045331446 L 353.85080709058116 54.4477590422587 L 353.89845981644106 54.54491830995058 L 353.94396091473556 54.64228813256127 L 353.9873058353927 54.739858773189646 L 354.0284902439566 54.83762047485297 L 354.06751002202066 54.93556346146252 L 354.10436126763955 55.033677938801276 L 354.13904029571955 55.131954095503254 L 354.17154363838665 55.23038210403468 L 354.20186804533375 55.328952121676735 L 354.23001048414534 55.42765429150978 L 354.255968140601 55.5264787433991 L 354.27973841895675 55.62541559498185 L 354.3013189422046 55.72445495265532 L 354.3207075523101 55.82358691256627 L 354.33790231042855 55.92280156160133 L 354.35290149709834 56.022088978378264 L 354.3657036124133 56.121439234238146 L 354.37630737617263 56.22084239423817 L 354.38471172800877 56.32028851814517 L 354.39091582749353 56.41976766142964 L 354.39491905422216 56.51926987626014 L 354.39672100787527 56.61878521249811 M 354.3968326910039 88.31564836440002 L 354.3957319587851 88.4151657904769 L 354.3924298722011 88.5146732648941 L 354.3869267614577 88.61416083698711 L 354.3792231768614 88.71361855808162 L 354.36931988876427 88.8130364824884 L 354.3572178874869 88.91240466849787 L 354.3429183832193 89.01171317937421 L 354.32642280589994 89.11095208434912 L 354.3077328050729 89.21011145961478 L 354.28685024972253 89.3091813893163 L 354.2637772280871 89.40815196654326 L 354.2385160474496 89.50701329432043 L 354.21106923390687 89.60575548659742 L 354.1814395321175 89.70436866923727 L 354.1496299050269 89.80284298100389 L 354.1156435335714 89.90116857454818 L 354.07948381635975 89.99933561739272 L 354.0411543693335 90.09733429291502 L 354.00065902540547 90.19515480132921 L 353.9580018340763 90.29278736066595 L 353.91318706102953 90.3902222077507 L 353.86621918770516 90.4874495991799 L 353.81710291085136 90.58445981229544 L 353.7658431420549 90.68124314615687 L 353.7124450072499 90.77778992251145 L 353.6569138462055 90.874090486762 L 353.5992552119913 90.97013520893233 L 353.53947487042285 91.06591448463028 L 353.4775787994844 91.16141873600809 L 353.4135731887315 91.25663841272019 L 353.34746443867186 91.3515639928783 L 353.2792591601254 91.44618598400346 L 353.2089641735632 91.54049492397544 L 353.13658650842524 91.63448138197883 L 353.06213340241777 91.72813595944615 L 352.98561230078934 91.82144929099769 L 352.90703085558636 91.91441204537807 L 352.82639692488783 92.0070149263893 L 352.74371857201965 92.09924867382047 L 352.6590040647482 92.19110406437368 L 352.57226187445366 92.28257191258642 L 352.4835006752827 92.37364307175011 L 352.39272934328136 92.46430843482472 L 352.29995695550707 92.55455893534949 L 352.2051927891214 92.64438554834958 L 352.10844632046195 92.73377929123853 L 352.00972722409506 92.82273122471658 L 351.909045371848 92.91123245366448 L 351.8064108318222 92.9992741280331 L 351.701833867386 93.08684744372835 L 351.59532493614876 93.17394364349167 L 351.48689468891484 93.26055401777563 L 351.3765539686187 93.346669905615 L 351.26431380924026 93.43228269549276 L 351.15018543470205 93.51738382620125 L 351.03418025774636 93.60196478769834 L 350.9163098787942 93.68601712195833 L 350.79658608478525 93.76953242381786 L 350.6750208479992 93.85250234181635 L 350.5516263248583 93.9349185790311 L 350.4264148547122 94.01677289390713 L 350.2993989586035 94.09805710108111 L 350.1705913380159 94.17876307220008 L 350.0400048736042 94.2588827367342 L 349.90765262390596 94.33840808278374 L 349.7735478240359 94.41733115788041 L 349.6377038843622 94.49564406978244 L 349.50013438916574 94.57333898726392 L 349.3608530952813 94.65040814089784 L 349.21987393072226 94.72684382383305 L 349.0772109932875 94.80263839256496 L 348.93287854915195 94.87778426769987 L 348.7868910314397 94.95227393471288 L 348.639263038781 95.02609994469935 L 348.4900093338519 95.09925491511981 L 348.33914484189864 95.1717315305382 L 348.1866846492447 95.24352254335335 L 348.0326440017822 95.31462077452383 L 347.8770383034476 95.38501911428574 L 347.719883114681 95.45471052286379 L 347.56119415087045 95.52368803117518 L 347.40098728077993 95.59194474152659 L 347.239278524963 95.65947382830383 L 347.0760840541605 95.72626853865452 L 346.9114201876835 95.7923221931633 L 346.7453033917815 95.85762818651972 L 346.57775027799556 95.9221799881789 L 346.4087776014975 95.98597114301445 L 346.23840225941404 96.04899527196406 L 346.0666412891376 96.11124607266736 L 345.8935118666219 96.17271732009613 L 345.719031304665 96.23340286717686 L 345.54321705117775 96.29329664540542 L 345.36608668743884 96.3523926654539 L 345.1876579263372 96.41068501776955 L 345.00794861060007 96.4681678731657 L 344.8269767110094 96.5248354834047 L 344.64476032460436 96.58068218177279 L 344.46131767287164 96.63570238364663 L 344.2766670999236 96.6898905870519 L 344.0908270706637 96.74324137321344 L 343.9038161689399 96.79574940709705 L 343.7156530956866 96.84740943794313 L 343.5263566670543 96.89821629979161 L 343.3359458125281 96.94816491199869 L 343.14443957303484 96.99725027974473 L 342.9518570990388 97.0454674945339 L 342.758217648627 97.09281173468487 L 342.56354058558304 97.13927826581309 L 342.367845377451 97.18486244130418 L 342.17115159358855 97.22955970277856 L 341.9734789032103 97.27336558054733 L 341.7748470734205 97.31627569405923 L 341.5752759672366 97.35828575233866 L 341.37478554160293 97.3993915544148 L 341.1733958453949 97.43958898974171 L 340.9711270174144 97.47887403860933 L 340.76799928437566 97.51724277254554 L 340.56403295888265 97.5546913547089 L 340.359248437398 97.5912160402724 L 340.1536661982032 97.62681317679792 L 339.9473067993508 97.6614792046015 L 339.74019087660884 97.69521065710921 L 339.53233914139685 97.72800416120393 L 339.32377237871526 97.75985643756258 L 339.11451144506646 97.79076430098405 L 338.9045772663695 97.82072466070777 L 338.6939908358672 97.84973452072273 L 338.4827732120272 97.8777909800671 L 338.27094551643586 97.90489123311833 L 338.0585289316862 97.93103256987371 L 337.84554469925973 97.95621237622132 L 337.63201411740215 97.98042813420153 L 337.41795853899373 98.0036774222587 L 337.2033993694139 98.02595791548345 L 336.98835806440087 98.04726738584496 L 336.7728561279059 98.06760370241399 L 336.5569151099431 98.08696483157581 L 336.34055660443425 98.10534883723366 L 336.12380224704964 98.1227538810023 L 335.9066737130444 98.13917822239182 L 335.68919271509094 98.15462021898179 L 335.4713810011079 98.16907832658542 L 335.2532603520851 98.182551099404 L 335.0348525799057 98.19503719017146 L 334.8161795251649 98.20653535028914 L 334.59726305498594 98.21704442995062 L 334.37812506083344 98.22656337825667 L 334.1587874563242 98.23509124332041 L 333.93927217503585 98.24262717236243 L 333.7196011683136 98.24917041179611 L 333.49979640307515 98.25472030730296 L 333.27987985961374 98.25927630389805 L 333.0598735294005 98.26283794598552 L 332.83979941288504 98.26540487740414 L 332.61967951729576 98.26697684146288 L 332.39953585443874 98.26755368096666 L 332.17939043849674 98.26713533823201 L 331.95926528382796 98.26572185509286 L 331.7391824027644 98.26331337289633 L 331.5191638034108 98.25991013248867 L 331.2992314874437 98.25551247419104 L 331.0794074479115 98.25012083776562 L 330.85971366703484 98.24373576237157 L 330.64017211400886 98.2363578865111 L 330.42080474280584 98.22798794796564 L 330.2016334899801 98.21862678372209 L 329.9826802724743 98.20827532988906 L 329.7639669854277 98.1969346216033 L 329.54551549998683 98.18460579292622 L 329.3273476611181 98.17129007673037 L 329.1094852854236 98.1569888045763 L 328.8919501589594 98.14170340657931 L 328.6747640350568 98.12543541126645 L 328.45794863214724 98.1081864454237 L 328.2415256315903 98.08995823393326 L 328.0255166755058 98.07075259960111 L 327.8099433646092 98.05057146297464 L 327.59482725605204 98.02941684215075 L 327.3801898612658 98.00729085257386 L 327.1660526438112 97.9841957068245 L 326.95243701723155 97.96013371439797 L 326.7393643429114 97.9351072814735 L 326.52685592794074 97.90911891067351 L 326.31493302298384 97.88217120081342 L 326.10361682015474 97.85426684664178 L 325.8929284508975 97.82540863857072 L 325.6828889838735 97.79559946239702 L 325.4735194228545 97.76484229901347 L 325.26484070462203 97.73314022411074 L 325.05687369687405 97.70049640786993 L 324.849639196138 97.66691411464545 L 324.6431579256913 97.63239670263864 L 324.43745053348897 97.59694762356195 L 324.2325375900987 97.56057042229372 L 324.02843958664414 97.52326873652379 L 323.8251769327555 97.48504629638963 L 323.62276995452885 97.44590692410341 L 323.4212388924933 97.40585453356975 L 323.2206038995871 97.36489312999431 L 323.0208850391424 97.32302680948334 L 322.8221022828788 97.28025975863397 L 322.6242755089062 97.23659625411567 L 322.42742449973724 97.19204066224249 L 322.2315689403087 97.14659743853649 L 322.03672841601343 97.10027112728218 L 321.8429224107414 97.05306636107208 L 321.65017030493163 97.00498786034348 L 321.4584913736341 96.95604043290636 L 321.26790478458224 96.9062289734627 L 321.07842959627607 96.85555846311694 L 320.8900847560766 96.80403396887786 L 320.7028890983108 96.75166064315196 L 320.51686134238855 96.69844372322818 L 320.33202009093037 96.64438853075416 L 320.14838382790737 96.58950047120409 L 319.9659709167928 96.53378503333819 L 319.78479959872584 96.47724778865383 L 319.60488799068725 96.41989439082835 L 319.4262540836879 96.36173057515376 L 319.24891574096966 96.30276215796312 L 319.0728906962191 96.24299503604902 L 318.89819655179383 96.18243518607389 L 318.72485077696285 96.1210886639722 L 318.5528707061592 96.05896160434507 L 318.38227353724653 95.99606021984668 L 318.21307632979966 95.93239080056308 L 318.0452960033983 95.86795971338313 L 317.87894933593526 95.80277340136185 L 317.7140529619387 95.73683838307612 L 317.5506233709086 95.67016125197281 L 317.38867690566786 95.6027486757095 L 317.2282297607281 95.53460739548763 L 317.06929798067 95.46574422537843 L 316.9118974585392 95.39616605164152 L 316.7560439342568 95.32587983203629 L 316.60175299304524 95.25489259512614 L 316.4490400638701 95.1832114395756 L 316.29792041789705 95.1108435334405 L 316.1484091669647 95.03779611345114 L 316.0005212620737 94.96407648428864 L 315.85427149189115 94.88969201785449 L 315.70967448127226 94.81465015253335 L 315.56674468979753 94.7389583924492 L 315.4254964103271 94.662624306715 L 315.28594376757115 94.5856555286757 L 315.1481007166777 94.50805975514496 L 315.0119810418369 94.42984474563546 L 314.8775983549029 94.351018321583 L 314.7449660940323 94.27158836556427 L 314.6140975223407 94.19156282050868 L 314.4850057265763 94.11094968890407 L 314.357703615811 94.02975703199641 L 314.2322039201498 93.94799296898373 L 314.1085191894577 93.8656656762042 L 313.9866617921047 93.78278338631848 L 313.866643913729 93.69935438748651 L 313.7484775560184 93.61538702253864 L 313.6321745355102 93.53088968814139 L 313.51774648240956 93.44587083395777 L 313.4052048394264 93.36033896180237 L 313.2945608606313 93.27430262479113 L 313.18582561032986 93.18777042648605 L 313.0790099619565 93.10075102003485 L 312.9741245969871 93.01325310730566 L 312.8711800038707 92.92528543801683 L 312.7701864769808 92.836856808862 L 312.6711541155861 92.74797606263037 L 312.57409282284 92.65865208732252 L 312.479012304791 92.56889381526153 L 312.38592206941166 92.47871022219982 L 312.2948314256479 92.38811032642154 L 312.2057494824882 92.29710318784076 L 312.11868514805275 92.20569790709551 L 312.0336471287023 92.11390362463767 L 311.95064392816795 92.02172951981903 L 311.86968384670064 91.92918480997322 L 311.790774980241 91.83627874949414 L 311.71392521960996 91.74302062891039 L 311.6391422497195 91.64941977395632 L 311.5664335488043 91.55548554463944 L 311.49580638767384 91.46122733430438 L 311.42726782898546 91.36665456869365 L 311.3608247265378 91.27177670500497 L 311.29648372458587 91.17660323094567 L 311.23425125717614 91.08114366378383 L 311.1741335475035 90.98540754939663 L 311.11613660728887 90.88940446131572 L 311.0602662361779 90.79314399976991 L 311.00652802116116 90.69663579072514 L 310.9549273360154 90.59988948492189 L 310.90546934076605 90.5029147569101 L 310.85815898117147 90.40572130408178 L 310.8130009882282 90.30831884570122 L 310.7699998776979 90.21071712193307 L 310.7291599496558 90.1129258928684 L 310.6904852880607 90.01495493754861 L 310.65397976034643 89.91681405298758 L 310.6196470170354 89.81851305319199 L 310.58749049137333 89.72006176817992 L 310.557513398986 89.6214700429978 L 310.52971873755763 89.52274773673601 L 310.5041092865313 89.42390472154288 L 310.4806876068306 89.32495088163759 L 310.45945604060415 89.22589611232166 L 310.4404167109908 89.12675031898948 L 310.42357152190766 89.02752341613775 L 310.40892215785954 88.92822532637408 L 310.39647008377074 88.82886597942469 L 310.38621654483825 88.72945531114148 L 310.3781625664074 88.63000326250842 L 310.3723089538693 88.53051977864753 L 310.36865629258045 88.43101480782425 L 310.36720494780377 88.3314983004528" stroke-miterlimit="10" stroke-width="2.5633703640000003" stroke-dasharray=""/></g><g><g/><text fill="black" stroke="none" font-family="sans-serif" font-size="11pt" font-style="normal" font-weight="normal" text-decoration="normal" x="297.3479853887891" y="114.44694742800002" text-anchor="start" dominant-baseline="alphabetic" xml:space="preserve">Zookeeper</text></g><path fill="none" stroke="none"/><g><path fill="white" stroke="black" paint-order="fill stroke markers" d=" M 535.6596270338398 78.258189348 L 625.4022684540898 78.258189348 L 625.4022684540898 118.970542188 L 535.6596270338398 118.970542188 L 535.6596270338398 78.258189348 Z" stroke-miterlimit="10" stroke-width="2.4125838720000004" stroke-dasharray=""/></g><g><g/><text fill="black" stroke="none" font-family="sans-serif" font-size="11pt" font-style="normal" font-weight="normal" text-decoration="normal" x="552.0199614158398" y="103.89189298800001" text-anchor="start" dominant-baseline="alphabetic" xml:space="preserve">Allocator</text></g><path fill="none" stroke="none"/><g><path fill="white" stroke="black" paint-order="fill stroke markers" d=" M 701.1345815765155 78.258189348 L 780.2786359606328 78.258189348 L 780.2786359606328 118.970542188 L 701.1345815765155 118.970542188 L 701.1345815765155 78.258189348 Z" stroke-miterlimit="10" stroke-width="2.4125838720000004" stroke-dasharray=""/></g><g><g/><text fill="black" stroke="none" font-family="sans-serif" font-size="11pt" font-style="normal" font-weight="normal" text-decoration="normal" x="717.4949159585155" y="103.89189298800001" text-anchor="start" dominant-baseline="alphabetic" xml:space="preserve">Docker</text></g></g><g><path fill="#006600" stroke="black" paint-order="fill stroke markers" d=" M 87.3066371543164 183.808733748 L 102.3852863543164 183.808733748 L 102.3852863543164 226.028951508 L 87.3066371543164 226.028951508 L 87.3066371543164 183.808733748" stroke-miterlimit="10" stroke-width="1.2565541" stroke-dasharray=""/><path fill="#006600" stroke="black" paint-order="fill stroke markers" d=" M 87.3066371543164 283.32781846800003 L 102.3852863543164 283.32781846800003 L 102.3852863543164 432.606445548 L 87.3066371543164 432.606445548 L 87.3066371543164 283.32781846800003" stroke-miterlimit="10" stroke-width="1.2565541" stroke-dasharray=""/><path fill="white" stroke="black" paint-order="fill stroke markers" d=" M 572.9916231439648 589.4243972280001 L 588.0702723439648 589.4243972280001 L 588.0702723439648 631.6446149880001 L 572.9916231439648 631.6446149880001 L 572.9916231439648 589.4243972280001" stroke-miterlimit="10" stroke-width="1.2565541" stroke-dasharray=""/><path fill="#006600" stroke="black" paint-order="fill stroke markers" d=" M 87.3066371543164 688.9434819480001 L 102.3852863543164 688.9434819480001 L 102.3852863543164 903.0603005880002 L 87.3066371543164 903.0603005880002 L 87.3066371543164 688.9434819480001" stroke-miterlimit="10" stroke-width="1.2565541" stroke-dasharray=""/><path fill="white" stroke="black" paint-order="fill stroke markers" d=" M 572.9916231439648 860.8400828280003 L 588.0702723439648 860.8400828280003 L 588.0702723439648 1090.0355506680003 L 572.9916231439648 1090.0355506680003 L 572.9916231439648 860.8400828280003" stroke-miterlimit="10" stroke-width="1.2565541" stroke-dasharray=""/><path fill="#FF0000" stroke="black" paint-order="fill stroke markers" d=" M 87.3066371543164 960.3591675480003 L 102.3852863543164 960.3591675480003 L 102.3852863543164 1162.4130668280002 L 87.3066371543164 1162.4130668280002 L 87.3066371543164 960.3591675480003" stroke-miterlimit="10" stroke-width="1.2565541" stroke-dasharray=""/><path fill="white" stroke="black" paint-order="fill stroke markers" d=" M 19.970029510058595 162.698624868 L 19.97002951005859 162.698624868 A 13.570784280000002 13.570784280000002 0 0 1 33.54081379005859 149.127840588 L 156.15110971857422 149.127840588 L 156.15110971857422 149.127840588 A 13.570784280000002 13.570784280000002 0 0 1 169.72189399857422 162.698624868 L 169.72189399857422 170.237949468 L 169.72189399857422 170.237949468 A 13.570784280000002 13.570784280000002 0 0 1 156.15110971857422 183.808733748 L 33.54081379005859 183.808733748 L 33.54081379005859 183.808733748 A 13.570784280000002 13.570784280000002 0 0 1 19.97002951005859 170.237949468 L 19.970029510058595 162.698624868" stroke-miterlimit="10" stroke-width="1.2565541" stroke-dasharray=""/><g><text fill="black" stroke="none" font-family="sans-serif" font-size="11pt" font-style="normal" font-weight="normal" text-decoration="normal" x="41.08013839005859" y="170.237949468" text-anchor="start" dominant-baseline="alphabetic" xml:space="preserve">create-instances</text></g><g><g><rect fill="white" stroke="none" x="144.25587380039065" y="206.426707548" width="146.25554361253907" height="19.602243960000003"/></g><text fill="black" stroke="none" font-family="sans-serif" font-size="11pt" font-style="normal" font-weight="normal" text-decoration="normal" x="146.51767118039064" y="219.997491828" text-anchor="start" dominant-baseline="alphabetic" xml:space="preserve">Create </text><text fill="black" stroke="none" font-family="sans-serif" font-size="11pt" font-style="normal" font-weight="bold" text-decoration="normal" x="194.57986600460939" y="219.997491828" text-anchor="start" dominant-baseline="alphabetic" xml:space="preserve">Instance data</text></g><g><path fill="none" stroke="black" paint-order="fill stroke markers" d=" M 102.3852863543164 226.028951508 L 319.96725035100394 226.028951508" stroke-miterlimit="10" stroke-width="1.2565541" stroke-dasharray=""/><g transform="translate(332.3820048590039,226.028951508) translate(-332.3820048590039,-226.028951508)"><path fill="black" stroke="none" paint-order="stroke fill markers" d=" M 319.81646385900393 219.746181008 L 332.3820048590039 226.028951508 L 319.81646385900393 232.311722008 Z"/></g></g><path fill="white" stroke="black" paint-order="fill stroke markers" d=" M 15.078649200000001 262.21770958800005 L 15.078649200000001 262.21770958800005 A 13.570784280000002 13.570784280000002 0 0 1 28.649433480000003 248.64692530800005 L 161.0424900286328 248.64692530800002 L 161.0424900286328 248.64692530800005 A 13.570784280000002 13.570784280000002 0 0 1 174.6132743086328 262.21770958800005 L 174.6132743086328 269.75703418800003 L 174.6132743086328 269.75703418800003 A 13.570784280000002 13.570784280000002 0 0 1 161.0424900286328 283.32781846800003 L 28.649433480000003 283.32781846800003 L 28.649433480000003 283.32781846800003 A 13.570784280000002 13.570784280000002 0 0 1 15.078649200000001 269.75703418800003 L 15.078649200000001 262.21770958800005" stroke-miterlimit="10" stroke-width="1.2565541" stroke-dasharray=""/><g><text fill="black" stroke="none" font-family="sans-serif" font-size="11pt" font-style="normal" font-weight="normal" text-decoration="normal" x="36.18875808" y="269.75703418800003" text-anchor="start" dominant-baseline="alphabetic" xml:space="preserve">allocate-instances</text></g><g><g><rect fill="white" stroke="none" x="120.2283545743164" y="305.945792268" width="91.68105020433593" height="19.602243960000003"/></g><text fill="black" stroke="none" font-family="sans-serif" font-size="11pt" font-style="normal" font-weight="normal" text-decoration="normal" x="122.4901519543164" y="319.516576548" text-anchor="start" dominant-baseline="alphabetic" xml:space="preserve">Pick allocator</text></g><g><path fill="none" stroke="black" paint-order="fill stroke markers" d=" M 102.3852863543164 325.548036228 L 162.6998831543164 325.548036228 L 162.6998831543164 345.150280188 L 114.80004086231641 345.150280188" stroke-miterlimit="10" stroke-width="1.2565541" stroke-dasharray=""/><g transform="translate(102.3852863543164,345.150280188) translate(-102.3852863543164,-345.150280188)"><path fill="black" stroke="none" paint-order="stroke fill markers" d=" M 114.9508273543164 338.867509688 L 102.3852863543164 345.150280188 L 114.9508273543164 351.43305068800004 Z"/></g></g><g><g><rect fill="white" stroke="none" x="121.85285103427735" y="367.768253988" width="149.52600564867188" height="19.602243960000003"/></g><g><rect fill="white" stroke="none" x="121.85285103427735" y="382.84690318800006" width="129.1518143644922" height="19.602243960000003"/></g><g><rect fill="white" stroke="none" x="121.85285103427735" y="397.925552388" width="191.06158914476563" height="19.602243960000003"/></g><g><rect fill="white" stroke="none" x="121.85285103427735" y="413.004201588" width="105.54294290453124" height="19.602243960000003"/></g><text fill="black" stroke="none" font-family="sans-serif" font-size="11pt" font-style="normal" font-weight="normal" text-decoration="normal" x="124.11464841427735" y="381.3390382680001" text-anchor="start" dominant-baseline="alphabetic" xml:space="preserve">Update </text><text fill="black" stroke="none" font-family="sans-serif" font-size="11pt" font-style="normal" font-weight="bold" text-decoration="normal" x="175.44730527462892" y="381.3390382680001" text-anchor="start" dominant-baseline="alphabetic" xml:space="preserve">Instance data</text><text fill="black" stroke="none" font-family="sans-serif" font-size="11pt" font-style="normal" font-weight="normal" text-decoration="normal" x="124.11464841427735" y="396.41768746800005" text-anchor="start" dominant-baseline="alphabetic" xml:space="preserve">  (set allocator info)</text><text fill="black" stroke="none" font-family="sans-serif" font-size="11pt" font-style="normal" font-weight="normal" text-decoration="normal" x="124.11464841427735" y="411.496336668" text-anchor="start" dominant-baseline="alphabetic" xml:space="preserve">Update </text><text fill="black" stroke="none" font-family="sans-serif" font-size="11pt" font-style="normal" font-weight="bold" text-decoration="normal" x="175.44730527462892" y="411.496336668" text-anchor="start" dominant-baseline="alphabetic" xml:space="preserve">Allocator instances</text><text fill="black" stroke="none" font-family="sans-serif" font-size="11pt" font-style="normal" font-weight="normal" text-decoration="normal" x="124.11464841427735" y="426.574985868" text-anchor="start" dominant-baseline="alphabetic" xml:space="preserve">  (add instance)</text></g><g><path fill="none" stroke="black" paint-order="fill stroke markers" d=" M 102.3852863543164 432.606445548 L 319.96725035100394 432.606445548" stroke-miterlimit="10" stroke-width="1.2565541" stroke-dasharray=""/><g transform="translate(332.3820048590039,432.606445548) translate(-332.3820048590039,-432.606445548)"><path fill="black" stroke="none" paint-order="stroke fill markers" d=" M 319.81646385900393 426.323675048 L 332.3820048590039 432.606445548 L 319.81646385900393 438.88921604800004 Z"/></g></g><g><g><rect fill="white" stroke="none" x="353.9947353790039" y="455.224419348" width="120.99355020433593" height="19.602243960000003"/></g><g><rect fill="white" stroke="none" x="353.9947353790039" y="470.30306854800006" width="204.92348184496095" height="19.602243960000003"/></g><text fill="black" stroke="none" font-family="sans-serif" font-size="11pt" font-style="normal" font-weight="normal" text-decoration="normal" x="356.2565327590039" y="468.7952036280001" text-anchor="start" dominant-baseline="alphabetic" xml:space="preserve">Notice (via watch)</text><text fill="black" stroke="none" font-family="sans-serif" font-size="11pt" font-style="normal" font-weight="normal" text-decoration="normal" x="356.2565327590039" y="483.87385282800005" text-anchor="start" dominant-baseline="alphabetic" xml:space="preserve">update of </text><text fill="black" stroke="none" font-family="sans-serif" font-size="11pt" font-style="normal" font-weight="bold" text-decoration="normal" x="421.4510823195508" y="483.87385282800005" text-anchor="start" dominant-baseline="alphabetic" xml:space="preserve">Allocator instances</text></g><g><path fill="none" stroke="black" paint-order="fill stroke markers" d=" M 332.3820048590039 489.905312508 L 568.1161932359648 489.905312508" stroke-miterlimit="10" stroke-width="1.2565541" stroke-dasharray="6.03145968"/><g transform="translate(580.5309477439648,489.905312508) translate(-580.5309477439648,-489.905312508)"><path fill="black" stroke="none" paint-order="stroke fill markers" d=" M 567.9654067439648 483.622542008 L 580.5309477439648 489.905312508 L 567.9654067439648 496.18808300800004 Z"/></g></g><g><g><rect fill="white" stroke="none" x="387.8050152251953" y="512.523286308" width="137.30292215257813" height="19.602243960000003"/></g><text fill="black" stroke="none" font-family="sans-serif" font-size="11pt" font-style="normal" font-weight="normal" text-decoration="normal" x="390.0668126051953" y="526.094070588" text-anchor="start" dominant-baseline="alphabetic" xml:space="preserve">Read </text><text fill="black" stroke="none" font-family="sans-serif" font-size="11pt" font-style="normal" font-weight="bold" text-decoration="normal" x="429.1763859694531" y="526.094070588" text-anchor="start" dominant-baseline="alphabetic" xml:space="preserve">Instance data</text></g><g><path fill="none" stroke="black" paint-order="fill stroke markers" d=" M 332.3820048590039 532.125530268 L 568.1161932359648 532.125530268" stroke-miterlimit="10" stroke-width="1.2565541" stroke-dasharray=""/><g transform="translate(580.5309477439648,532.125530268) translate(-580.5309477439648,-532.125530268)"><path fill="black" stroke="none" paint-order="stroke fill markers" d=" M 567.9654067439648 525.8427597680001 L 580.5309477439648 532.125530268 L 567.9654067439648 538.408300768 Z"/></g></g><path fill="white" stroke="black" paint-order="fill stroke markers" d=" M 480.80819848310546 568.3142883480001 L 480.80819848310546 568.3142883480001 A 13.570784280000002 13.570784280000002 0 0 1 494.37898276310545 554.7435040680001 L 666.6829127248242 554.7435040680001 L 666.6829127248242 554.7435040680001 A 13.570784280000002 13.570784280000002 0 0 1 680.2536970048242 568.3142883480001 L 680.2536970048242 575.8536129480001 L 680.2536970048242 575.8536129480001 A 13.570784280000002 13.570784280000002 0 0 1 666.6829127248242 589.4243972280001 L 494.37898276310545 589.4243972280001 L 494.37898276310545 589.4243972280001 A 13.570784280000002 13.570784280000002 0 0 1 480.80819848310546 575.8536129480001 L 480.80819848310546 568.3142883480001" stroke-miterlimit="10" stroke-width="1.2565541" stroke-dasharray=""/><g><text fill="black" stroke="none" font-family="sans-serif" font-size="11pt" font-style="normal" font-weight="normal" text-decoration="normal" x="501.91830736310544" y="575.8536129480001" text-anchor="start" dominant-baseline="alphabetic" xml:space="preserve">DockerAllocator.allocate</text></g><g><g><rect fill="white" stroke="none" x="607.9493284179687" y="612.042371028" width="112.87822427660156" height="19.602243960000003"/></g><text fill="black" stroke="none" font-family="sans-serif" font-size="11pt" font-style="normal" font-weight="normal" text-decoration="normal" x="610.2111257979686" y="625.613155308" text-anchor="start" dominant-baseline="alphabetic" xml:space="preserve">Create container</text></g><g><path fill="none" stroke="black" paint-order="fill stroke markers" d=" M 588.0702723439648 631.6446149880001 L 728.2918542605742 631.6446149880001" stroke-miterlimit="10" stroke-width="1.2565541" stroke-dasharray=""/><g transform="translate(740.7066087685741,631.6446149880001) translate(-740.7066087685741,-631.6446149880001)"><path fill="black" stroke="none" paint-order="stroke fill markers" d=" M 728.1410677685741 625.3618444880001 L 740.7066087685741 631.6446149880001 L 728.1410677685741 637.927385488 Z"/></g></g><path fill="white" stroke="black" paint-order="fill stroke markers" d=" M 26.085149444140626 667.8333730680001 L 26.085149444140622 667.8333730680001 A 13.570784280000002 13.570784280000002 0 0 1 39.655933724140624 654.2625887880001 L 150.0359897844922 654.2625887880001 L 150.0359897844922 654.2625887880001 A 13.570784280000002 13.570784280000002 0 0 1 163.60677406449219 667.8333730680001 L 163.60677406449219 675.3726976680001 L 163.60677406449219 675.3726976680001 A 13.570784280000002 13.570784280000002 0 0 1 150.0359897844922 688.9434819480001 L 39.655933724140624 688.9434819480001 L 39.655933724140624 688.9434819480001 A 13.570784280000002 13.570784280000002 0 0 1 26.085149444140622 675.3726976680001 L 26.085149444140626 667.8333730680001" stroke-miterlimit="10" stroke-width="1.2565541" stroke-dasharray=""/><g><text fill="black" stroke="none" font-family="sans-serif" font-size="11pt" font-style="normal" font-weight="normal" text-decoration="normal" x="47.195258324140624" y="675.3726976680001" text-anchor="start" dominant-baseline="alphabetic" xml:space="preserve">start-instances</text></g><g><g><rect fill="white" stroke="none" x="142.62064278232424" y="711.5614557480002" width="149.52600564867188" height="19.602243960000003"/></g><g><rect fill="white" stroke="none" x="142.62064278232424" y="726.6401049480002" width="110.21605386644531" height="19.602243960000003"/></g><text fill="black" stroke="none" font-family="sans-serif" font-size="11pt" font-style="normal" font-weight="normal" text-decoration="normal" x="144.88244016232423" y="725.1322400280002" text-anchor="start" dominant-baseline="alphabetic" xml:space="preserve">Update </text><text fill="black" stroke="none" font-family="sans-serif" font-size="11pt" font-style="normal" font-weight="bold" text-decoration="normal" x="196.2150970226758" y="725.1322400280002" text-anchor="start" dominant-baseline="alphabetic" xml:space="preserve">Instance data</text><text fill="black" stroke="none" font-family="sans-serif" font-size="11pt" font-style="normal" font-weight="normal" text-decoration="normal" x="144.88244016232423" y="740.2108892280002" text-anchor="start" dominant-baseline="alphabetic" xml:space="preserve">(set "start": true)</text></g><g><path fill="none" stroke="black" paint-order="fill stroke markers" d=" M 102.3852863543164 746.2423489080002 L 319.96725035100394 746.2423489080002" stroke-miterlimit="10" stroke-width="1.2565541" stroke-dasharray=""/><g transform="translate(332.3820048590039,746.2423489080002) translate(-332.3820048590039,-746.2423489080002)"><path fill="black" stroke="none" paint-order="stroke fill markers" d=" M 319.81646385900393 739.9595784080002 L 332.3820048590039 746.2423489080002 L 319.81646385900393 752.5251194080001 Z"/></g></g><g><g><rect fill="white" stroke="none" x="374.76252712705076" y="768.8603227080002" width="120.99355020433593" height="19.602243960000003"/></g><g><rect fill="white" stroke="none" x="374.76252712705076" y="783.9389719080002" width="163.3878983488672" height="19.602243960000003"/></g><text fill="black" stroke="none" font-family="sans-serif" font-size="11pt" font-style="normal" font-weight="normal" text-decoration="normal" x="377.0243245070508" y="782.4311069880002" text-anchor="start" dominant-baseline="alphabetic" xml:space="preserve">Notice (via watch)</text><text fill="black" stroke="none" font-family="sans-serif" font-size="11pt" font-style="normal" font-weight="normal" text-decoration="normal" x="377.0243245070508" y="797.5097561880002" text-anchor="start" dominant-baseline="alphabetic" xml:space="preserve">update of </text><text fill="black" stroke="none" font-family="sans-serif" font-size="11pt" font-style="normal" font-weight="bold" text-decoration="normal" x="442.21887406759765" y="797.5097561880002" text-anchor="start" dominant-baseline="alphabetic" xml:space="preserve">Instance data</text></g><g><path fill="none" stroke="black" paint-order="fill stroke markers" d=" M 332.3820048590039 803.5412158680002 L 568.1161932359648 803.5412158680002" stroke-miterlimit="10" stroke-width="1.2565541" stroke-dasharray="6.03145968"/><g transform="translate(580.5309477439648,803.5412158680002) translate(-580.5309477439648,-803.5412158680002)"><path fill="black" stroke="none" paint-order="stroke fill markers" d=" M 567.9654067439648 797.2584453680003 L 580.5309477439648 803.5412158680002 L 567.9654067439648 809.8239863680002 Z"/></g></g><path fill="white" stroke="black" paint-order="fill stroke markers" d=" M 480.80819848310546 839.7299739480003 L 480.80819848310546 839.7299739480003 A 13.570784280000002 13.570784280000002 0 0 1 494.37898276310545 826.1591896680003 L 666.6829127248242 826.1591896680003 L 666.6829127248242 826.1591896680003 A 13.570784280000002 13.570784280000002 0 0 1 680.2536970048242 839.7299739480003 L 680.2536970048242 847.2692985480003 L 680.2536970048242 847.2692985480003 A 13.570784280000002 13.570784280000002 0 0 1 666.6829127248242 860.8400828280003 L 494.37898276310545 860.8400828280003 L 494.37898276310545 860.8400828280003 A 13.570784280000002 13.570784280000002 0 0 1 480.80819848310546 847.2692985480003 L 480.80819848310546 839.7299739480003" stroke-miterlimit="10" stroke-width="1.2565541" stroke-dasharray=""/><g><text fill="black" stroke="none" font-family="sans-serif" font-size="11pt" font-style="normal" font-weight="normal" text-decoration="normal" x="501.91830736310544" y="847.2692985480003" text-anchor="start" dominant-baseline="alphabetic" xml:space="preserve">DockerAllocator.allocate</text></g><g><g><rect fill="white" stroke="none" x="614.4687833740234" y="883.4580566280002" width="99.83931436449218" height="19.602243960000003"/></g><text fill="black" stroke="none" font-family="sans-serif" font-size="11pt" font-style="normal" font-weight="normal" text-decoration="normal" x="616.7305807540233" y="897.0288409080002" text-anchor="start" dominant-baseline="alphabetic" xml:space="preserve">Start container</text></g><g><path fill="none" stroke="black" paint-order="fill stroke markers" d=" M 588.0702723439648 903.0603005880002 L 728.2918542605742 903.0603005880002" stroke-miterlimit="10" stroke-width="1.2565541" stroke-dasharray=""/><g transform="translate(740.7066087685741,903.0603005880002) translate(-740.7066087685741,-903.0603005880002)"><path fill="black" stroke="none" paint-order="stroke fill markers" d=" M 728.1410677685741 896.7775300880003 L 740.7066087685741 903.0603005880002 L 728.1410677685741 909.3430710880002 Z"/></g></g><path fill="white" stroke="black" paint-order="fill stroke markers" d=" M 17.93404165605469 939.2490586680003 L 17.93404165605469 939.2490586680003 A 13.570784280000002 13.570784280000002 0 0 1 31.50482593605469 925.6782743880003 L 158.18709757257812 925.6782743880003 L 158.18709757257812 925.6782743880003 A 13.570784280000002 13.570784280000002 0 0 1 171.75788185257812 939.2490586680003 L 171.75788185257812 946.7883832680003 L 171.75788185257812 946.7883832680003 A 13.570784280000002 13.570784280000002 0 0 1 158.18709757257812 960.3591675480003 L 31.50482593605469 960.3591675480003 L 31.50482593605469 960.3591675480003 A 13.570784280000002 13.570784280000002 0 0 1 17.93404165605469 946.7883832680003 L 17.93404165605469 939.2490586680003" stroke-miterlimit="10" stroke-width="1.2565541" stroke-dasharray=""/><g><text fill="black" stroke="none" font-family="sans-serif" font-size="11pt" font-style="normal" font-weight="normal" text-decoration="normal" x="39.04415053605469" y="946.7883832680003" text-anchor="start" dominant-baseline="alphabetic" xml:space="preserve">wait-until-running</text></g><g><g><rect fill="white" stroke="none" x="605.9133405639648" y="982.9771413480003" width="116.95019998460937" height="19.602243960000003"/></g><text fill="black" stroke="none" font-family="sans-serif" font-size="11pt" font-style="normal" font-weight="normal" text-decoration="normal" x="608.1751379439647" y="996.5479256280003" text-anchor="start" dominant-baseline="alphabetic" xml:space="preserve">Container started</text></g><g><path fill="none" stroke="black" paint-order="fill stroke markers" d=" M 740.7066087685741 1002.5793853080003 L 600.4850268519648 1002.5793853080003" stroke-miterlimit="10" stroke-width="1.2565541" stroke-dasharray=""/><g transform="translate(588.0702723439648,1002.5793853080003) translate(-588.0702723439648,-1002.5793853080003)"><path fill="black" stroke="none" paint-order="stroke fill markers" d=" M 600.6358133439649 996.2966148080003 L 588.0702723439648 1002.5793853080003 L 600.6358133439649 1008.8621558080002 Z"/></g></g><g><g><rect fill="white" stroke="none" x="367.75460646523436" y="1025.1973591080002" width="157.63417520433595" height="19.602243960000003"/></g><g><rect fill="white" stroke="none" x="367.75460646523436" y="1040.2760083080002" width="85.97026529222656" height="19.602243960000003"/></g><g><rect fill="white" stroke="none" x="367.75460646523436" y="1055.3546575080002" width="169.8644150725" height="19.602243960000003"/></g><g><rect fill="white" stroke="none" x="367.75460646523436" y="1070.4333067080001" width="91.68105020433593" height="19.602243960000003"/></g><text fill="black" stroke="none" font-family="sans-serif" font-size="11pt" font-style="normal" font-weight="normal" text-decoration="normal" x="370.0164038452344" y="1038.7681433880002" text-anchor="start" dominant-baseline="alphabetic" xml:space="preserve">Create </text><text fill="black" stroke="none" font-family="sans-serif" font-size="11pt" font-style="normal" font-weight="bold" text-decoration="normal" x="418.07859866945313" y="1038.7681433880002" text-anchor="start" dominant-baseline="alphabetic" xml:space="preserve">Allocation data</text><text fill="black" stroke="none" font-family="sans-serif" font-size="11pt" font-style="normal" font-weight="normal" text-decoration="normal" x="370.0164038452344" y="1053.8467925880002" text-anchor="start" dominant-baseline="alphabetic" xml:space="preserve">  (persistent)</text><text fill="black" stroke="none" font-family="sans-serif" font-size="11pt" font-style="normal" font-weight="normal" text-decoration="normal" x="370.0164038452344" y="1068.9254417880002" text-anchor="start" dominant-baseline="alphabetic" xml:space="preserve">Create </text><text fill="black" stroke="none" font-family="sans-serif" font-size="11pt" font-style="normal" font-weight="bold" text-decoration="normal" x="418.07859866945313" y="1068.9254417880002" text-anchor="start" dominant-baseline="alphabetic" xml:space="preserve">Instance runtime</text><text fill="black" stroke="none" font-family="sans-serif" font-size="11pt" font-style="normal" font-weight="normal" text-decoration="normal" x="370.0164038452344" y="1084.0040909880001" text-anchor="start" dominant-baseline="alphabetic" xml:space="preserve">  (ephemeral)</text></g><g><path fill="none" stroke="black" paint-order="fill stroke markers" d=" M 572.9916231439648 1090.0355506680003 L 344.7967593670039 1090.0355506680003" stroke-miterlimit="10" stroke-width="1.2565541" stroke-dasharray=""/><g transform="translate(332.3820048590039,1090.0355506680003) translate(-332.3820048590039,-1090.0355506680003)"><path fill="black" stroke="none" paint-order="stroke fill markers" d=" M 344.9475458590039 1083.7527801680003 L 332.3820048590039 1090.0355506680003 L 344.9475458590039 1096.3183211680002 Z"/></g></g><g><g><rect fill="white" stroke="none" x="120.22835457431641" y="1112.6535244680001" width="125.07983865648437" height="19.602243960000003"/></g><g><rect fill="white" stroke="none" x="120.22835457431641" y="1127.732173668" width="194.3105820646875" height="19.602243960000003"/></g><g><rect fill="white" stroke="none" x="120.22835457431641" y="1142.810822868" width="102.89508523851562" height="19.602243960000003"/></g><text fill="black" stroke="none" font-family="sans-serif" font-size="11pt" font-style="normal" font-weight="normal" text-decoration="normal" x="122.49015195431642" y="1126.224308748" text-anchor="start" dominant-baseline="alphabetic" xml:space="preserve">Notice (via polling)</text><text fill="black" stroke="none" font-family="sans-serif" font-size="11pt" font-style="normal" font-weight="normal" text-decoration="normal" x="122.49015195431642" y="1141.302957948" text-anchor="start" dominant-baseline="alphabetic" xml:space="preserve">creation of </text><text fill="black" stroke="none" font-family="sans-serif" font-size="11pt" font-style="normal" font-weight="bold" text-decoration="normal" x="194.99851377072267" y="1141.302957948" text-anchor="start" dominant-baseline="alphabetic" xml:space="preserve">Instance runtime</text><text fill="black" stroke="none" font-family="sans-serif" font-size="11pt" font-style="normal" font-weight="normal" text-decoration="normal" x="122.49015195431642" y="1156.381607148" text-anchor="start" dominant-baseline="alphabetic" xml:space="preserve">with "start":true</text></g><g><path fill="none" stroke="black" paint-order="fill stroke markers" d=" M 332.3820048590039 1162.4130668280002 L 114.80004086231641 1162.4130668280002" stroke-miterlimit="10" stroke-width="1.2565541" stroke-dasharray=""/><g transform="translate(102.3852863543164,1162.4130668280002) translate(-102.3852863543164,-1162.4130668280002)"><path fill="black" stroke="none" paint-order="stroke fill markers" d=" M 114.9508273543164 1156.1302963280002 L 102.3852863543164 1162.4130668280002 L 114.9508273543164 1168.6958373280002 Z"/></g></g><path fill="white" stroke="black" paint-order="fill stroke markers" d=" M 28.511159575976563 1198.601824908 L 28.51115957597656 1198.601824908 A 13.570784280000002 13.570784280000002 0 0 1 42.08194385597656 1185.031040628 L 147.60997965265625 1185.031040628 L 147.60997965265625 1185.031040628 A 13.570784280000002 13.570784280000002 0 0 1 161.18076393265625 1198.601824908 L 161.18076393265625 1206.1411495080001 L 161.18076393265625 1206.1411495080001 A 13.570784280000002 13.570784280000002 0 0 1 147.60997965265625 1219.7119337880001 L 42.08194385597656 1219.7119337880001 L 42.08194385597656 1219.7119337880001 A 13.570784280000002 13.570784280000002 0 0 1 28.51115957597656 1206.1411495080001 L 28.511159575976563 1198.601824908" stroke-miterlimit="10" stroke-width="1.2565541" stroke-dasharray=""/><g><text fill="black" stroke="none" font-family="sans-serif" font-size="11pt" font-style="normal" font-weight="normal" text-decoration="normal" x="49.62126845597656" y="1206.1411495080001" text-anchor="start" dominant-baseline="alphabetic" xml:space="preserve">Continue plan</text></g><path fill="white" stroke="black" paint-order="fill stroke markers" d=" M 81.27517747431641 1283.0422604280002 L 740.7066087685741 1283.0422604280002 L 754.2773930485741 1296.6130447080002 L 754.2773930485741 1498.6669439880002 L 81.27517747431641 1498.6669439880002 L 81.27517747431641 1283.0422604280002 M 740.7066087685741 1283.0422604280002 L 740.7066087685741 1296.6130447080002 L 754.2773930485741 1296.6130447080002" stroke-miterlimit="10" stroke-width="1.2565541" stroke-dasharray=""/><g><text fill="black" stroke="none" font-family="sans-serif" font-size="11pt" font-style="normal" font-weight="normal" text-decoration="normal" x="210.45261582785156" y="1304.152369308" text-anchor="start" dominant-baseline="alphabetic" xml:space="preserve">Znode glossary:</text><text fill="black" stroke="none" font-family="sans-serif" font-size="11pt" font-style="normal" font-weight="normal" text-decoration="normal" x="210.45261582785156" y="1319.231018508" text-anchor="start" dominant-baseline="alphabetic" xml:space="preserve"></text><text fill="black" stroke="none" font-family="sans-serif" font-size="11pt" font-style="normal" font-weight="bold" text-decoration="normal" x="210.45261582785156" y="1334.309667708" text-anchor="start" dominant-baseline="alphabetic" xml:space="preserve">Instance data</text><text fill="black" stroke="none" font-family="sans-serif" font-size="11pt" font-style="normal" font-weight="normal" text-decoration="normal" x="304.1223698561719" y="1334.309667708" text-anchor="start" dominant-baseline="alphabetic" xml:space="preserve">: Info about the instance</text><text fill="black" stroke="none" font-family="sans-serif" font-size="11pt" font-style="normal" font-weight="normal" text-decoration="normal" x="210.45261582785156" y="1349.388316908" text-anchor="start" dominant-baseline="alphabetic" xml:space="preserve">  /clusters/&lt;id&gt;/instances/&lt;id&gt;</text><text fill="black" stroke="none" font-family="sans-serif" font-size="11pt" font-style="normal" font-weight="normal" text-decoration="normal" x="210.45261582785156" y="1364.466966108" text-anchor="start" dominant-baseline="alphabetic" xml:space="preserve"></text><text fill="black" stroke="none" font-family="sans-serif" font-size="11pt" font-style="normal" font-weight="bold" text-decoration="normal" x="210.45261582785156" y="1379.545615308" text-anchor="start" dominant-baseline="alphabetic" xml:space="preserve">Allocator instances</text><text fill="black" stroke="none" font-family="sans-serif" font-size="11pt" font-style="normal" font-weight="normal" text-decoration="normal" x="345.6579533522656" y="1379.545615308" text-anchor="start" dominant-baseline="alphabetic" xml:space="preserve">: What instances an allocator owns</text><text fill="black" stroke="none" font-family="sans-serif" font-size="11pt" font-style="normal" font-weight="normal" text-decoration="normal" x="210.45261582785156" y="1394.624264508" text-anchor="start" dominant-baseline="alphabetic" xml:space="preserve">  /services/allocators/&lt;zone&gt;/&lt;id&gt;/instances</text><text fill="black" stroke="none" font-family="sans-serif" font-size="11pt" font-style="normal" font-weight="normal" text-decoration="normal" x="210.45261582785156" y="1409.7029137079999" text-anchor="start" dominant-baseline="alphabetic" xml:space="preserve"></text><text fill="black" stroke="none" font-family="sans-serif" font-size="11pt" font-style="normal" font-weight="bold" text-decoration="normal" x="210.45261582785156" y="1424.7815629079998" text-anchor="start" dominant-baseline="alphabetic" xml:space="preserve">Allocation data</text><text fill="black" stroke="none" font-family="sans-serif" font-size="11pt" font-style="normal" font-weight="normal" text-decoration="normal" x="315.50100144796875" y="1424.7815629079998" text-anchor="start" dominant-baseline="alphabetic" xml:space="preserve">: Info about how the container was allocated</text><text fill="black" stroke="none" font-family="sans-serif" font-size="11pt" font-style="normal" font-weight="normal" text-decoration="normal" x="210.45261582785156" y="1439.8602121079998" text-anchor="start" dominant-baseline="alphabetic" xml:space="preserve">  /clusters/&lt;id&gt;/instances/&lt;id&gt;/allocation</text><text fill="black" stroke="none" font-family="sans-serif" font-size="11pt" font-style="normal" font-weight="normal" text-decoration="normal" x="210.45261582785156" y="1454.9388613079998" text-anchor="start" dominant-baseline="alphabetic" xml:space="preserve"></text><text fill="black" stroke="none" font-family="sans-serif" font-size="11pt" font-style="normal" font-weight="bold" text-decoration="normal" x="210.45261582785156" y="1470.0175105079998" text-anchor="start" dominant-baseline="alphabetic" xml:space="preserve">Instance runtime</text><text fill="black" stroke="none" font-family="sans-serif" font-size="11pt" font-style="normal" font-weight="normal" text-decoration="normal" x="327.7312413161328" y="1470.0175105079998" text-anchor="start" dominant-baseline="alphabetic" xml:space="preserve">: The state of an instance (e.g. running or not)</text><text fill="black" stroke="none" font-family="sans-serif" font-size="11pt" font-style="normal" font-weight="normal" text-decoration="normal" x="210.45261582785156" y="1485.0961597079997" text-anchor="start" dominant-baseline="alphabetic" xml:space="preserve">  /clusters/&lt;id&gt;/instances/&lt;id&gt;/&lt;clusterType&gt;</text></g></g><g/><g/><g/><g/></g></svg>