<svg version="1.1" xmlns="http://www.w3.org/2000/svg" xmlns:xlink="http://www.w3.org/1999/xlink" width="851" height="1507"><defs/><g><g/><g/><g/><g/><g/><g/><g/><g/><g/><g/><g/><g/><g/><g/><g/><g/><g/><g/><g/><g/><g/><g/><g/><g/><g/><g/><g/><g/><g/><g/><g/><g/><g/><g/><g/><g/><g/><g/><g/><g/><g/><g/><g/><g/><g/><g/><g/><g/><g/><g/><g/><g><rect fill="white" stroke="none" x="0" y="0" width="851" height="1507"/></g><g><text fill="black" stroke="none" font-family="sans-serif" font-size="16.5pt" font-style="normal" font-weight="normal" text-decoration="normal" x="312.5859135688906" y="22.6179738" text-anchor="start" dominant-baseline="alphabetic" xml:space="preserve">Deallocation Sequence</text></g><g/><g><path fill="none" stroke="black" paint-order="fill stroke markers" d=" M 102.99706954240234 118.97054218800001 L 102.99706954240234 1507.7141335080003" stroke-miterlimit="10" stroke-width="1.2565541" stroke-dasharray="11.598960923076923,5.0262164"/><path fill="none" stroke="black" paint-order="fill stroke markers" d=" M 388.65971481994137 118.97054218800001 L 388.65971481994137 1507.7141335080003" stroke-miterlimit="10" stroke-width="1.2565541" stroke-dasharray="11.598960923076923,5.0262164"/><path fill="none" stroke="black" paint-order="fill stroke markers" d=" M 636.8086577049023 118.97054218800001 L 636.8086577049023 1507.7141335080003" stroke-miterlimit="10" stroke-width="1.2565541" stroke-dasharray="11.598960923076923,5.0262164"/><path fill="none" stroke="black" paint-order="fill stroke markers" d=" M 804.3339128457226 118.97054218800001 L 804.3339128457226 1507.7141335080003" stroke-miterlimit="10" stroke-width="1.2565541" stroke-dasharray="11.598960923076923,5.0262164"/></g><g><path fill="none" stroke="none"/><g><path fill="white" stroke="black" paint-order="fill stroke markers" d=" M 48.76163597827344 78.258189348 L 157.23250310653125 78.258189348 L 157.23250310653125 118.970542188 L 48.76163597827344 118.970542188 L 48.76163597827344 78.258189348 Z" stroke-miterlimit="10" stroke-width="2.4125838720000004" stroke-dasharray=""/></g><g><g/><text fill="black" stroke="none" font-family="sans-serif" font-size="11pt" font-style="normal" font-weight="normal" text-decoration="normal" x="65.12197036027344" y="103.89189298800001" text-anchor="start" dominant-baseline="alphabetic" xml:space="preserve">Constructor</text></g><g><path fill="white" stroke="black" paint-order="fill stroke markers" d=" M 366.6448869879414 89.41638975600002 L 366.6448869879414 57.75122643600001 L 410.67454265194135 57.75122643600001 L 410.67454265194135 89.41638975600002" stroke-miterlimit="10" stroke-width="2.5633703640000003" stroke-dasharray=""/><path fill="white" stroke="black" paint-order="fill stroke markers" d=" M 410.67454265194135 56.65048504440001 L 410.67344191972256 56.750002470476886 L 410.67013983313853 56.849509944894095 L 410.66463672239513 56.9489975169871 L 410.65693313779883 57.04845523808161 L 410.6470298497017 57.147873162488395 L 410.63492784842435 57.24724134849785 L 410.6206283441567 57.3465498593742 L 410.6041327668374 57.4457887643491 L 410.58544276601026 57.54494813961476 L 410.56456021066 57.64401806931628 L 410.54148718902456 57.74298864654325 L 410.51622600838704 57.841849974320425 L 410.4887791948443 57.940592166597405 L 410.45914949305495 58.03920534923725 L 410.42733986596437 58.13767966100388 L 410.39335349450886 58.23600525454817 L 410.3571937772972 58.334172297392705 L 410.31886433027097 58.43217097291501 L 410.2783689863429 58.529991481329205 L 410.23571179501374 58.62762404066595 L 410.190897021967 58.72505888775068 L 410.1439291486426 58.82228627917988 L 410.0948128717888 58.91929649229543 L 410.04355310299235 59.01607982615686 L 409.99015496818737 59.11262660251144 L 409.93462380714294 59.20892716676198 L 409.87696517292875 59.304971888932315 L 409.8171848313603 59.400751164630265 L 409.7552887604218 59.49625541600807 L 409.69128314966895 59.59147509272019 L 409.6251743996093 59.68640067287828 L 409.5569691210628 59.78102266400345 L 409.4866741345006 59.87533160397543 L 409.4142964693627 59.969318061978825 L 409.3398433633552 60.06297263944614 L 409.2633222617268 60.15628597099768 L 409.1847408165238 60.24924872537805 L 409.1041068858253 60.34185160638929 L 409.0214285329571 60.43408535382045 L 408.93671402568566 60.52594074437366 L 408.8499718353911 60.617408592586415 L 408.76121063622014 60.708479751750104 L 408.6704393042188 60.79914511482471 L 408.5776669164445 60.88939561534948 L 408.4829027500588 60.97922222834956 L 408.3861562813994 61.06861597123853 L 408.2874371850325 61.15756790471657 L 408.1867553327854 61.24606913366447 L 408.08412079275956 61.33411080803308 L 407.9795438283234 61.42168412372834 L 407.8730348970862 61.50878032349165 L 407.7646046498523 61.59539069777562 L 407.6542639295561 61.68150658561499 L 407.5420237701777 61.76711937549275 L 407.4278953956395 61.85222050620124 L 407.31189021868374 61.93680146769832 L 407.1940198397316 62.02085380195832 L 407.0742960457227 62.104369103817845 L 406.9527308089366 62.18733902181633 L 406.82933628579576 62.2697552590311 L 406.70412481564966 62.35160957390711 L 406.57710891954093 62.4328937810811 L 406.4483012989533 62.51359975220007 L 406.3177148345416 62.59371941673418 L 406.1853625848434 62.67324476278373 L 406.05125778497336 62.75216783788039 L 405.91541384529967 62.83048074978243 L 405.7778443501032 62.908175667263905 L 405.63856305621874 62.98524482089782 L 405.4975838916597 63.06168050383303 L 405.35492095422495 63.13747507256495 L 405.2105885100894 63.212620947699854 L 405.06460099237717 63.28711061471286 L 404.91697299971844 63.360936624699335 L 404.76771929478934 63.4340915951198 L 404.6168548028361 63.50656821053819 L 404.4643946101821 63.578359223353345 L 404.31035396271966 63.64945745452381 L 404.15474826438503 63.71985579428573 L 403.99759307561845 63.78954720286377 L 403.8389041118079 63.85852471117517 L 403.6786972417174 63.92678142152658 L 403.51698848590047 63.994310508303826 L 403.35379401509795 64.06110521865452 L 403.18913014862096 64.12715887316328 L 403.0230133527189 64.19246486651971 L 402.855460238933 64.25701666817889 L 402.68648756243493 64.32080782301445 L 402.5161122203515 64.38383195196405 L 402.344351250075 64.44608275266734 L 402.17122182755935 64.5075540000961 L 401.99674126560245 64.56823954717684 L 401.8209270121152 64.62813332540541 L 401.6437966483763 64.6872293454539 L 401.4653678872746 64.74552169776953 L 401.2856585715375 64.80300455316568 L 401.10468667194687 64.8596721634047 L 400.9224702855418 64.91551886177277 L 400.7390276338091 64.97053906364663 L 400.55437706086104 65.0247272670519 L 400.36853703160114 65.07807805321343 L 400.18152612987734 65.13058608709704 L 399.99336305662405 65.18224611794311 L 399.80406662799174 65.23305297979161 L 399.61365577346555 65.28300159199867 L 399.4221495339723 65.33208695974473 L 399.22956705997626 65.38030417453389 L 399.03592760956445 65.42764841468485 L 398.8412505465205 65.47411494581308 L 398.6455553383884 65.51969912130417 L 398.44886155452605 65.56439638277854 L 398.25118886414776 65.60820226054732 L 398.05255703435796 65.65111237405922 L 397.85298592817406 65.69312243233865 L 397.6524955025404 65.73422823441479 L 397.45110580633235 65.7744256697417 L 397.24883697835185 65.81371071860933 L 397.0457092453131 65.85207945254552 L 396.8417429198201 65.88952803470889 L 396.6369583983354 65.9260527202724 L 396.43137615914065 65.96164985679792 L 396.22501676028827 65.99631588460149 L 396.0179008375463 66.03004733710921 L 395.8100491023343 66.06284084120392 L 395.6014823396527 66.09469311756257 L 395.3922214060039 66.12560098098405 L 395.1822872273069 66.15556134070776 L 394.9717007968046 66.18457120072271 L 394.76048317296465 66.21262766006708 L 394.5486554773733 66.23972791311832 L 394.33623889262367 66.26586924987369 L 394.1232546601972 66.2910490562213 L 393.9097240783396 66.31526481420151 L 393.6956684999312 66.3385141022587 L 393.48110933035133 66.36079459548343 L 393.2660680253383 66.38210406584494 L 393.05056608884337 66.40244038241397 L 392.8346250708805 66.42180151157581 L 392.6182665653717 66.44018551723366 L 392.4015122079871 66.45759056100228 L 392.18438367398187 66.4740149023918 L 391.9669026760284 66.48945689898177 L 391.74909096204533 66.5039150065854 L 391.5309703130225 66.51738777940398 L 391.31256254084315 66.52987387017144 L 391.09388948610234 66.54137203028912 L 390.8749730159234 66.55188110995061 L 390.6558350217709 66.56140005825667 L 390.43649741726165 66.5699279233204 L 390.2169821359733 66.57746385236243 L 389.99731112925105 66.58400709179611 L 389.7775063640126 66.58955698730296 L 389.55758982055113 66.59411298389804 L 389.3375834903379 66.59767462598552 L 389.1175093738225 66.60024155740412 L 388.8973894782332 66.60181352146286 L 388.6772458153762 66.60239036096665 L 388.4571003994342 66.601972018232 L 388.2369752447654 66.60055853509284 L 388.01689236370186 66.59815005289633 L 387.7968737643482 66.59474681248865 L 387.57694144838115 66.59034915419102 L 387.3571174088489 66.5849575177656 L 387.1374236279723 66.57857244237155 L 386.9178820749463 66.57119456651108 L 386.6985147037433 66.56282462796563 L 386.47934345091755 66.55346346372208 L 386.2603902334117 66.54311200988904 L 386.04167694636516 66.5317713016033 L 385.8232254609243 66.5194424729262 L 385.60505762205554 66.50612675673037 L 385.38719524636105 66.4918254845763 L 385.16966011989683 66.47654008657929 L 384.95247399599424 66.46027209126643 L 384.7356585930847 66.44302312542368 L 384.51923559252776 66.42479491393324 L 384.30322663644324 66.40558927960109 L 384.0876533255466 66.38540814297464 L 383.8725372169895 66.36425352215073 L 383.65789982220326 66.34212753257384 L 383.44376260474866 66.31903238682447 L 383.230146978169 66.29497039439796 L 383.01707430384886 66.26994396147349 L 382.8045658888782 66.2439555906735 L 382.5926429839213 66.21700788081341 L 382.3813267810922 66.18910352664176 L 382.17063841183494 66.1602453185707 L 381.96059894481095 66.13043614239702 L 381.75122938379195 66.09967897901345 L 381.5425506655595 66.06797690411072 L 381.3345836578115 66.03533308786992 L 381.12734915707546 66.00175079464545 L 380.92086788662874 65.96723338263864 L 380.7151604944264 65.93178430356194 L 380.5102475510361 65.89540710229372 L 380.3061495475816 65.85810541652378 L 380.1028868936929 65.81988297638962 L 379.9004799154663 65.7807436041034 L 379.69894885343075 65.74069121356973 L 379.49831386052455 65.69972980999431 L 379.29859500007984 65.65786348948332 L 379.09981224381625 65.61509643863396 L 378.9019854698436 65.57143293411565 L 378.7051344606747 65.52687734224247 L 378.50927890124615 65.48143411853648 L 378.3144383769509 65.43510780728218 L 378.1206323716788 65.38790304107208 L 377.9278802658691 65.33982454034347 L 377.73620133457155 65.29087711290636 L 377.5456147455197 65.2410656534627 L 377.3561395572135 65.19039514311692 L 377.16779471701403 65.13887064887784 L 376.9805990592482 65.08649732315195 L 376.794571303326 65.03328040322816 L 376.6097300518678 64.97922521075414 L 376.4260937888448 64.92433715120407 L 376.24368087773024 64.86862171333819 L 376.0625095596632 64.81208446865382 L 375.8825979516247 64.75473107082834 L 375.70396404462537 64.69656725515374 L 375.5266257019071 64.63759883796311 L 375.3506006571565 64.57783171604902 L 375.1759065127313 64.51727186607387 L 375.0025607379003 64.45592534397218 L 374.8305806670966 64.39379828434507 L 374.659983498184 64.33089689984668 L 374.4907862907371 64.26722748056307 L 374.3230059643357 64.20279639338311 L 374.1566592968727 64.13761008136183 L 373.99176292287615 64.0716750630761 L 373.82833333184607 64.00499793197281 L 373.6663868666053 63.9375853557095 L 373.5059397216655 63.86944407548762 L 373.34700794160744 63.80058090537841 L 373.18960741947666 63.7310027316415 L 373.03375389519425 63.660716512036274 L 372.8794629539827 63.58972927512613 L 372.72675002480753 63.518048119575596 L 372.5756303788345 63.44568021344049 L 372.42611912790215 63.372632793451125 L 372.2782312230111 63.29891316428863 L 372.1319814528286 63.22452869785448 L 371.9873844422097 63.149486832533334 L 371.844454650735 63.0737950724492 L 371.70320637126457 62.997460986715 L 371.5636537285086 62.92049220867569 L 371.4258106776151 62.842896435144944 L 371.28969100277436 62.76468142563545 L 371.15530831584033 62.68585500158298 L 371.02267605496974 62.60642504556425 L 370.89180748327817 62.526399500508674 L 370.7627156875137 62.44578636890406 L 370.6354135767484 62.3645937119964 L 370.50991388108724 62.28282964898372 L 370.38622915039514 62.20050235620419 L 370.26437175304216 62.11762006631847 L 370.1443538746664 62.0341910674865 L 370.0261875169558 61.95022370253862 L 369.90988449644766 61.86572636814137 L 369.795456443347 61.78070751395776 L 369.68291480036385 61.695175641802365 L 369.57227082156874 61.60913930479112 L 369.4635355712673 61.52260710648604 L 369.35671992289394 61.43558770003484 L 369.25183455792455 61.348089787305646 L 369.1488899648081 61.26012211801682 L 369.0478964379183 61.17169348886198 L 368.94886407652353 61.08281274263036 L 368.85180278377743 60.99348876732251 L 368.75672226572846 60.90373049526153 L 368.6636320303491 60.81354690219982 L 368.5725413865853 60.722947006421535 L 368.48345944342566 60.63193986784075 L 368.3963951089902 60.54053458709549 L 368.3113570896397 60.44874030463767 L 368.2283538891054 60.356566199819014 L 368.1473938076381 60.26402148997322 L 368.06848494117844 60.17111542949413 L 367.9916351805474 60.07785730891038 L 367.91685221065694 59.98425645395631 L 367.84414350974174 59.89032222463943 L 367.7735163486113 59.79606401430437 L 367.7049777899229 59.70149124869363 L 367.63853468747527 59.606613385004955 L 367.5741936855233 59.511439910945654 L 367.5119612181136 59.41598034378382 L 367.45184350844096 59.32024422939662 L 367.3938465682263 59.224241141315716 L 367.3379761971153 59.127980679769905 L 367.2842379820986 59.03147247072513 L 367.2326372969528 58.93472616492187 L 367.1831793017035 58.83775143691009 L 367.1358689421089 58.74055798408177 L 367.09071094916567 58.64315552570121 L 367.04770983863534 58.54555380193307 L 367.00686991059325 58.44776257286839 L 366.96819524899814 58.3497916175486 L 366.9316897212839 58.25165073298757 L 366.89735697797283 58.15334973319199 L 366.8652004523108 58.054898448179905 L 366.8352233599235 57.95630672299779 L 366.8074286984951 57.85758441673599 L 366.7818192474687 57.75874140154287 L 366.75839756776804 57.659787561637586 L 366.7371660015416 57.56073279232165 L 366.71812667192825 57.46158699898947 L 366.7012814828451 57.36236009613774 L 366.686632118797 57.26306200637407 L 366.6741800447082 57.16370265942468 L 366.6639265057757 57.06429199114147 L 366.65587252734485 56.96483994250841 L 366.65001891480676 56.86535645864751 L 366.6463662535179 56.76585148782425 L 366.6449149087412 56.666334980452774 L 366.64566502561007 56.56681688810091 L 366.6486165291134 56.46730716249495 L 366.6537691241033 56.367815754524536 L 366.6611222953245 56.268352613247544 L 366.6706753074661 56.16892768489523 L 366.68242720523483 56.06955091187757 L 366.6963768134506 55.970232231789055 L 366.71252273716436 55.87098157641492 L 366.73086336179716 55.771808870738006 L 366.75139685330174 55.672724031946224 L 366.77412115834613 55.57373696844089 L 366.7990340045188 55.47485757884587 L 366.82613290055576 55.376095751017715 L 366.85541513659007 55.27746136105691 L 366.8868777844226 55.17896427232026 L 366.92051769781466 55.08061433443455 L 366.956331512803 54.98242138231162 L 366.9943156480359 54.884395235164845 L 367.0344663051317 54.786545695527266 L 367.07677946905784 54.68888254827129 L 367.12125090853345 54.59141555963026 L 367.1678761764515 54.49415447622183 L 367.2166506103241 54.39710902407328 L 367.2675693327485 54.30028890764895 L 367.3206272518949 54.20370380887981 L 367.3758190620156 54.10736338619524 L 367.4331392439756 54.01127727355723 L 367.49258206580436 53.91545507949698 L 367.55414158326937 53.81990638615403 L 367.6178116404701 53.724640748318095 L 367.68358587045395 53.629667692473575 L 367.75145769585265 53.53499671584691 L 367.8214203295403 53.440637285456866 L 367.8934667753118 53.34659883716785 L 367.9675898285826 53.252890774746334 L 368.0437820771092 53.15952246892046 L 368.12203590173016 53.066503256443006 L 368.2023434771283 52.973842439157714 L 368.2846967726129 52.88154928306908 L 368.36908755292313 52.78963301741582 L 368.4555073790513 52.69810283374788 L 368.5439476090868 52.606967885007364 L 368.6343993990802 52.51623728461321 L 368.72685370392804 52.425920105549835 L 368.82130127827685 52.33602537945989 L 368.9177326774478 52.24656209574106 L 369.0161382583815 52.15753920064718 L 369.11650818060167 52.06896559639356 L 369.21883240719984 51.980850140266824 L 369.3231007058386 51.893201643739154 L 369.429302649775 51.80602887158716 L 369.53742761890317 51.71934054101541 L 369.6474648008162 51.63314532078473 L 369.75940319188766 51.5474518303453 L 369.8732315983717 51.46226863897477 L 369.9889386375226 51.37760426492128 L 370.10651273873276 51.29346717455169 L 370.2259421446901 51.20986578150492 L 370.34721491255357 51.12680844585059 L 370.4703189151474 51.04430347325308 L 370.59524184217395 50.962359114140874 L 370.72197120144455 50.88098356288161 L 370.850494320129 50.800184956962596 L 370.98079834602237 50.71997137617709 L 371.1128702488308 50.64035084181633 L 371.246696821474 50.5613313158674 L 371.3822646814063 50.48292070021704 L 371.51956027195456 50.40512683586149 L 371.65856986367424 50.32795750212234 L 371.79927955572197 50.25142041586866 L 371.9416752772458 50.17552323074529 L 372.08574278879223 50.100273536407514 L 372.2314676837302 50.025678857762045 L 372.37883538969163 49.95174665421458 L 372.5278311700287 49.878484318923874 L 372.67844012528764 49.8058991780624 L 372.8306471946983 49.733998490083756 L 372.9844371576807 49.662789444996825 L 373.13979463536657 49.59227916364677 L 373.2967040921377 49.52247469700298 L 373.45514983717914 49.45338302545394 L 373.61511602604844 49.38501105810922 L 373.77658666226 49.3173656321086 L 373.93954559888476 49.25045351193829 L 374.10397654016487 49.18428138875455 L 374.2698630431432 49.118855879714566 L 374.4371885193077 49.054183527314706 L 374.6059362362502 48.990270798736326 L 374.77608931933963 48.927124085199026 L 374.9476307534095 48.864749701321536 L 375.12054338445927 48.80315388449026 L 375.29480992137 48.74234279423555 L 375.4704129376332 48.68232251161576 L 375.64733487309366 48.62309903860914 L 375.8255580357051 48.56467829751363 L 376.0050646032999 48.50706613035466 L 376.1858366253709 48.450268298300934 L 376.3678560248664 48.394290481088326 L 376.55110459999827 48.33913827645191 L 376.7355640260617 48.28481719956619 L 376.9212158572677 48.23133268249359 L 377.10804152858793 48.17869007364124 L 377.296022357611 48.12689463722616 L 377.4851395464105 48.07595155274883 L 377.6753741834253 48.02586591447525 L 377.8667072453501 47.976642730927495 L 378.05911959903824 47.92828692438291 L 378.2525920034147 47.88080333038186 L 378.4471051114002 47.83419669724416 L 378.6426394718461 47.788471685594295 L 378.83917553147927 47.74363286789533 L 379.03669363685754 47.69968472799165 L 379.23517403633497 47.65663166066065 L 379.43459688203694 47.614477971173166 L 379.6349422318452 47.57322787486302 L 379.8361900513916 47.532885496705475 L 380.038320216062 47.49345487090473 L 380.24131251300827 47.45493994049049 L 380.44514664316995 47.41734455692372 L 380.6498022233038 47.38067247971144 L 380.85525878802247 47.34492737603081 L 381.0614957918406 47.310112820362406 L 381.26849261122976 47.2762322941328 L 381.47622854668043 47.24328918536636 L 381.6846828247722 47.21128678834652 L 381.893834600251 47.18022830328631 L 382.10366295811355 47.150116836008365 L 382.31414691569887 47.120955397634305 L 382.5252654247867 47.09274690428368 L 382.7369973737021 47.06549417678231 L 382.9493215894264 47.03919994038023 L 383.1622168397152 47.01386682447918 L 383.37566183522074 46.98949736236963 L 383.58963523162146 46.96609399097749 L 383.8041156317559 46.94365905062039 L 384.01908158776286 46.92219478477368 L 384.2345116032258 46.901703339846044 L 384.45038413532285 46.882186764964906 L 384.66667759698055 46.86364701177149 L 384.883370359033 46.84608593422567 L 385.10044075238466 46.82950528842056 L 385.317867070177 46.81390673240693 L 385.5356275699594 46.79929182602737 L 385.75370047586347 46.78566203076035 L 385.97206398078026 46.77301870957403 L 386.19069624854126 46.76136312679001 L 386.40957541610186 46.750696447956834 L 386.62867959572776 46.74101973973351 L 386.84798687718353 46.732333969782786 L 387.06747532992387 46.724640006674434 L 387.2871230052863 46.717938619798346 L 387.50690793868637 46.71223047928761 L 387.72680815181394 46.70751615595155 L 387.9468016548309 46.703796121218545 L 388.1668664485702 46.701070747088984 L 388.386980526736 46.699340306098 L 388.60712187810384 46.698604971288255 L 388.82726848872204 46.69886481619261 L 389.047398344113 46.700119814826806 L 389.26748943147453 46.702369841692004 L 389.48751974188144 46.705614671787416 L 389.70746727248604 46.709853980632715 L 389.92731002871847 46.715087344300564 L 390.1470260264863 46.72131423945895 L 390.36659329437293 46.72853404342355 L 390.5859898758345 46.73674603421998 L 390.80519383139574 46.745949390656016 L 391.02418324084374 46.75614319240367 L 391.24293620542 46.767326420091266 L 391.4614308500104 46.77949795540535 L 391.67964532533256 46.792656581202536 L 391.89755781012076 46.80680098163122 L 392.1151465133081 46.82192974226314 L 392.33238967620565 46.83804135023483 L 392.54926557467815 46.85513419439893 L 392.7657525213165 46.87320656548526 L 392.9818288676063 46.89225665627179 L 393.1974730060931 46.912282561765295 L 393.4126633725428 46.93328227939192 L 393.62737844809794 46.95525370919741 L 393.84159676143 46.97819465405708 L 394.05529689088615 47.00210281989557 L 394.2684574666315 47.026975815916224 L 394.48105717278617 47.05281115484016 L 394.69307474955656 47.07960625315501 L 394.9044889953618 47.107358431373285 L 395.1152787689535 47.136064914300285 L 395.32542299152993 47.16572283131164 L 395.53490064884386 47.19632921664036 L 395.74369079330427 47.22788100967341 L 395.95177254607063 47.260375055257796 L 396.159125099141 47.29380810401604 L 396.36572771743306 47.3281768126711 L 396.5715597408569 47.36347774438077 L 396.7766005863819 47.39970736908131 L 396.9808297500943 47.436862063840415 L 397.18422680924795 47.47493811321959 L 397.38677142430635 47.51393170964561 L 397.5884433409769 47.55383895379134 L 397.78922239223584 47.59465585496562 L 397.98908850034553 47.63637833151234 L 398.1880216788616 47.679002211218624 L 398.386002034632 47.72252323173201 L 398.58300976978614 47.76693704098672 L 398.7790251837147 47.812239197638846 L 398.9740286750396 47.85842517151046 L 399.1680007435742 47.905490344042676 L 399.3609219922734 47.95343000875745 L 399.5527731291729 48.00223937172827 L 399.74353496931906 48.05191355205951 L 399.93318843668675 48.10244758237453 L 400.12171456608735 48.15383640931242 L 400.3090945050649 48.20607489403329 L 400.49530951578174 48.25915781273222 L 400.68034097689196 48.31307985716156 L 400.8641703854036 48.36783563516181 L 401.04677935852914 48.423419671200804 L 401.22814963552327 48.479826406921255 L 401.4082630795095 48.53705020169659 L 401.58710167929354 48.59508533319502 L 401.76464755116444 48.65392599795177 L 401.94088294068297 48.71356631194938 L 402.115790224457 48.77400031120615 L 402.2893519119039 48.835221952372535 L 402.4615506469997 48.89722511333542 L 402.6323692100142 48.96000359383039 L 402.8017905192336 49.0235511160617 L 402.969797632668 49.08786132533009 L 403.1363737497462 49.152927790668215 L 403.30150221299533 49.21874400548377 L 403.46516650970653 49.285303388210124 L 403.6273502735866 49.35259928296446 L 403.7880372863943 49.420624960213395 L 403.94721147956227 49.489373617445885 L 404.1048569358038 49.55883837985349 L 404.2609578907046 49.62901230101787 L 404.4154987342994 49.69988836360538 L 404.5684640126325 49.77145948006883 L 404.7198384293036 49.8437184933562 L 404.8696068469971 49.916658177626395 L 405.0177542889962 49.99027123897176 L 405.1642659406799 50.0645503161475 L 405.3091271510054 50.13948798130782 L 405.4523234339722 50.21507674074863 L 405.59384047007137 50.29130903565699 L 405.7336641077173 50.36817724286692 L 405.8717803646627 50.44567367562176 L 406.00817542939694 50.52379058434283 L 406.14283566252726 50.602520157404335 L 406.2757475981425 50.68185452191459 L 406.4068979451599 50.76178574450325 L 406.53627358865407 50.84230583211467 L 406.6638615911685 50.92340673280718 L 406.78964919400914 51.00508033655831 L 406.91362381852065 51.08731847607572 L 407.0357730673438 51.17011292761402 L 407.15608472565555 51.25345541179703 L 407.27454676239034 51.33733759444579 L 407.39114733144316 51.42175108741194 L 407.5058747728543 51.506687449416525 L 407.6187176139753 51.592138186894125 L 407.72966457061597 51.6780947548422 L 407.83870454817315 51.76454855767558 L 407.9458266427399 51.85149095008604 L 408.05102014219614 51.93891323790678 L 408.1542745272795 52.02680667898187 L 408.2555794726375 52.115162484040454 L 408.35492484786016 52.20397181757565 L 408.45230071849255 52.293225798728116 L 408.54769734702893 52.38291550217411 L 408.6411051938858 52.47303195901802 L 408.7325149183564 52.56356615768928 L 408.82191737954446 52.65450904484346 L 408.9093036372783 52.74585152626762 L 408.99466495300504 52.837584467789746 L 409.0779927906642 52.92969869619212 L 409.15927881754146 53.02218500012867 L 409.23851490510185 53.11503413104609 L 409.3156931298027 53.20823680410863 L 409.3908057738858 53.30178369912667 L 409.46384532614934 53.39566546148867 L 409.53480448269903 53.48987270309661 L 409.60367614767824 53.58439600330485 L 409.67045343397797 53.67922590986214 L 409.7351296639252 53.77435293985683 L 409.79769836995075 53.86976758066522 L 409.85815329523626 53.96546029090272 L 409.9164883943396 54.06142150137806 L 409.9726978337993 54.15764161605015 L 410.02677599271846 54.254111012987714 L 410.07871746332614 54.350820045331446 L 410.1285170515186 54.4477590422587 L 410.1761697773785 54.54491830995058 L 410.221670875673 54.64228813256127 L 410.26501579633015 54.739858773189646 L 410.306200204894 54.83762047485297 L 410.34521998295804 54.93556346146252 L 410.382071228577 55.033677938801276 L 410.416750256657 55.131954095503254 L 410.4492535993241 55.23038210403468 L 410.4795780062712 55.328952121676735 L 410.5077204450828 55.42765429150978 L 410.53367810153844 55.5264787433991 L 410.5574483798942 55.62541559498185 L 410.57902890314205 55.72445495265532 L 410.59841751324757 55.82358691256627 L 410.615612271366 55.92280156160133 L 410.6306114580358 56.022088978378264 L 410.64341357335076 56.121439234238146 L 410.6540173371101 56.22084239423817 L 410.6624216889462 56.32028851814517 L 410.668625788431 56.41976766142964 L 410.6726290151596 56.51926987626014 L 410.67443096881277 56.61878521249811 M 410.67454265194135 88.31564836440002 L 410.67344191972256 88.4151657904769 L 410.67013983313853 88.5146732648941 L 410.66463672239513 88.61416083698711 L 410.65693313779883 88.71361855808162 L 410.6470298497017 88.8130364824884 L 410.63492784842435 88.91240466849787 L 410.6206283441567 89.01171317937421 L 410.6041327668374 89.11095208434912 L 410.58544276601026 89.21011145961478 L 410.56456021066 89.3091813893163 L 410.54148718902456 89.40815196654326 L 410.51622600838704 89.50701329432043 L 410.4887791948443 89.60575548659742 L 410.45914949305495 89.70436866923727 L 410.42733986596437 89.80284298100389 L 410.39335349450886 89.90116857454818 L 410.3571937772972 89.99933561739272 L 410.31886433027097 90.09733429291502 L 410.2783689863429 90.19515480132921 L 410.23571179501374 90.29278736066595 L 410.190897021967 90.3902222077507 L 410.1439291486426 90.4874495991799 L 410.0948128717888 90.58445981229544 L 410.04355310299235 90.68124314615687 L 409.99015496818737 90.77778992251145 L 409.93462380714294 90.874090486762 L 409.87696517292875 90.97013520893233 L 409.8171848313603 91.06591448463028 L 409.7552887604218 91.16141873600809 L 409.69128314966895 91.25663841272019 L 409.6251743996093 91.3515639928783 L 409.5569691210628 91.44618598400346 L 409.4866741345006 91.54049492397544 L 409.4142964693627 91.63448138197883 L 409.3398433633552 91.72813595944615 L 409.2633222617268 91.82144929099769 L 409.1847408165238 91.91441204537807 L 409.1041068858253 92.0070149263893 L 409.0214285329571 92.09924867382047 L 408.93671402568566 92.19110406437368 L 408.8499718353911 92.28257191258642 L 408.76121063622014 92.37364307175011 L 408.6704393042188 92.46430843482472 L 408.5776669164445 92.55455893534949 L 408.4829027500588 92.64438554834958 L 408.3861562813994 92.73377929123853 L 408.2874371850325 92.82273122471658 L 408.1867553327854 92.91123245366448 L 408.08412079275956 92.9992741280331 L 407.9795438283234 93.08684744372835 L 407.8730348970862 93.17394364349167 L 407.7646046498523 93.26055401777563 L 407.6542639295561 93.346669905615 L 407.5420237701777 93.43228269549276 L 407.4278953956395 93.51738382620125 L 407.31189021868374 93.60196478769834 L 407.1940198397316 93.68601712195833 L 407.0742960457227 93.76953242381786 L 406.9527308089366 93.85250234181635 L 406.82933628579576 93.9349185790311 L 406.70412481564966 94.01677289390713 L 406.57710891954093 94.09805710108111 L 406.4483012989533 94.17876307220008 L 406.3177148345416 94.2588827367342 L 406.1853625848434 94.33840808278374 L 406.05125778497336 94.41733115788041 L 405.91541384529967 94.49564406978244 L 405.7778443501032 94.57333898726392 L 405.63856305621874 94.65040814089784 L 405.4975838916597 94.72684382383305 L 405.35492095422495 94.80263839256496 L 405.2105885100894 94.87778426769987 L 405.06460099237717 94.95227393471288 L 404.91697299971844 95.02609994469935 L 404.76771929478934 95.09925491511981 L 404.6168548028361 95.1717315305382 L 404.4643946101821 95.24352254335335 L 404.31035396271966 95.31462077452383 L 404.15474826438503 95.38501911428574 L 403.99759307561845 95.45471052286379 L 403.8389041118079 95.52368803117518 L 403.6786972417174 95.59194474152659 L 403.51698848590047 95.65947382830383 L 403.35379401509795 95.72626853865452 L 403.18913014862096 95.7923221931633 L 403.0230133527189 95.85762818651972 L 402.855460238933 95.9221799881789 L 402.68648756243493 95.98597114301445 L 402.5161122203515 96.04899527196406 L 402.344351250075 96.11124607266736 L 402.17122182755935 96.17271732009613 L 401.99674126560245 96.23340286717686 L 401.8209270121152 96.29329664540542 L 401.6437966483763 96.3523926654539 L 401.4653678872746 96.41068501776955 L 401.2856585715375 96.4681678731657 L 401.10468667194687 96.5248354834047 L 400.9224702855418 96.58068218177279 L 400.7390276338091 96.63570238364663 L 400.55437706086104 96.6898905870519 L 400.36853703160114 96.74324137321344 L 400.18152612987734 96.79574940709705 L 399.99336305662405 96.84740943794313 L 399.80406662799174 96.89821629979161 L 399.61365577346555 96.94816491199869 L 399.4221495339723 96.99725027974473 L 399.22956705997626 97.0454674945339 L 399.03592760956445 97.09281173468487 L 398.8412505465205 97.13927826581309 L 398.6455553383884 97.18486244130418 L 398.44886155452605 97.22955970277856 L 398.25118886414776 97.27336558054733 L 398.05255703435796 97.31627569405923 L 397.85298592817406 97.35828575233866 L 397.6524955025404 97.3993915544148 L 397.45110580633235 97.43958898974171 L 397.24883697835185 97.47887403860933 L 397.0457092453131 97.51724277254554 L 396.8417429198201 97.5546913547089 L 396.6369583983354 97.5912160402724 L 396.43137615914065 97.62681317679792 L 396.22501676028827 97.6614792046015 L 396.0179008375463 97.69521065710921 L 395.8100491023343 97.72800416120393 L 395.6014823396527 97.75985643756258 L 395.3922214060039 97.79076430098405 L 395.1822872273069 97.82072466070777 L 394.9717007968046 97.84973452072273 L 394.76048317296465 97.8777909800671 L 394.5486554773733 97.90489123311833 L 394.33623889262367 97.93103256987371 L 394.1232546601972 97.95621237622132 L 393.9097240783396 97.98042813420153 L 393.6956684999312 98.0036774222587 L 393.48110933035133 98.02595791548345 L 393.2660680253383 98.04726738584496 L 393.05056608884337 98.06760370241399 L 392.8346250708805 98.08696483157581 L 392.6182665653717 98.10534883723366 L 392.4015122079871 98.1227538810023 L 392.18438367398187 98.13917822239182 L 391.9669026760284 98.15462021898179 L 391.74909096204533 98.16907832658542 L 391.5309703130225 98.182551099404 L 391.31256254084315 98.19503719017146 L 391.09388948610234 98.20653535028914 L 390.8749730159234 98.21704442995062 L 390.6558350217709 98.22656337825667 L 390.43649741726165 98.23509124332041 L 390.2169821359733 98.24262717236243 L 389.99731112925105 98.24917041179611 L 389.7775063640126 98.25472030730296 L 389.55758982055113 98.25927630389805 L 389.3375834903379 98.26283794598552 L 389.1175093738225 98.26540487740414 L 388.8973894782332 98.26697684146288 L 388.6772458153762 98.26755368096666 L 388.4571003994342 98.26713533823201 L 388.2369752447654 98.26572185509286 L 388.01689236370186 98.26331337289633 L 387.7968737643482 98.25991013248867 L 387.57694144838115 98.25551247419104 L 387.3571174088489 98.25012083776562 L 387.1374236279723 98.24373576237157 L 386.9178820749463 98.2363578865111 L 386.6985147037433 98.22798794796564 L 386.47934345091755 98.21862678372209 L 386.2603902334117 98.20827532988906 L 386.04167694636516 98.1969346216033 L 385.8232254609243 98.18460579292622 L 385.60505762205554 98.17129007673037 L 385.38719524636105 98.1569888045763 L 385.16966011989683 98.14170340657931 L 384.95247399599424 98.12543541126645 L 384.7356585930847 98.1081864454237 L 384.51923559252776 98.08995823393326 L 384.30322663644324 98.07075259960111 L 384.0876533255466 98.05057146297464 L 383.8725372169895 98.02941684215075 L 383.65789982220326 98.00729085257386 L 383.44376260474866 97.9841957068245 L 383.230146978169 97.96013371439797 L 383.01707430384886 97.9351072814735 L 382.8045658888782 97.90911891067351 L 382.5926429839213 97.88217120081342 L 382.3813267810922 97.85426684664178 L 382.17063841183494 97.82540863857072 L 381.96059894481095 97.79559946239702 L 381.75122938379195 97.76484229901347 L 381.5425506655595 97.73314022411074 L 381.3345836578115 97.70049640786993 L 381.12734915707546 97.66691411464545 L 380.92086788662874 97.63239670263864 L 380.7151604944264 97.59694762356195 L 380.5102475510361 97.56057042229372 L 380.3061495475816 97.52326873652379 L 380.1028868936929 97.48504629638963 L 379.9004799154663 97.44590692410341 L 379.69894885343075 97.40585453356975 L 379.49831386052455 97.36489312999431 L 379.29859500007984 97.32302680948334 L 379.09981224381625 97.28025975863397 L 378.9019854698436 97.23659625411567 L 378.7051344606747 97.19204066224249 L 378.50927890124615 97.14659743853649 L 378.3144383769509 97.10027112728218 L 378.1206323716788 97.05306636107208 L 377.9278802658691 97.00498786034348 L 377.73620133457155 96.95604043290636 L 377.5456147455197 96.9062289734627 L 377.3561395572135 96.85555846311694 L 377.16779471701403 96.80403396887786 L 376.9805990592482 96.75166064315196 L 376.794571303326 96.69844372322818 L 376.6097300518678 96.64438853075416 L 376.4260937888448 96.58950047120409 L 376.24368087773024 96.53378503333819 L 376.0625095596632 96.47724778865383 L 375.8825979516247 96.41989439082835 L 375.70396404462537 96.36173057515376 L 375.5266257019071 96.30276215796312 L 375.3506006571565 96.24299503604902 L 375.1759065127313 96.18243518607389 L 375.0025607379003 96.1210886639722 L 374.8305806670966 96.05896160434507 L 374.659983498184 95.99606021984668 L 374.4907862907371 95.93239080056308 L 374.3230059643357 95.86795971338313 L 374.1566592968727 95.80277340136185 L 373.99176292287615 95.73683838307612 L 373.82833333184607 95.67016125197281 L 373.6663868666053 95.6027486757095 L 373.5059397216655 95.53460739548763 L 373.34700794160744 95.46574422537843 L 373.18960741947666 95.39616605164152 L 373.03375389519425 95.32587983203629 L 372.8794629539827 95.25489259512614 L 372.72675002480753 95.1832114395756 L 372.5756303788345 95.1108435334405 L 372.42611912790215 95.03779611345114 L 372.2782312230111 94.96407648428864 L 372.1319814528286 94.88969201785449 L 371.9873844422097 94.81465015253335 L 371.844454650735 94.7389583924492 L 371.70320637126457 94.662624306715 L 371.5636537285086 94.5856555286757 L 371.4258106776151 94.50805975514496 L 371.28969100277436 94.42984474563546 L 371.15530831584033 94.351018321583 L 371.02267605496974 94.27158836556427 L 370.89180748327817 94.19156282050868 L 370.7627156875137 94.11094968890407 L 370.6354135767484 94.02975703199641 L 370.50991388108724 93.94799296898373 L 370.38622915039514 93.8656656762042 L 370.26437175304216 93.78278338631848 L 370.1443538746664 93.69935438748651 L 370.0261875169558 93.61538702253864 L 369.90988449644766 93.53088968814139 L 369.795456443347 93.44587083395777 L 369.68291480036385 93.36033896180237 L 369.57227082156874 93.27430262479113 L 369.4635355712673 93.18777042648605 L 369.35671992289394 93.10075102003485 L 369.25183455792455 93.01325310730566 L 369.1488899648081 92.92528543801683 L 369.0478964379183 92.836856808862 L 368.94886407652353 92.74797606263037 L 368.85180278377743 92.65865208732252 L 368.75672226572846 92.56889381526153 L 368.6636320303491 92.47871022219982 L 368.5725413865853 92.38811032642154 L 368.48345944342566 92.29710318784076 L 368.3963951089902 92.20569790709551 L 368.3113570896397 92.11390362463767 L 368.2283538891054 92.02172951981903 L 368.1473938076381 91.92918480997322 L 368.06848494117844 91.83627874949414 L 367.9916351805474 91.74302062891039 L 367.91685221065694 91.64941977395632 L 367.84414350974174 91.55548554463944 L 367.7735163486113 91.46122733430438 L 367.7049777899229 91.36665456869365 L 367.63853468747527 91.27177670500497 L 367.5741936855233 91.17660323094567 L 367.5119612181136 91.08114366378383 L 367.45184350844096 90.98540754939663 L 367.3938465682263 90.88940446131572 L 367.3379761971153 90.79314399976991 L 367.2842379820986 90.69663579072514 L 367.2326372969528 90.59988948492189 L 367.1831793017035 90.5029147569101 L 367.1358689421089 90.40572130408178 L 367.09071094916567 90.30831884570122 L 367.04770983863534 90.21071712193307 L 367.00686991059325 90.1129258928684 L 366.96819524899814 90.01495493754861 L 366.9316897212839 89.91681405298758 L 366.89735697797283 89.81851305319199 L 366.8652004523108 89.72006176817992 L 366.8352233599235 89.6214700429978 L 366.8074286984951 89.52274773673601 L 366.7818192474687 89.42390472154288 L 366.75839756776804 89.32495088163759 L 366.7371660015416 89.22589611232166 L 366.71812667192825 89.12675031898948 L 366.7012814828451 89.02752341613775 L 366.686632118797 88.92822532637408 L 366.6741800447082 88.82886597942469 L 366.6639265057757 88.72945531114148 L 366.65587252734485 88.63000326250842 L 366.65001891480676 88.53051977864753 L 366.6463662535179 88.43101480782425 L 366.6449149087412 88.3314983004528" stroke-miterlimit="10" stroke-width="2.5633703640000003" stroke-dasharray=""/></g><g><g/><text fill="black" stroke="none" font-family="sans-serif" font-size="11pt" font-style="normal" font-weight="normal" text-decoration="normal" x="353.6256953497265" y="114.44694742800002" text-anchor="start" dominant-baseline="alphabetic" xml:space="preserve">Zookeeper</text></g><path fill="none" stroke="none"/><g><path fill="white" stroke="black" paint-order="fill stroke markers" d=" M 591.9373369947773 78.258189348 L 681.6799784150273 78.258189348 L 681.6799784150273 118.970542188 L 591.9373369947773 118.970542188 L 591.9373369947773 78.258189348 Z" stroke-miterlimit="10" stroke-width="2.4125838720000004" stroke-dasharray=""/></g><g><g/><text fill="black" stroke="none" font-family="sans-serif" font-size="11pt" font-style="normal" font-weight="normal" text-decoration="normal" x="608.2976713767773" y="103.89189298800001" text-anchor="start" dominant-baseline="alphabetic" xml:space="preserve">Allocator</text></g><path fill="none" stroke="none"/><g><path fill="white" stroke="black" paint-order="fill stroke markers" d=" M 764.761885653664 78.258189348 L 843.9059400377812 78.258189348 L 843.9059400377812 118.970542188 L 764.761885653664 118.970542188 L 764.761885653664 78.258189348 Z" stroke-miterlimit="10" stroke-width="2.4125838720000004" stroke-dasharray=""/></g><g><g/><text fill="black" stroke="none" font-family="sans-serif" font-size="11pt" font-style="normal" font-weight="normal" text-decoration="normal" x="781.122220035664" y="103.89189298800001" text-anchor="start" dominant-baseline="alphabetic" xml:space="preserve">Docker</text></g></g><g><path fill="#006600" stroke="black" paint-order="fill stroke markers" d=" M 95.45774494240234 183.808733748 L 110.53639414240234 183.808733748 L 110.53639414240234 241.107600708 L 95.45774494240234 241.107600708 L 95.45774494240234 183.808733748" stroke-miterlimit="10" stroke-width="1.2565541" stroke-dasharray=""/><path fill="white" stroke="black" paint-order="fill stroke markers" d=" M 629.2693331049023 355.705334628 L 644.3479823049023 355.705334628 L 644.3479823049023 539.664854868 L 629.2693331049023 539.664854868 L 629.2693331049023 355.705334628" stroke-miterlimit="10" stroke-width="1.2565541" stroke-dasharray=""/><path fill="#FF0000" stroke="black" paint-order="fill stroke markers" d=" M 95.45774494240234 455.224419348 L 110.53639414240234 455.224419348 L 110.53639414240234 612.042371028 L 95.45774494240234 612.042371028 L 95.45774494240234 455.224419348" stroke-miterlimit="10" stroke-width="1.2565541" stroke-dasharray=""/><path fill="#006600" stroke="black" paint-order="fill stroke markers" d=" M 95.45774494240234 669.3412379880001 L 110.53639414240234 669.3412379880001 L 110.53639414240234 726.6401049480002 L 95.45774494240234 726.6401049480002 L 95.45774494240234 669.3412379880001" stroke-miterlimit="10" stroke-width="1.2565541" stroke-dasharray=""/><path fill="white" stroke="black" paint-order="fill stroke markers" d=" M 629.2693331049023 841.2378388680003 L 644.3479823049023 841.2378388680003 L 644.3479823049023 883.4580566280002 L 629.2693331049023 883.4580566280002 L 629.2693331049023 841.2378388680003" stroke-miterlimit="10" stroke-width="1.2565541" stroke-dasharray=""/><path fill="#FF0000" stroke="black" paint-order="fill stroke markers" d=" M 95.45774494240234 940.7569235880003 L 110.53639414240234 940.7569235880003 L 110.53639414240234 1118.6849841480002 L 95.45774494240234 1118.6849841480002 L 95.45774494240234 940.7569235880003" stroke-miterlimit="10" stroke-width="1.2565541" stroke-dasharray=""/><path fill="white" stroke="black" paint-order="fill stroke markers" d=" M 34.63701406816406 162.698624868 L 34.63701406816406 162.698624868 A 13.570784280000002 13.570784280000002 0 0 1 48.20779834816406 149.127840588 L 157.78634073664062 149.127840588 L 157.78634073664062 149.127840588 A 13.570784280000002 13.570784280000002 0 0 1 171.35712501664062 162.698624868 L 171.35712501664062 170.237949468 L 171.35712501664062 170.237949468 A 13.570784280000002 13.570784280000002 0 0 1 157.78634073664062 183.808733748 L 48.20779834816406 183.808733748 L 48.20779834816406 183.808733748 A 13.570784280000002 13.570784280000002 0 0 1 34.63701406816406 170.237949468 L 34.63701406816406 162.698624868" stroke-miterlimit="10" stroke-width="1.2565541" stroke-dasharray=""/><g><text fill="black" stroke="none" font-family="sans-serif" font-size="11pt" font-style="normal" font-weight="normal" text-decoration="normal" x="55.74712294816406" y="170.237949468" text-anchor="start" dominant-baseline="alphabetic" xml:space="preserve">stop-instances</text></g><g><g><rect fill="white" stroke="none" x="174.83505165683593" y="206.426707548" width="149.52600564867188" height="19.602243960000003"/></g><g><rect fill="white" stroke="none" x="174.83505165683593" y="221.505356748" width="115.91968240648437" height="19.602243960000003"/></g><text fill="black" stroke="none" font-family="sans-serif" font-size="11pt" font-style="normal" font-weight="normal" text-decoration="normal" x="177.09684903683592" y="219.997491828" text-anchor="start" dominant-baseline="alphabetic" xml:space="preserve">Update </text><text fill="black" stroke="none" font-family="sans-serif" font-size="11pt" font-style="normal" font-weight="bold" text-decoration="normal" x="228.42950589718748" y="219.997491828" text-anchor="start" dominant-baseline="alphabetic" xml:space="preserve">Instance data</text><text fill="black" stroke="none" font-family="sans-serif" font-size="11pt" font-style="normal" font-weight="normal" text-decoration="normal" x="177.09684903683592" y="235.076141028" text-anchor="start" dominant-baseline="alphabetic" xml:space="preserve">(set "start": false)</text></g><g><path fill="none" stroke="black" paint-order="fill stroke markers" d=" M 110.53639414240234 241.107600708 L 376.2449603119414 241.107600708" stroke-miterlimit="10" stroke-width="1.2565541" stroke-dasharray=""/><g transform="translate(388.65971481994137,241.107600708) translate(-388.65971481994137,-241.107600708)"><path fill="black" stroke="none" paint-order="stroke fill markers" d=" M 376.0941738199414 234.824830208 L 388.65971481994137 241.107600708 L 376.0941738199414 247.390371208 Z"/></g></g><g><g><rect fill="white" stroke="none" x="431.04023708798826" y="263.725574508" width="120.99355020433593" height="19.602243960000003"/></g><g><rect fill="white" stroke="none" x="431.04023708798826" y="278.804223708" width="163.3878983488672" height="19.602243960000003"/></g><text fill="black" stroke="none" font-family="sans-serif" font-size="11pt" font-style="normal" font-weight="normal" text-decoration="normal" x="433.3020344679883" y="277.296358788" text-anchor="start" dominant-baseline="alphabetic" xml:space="preserve">Notice (via watch)</text><text fill="black" stroke="none" font-family="sans-serif" font-size="11pt" font-style="normal" font-weight="normal" text-decoration="normal" x="433.3020344679883" y="292.375007988" text-anchor="start" dominant-baseline="alphabetic" xml:space="preserve">update of </text><text fill="black" stroke="none" font-family="sans-serif" font-size="11pt" font-style="normal" font-weight="bold" text-decoration="normal" x="498.49658402853515" y="292.375007988" text-anchor="start" dominant-baseline="alphabetic" xml:space="preserve">Instance data</text></g><g><path fill="none" stroke="black" paint-order="fill stroke markers" d=" M 388.65971481994137 298.406467668 L 624.3939031969023 298.406467668" stroke-miterlimit="10" stroke-width="1.2565541" stroke-dasharray="6.03145968"/><g transform="translate(636.8086577049023,298.406467668) translate(-636.8086577049023,-298.406467668)"><path fill="black" stroke="none" paint-order="stroke fill markers" d=" M 624.2431167049023 292.123697168 L 636.8086577049023 298.406467668 L 624.2431167049023 304.68923816800003 Z"/></g></g><path fill="white" stroke="black" paint-order="fill stroke markers" d=" M 537.085908444043 334.595225748 L 537.085908444043 334.595225748 A 13.570784280000002 13.570784280000002 0 0 1 550.656692724043 321.024441468 L 722.9606226857617 321.024441468 L 722.9606226857617 321.024441468 A 13.570784280000002 13.570784280000002 0 0 1 736.5314069657617 334.595225748 L 736.5314069657617 342.134550348 L 736.5314069657617 342.134550348 A 13.570784280000002 13.570784280000002 0 0 1 722.9606226857617 355.705334628 L 550.656692724043 355.705334628 L 550.656692724043 355.705334628 A 13.570784280000002 13.570784280000002 0 0 1 537.085908444043 342.134550348 L 537.085908444043 334.595225748" stroke-miterlimit="10" stroke-width="1.2565541" stroke-dasharray=""/><g><text fill="black" stroke="none" font-family="sans-serif" font-size="11pt" font-style="normal" font-weight="normal" text-decoration="normal" x="558.1960173240429" y="342.13455034800006" text-anchor="start" dominant-baseline="alphabetic" xml:space="preserve">DockerAllocator.allocate</text></g><g><g><rect fill="white" stroke="none" x="674.8220472290038" y="378.323308428" width="99.03780069261718" height="19.602243960000003"/></g><text fill="black" stroke="none" font-family="sans-serif" font-size="11pt" font-style="normal" font-weight="normal" text-decoration="normal" x="677.0838446090038" y="391.894092708" text-anchor="start" dominant-baseline="alphabetic" xml:space="preserve">Stop container</text></g><g><path fill="none" stroke="black" paint-order="fill stroke markers" d=" M 644.3479823049023 397.925552388 L 791.9191583377226 397.925552388" stroke-miterlimit="10" stroke-width="1.2565541" stroke-dasharray=""/><g transform="translate(804.3339128457226,397.925552388) translate(-804.3339128457226,-397.925552388)"><path fill="black" stroke="none" paint-order="stroke fill markers" d=" M 791.7683718457225 391.642781888 L 804.3339128457226 397.925552388 L 791.7683718457225 404.20832288800005 Z"/></g></g><path fill="white" stroke="black" paint-order="fill stroke markers" d=" M 24.453496612109376 434.11431046800004 L 24.453496612109372 434.11431046800004 A 13.570784280000002 13.570784280000002 0 0 1 38.024280892109374 420.54352618800004 L 167.9698581926953 420.54352618800004 L 167.9698581926953 420.54352618800004 A 13.570784280000002 13.570784280000002 0 0 1 181.5406424726953 434.11431046800004 L 181.5406424726953 441.653635068 L 181.5406424726953 441.653635068 A 13.570784280000002 13.570784280000002 0 0 1 167.9698581926953 455.224419348 L 38.024280892109374 455.224419348 L 38.024280892109374 455.224419348 A 13.570784280000002 13.570784280000002 0 0 1 24.453496612109372 441.653635068 L 24.453496612109376 434.11431046800004" stroke-miterlimit="10" stroke-width="1.2565541" stroke-dasharray=""/><g><text fill="black" stroke="none" font-family="sans-serif" font-size="11pt" font-style="normal" font-weight="normal" text-decoration="normal" x="45.563605492109374" y="441.6536350680001" text-anchor="start" dominant-baseline="alphabetic" xml:space="preserve">wait-until-stopped</text></g><g><g><rect fill="white" stroke="none" x="662.1910505249023" y="477.84239314800004" width="124.29979410082031" height="19.602243960000003"/></g><text fill="black" stroke="none" font-family="sans-serif" font-size="11pt" font-style="normal" font-weight="normal" text-decoration="normal" x="664.4528479049022" y="491.41317742800004" text-anchor="start" dominant-baseline="alphabetic" xml:space="preserve">Container stopped</text></g><g><path fill="none" stroke="black" paint-order="fill stroke markers" d=" M 804.3339128457226 497.44463710800005 L 656.7627368129023 497.44463710800005" stroke-miterlimit="10" stroke-width="1.2565541" stroke-dasharray=""/><g transform="translate(644.3479823049023,497.44463710800005) translate(-644.3479823049023,-497.44463710800005)"><path fill="black" stroke="none" paint-order="stroke fill markers" d=" M 656.9135233049024 491.161866608 L 644.3479823049023 497.44463710800005 L 656.9135233049024 503.7274076080001 Z"/></g></g><g><g><rect fill="white" stroke="none" x="424.8445646561523" y="520.062610908" width="168.23991861253907" height="19.602243960000003"/></g><text fill="black" stroke="none" font-family="sans-serif" font-size="11pt" font-style="normal" font-weight="normal" text-decoration="normal" x="427.1063620361523" y="533.633395188" text-anchor="start" dominant-baseline="alphabetic" xml:space="preserve">Delete </text><text fill="black" stroke="none" font-family="sans-serif" font-size="11pt" font-style="normal" font-weight="bold" text-decoration="normal" x="473.5440604004101" y="533.633395188" text-anchor="start" dominant-baseline="alphabetic" xml:space="preserve">Instance runtime</text></g><g><path fill="none" stroke="black" paint-order="fill stroke markers" d=" M 629.2693331049023 539.664854868 L 401.07446932794136 539.664854868" stroke-miterlimit="10" stroke-width="1.2565541" stroke-dasharray=""/><g transform="translate(388.65971481994137,539.664854868) translate(-388.65971481994137,-539.664854868)"><path fill="black" stroke="none" paint-order="stroke fill markers" d=" M 401.22525581994137 533.382084368 L 388.65971481994137 539.664854868 L 401.22525581994137 545.947625368 Z"/></g></g><g><g><rect fill="white" stroke="none" x="128.37946236240234" y="562.2828286680001" width="125.07983865648437" height="19.602243960000003"/></g><g><rect fill="white" stroke="none" x="128.37946236240234" y="577.3614778680001" width="242.43718423753907" height="19.602243960000003"/></g><g><rect fill="white" stroke="none" x="128.37946236240234" y="592.440127068" width="139.750401400625" height="19.602243960000003"/></g><text fill="black" stroke="none" font-family="sans-serif" font-size="11pt" font-style="normal" font-weight="normal" text-decoration="normal" x="130.64125974240233" y="575.8536129480001" text-anchor="start" dominant-baseline="alphabetic" xml:space="preserve">Notice (via polling)</text><text fill="black" stroke="none" font-family="sans-serif" font-size="11pt" font-style="normal" font-weight="normal" text-decoration="normal" x="130.64125974240233" y="590.9322621480001" text-anchor="start" dominant-baseline="alphabetic" xml:space="preserve">deletion of all ephemeral child nodes</text><text fill="black" stroke="none" font-family="sans-serif" font-size="11pt" font-style="normal" font-weight="normal" text-decoration="normal" x="130.64125974240233" y="606.010911348" text-anchor="start" dominant-baseline="alphabetic" xml:space="preserve">under </text><text fill="black" stroke="none" font-family="sans-serif" font-size="11pt" font-style="normal" font-weight="bold" text-decoration="normal" x="172.198312354707" y="606.010911348" text-anchor="start" dominant-baseline="alphabetic" xml:space="preserve">Instance data</text></g><g><path fill="none" stroke="black" paint-order="fill stroke markers" d=" M 388.65971481994137 612.042371028 L 122.95114865040235 612.042371028" stroke-miterlimit="10" stroke-width="1.2565541" stroke-dasharray=""/><g transform="translate(110.53639414240234,612.042371028) translate(-110.53639414240234,-612.042371028)"><path fill="black" stroke="none" paint-order="stroke fill markers" d=" M 123.10193514240234 605.7596005280001 L 110.53639414240234 612.042371028 L 123.10193514240234 618.325141528 Z"/></g></g><path fill="white" stroke="black" paint-order="fill stroke markers" d=" M 15.078649200000001 648.2311291080001 L 15.078649200000001 648.2311291080001 A 13.570784280000002 13.570784280000002 0 0 1 28.649433480000003 634.6603448280001 L 177.3447056048047 634.6603448280001 L 177.3447056048047 634.6603448280001 A 13.570784280000002 13.570784280000002 0 0 1 190.91548988480469 648.2311291080001 L 190.91548988480469 655.7704537080001 L 190.91548988480469 655.7704537080001 A 13.570784280000002 13.570784280000002 0 0 1 177.3447056048047 669.3412379880001 L 28.649433480000003 669.3412379880001 L 28.649433480000003 669.3412379880001 A 13.570784280000002 13.570784280000002 0 0 1 15.078649200000001 655.7704537080001 L 15.078649200000001 648.2311291080001" stroke-miterlimit="10" stroke-width="1.2565541" stroke-dasharray=""/><g><text fill="black" stroke="none" font-family="sans-serif" font-size="11pt" font-style="normal" font-weight="normal" text-decoration="normal" x="36.18875808" y="655.7704537080001" text-anchor="start" dominant-baseline="alphabetic" xml:space="preserve">deallocate-instances</text></g><g><g><rect fill="white" stroke="none" x="154.06725990878905" y="691.9592117880002" width="191.06158914476563" height="19.602243960000003"/></g><g><rect fill="white" stroke="none" x="154.06725990878905" y="707.0378609880001" width="121.81653299242187" height="19.602243960000003"/></g><text fill="black" stroke="none" font-family="sans-serif" font-size="11pt" font-style="normal" font-weight="normal" text-decoration="normal" x="156.32905728878904" y="705.5299960680002" text-anchor="start" dominant-baseline="alphabetic" xml:space="preserve">Update </text><text fill="black" stroke="none" font-family="sans-serif" font-size="11pt" font-style="normal" font-weight="bold" text-decoration="normal" x="207.6617141491406" y="705.5299960680002" text-anchor="start" dominant-baseline="alphabetic" xml:space="preserve">Allocator instances</text><text fill="black" stroke="none" font-family="sans-serif" font-size="11pt" font-style="normal" font-weight="normal" text-decoration="normal" x="156.32905728878904" y="720.6086452680001" text-anchor="start" dominant-baseline="alphabetic" xml:space="preserve">(remove instance)</text></g><g><path fill="none" stroke="black" paint-order="fill stroke markers" d=" M 110.53639414240234 726.6401049480002 L 376.2449603119414 726.6401049480002" stroke-miterlimit="10" stroke-width="1.2565541" stroke-dasharray=""/><g transform="translate(388.65971481994137,726.6401049480002) translate(-388.65971481994137,-726.6401049480002)"><path fill="black" stroke="none" paint-order="stroke fill markers" d=" M 376.0941738199414 720.3573344480002 L 388.65971481994137 726.6401049480002 L 376.0941738199414 732.9228754480001 Z"/></g></g><g><g><rect fill="white" stroke="none" x="410.2724453399414" y="749.2580787480002" width="120.99355020433593" height="19.602243960000003"/></g><g><rect fill="white" stroke="none" x="410.2724453399414" y="764.3367279480002" width="204.92348184496095" height="19.602243960000003"/></g><text fill="black" stroke="none" font-family="sans-serif" font-size="11pt" font-style="normal" font-weight="normal" text-decoration="normal" x="412.5342427199414" y="762.8288630280002" text-anchor="start" dominant-baseline="alphabetic" xml:space="preserve">Notice (via watch)</text><text fill="black" stroke="none" font-family="sans-serif" font-size="11pt" font-style="normal" font-weight="normal" text-decoration="normal" x="412.5342427199414" y="777.9075122280002" text-anchor="start" dominant-baseline="alphabetic" xml:space="preserve">update of </text><text fill="black" stroke="none" font-family="sans-serif" font-size="11pt" font-style="normal" font-weight="bold" text-decoration="normal" x="477.7287922804883" y="777.9075122280002" text-anchor="start" dominant-baseline="alphabetic" xml:space="preserve">Allocator instances</text></g><g><path fill="none" stroke="black" paint-order="fill stroke markers" d=" M 388.65971481994137 783.9389719080002 L 624.3939031969023 783.9389719080002" stroke-miterlimit="10" stroke-width="1.2565541" stroke-dasharray="6.03145968"/><g transform="translate(636.8086577049023,783.9389719080002) translate(-636.8086577049023,-783.9389719080002)"><path fill="black" stroke="none" paint-order="stroke fill markers" d=" M 624.2431167049023 777.6562014080002 L 636.8086577049023 783.9389719080002 L 624.2431167049023 790.2217424080002 Z"/></g></g><path fill="white" stroke="black" paint-order="fill stroke markers" d=" M 528.934800655957 820.1277299880003 L 528.934800655957 820.1277299880003 A 13.570784280000002 13.570784280000002 0 0 1 542.505584935957 806.5569457080003 L 731.1117304738476 806.5569457080003 L 731.1117304738476 806.5569457080003 A 13.570784280000002 13.570784280000002 0 0 1 744.6825147538476 820.1277299880003 L 744.6825147538476 827.6670545880003 L 744.6825147538476 827.6670545880003 A 13.570784280000002 13.570784280000002 0 0 1 731.1117304738476 841.2378388680003 L 542.505584935957 841.2378388680003 L 542.505584935957 841.2378388680003 A 13.570784280000002 13.570784280000002 0 0 1 528.934800655957 827.6670545880003 L 528.934800655957 820.1277299880003" stroke-miterlimit="10" stroke-width="1.2565541" stroke-dasharray=""/><g><text fill="black" stroke="none" font-family="sans-serif" font-size="11pt" font-style="normal" font-weight="normal" text-decoration="normal" x="550.044909535957" y="827.6670545880003" text-anchor="start" dominant-baseline="alphabetic" xml:space="preserve">DockerAllocator.deallocate</text></g><g><g><rect fill="white" stroke="none" x="668.7140836669921" y="863.8558126680002" width="111.25372781664062" height="19.602243960000003"/></g><text fill="black" stroke="none" font-family="sans-serif" font-size="11pt" font-style="normal" font-weight="normal" text-decoration="normal" x="670.9758810469921" y="877.4265969480002" text-anchor="start" dominant-baseline="alphabetic" xml:space="preserve">Delete container</text></g><g><path fill="none" stroke="black" paint-order="fill stroke markers" d=" M 644.3479823049023 883.4580566280002 L 791.9191583377226 883.4580566280002" stroke-miterlimit="10" stroke-width="1.2565541" stroke-dasharray=""/><g transform="translate(804.3339128457226,883.4580566280002) translate(-804.3339128457226,-883.4580566280002)"><path fill="black" stroke="none" paint-order="stroke fill markers" d=" M 791.7683718457225 877.1752861280003 L 804.3339128457226 883.4580566280002 L 791.7683718457225 889.7408271280002 Z"/></g></g><path fill="white" stroke="black" paint-order="fill stroke markers" d=" M 28.521894134082032 919.6468147080003 L 28.52189413408203 919.6468147080003 A 13.570784280000002 13.570784280000002 0 0 1 42.09267841408203 906.0760304280003 L 163.90146067072266 906.0760304280003 L 163.90146067072266 906.0760304280003 A 13.570784280000002 13.570784280000002 0 0 1 177.47224495072265 919.6468147080003 L 177.47224495072265 927.1861393080003 L 177.47224495072265 927.1861393080003 A 13.570784280000002 13.570784280000002 0 0 1 163.90146067072266 940.7569235880003 L 42.09267841408203 940.7569235880003 L 42.09267841408203 940.7569235880003 A 13.570784280000002 13.570784280000002 0 0 1 28.52189413408203 927.1861393080003 L 28.521894134082032 919.6468147080003" stroke-miterlimit="10" stroke-width="1.2565541" stroke-dasharray=""/><g><text fill="black" stroke="none" font-family="sans-serif" font-size="11pt" font-style="normal" font-weight="normal" text-decoration="normal" x="49.63200301408203" y="927.1861393080003" text-anchor="start" dominant-baseline="alphabetic" xml:space="preserve">delete-instances</text></g><g><g><rect fill="white" stroke="none" x="149.16872322666015" y="1004.0872502280002" width="144.63104715257813" height="19.602243960000003"/></g><g><rect fill="white" stroke="none" x="149.16872322666015" y="1019.1658994280002" width="200.85866250902345" height="19.602243960000003"/></g><text fill="black" stroke="none" font-family="sans-serif" font-size="11pt" font-style="normal" font-weight="normal" text-decoration="normal" x="151.43052060666014" y="1017.6580345080002" text-anchor="start" dominant-baseline="alphabetic" xml:space="preserve">Delete </text><text fill="black" stroke="none" font-family="sans-serif" font-size="11pt" font-style="normal" font-weight="bold" text-decoration="normal" x="197.86821897091795" y="1017.6580345080002" text-anchor="start" dominant-baseline="alphabetic" xml:space="preserve">Instance data</text><text fill="black" stroke="none" font-family="sans-serif" font-size="11pt" font-style="normal" font-weight="normal" text-decoration="normal" x="151.43052060666014" y="1032.7366837080003" text-anchor="start" dominant-baseline="alphabetic" xml:space="preserve">(including child znodes, if any)</text></g><g><path fill="none" stroke="black" paint-order="fill stroke markers" d=" M 110.53639414240234 1038.7681433880002 L 376.2449603119414 1038.7681433880002" stroke-miterlimit="10" stroke-width="1.2565541" stroke-dasharray=""/><g transform="translate(388.65971481994137,1038.7681433880002) translate(-388.65971481994137,-1038.7681433880002)"><path fill="black" stroke="none" paint-order="stroke fill markers" d=" M 376.0941738199414 1032.4853728880003 L 388.65971481994137 1038.7681433880002 L 376.0941738199414 1045.0509138880002 Z"/></g></g><g><g><rect fill="white" stroke="none" x="154.70417702304687" y="1061.386117188" width="137.30292215257813" height="19.602243960000003"/></g><g><rect fill="white" stroke="none" x="154.70417702304687" y="1076.464766388" width="189.78775491625" height="19.602243960000003"/></g><text fill="black" stroke="none" font-family="sans-serif" font-size="11pt" font-style="normal" font-weight="normal" text-decoration="normal" x="156.96597440304686" y="1074.956901468" text-anchor="start" dominant-baseline="alphabetic" xml:space="preserve">Read </text><text fill="black" stroke="none" font-family="sans-serif" font-size="11pt" font-style="normal" font-weight="bold" text-decoration="normal" x="196.07554776730467" y="1074.956901468" text-anchor="start" dominant-baseline="alphabetic" xml:space="preserve">Instance data</text><text fill="black" stroke="none" font-family="sans-serif" font-size="11pt" font-style="normal" font-weight="normal" text-decoration="normal" x="156.96597440304686" y="1090.035550668" text-anchor="start" dominant-baseline="alphabetic" xml:space="preserve">(verify it didn't get recreated)</text></g><g><path fill="none" stroke="black" paint-order="fill stroke markers" d=" M 388.65971481994137 1096.0670103480002 L 122.95114865040235 1096.0670103480002" stroke-miterlimit="10" stroke-width="1.2565541" stroke-dasharray=""/><g transform="translate(110.53639414240234,1096.0670103480002) translate(-110.53639414240234,-1096.0670103480002)"><path fill="black" stroke="none" paint-order="stroke fill markers" d=" M 123.10193514240234 1089.7842398480002 L 110.53639414240234 1096.0670103480002 L 123.10193514240234 1102.3497808480001 Z"/></g></g><path fill="white" stroke="black" paint-order="fill stroke markers" d=" M 36.6622673640625 1154.873742228 L 36.6622673640625 1154.873742228 A 13.570784280000002 13.570784280000002 0 0 1 50.2330516440625 1141.302957948 L 155.7610874407422 1141.302957948 L 155.7610874407422 1141.302957948 A 13.570784280000002 13.570784280000002 0 0 1 169.33187172074219 1154.873742228 L 169.33187172074219 1162.4130668280002 L 169.33187172074219 1162.4130668280002 A 13.570784280000002 13.570784280000002 0 0 1 155.7610874407422 1175.9838511080002 L 50.2330516440625 1175.9838511080002 L 50.2330516440625 1175.9838511080002 A 13.570784280000002 13.570784280000002 0 0 1 36.6622673640625 1162.4130668280002 L 36.6622673640625 1154.873742228" stroke-miterlimit="10" stroke-width="1.2565541" stroke-dasharray=""/><g><text fill="black" stroke="none" font-family="sans-serif" font-size="11pt" font-style="normal" font-weight="normal" text-decoration="normal" x="57.7723762440625" y="1162.4130668280002" text-anchor="start" dominant-baseline="alphabetic" xml:space="preserve">Continue plan</text></g><path fill="white" stroke="black" paint-order="fill stroke markers" d=" M 89.42628526240235 1239.3141777480002 L 804.3339128457226 1239.3141777480002 L 817.9046971257226 1252.8849620280002 L 817.9046971257226 1454.9388613080002 L 89.42628526240235 1454.9388613080002 L 89.42628526240235 1239.3141777480002 M 804.3339128457226 1239.3141777480002 L 804.3339128457226 1252.8849620280002 L 817.9046971257226 1252.8849620280002" stroke-miterlimit="10" stroke-width="1.2565541" stroke-dasharray=""/><g><text fill="black" stroke="none" font-family="sans-serif" font-size="11pt" font-style="normal" font-weight="normal" text-decoration="normal" x="246.34182176046875" y="1260.4242866280003" text-anchor="start" dominant-baseline="alphabetic" xml:space="preserve">Znode glossary:</text><text fill="black" stroke="none" font-family="sans-serif" font-size="11pt" font-style="normal" font-weight="normal" text-decoration="normal" x="246.34182176046875" y="1275.5029358280003" text-anchor="start" dominant-baseline="alphabetic" xml:space="preserve"></text><text fill="black" stroke="none" font-family="sans-serif" font-size="11pt" font-style="normal" font-weight="bold" text-decoration="normal" x="246.34182176046875" y="1290.5815850280003" text-anchor="start" dominant-baseline="alphabetic" xml:space="preserve">Instance data</text><text fill="black" stroke="none" font-family="sans-serif" font-size="11pt" font-style="normal" font-weight="normal" text-decoration="normal" x="340.01157578878906" y="1290.5815850280003" text-anchor="start" dominant-baseline="alphabetic" xml:space="preserve">: Info about the instance</text><text fill="black" stroke="none" font-family="sans-serif" font-size="11pt" font-style="normal" font-weight="normal" text-decoration="normal" x="246.34182176046875" y="1305.6602342280003" text-anchor="start" dominant-baseline="alphabetic" xml:space="preserve">  /clusters/&lt;id&gt;/instances/&lt;id&gt;</text><text fill="black" stroke="none" font-family="sans-serif" font-size="11pt" font-style="normal" font-weight="normal" text-decoration="normal" x="246.34182176046875" y="1320.7388834280002" text-anchor="start" dominant-baseline="alphabetic" xml:space="preserve"></text><text fill="black" stroke="none" font-family="sans-serif" font-size="11pt" font-style="normal" font-weight="bold" text-decoration="normal" x="246.34182176046875" y="1335.8175326280002" text-anchor="start" dominant-baseline="alphabetic" xml:space="preserve">Allocator instances</text><text fill="black" stroke="none" font-family="sans-serif" font-size="11pt" font-style="normal" font-weight="normal" text-decoration="normal" x="381.5471592848828" y="1335.8175326280002" text-anchor="start" dominant-baseline="alphabetic" xml:space="preserve">: What instances an allocator owns</text><text fill="black" stroke="none" font-family="sans-serif" font-size="11pt" font-style="normal" font-weight="normal" text-decoration="normal" x="246.34182176046875" y="1350.8961818280002" text-anchor="start" dominant-baseline="alphabetic" xml:space="preserve">  /services/allocators/&lt;zone&gt;/&lt;id&gt;/instances</text><text fill="black" stroke="none" font-family="sans-serif" font-size="11pt" font-style="normal" font-weight="normal" text-decoration="normal" x="246.34182176046875" y="1365.9748310280002" text-anchor="start" dominant-baseline="alphabetic" xml:space="preserve"></text><text fill="black" stroke="none" font-family="sans-serif" font-size="11pt" font-style="normal" font-weight="bold" text-decoration="normal" x="246.34182176046875" y="1381.0534802280001" text-anchor="start" dominant-baseline="alphabetic" xml:space="preserve">Allocation data</text><text fill="black" stroke="none" font-family="sans-serif" font-size="11pt" font-style="normal" font-weight="normal" text-decoration="normal" x="351.39020738058593" y="1381.0534802280001" text-anchor="start" dominant-baseline="alphabetic" xml:space="preserve">: Info about how the container was allocated</text><text fill="black" stroke="none" font-family="sans-serif" font-size="11pt" font-style="normal" font-weight="normal" text-decoration="normal" x="246.34182176046875" y="1396.132129428" text-anchor="start" dominant-baseline="alphabetic" xml:space="preserve">  /clusters/&lt;id&gt;/instances/&lt;id&gt;/allocation</text><text fill="black" stroke="none" font-family="sans-serif" font-size="11pt" font-style="normal" font-weight="normal" text-decoration="normal" x="246.34182176046875" y="1411.210778628" text-anchor="start" dominant-baseline="alphabetic" xml:space="preserve"></text><text fill="black" stroke="none" font-family="sans-serif" font-size="11pt" font-style="normal" font-weight="bold" text-decoration="normal" x="246.34182176046875" y="1426.289427828" text-anchor="start" dominant-baseline="alphabetic" xml:space="preserve">Instance runtime</text><text fill="black" stroke="none" font-family="sans-serif" font-size="11pt" font-style="normal" font-weight="normal" text-decoration="normal" x="363.62044724875" y="1426.289427828" text-anchor="start" dominant-baseline="alphabetic" xml:space="preserve">: The state of an instance (e.g. running or not)</text><text fill="black" stroke="none" font-family="sans-serif" font-size="11pt" font-style="normal" font-weight="normal" text-decoration="normal" x="246.34182176046875" y="1441.368077028" text-anchor="start" dominant-baseline="alphabetic" xml:space="preserve">  /clusters/&lt;id&gt;/instances/&lt;id&gt;/&lt;clusterType&gt;</text></g><g><g/><path fill="none" stroke="black" paint-order="fill stroke markers" d=" M 42.68247274240234 963.3748973880002 L 441.4349870199414 963.3748973880002 L 441.4349870199414 1118.6849841480002 L 42.68247274240234 1118.6849841480002 L 42.68247274240234 963.3748973880002 Z" stroke-miterlimit="10" stroke-width="2.154092742857143" stroke-dasharray=""/><path fill="white" stroke="black" paint-order="fill stroke markers" d=" M 42.68247274240234 963.3748973880002 L 42.68247274240234 981.4692764280003 L 97.57045351544922 981.4692764280003 L 106.61764303544922 972.4220869080002 L 106.61764303544922 963.3748973880002 L 42.68247274240234 963.3748973880002" stroke-miterlimit="10" stroke-width="2.154092742857143" stroke-dasharray=""/><text fill="black" stroke="none" font-family="sans-serif" font-size="8.8pt" font-style="normal" font-weight="bold" text-decoration="normal" x="57.76112194240234" y="975.4378167480003" text-anchor="start" dominant-baseline="alphabetic" xml:space="preserve">loop</text><text fill="black" stroke="none" font-family="sans-serif" font-size="8.8pt" font-style="normal" font-weight="bold" text-decoration="normal" x="121.69629223544922" y="975.4378167480003" text-anchor="start" dominant-baseline="alphabetic" xml:space="preserve">[until instance data verified gone]</text></g></g><g/><g/><g/><g/></g></svg>