<svg version="1.1" xmlns="http://www.w3.org/2000/svg" xmlns:xlink="http://www.w3.org/1999/xlink" width="1065" height="1614"><defs/><g><g/><g/><g/><g/><g/><g/><g/><g/><g/><g/><g/><g/><g/><g/><g/><g/><g/><g/><g/><g/><g/><g/><g/><g/><g/><g/><g/><g/><g/><g/><g/><g/><g/><g/><g/><g/><g/><g/><g/><g/><g/><g/><g/><g/><g/><g/><g/><g/><g/><g/><g/><g/><g/><g/><g/><g/><g/><g/><g/><g/><g/><g/><g/><g/><g/><g/><g/><g/><g/><g/><g/><g/><g/><g/><g/><g/><g/><g/><g/><g><rect fill="white" stroke="none" x="0" y="0" width="1065" height="1614"/></g><g><text fill="black" stroke="none" font-family="sans-serif" font-size="16.5pt" font-style="normal" font-weight="normal" text-decoration="normal" x="409.97753670767577" y="22.6179738" text-anchor="start" dominant-baseline="alphabetic" xml:space="preserve">Plan execution sequence</text></g><g/><g><path fill="none" stroke="black" paint-order="fill stroke markers" d=" M 105.43381423234375 118.97054218800001 L 105.43381423234375 1614.7725428279998" stroke-miterlimit="10" stroke-width="1.2565541" stroke-dasharray="11.598960923076923,5.0262164"/><path fill="none" stroke="black" paint-order="fill stroke markers" d=" M 445.22668470041015 118.97054218800001 L 445.22668470041015 1614.7725428279998" stroke-miterlimit="10" stroke-width="1.2565541" stroke-dasharray="11.598960923076923,5.0262164"/><path fill="none" stroke="black" paint-order="fill stroke markers" d=" M 633.0474110326368 118.97054218800001 L 633.0474110326368 1614.7725428279998" stroke-miterlimit="10" stroke-width="1.2565541" stroke-dasharray="11.598960923076923,5.0262164"/><path fill="none" stroke="black" paint-order="fill stroke markers" d=" M 965.3009569007031 118.97054218800001 L 965.3009569007031 1614.7725428279998" stroke-miterlimit="10" stroke-width="1.2565541" stroke-dasharray="11.598960923076923,5.0262164"/></g><g><g><path fill="white" stroke="black" paint-order="fill stroke markers" d=" M 114.02864427634375 55.18785607200001 A 8.594830044 8.594830044 0 1 1 114.02863997892908 55.179261243388474 M 105.43381423234375 63.78268611600001 L 105.43381423234375 82.17863814 M 94.57718680834375 70.41729176400001 L 116.29044165634375 70.41729176400001 M 105.43381423234375 82.17863814 L 94.57718680834375 99.36829822800001 M 105.43381423234375 82.17863814 L 116.29044165634375 99.36829822800001" stroke-miterlimit="10" stroke-width="2.5633703640000003" stroke-dasharray=""/></g><g><g/><text fill="black" stroke="none" font-family="sans-serif" font-size="11pt" font-style="normal" font-weight="normal" text-decoration="normal" x="89.96173781632812" y="114.44694742800002" text-anchor="start" dominant-baseline="alphabetic" xml:space="preserve">User</text></g><path fill="none" stroke="none"/><g><path fill="white" stroke="black" paint-order="fill stroke markers" d=" M 361.6644383921406 78.258189348 L 528.7889310086797 78.258189348 L 528.7889310086797 118.970542188 L 361.6644383921406 118.970542188 L 361.6644383921406 78.258189348 Z" stroke-miterlimit="10" stroke-width="2.4125838720000004" stroke-dasharray=""/></g><g><g/><text fill="black" stroke="none" font-family="sans-serif" font-size="11pt" font-style="normal" font-weight="normal" text-decoration="normal" x="378.0247727741406" y="103.89189298800001" text-anchor="start" dominant-baseline="alphabetic" xml:space="preserve">Admin/User Console</text></g><g><path fill="white" stroke="black" paint-order="fill stroke markers" d=" M 611.0325832006367 89.41638975600002 L 611.0325832006367 57.75122643600001 L 655.0622388646368 57.75122643600001 L 655.0622388646368 89.41638975600002" stroke-miterlimit="10" stroke-width="2.5633703640000003" stroke-dasharray=""/><path fill="white" stroke="black" paint-order="fill stroke markers" d=" M 655.0622388646368 56.65048504440001 L 655.061138132418 56.750002470476886 L 655.0578360458339 56.849509944894095 L 655.0523329350905 56.9489975169871 L 655.0446293504942 57.04845523808161 L 655.0347260623971 57.147873162488395 L 655.0226240611197 57.24724134849785 L 655.0083245568521 57.3465498593742 L 654.9918289795328 57.4457887643491 L 654.9731389787057 57.54494813961476 L 654.9522564233554 57.64401806931628 L 654.92918340172 57.74298864654325 L 654.9039222210824 57.841849974320425 L 654.8764754075397 57.940592166597405 L 654.8468457057503 58.03920534923725 L 654.8150360786598 58.13767966100388 L 654.7810497072043 58.23600525454817 L 654.7448899899927 58.334172297392705 L 654.7065605429664 58.43217097291501 L 654.6660651990384 58.529991481329205 L 654.6234080077091 58.62762404066595 L 654.5785932346623 58.72505888775068 L 654.531625361338 58.82228627917988 L 654.4825090844843 58.91929649229543 L 654.4312493156878 59.01607982615686 L 654.3778511808828 59.11262660251144 L 654.3223200198383 59.20892716676198 L 654.2646613856242 59.304971888932315 L 654.2048810440557 59.400751164630265 L 654.1429849731172 59.49625541600807 L 654.0789793623643 59.59147509272019 L 654.0128706123047 59.68640067287828 L 653.9446653337583 59.78102266400345 L 653.874370347196 59.87533160397543 L 653.8019926820581 59.969318061978825 L 653.7275395760506 60.06297263944614 L 653.6510184744221 60.15628597099768 L 653.5724370292191 60.24924872537805 L 653.4918030985207 60.34185160638929 L 653.4091247456525 60.43408535382045 L 653.3244102383811 60.52594074437366 L 653.2376680480866 60.617408592586415 L 653.1489068489155 60.708479751750104 L 653.0581355169141 60.79914511482471 L 652.9653631291399 60.88939561534948 L 652.8705989627542 60.97922222834956 L 652.7738524940949 61.06861597123853 L 652.6751333977279 61.15756790471657 L 652.5744515454809 61.24606913366447 L 652.471817005455 61.33411080803308 L 652.3672400410188 61.42168412372834 L 652.2607311097815 61.50878032349165 L 652.1523008625477 61.59539069777562 L 652.0419601422515 61.68150658561499 L 651.929719982873 61.76711937549275 L 651.8155916083349 61.85222050620124 L 651.6995864313792 61.93680146769832 L 651.581716052427 62.02085380195832 L 651.4619922584181 62.104369103817845 L 651.3404270216321 62.18733902181633 L 651.2170324984912 62.2697552590311 L 651.0918210283451 62.35160957390711 L 650.9648051322363 62.4328937810811 L 650.8359975116488 62.51359975220007 L 650.705411047237 62.59371941673418 L 650.5730587975388 62.67324476278373 L 650.4389539976687 62.75216783788039 L 650.3031100579951 62.83048074978243 L 650.1655405627986 62.908175667263905 L 650.0262592689141 62.98524482089782 L 649.885280104355 63.06168050383303 L 649.7426171669204 63.13747507256495 L 649.5982847227848 63.212620947699854 L 649.4522972050726 63.28711061471286 L 649.3046692124138 63.360936624699335 L 649.1554155074848 63.4340915951198 L 649.0045510155315 63.50656821053819 L 648.8520908228775 63.578359223353345 L 648.698050175415 63.64945745452381 L 648.5424444770805 63.71985579428573 L 648.3852892883139 63.78954720286377 L 648.2266003245032 63.85852471117517 L 648.0663934544127 63.92678142152658 L 647.9046846985958 63.994310508303826 L 647.7414902277934 64.06110521865452 L 647.5768263613164 64.12715887316328 L 647.4107095654143 64.19246486651971 L 647.2431564516284 64.25701666817889 L 647.0741837751303 64.32080782301445 L 646.903808433047 64.38383195196405 L 646.7320474627704 64.44608275266734 L 646.5589180402548 64.5075540000961 L 646.3844374782979 64.56823954717684 L 646.2086232248106 64.62813332540541 L 646.0314928610717 64.6872293454539 L 645.85306409997 64.74552169776953 L 645.673354784233 64.80300455316568 L 645.4923828846423 64.8596721634047 L 645.3101664982372 64.91551886177277 L 645.1267238465045 64.97053906364663 L 644.9420732735565 65.0247272670519 L 644.7562332442965 65.07807805321343 L 644.5692223425727 65.13058608709704 L 644.3810592693194 65.18224611794311 L 644.1917628406871 65.23305297979161 L 644.001351986161 65.28300159199867 L 643.8098457466676 65.33208695974473 L 643.6172632726717 65.38030417453389 L 643.4236238222599 65.42764841468485 L 643.2289467592159 65.47411494581308 L 643.0332515510838 65.51969912130417 L 642.8365577672214 65.56439638277854 L 642.6388850768432 65.60820226054732 L 642.4402532470533 65.65111237405922 L 642.2406821408695 65.69312243233865 L 642.0401917152358 65.73422823441479 L 641.8388020190278 65.7744256697417 L 641.6365331910473 65.81371071860933 L 641.4334054580085 65.85207945254552 L 641.2294391325155 65.88952803470889 L 641.0246546110309 65.9260527202724 L 640.819072371836 65.96164985679792 L 640.6127129729837 65.99631588460149 L 640.4055970502417 66.03004733710921 L 640.1977453150297 66.06284084120392 L 639.9891785523481 66.09469311756257 L 639.7799176186993 66.12560098098405 L 639.5699834400023 66.15556134070776 L 639.3593970095001 66.18457120072271 L 639.14817938566 66.21262766006708 L 638.9363516900687 66.23972791311832 L 638.7239351053191 66.26586924987369 L 638.5109508728926 66.2910490562213 L 638.297420291035 66.31526481420151 L 638.0833647126266 66.3385141022587 L 637.8688055430467 66.36079459548343 L 637.6537642380338 66.38210406584494 L 637.4382623015388 66.40244038241397 L 637.222321283576 66.42180151157581 L 637.0059627780671 66.44018551723366 L 636.7892084206825 66.45759056100228 L 636.5720798866772 66.4740149023918 L 636.3545988887238 66.48945689898177 L 636.1367871747408 66.5039150065854 L 635.918666525718 66.51738777940398 L 635.7002587535385 66.52987387017144 L 635.4815856987977 66.54137203028912 L 635.2626692286187 66.55188110995061 L 635.0435312344663 66.56140005825667 L 634.824193629957 66.5699279233204 L 634.6046783486687 66.57746385236243 L 634.3850073419464 66.58400709179611 L 634.165202576708 66.58955698730296 L 633.9452860332466 66.59411298389804 L 633.7252797030333 66.59767462598552 L 633.505205586518 66.60024155740412 L 633.2850856909287 66.60181352146286 L 633.0649420280715 66.60239036096665 L 632.8447966121296 66.601972018232 L 632.6246714574607 66.60055853509284 L 632.4045885763973 66.59815005289633 L 632.1845699770436 66.59474681248865 L 631.9646376610765 66.59034915419102 L 631.7448136215443 66.5849575177656 L 631.5251198406677 66.57857244237155 L 631.3055782876417 66.57119456651108 L 631.0862109164386 66.56282462796563 L 630.8670396636129 66.55346346372208 L 630.6480864461072 66.54311200988904 L 630.4293731590606 66.5317713016033 L 630.2109216736196 66.5194424729262 L 629.9927538347509 66.50612675673037 L 629.7748914590564 66.4918254845763 L 629.5573563325922 66.47654008657929 L 629.3401702086896 66.46027209126643 L 629.1233548057801 66.44302312542368 L 628.9069318052232 66.42479491393324 L 628.6909228491386 66.40558927960109 L 628.4753495382421 66.38540814297464 L 628.2602334296848 66.36425352215073 L 628.0455960348987 66.34212753257384 L 627.8314588174441 66.31903238682447 L 627.6178431908644 66.29497039439796 L 627.4047705165443 66.26994396147349 L 627.1922621015735 66.2439555906735 L 626.9803391966167 66.21700788081341 L 626.7690229937875 66.18910352664176 L 626.5583346245303 66.1602453185707 L 626.3482951575064 66.13043614239702 L 626.1389255964873 66.09967897901345 L 625.9302468782548 66.06797690411072 L 625.7222798705069 66.03533308786992 L 625.5150453697709 66.00175079464545 L 625.3085640993241 65.96723338263864 L 625.1028567071218 65.93178430356194 L 624.8979437637315 65.89540710229372 L 624.693845760277 65.85810541652378 L 624.4905831063884 65.81988297638962 L 624.2881761281617 65.7807436041034 L 624.0866450661262 65.74069121356973 L 623.88601007322 65.69972980999431 L 623.6862912127752 65.65786348948332 L 623.4875084565116 65.61509643863396 L 623.289681682539 65.57143293411565 L 623.09283067337 65.52687734224247 L 622.8969751139416 65.48143411853648 L 622.7021345896462 65.43510780728218 L 622.5083285843742 65.38790304107208 L 622.3155764785645 65.33982454034347 L 622.1238975472669 65.29087711290636 L 621.9333109582151 65.2410656534627 L 621.7438357699089 65.19039514311692 L 621.5554909297094 65.13887064887784 L 621.3682952719437 65.08649732315195 L 621.1822675160214 65.03328040322816 L 620.9974262645632 64.97922521075414 L 620.8137900015402 64.92433715120407 L 620.6313770904256 64.86862171333819 L 620.4502057723587 64.81208446865382 L 620.27029416432 64.75473107082834 L 620.0916602573208 64.69656725515374 L 619.9143219146025 64.63759883796311 L 619.7382968698519 64.57783171604902 L 619.5636027254267 64.51727186607387 L 619.3902569505957 64.45592534397218 L 619.218276879792 64.39379828434507 L 619.0476797108794 64.33089689984668 L 618.8784825034325 64.26722748056307 L 618.7107021770312 64.20279639338311 L 618.5443555095682 64.13761008136183 L 618.3794591355716 64.0716750630761 L 618.2160295445415 64.00499793197281 L 618.0540830793008 63.9375853557095 L 617.893635934361 63.86944407548762 L 617.7347041543029 63.80058090537841 L 617.5773036321721 63.7310027316415 L 617.4214501078897 63.660716512036274 L 617.2671591666781 63.58972927512613 L 617.1144462375029 63.518048119575596 L 616.9633265915298 63.44568021344049 L 616.8138153405976 63.372632793451125 L 616.6659274357065 63.29891316428863 L 616.519677665524 63.22452869785448 L 616.3750806549051 63.149486832533334 L 616.2321508634304 63.0737950724492 L 616.09090258396 62.997460986715 L 615.9513499412041 62.92049220867569 L 615.8135068903106 62.842896435144944 L 615.6773872154697 62.76468142563545 L 615.5430045285357 62.68585500158298 L 615.4103722676651 62.60642504556425 L 615.2795036959736 62.526399500508674 L 615.1504119002092 62.44578636890406 L 615.0231097894439 62.3645937119964 L 614.8976100937826 62.28282964898372 L 614.7739253630905 62.20050235620419 L 614.6520679657375 62.11762006631847 L 614.5320500873619 62.0341910674865 L 614.4138837296513 61.95022370253862 L 614.2975807091431 61.86572636814137 L 614.1831526560425 61.78070751395776 L 614.0706110130593 61.695175641802365 L 613.9599670342641 61.60913930479112 L 613.8512317839627 61.52260710648604 L 613.7444161355894 61.43558770003484 L 613.6395307706199 61.348089787305646 L 613.5365861775035 61.26012211801682 L 613.4355926506137 61.17169348886198 L 613.3365602892189 61.08281274263036 L 613.2394989964729 60.99348876732251 L 613.1444184784239 60.90373049526153 L 613.0513282430445 60.81354690219982 L 612.9602375992807 60.722947006421535 L 612.8711556561211 60.63193986784075 L 612.7840913216855 60.54053458709549 L 612.6990533023352 60.44874030463767 L 612.6160501018009 60.356566199819014 L 612.5350900203334 60.26402148997322 L 612.4561811538739 60.17111542949413 L 612.3793313932428 60.07785730891038 L 612.3045484233523 59.98425645395631 L 612.2318397224371 59.89032222463943 L 612.1612125613067 59.79606401430437 L 612.0926740026183 59.70149124869363 L 612.0262309001707 59.606613385004955 L 611.9618898982187 59.511439910945654 L 611.8996574308089 59.41598034378382 L 611.8395397211364 59.32024422939662 L 611.7815427809217 59.224241141315716 L 611.7256724098107 59.127980679769905 L 611.6719341947941 59.03147247072513 L 611.6203335096482 58.93472616492187 L 611.5708755143988 58.83775143691009 L 611.5235651548044 58.74055798408177 L 611.478407161861 58.64315552570121 L 611.4354060513308 58.54555380193307 L 611.3945661232887 58.44776257286839 L 611.3558914616935 58.3497916175486 L 611.3193859339792 58.25165073298757 L 611.2850531906682 58.15334973319199 L 611.2528966650062 58.054898448179905 L 611.2229195726188 57.95630672299779 L 611.1951249111905 57.85758441673599 L 611.1695154601641 57.75874140154287 L 611.1460937804635 57.659787561637586 L 611.124862214237 57.56073279232165 L 611.1058228846236 57.46158699898947 L 611.0889776955405 57.36236009613774 L 611.0743283314924 57.26306200637407 L 611.0618762574036 57.16370265942468 L 611.0516227184711 57.06429199114147 L 611.0435687400402 56.96483994250841 L 611.0377151275022 56.86535645864751 L 611.0340624662133 56.76585148782425 L 611.0326111214366 56.666334980452774 L 611.0333612383055 56.56681688810091 L 611.0363127418088 56.46730716249495 L 611.0414653367986 56.367815754524536 L 611.04881850802 56.268352613247544 L 611.0583715201615 56.16892768489523 L 611.0701234179302 56.06955091187757 L 611.084073026146 55.970232231789055 L 611.1002189498598 55.87098157641492 L 611.1185595744926 55.771808870738006 L 611.1390930659971 55.672724031946224 L 611.1618173710416 55.57373696844089 L 611.1867302172142 55.47485757884587 L 611.2138291132512 55.376095751017715 L 611.2431113492855 55.27746136105691 L 611.274573997118 55.17896427232026 L 611.3082139105101 55.08061433443455 L 611.3440277254983 54.98242138231162 L 611.3820118607314 54.884395235164845 L 611.422162517827 54.786545695527266 L 611.4644756817532 54.68888254827129 L 611.5089471212289 54.59141555963026 L 611.555572389147 54.49415447622183 L 611.6043468230196 54.39710902407328 L 611.655265545444 54.30028890764895 L 611.7083234645903 54.20370380887981 L 611.763515274711 54.10736338619524 L 611.8208354566709 54.01127727355723 L 611.8802782784998 53.91545507949698 L 611.9418377959647 53.81990638615403 L 612.0055078531655 53.724640748318095 L 612.0712820831493 53.629667692473575 L 612.1391539085481 53.53499671584691 L 612.2091165422357 53.440637285456866 L 612.2811629880072 53.34659883716785 L 612.3552860412781 53.252890774746334 L 612.4314782898045 53.15952246892046 L 612.5097321144256 53.066503256443006 L 612.5900396898237 52.973842439157714 L 612.6723929853083 52.88154928306908 L 612.7567837656186 52.78963301741582 L 612.8432035917467 52.69810283374788 L 612.9316438217821 52.606967885007364 L 613.0220956117756 52.51623728461321 L 613.1145499166234 52.425920105549835 L 613.2089974909723 52.33602537945989 L 613.3054288901433 52.24656209574106 L 613.4038344710768 52.15753920064718 L 613.5042043932971 52.06896559639356 L 613.6065286198952 51.980850140266824 L 613.710796918534 51.893201643739154 L 613.8169988624704 51.80602887158716 L 613.9251238315985 51.71934054101541 L 614.0351610135116 51.63314532078473 L 614.1470994045831 51.5474518303453 L 614.2609278110672 51.46226863897477 L 614.376634850218 51.37760426492128 L 614.4942089514282 51.29346717455169 L 614.6136383573855 51.20986578150492 L 614.734911125249 51.12680844585059 L 614.8580151278428 51.04430347325308 L 614.9829380548694 50.962359114140874 L 615.10966741414 50.88098356288161 L 615.2381905328243 50.800184956962596 L 615.3684945587178 50.71997137617709 L 615.5005664615262 50.64035084181633 L 615.6343930341694 50.5613313158674 L 615.7699608941017 50.48292070021704 L 615.90725648465 50.40512683586149 L 616.0462660763696 50.32795750212234 L 616.1869757684174 50.25142041586866 L 616.3293714899412 50.17552323074529 L 616.4734390014877 50.100273536407514 L 616.6191638964256 50.025678857762045 L 616.7665316023871 49.95174665421458 L 616.9155273827241 49.878484318923874 L 617.066136337983 49.8058991780624 L 617.2183434073937 49.733998490083756 L 617.3721333703761 49.662789444996825 L 617.527490848062 49.59227916364677 L 617.6844003048332 49.52247469700298 L 617.8428460498745 49.45338302545394 L 618.0028122387438 49.38501105810922 L 618.1642828749553 49.3173656321086 L 618.3272418115802 49.25045351193829 L 618.4916727528603 49.18428138875455 L 618.6575592558386 49.118855879714566 L 618.824884732003 49.054183527314706 L 618.9936324489456 48.990270798736326 L 619.163785532035 48.927124085199026 L 619.3353269661048 48.864749701321536 L 619.5082395971547 48.80315388449026 L 619.6825061340654 48.74234279423555 L 619.8581091503287 48.68232251161576 L 620.035031085789 48.62309903860914 L 620.2132542484005 48.56467829751363 L 620.3927608159953 48.50706613035466 L 620.5735328380663 48.450268298300934 L 620.7555522375618 48.394290481088326 L 620.9388008126937 48.33913827645191 L 621.1232602387571 48.28481719956619 L 621.3089120699631 48.23133268249359 L 621.4957377412834 48.17869007364124 L 621.6837185703064 48.12689463722616 L 621.8728357591059 48.07595155274883 L 622.0630703961207 48.02586591447525 L 622.2544034580455 47.976642730927495 L 622.4468158117337 47.92828692438291 L 622.6402882161101 47.88080333038186 L 622.8348013240956 47.83419669724416 L 623.0303356845415 47.788471685594295 L 623.2268717441747 47.74363286789533 L 623.424389849553 47.69968472799165 L 623.6228702490304 47.65663166066065 L 623.8222930947323 47.614477971173166 L 624.0226384445406 47.57322787486302 L 624.223886264087 47.532885496705475 L 624.4260164287574 47.49345487090473 L 624.6290087257037 47.45493994049049 L 624.8328428558654 47.41734455692372 L 625.0374984359992 47.38067247971144 L 625.2429550007179 47.34492737603081 L 625.449192004536 47.310112820362406 L 625.6561888239252 47.2762322941328 L 625.8639247593758 47.24328918536636 L 626.0723790374676 47.21128678834652 L 626.2815308129464 47.18022830328631 L 626.4913591708089 47.150116836008365 L 626.7018431283943 47.120955397634305 L 626.9129616374821 47.09274690428368 L 627.1246935863975 47.06549417678231 L 627.3370178021219 47.03919994038023 L 627.5499130524106 47.01386682447918 L 627.7633580479162 46.98949736236963 L 627.9773314443169 46.96609399097749 L 628.1918118444513 46.94365905062039 L 628.4067778004583 46.92219478477368 L 628.6222078159212 46.901703339846044 L 628.8380803480183 46.882186764964906 L 629.0543738096759 46.86364701177149 L 629.2710665717284 46.84608593422567 L 629.48813696508 46.82950528842056 L 629.7055632828724 46.81390673240693 L 629.9233237826548 46.79929182602737 L 630.1413966885589 46.78566203076035 L 630.3597601934756 46.77301870957403 L 630.5783924612366 46.76136312679001 L 630.7972716287973 46.750696447956834 L 631.0163758084232 46.74101973973351 L 631.235683089879 46.732333969782786 L 631.4551715426193 46.724640006674434 L 631.6748192179817 46.717938619798346 L 631.8946041513818 46.71223047928761 L 632.1145043645093 46.70751615595155 L 632.3344978675262 46.703796121218545 L 632.5545626612657 46.701070747088984 L 632.7746767394315 46.699340306098 L 632.9948180907993 46.698604971288255 L 633.2149647014174 46.69886481619261 L 633.4350945568084 46.700119814826806 L 633.6551856441699 46.702369841692004 L 633.8752159545769 46.705614671787416 L 634.0951634851814 46.709853980632715 L 634.3150062414138 46.715087344300564 L 634.5347222391817 46.72131423945895 L 634.7542895070684 46.72853404342355 L 634.9736860885299 46.73674603421998 L 635.1928900440912 46.745949390656016 L 635.4118794535391 46.75614319240367 L 635.6306324181154 46.767326420091266 L 635.8491270627057 46.77949795540535 L 636.0673415380279 46.792656581202536 L 636.2852540228162 46.80680098163122 L 636.5028427260036 46.82192974226314 L 636.720085888901 46.83804135023483 L 636.9369617873735 46.85513419439893 L 637.1534487340118 46.87320656548526 L 637.3695250803017 46.89225665627179 L 637.5851692187886 46.912282561765295 L 637.8003595852382 46.93328227939192 L 638.0150746607934 46.95525370919741 L 638.2292929741254 46.97819465405708 L 638.4429931035816 47.00210281989557 L 638.656153679327 47.026975815916224 L 638.8687533854816 47.05281115484016 L 639.080770962252 47.07960625315501 L 639.2921852080573 47.107358431373285 L 639.5029749816489 47.136064914300285 L 639.7131192042253 47.16572283131164 L 639.9225968615393 47.19632921664036 L 640.1313870059997 47.22788100967341 L 640.339468758766 47.260375055257796 L 640.5468213118364 47.29380810401604 L 640.7534239301284 47.3281768126711 L 640.9592559535523 47.36347774438077 L 641.1642967990773 47.39970736908131 L 641.3685259627897 47.436862063840415 L 641.5719230219433 47.47493811321959 L 641.7744676370017 47.51393170964561 L 641.9761395536723 47.55383895379134 L 642.1769186049313 47.59465585496562 L 642.3767847130409 47.63637833151234 L 642.575717891557 47.679002211218624 L 642.7736982473274 47.72252323173201 L 642.9707059824816 47.76693704098672 L 643.1667213964101 47.812239197638846 L 643.361724887735 47.85842517151046 L 643.5556969562697 47.905490344042676 L 643.7486182049688 47.95343000875745 L 643.9404693418684 48.00223937172827 L 644.1312311820145 48.05191355205951 L 644.3208846493822 48.10244758237453 L 644.5094107787827 48.15383640931242 L 644.6967907177603 48.20607489403329 L 644.8830057284771 48.25915781273222 L 645.0680371895874 48.31307985716156 L 645.251866598099 48.36783563516181 L 645.4344755712245 48.423419671200804 L 645.6158458482187 48.479826406921255 L 645.7959592922049 48.53705020169659 L 645.9747978919889 48.59508533319502 L 646.1523437638598 48.65392599795177 L 646.3285791533783 48.71356631194938 L 646.5034864371523 48.77400031120615 L 646.6770481245993 48.835221952372535 L 646.8492468596951 48.89722511333542 L 647.0200654227096 48.96000359383039 L 647.1894867319289 49.0235511160617 L 647.3574938453635 49.08786132533009 L 647.5240699624417 49.152927790668215 L 647.6891984256907 49.21874400548377 L 647.8528627224019 49.285303388210124 L 648.015046486282 49.35259928296446 L 648.1757334990897 49.420624960213395 L 648.3349076922576 49.489373617445885 L 648.4925531484992 49.55883837985349 L 648.6486541034001 49.62901230101787 L 648.8031949469948 49.69988836360538 L 648.956160225328 49.77145948006883 L 649.107534641999 49.8437184933562 L 649.2573030596925 49.916658177626395 L 649.4054505016916 49.99027123897176 L 649.5519621533754 50.0645503161475 L 649.6968233637008 50.13948798130782 L 649.8400196466675 50.21507674074863 L 649.9815366827668 50.29130903565699 L 650.1213603204127 50.36817724286692 L 650.2594765773581 50.44567367562176 L 650.3958716420923 50.52379058434283 L 650.5305318752227 50.602520157404335 L 650.6634438108379 50.68185452191459 L 650.7945941578553 50.76178574450325 L 650.9239698013495 50.84230583211467 L 651.0515578038638 50.92340673280718 L 651.1773454067045 51.00508033655831 L 651.301320031216 51.08731847607572 L 651.4234692800392 51.17011292761402 L 651.543780938351 51.25345541179703 L 651.6622429750857 51.33733759444579 L 651.7788435441386 51.42175108741194 L 651.8935709855498 51.506687449416525 L 652.0064138266707 51.592138186894125 L 652.1173607833114 51.6780947548422 L 652.2264007608685 51.76454855767558 L 652.3335228554354 51.85149095008604 L 652.4387163548915 51.93891323790678 L 652.5419707399749 52.02680667898187 L 652.6432756853329 52.115162484040454 L 652.7426210605555 52.20397181757565 L 652.839996931188 52.293225798728116 L 652.9353935597243 52.38291550217411 L 653.0288014065812 52.47303195901802 L 653.1202111310519 52.56356615768928 L 653.2096135922399 52.65450904484346 L 653.2969998499738 52.74585152626762 L 653.3823611657004 52.837584467789746 L 653.4656890033596 52.92969869619212 L 653.5469750302368 53.02218500012867 L 653.6262111177973 53.11503413104609 L 653.7033893424981 53.20823680410863 L 653.7785019865812 53.30178369912667 L 653.8515415388448 53.39566546148867 L 653.9225006953944 53.48987270309661 L 653.9913723603737 53.58439600330485 L 654.0581496466734 53.67922590986214 L 654.1228258766206 53.77435293985683 L 654.1853945826462 53.86976758066522 L 654.2458495079317 53.96546029090272 L 654.3041846070349 54.06142150137806 L 654.3603940464948 54.15764161605015 L 654.4144722054139 54.254111012987714 L 654.4664136760216 54.350820045331446 L 654.516213264214 54.4477590422587 L 654.563865990074 54.54491830995058 L 654.6093670883685 54.64228813256127 L 654.6527120090255 54.739858773189646 L 654.6938964175894 54.83762047485297 L 654.7329161956535 54.93556346146252 L 654.7697674412724 55.033677938801276 L 654.8044464693523 55.131954095503254 L 654.8369498120195 55.23038210403468 L 654.8672742189666 55.328952121676735 L 654.8954166577781 55.42765429150978 L 654.9213743142338 55.5264787433991 L 654.9451445925896 55.62541559498185 L 654.9667251158374 55.72445495265532 L 654.986113725943 55.82358691256627 L 655.0033084840613 55.92280156160133 L 655.0183076707311 56.022088978378264 L 655.0311097860462 56.121439234238146 L 655.0417135498055 56.22084239423817 L 655.0501179016417 56.32028851814517 L 655.0563220011264 56.41976766142964 L 655.0603252278551 56.51926987626014 L 655.0621271815081 56.61878521249811 M 655.0622388646368 88.31564836440002 L 655.061138132418 88.4151657904769 L 655.0578360458339 88.5146732648941 L 655.0523329350905 88.61416083698711 L 655.0446293504942 88.71361855808162 L 655.0347260623971 88.8130364824884 L 655.0226240611197 88.91240466849787 L 655.0083245568521 89.01171317937421 L 654.9918289795328 89.11095208434912 L 654.9731389787057 89.21011145961478 L 654.9522564233554 89.3091813893163 L 654.92918340172 89.40815196654326 L 654.9039222210824 89.50701329432043 L 654.8764754075397 89.60575548659742 L 654.8468457057503 89.70436866923727 L 654.8150360786598 89.80284298100389 L 654.7810497072043 89.90116857454818 L 654.7448899899927 89.99933561739272 L 654.7065605429664 90.09733429291502 L 654.6660651990384 90.19515480132921 L 654.6234080077091 90.29278736066595 L 654.5785932346623 90.3902222077507 L 654.531625361338 90.4874495991799 L 654.4825090844843 90.58445981229544 L 654.4312493156878 90.68124314615687 L 654.3778511808828 90.77778992251145 L 654.3223200198383 90.874090486762 L 654.2646613856242 90.97013520893233 L 654.2048810440557 91.06591448463028 L 654.1429849731172 91.16141873600809 L 654.0789793623643 91.25663841272019 L 654.0128706123047 91.3515639928783 L 653.9446653337583 91.44618598400346 L 653.874370347196 91.54049492397544 L 653.8019926820581 91.63448138197883 L 653.7275395760506 91.72813595944615 L 653.6510184744221 91.82144929099769 L 653.5724370292191 91.91441204537807 L 653.4918030985207 92.0070149263893 L 653.4091247456525 92.09924867382047 L 653.3244102383811 92.19110406437368 L 653.2376680480866 92.28257191258642 L 653.1489068489155 92.37364307175011 L 653.0581355169141 92.46430843482472 L 652.9653631291399 92.55455893534949 L 652.8705989627542 92.64438554834958 L 652.7738524940949 92.73377929123853 L 652.6751333977279 92.82273122471658 L 652.5744515454809 92.91123245366448 L 652.471817005455 92.9992741280331 L 652.3672400410188 93.08684744372835 L 652.2607311097815 93.17394364349167 L 652.1523008625477 93.26055401777563 L 652.0419601422515 93.346669905615 L 651.929719982873 93.43228269549276 L 651.8155916083349 93.51738382620125 L 651.6995864313792 93.60196478769834 L 651.581716052427 93.68601712195833 L 651.4619922584181 93.76953242381786 L 651.3404270216321 93.85250234181635 L 651.2170324984912 93.9349185790311 L 651.0918210283451 94.01677289390713 L 650.9648051322363 94.09805710108111 L 650.8359975116488 94.17876307220008 L 650.705411047237 94.2588827367342 L 650.5730587975388 94.33840808278374 L 650.4389539976687 94.41733115788041 L 650.3031100579951 94.49564406978244 L 650.1655405627986 94.57333898726392 L 650.0262592689141 94.65040814089784 L 649.885280104355 94.72684382383305 L 649.7426171669204 94.80263839256496 L 649.5982847227848 94.87778426769987 L 649.4522972050726 94.95227393471288 L 649.3046692124138 95.02609994469935 L 649.1554155074848 95.09925491511981 L 649.0045510155315 95.1717315305382 L 648.8520908228775 95.24352254335335 L 648.698050175415 95.31462077452383 L 648.5424444770805 95.38501911428574 L 648.3852892883139 95.45471052286379 L 648.2266003245032 95.52368803117518 L 648.0663934544127 95.59194474152659 L 647.9046846985958 95.65947382830383 L 647.7414902277934 95.72626853865452 L 647.5768263613164 95.7923221931633 L 647.4107095654143 95.85762818651972 L 647.2431564516284 95.9221799881789 L 647.0741837751303 95.98597114301445 L 646.903808433047 96.04899527196406 L 646.7320474627704 96.11124607266736 L 646.5589180402548 96.17271732009613 L 646.3844374782979 96.23340286717686 L 646.2086232248106 96.29329664540542 L 646.0314928610717 96.3523926654539 L 645.85306409997 96.41068501776955 L 645.673354784233 96.4681678731657 L 645.4923828846423 96.5248354834047 L 645.3101664982372 96.58068218177279 L 645.1267238465045 96.63570238364663 L 644.9420732735565 96.6898905870519 L 644.7562332442965 96.74324137321344 L 644.5692223425727 96.79574940709705 L 644.3810592693194 96.84740943794313 L 644.1917628406871 96.89821629979161 L 644.001351986161 96.94816491199869 L 643.8098457466676 96.99725027974473 L 643.6172632726717 97.0454674945339 L 643.4236238222599 97.09281173468487 L 643.2289467592159 97.13927826581309 L 643.0332515510838 97.18486244130418 L 642.8365577672214 97.22955970277856 L 642.6388850768432 97.27336558054733 L 642.4402532470533 97.31627569405923 L 642.2406821408695 97.35828575233866 L 642.0401917152358 97.3993915544148 L 641.8388020190278 97.43958898974171 L 641.6365331910473 97.47887403860933 L 641.4334054580085 97.51724277254554 L 641.2294391325155 97.5546913547089 L 641.0246546110309 97.5912160402724 L 640.819072371836 97.62681317679792 L 640.6127129729837 97.6614792046015 L 640.4055970502417 97.69521065710921 L 640.1977453150297 97.72800416120393 L 639.9891785523481 97.75985643756258 L 639.7799176186993 97.79076430098405 L 639.5699834400023 97.82072466070777 L 639.3593970095001 97.84973452072273 L 639.14817938566 97.8777909800671 L 638.9363516900687 97.90489123311833 L 638.7239351053191 97.93103256987371 L 638.5109508728926 97.95621237622132 L 638.297420291035 97.98042813420153 L 638.0833647126266 98.0036774222587 L 637.8688055430467 98.02595791548345 L 637.6537642380338 98.04726738584496 L 637.4382623015388 98.06760370241399 L 637.222321283576 98.08696483157581 L 637.0059627780671 98.10534883723366 L 636.7892084206825 98.1227538810023 L 636.5720798866772 98.13917822239182 L 636.3545988887238 98.15462021898179 L 636.1367871747408 98.16907832658542 L 635.918666525718 98.182551099404 L 635.7002587535385 98.19503719017146 L 635.4815856987977 98.20653535028914 L 635.2626692286187 98.21704442995062 L 635.0435312344663 98.22656337825667 L 634.824193629957 98.23509124332041 L 634.6046783486687 98.24262717236243 L 634.3850073419464 98.24917041179611 L 634.165202576708 98.25472030730296 L 633.9452860332466 98.25927630389805 L 633.7252797030333 98.26283794598552 L 633.505205586518 98.26540487740414 L 633.2850856909287 98.26697684146288 L 633.0649420280715 98.26755368096666 L 632.8447966121296 98.26713533823201 L 632.6246714574607 98.26572185509286 L 632.4045885763973 98.26331337289633 L 632.1845699770436 98.25991013248867 L 631.9646376610765 98.25551247419104 L 631.7448136215443 98.25012083776562 L 631.5251198406677 98.24373576237157 L 631.3055782876417 98.2363578865111 L 631.0862109164386 98.22798794796564 L 630.8670396636129 98.21862678372209 L 630.6480864461072 98.20827532988906 L 630.4293731590606 98.1969346216033 L 630.2109216736196 98.18460579292622 L 629.9927538347509 98.17129007673037 L 629.7748914590564 98.1569888045763 L 629.5573563325922 98.14170340657931 L 629.3401702086896 98.12543541126645 L 629.1233548057801 98.1081864454237 L 628.9069318052232 98.08995823393326 L 628.6909228491386 98.07075259960111 L 628.4753495382421 98.05057146297464 L 628.2602334296848 98.02941684215075 L 628.0455960348987 98.00729085257386 L 627.8314588174441 97.9841957068245 L 627.6178431908644 97.96013371439797 L 627.4047705165443 97.9351072814735 L 627.1922621015735 97.90911891067351 L 626.9803391966167 97.88217120081342 L 626.7690229937875 97.85426684664178 L 626.5583346245303 97.82540863857072 L 626.3482951575064 97.79559946239702 L 626.1389255964873 97.76484229901347 L 625.9302468782548 97.73314022411074 L 625.7222798705069 97.70049640786993 L 625.5150453697709 97.66691411464545 L 625.3085640993241 97.63239670263864 L 625.1028567071218 97.59694762356195 L 624.8979437637315 97.56057042229372 L 624.693845760277 97.52326873652379 L 624.4905831063884 97.48504629638963 L 624.2881761281617 97.44590692410341 L 624.0866450661262 97.40585453356975 L 623.88601007322 97.36489312999431 L 623.6862912127752 97.32302680948334 L 623.4875084565116 97.28025975863397 L 623.289681682539 97.23659625411567 L 623.09283067337 97.19204066224249 L 622.8969751139416 97.14659743853649 L 622.7021345896462 97.10027112728218 L 622.5083285843742 97.05306636107208 L 622.3155764785645 97.00498786034348 L 622.1238975472669 96.95604043290636 L 621.9333109582151 96.9062289734627 L 621.7438357699089 96.85555846311694 L 621.5554909297094 96.80403396887786 L 621.3682952719437 96.75166064315196 L 621.1822675160214 96.69844372322818 L 620.9974262645632 96.64438853075416 L 620.8137900015402 96.58950047120409 L 620.6313770904256 96.53378503333819 L 620.4502057723587 96.47724778865383 L 620.27029416432 96.41989439082835 L 620.0916602573208 96.36173057515376 L 619.9143219146025 96.30276215796312 L 619.7382968698519 96.24299503604902 L 619.5636027254267 96.18243518607389 L 619.3902569505957 96.1210886639722 L 619.218276879792 96.05896160434507 L 619.0476797108794 95.99606021984668 L 618.8784825034325 95.93239080056308 L 618.7107021770312 95.86795971338313 L 618.5443555095682 95.80277340136185 L 618.3794591355716 95.73683838307612 L 618.2160295445415 95.67016125197281 L 618.0540830793008 95.6027486757095 L 617.893635934361 95.53460739548763 L 617.7347041543029 95.46574422537843 L 617.5773036321721 95.39616605164152 L 617.4214501078897 95.32587983203629 L 617.2671591666781 95.25489259512614 L 617.1144462375029 95.1832114395756 L 616.9633265915298 95.1108435334405 L 616.8138153405976 95.03779611345114 L 616.6659274357065 94.96407648428864 L 616.519677665524 94.88969201785449 L 616.3750806549051 94.81465015253335 L 616.2321508634304 94.7389583924492 L 616.09090258396 94.662624306715 L 615.9513499412041 94.5856555286757 L 615.8135068903106 94.50805975514496 L 615.6773872154697 94.42984474563546 L 615.5430045285357 94.351018321583 L 615.4103722676651 94.27158836556427 L 615.2795036959736 94.19156282050868 L 615.1504119002092 94.11094968890407 L 615.0231097894439 94.02975703199641 L 614.8976100937826 93.94799296898373 L 614.7739253630905 93.8656656762042 L 614.6520679657375 93.78278338631848 L 614.5320500873619 93.69935438748651 L 614.4138837296513 93.61538702253864 L 614.2975807091431 93.53088968814139 L 614.1831526560425 93.44587083395777 L 614.0706110130593 93.36033896180237 L 613.9599670342641 93.27430262479113 L 613.8512317839627 93.18777042648605 L 613.7444161355894 93.10075102003485 L 613.6395307706199 93.01325310730566 L 613.5365861775035 92.92528543801683 L 613.4355926506137 92.836856808862 L 613.3365602892189 92.74797606263037 L 613.2394989964729 92.65865208732252 L 613.1444184784239 92.56889381526153 L 613.0513282430445 92.47871022219982 L 612.9602375992807 92.38811032642154 L 612.8711556561211 92.29710318784076 L 612.7840913216855 92.20569790709551 L 612.6990533023352 92.11390362463767 L 612.6160501018009 92.02172951981903 L 612.5350900203334 91.92918480997322 L 612.4561811538739 91.83627874949414 L 612.3793313932428 91.74302062891039 L 612.3045484233523 91.64941977395632 L 612.2318397224371 91.55548554463944 L 612.1612125613067 91.46122733430438 L 612.0926740026183 91.36665456869365 L 612.0262309001707 91.27177670500497 L 611.9618898982187 91.17660323094567 L 611.8996574308089 91.08114366378383 L 611.8395397211364 90.98540754939663 L 611.7815427809217 90.88940446131572 L 611.7256724098107 90.79314399976991 L 611.6719341947941 90.69663579072514 L 611.6203335096482 90.59988948492189 L 611.5708755143988 90.5029147569101 L 611.5235651548044 90.40572130408178 L 611.478407161861 90.30831884570122 L 611.4354060513308 90.21071712193307 L 611.3945661232887 90.1129258928684 L 611.3558914616935 90.01495493754861 L 611.3193859339792 89.91681405298758 L 611.2850531906682 89.81851305319199 L 611.2528966650062 89.72006176817992 L 611.2229195726188 89.6214700429978 L 611.1951249111905 89.52274773673601 L 611.1695154601641 89.42390472154288 L 611.1460937804635 89.32495088163759 L 611.124862214237 89.22589611232166 L 611.1058228846236 89.12675031898948 L 611.0889776955405 89.02752341613775 L 611.0743283314924 88.92822532637408 L 611.0618762574036 88.82886597942469 L 611.0516227184711 88.72945531114148 L 611.0435687400402 88.63000326250842 L 611.0377151275022 88.53051977864753 L 611.0340624662133 88.43101480782425 L 611.0326111214366 88.3314983004528" stroke-miterlimit="10" stroke-width="2.5633703640000003" stroke-dasharray=""/></g><g><g/><text fill="black" stroke="none" font-family="sans-serif" font-size="11pt" font-style="normal" font-weight="normal" text-decoration="normal" x="598.0133915624219" y="114.44694742800002" text-anchor="start" dominant-baseline="alphabetic" xml:space="preserve">Zookeeper</text></g><path fill="none" stroke="none"/><g><path fill="white" stroke="black" paint-order="fill stroke markers" d=" M 911.0655233365742 78.258189348 L 1019.536390464832 78.258189348 L 1019.536390464832 118.970542188 L 911.0655233365742 118.970542188 L 911.0655233365742 78.258189348 Z" stroke-miterlimit="10" stroke-width="2.4125838720000004" stroke-dasharray=""/></g><g><g/><text fill="black" stroke="none" font-family="sans-serif" font-size="11pt" font-style="normal" font-weight="normal" text-decoration="normal" x="927.4258577185742" y="103.89189298800001" text-anchor="start" dominant-baseline="alphabetic" xml:space="preserve">Constructor</text></g></g><g><path fill="#000099" stroke="black" paint-order="fill stroke markers" d=" M 97.89448963234375 630.1367500680002 L 112.97313883234375 630.1367500680002 L 112.97313883234375 1102.098470028 L 97.89448963234375 1102.098470028 L 97.89448963234375 630.1367500680002" stroke-miterlimit="10" stroke-width="1.2565541" stroke-dasharray=""/><path fill="#000099" stroke="black" paint-order="fill stroke markers" d=" M 437.68736010041016 732.6715646280002 L 452.76600930041013 732.6715646280002 L 452.76600930041013 1102.098470028 L 437.68736010041016 1102.098470028 L 437.68736010041016 732.6715646280002" stroke-miterlimit="10" stroke-width="1.2565541" stroke-dasharray=""/><path fill="#006600" stroke="black" paint-order="fill stroke markers" d=" M 957.7616323007031 830.6827844280002 L 972.8402815007031 830.6827844280002 L 972.8402815007031 976.9456816680001 L 957.7616323007031 976.9456816680001 L 957.7616323007031 830.6827844280002" stroke-miterlimit="10" stroke-width="1.2565541" stroke-dasharray=""/><g><g><rect fill="white" stroke="none" x="205.05071374409178" y="149.127840588" width="140.55907144457032" height="19.602243960000003"/></g><text fill="black" stroke="none" font-family="sans-serif" font-size="11pt" font-style="normal" font-weight="normal" text-decoration="normal" x="207.31251112409177" y="162.698624868" text-anchor="start" dominant-baseline="alphabetic" xml:space="preserve">Create or edit cluster</text></g><g><path fill="none" stroke="black" paint-order="fill stroke markers" d=" M 105.43381423234375 168.730084548 L 432.81193019241016 168.730084548" stroke-miterlimit="10" stroke-width="1.2565541" stroke-dasharray=""/><g transform="translate(445.22668470041015,168.730084548) translate(-445.22668470041015,-168.730084548)"><path fill="black" stroke="none" paint-order="stroke fill markers" d=" M 432.66114370041015 162.447314048 L 445.22668470041015 168.730084548 L 432.66114370041015 175.012855048 Z"/></g></g><g><g><rect fill="white" stroke="none" x="470.49274316230475" y="232.060411188" width="137.2886094084375" height="19.602243960000003"/></g><text fill="black" stroke="none" font-family="sans-serif" font-size="11pt" font-style="normal" font-weight="normal" text-decoration="normal" x="472.75454054230477" y="245.631195468" text-anchor="start" dominant-baseline="alphabetic" xml:space="preserve">Create </text><text fill="black" stroke="none" font-family="sans-serif" font-size="11pt" font-style="normal" font-weight="bold" text-decoration="normal" x="520.8167353665235" y="245.631195468" text-anchor="start" dominant-baseline="alphabetic" xml:space="preserve">Cluster data</text></g><g><path fill="none" stroke="black" paint-order="fill stroke markers" d=" M 445.22668470041015 251.662655148 L 620.6326565246368 251.662655148" stroke-miterlimit="10" stroke-width="1.2565541" stroke-dasharray=""/><g transform="translate(633.0474110326368,251.662655148) translate(-633.0474110326368,-251.662655148)"><path fill="black" stroke="none" paint-order="stroke fill markers" d=" M 620.4818700326367 245.379884648 L 633.0474110326368 251.662655148 L 620.4818700326367 257.945425648 Z"/></g></g><g><g><rect fill="white" stroke="none" x="466.8394152204102" y="296.89860274800003" width="144.59526529222657" height="19.602243960000003"/></g><text fill="black" stroke="none" font-family="sans-serif" font-size="11pt" font-style="normal" font-weight="normal" text-decoration="normal" x="469.10121260041024" y="310.469387028" text-anchor="start" dominant-baseline="alphabetic" xml:space="preserve">Create </text><text fill="black" stroke="none" font-family="sans-serif" font-size="11pt" font-style="normal" font-weight="bold" text-decoration="normal" x="517.163407424629" y="310.469387028" text-anchor="start" dominant-baseline="alphabetic" xml:space="preserve">Pending plan</text></g><g><path fill="none" stroke="black" paint-order="fill stroke markers" d=" M 445.22668470041015 316.50084670800004 L 620.6326565246368 316.50084670800004" stroke-miterlimit="10" stroke-width="1.2565541" stroke-dasharray=""/><g transform="translate(633.0474110326368,316.50084670800004) translate(-633.0474110326368,-316.50084670800004)"><path fill="black" stroke="none" paint-order="stroke fill markers" d=" M 620.4818700326367 310.218076208 L 633.0474110326368 316.50084670800004 L 620.4818700326367 322.78361720800007 Z"/></g></g><g><g><rect fill="white" stroke="none" x="714.653467824463" y="339.11882050800006" width="120.99355020433593" height="19.602243960000003"/></g><g><rect fill="white" stroke="none" x="714.653467824463" y="354.1974697080001" width="169.04143228441407" height="19.602243960000003"/></g><text fill="black" stroke="none" font-family="sans-serif" font-size="11pt" font-style="normal" font-weight="normal" text-decoration="normal" x="716.9152652044629" y="352.6896047880001" text-anchor="start" dominant-baseline="alphabetic" xml:space="preserve">Notice (via watch)</text><text fill="black" stroke="none" font-family="sans-serif" font-size="11pt" font-style="normal" font-weight="normal" text-decoration="normal" x="716.9152652044629" y="367.7682539880001" text-anchor="start" dominant-baseline="alphabetic" xml:space="preserve">creation of </text><text fill="black" stroke="none" font-family="sans-serif" font-size="11pt" font-style="normal" font-weight="bold" text-decoration="normal" x="789.4236270208692" y="367.7682539880001" text-anchor="start" dominant-baseline="alphabetic" xml:space="preserve">Pending plan</text></g><g><path fill="none" stroke="black" paint-order="fill stroke markers" d=" M 633.0474110326368 373.79971366800004 L 952.8862023927031 373.79971366800004" stroke-miterlimit="10" stroke-width="1.2565541" stroke-dasharray=""/><g transform="translate(965.3009569007031,373.79971366800004) translate(-965.3009569007031,-373.79971366800004)"><path fill="black" stroke="none" paint-order="stroke fill markers" d=" M 952.7354159007031 367.516943168 L 965.3009569007031 373.79971366800004 L 952.7354159007031 380.08248416800006 Z"/></g></g><g><g><rect fill="white" stroke="none" x="735.0061899924317" y="396.41768746800005" width="128.33598794847657" height="19.602243960000003"/></g><text fill="black" stroke="none" font-family="sans-serif" font-size="11pt" font-style="normal" font-weight="normal" text-decoration="normal" x="737.2679873724317" y="409.98847174800005" text-anchor="start" dominant-baseline="alphabetic" xml:space="preserve">Read </text><text fill="black" stroke="none" font-family="sans-serif" font-size="11pt" font-style="normal" font-weight="bold" text-decoration="normal" x="776.3775607366895" y="409.98847174800005" text-anchor="start" dominant-baseline="alphabetic" xml:space="preserve">Cluster data</text></g><g><path fill="none" stroke="black" paint-order="fill stroke markers" d=" M 633.0474110326368 416.01993142800006 L 952.8862023927031 416.01993142800006" stroke-miterlimit="10" stroke-width="1.2565541" stroke-dasharray=""/><g transform="translate(965.3009569007031,416.01993142800006) translate(-965.3009569007031,-416.01993142800006)"><path fill="black" stroke="none" paint-order="stroke fill markers" d=" M 952.7354159007031 409.73716092800004 L 965.3009569007031 416.01993142800006 L 952.7354159007031 422.3027019280001 Z"/></g></g><g><g><rect fill="white" stroke="none" x="733.7860285544434" y="438.6379052280001" width="130.77631082445313" height="19.602243960000003"/></g><text fill="black" stroke="none" font-family="sans-serif" font-size="11pt" font-style="normal" font-weight="normal" text-decoration="normal" x="736.0478259344434" y="452.20868950800013" text-anchor="start" dominant-baseline="alphabetic" xml:space="preserve">Create </text><text fill="black" stroke="none" font-family="sans-serif" font-size="11pt" font-style="normal" font-weight="bold" text-decoration="normal" x="784.1100207586621" y="452.20868950800013" text-anchor="start" dominant-baseline="alphabetic" xml:space="preserve">Plan status</text></g><g><path fill="none" stroke="black" paint-order="fill stroke markers" d=" M 965.3009569007031 458.2401491880001 L 645.4621655406368 458.2401491880001" stroke-miterlimit="10" stroke-width="1.2565541" stroke-dasharray=""/><g transform="translate(633.0474110326368,458.2401491880001) translate(-633.0474110326368,-458.2401491880001)"><path fill="black" stroke="none" paint-order="stroke fill markers" d=" M 645.6129520326368 451.95737868800006 L 633.0474110326368 458.2401491880001 L 645.6129520326368 464.5229196880001 Z"/></g></g><g><g><rect fill="white" stroke="none" x="211.559434142041" y="480.8581229880001" width="127.54163064867187" height="19.602243960000003"/></g><text fill="black" stroke="none" font-family="sans-serif" font-size="11pt" font-style="normal" font-weight="normal" text-decoration="normal" x="213.821231522041" y="494.4289072680001" text-anchor="start" dominant-baseline="alphabetic" xml:space="preserve">Open Activity page</text></g><g><path fill="none" stroke="black" paint-order="fill stroke markers" d=" M 105.43381423234375 500.4603669480001 L 432.81193019241016 500.4603669480001" stroke-miterlimit="10" stroke-width="1.2565541" stroke-dasharray=""/><g transform="translate(445.22668470041015,500.4603669480001) translate(-445.22668470041015,-500.4603669480001)"><path fill="black" stroke="none" paint-order="stroke fill markers" d=" M 432.66114370041015 494.1775964480001 L 445.22668470041015 500.4603669480001 L 432.66114370041015 506.74313744800014 Z"/></g></g><g><g><rect fill="white" stroke="none" x="472.93664422431647" y="523.0783407480002" width="121.82368936449218" height="19.602243960000003"/></g><g><rect fill="white" stroke="none" x="472.93664422431647" y="538.1569899480002" width="132.40080728441407" height="19.602243960000003"/></g><g><rect fill="white" stroke="none" x="472.93664422431647" y="553.2356391480001" width="72.15131082445312" height="19.602243960000003"/></g><text fill="black" stroke="none" font-family="sans-serif" font-size="11pt" font-style="normal" font-weight="normal" text-decoration="normal" x="475.1984416043165" y="536.6491250280002" text-anchor="start" dominant-baseline="alphabetic" xml:space="preserve">Read </text><text fill="black" stroke="none" font-family="sans-serif" font-size="11pt" font-style="normal" font-weight="bold" text-decoration="normal" x="514.3080149685743" y="536.6491250280002" text-anchor="start" dominant-baseline="alphabetic" xml:space="preserve">Plan status</text><text fill="black" stroke="none" font-family="sans-serif" font-size="11pt" font-style="normal" font-weight="normal" text-decoration="normal" x="475.1984416043165" y="551.7277742280002" text-anchor="start" dominant-baseline="alphabetic" xml:space="preserve">and </text><text fill="black" stroke="none" font-family="sans-serif" font-size="11pt" font-style="normal" font-weight="bold" text-decoration="normal" x="503.7237406765821" y="551.7277742280002" text-anchor="start" dominant-baseline="alphabetic" xml:space="preserve">plan attempts</text><text fill="black" stroke="none" font-family="sans-serif" font-size="11pt" font-style="normal" font-weight="normal" text-decoration="normal" x="599.0036784207227" y="551.7277742280002" text-anchor="start" dominant-baseline="alphabetic" xml:space="preserve">,</text><text fill="black" stroke="none" font-family="sans-serif" font-size="11pt" font-style="normal" font-weight="normal" text-decoration="normal" x="475.1984416043165" y="566.8064234280001" text-anchor="start" dominant-baseline="alphabetic" xml:space="preserve">update UI.</text></g><g><path fill="none" stroke="black" paint-order="fill stroke markers" d=" M 633.0474110326368 572.8378831080001 L 457.64143920841013 572.8378831080001" stroke-miterlimit="10" stroke-width="1.2565541" stroke-dasharray=""/><g transform="translate(445.22668470041015,572.8378831080001) translate(-445.22668470041015,-572.8378831080001)"><path fill="black" stroke="none" paint-order="stroke fill markers" d=" M 457.79222570041014 566.5551126080002 L 445.22668470041015 572.8378831080001 L 457.79222570041014 579.1206536080001 Z"/></g></g><path fill="white" stroke="black" paint-order="fill stroke markers" d=" M 15.078649200000001 609.0266411880002 L 15.078649200000001 609.0266411880002 A 13.570784280000002 13.570784280000002 0 0 1 28.649433480000003 595.4558569080002 L 182.2181949846875 595.4558569080002 L 182.2181949846875 595.4558569080002 A 13.570784280000002 13.570784280000002 0 0 1 195.7889792646875 609.0266411880002 L 195.7889792646875 616.5659657880002 L 195.7889792646875 616.5659657880002 A 13.570784280000002 13.570784280000002 0 0 1 182.2181949846875 630.1367500680002 L 28.649433480000003 630.1367500680002 L 28.649433480000003 630.1367500680002 A 13.570784280000002 13.570784280000002 0 0 1 15.078649200000001 616.5659657880002 L 15.078649200000001 609.0266411880002" stroke-miterlimit="10" stroke-width="1.2565541" stroke-dasharray=""/><g><text fill="black" stroke="none" font-family="sans-serif" font-size="11pt" font-style="normal" font-weight="normal" text-decoration="normal" x="36.18875808" y="616.5659657880002" text-anchor="start" dominant-baseline="alphabetic" xml:space="preserve">Stare at Activity page</text></g><path fill="white" stroke="black" paint-order="fill stroke markers" d=" M 362.6182924341797 666.3255081480002 L 362.6182924341797 666.3255081480002 A 13.570784280000002 13.570784280000002 0 0 1 376.1890767141797 652.7547238680002 L 514.2642926866406 652.7547238680002 L 514.2642926866406 652.7547238680002 A 13.570784280000002 13.570784280000002 0 0 1 527.8350769666406 666.3255081480002 L 527.8350769666406 719.1007803480002 L 527.8350769666406 719.1007803480002 A 13.570784280000002 13.570784280000002 0 0 1 514.2642926866406 732.6715646280002 L 376.1890767141797 732.6715646280002 L 376.1890767141797 732.6715646280002 A 13.570784280000002 13.570784280000002 0 0 1 362.6182924341797 719.1007803480002 L 362.6182924341797 666.3255081480002" stroke-miterlimit="10" stroke-width="1.2565541" stroke-dasharray=""/><g><text fill="black" stroke="none" font-family="sans-serif" font-size="11pt" font-style="normal" font-weight="normal" text-decoration="normal" x="383.7284013141797" y="673.8648327480001" text-anchor="start" dominant-baseline="alphabetic" xml:space="preserve">Regularly</text><text fill="black" stroke="none" font-family="sans-serif" font-size="11pt" font-style="normal" font-weight="normal" text-decoration="normal" x="383.7284013141797" y="688.9434819480001" text-anchor="start" dominant-baseline="alphabetic" xml:space="preserve">poll </text><text fill="black" stroke="none" font-family="sans-serif" font-size="11pt" font-style="normal" font-weight="bold" text-decoration="normal" x="410.61489118234374" y="688.9434819480001" text-anchor="start" dominant-baseline="alphabetic" xml:space="preserve">Plan status</text><text fill="black" stroke="none" font-family="sans-serif" font-size="11pt" font-style="normal" font-weight="normal" text-decoration="normal" x="383.7284013141797" y="704.0221311480001" text-anchor="start" dominant-baseline="alphabetic" xml:space="preserve">and </text><text fill="black" stroke="none" font-family="sans-serif" font-size="11pt" font-style="normal" font-weight="bold" text-decoration="normal" x="412.2537003864453" y="704.0221311480001" text-anchor="start" dominant-baseline="alphabetic" xml:space="preserve">plan attemps</text><text fill="black" stroke="none" font-family="sans-serif" font-size="11pt" font-style="normal" font-weight="normal" text-decoration="normal" x="502.6529923786328" y="704.0221311480001" text-anchor="start" dominant-baseline="alphabetic" xml:space="preserve">,</text><text fill="black" stroke="none" font-family="sans-serif" font-size="11pt" font-style="normal" font-weight="normal" text-decoration="normal" x="383.7284013141797" y="719.1007803480001" text-anchor="start" dominant-baseline="alphabetic" xml:space="preserve">update UI.</text></g><path fill="white" stroke="black" paint-order="fill stroke markers" d=" M 901.8251253644531 809.5726755480002 L 901.8251253644531 809.5726755480002 A 13.570784280000002 13.570784280000002 0 0 1 915.3959096444531 796.0018912680002 L 1015.2060041569532 796.0018912680002 L 1015.2060041569532 796.0018912680002 A 13.570784280000002 13.570784280000002 0 0 1 1028.7767884369532 809.5726755480002 L 1028.7767884369532 817.1120001480002 L 1028.7767884369532 817.1120001480002 A 13.570784280000002 13.570784280000002 0 0 1 1015.2060041569532 830.6827844280002 L 915.3959096444531 830.6827844280002 L 915.3959096444531 830.6827844280002 A 13.570784280000002 13.570784280000002 0 0 1 901.8251253644531 817.1120001480002 L 901.8251253644531 809.5726755480002" stroke-miterlimit="10" stroke-width="1.2565541" stroke-dasharray=""/><g><text fill="black" stroke="none" font-family="sans-serif" font-size="11pt" font-style="normal" font-weight="normal" text-decoration="normal" x="922.9352342444531" y="817.1120001480002" text-anchor="start" dominant-baseline="alphabetic" xml:space="preserve">Execute step</text></g><g><g><rect fill="white" stroke="none" x="728.3811352363771" y="853.3007582280002" width="134.04677286058595" height="19.602243960000003"/></g><text fill="black" stroke="none" font-family="sans-serif" font-size="11pt" font-style="normal" font-weight="normal" text-decoration="normal" x="730.642932616377" y="866.8715425080002" text-anchor="start" dominant-baseline="alphabetic" xml:space="preserve">Update </text><text fill="black" stroke="none" font-family="sans-serif" font-size="11pt" font-style="normal" font-weight="bold" text-decoration="normal" x="781.9755894767286" y="866.8715425080002" text-anchor="start" dominant-baseline="alphabetic" xml:space="preserve">Plan status</text></g><g><path fill="none" stroke="black" paint-order="fill stroke markers" d=" M 957.7616323007031 872.9030021880002 L 645.4621655406368 872.9030021880002" stroke-miterlimit="10" stroke-width="1.2565541" stroke-dasharray=""/><g transform="translate(633.0474110326368,872.9030021880002) translate(-633.0474110326368,-872.9030021880002)"><path fill="black" stroke="none" paint-order="stroke fill markers" d=" M 645.6129520326368 866.6202316880002 L 633.0474110326368 872.9030021880002 L 645.6129520326368 879.1857726880002 Z"/></g></g><g><g><rect fill="white" stroke="none" x="990.6833497207032" y="895.5209759880001" width="54.76125039964844" height="19.602243960000003"/></g><text fill="black" stroke="none" font-family="sans-serif" font-size="11pt" font-style="normal" font-weight="normal" text-decoration="normal" x="992.9451471007031" y="909.0917602680001" text-anchor="start" dominant-baseline="alphabetic" xml:space="preserve">Do stuff</text></g><g><path fill="none" stroke="black" paint-order="fill stroke markers" d=" M 972.8402815007031 915.1232199480002 L 1033.154878300703 915.1232199480002 L 1033.154878300703 934.7254639080002 L 985.2550360087031 934.7254639080002" stroke-miterlimit="10" stroke-width="1.2565541" stroke-dasharray=""/><g transform="translate(972.8402815007031,934.7254639080002) translate(-972.8402815007031,-934.7254639080002)"><path fill="black" stroke="none" paint-order="stroke fill markers" d=" M 985.4058225007032 928.4426934080002 L 972.8402815007031 934.7254639080002 L 985.4058225007032 941.0082344080001 Z"/></g></g><g><g><rect fill="white" stroke="none" x="728.3811352363771" y="957.3434377080001" width="134.04677286058595" height="19.602243960000003"/></g><text fill="black" stroke="none" font-family="sans-serif" font-size="11pt" font-style="normal" font-weight="normal" text-decoration="normal" x="730.642932616377" y="970.9142219880001" text-anchor="start" dominant-baseline="alphabetic" xml:space="preserve">Update </text><text fill="black" stroke="none" font-family="sans-serif" font-size="11pt" font-style="normal" font-weight="bold" text-decoration="normal" x="781.9755894767286" y="970.9142219880001" text-anchor="start" dominant-baseline="alphabetic" xml:space="preserve">Plan status</text></g><g><path fill="none" stroke="black" paint-order="fill stroke markers" d=" M 957.7616323007031 976.9456816680001 L 645.4621655406368 976.9456816680001" stroke-miterlimit="10" stroke-width="1.2565541" stroke-dasharray=""/><g transform="translate(633.0474110326368,976.9456816680001) translate(-633.0474110326368,-976.9456816680001)"><path fill="black" stroke="none" paint-order="stroke fill markers" d=" M 645.6129520326368 970.6629111680002 L 633.0474110326368 976.9456816680001 L 645.6129520326368 983.2284521680001 Z"/></g></g><g><g><rect fill="white" stroke="none" x="704.4592158103028" y="1022.181629268" width="147.04274454027345" height="19.602243960000003"/></g><g><rect fill="white" stroke="none" x="704.4592158103028" y="1037.260278468" width="133.2237900725" height="19.602243960000003"/></g><g><rect fill="white" stroke="none" x="704.4592158103028" y="1052.338927668" width="186.9753006926172" height="19.602243960000003"/></g><g><rect fill="white" stroke="none" x="704.4592158103028" y="1067.417576868" width="135.67126932054688" height="19.602243960000003"/></g><g><rect fill="white" stroke="none" x="704.4592158103028" y="1082.496226068" width="189.42993631273438" height="19.602243960000003"/></g><text fill="black" stroke="none" font-family="sans-serif" font-size="11pt" font-style="normal" font-weight="normal" text-decoration="normal" x="706.7210131903028" y="1035.752413548" text-anchor="start" dominant-baseline="alphabetic" xml:space="preserve">Delete </text><text fill="black" stroke="none" font-family="sans-serif" font-size="11pt" font-style="normal" font-weight="bold" text-decoration="normal" x="753.1587115545606" y="1035.752413548" text-anchor="start" dominant-baseline="alphabetic" xml:space="preserve">Pending plan</text><text fill="black" stroke="none" font-family="sans-serif" font-size="11pt" font-style="normal" font-weight="normal" text-decoration="normal" x="845.1681872625684" y="1035.752413548" text-anchor="start" dominant-baseline="alphabetic" xml:space="preserve">.</text><text fill="black" stroke="none" font-family="sans-serif" font-size="11pt" font-style="normal" font-weight="normal" text-decoration="normal" x="706.7210131903028" y="1050.831062748" text-anchor="start" dominant-baseline="alphabetic" xml:space="preserve">Delete </text><text fill="black" stroke="none" font-family="sans-serif" font-size="11pt" font-style="normal" font-weight="bold" text-decoration="normal" x="753.1587115545606" y="1050.831062748" text-anchor="start" dominant-baseline="alphabetic" xml:space="preserve">Plan status</text><text fill="black" stroke="none" font-family="sans-serif" font-size="11pt" font-style="normal" font-weight="normal" text-decoration="normal" x="831.349232794795" y="1050.831062748" text-anchor="start" dominant-baseline="alphabetic" xml:space="preserve">.</text><text fill="black" stroke="none" font-family="sans-serif" font-size="11pt" font-style="normal" font-weight="normal" text-decoration="normal" x="706.7210131903028" y="1065.909711948" text-anchor="start" dominant-baseline="alphabetic" xml:space="preserve">Create </text><text fill="black" stroke="none" font-family="sans-serif" font-size="11pt" font-style="normal" font-weight="bold" text-decoration="normal" x="754.7832080145215" y="1065.909711948" text-anchor="start" dominant-baseline="alphabetic" xml:space="preserve">Plan attempts</text><text fill="black" stroke="none" font-family="sans-serif" font-size="11pt" font-style="normal" font-weight="normal" text-decoration="normal" x="850.8861285467481" y="1065.909711948" text-anchor="start" dominant-baseline="alphabetic" xml:space="preserve"> child.</text><text fill="black" stroke="none" font-family="sans-serif" font-size="11pt" font-style="normal" font-weight="normal" text-decoration="normal" x="706.7210131903028" y="1080.988361148" text-anchor="start" dominant-baseline="alphabetic" xml:space="preserve">If plan was success,</text><text fill="black" stroke="none" font-family="sans-serif" font-size="11pt" font-style="normal" font-weight="normal" text-decoration="normal" x="706.7210131903028" y="1096.067010348" text-anchor="start" dominant-baseline="alphabetic" xml:space="preserve">create/update </text><text fill="black" stroke="none" font-family="sans-serif" font-size="11pt" font-style="normal" font-weight="bold" text-decoration="normal" x="800.4265490789746" y="1096.067010348" text-anchor="start" dominant-baseline="alphabetic" xml:space="preserve">Current plan</text><text fill="black" stroke="none" font-family="sans-serif" font-size="11pt" font-style="normal" font-weight="normal" text-decoration="normal" x="887.5553790350293" y="1096.067010348" text-anchor="start" dominant-baseline="alphabetic" xml:space="preserve">.</text></g><g><path fill="none" stroke="black" paint-order="fill stroke markers" d=" M 965.3009569007031 1102.098470028 L 645.4621655406368 1102.098470028" stroke-miterlimit="10" stroke-width="1.2565541" stroke-dasharray=""/><g transform="translate(633.0474110326368,1102.098470028) translate(-633.0474110326368,-1102.098470028)"><path fill="black" stroke="none" paint-order="stroke fill markers" d=" M 645.6129520326368 1095.815699528 L 633.0474110326368 1102.098470028 L 645.6129520326368 1108.381240528 Z"/></g></g><path fill="white" stroke="black" paint-order="fill stroke markers" d=" M 91.86302995234375 1165.428796668 L 965.3009569007031 1165.428796668 L 978.8717411807031 1178.999580948 L 978.8717411807031 1561.9972706279998 L 91.86302995234375 1561.9972706279998 L 91.86302995234375 1165.428796668 M 965.3009569007031 1165.428796668 L 965.3009569007031 1178.999580948 L 978.8717411807031 1178.999580948" stroke-miterlimit="10" stroke-width="1.2565541" stroke-dasharray=""/><g><text fill="black" stroke="none" font-family="sans-serif" font-size="11pt" font-style="normal" font-weight="normal" text-decoration="normal" x="128.05178803234378" y="1186.538905548" text-anchor="start" dominant-baseline="alphabetic" xml:space="preserve">Znode glossary:</text><text fill="black" stroke="none" font-family="sans-serif" font-size="11pt" font-style="normal" font-weight="normal" text-decoration="normal" x="128.05178803234378" y="1201.617554748" text-anchor="start" dominant-baseline="alphabetic" xml:space="preserve"></text><text fill="black" stroke="none" font-family="sans-serif" font-size="11pt" font-style="normal" font-weight="bold" text-decoration="normal" x="128.05178803234378" y="1216.696203948" text-anchor="start" dominant-baseline="alphabetic" xml:space="preserve">Cluster data</text><text fill="black" stroke="none" font-family="sans-serif" font-size="11pt" font-style="normal" font-weight="normal" text-decoration="normal" x="212.75460785656253" y="1216.696203948" text-anchor="start" dominant-baseline="alphabetic" xml:space="preserve">: Info about the current cluster status</text><text fill="black" stroke="none" font-family="sans-serif" font-size="11pt" font-style="normal" font-weight="normal" text-decoration="normal" x="128.05178803234378" y="1231.774853148" text-anchor="start" dominant-baseline="alphabetic" xml:space="preserve">  /clusters/&lt;id&gt;</text><text fill="black" stroke="none" font-family="sans-serif" font-size="11pt" font-style="normal" font-weight="normal" text-decoration="normal" x="128.05178803234378" y="1246.853502348" text-anchor="start" dominant-baseline="alphabetic" xml:space="preserve"></text><text fill="black" stroke="none" font-family="sans-serif" font-size="11pt" font-style="normal" font-weight="bold" text-decoration="normal" x="128.05178803234378" y="1261.9321515479999" text-anchor="start" dominant-baseline="alphabetic" xml:space="preserve">Pending plan</text><text fill="black" stroke="none" font-family="sans-serif" font-size="11pt" font-style="normal" font-weight="normal" text-decoration="normal" x="220.0612637403516" y="1261.9321515479999" text-anchor="start" dominant-baseline="alphabetic" xml:space="preserve">: Target configuration</text><text fill="black" stroke="none" font-family="sans-serif" font-size="11pt" font-style="normal" font-weight="normal" text-decoration="normal" x="128.05178803234378" y="1277.0108007479998" text-anchor="start" dominant-baseline="alphabetic" xml:space="preserve">  /clusters/&lt;id&gt;/plans/pending</text><text fill="black" stroke="none" font-family="sans-serif" font-size="11pt" font-style="normal" font-weight="normal" text-decoration="normal" x="128.05178803234378" y="1292.0894499479998" text-anchor="start" dominant-baseline="alphabetic" xml:space="preserve"></text><text fill="black" stroke="none" font-family="sans-serif" font-size="11pt" font-style="normal" font-weight="bold" text-decoration="normal" x="128.05178803234378" y="1307.1680991479998" text-anchor="start" dominant-baseline="alphabetic" xml:space="preserve">Plan status</text><text fill="black" stroke="none" font-family="sans-serif" font-size="11pt" font-style="normal" font-weight="normal" text-decoration="normal" x="206.24230927257815" y="1307.1680991479998" text-anchor="start" dominant-baseline="alphabetic" xml:space="preserve">: Status of plan-in-progress. Contains a running list of in-order status messages which are each tied to some step.</text><text fill="black" stroke="none" font-family="sans-serif" font-size="11pt" font-style="normal" font-weight="normal" text-decoration="normal" x="128.05178803234378" y="1322.2467483479998" text-anchor="start" dominant-baseline="alphabetic" xml:space="preserve">  /clusters/&lt;id&gt;/plans/status</text><text fill="black" stroke="none" font-family="sans-serif" font-size="11pt" font-style="normal" font-weight="normal" text-decoration="normal" x="128.05178803234378" y="1337.3253975479997" text-anchor="start" dominant-baseline="alphabetic" xml:space="preserve"></text><text fill="black" stroke="none" font-family="sans-serif" font-size="11pt" font-style="normal" font-weight="bold" text-decoration="normal" x="128.05178803234378" y="1352.4040467479997" text-anchor="start" dominant-baseline="alphabetic" xml:space="preserve">Current plan</text><text fill="black" stroke="none" font-family="sans-serif" font-size="11pt" font-style="normal" font-weight="normal" text-decoration="normal" x="215.18061798839847" y="1352.4040467479997" text-anchor="start" dominant-baseline="alphabetic" xml:space="preserve">: Last successfully completed plan</text><text fill="black" stroke="none" font-family="sans-serif" font-size="11pt" font-style="normal" font-weight="normal" text-decoration="normal" x="128.05178803234378" y="1367.4826959479997" text-anchor="start" dominant-baseline="alphabetic" xml:space="preserve">  /clusters/&lt;id&gt;/plans/current</text><text fill="black" stroke="none" font-family="sans-serif" font-size="11pt" font-style="normal" font-weight="normal" text-decoration="normal" x="128.05178803234378" y="1382.5613451479996" text-anchor="start" dominant-baseline="alphabetic" xml:space="preserve"></text><text fill="black" stroke="none" font-family="sans-serif" font-size="11pt" font-style="normal" font-weight="bold" text-decoration="normal" x="128.05178803234378" y="1397.6399943479996" text-anchor="start" dominant-baseline="alphabetic" xml:space="preserve">Plan attempts</text><text fill="black" stroke="none" font-family="sans-serif" font-size="11pt" font-style="normal" font-weight="normal" text-decoration="normal" x="224.15470856457034" y="1397.6399943479996" text-anchor="start" dominant-baseline="alphabetic" xml:space="preserve">: Child nodes are a list of all plans ever attempted for a cluster (successful or not)</text><text fill="black" stroke="none" font-family="sans-serif" font-size="11pt" font-style="normal" font-weight="normal" text-decoration="normal" x="128.05178803234378" y="1412.7186435479996" text-anchor="start" dominant-baseline="alphabetic" xml:space="preserve">  /clusters/&lt;id&gt;/plans/attempts</text><text fill="black" stroke="none" font-family="sans-serif" font-size="11pt" font-style="normal" font-weight="normal" text-decoration="normal" x="128.05178803234378" y="1427.7972927479996" text-anchor="start" dominant-baseline="alphabetic" xml:space="preserve">    /attempt-1</text><text fill="black" stroke="none" font-family="sans-serif" font-size="11pt" font-style="normal" font-weight="normal" text-decoration="normal" x="128.05178803234378" y="1442.8759419479995" text-anchor="start" dominant-baseline="alphabetic" xml:space="preserve">    /attempt-2</text><text fill="black" stroke="none" font-family="sans-serif" font-size="11pt" font-style="normal" font-weight="normal" text-decoration="normal" x="128.05178803234378" y="1457.9545911479995" text-anchor="start" dominant-baseline="alphabetic" xml:space="preserve">    etc</text><text fill="black" stroke="none" font-family="sans-serif" font-size="11pt" font-style="normal" font-weight="normal" text-decoration="normal" x="128.05178803234378" y="1473.0332403479995" text-anchor="start" dominant-baseline="alphabetic" xml:space="preserve"></text><text fill="black" stroke="none" font-family="sans-serif" font-size="11pt" font-style="normal" font-weight="bold" text-decoration="normal" x="128.05178803234378" y="1488.1118895479995" text-anchor="start" dominant-baseline="alphabetic" xml:space="preserve">Plan history</text><text fill="black" stroke="none" font-family="sans-serif" font-size="11pt" font-style="normal" font-weight="normal" text-decoration="normal" x="211.9387814405469" y="1488.1118895479995" text-anchor="start" dominant-baseline="alphabetic" xml:space="preserve">: DEPRECATED, being moved out of ZK. Child nodes are/were a list of all </text><text fill="black" stroke="none" font-family="sans-serif" font-size="11pt" font-style="normal" font-weight="bold" text-decoration="normal" x="694.7215573194532" y="1488.1118895479995" text-anchor="start" dominant-baseline="alphabetic" xml:space="preserve">successful</text><text fill="black" stroke="none" font-family="sans-serif" font-size="11pt" font-style="normal" font-weight="normal" text-decoration="normal" x="770.4860684278516" y="1488.1118895479995" text-anchor="start" dominant-baseline="alphabetic" xml:space="preserve"> plans for a cluster.</text><text fill="black" stroke="none" font-family="sans-serif" font-size="11pt" font-style="normal" font-weight="normal" text-decoration="normal" x="128.05178803234378" y="1503.1905387479994" text-anchor="start" dominant-baseline="alphabetic" xml:space="preserve">  /clusters/&lt;id&gt;/plans/history</text><text fill="black" stroke="none" font-family="sans-serif" font-size="11pt" font-style="normal" font-weight="normal" text-decoration="normal" x="128.05178803234378" y="1518.2691879479994" text-anchor="start" dominant-baseline="alphabetic" xml:space="preserve">    /history-1</text><text fill="black" stroke="none" font-family="sans-serif" font-size="11pt" font-style="normal" font-weight="normal" text-decoration="normal" x="128.05178803234378" y="1533.3478371479994" text-anchor="start" dominant-baseline="alphabetic" xml:space="preserve">    /history-2</text><text fill="black" stroke="none" font-family="sans-serif" font-size="11pt" font-style="normal" font-weight="normal" text-decoration="normal" x="128.05178803234378" y="1548.4264863479993" text-anchor="start" dominant-baseline="alphabetic" xml:space="preserve">    etc</text></g><g><g/><path fill="none" stroke="black" paint-order="fill stroke markers" d=" M 392.45141250041013 191.348058348 L 685.8226832326368 191.348058348 L 685.8226832326368 274.280628948 L 392.45141250041013 274.280628948 L 392.45141250041013 191.348058348 Z" stroke-miterlimit="10" stroke-width="2.154092742857143" stroke-dasharray=""/><path fill="white" stroke="black" paint-order="fill stroke markers" d=" M 392.45141250041013 191.348058348 L 392.45141250041013 209.442437388 L 436.28440059767576 209.442437388 L 445.3315901176758 200.39524786799998 L 445.3315901176758 191.348058348 L 392.45141250041013 191.348058348" stroke-miterlimit="10" stroke-width="2.154092742857143" stroke-dasharray=""/><text fill="black" stroke="none" font-family="sans-serif" font-size="8.8pt" font-style="normal" font-weight="bold" text-decoration="normal" x="407.5300617004101" y="203.410977708" text-anchor="start" dominant-baseline="alphabetic" xml:space="preserve">alt</text><text fill="black" stroke="none" font-family="sans-serif" font-size="8.8pt" font-style="normal" font-weight="bold" text-decoration="normal" x="460.41023931767575" y="203.410977708" text-anchor="start" dominant-baseline="alphabetic" xml:space="preserve">[if creating new cluster]</text></g><g><g/><path fill="none" stroke="black" paint-order="fill stroke markers" d=" M 580.2721388326368 755.2895384280001 L 1050.7221273403516 755.2895384280001 L 1050.7221273403516 999.5636554680001 L 580.2721388326368 999.5636554680001 L 580.2721388326368 755.2895384280001 Z" stroke-miterlimit="10" stroke-width="2.154092742857143" stroke-dasharray=""/><path fill="white" stroke="black" paint-order="fill stroke markers" d=" M 580.2721388326368 755.2895384280001 L 580.2721388326368 773.3839174680002 L 635.1601196056836 773.3839174680002 L 644.2073091256835 764.3367279480001 L 644.2073091256835 755.2895384280001 L 580.2721388326368 755.2895384280001" stroke-miterlimit="10" stroke-width="2.154092742857143" stroke-dasharray=""/><text fill="black" stroke="none" font-family="sans-serif" font-size="8.8pt" font-style="normal" font-weight="bold" text-decoration="normal" x="595.3507880326367" y="767.3524577880002" text-anchor="start" dominant-baseline="alphabetic" xml:space="preserve">loop</text><text fill="black" stroke="none" font-family="sans-serif" font-size="8.8pt" font-style="normal" font-weight="bold" text-decoration="normal" x="659.2859583256835" y="767.3524577880002" text-anchor="start" dominant-baseline="alphabetic" xml:space="preserve">[for each plan step]</text></g></g><g/><g/><g/><g/></g></svg>