<?xml version="1.0" encoding="UTF-8"?>
<svg width="32px" height="32px" viewBox="0 0 32 32" version="1.1" xmlns="http://www.w3.org/2000/svg" xmlns:xlink="http://www.w3.org/1999/xlink">
    <!-- Generator: Sketch 55.1 (78136) - https://sketchapp.com -->
    <title>icon-machine-learning-32-color</title>
    <desc>Created with Sketch.</desc>
    <g id="icon-machine-learning-32-color" stroke="none" stroke-width="1" fill="none" fill-rule="evenodd">
        <path d="M10,17.9713 L10,18.5303 C10,18.9613 9.725,19.3423 9.316,19.4783 L3,21.5833 L3,9.9713 C3,9.6583 3.149,9.3593 3.4,9.1713 L6.6,6.7713 L5.4,5.1713 L2.199,7.5713 C1.448,8.1353 1,9.0323 1,9.9713 L1,21.9713 C1,22.9103 1.448,23.8073 2.2,24.3713 L5.4,26.7713 L6.6,25.1713 L4.127,23.3163 L9.949,21.3763 C11.176,20.9673 12,19.8233 12,18.5303 L12,17.9713 L10,17.9713 Z" id="Fill-1" fill="#FFFFFF"></path>
        <path d="M29.8003,7.5714 L26.6003,5.1714 L25.4003,6.7714 L28.5993,9.1714 C28.8503,9.3594 29.0003,9.6584 29.0003,9.9714 L29.0003,21.5834 L22.6843,19.4784 C22.2753,19.3424 22.0003,18.9614 22.0003,18.5294 L22.0003,17.9714 L20.0003,17.9714 L20.0003,18.5294 C20.0003,19.8224 20.8243,20.9674 22.0513,21.3764 L27.8733,23.3164 L25.4003,25.1714 L26.6003,26.7714 L29.8003,24.3714 C30.5513,23.8074 31.0003,22.9104 31.0003,21.9714 L31.0003,9.9714 C31.0003,9.0324 30.5513,8.1354 29.8003,7.5714" id="Fill-3" fill="#FFFFFF"></path>
        <path d="M11,1.9713 C10.733,1.9713 10.482,2.0753 10.293,2.2643 C10.104,2.4533 10,2.7043 10,2.9713 C10,3.2383 10.104,3.4893 10.293,3.6783 C10.671,4.0563 11.33,4.0563 11.707,3.6783 L11.707,3.6783 C11.896,3.4893 12,3.2383 12,2.9713 C12,2.7043 11.896,2.4533 11.707,2.2643 C11.518,2.0753 11.267,1.9713 11,1.9713 M11,5.9713 C10.199,5.9713 9.445,5.6593 8.878,5.0923 C8.312,4.5263 8,3.7723 8,2.9713 C8,2.1703 8.312,1.4163 8.879,0.8493 C10.012,-0.2827 11.988,-0.2837 13.122,0.8503 C13.688,1.4163 14,2.1703 14,2.9713 C14,3.7723 13.688,4.5263 13.122,5.0923 L13.121,5.0923 L13.121,5.0933 C12.555,5.6593 11.801,5.9713 11,5.9713" id="Fill-6" fill="#FFFFFF"></path>
        <path d="M11,27.9713 C10.733,27.9713 10.482,28.0753 10.293,28.2643 C10.104,28.4533 10,28.7043 10,28.9713 C10,29.2383 10.104,29.4893 10.293,29.6783 C10.671,30.0563 11.33,30.0563 11.707,29.6783 L11.707,29.6783 C11.896,29.4893 12,29.2383 12,28.9713 C12,28.7043 11.896,28.4533 11.707,28.2643 C11.518,28.0753 11.267,27.9713 11,27.9713 M11,31.9713 C10.199,31.9713 9.445,31.6593 8.878,31.0923 C8.312,30.5263 8,29.7723 8,28.9713 C8,28.1703 8.312,27.4163 8.879,26.8493 C10.012,25.7173 11.988,25.7163 13.122,26.8503 C13.688,27.4163 14,28.1703 14,28.9713 C14,29.7723 13.688,30.5263 13.122,31.0923 L13.121,31.0923 L13.121,31.0933 C12.555,31.6593 11.801,31.9713 11,31.9713" id="Fill-9" fill="#FFFFFF"></path>
        <path d="M11,11.9713 C10.733,11.9713 10.482,12.0753 10.293,12.2643 C10.104,12.4533 10,12.7043 10,12.9713 C10,13.2383 10.104,13.4893 10.293,13.6783 C10.671,14.0563 11.33,14.0563 11.707,13.6783 L11.707,13.6783 C11.896,13.4893 12,13.2383 12,12.9713 C12,12.7043 11.896,12.4533 11.707,12.2643 C11.518,12.0753 11.267,11.9713 11,11.9713 M11,15.9713 C10.199,15.9713 9.445,15.6593 8.878,15.0923 C8.312,14.5263 8,13.7723 8,12.9713 C8,12.1703 8.312,11.4163 8.879,10.8493 C10.012,9.7173 11.988,9.7163 13.122,10.8503 C13.688,11.4163 14,12.1703 14,12.9713 C14,13.7723 13.688,14.5263 13.122,15.0923 L13.121,15.0923 L13.121,15.0933 C12.555,15.6593 11.801,15.9713 11,15.9713" id="Fill-11" fill="#FFFFFF"></path>
        <path d="M21,1.9713 C20.733,1.9713 20.482,2.0753 20.293,2.2643 C20.104,2.4533 20,2.7043 20,2.9713 C20,3.2383 20.104,3.4893 20.293,3.6783 L20.293,3.6783 C20.67,4.0563 21.33,4.0563 21.707,3.6783 C21.896,3.4893 22,3.2383 22,2.9713 C22,2.7043 21.896,2.4533 21.707,2.2643 C21.518,2.0753 21.267,1.9713 21,1.9713 M21,5.9713 C20.199,5.9713 19.445,5.6593 18.879,5.0933 L18.879,5.0923 L18.878,5.0923 C18.312,4.5263 18,3.7723 18,2.9713 C18,2.1703 18.312,1.4163 18.879,0.8493 C20.012,-0.2827 21.988,-0.2837 23.122,0.8503 C23.688,1.4163 24,2.1703 24,2.9713 C24,3.7723 23.688,4.5263 23.121,5.0933 C22.555,5.6593 21.801,5.9713 21,5.9713" id="Fill-13" fill="#FFFFFF"></path>
        <path d="M21,27.9713 C20.733,27.9713 20.482,28.0753 20.293,28.2643 C20.104,28.4533 20,28.7043 20,28.9713 C20,29.2383 20.104,29.4893 20.293,29.6783 L20.293,29.6783 C20.67,30.0563 21.33,30.0563 21.707,29.6783 C21.896,29.4893 22,29.2383 22,28.9713 C22,28.7043 21.896,28.4533 21.707,28.2643 C21.518,28.0753 21.267,27.9713 21,27.9713 M21,31.9713 C20.199,31.9713 19.445,31.6593 18.879,31.0933 L18.879,31.0923 L18.878,31.0923 C18.312,30.5263 18,29.7723 18,28.9713 C18,28.1703 18.312,27.4163 18.879,26.8493 C20.012,25.7173 21.988,25.7163 23.122,26.8503 C23.688,27.4163 24,28.1703 24,28.9713 C24,29.7723 23.688,30.5263 23.121,31.0933 C22.555,31.6593 21.801,31.9713 21,31.9713" id="Fill-16" fill="#FFFFFF"></path>
        <path d="M21,11.9713 C20.733,11.9713 20.482,12.0753 20.293,12.2643 C20.104,12.4533 20,12.7043 20,12.9713 C20,13.2383 20.104,13.4893 20.293,13.6783 L20.293,13.6783 C20.67,14.0563 21.33,14.0563 21.707,13.6783 C21.896,13.4893 22,13.2383 22,12.9713 C22,12.7043 21.896,12.4533 21.707,12.2643 C21.518,12.0753 21.267,11.9713 21,11.9713 M21,15.9713 C20.199,15.9713 19.445,15.6593 18.879,15.0933 L18.879,15.0923 L18.878,15.0923 C18.312,14.5263 18,13.7723 18,12.9713 C18,12.1703 18.312,11.4163 18.879,10.8493 C20.012,9.7173 21.988,9.7163 23.122,10.8503 C23.688,11.4163 24,12.1703 24,12.9713 C24,13.7723 23.688,14.5263 23.121,15.0933 C22.555,15.6593 21.801,15.9713 21,15.9713" id="Fill-18" fill="#FFFFFF"></path>
    </g>
</svg>