<svg width="32" height="32" viewBox="0 0 32 32" fill="none" xmlns="http://www.w3.org/2000/svg">
<path d="M9.01886 13.8784C9.01886 14.2676 9.06142 14.5831 9.13592 14.8145C9.22105 15.0459 9.32747 15.2983 9.47646 15.5717C9.52967 15.6559 9.55095 15.74 9.55095 15.8136C9.55095 15.9188 9.4871 16.024 9.34876 16.1291L8.67831 16.5709C8.58253 16.634 8.48676 16.6655 8.40162 16.6655C8.2952 16.6655 8.18878 16.613 8.08236 16.5183C7.93337 16.3605 7.80567 16.1923 7.69925 16.024C7.59283 15.8452 7.48641 15.6453 7.36935 15.4034C6.53927 16.3711 5.49635 16.8549 4.2406 16.8549C3.34667 16.8549 2.63366 16.6024 2.1122 16.0976C1.59074 15.5928 1.32469 14.9196 1.32469 14.0782C1.32469 13.1843 1.64395 12.4586 2.29311 11.9117C2.94228 11.3647 3.80428 11.0913 4.9004 11.0913C5.26223 11.0913 5.6347 11.1228 6.02845 11.1754C6.42221 11.228 6.8266 11.3122 7.25228 11.4068V10.639C7.25228 9.83971 7.08201 9.28229 6.75211 8.95625C6.41157 8.63021 5.8369 8.47245 5.01746 8.47245C4.64499 8.47245 4.26188 8.51452 3.86813 8.60917C3.47438 8.70383 3.09126 8.81952 2.71879 8.96677C2.54852 9.04039 2.42082 9.08246 2.34632 9.10349C2.27183 9.12453 2.21862 9.13505 2.17605 9.13505C2.02706 9.13505 1.95257 9.02987 1.95257 8.809V8.29365C1.95257 8.12537 1.97385 7.99916 2.02706 7.92554C2.08027 7.85192 2.17605 7.77829 2.32504 7.70467C2.69751 7.51536 3.14447 7.3576 3.66593 7.23139C4.18739 7.09466 4.74077 7.03156 5.32608 7.03156C6.59248 7.03156 7.51833 7.31553 8.11429 7.88347C8.6996 8.45141 8.99757 9.31384 8.99757 10.4708V13.8784H9.01886ZM4.6982 15.4771C5.04939 15.4771 5.41122 15.414 5.79433 15.2878C6.17744 15.1615 6.51799 14.9302 6.80532 14.6146C6.97559 14.4148 7.1033 14.1939 7.16715 13.9415C7.231 13.6891 7.27357 13.3841 7.27357 13.0265V12.5848C6.96495 12.5111 6.63505 12.448 6.2945 12.406C5.95396 12.3639 5.62406 12.3429 5.29416 12.3429C4.58114 12.3429 4.05968 12.4796 3.7085 12.7636C3.35731 13.0475 3.18704 13.4472 3.18704 13.9731C3.18704 14.4674 3.31474 14.8355 3.58079 15.0879C3.8362 15.3509 4.20867 15.4771 4.6982 15.4771ZM13.2437 16.613C13.0522 16.613 12.9245 16.5814 12.8393 16.5078C12.7542 16.4447 12.6797 16.2974 12.6158 16.0976L10.115 7.96761C10.0511 7.75726 10.0192 7.62053 10.0192 7.54691C10.0192 7.37863 10.1043 7.28397 10.2746 7.28397H11.3175C11.5197 7.28397 11.6581 7.31553 11.7326 7.38915C11.8177 7.45225 11.8816 7.5995 11.9454 7.79933L13.7333 14.7619L15.3934 7.79933C15.4466 7.58898 15.5105 7.45225 15.5956 7.38915C15.6807 7.32604 15.8297 7.28397 16.0213 7.28397H16.8726C17.0748 7.28397 17.2132 7.31553 17.2983 7.38915C17.3835 7.45225 17.458 7.5995 17.5005 7.79933L19.182 14.846L21.023 7.79933C21.0869 7.58898 21.1614 7.45225 21.2359 7.38915C21.321 7.32604 21.4593 7.28397 21.6509 7.28397H22.6406C22.8109 7.28397 22.9067 7.36811 22.9067 7.54691C22.9067 7.5995 22.896 7.65209 22.8854 7.71519C22.8747 7.77829 22.8534 7.86243 22.8109 7.97813L20.2462 16.1081C20.1823 16.3185 20.1078 16.4552 20.0227 16.5183C19.9375 16.5814 19.7992 16.6235 19.6183 16.6235H18.7031C18.5009 16.6235 18.3625 16.5919 18.2774 16.5183C18.1923 16.4447 18.1178 16.3079 18.0752 16.0976L16.4257 9.31384L14.7868 16.0871C14.7336 16.2974 14.6698 16.4342 14.5846 16.5078C14.4995 16.5814 14.3505 16.613 14.1589 16.613H13.2437ZM26.9187 16.8969C26.3653 16.8969 25.8119 16.8338 25.2798 16.7076C24.7477 16.5814 24.3327 16.4447 24.056 16.2869C23.8857 16.1923 23.7687 16.0871 23.7261 15.9924C23.6835 15.8978 23.6622 15.7926 23.6622 15.6979V15.1615C23.6622 14.9407 23.7474 14.8355 23.907 14.8355C23.9709 14.8355 24.0347 14.846 24.0986 14.8671C24.1624 14.8881 24.2582 14.9302 24.3646 14.9722C24.7264 15.13 25.1202 15.2562 25.5352 15.3403C25.9609 15.4245 26.3759 15.4665 26.8016 15.4665C27.4721 15.4665 27.9935 15.3509 28.3554 15.1195C28.7172 14.8881 28.9087 14.5515 28.9087 14.1203C28.9087 13.8258 28.813 13.5839 28.6214 13.3841C28.4299 13.1843 28.068 13.0055 27.5466 12.8372L26.0035 12.3639C25.2266 12.122 24.6519 11.7644 24.3008 11.2911C23.9496 10.8284 23.7687 10.313 23.7687 9.76609C23.7687 9.32436 23.8644 8.93521 24.056 8.59866C24.2476 8.2621 24.503 7.96761 24.8222 7.73622C25.1415 7.49432 25.5033 7.31553 25.929 7.18932C26.3547 7.06311 26.8016 7.01052 27.2699 7.01052C27.504 7.01052 27.7488 7.02104 27.9829 7.05259C28.2277 7.08414 28.4511 7.12621 28.6746 7.16828C28.8875 7.22087 29.0897 7.27346 29.2812 7.33656C29.4728 7.39967 29.6218 7.46277 29.7282 7.52588C29.8772 7.61002 29.9836 7.69416 30.0474 7.78881C30.1113 7.87295 30.1432 7.98864 30.1432 8.13589V8.63021C30.1432 8.85107 30.0581 8.96677 29.8985 8.96677C29.8133 8.96677 29.675 8.9247 29.4941 8.84056C28.8875 8.5671 28.2064 8.43038 27.4508 8.43038C26.8442 8.43038 26.3653 8.52503 26.0354 8.72487C25.7055 8.9247 25.5352 9.2297 25.5352 9.66092C25.5352 9.95541 25.6417 10.2078 25.8545 10.4077C26.0673 10.6075 26.4611 10.8073 27.0251 10.9861L28.5363 11.4594C29.3025 11.7013 29.8559 12.0379 30.1858 12.4691C30.5157 12.9003 30.6753 13.3946 30.6753 13.9415C30.6753 14.3938 30.5795 14.804 30.3986 15.1615C30.2071 15.5191 29.9517 15.8347 29.6218 16.0871C29.2919 16.35 28.8981 16.5393 28.4405 16.6761C27.9616 16.8233 27.4614 16.8969 26.9187 16.8969Z" fill="#252F3E"/>
<path fill-rule="evenodd" clip-rule="evenodd" d="M28.93 22.0089C25.4288 24.5646 20.3419 25.9214 15.9681 25.9214C9.83829 25.9214 4.31509 23.6811 0.143432 19.958C-0.18647 19.6635 0.111506 19.2638 0.50526 19.4952C5.01747 22.0825 10.5832 23.6496 16.3405 23.6496C20.2249 23.6496 24.4923 22.8503 28.4192 21.2095C29.0045 20.9466 29.5047 21.5882 28.93 22.0089Z" fill="#FF9900"/>
<path fill-rule="evenodd" clip-rule="evenodd" d="M30.388 20.3681C29.941 19.8002 27.4295 20.0947 26.2908 20.2314C25.9503 20.2735 25.8971 19.979 26.2057 19.7581C28.2064 18.3698 31.4948 18.7695 31.8779 19.2323C32.261 19.7055 31.7714 22.9554 29.8985 24.512C29.6111 24.7539 29.3344 24.6277 29.4621 24.3122C29.8878 23.271 30.8349 20.9256 30.388 20.3681Z" fill="#FF9900"/>
</svg>
