<svg xmlns="http://www.w3.org/2000/svg" width="810" height="512" viewBox="0 0 810 512">
  <g fill="none" fill-rule="evenodd">
    <rect width="810" height="512" fill="#006FCF" rx="50"/>
    <g fill-rule="nonzero" transform="translate(150.504 5)">
      <path fill="#006FCF" d="M507.496086,274.389755 L507.496086,0 L0.496086106,0 L0.496086106,507 L507.496086,507 L507.496086,359.077951 C506.36691,359.077951 507.496086,274.389755 507.496086,274.389755"/>
      <path fill="#FFF" d="M445.391409,246.248649 L483.783391,246.248649 L483.783391,157 L442.003881,157 L442.003881,169.427027 L434.09965,157 L397.966019,157 L397.966019,172.816216 L391.190964,157 L324.569583,157 C322.311231,157 320.052879,158.12973 317.794527,158.12973 C315.536175,158.12973 314.406999,159.259459 312.148647,160.389189 C309.890295,161.518919 308.76112,161.518919 306.502768,162.648649 L306.502768,157 L115.672033,157 L110.026153,171.686486 L104.380273,157 L59.2132353,157 L59.2132353,172.816216 L52.4381796,157 L16.3045494,157 L0.496086106,195.410811 L0.496086106,246.248649 L26.4671329,246.248649 L30.9838367,233.821622 L40.0172442,233.821622 L44.533948,246.248649 L243.268915,246.248649 L243.268915,234.951351 L251.173146,246.248649 L306.502768,246.248649 L306.502768,239.47027 C307.631944,240.6 309.890295,240.6 311.019471,241.72973 C312.148647,242.859459 314.406999,242.859459 315.536175,243.989189 C317.794527,245.118919 320.052879,245.118919 322.311231,245.118919 L362.961565,245.118919 L367.478269,232.691892 L376.511676,232.691892 L381.02838,245.118919 L436.358001,245.118919 L436.358001,233.821622 L445.391409,246.248649 L445.391409,246.248649 Z M507.496086,359.221622 L507.496086,275.621622 L196.972701,275.621622 L189.068469,286.918919 L181.164238,275.621622 L90.8301618,275.621622 L90.8301618,364.87027 L181.164238,364.87027 L189.068469,353.572973 L196.972701,364.87027 L253.431498,364.87027 L253.431498,345.664865 L251.173146,345.664865 C259.077378,345.664865 265.852434,344.535135 271.498313,342.275676 L271.498313,366 L312.148647,366 L312.148647,354.702703 L320.052879,366 L488.300095,366 C495.075151,363.740541 501.850206,362.610811 507.496086,359.221622 L507.496086,359.221622 Z"/>
      <path fill="#006FCF" d="M488.300095,337.537975 L457.812344,337.537975 L457.812344,350 L487.170919,350 C499.591854,350 507.496086,342.06962 507.496086,330.740506 C507.496086,319.411392 500.72103,313.746835 489.429271,313.746835 L475.87916,313.746835 C472.491632,313.746835 470.23328,311.481013 470.23328,308.082278 C470.23328,304.683544 472.491632,302.417722 475.87916,302.417722 L501.850206,302.417722 L507.496086,289.955696 L477.008336,289.955696 C464.5874,289.955696 456.683169,297.886076 456.683169,308.082278 C456.683169,319.411392 463.458224,325.075949 474.749984,325.075949 L488.300095,325.075949 C491.687623,325.075949 493.945975,327.341772 493.945975,330.740506 C495.075151,335.272152 492.816799,337.537975 488.300095,337.537975 L488.300095,337.537975 Z M432.970474,337.537975 L402.482723,337.537975 L402.482723,350 L431.841298,350 C444.262233,350 452.166465,342.06962 452.166465,330.740506 C452.166465,319.411392 445.391409,313.746835 434.09965,313.746835 L420.549538,313.746835 C417.16201,313.746835 414.903658,311.481013 414.903658,308.082278 C414.903658,304.683544 417.16201,302.417722 420.549538,302.417722 L446.520585,302.417722 L452.166465,289.955696 L421.678714,289.955696 C409.257779,289.955696 401.353547,297.886076 401.353547,308.082278 C401.353547,319.411392 408.128603,325.075949 419.420362,325.075949 L432.970474,325.075949 C436.358001,325.075949 438.616353,327.341772 438.616353,330.740506 C439.745529,335.272152 436.358001,337.537975 432.970474,337.537975 L432.970474,337.537975 Z M393.449316,301.28481 L393.449316,288.822785 L346.023926,288.822785 L346.023926,348.867089 L393.449316,348.867089 L393.449316,336.405063 L359.574037,336.405063 L359.574037,323.943038 L392.32014,323.943038 L392.32014,311.481013 L359.574037,311.481013 L359.574037,300.151899 L393.449316,300.151899 L393.449316,301.28481 L393.449316,301.28481 Z M316.665351,301.28481 C322.311231,301.28481 324.569583,304.683544 324.569583,308.082278 C324.569583,311.481013 322.311231,314.879747 316.665351,314.879747 L299.727712,314.879747 L299.727712,300.151899 L316.665351,301.28481 L316.665351,301.28481 Z M299.727712,327.341772 L306.502768,327.341772 L324.569583,348.867089 L341.507222,348.867089 L321.182055,326.208861 C331.344638,323.943038 336.990518,317.14557 336.990518,308.082278 C336.990518,296.753165 329.086287,288.822785 316.665351,288.822785 L285.048425,288.822785 L285.048425,348.867089 L298.598536,348.867089 L299.727712,327.341772 Z M263.594082,309.21519 C263.594082,313.746835 261.33573,317.14557 255.68985,317.14557 L237.623035,317.14557 L237.623035,301.28481 L254.560674,301.28481 C260.206554,301.28481 263.594082,304.683544 263.594082,309.21519 L263.594082,309.21519 Z M224.072924,288.822785 L224.072924,348.867089 L237.623035,348.867089 L237.623035,328.474684 L255.68985,328.474684 C268.110785,328.474684 277.144193,320.544304 277.144193,308.082278 C277.144193,296.753165 269.239961,287.689873 256.819026,287.689873 L224.072924,288.822785 L224.072924,288.822785 Z M203.747756,348.867089 L220.685396,348.867089 L196.972701,318.278481 L220.685396,288.822785 L203.747756,288.822785 L189.068469,308.082278 L174.389182,288.822785 L157.451543,288.822785 L181.164238,318.278481 L157.451543,347.734177 L174.389182,347.734177 L189.068469,328.474684 L203.747756,348.867089 L203.747756,348.867089 Z M152.934839,301.28481 L152.934839,288.822785 L105.509449,288.822785 L105.509449,348.867089 L152.934839,348.867089 L152.934839,336.405063 L119.05956,336.405063 L119.05956,323.943038 L151.805663,323.943038 L151.805663,311.481013 L119.05956,311.481013 L119.05956,300.151899 L152.934839,300.151899 L152.934839,301.28481 L152.934839,301.28481 Z M427.324594,194.791139 L451.037289,231.044304 L467.974928,231.044304 L467.974928,171 L454.424817,171 L454.424817,210.651899 L451.037289,204.987342 L429.582946,171 L411.516131,171 L411.516131,231.044304 L425.066242,231.044304 L425.066242,190.259494 L427.324594,194.791139 L427.324594,194.791139 Z M368.607445,193.658228 L373.124148,181.196203 L377.640852,193.658228 L383.286732,207.253165 L362.961565,207.253165 L368.607445,193.658228 Z M392.32014,231.044304 L406.999427,231.044304 L381.02838,171 L362.961565,171 L336.990518,231.044304 L351.669805,231.044304 L357.315685,218.582278 L386.67426,218.582278 L392.32014,231.044304 Z M329.086287,231.044304 L334.732166,218.582278 L331.344638,218.582278 C321.182055,218.582278 315.536175,211.78481 315.536175,201.588608 L315.536175,200.455696 C315.536175,190.259494 321.182055,183.462025 331.344638,183.462025 L346.023926,183.462025 L346.023926,171 L330.215462,171 C312.148647,171 301.986064,183.462025 301.986064,200.455696 L301.986064,201.588608 C301.986064,219.71519 312.148647,231.044304 329.086287,231.044304 Z M278.273369,231.044304 L291.82348,231.044304 L291.82348,172.132911 L278.273369,172.132911 L278.273369,231.044304 Z M248.914794,183.462025 C254.560674,183.462025 256.819026,186.860759 256.819026,190.259494 C256.819026,193.658228 254.560674,197.056962 248.914794,197.056962 L231.977155,197.056962 L231.977155,182.329114 L248.914794,183.462025 L248.914794,183.462025 Z M231.977155,209.518987 L238.752211,209.518987 L256.819026,231.044304 L273.756665,231.044304 L253.431498,208.386076 C263.594082,206.120253 269.239961,199.322785 269.239961,190.259494 C269.239961,178.93038 261.33573,171 248.914794,171 L217.297868,171 L217.297868,231.044304 L230.847979,231.044304 L231.977155,209.518987 Z M207.135284,183.462025 L207.135284,171 L159.709895,171 L159.709895,231.044304 L207.135284,231.044304 L207.135284,218.582278 L173.260006,218.582278 L173.260006,206.120253 L206.006108,206.120253 L206.006108,193.658228 L173.260006,193.658228 L173.260006,182.329114 L207.135284,182.329114 L207.135284,183.462025 L207.135284,183.462025 Z M104.380273,231.044304 L116.801209,231.044304 L133.738848,182.329114 L133.738848,231.044304 L147.288959,231.044304 L147.288959,171 L124.70544,171 L111.155329,211.78481 L97.6052175,171 L75.0216986,171 L75.0216986,231.044304 L88.5718099,231.044304 L88.5718099,182.329114 L104.380273,231.044304 Z M30.9838367,193.658228 L35.5005404,181.196203 L40.0172442,193.658228 L45.663124,207.253165 L25.3379569,207.253165 L30.9838367,193.658228 L30.9838367,193.658228 Z M54.6965315,231.044304 L69.3758188,231.044304 L43.4047721,171 L26.4671329,171 L0.496086106,231.044304 L15.1753734,231.044304 L20.8212531,218.582278 L50.1798278,218.582278 L54.6965315,231.044304 Z"/>
    </g>
  </g>
</svg>
