<svg xmlns="http://www.w3.org/2000/svg" xmlns:xlink="http://www.w3.org/1999/xlink" width="810" height="512" viewBox="0 0 810 512">
  <defs>
    <path id="card_visa-a" d="M257.917602,111.831421 C257.633475,89.4302443 277.881268,76.9286529 293.134406,69.4964866 C308.806258,61.8699177 314.070086,56.9799411 314.010269,50.1608912 C313.890637,39.7229595 301.508678,35.1171101 289.919284,34.9376614 C269.701399,34.6236262 257.94751,40.3958921 248.601225,44.7624767 L241.318599,10.6821812 C250.694793,6.36045883 268.056453,2.59203651 286.061137,2.42754189 C328.321302,2.42754189 355.971353,23.2884511 356.120893,55.634076 C356.285388,96.6829619 299.34034,98.9559785 299.729145,117.304606 C299.863732,122.867515 305.172422,128.804276 316.806678,130.314636 C322.56399,131.077293 338.460152,131.660501 356.479791,123.360999 L363.55306,156.334694 C353.862831,159.863852 341.406101,163.243469 325.898745,163.243469 C286.120953,163.243469 258.141913,142.098432 257.917602,111.831421 M431.519248,160.402198 C423.802954,160.402198 417.29794,155.901027 414.396853,148.992253 L354.027325,4.85009909 L396.257582,4.85009909 L404.661762,28.0737493 L456.268212,28.0737493 L461.143234,4.85009909 L498.363882,4.85009909 L465.88367,160.402198 L431.519248,160.402198 M437.4261,118.381298 L449.613656,59.9707525 L416.236202,59.9707525 L437.4261,118.381298 M206.714912,160.402198 L173.427181,4.85009909 L213.668548,4.85009909 L246.941325,160.402198 L206.714912,160.402198 M147.182812,160.402198 L105.296499,54.5274758 L88.3535523,144.550898 C86.3646627,154.600024 78.5137829,160.402198 69.7955678,160.402198 L1.32094168,160.402198 L0.363882049,155.886073 C14.4206954,152.835445 30.3916281,147.91556 40.0669029,142.651733 C45.9887093,139.43661 47.6785178,136.625248 49.6225451,128.983725 L81.713951,4.85009909 L124.243289,4.85009909 L189.442976,160.402198 L147.182812,160.402198"/>
    <linearGradient id="card_visa-c" x1="16.148%" x2="85.832%" y1="39.935%" y2="60.549%">
      <stop offset="0%" stop-color="#222357"/>
      <stop offset="100%" stop-color="#254AA5"/>
    </linearGradient>
  </defs>
  <g fill="none" fill-rule="evenodd">
    <rect width="810" height="512" fill="#FFF" rx="50"/>
    <path fill="#222D6B" d="M64,14 L746,14 C773.614237,14 796,36.3857625 796,64 L796,108 L796,108 L14,108 L14,64 C14,36.3857625 36.3857625,14 64,14 Z"/>
    <path fill="#F79F19" d="M14,404 L796,404 L796,448 C796,475.614237 773.614237,498 746,498 L64,498 C36.3857625,498 14,475.614237 14,448 L14,404 L14,404 Z"/>
    <g transform="matrix(1 0 0 -1 155.636 338.243)">
      <mask id="card_visa-b" fill="#fff">
        <use xlink:href="#card_visa-a"/>
      </mask>
      <g mask="url(#card_visa-b)">
        <polyline fill="url(#card_visa-c)" fill-rule="nonzero" points="0 304.066 490.677 484.771 602.305 181.657 111.632 .952" transform="translate(-51.786 -160.028)"/>
      </g>
    </g>
  </g>
</svg>
