<?xml version="1.0" encoding="UTF-8" standalone="no"?>
<svg width="15px" height="22px" viewBox="0 0 110 115" version="1.1" xmlns="http://www.w3.org/2000/svg" xmlns:xlink="http://www.w3.org/1999/xlink">
    <!-- Generator: Sketch 3.8.3 (29802) - http://www.bohemiancoding.com/sketch -->
    <title>Cloud Logo</title>
    <desc>Created with Sketch.</desc>
    <defs>
        <path d="M0.167912727,55.5112904 C0.167912727,85.9113269 25.0247094,110.645558 55.5753869,110.645558 L55.5753869,110.645558 C86.1260643,110.645558 110.982861,85.9113269 110.982861,55.5112904 L110.982861,55.5112904 C110.982861,25.1090294 86.1260643,0.379247104 55.5753869,0.379247104 L55.5753869,0.379247104 C25.0247094,0.379247104 0.167912727,25.1090294 0.167912727,55.5112904 M40.8455161,55.5112904 C40.8455161,47.4296767 47.4850238,40.8229075 55.6044487,40.8229075 L55.6044487,40.8229075 C63.7261091,40.8229075 70.3030221,47.4296767 70.3030221,55.5112904 L70.3030221,55.5112904 C70.3030221,63.5929041 63.6970473,70.1685303 55.5753869,70.1685303 L55.5753869,70.1685303 C47.4537264,70.1685303 40.8455161,63.5929041 40.8455161,55.5112904" id="path-1"></path>
        <path d="M0.167912727,55.5112904 C0.167912727,85.9113269 25.0247094,110.645558 55.5753869,110.645558 L55.5753869,110.645558 C86.1260643,110.645558 110.982861,85.9113269 110.982861,55.5112904 L110.982861,55.5112904 C110.982861,25.1090294 86.1260643,0.379247104 55.5753869,0.379247104 L55.5753869,0.379247104 C25.0247094,0.379247104 0.167912727,25.1090294 0.167912727,55.5112904 M40.8455161,55.5112904 C40.8455161,47.4296767 47.4850238,40.8229075 55.6044487,40.8229075 L55.6044487,40.8229075 C63.7261091,40.8229075 70.3030221,47.4296767 70.3030221,55.5112904 L70.3030221,55.5112904 C70.3030221,63.5929041 63.6970473,70.1685303 55.5753869,70.1685303 L55.5753869,70.1685303 C47.4537264,70.1685303 40.8455161,63.5929041 40.8455161,55.5112904" id="path-3"></path>
        <path d="M0.167912727,55.5112904 C0.167912727,85.9113269 25.0247094,110.645558 55.5753869,110.645558 L55.5753869,110.645558 C86.1260643,110.645558 110.982861,85.9113269 110.982861,55.5112904 L110.982861,55.5112904 C110.982861,25.1090294 86.1260643,0.379247104 55.5753869,0.379247104 L55.5753869,0.379247104 C25.0247094,0.379247104 0.167912727,25.1090294 0.167912727,55.5112904 M40.8455161,55.5112904 C40.8455161,47.4296767 47.4850238,40.8229075 55.6044487,40.8229075 L55.6044487,40.8229075 C63.7261091,40.8229075 70.3030221,47.4296767 70.3030221,55.5112904 L70.3030221,55.5112904 C70.3030221,63.5929041 63.6970473,70.1685303 55.5753869,70.1685303 L55.5753869,70.1685303 C47.4537264,70.1685303 40.8455161,63.5929041 40.8455161,55.5112904" id="path-5"></path>
        <path d="M0.167912727,55.5112904 C0.167912727,85.9113269 25.0247094,110.645558 55.5753869,110.645558 L55.5753869,110.645558 C86.1260643,110.645558 110.982861,85.9113269 110.982861,55.5112904 L110.982861,55.5112904 C110.982861,25.1090294 86.1260643,0.379247104 55.5753869,0.379247104 L55.5753869,0.379247104 C25.0247094,0.379247104 0.167912727,25.1090294 0.167912727,55.5112904 M40.8455161,55.5112904 C40.8455161,47.4296767 47.4850238,40.8229075 55.6044487,40.8229075 L55.6044487,40.8229075 C63.7261091,40.8229075 70.3030221,47.4296767 70.3030221,55.5112904 L70.3030221,55.5112904 C70.3030221,63.5929041 63.6970473,70.1685303 55.5753869,70.1685303 L55.5753869,70.1685303 C47.4537264,70.1685303 40.8455161,63.5929041 40.8455161,55.5112904" id="path-7"></path>
        <path d="M0.167912727,55.5112904 C0.167912727,85.9113269 25.0247094,110.645558 55.5753869,110.645558 L55.5753869,110.645558 C86.1260643,110.645558 110.982861,85.9113269 110.982861,55.5112904 L110.982861,55.5112904 C110.982861,25.1090294 86.1260643,0.379247104 55.5753869,0.379247104 L55.5753869,0.379247104 C25.0247094,0.379247104 0.167912727,25.1090294 0.167912727,55.5112904 M40.8455161,55.5112904 C40.8455161,47.4296767 47.4850238,40.8229075 55.6044487,40.8229075 L55.6044487,40.8229075 C63.7261091,40.8229075 70.3030221,47.4296767 70.3030221,55.5112904 L70.3030221,55.5112904 C70.3030221,63.5929041 63.6970473,70.1685303 55.5753869,70.1685303 L55.5753869,70.1685303 C47.4537264,70.1685303 40.8455161,63.5929041 40.8455161,55.5112904" id="path-9"></path>
    </defs>
    <g id="Cloud" stroke="none" stroke-width="1" fill="none" fill-rule="evenodd">
        <g id="CE-Login" transform="translate(-338.000000, -295.000000)">
            <g id="Cloud-Logo" transform="translate(338.000000, 295.000000)">
                <g transform="translate(-0.000000, 0.000000)" id="Icon">
                    <g transform="translate(0.000000, 0.000000)">
                        <mask id="mask-2" fill="white">
                            <use xlink:href="#path-1"></use>
                        </mask>
                        <g id="Clip-14"></g>
                        <path d="M55.6520653,70.1709772 C49.8285241,91.0056576 32.0292782,106.866353 10.089841,109.945063 C9.83722674,111.884828 9.66285583,113.846838 9.66285583,115.853338 C9.66285583,141.083634 30.2185034,161.537924 55.5760575,161.537924 C80.9313761,161.537924 101.487024,141.083634 101.487024,115.853338 C101.487024,90.6475129 80.9716156,70.2132428 55.6520653,70.1709772" id="Fill-13" fill-opacity="0.7" fill="#6EADC1" mask="url(#mask-2)"></path>
                        <mask id="mask-4" fill="white">
                            <use xlink:href="#path-3"></use>
                        </mask>
                        <g id="Clip-11"></g>
                        <path d="M55.7242728,40.8180136 C81.0125257,40.7379315 101.487694,20.3214575 101.487694,-4.85989865 C101.487694,-30.0901938 80.9320468,-50.5444844 55.5767282,-50.5444844 C30.219174,-50.5444844 9.66352649,-30.0901938 9.66352649,-4.85989865 C9.66352649,-2.94460292 9.8200132,-1.06712372 10.0502722,0.785885964 C32.0970146,3.86459594 49.9700328,19.8476387 55.7242728,40.8180136" id="Fill-10" fill-opacity="0.7" fill="#6EADC1" mask="url(#mask-4)"></path>
                        <mask id="mask-6" fill="white">
                            <use xlink:href="#path-5"></use>
                        </mask>
                        <g id="Clip-8"></g>
                        <path d="M55.5756104,70.1671956 C55.6002012,70.1671956 55.6270275,70.1716446 55.6516182,70.1716446 C56.9705777,65.4579261 57.688181,60.4995124 57.688181,55.3675876 C57.688181,50.3290919 56.9951684,45.4552093 55.723155,40.8171238 C55.6739735,40.8193483 55.6247919,40.8260218 55.5756104,40.8260218 C32.1450784,40.8260218 12.8502666,23.3481141 10.0491545,0.784996163 C7.51183418,0.431300437 4.92086131,0.235544311 2.28294243,0.235544311 C-28.3191521,0.235544311 -53.1245317,24.9186121 -53.1245317,55.3675876 C-53.1245317,85.8187876 -28.3191521,110.501855 2.28294243,110.501855 C4.93427446,110.501855 7.53866048,110.303875 10.0893939,109.94573 C13.0067533,87.5116332 32.2344994,70.1671956 55.5756104,70.1671956" id="Fill-7" fill="#6EADC1" mask="url(#mask-6)"></path>
                        <mask id="mask-8" fill="white">
                            <use xlink:href="#path-7"></use>
                        </mask>
                        <g id="Clip-5"></g>
                        <path d="M55.6520653,70.1709772 C55.6274746,70.1709772 55.6006483,70.1665282 55.5760575,70.1665282 C32.2349465,70.1665282 13.0072004,87.5131904 10.089841,109.945063 C32.0292782,106.866353 49.8285241,91.0056576 55.6520653,70.1709772" id="Fill-4" fill-opacity="0.5" fill="#6EADC1" mask="url(#mask-8)"></path>
                        <mask id="mask-10" fill="white">
                            <use xlink:href="#path-9"></use>
                        </mask>
                        <g id="Clip-2"></g>
                        <path d="M55.5756104,40.8253545 C55.6247919,40.8253545 55.6739735,40.8186809 55.723155,40.8186809 C49.9711505,19.848306 32.0958968,3.86526329 10.0491545,0.786553314 C12.8502666,23.3474468 32.1450784,40.8253545 55.5756104,40.8253545" id="Fill-1" fill-opacity="0.4" fill="#6EADC1" mask="url(#mask-10)"></path>
                    </g>
                </g>
            </g>
        </g>
    </g>
</svg>
