<svg width="192px" height="84px" viewBox="52 13 192 84" version="1.1" xmlns="http://www.w3.org/2000/svg" xmlns:xlink="http://www.w3.org/1999/xlink">
    <!-- Generator: Sketch 40.2 (33826) - http://www.bohemiancoding.com/sketch -->
    <desc>Created with Sketch.</desc>
    <defs>
        <path d="M0.105482064,34.6319207 C0.105482064,53.5976418 15.7204164,69.0286277 34.9122226,69.0286277 L34.9122226,69.0286277 C54.1040287,69.0286277 69.7189631,53.5976418 69.7189631,34.6319207 L69.7189631,34.6319207 C69.7189631,15.6648118 54.1040287,0.236601519 34.9122226,0.236601519 L34.9122226,0.236601519 C15.7204164,0.236601519 0.105482064,15.6648118 0.105482064,34.6319207 M25.6589802,34.6319207 C25.6589802,29.590031 29.8298908,25.4682549 34.9304791,25.4682549 L34.9304791,25.4682549 C40.0324717,25.4682549 44.1640606,29.590031 44.1640606,34.6319207 L44.1640606,34.6319207 C44.1640606,39.6738104 40.0142152,43.7761573 34.9122226,43.7761573 L34.9122226,43.7761573 C29.8102299,43.7761573 25.6589802,39.6738104 25.6589802,34.6319207" id="path-1"></path>
        <path d="M0.105482064,34.6319207 C0.105482064,53.5976418 15.7204164,69.0286277 34.9122226,69.0286277 L34.9122226,69.0286277 C54.1040287,69.0286277 69.7189631,53.5976418 69.7189631,34.6319207 L69.7189631,34.6319207 C69.7189631,15.6648118 54.1040287,0.236601519 34.9122226,0.236601519 L34.9122226,0.236601519 C15.7204164,0.236601519 0.105482064,15.6648118 0.105482064,34.6319207 M25.6589802,34.6319207 C25.6589802,29.590031 29.8298908,25.4682549 34.9304791,25.4682549 L34.9304791,25.4682549 C40.0324717,25.4682549 44.1640606,29.590031 44.1640606,34.6319207 L44.1640606,34.6319207 C44.1640606,39.6738104 40.0142152,43.7761573 34.9122226,43.7761573 L34.9122226,43.7761573 C29.8102299,43.7761573 25.6589802,39.6738104 25.6589802,34.6319207" id="path-3"></path>
        <path d="M0.105482064,34.6319207 C0.105482064,53.5976418 15.7204164,69.0286277 34.9122226,69.0286277 L34.9122226,69.0286277 C54.1040287,69.0286277 69.7189631,53.5976418 69.7189631,34.6319207 L69.7189631,34.6319207 C69.7189631,15.6648118 54.1040287,0.236601519 34.9122226,0.236601519 L34.9122226,0.236601519 C15.7204164,0.236601519 0.105482064,15.6648118 0.105482064,34.6319207 M25.6589802,34.6319207 C25.6589802,29.590031 29.8298908,25.4682549 34.9304791,25.4682549 L34.9304791,25.4682549 C40.0324717,25.4682549 44.1640606,29.590031 44.1640606,34.6319207 L44.1640606,34.6319207 C44.1640606,39.6738104 40.0142152,43.7761573 34.9122226,43.7761573 L34.9122226,43.7761573 C29.8102299,43.7761573 25.6589802,39.6738104 25.6589802,34.6319207" id="path-5"></path>
        <path d="M0.105482064,34.6319207 C0.105482064,53.5976418 15.7204164,69.0286277 34.9122226,69.0286277 L34.9122226,69.0286277 C54.1040287,69.0286277 69.7189631,53.5976418 69.7189631,34.6319207 L69.7189631,34.6319207 C69.7189631,15.6648118 54.1040287,0.236601519 34.9122226,0.236601519 L34.9122226,0.236601519 C15.7204164,0.236601519 0.105482064,15.6648118 0.105482064,34.6319207 M25.6589802,34.6319207 C25.6589802,29.590031 29.8298908,25.4682549 34.9304791,25.4682549 L34.9304791,25.4682549 C40.0324717,25.4682549 44.1640606,29.590031 44.1640606,34.6319207 L44.1640606,34.6319207 C44.1640606,39.6738104 40.0142152,43.7761573 34.9122226,43.7761573 L34.9122226,43.7761573 C29.8102299,43.7761573 25.6589802,39.6738104 25.6589802,34.6319207" id="path-7"></path>
        <path d="M0.105482064,34.6319207 C0.105482064,53.5976418 15.7204164,69.0286277 34.9122226,69.0286277 L34.9122226,69.0286277 C54.1040287,69.0286277 69.7189631,53.5976418 69.7189631,34.6319207 L69.7189631,34.6319207 C69.7189631,15.6648118 54.1040287,0.236601519 34.9122226,0.236601519 L34.9122226,0.236601519 C15.7204164,0.236601519 0.105482064,15.6648118 0.105482064,34.6319207 M25.6589802,34.6319207 C25.6589802,29.590031 29.8298908,25.4682549 34.9304791,25.4682549 L34.9304791,25.4682549 C40.0324717,25.4682549 44.1640606,29.590031 44.1640606,34.6319207 L44.1640606,34.6319207 C44.1640606,39.6738104 40.0142152,43.7761573 34.9122226,43.7761573 L34.9122226,43.7761573 C29.8102299,43.7761573 25.6589802,39.6738104 25.6589802,34.6319207" id="path-9"></path>
    </defs>
    <g id="Cloud-Logo" stroke="none" stroke-width="1" fill="none" fill-rule="evenodd" transform="translate(52.000000, 13.000000)">
        <g id="Page-1" transform="translate(70.000000, 12.000000)" fill="#FFFFFF">
            <g id="Cloud">
                <polygon id="Fill-4" points="26.4610375 40.7853474 30.7462875 40.7853474 30.7462875 0 26.4610375 0"></polygon>
                <path d="M42.46088,26.4423411 C42.46088,30.5884042 42.9660362,33.4960674 43.9759675,35.1615411 C44.984755,36.8289095 47.098405,37.6606989 50.3188237,37.6606989 C53.5377175,37.6606989 55.6422175,36.8372463 56.6338487,35.1903411 C57.6235737,33.5426779 58.1191987,30.6365305 58.1191987,26.4703832 C58.1191987,22.3053726 57.56753,19.4367411 56.4622862,17.8648674 C55.3570425,16.2937516 53.3104925,15.5074358 50.3188237,15.5074358 C47.3275362,15.5074358 45.26993,16.2937516 44.14753,17.8648674 C43.02208,19.4367411 42.46088,22.29552 42.46088,26.4423411 M38.0604925,26.5276042 C38.0604925,21.3394358 38.9941738,17.5905095 40.8615363,15.2804463 C42.7273737,12.9711411 45.8795487,11.8149726 50.3188237,11.8149726 C54.756955,11.8149726 57.8995987,12.9711411 59.74828,15.2804463 C61.5954362,17.5905095 62.5199675,21.3394358 62.5199675,26.5276042 C62.5199675,31.7157726 61.643855,35.4840253 59.89163,37.8312253 C58.13788,40.18032 54.9376675,41.3531621 50.2909925,41.3531621 C45.6424112,41.3531621 42.4406737,40.18032 40.6899738,37.8312253 C38.9362238,35.4840253 38.0604925,31.7157726 38.0604925,26.5276042" id="Fill-6"></path>
                <path d="M87.3239019,12.3829768 L91.6106769,12.3829768 L91.6106769,40.7850821 L87.3239019,40.7850821 L87.3239019,38.7975032 C84.4664331,40.5008716 81.6467081,41.3531242 78.8658706,41.3531242 C74.9794081,41.3531242 72.3979644,40.3508084 71.1230644,38.3427663 C69.8447331,36.33624 69.2072831,32.6252084 69.2072831,27.2092926 L69.2072831,12.3829768 L73.4940581,12.3829768 L73.4940581,27.1520716 C73.4940581,31.2803242 73.8554831,34.0451242 74.5806206,35.4460926 C75.3038519,36.84744 76.9420831,37.5477347 79.4937894,37.5477347 C80.7519144,37.5477347 82.0287206,37.3681137 83.3238269,37.0077347 C84.6177894,36.6484926 85.6090394,36.2972084 86.2949081,35.9565347 L87.3239019,35.4460926 L87.3239019,12.3829768 Z" id="Fill-7"></path>
                <path d="M106.926138,37.1495747 C107.612006,37.4152168 108.497269,37.5478484 109.583831,37.5478484 C110.668869,37.5478484 111.887725,37.3682274 113.240781,37.0078484 C114.592313,36.6482274 115.649519,36.2973221 116.413163,35.9566484 L117.555769,35.4458274 L117.555769,16.1892379 C115.11615,15.7345011 112.849619,15.5075116 110.75465,15.5075116 C107.858294,15.5075116 105.839575,16.42608 104.696969,18.26208 C103.554363,20.0999747 102.982488,22.9485221 102.982488,26.8111326 C102.982488,31.2046484 103.647769,34.1585432 104.982144,35.6728168 C105.591763,36.3928168 106.240269,36.8854484 106.926138,37.1495747 L106.926138,37.1495747 Z M121.784975,0.000227368421 L121.784975,40.7851958 L117.555769,40.7851958 L117.555769,38.85408 C114.620525,40.5210695 111.725694,41.3532379 108.868606,41.3532379 C107.343988,41.3532379 106.011138,41.1633853 104.868531,40.7851958 C103.725925,40.4073853 102.658044,39.7256589 101.668319,38.7400168 C99.6107125,36.6955958 98.5817188,32.9182484 98.5817188,27.4075958 C98.5817188,21.89808 99.504725,17.9214063 101.353406,15.4787116 C103.200563,13.0360168 106.25895,11.8150484 110.525519,11.8150484 C112.736006,11.8150484 115.078788,12.0613642 117.555769,12.5536168 L117.555769,0.000227368421 L121.784975,0.000227368421 Z" id="Fill-8"></path>
                <path d="M11.8860406,11.8151242 C13.1441656,11.8151242 15.2780219,12.0421137 18.2879906,12.4968505 L19.6582031,12.6673768 L19.4870219,16.1317137 C16.4393094,15.7917979 14.1914594,15.6212716 12.7434719,15.6212716 C9.50589688,15.6212716 7.30455938,16.3875032 6.14327188,17.9214821 C4.98045938,19.4554611 4.40057813,22.2952926 4.40057813,26.4424926 C4.40057813,30.5885558 4.94309688,33.4765137 6.02965938,35.1052295 C7.11431563,36.7335663 9.37169688,37.5479242 12.8010406,37.5479242 L19.5445906,37.0363453 L19.7161531,40.5582821 C16.1728156,41.0880505 13.5242719,41.3529347 11.7724281,41.3529347 C7.31409063,41.3529347 4.23702188,40.2172295 2.54236563,37.9450611 C0.846565625,35.6728926 -0.000190625,31.8390821 -0.000190625,26.4424926 C-0.000190625,21.0459032 0.913284375,17.25984 2.74366563,15.0812716 C4.57214063,12.9042189 7.61947188,11.8151242 11.8860406,11.8151242" id="Fill-1"></path>
            </g>
            <polygon id="Fill-9" points="27.4812625 67.0770568 27.4812625 51.8763411 36.784525 51.8763411 36.784525 53.3701516 29.1816375 53.3701516 29.1816375 58.6200884 35.4585375 58.6200884 35.4585375 60.09192 29.1816375 60.09192 29.1816375 65.5832463 36.784525 65.5832463 36.784525 67.0770568"></polygon>
            <path d="M41.0716812,67.0770568 L39.4140062,67.0770568 L39.4140062,56.0944042 L41.0495687,56.0944042 L41.0495687,56.8625305 C42.2428812,56.20392 43.384725,55.8746147 44.4739562,55.8746147 C45.9478687,55.8746147 46.9391187,56.2698568 47.4465625,57.06072 C47.9555312,57.8512042 48.209825,59.2570989 48.209825,61.2780253 L48.209825,67.0770568 L46.5742625,67.0770568 L46.5742625,61.3219832 C46.5742625,59.7993726 46.4221437,58.7557516 46.120575,58.1922568 C45.8193875,57.6280042 45.17355,57.3464463 44.1880187,57.3464463 C43.7152687,57.3464463 43.2188812,57.4157937 42.6961875,57.5544884 C42.17235,57.6939411 41.771275,57.8292253 41.490675,57.9614779 L41.0716812,58.1592884 L41.0716812,67.0770568 Z" id="Fill-10"></path>
            <path d="M56.9377812,57.5215958 L53.4234187,57.5215958 L53.4234187,62.7715326 C53.4234187,64.0311537 53.5160625,64.8583958 53.699825,65.2540168 C53.8835875,65.6492589 54.322025,65.8470695 55.0147562,65.8470695 L56.9820062,65.7151958 L57.0925687,67.0771326 C56.1055125,67.2378063 55.3533062,67.3189011 54.8378562,67.3189011 C53.6887687,67.3189011 52.8938625,67.0407537 52.4512312,66.48408 C52.0089812,65.9274063 51.7878562,64.8659747 51.7878562,63.2986484 L51.7878562,57.5215958 L50.2201562,57.5215958 L50.2201562,56.09448 L51.7878562,56.09448 L51.7878562,52.7332168 L53.4234187,52.7332168 L53.4234187,56.09448 L56.9377812,56.09448 L56.9377812,57.5215958 Z" id="Fill-11"></path>
            <path d="M65.8883875,60.9488337 C65.8883875,59.6012968 65.6714563,58.64976 65.2356875,58.0930863 C64.801825,57.5367916 64.0953688,57.2582653 63.115175,57.2582653 C62.1346,57.2582653 61.398025,57.5511916 60.9058313,58.1370442 C60.4105875,58.7225179 60.1578188,59.6596547 60.1425688,60.9488337 L65.8883875,60.9488337 Z M66.4858063,65.7152337 L67.125925,65.6492968 L67.17015,66.9452968 C65.4903625,67.1794863 64.0538125,67.29696 62.8605,67.29696 C61.2691625,67.29696 60.1425688,66.8391916 59.4803375,65.9240337 C58.8165813,65.0088758 58.4848938,63.5844126 58.4848938,61.6517811 C58.4848938,57.8005389 60.0251438,55.8747284 63.1041188,55.8747284 C64.591375,55.8747284 65.704625,56.28816 66.4415813,57.1154021 C67.1770125,57.9426442 67.5460625,59.2428126 67.5460625,61.0147705 L67.4576125,62.2668126 L60.1646813,62.2668126 C60.1646813,63.4820968 60.3858063,64.3828547 60.8284375,64.9683284 C61.2691625,65.55456 62.0392875,65.8471074 63.1372875,65.8471074 C64.2349063,65.8471074 65.3504438,65.8031495 66.4858063,65.7152337 L66.4858063,65.7152337 Z" id="Fill-12"></path>
            <path d="M70.131395,67.0770568 L70.131395,56.0944042 L71.7669575,56.0944042 L71.7669575,57.5874568 C73.04872,56.7094358 74.3964387,56.1307832 75.8108762,55.8526358 L75.8108762,57.52152 C75.191345,57.6389937 74.5474137,57.8224042 73.876795,58.0713726 C73.2061762,58.3199621 72.6945387,58.5397516 72.3407387,58.7303621 L71.78907,59.0153305 L71.78907,67.0770568 L70.131395,67.0770568 Z" id="Fill-13"></path>
            <path d="M82.4858394,57.3463705 C82.0435894,57.3463705 81.5677894,57.4198863 81.0603456,57.5654021 C80.5517581,57.7124337 80.1491581,57.8590863 79.8548331,58.00536 L79.4358394,58.2243916 L79.4358394,65.6271284 C80.4812269,65.78856 81.2776581,65.8692758 81.8220831,65.8692758 C83.0153956,65.8692758 83.8518581,65.5323916 84.3303269,64.8582442 C84.8084144,64.1852337 85.0489831,63.0870442 85.0489831,61.5636758 C85.0489831,60.0403074 84.8305269,58.9568968 84.3966644,58.3123074 C83.9624206,57.6684758 83.3249706,57.3463705 82.4858394,57.3463705 L82.4858394,57.3463705 Z M77.7781644,71.9532758 L77.7781644,56.0943284 L79.4137269,56.0943284 L79.4137269,56.8848126 C80.5323144,56.2114232 81.6383206,55.8745389 82.7279331,55.8745389 C84.1282644,55.8745389 85.1442956,56.3179074 85.7775519,57.2035074 C86.4108081,58.0898653 86.7287706,59.5507074 86.7287706,61.5856547 C86.7287706,63.6209811 86.3555269,65.0818232 85.6117081,65.9681811 C84.8678894,66.8537811 83.6345456,67.2967705 81.9105331,67.2967705 C81.0119269,67.2967705 80.1865206,67.2156758 79.4358394,67.0550021 L79.4358394,71.9532758 L77.7781644,71.9532758 Z" id="Fill-14"></path>
            <path d="M89.4248181,67.0770568 L89.4248181,56.0944042 L91.0603806,56.0944042 L91.0603806,57.5874568 C92.3421431,56.7094358 93.6898619,56.1307832 95.1042994,55.8526358 L95.1042994,57.52152 C94.4847681,57.6389937 93.8408369,57.8224042 93.1702181,58.0713726 C92.4995994,58.3199621 91.9879619,58.5397516 91.6341619,58.7303621 L91.0824931,59.0153305 L91.0824931,67.0770568 L89.4248181,67.0770568 Z" id="Fill-15"></path>
            <path d="M97.0715875,67.0770947 L98.7292625,67.0770947 L98.7292625,56.0944421 L97.0715875,56.0944421 L97.0715875,67.0770947 Z M97.0715875,53.6119579 L98.7292625,53.6119579 L98.7292625,51.7013053 L97.0715875,51.7013053 L97.0715875,53.6119579 Z" id="Fill-16"></path>
            <path d="M105.380779,57.3463705 C103.775716,57.3463705 102.972423,57.9030442 102.972423,59.0152547 C102.972423,59.5287284 103.156185,59.8906232 103.525235,60.1028337 C103.893141,60.3154232 104.732273,60.5352126 106.044535,60.7618232 C107.354891,60.9891916 108.283997,61.3075074 108.828804,61.7175284 C109.37361,62.1271705 109.645822,62.8960547 109.645822,64.0234232 C109.645822,65.1519284 109.282491,65.9791705 108.552397,66.5059074 C107.823829,67.0330232 106.758998,67.2967705 105.358666,67.2967705 C104.446335,67.2967705 103.370448,67.1936968 102.133291,66.9890653 L101.469535,66.8791705 L101.557985,65.4512968 C103.237773,65.7006442 104.504285,65.8253179 105.358666,65.8253179 C106.213048,65.8253179 106.865747,65.6896547 107.31486,65.4183284 C107.764354,65.14776 107.989672,64.6934021 107.989672,64.0563916 C107.989672,63.41976 107.797522,62.9881389 107.414366,62.7607705 C107.031591,62.5337811 106.190935,62.31816 104.895448,62.1127705 C103.598816,61.9081389 102.677716,61.6076337 102.133291,61.2120126 C101.58696,60.8167705 101.314748,60.0842653 101.314748,59.0152547 C101.314748,57.9470021 101.694854,57.1561389 102.453923,56.6434232 C103.211466,56.1307074 104.158491,55.8745389 105.293854,55.8745389 C106.190935,55.8745389 107.319054,55.9768547 108.674016,56.1818653 L109.293547,56.29176 L109.249322,57.6976547 C107.61376,57.4638442 106.32361,57.3463705 105.380779,57.3463705" id="Fill-17"></path>
            <path d="M119.105321,60.9488337 C119.105321,59.6012968 118.88839,58.64976 118.452621,58.0930863 C118.018759,57.5367916 117.312302,57.2582653 116.332109,57.2582653 C115.351534,57.2582653 114.614959,57.5511916 114.122765,58.1370442 C113.627521,58.7225179 113.374752,59.6596547 113.359502,60.9488337 L119.105321,60.9488337 Z M119.70274,65.7152337 L120.342859,65.6492968 L120.387084,66.9452968 C118.707296,67.1794863 117.270746,67.29696 116.077434,67.29696 C114.486096,67.29696 113.359502,66.8391916 112.697271,65.9240337 C112.033515,65.0088758 111.701827,63.5844126 111.701827,61.6517811 C111.701827,57.8005389 113.242077,55.8747284 116.321052,55.8747284 C117.808309,55.8747284 118.921559,56.28816 119.658515,57.1154021 C120.393946,57.9426442 120.762996,59.2428126 120.762996,61.0147705 L120.674546,62.2668126 L113.381615,62.2668126 C113.381615,63.4820968 113.60274,64.3828547 114.045371,64.9683284 C114.486096,65.55456 115.256221,65.8471074 116.354221,65.8471074 C117.45184,65.8471074 118.567377,65.8031495 119.70274,65.7152337 L119.70274,65.7152337 Z" id="Fill-18"></path>
        </g>
        <g id="Group">
            <g id="Group-3">
                <mask id="mask-2" fill="white">
                    <use xlink:href="#path-1"></use>
                </mask>
                <g id="Clip-2"></g>
                <path d="M34.912363,25.4697815 C34.9432586,25.4697815 34.9741543,25.4656181 35.0050499,25.4656181 C31.3916651,12.3827956 20.1625064,2.41142821 6.31283626,0.49070832 C8.07248305,14.5658103 20.193402,25.4697815 34.912363,25.4697815" id="Fill-1" fill-opacity="0.4" fill="#FFFFFF" mask="url(#mask-2)"></path>
            </g>
            <g id="Group-6">
                <mask id="mask-4" fill="white">
                    <use xlink:href="#path-3"></use>
                </mask>
                <g id="Clip-5"></g>
                <path d="M34.9603917,43.7776838 C34.9449439,43.7776838 34.9280917,43.7749082 34.9126439,43.7749082 C20.2498568,43.7749082 8.17106821,54.5969991 6.33839537,68.5916085 C20.1206569,66.6708886 31.3020677,56.7758504 34.9603917,43.7776838" id="Fill-4" fill-opacity="0.5" fill="#FFFFFF" mask="url(#mask-4)"></path>
            </g>
            <g id="Group-9">
                <mask id="mask-6" fill="white">
                    <use xlink:href="#path-5"></use>
                </mask>
                <g id="Clip-8"></g>
                <path d="M34.912363,43.7753246 C34.9278108,43.7753246 34.944663,43.7781002 34.9601108,43.7781002 C35.7886755,40.8373448 36.2394709,37.743931 36.2394709,34.5422686 C36.2394709,31.398894 35.8041233,28.3582167 35.0050499,25.4646467 C34.9741543,25.4660345 34.9432586,25.4701979 34.912363,25.4701979 C20.193402,25.4701979 8.07248305,14.5662266 6.31283626,0.489736857 C4.71890241,0.269076118 3.09126423,0.14694942 1.43413476,0.14694942 C-17.7899714,0.14694942 -33.3726057,15.5460158 -33.3726057,34.5422686 C-33.3726057,53.5399092 -17.7899714,68.9389756 1.43413476,68.9389756 C3.09969031,68.9389756 4.73575457,68.8154611 6.3381145,68.5920248 C8.17078734,54.5960276 20.2495759,43.7753246 34.912363,43.7753246" id="Fill-7" fill="#FFFFFF" mask="url(#mask-6)"></path>
            </g>
            <g id="Group-12">
                <mask id="mask-8" fill="white">
                    <use xlink:href="#path-7"></use>
                </mask>
                <g id="Clip-11"></g>
                <path d="M35.0057521,25.4652018 C50.8917254,25.4152409 63.7541396,12.6779813 63.7541396,-3.03195302 C63.7541396,-18.7724191 50.8411689,-31.5332712 34.9130652,-31.5332712 C18.9835571,-31.5332712 6.0705864,-18.7724191 6.0705864,-3.03195302 C6.0705864,-1.83705431 6.16889069,-0.665748245 6.31353843,0.490291978 C20.1632086,2.41101187 31.3909629,12.3823792 35.0057521,25.4652018" id="Fill-10" fill-opacity="0.7" fill="#FFFFFF" mask="url(#mask-8)"></path>
            </g>
            <g id="Group-15">
                <mask id="mask-10" fill="white">
                    <use xlink:href="#path-9"></use>
                </mask>
                <g id="Clip-14"></g>
                <path d="M34.9603917,43.7776838 C31.3020677,56.7758504 20.1206569,66.6708886 6.33839537,68.5916085 C6.17970416,69.801773 6.0701651,71.0258156 6.0701651,72.2776143 C6.0701651,88.0180803 18.9831358,100.778932 34.9126439,100.778932 C50.8407476,100.778932 63.7537183,88.0180803 63.7537183,72.2776143 C63.7537183,56.552414 50.8660258,43.8040521 34.9603917,43.7776838" id="Fill-13" fill-opacity="0.7" fill="#FFFFFF" mask="url(#mask-10)"></path>
            </g>
        </g>
    </g>
</svg>
