<svg width="111" height="86" fill="none" xmlns="http://www.w3.org/2000/svg"><path d="M56.767 56.074c10.51 9.408 26.854 8.295 36.503-2.485 9.649-10.78 8.95-27.147-1.561-36.555C81.198 7.627 64.855 8.74 55.206 19.52c-9.65 10.78-8.95 27.147 1.56 36.554Z" fill="#07C"/><path d="M91.777 36.094c-.146.007-.195.217-.162.275.032.058.073.181.19.17a.168.168 0 0 0 .065-.018.197.197 0 0 0 .093-.104.166.166 0 0 0 .012-.066c-.014-.107-.053-.272-.198-.257ZM98.447 27.812a.339.339 0 0 0-.045.231.242.242 0 0 0 .12.17l.024.021a.36.36 0 0 0 .236.168 19.561 19.561 0 0 0-.275-.934.662.662 0 0 0-.06.344ZM93.82 34.81c.164.053.348.05.424-.15.076-.2.136-.537.004-.611-.132-.075-.44.242-.539.372-.098.13-.074.34.111.389ZM96.275 31.814a.282.282 0 0 0 .099-.128.222.222 0 0 0 .005-.148.235.235 0 0 0-.13-.09.296.296 0 0 0-.171.008c-.095.046-.112.22-.077.301.035.082.179.131.274.057ZM97.064 25.518a.509.509 0 0 0-.08.164.428.428 0 0 0-.012.17.345.345 0 0 0 .056.15c.03.043.069.078.115.102a.381.381 0 0 0 .285.024.525.525 0 0 0 .264-.178.512.512 0 0 0 .072-.162.428.428 0 0 0 .007-.167.346.346 0 0 0-.057-.145.316.316 0 0 0-.113-.1.259.259 0 0 0-.126-.07.317.317 0 0 0-.154.003.431.431 0 0 0-.257.209ZM97.112 24.032a.973.973 0 0 0-.009.246 1.19 1.19 0 0 1-.05.28c-.064.313.013.505.206.511a.364.364 0 0 0 .155-.027.436.436 0 0 0 .14-.093 29.57 29.57 0 0 0-.442-.917ZM95.114 30.247c-.124.005-.192.06-.204.188a.163.163 0 0 0-.007.074.118.118 0 0 0 .084.1.143.143 0 0 0 .073.002.147.147 0 0 0 .073-.004.198.198 0 0 0 .117-.104.172.172 0 0 0 .016-.076.167.167 0 0 0 .004-.074.134.134 0 0 0-.029-.063.125.125 0 0 0-.056-.037.148.148 0 0 0-.07-.006ZM96.58 29.558a.868.868 0 0 0 .266-.427.654.654 0 0 0-.038-.455.43.43 0 0 0-.151-.146.469.469 0 0 0-.208-.06.916.916 0 0 0-.601.218 1.03 1.03 0 0 0-.353.565c.092.134.199.257.319.365a.534.534 0 0 0 .37.103.737.737 0 0 0 .396-.163ZM94.576 36.142a.719.719 0 0 0 .591.601c.32-.061.48-.294.484-.69a.396.396 0 0 0-.043-.2.336.336 0 0 0-.135-.14.423.423 0 0 0 .14-.157c.053-.11.07-.23.047-.337a.39.39 0 0 0-.171-.252.371.371 0 0 0-.29-.005.505.505 0 0 0-.247.206.5.5 0 0 0-.103.306.353.353 0 0 0 .115.261.506.506 0 0 0-.388.406ZM97.368 34.618c.068-.076.06-.417-.04-.462-.098-.045-.424.17-.433.235-.01.064-.01.403.096.419a.446.446 0 0 0 .204-.05.532.532 0 0 0 .173-.142ZM95.038 46.457h.042c.034.064.088.112.154.139a.448.448 0 0 0 .34-.011.598.598 0 0 0 .281-.251.46.46 0 0 0 .036-.33.671.671 0 0 0 .096-.168.512.512 0 0 0 .012-.196.419.419 0 0 0-.063-.172.378.378 0 0 0-.129-.122.411.411 0 0 0-.175-.052.515.515 0 0 0-.227-.018.639.639 0 0 0-.233.08.726.726 0 0 0-.323.388c-.126.33-.024.674.19.713ZM93.968 46.27a.474.474 0 0 0-.029-.343.38.38 0 0 0-.25-.196.387.387 0 0 0-.224.027.489.489 0 0 0-.194.15.759.759 0 0 0-.38.471.414.414 0 0 0 .067.279.36.36 0 0 0 .23.148c.094.02.198.004.296-.043a.597.597 0 0 0 .242-.216.57.57 0 0 0 .242-.277ZM88.991 52.22c-.117-.104-.256.098-.32.17-.065.073-.015.212.023.217.038.005.214.003.271-.054.057-.058.147-.238.026-.332ZM95.362 44.995a1.014 1.014 0 0 0-.182-.417c-.161-.144-.482.012-.615.262a.443.443 0 0 0-.05.154.36.36 0 0 0 .012.151.29.29 0 0 0 .194.195.501.501 0 0 0 .366-.051.638.638 0 0 0 .275-.294ZM94.32 28.413c.002.167.03.338.249.323a.547.547 0 0 0 .312-.177.547.547 0 0 0 .141-.33 1.004 1.004 0 0 0-.385-.156.267.267 0 0 0-.123.022.323.323 0 0 0-.193.318ZM89.692 44.145a.194.194 0 0 0-.147.016.252.252 0 0 0-.113.117.202.202 0 0 0-.012.15.15.15 0 0 0 .096.096c.072.02.3.015.333-.116a.267.267 0 0 0-.034-.163.226.226 0 0 0-.123-.1ZM96.027 39.157a.34.34 0 0 0 .194.196c.09.036.195.034.297-.003a.418.418 0 0 0 .22-.18c.06-.218.103-.438.131-.657.444-.328.659-.736.522-.982a.679.679 0 0 0-.42-.202.894.894 0 0 0-.503.1.711.711 0 0 0 .022-.146.405.405 0 0 0-.13-.273.405.405 0 0 0-.285-.1.783.783 0 0 0-.51.529.483.483 0 0 0 .526.391l.032-.036c.001.265.076.51.218.709-.2.176-.469.34-.314.654ZM98.032 30.34c.007-.372-.16-.578-.424-.532a.85.85 0 0 0-.119.052.177.177 0 0 0 0-.095.14.14 0 0 0-.05-.072c-.117-.105-.259.101-.32.17-.061.068-.014.211.02.22l.072.007a.89.89 0 0 0-.283.471c.001.074.017.144.047.206a.415.415 0 0 0 .317.231c.07.012.143.007.216-.012.379-.045.53-.214.525-.646ZM94.234 51.036c.058.017.12.02.185.009a.519.519 0 0 0 .187-.072.591.591 0 0 0 .25-.322.412.412 0 0 0 .014-.166.333.333 0 0 0-.053-.145.299.299 0 0 0-.11-.1.331.331 0 0 0-.15-.037c-.197-.01-.408-.024-.487.18-.124.367-.042.606.164.653ZM93.108 51.941a.524.524 0 0 0 .234-.152.524.524 0 0 0 .126-.25.474.474 0 0 0-.028-.314.379.379 0 0 0-.217-.195c-.32-.04-.502.21-.683.432.165.437.295.561.568.48ZM94.527 48.431c-.03.03-.06.063-.087.097a.91.91 0 0 0-.056.55c.04.175.138.32.278.416.32.177.763-.042 1.055-.504a.709.709 0 0 0 .143-.465.492.492 0 0 0-.207-.374.732.732 0 0 0-.11-.405.639.639 0 0 0-.31-.254.825.825 0 0 0-.423.147.955.955 0 0 0-.313.353.586.586 0 0 0-.033.231.47.47 0 0 0 .063.208ZM91.74 52.166c.05.045.292.072.344-.033.052-.106-.033-.247-.08-.268-.049-.02-.247-.083-.299.016a.303.303 0 0 0-.023.155.23.23 0 0 0 .058.13ZM88.932 20.917a.859.859 0 0 0-.052.504.727.727 0 0 0-.055.277.642.642 0 0 0 .317.447.742.742 0 0 0 .575.047.661.661 0 0 0 .23-.094.74.74 0 0 0 .303-.402.598.598 0 0 0 .022-.239.652.652 0 0 0-.052-.277.554.554 0 0 0-.162-.212.47.47 0 0 0-.074-.334.41.41 0 0 0-.279-.17.51.51 0 0 0-.226-.017.633.633 0 0 0-.23.082.719.719 0 0 0-.317.388ZM94.086 20.404a.454.454 0 0 0-.116.259.519.519 0 0 0 .42.455s.036-.04.077-.032c.118 0 .24-.028.354-.085a.947.947 0 0 0 .304-.239l-.588-.78a.517.517 0 0 0-.241.095.586.586 0 0 0-.178.204.417.417 0 0 0-.032.123ZM91.61 18.308c.032.152.044.503.305.462.26-.042.311-.402.365-.564.054-.162-.117-.308-.335-.3-.218.007-.38.195-.336.402ZM98.754 35.625c-.305-.157-.508-.107-.671.123-.213.339-.186.667.059.778.14.009.287-.017.428-.076.141-.06.272-.15.383-.264.145-.21.077-.416-.199-.56ZM97.8 43.993a.362.362 0 0 0-.263-.099.505.505 0 0 0-.297.111.65.65 0 0 0-.145.167.598.598 0 0 0-.076.2.487.487 0 0 0 .004.201c.015.063.044.12.084.168a.45.45 0 0 0 .193.054.558.558 0 0 0 .212-.031.663.663 0 0 0 .198-.112.71.71 0 0 0 .153-.176.406.406 0 0 0 .07-.273.284.284 0 0 0-.132-.21ZM92.51 18.58a.658.658 0 0 0 0 .463.506.506 0 0 0 .302.293.49.49 0 0 0 .207.019.476.476 0 0 0-.052.192c-.004.228.498.497.784.427a.725.725 0 0 0 .403-.45c-.371-.45-.756-.91-1.192-1.3a1.007 1.007 0 0 0-.452.356ZM92.09 24.037a.394.394 0 0 0-.064.072.768.768 0 0 0-.308-.183.897.897 0 0 0-.376-.031.532.532 0 0 0-.272.208.48.48 0 0 0-.086.32c-.008.079 0 .156.022.227a.457.457 0 0 0 .287.3.527.527 0 0 0 .222.027.81.81 0 0 0 .29-.112.915.915 0 0 0 .24-.217c.047.05.11.084.183.096.072.012.149.001.223-.03.287-.112.307-.384.352-.663-.238-.119-.45-.287-.712-.014ZM91.01 26.361a.684.684 0 0 0-.119-.447.602.602 0 0 0-.372-.239.89.89 0 0 0-.5.263.921.921 0 0 0-.257.509c-.003.077.01.15.039.216a.417.417 0 0 0 .127.164.524.524 0 0 0-.297.278.465.465 0 0 0-.007.35c.043.104.128.18.237.21.053.02.111.026.171.02a.476.476 0 0 0 .177-.058.545.545 0 0 0 .28-.46.362.362 0 0 0-.038-.154h.042a.603.603 0 0 0 .206-.081.678.678 0 0 0 .282-.355.566.566 0 0 0 .029-.216ZM98.283 45.167a.259.259 0 0 0-.037.17.373.373 0 0 0-.273.007.498.498 0 0 0-.232.193l-.029.032a.988.988 0 0 0-.455.122 1.165 1.165 0 0 0-.377.328.606.606 0 0 0-.043.24.48.48 0 0 0 .06.219.42.42 0 0 0 .148.155c.063.038.135.06.213.064.08.02.17.012.257-.023a.546.546 0 0 0 .223-.17.904.904 0 0 0 .176.216c.207-.582.39-1.165.563-1.749a1.278 1.278 0 0 0-.194.196ZM98.115 34.64c.19.171.282.434.585.27a.56.56 0 0 0 .235-.227.48.48 0 0 0 .06-.305.405.405 0 0 0-.03-.135.82.82 0 0 0 .317-.354.473.473 0 0 0-.406-.457.324.324 0 0 0-.14.023.395.395 0 0 0-.217.208.358.358 0 0 0-.033.144c-.022.125-.023.25-.002.367a.924.924 0 0 0-.37.466ZM97.443 37.4a.303.303 0 0 0 .011.139.248.248 0 0 0 .186.166c.044.01.092.008.139-.004a.667.667 0 0 0 .39-.172.726.726 0 0 0 .227-.376.528.528 0 0 0-.477-.514c-.25.023-.48.388-.476.762ZM95.599 22.425a.494.494 0 0 0 0 .35.38.38 0 0 0 .232.22.398.398 0 0 0 .288-.042.505.505 0 0 0 .216-.23.167.167 0 0 0 .02-.063 10.931 10.931 0 0 0-.32-.526.514.514 0 0 0-.25.088.592.592 0 0 0-.186.203ZM89.727 28.651a.49.49 0 0 0-.008-.369.596.596 0 0 0-.413-.339.8.8 0 0 0-.585.105c-.084.04-.169.087-.264.133a3.634 3.634 0 0 0-.153-.456.313.313 0 0 0-.217-.242.373.373 0 0 0-.177-.01.47.47 0 0 0-.178.074.804.804 0 0 0-.492.63.47.47 0 0 0 .025.252c.03.076.083.138.15.18a.49.49 0 0 0-.066.154.409.409 0 0 0-.007.158c.102.243.457.163.562.047a.329.329 0 0 0 .06-.098.286.286 0 0 0 .02-.106l.127.012c.029.077.053.164.089.239a.653.653 0 0 0 .316.331.76.76 0 0 0 .48.055 1.266 1.266 0 0 0 .732-.75ZM91.811 22.835a.916.916 0 0 0 .479-.069c.158-.066.303-.172.42-.308a.901.901 0 0 0 .437-.355.803.803 0 0 0 .133-.525.68.68 0 0 0-.22-.477.68.68 0 0 0-.498-.165.432.432 0 0 0-.024-.302.345.345 0 0 0-.215-.18.446.446 0 0 0-.313.079.536.536 0 0 0-.208.273.402.402 0 0 0-.038.151c-.003.051.005.1.024.143a.272.272 0 0 0 .21.163 1.35 1.35 0 0 0-.303.743.542.542 0 0 0 .018.162.297.297 0 0 0-.04.044c-.123.287-.067.548.138.623ZM91.13 22.779a.504.504 0 0 0-.189.08.565.565 0 0 0-.15.151c-.056.103-.087.408.028.46.116.053.37-.162.452-.261a.361.361 0 0 0 .051-.136.291.291 0 0 0-.01-.134.237.237 0 0 0-.181-.16ZM89.305 24.49a.494.494 0 0 0-.123-.356.334.334 0 0 0-.004-.084c-.413-.45.045-.684-.133-1.112a.54.54 0 0 0-.13-.159.43.43 0 0 0-.254-.115.56.56 0 0 0-.3.057.692.692 0 0 0-.378.506 3.463 3.463 0 0 0-.07.9.48.48 0 0 0 .213.357.671.671 0 0 0-.036.142c-.025.318.184.469.58.404a.763.763 0 0 0 .387-.179.833.833 0 0 0 .248-.362ZM94.2 23.63a.928.928 0 0 0 .544-.28.958.958 0 0 0 .27-.556.978.978 0 0 0-.3-.53.977.977 0 0 0-.561-.241.986.986 0 0 0-.514.346.94.94 0 0 0-.207.573c.02.2.105.376.244.5a.76.76 0 0 0 .524.188ZM86.849 30.134a.435.435 0 0 0-.074.189.337.337 0 0 0 .025.183c.025.055.065.1.117.128a.31.31 0 0 0 .176.037.485.485 0 0 0 .297-.276.409.409 0 0 0 .029-.195.314.314 0 0 0-.069-.167.342.342 0 0 0-.252-.041.476.476 0 0 0-.25.142ZM87.372 25.986a.109.109 0 0 0-.047-.005.137.137 0 0 0-.05.015.158.158 0 0 0-.072.078.125.125 0 0 0 .006.09.098.098 0 0 0 .065.053c.027.024.126-.061.138-.094.011-.033.011-.12-.04-.137ZM90.054 29.873c-.154.173-.09.31.244.538a.48.48 0 0 0 .301-.275.402.402 0 0 0 .029-.197.307.307 0 0 0-.072-.167.348.348 0 0 0-.253-.04.481.481 0 0 0-.249.142ZM82.172 19.07a.527.527 0 0 0 .06-.18.433.433 0 0 0-.01-.175.34.34 0 0 0-.215-.235.397.397 0 0 0-.162 0 .486.486 0 0 0-.16.063.544.544 0 0 0-.223.274.422.422 0 0 0-.031.303.31.31 0 0 0 .183.203.317.317 0 0 0 .15.036c.055 0 .111-.012.165-.037a.473.473 0 0 0 .243-.252ZM76.69 24.439a.213.213 0 0 0-.125.019.268.268 0 0 0-.104.088c-.034.078.049.195.109.242.06.047.234.014.29-.102.056-.117-.099-.22-.17-.247ZM82.223 20.102a.55.55 0 0 0 .22.292c.104.069.23.101.365.093a.714.714 0 0 0 .53-.518.81.81 0 0 0 .53-.087c.172-.09.319-.234.414-.407a.919.919 0 0 0 .103-.455.692.692 0 0 0-.142-.399.68.68 0 0 0 .265-.094.78.78 0 0 0 .219-.197c.417-.466.423-.939.193-1.167a.784.784 0 0 0-.383-.13.985.985 0 0 0-.431.068.378.378 0 0 0-.004-.283.294.294 0 0 0-.199-.166.47.47 0 0 0-.319.056.59.59 0 0 0-.241.253.45.45 0 0 0-.036.328.33.33 0 0 0 .2.217l.075.017a.867.867 0 0 0-.091.438c.01.145.06.276.146.379l.037.033a.872.872 0 0 0-.399.205.936.936 0 0 0-.258.38 1.197 1.197 0 0 0-.124.396.308.308 0 0 0-.137-.046.378.378 0 0 0-.153.018.706.706 0 0 0-.403.559.528.528 0 0 0 .023.217ZM84.431 49.435a.468.468 0 0 0-.042.167.38.38 0 0 0 .024.16.32.32 0 0 0 .221.195.442.442 0 0 0 .287-.046.556.556 0 0 0 .227-.218.459.459 0 0 0 .035-.17.38.38 0 0 0-.031-.157.326.326 0 0 0-.231-.188.287.287 0 0 0-.139-.026.363.363 0 0 0-.147.042.426.426 0 0 0-.204.24ZM95.488 34.201a.563.563 0 0 0 .29.341c.14.068.308.08.475.032.306-.066.467-.306.47-.68a.967.967 0 0 0 .15-.169c.185-.313.09-.579-.264-.736a.562.562 0 0 0-.368.013.738.738 0 0 0-.326.242.812.812 0 0 0-.08.442.963.963 0 0 0-.347.515ZM71.499 13.5c-.11-.026-.414-.038-.516.211-.102.25.161.333.258.354.064 0 .13-.014.193-.043a.533.533 0 0 0 .169-.126.325.325 0 0 0 .056-.12.26.26 0 0 0 0-.125.206.206 0 0 0-.16-.152ZM86.864 47.417c.086-.002.222-.047.266-.116.044-.07.015-.299-.05-.313-.066-.015-.24.154-.289.234-.047.08.035.197.073.195ZM87.086 15a1.21 1.21 0 0 0-.179-.037.47.47 0 0 0 .091-.212.36.36 0 0 0-.028-.21c-.073-.18-.228-.284-.443-.179a.864.864 0 0 0-.36.402.335.335 0 0 0-.016.205.252.252 0 0 0 .107.152 1.553 1.553 0 0 0-.343.404c-.09.152-.15.317-.179.483a.89.89 0 0 0-.024.35.722.722 0 0 0 .114.306c.06.09.14.162.235.212.095.05.202.079.316.082.29.049.425.308.73.225.274-.065.537-.217.748-.434.21-.217.357-.486.417-.767.048-.173.053-.348.016-.508a.812.812 0 0 0-.23-.408c-.22-.247-.63.03-.972-.066ZM88.517 35.833c-.034-.03-.22-.051-.293.057-.073.109.061.236.125.278.037.013.08.013.122 0a.258.258 0 0 0 .112-.072c.048-.074-.017-.204-.066-.263ZM91.476 34.998c.05.045.274.065.34-.029.065-.093-.042-.284-.1-.314a.16.16 0 0 0-.065-.015.237.237 0 0 0-.03-.182.202.202 0 0 0-.151-.088c-.282-.028-.569-.147-.901.062l-.17.413c-.38.153-.673.441-.65.665.004.09.04.169.102.224a.314.314 0 0 0 .234.076c.349.008.474-.098.654-.508.25-.131.478-.238.69-.374a.147.147 0 0 0 .047.07ZM94.534 27.776c.18-.114.33-.281.424-.474a.993.993 0 0 0 .094-.346.806.806 0 0 0-.042-.332c.049-.116.076-.301.015-.355a.131.131 0 0 0-.071-.021.616.616 0 0 0-.118-.49 1.027 1.027 0 0 0-.688-.297 1.394 1.394 0 0 0-.804.223 1.346 1.346 0 0 0-.649.867c-.068.366.342.502.43.87.189.82.85.682 1.409.355ZM92.845 31.457a.605.605 0 0 0 .083-.092c.067-.136.138-.499.04-.544a.308.308 0 0 1 .023-.181c.088-.233-.002-.335-.202-.45-.2-.113-.506-.27-.7.047-.195.319-.04.457.052.496.091.039.147.233.03.237-.118.003-.236.1-.298.4a.482.482 0 0 0-.027.186c.004.06.02.118.048.168a.34.34 0 0 0 .116.12c.047.03.103.05.162.054a.687.687 0 0 0 .39-.117.81.81 0 0 0 .283-.323ZM89.51 31.66c-.088.03-.223.054-.236.196a.144.144 0 0 0 .005.065.117.117 0 0 0 .087.078c.021.004.044.003.066-.003.083-.012.293-.07.3-.194.008-.123-.177-.159-.222-.142ZM72.924 22.168c.216.015.443-.035.654-.143.211-.108.398-.27.54-.468a.806.806 0 0 0 0-.599.621.621 0 0 0-.413-.357.921.921 0 0 0-.596.084 1.168 1.168 0 0 0-.48.444.871.871 0 0 0-.071.619.637.637 0 0 0 .366.42ZM75.031 14.427c.047.15.77-.071.866-.253.097-.182-.185-.427-.512-.386-.326.041-.4.489-.354.639ZM76.23 17.17c-.061.243-.22.529.076.663a.358.358 0 0 0 .289.027.5.5 0 0 0 .342-.395.495.495 0 0 0 .001-.203c-.057-.232-.247-.243-.709-.091ZM78.151 15.304a.427.427 0 0 0-.32.016.565.565 0 0 0-.263.237.527.527 0 0 0-.043.357c.028.112.1.202.198.253a.458.458 0 0 0 .323-.047.582.582 0 0 0 .247-.254.482.482 0 0 0 .043-.33.35.35 0 0 0-.185-.232ZM88.806 15.604a.338.338 0 0 0 .183-.264c-.004-.09-.036-.264-.14-.234a.357.357 0 0 0-.213.237c-.013.075.066.297.17.26ZM73.557 12.685a.513.513 0 0 0-.11.294.366.366 0 0 0 .094.264c.189.133.712-.202.712-.391s-.52-.37-.696-.167ZM75.201 12.046c-.091.049-.097.224-.066.296.032.072.185.165.308.08.124-.085.07-.286.03-.329a.208.208 0 0 0-.122-.066.27.27 0 0 0-.15.019ZM73.466 17.48c.164.04.349.01.516-.08a.928.928 0 0 0 .39-.412.909.909 0 0 0 .099-.32.737.737 0 0 0-.03-.31.604.604 0 0 0-.406-.396.533.533 0 0 0-.234-.044.66.66 0 0 0-.248.058.778.778 0 0 0-.383.37c-.09.22-.111.45-.058.657a.774.774 0 0 0 .354.478ZM71.49 18.746c.12-.021.228-.316.21-.397a.237.237 0 0 0-.11-.105.276.276 0 0 0-.158-.02.45.45 0 0 0-.207.285c.014.065.046.12.093.163a.303.303 0 0 0 .171.074ZM77.921 12.198c.07-.192.061-.359-.099-.43a2.064 2.064 0 0 0-1.327-.203.76.76 0 0 0-.219.109.692.692 0 0 0-.248.232.627.627 0 0 0-.102.313.468.468 0 0 0 .08.286c.055.08.136.137.232.163.256.104.53.17.816.195a.964.964 0 0 0 .518-.203c.157-.12.28-.282.35-.462ZM85.156 19.521c.098.037.213.03.321-.02a.56.56 0 0 0 .258-.243.472.472 0 0 0 .023-.33.352.352 0 0 0-.5-.209.461.461 0 0 0-.228.24.493.493 0 0 0-.066.166.405.405 0 0 0 0 .167.311.311 0 0 0 .191.23ZM78.53 25.15c.23-.142.168-.066.375.054.053.046.12.074.194.081a.45.45 0 0 0 .227-.039.553.553 0 0 0 .31-.366.806.806 0 0 0-.09-.589.675.675 0 0 0-.463-.311c-.245 0-.498.092-.711.261-.213.17-.37.402-.442.655-.067.345.37.396.6.254ZM85.058 13.053a.3.3 0 0 0 .089.015 1.114 1.114 0 0 0-.552.563.888.888 0 0 0-.069.279.898.898 0 0 0-.462-.197c-.175-.023-.36 0-.54.068-.158.11-.285.262-.362.437a.872.872 0 0 0-.066.527c.043.248.123.45-.122.723-.176.197-.058.39.117.51.321-.081.484-.29.43-.534.258-.11.51-.24.754-.39.105-.107.19-.232.251-.366.061-.134.095-.274.102-.412.105.133.255.22.43.247.56.117.796-.011 1.055-.504a.866.866 0 0 0 .079-.326.694.694 0 0 0-.057-.306 26.017 26.017 0 0 0-1.203-.504c.02.073.064.132.126.17ZM81.855 22.04a.662.662 0 0 0-.265-.327.724.724 0 0 0-.422-.106c-.236.042-.487.079-.564.415-.078.336-.145.493-.22.738a.454.454 0 0 0-.09.153.38.38 0 0 0-.02.167.3.3 0 0 0 .055.145c.03.04.071.072.119.091a.433.433 0 0 0 .342.003.588.588 0 0 0 .289-.25 1.44 1.44 0 0 1 .335-.373.795.795 0 0 0 .314-.273.728.728 0 0 0 .127-.382ZM79.516 19.826c.132-.02.264-.061.391-.12a.474.474 0 0 0 .042-.172.384.384 0 0 0-.028-.162.324.324 0 0 0-.23-.194c-.183-.04-.267.095-.338.242-.07.146-.028.409.163.405ZM78.375 21.58c.132-.02.264-.06.391-.12a.472.472 0 0 0 .042-.172.38.38 0 0 0-.027-.162.322.322 0 0 0-.232-.194c-.181-.04-.266.095-.337.242-.07.147-.028.41.163.406ZM78.417 17.409a.504.504 0 0 0-.225-.031.627.627 0 0 0-.234.07.724.724 0 0 0-.34.375c-.137.254.002.53.333.653a.346.346 0 0 0 .161.045.432.432 0 0 0 .177-.032.518.518 0 0 0 .276-.26.925.925 0 0 0 .036-.45.721.721 0 0 0-.184-.37ZM80.514 16.278a.46.46 0 0 0 .032-.17.373.373 0 0 0-.035-.156.321.321 0 0 0-.239-.18c.1-.12.17-.261.201-.406a.988.988 0 0 1 .283-.559c.11-.122.19-.265.237-.416a.914.914 0 0 0 .028-.447.606.606 0 0 0-.191-.357.606.606 0 0 0-.376-.15l-.083-.002c.175-.09.32-.24.406-.42.113-.26-.041-.514-.383-.624-.26-.081-.652.053-.743.276a.827.827 0 0 0-.028.494.627.627 0 0 0 .26.366.408.408 0 0 0 .118.018c-.105.08-.195.18-.263.294-.178.292-.26.622-.23.931.001.117-.03.237-.088.348a.688.688 0 0 0-.13.258.555.555 0 0 0-.005.269.433.433 0 0 0 .344.327.425.425 0 0 0-.115.128.45.45 0 0 0 .058.313.383.383 0 0 0 .246.17c.057.026.12.039.187.037a.528.528 0 0 0 .2-.045.623.623 0 0 0 .309-.297ZM81.64 17.722a.94.94 0 0 0 .548-.148c.172-.108.315-.264.406-.446a.557.557 0 0 0 .047-.206.451.451 0 0 0-.037-.193.384.384 0 0 0-.285-.224.455.455 0 0 0-.231-.048.58.58 0 0 0-.247.07.682.682 0 0 0-.33.414c-.164.36-.097.724.129.781ZM86.515 58.08a.538.538 0 0 0 .194-.1.582.582 0 0 0 .144-.17c.035-.1-.034-.407-.148-.422-.113-.015-.39.26-.384.322.004.062.072.39.194.37ZM95.42 43.426a.61.61 0 0 0 .427-.043.791.791 0 0 0 .344-.318c.238-.38.236-.635-.011-.777a.682.682 0 0 0-.494-.03.376.376 0 0 0 .08-.088.495.495 0 0 0 .053-.175.402.402 0 0 0-.017-.17.335.335 0 0 0-.224-.217.393.393 0 0 0-.169-.009.476.476 0 0 0-.17.063.55.55 0 0 0-.237.289.468.468 0 0 0 .033.316.38.38 0 0 0 .226.19.46.46 0 0 0 .1.01.317.317 0 0 0-.076.085.84.84 0 0 0-.078.486c.024.157.099.293.214.388ZM81.186 56.085a.221.221 0 0 0 .117.02.286.286 0 0 0 .122-.043.326.326 0 0 0 .146-.218c.032-.138.024-.493-.086-.512-.11-.019-.381.224-.479.346-.097.123-.03.344.18.407ZM90.703 44.942a.461.461 0 0 0-.067.304c.015.1.068.183.148.233a.413.413 0 0 0 .32.033.575.575 0 0 0 .299-.204.499.499 0 0 0 .06-.301.363.363 0 0 0-.131-.24.45.45 0 0 0-.326-.025.612.612 0 0 0-.303.2ZM94.186 42.495c.127.02.465.055.553-.098.089-.153-.159-.396-.264-.44-.106-.044-.273.09-.36.193a.264.264 0 0 0-.063.102.216.216 0 0 0-.009.111.167.167 0 0 0 .05.09.166.166 0 0 0 .093.042ZM86.537 51.584a.467.467 0 0 0 .285-.05.582.582 0 0 0 .229-.214c.057-.151-.103-.338-.326-.385-.032-.013-.067-.018-.105-.013a.266.266 0 0 0-.108.038.31.31 0 0 0-.137.19c-.047.182-.05.367.162.434ZM93.204 44.817c.086-.184-.141-.517-.291-.492a.63.63 0 0 0-.317.354.301.301 0 0 0-.049.125.236.236 0 0 0 .014.123c.015.038.04.069.072.09a.207.207 0 0 0 .113.035c.165.01.36.003.458-.235ZM88.21 48.768c.08.016.167.006.25-.03a.21.21 0 0 0 .06.054.399.399 0 0 0 .289.02.543.543 0 0 0 .266-.181.467.467 0 0 0 .08-.144.397.397 0 0 0 .019-.154.32.32 0 0 0-.042-.139.284.284 0 0 0-.097-.099.388.388 0 0 0-.288-.019.533.533 0 0 0-.35.354c-.085-.012-.262-.018-.286.084a.272.272 0 0 0 .012.147.219.219 0 0 0 .087.107ZM85.565 53.647c.086-.003.223-.047.267-.117.044-.069.095-.255-.051-.313-.147-.059-.24.154-.288.234-.048.08.034.198.072.196ZM94.59 40.928c.345.208.842.124 1.06-.18a.737.737 0 0 0 .094-.2l.053.265c-.001.025.004.048.014.069a.128.128 0 0 0 .107.071.163.163 0 0 0 .071-.01.633.633 0 0 0 .287-.246.563.563 0 0 0 .09-.351.3.3 0 0 0-.228-.207.37.37 0 0 0-.171.009.46.46 0 0 0-.164.085.85.85 0 0 0-.043-.391.704.704 0 0 0-.213-.302.755.755 0 0 0-.55-.018c-.19.062-.365.19-.492.36a.912.912 0 0 0-.163.576.643.643 0 0 0 .247.47ZM88.617 47.875a.782.782 0 0 0 .38-.115.92.92 0 0 0 .299-.292.415.415 0 0 0-.037-.315.343.343 0 0 0-.248-.164.403.403 0 0 0-.164.01.535.535 0 0 0-.36.368c-.11.27-.049.485.13.508ZM97.263 32.014a.94.94 0 0 0-.324.306.86.86 0 0 0-.14.409.395.395 0 0 0 .153.258.42.42 0 0 0 .298.074c.433-.106.708-.352.693-.619a.573.573 0 0 0-.248-.344.633.633 0 0 0-.432-.084ZM91.565 40.153a.65.65 0 0 0 .509-.016.87.87 0 0 0 .414-.382.74.74 0 0 0 .044-.497.55.55 0 0 0-.284-.348.642.642 0 0 0-.482.03.847.847 0 0 0-.39.362.716.716 0 0 0-.082.495.515.515 0 0 0 .27.356ZM93.802 36.563c.027.014.06.015.093.004a.164.164 0 0 0 .082-.065c.057-.064-.012-.14-.043-.16-.03-.02-.132.04-.147.077a.134.134 0 0 0-.018.08.096.096 0 0 0 .033.064ZM98.409 31.498a.56.56 0 0 0 .383.072.768.768 0 0 0 .392-.19.687.687 0 0 0-.077.33.264.264 0 0 0 .053.116.246.246 0 0 0 .101.073c.04.016.084.022.13.018a.354.354 0 0 0 .135-.042c-.102-.627-.194-1.267-.328-1.894a.902.902 0 0 0-.532.066 1.142 1.142 0 0 0-.454.362c-.1.2-.135.417-.099.615.036.198.14.365.296.474ZM91.948 42.974c.054-.155.144-.553.014-.61-.13-.058-.446.201-.568.324-.122.123-.044.387.126.446.171.059.365.051.428-.16ZM92.817 42.166c.07-.118.035-.606-.16-.658-.196-.051-.523.409-.588.59a.451.451 0 0 0 .018.275.359.359 0 0 0 .173.186c.205.067.454-.217.557-.393ZM93.885 38.687c.069.06.16.088.258.08a.49.49 0 0 0 .28-.12.261.261 0 0 0 .13.088c.052.017.11.018.167.004a.34.34 0 0 0 .122-.04.397.397 0 0 0 .176-.196.342.342 0 0 0 .026-.126.33.33 0 0 0 .003-.14.265.265 0 0 0-.056-.119.25.25 0 0 0-.105-.074.29.29 0 0 0-.134-.015.386.386 0 0 0-.16.051.501.501 0 0 0-.182-.364.447.447 0 0 0-.336-.032.617.617 0 0 0-.313.21.67.67 0 0 0-.1.452c.023.147.103.27.224.341ZM89.19 42.89c.024.02.197.01.223-.033.025-.042.15-.242.057-.333-.094-.09-.265.053-.284.094a.389.389 0 0 0-.025.142c0 .046.01.09.03.13ZM82.248 51.233c.103.026.356-.182.376-.258.02-.077.018-.331-.063-.368-.082-.037-.304.09-.363.182-.058.093-.039.422.05.444ZM88.528 52.051a.287.287 0 0 0 .145.033.363.363 0 0 0 .156-.04.434.434 0 0 0 .213-.257.384.384 0 0 0 .009-.27.29.29 0 0 0-.173-.174c-.146-.073-.571.213-.556.372.001.074.02.144.057.202a.347.347 0 0 0 .15.134ZM80.93 59.6c.05.045.298-.009.34-.109.041-.1-.105-.253-.17-.268-.065-.015-.233.03-.278.135-.045.105.062.2.109.242ZM78.272 61.296c.027-.077-.066-.182-.133-.228-.068-.046-.235.007-.284.122-.05.116.12.21.195.233a.235.235 0 0 0 .124-.032.285.285 0 0 0 .098-.095ZM83.206 27.653c.143.056.444-.327.41-.357-.01-.183.012-.431-.155-.5-.167-.07-.331.16-.348.246-.017.086-.043.555.093.611ZM88.177 41.687a.561.561 0 0 0 .235-.228.481.481 0 0 0 .06-.305.28.28 0 0 0-.09-.21.28.28 0 0 0-.218-.066c-.322.016-.455.252-.583.55.17.16.29.419.596.259ZM89.955 50.193c-.139.013-.302.027-.385.147-.084.12.052.482.255.504.203.023.267-.116.328-.264.06-.149 0-.406-.198-.387ZM91.22 48.894c.05.11.13.2.234.26.13.048.282.041.425-.021a.755.755 0 0 0 .35-.314c.18-.28.16-.495-.054-.613a.592.592 0 0 0-.191-.07.353.353 0 0 0-.258-.231.794.794 0 0 0-.463.095.982.982 0 0 0-.37.348c-.053.162.104.411.328.546ZM87.178 54.668c.1.02.205.018.311-.007a.907.907 0 0 0 .304-.136.96.96 0 0 0 .391-.549.79.79 0 0 0 .073-.291.64.64 0 0 0-.045-.275.544.544 0 0 0-.394-.327.91.91 0 0 0-.618.122c-.199.115-.36.294-.455.503a.886.886 0 0 0 .038.588.703.703 0 0 0 .395.372ZM85.353 57.764a.855.855 0 0 0 .471-.206.937.937 0 0 0 .292-.444c.112-.334-.047-.555-.442-.62a.627.627 0 0 0-.37.1.75.75 0 0 0-.273.302c-.089.254.12.824.322.868ZM83.313 58.836c.183.011.368-.033.4-.237.03-.204.015-.537-.14-.573-.154-.037-.392.33-.442.494-.051.165-.04.32.182.316ZM95.504 24.956a.6.6 0 0 0 .418.244.817.817 0 0 0 .525-.124c.1-.105.177-.23.225-.362a.874.874 0 0 0 .05-.398c.048-.055.091-.114.128-.176a.31.31 0 0 0 .053-.121.246.246 0 0 0-.007-.123.197.197 0 0 0-.171-.136c-.138-.029-.272-.033-.39.071a.666.666 0 0 0-.345-.037.855.855 0 0 0-.35.14c-.282.145-.296.647-.136 1.022ZM84.735 59.462a.531.531 0 0 0 .319-.078.642.642 0 0 0 .24-.255.475.475 0 0 0-.026-.348.38.38 0 0 0-.253-.198.42.42 0 0 0-.278.065.509.509 0 0 0-.2.232.494.494 0 0 0-.06.184.4.4 0 0 0 .016.179.333.333 0 0 0 .242.219ZM83.671 60.479c.031.007.066 0 .097-.018a.165.165 0 0 0 .07-.08.127.127 0 0 0-.014-.088.106.106 0 0 0-.068-.05c-.027-.024-.123.07-.135.104-.011.033-.004.12.05.132ZM92.66 50.45a.844.844 0 0 0 .259-.491c-.013-.33-.313-.237-.573-.245-.18.303-.296.568-.064.747a.337.337 0 0 0 .181.044.433.433 0 0 0 .197-.054ZM89.188 52.89a.61.61 0 0 0 .486.044.25.25 0 0 0 .174-.21.187.187 0 0 0-.012-.086.332.332 0 0 0-.127-.113.37.37 0 0 0-.172-.039c-.116-.024-.218-.072-.349 0-.13.07-.132.302 0 .405ZM89.603 56.16c.157-.098.287-.241.368-.408a.836.836 0 0 0 .08-.51c-.049-.297-.528-.342-.958-.205a.986.986 0 0 0-.408.403.838.838 0 0 0-.099.534.61.61 0 0 0 .434.312.83.83 0 0 0 .583-.126ZM90.45 51.462a.274.274 0 0 0-.172.028.35.35 0 0 0-.137.129.25.25 0 0 0-.046.168.174.174 0 0 0 .08.13.19.19 0 0 0 .092.039.24.24 0 0 0 .107-.011.304.304 0 0 0 .171-.152.28.28 0 0 0 .038-.102.227.227 0 0 0-.004-.1.184.184 0 0 0-.128-.129ZM92.481 53.679a.35.35 0 0 0 .16-.016l.033.03c.124.038.375-.02.44-.114a.437.437 0 0 0 .041-.282.304.304 0 0 0 .052-.105.678.678 0 0 0-.107-.405.593.593 0 0 0-.32-.238.37.37 0 0 0-.163.004.467.467 0 0 0-.158.074.51.51 0 0 0-.125.131.47.47 0 0 0-.068.163c-.158.453-.087.698.215.758ZM88.263 57.773a.558.558 0 0 0 .186-.267.43.43 0 0 0-.007-.297.26.26 0 0 0-.132-.182.303.303 0 0 0-.235-.016c-.325.086-.413.354-.465.648.213.14.382.335.653.114ZM91.62 54.138a7.833 7.833 0 0 0-.01-.914.324.324 0 0 0-.042-.142.284.284 0 0 0-.1-.101.307.307 0 0 0-.14-.042.382.382 0 0 0-.155.024.496.496 0 0 0-.272.179.47.47 0 0 0-.104.302c.001.127-.019.255-.059.383a.638.638 0 0 0-.038.436c.04.136.13.243.255.3.243.16.486.044.665-.425ZM89.02 54.383c.06.02.126.028.194.02a.548.548 0 0 0 .2-.064c.254-.208.133-.404.039-.589-.26-.014-.476.06-.548.335a.337.337 0 0 0 .017.171c.02.052.053.096.097.127ZM96.626 35.925a.761.761 0 0 1 .516.18c.064.056.303-.049.393-.142a.65.65 0 0 0 .103-.203.552.552 0 0 0 .022-.214.303.303 0 0 0-.114-.118.333.333 0 0 0-.164-.044 4.049 4.049 0 0 0-.66.062c-.187.035-.264.161-.25.362.043.039.095.129.154.117ZM90.82 37.614c.267-.022.575-.318.54-.523-.034-.204-.694-.31-.884-.118-.19.192.073.667.344.641ZM99.713 33.561c-.02-.308-.051-.618-.079-.917a.822.822 0 0 0-.165.245.714.714 0 0 0-.06.277c.04.177.148.318.304.395ZM98.11 26.356l.023.02-.129-.347a.387.387 0 0 0 .012.184c.018.056.05.105.094.143ZM99.591 39.574c.075-.657.137-1.326.188-2.004-.05.032-.1.068-.145.108a1.709 1.709 0 0 0-.33.545c-.045.128-.065.259-.063.386-.006.132-.004.262.007.39a.554.554 0 0 0 .067.364.468.468 0 0 0 .276.211ZM96.169 44.384c.1.033.215.02.321-.034a.553.553 0 0 0 .246-.255.397.397 0 0 0 .061-.157.32.32 0 0 0-.012-.155.259.259 0 0 0-.22-.173.345.345 0 0 0-.154-.029.43.43 0 0 0-.166.041.5.5 0 0 0-.249.253.43.43 0 0 0-.02.308.321.321 0 0 0 .193.201ZM98.122 39.452a.577.577 0 0 0 .425.03.79.79 0 0 0 .393-.269.62.62 0 0 0 .103-.35.447.447 0 0 0-.122-.304c-.328-.214-.72-.188-.894.062a.792.792 0 0 0-.094.457.58.58 0 0 0 .189.374ZM98.692 41.512a1.284 1.284 0 0 0-.419.492 1.085 1.085 0 0 0-.106.602.745.745 0 0 0 .3.41c.144.094.32.138.507.124.245-1.083.434-2.168.567-3.251l-.14-.046a.53.53 0 0 0-.273-.016.685.685 0 0 0-.271.12.749.749 0 0 0-.206.23.674.674 0 0 0-.091.282c.007.361.052.714.132 1.053ZM97.438 40.93c.074.065.28.025.403-.039a.455.455 0 0 0 .122-.142.403.403 0 0 0 .051-.173c-.032-.268-.23-.316-.507-.244-.117.206-.274.435-.069.597ZM99.813 36.212c.006-.581-.001-1.16-.033-1.732l-.05.056c-.299.334-.457.794-.154.935-.016.075-.027.15-.032.225.001.107.026.21.072.299.047.089.114.163.197.217ZM85.985 25.01c.26-.014.51-.368.546-.765a.406.406 0 0 0-.13-.272.406.406 0 0 0-.286-.1.707.707 0 0 0-.387.183.76.76 0 0 0-.228.375.589.589 0 0 0 .132.391c.087.105.211.17.353.188ZM87.38 22.268c.23-.026.479-.535.338-.66-.14-.127-.622.08-.644.314a.32.32 0 0 0 .306.346ZM85.178 26.192a.869.869 0 0 0 .548-.109c.176-.097.325-.248.422-.428a.572.572 0 0 0-.045-.424.467.467 0 0 0-.323-.231.512.512 0 0 0-.228-.02.635.635 0 0 0-.233.08.728.728 0 0 0-.323.39c-.15.358-.069.684.182.742ZM89.507 19.337a.515.515 0 0 0 .157-.255.387.387 0 0 0-.024-.27c-.139-.291-.413-.146-.666-.032l-.216-.353.086-.096c.074.019.152.03.23.032.337-.018.68-.022 1.011-.03-.042.636.005.67.55.493a.474.474 0 0 0 .255.228.335.335 0 0 0 .144.017.414.414 0 0 0 .15-.045.48.48 0 0 0 .22-.236.617.617 0 0 0 .066-.415.446.446 0 0 0-.22-.303.443.443 0 0 0-.343.006.595.595 0 0 0-.285.25.567.567 0 0 0-.203-.13c.218-.797-.123-1.03-.937-.694a.431.431 0 0 1-.108-.096.25.25 0 0 0-.146-.122.315.315 0 0 0-.206.01.552.552 0 0 0-.386-.143.795.795 0 0 0-.346.279.733.733 0 0 0-.138.41c-.014.11-.018.223-.025.339a1.759 1.759 0 0 0-.653.553.997.997 0 0 0-.182-.033.895.895 0 0 0-.51.235.963.963 0 0 0-.293.495c.012.2.102.373.25.484.148.111.343.151.545.112a1.07 1.07 0 0 0 .573-.378l.096.042c.385.15.673-.078.924-.418.2.1.352.329.63.064ZM84.4 24.112a.342.342 0 0 0 .153.033c.054 0 .11-.012.164-.036a.5.5 0 0 0 .255-.245.49.49 0 0 0 .05-.165.404.404 0 0 0-.013-.162.323.323 0 0 0-.198-.216.49.49 0 0 0-.323.03.634.634 0 0 0-.27.229.479.479 0 0 0-.047.166.392.392 0 0 0 .019.16.328.328 0 0 0 .21.206Z" fill="#0269B3"/><path d="M93.418 24.678a.44.44 0 0 0 .042-.31.32.32 0 0 0-.176-.215.414.414 0 0 0-.319.012.553.553 0 0 0-.26.237.41.41 0 0 0-.07.15.332.332 0 0 0 .001.153.259.259 0 0 0 .193.192.332.332 0 0 0 .151.046.412.412 0 0 0 .168-.026.496.496 0 0 0 .27-.239ZM93.854 33.646a.466.466 0 0 0 .188-.06.542.542 0 0 0 .157-.137.907.907 0 0 0 .262-.353.946.946 0 0 0 .03-.398.756.756 0 0 0-.14-.344.506.506 0 0 0-.286-.165.645.645 0 0 0-.359.036.71.71 0 0 0-.417.467.713.713 0 0 0-.036.331.556.556 0 0 0 .122.281c.168.143.277.379.479.342ZM97.223 27.316a.876.876 0 0 0 .042-.329.711.711 0 0 0-.086-.297.43.43 0 0 0-.032-.24.354.354 0 0 0-.154-.165c-.117-.04-.258.051-.383.164a.886.886 0 0 0-.558.19 1.016 1.016 0 0 0-.355.506.857.857 0 0 0 .176.575.775.775 0 0 0 .506.282.856.856 0 0 0 .523-.2.96.96 0 0 0 .32-.486ZM91.49 27.148c.115.263.393.236.668.098.108-.236.207-.488-.012-.662a.291.291 0 0 0-.124-.066.348.348 0 0 0-.15-.003.43.43 0 0 0-.15.06.482.482 0 0 0-.122.113.615.615 0 0 0-.108.227.497.497 0 0 0-.002.233ZM77.44 14.794a.38.38 0 0 0 .171.125.448.448 0 0 0 .225.02.643.643 0 0 0 .342-.307.571.571 0 0 0 .061-.218.458.458 0 0 0-.032-.208.332.332 0 0 0-.146-.126.384.384 0 0 0-.2-.029.494.494 0 0 0-.207.075.565.565 0 0 0-.166.161.688.688 0 0 0-.08.258.552.552 0 0 0 .031.25ZM76.753 21.351c.068.018.225-.008.277-.114.052-.105-.027-.22-.088-.252-.06-.033-.293-.016-.341.085-.049.102.087.267.152.281ZM82.617 12.52c.346.114.645.056.811-.143a12.646 12.646 0 0 0-.962-.275.351.351 0 0 0-.013.256.264.264 0 0 0 .164.162ZM89.804 16.549c.038.214.158.39.337.492a.793.793 0 0 0 .623.055 1.19 1.19 0 0 0 .57-.395 14.409 14.409 0 0 0-1.208-.944c-.104.11-.186.238-.242.375a1.051 1.051 0 0 0-.08.416ZM86.494 20.909l.001.073a.38.38 0 0 0 .246.278c.313.049.48-.186.606-.522a1.268 1.268 0 0 0-.298-.267l-.034-.03c-.063-.057-.237-.119-.305-.07a.718.718 0 0 0-.29.384c0 .032.008.061.02.088a.184.184 0 0 0 .054.066ZM82.382 13.533a.51.51 0 0 0 .34-.057.64.64 0 0 0 .262-.265.475.475 0 0 0-.025-.341.38.38 0 0 0-.246-.2.446.446 0 0 0-.322.05.563.563 0 0 0-.239.26.467.467 0 0 0-.003.344.358.358 0 0 0 .233.21ZM84.727 22.161a.496.496 0 0 0 .057-.184.4.4 0 0 0-.022-.178.332.332 0 0 0-.246-.211.536.536 0 0 0-.349.094.639.639 0 0 0-.24.3.445.445 0 0 0 .022.32c.047.094.129.16.23.187.051.015.106.017.162.008a.463.463 0 0 0 .162-.06.524.524 0 0 0 .224-.276ZM81.154 26.436c.095.035.247-.141.298-.218a.188.188 0 0 0 .012-.122.138.138 0 0 0-.067-.087.31.31 0 0 0-.143.02.382.382 0 0 0-.13.083c-.04.052-.069.286.03.324ZM88.092 17.53c.129-.016.267-.204.36-.28.007-.319-.15-.366-.307-.332-.157.033-.364.137-.33.335a.384.384 0 0 0 .277.277ZM82.593 23.79a.22.22 0 0 0 .103.049.27.27 0 0 0 .122-.007.36.36 0 0 0 .204-.164c.118-.192.083-.497-.093-.503-.176-.006-.494 0-.581.204-.087.205.143.353.245.422Z" fill="#0269B3"/><path d="M23.606 66.151c2.458-5.157.163-11.382-5.127-13.903-5.29-2.521-11.57-.384-14.028 4.773s-.163 11.382 5.127 13.903c5.29 2.521 11.57.384 14.028-4.773Z" fill="#00BFB3"/><path d="M10.704 54.683c.012.051.086.041.103.022.017-.02.055-.05.043-.09a.055.055 0 0 0-.052-.04.055.055 0 0 0-.023.003c-.034.02-.087.055-.071.105ZM7.469 53.381a.11.11 0 0 0 .128-.08l.005-.01a.166.166 0 0 0 .04-.108c-.1.073-.197.146-.292.222a.215.215 0 0 0 .119-.024ZM10.13 54.119c.006-.066-.008-.131-.08-.132-.072-.001-.188.021-.204.079-.015.057.112.126.163.144.05.018.118-.018.121-.091ZM8.957 53.632a.078.078 0 0 0-.1 0 .11.11 0 0 0-.005.119c.022.028.081.01.106-.013.025-.023.03-.08 0-.106ZM18.443 52.074c0 .008 0 .016.002.024a.177.177 0 0 0 .2.083l-.122-.057c-.041-.02-.05-.036-.08-.05ZM6.803 54.18a.146.146 0 0 0 .19-.106.15.15 0 0 0-.09-.176.147.147 0 0 0-.16.054.149.149 0 0 0-.025.054.118.118 0 0 0 .085.173ZM6.305 54.357a.34.34 0 0 0 .083-.03.39.39 0 0 1 .097-.017c.109-.02.167-.072.155-.142a.125.125 0 0 0-.06-.09 13.02 13.02 0 0 0-.275.28ZM8.518 54.255c.01.044.034.061.077.049a.055.055 0 0 0 .048-.077.054.054 0 0 0-.05-.054c-.009-.001-.018 0-.026.004a.06.06 0 0 0-.044.027.058.058 0 0 0-.005.051ZM8.184 53.82a.244.244 0 0 0-.31.035.202.202 0 0 0-.044.156.29.29 0 0 0 .33.239.952.952 0 0 0 .098-.162.228.228 0 0 0-.074-.267ZM10.52 53.674a.328.328 0 0 0 .159-.291c-.044-.107-.133-.134-.265-.083a.158.158 0 0 0-.1.109.117.117 0 0 0-.063-.03.177.177 0 0 0-.187.122.142.142 0 0 0 .105.166.152.152 0 0 0 .188-.079.145.145 0 0 0 .163.086ZM9.814 52.873c-.03-.014-.144.034-.152.075-.008.041.087.13.11.125.022-.005.135-.05.132-.09a.149.149 0 0 0-.09-.11ZM13.924 52.15l-.003-.014a.142.142 0 0 0 .035-.074.166.166 0 0 0-.132-.188.155.155 0 0 0-.112.03.186.186 0 0 0-.063-.011.176.176 0 0 0-.155.198.203.203 0 0 0 .206.221c.118.002.226-.08.224-.161ZM17.886 52.247c.02-.114.03-.35-.181-.36a.26.26 0 0 0-.236.204.265.265 0 0 0-.479.181.244.244 0 0 0 .23.235.39.39 0 0 0 .28-.239.159.159 0 0 0 .083.085c.084.028-.035.197.083.236.119.038.104.192.25.235.147.042.306 0 .294-.143a.518.518 0 0 0-.167-.303c-.063-.073-.177-.02-.157-.131ZM13.938 52.56a.177.177 0 0 0-.16.17.138.138 0 0 0 .089.127.211.211 0 0 0 .184.074.166.166 0 0 0-.004-.321.158.158 0 0 0-.11-.05ZM16.275 53.56c-.026.055.05.078.08.092.028.014.071-.023.07-.037-.001-.014-.014-.077-.037-.09-.024-.013-.09-.021-.113.034ZM13.414 52.227a.44.44 0 0 0-.126.12c-.037.077.038.171.13.186a.135.135 0 0 0 .157-.122.177.177 0 0 0-.161-.184ZM7.963 54.78c.056-.022.11-.054.09-.13a.161.161 0 0 0-.201-.096.448.448 0 0 0-.025.158.092.092 0 0 0 .136.069ZM13.535 54.371a.07.07 0 0 0 .063.076.07.07 0 0 0 .076-.063c.002-.028-.017-.11-.062-.104a.107.107 0 0 0-.077.091ZM11.421 52.757a.157.157 0 0 0-.002-.238.115.115 0 0 0-.043-.02 1.579 1.579 0 0 0-.23.04c-.14-.115-.291-.139-.363-.057a.306.306 0 0 0 .032.344.234.234 0 0 0-.05.011.177.177 0 0 0-.095.198.22.22 0 0 0 .212.113.218.218 0 0 0 .093-.24l-.014-.007a.504.504 0 0 0 .22-.17c.073.048.147.122.24.026ZM8.34 53.197c-.123.047-.18.133-.146.222a.258.258 0 0 0 .026.036.064.064 0 0 0-.052.04c-.027.056.052.08.079.092.027.013.071-.022.072-.036l-.003-.027a.251.251 0 0 0 .177.04.192.192 0 0 0 .1-.264c-.042-.13-.109-.162-.252-.103ZM15.507 51.837a.162.162 0 0 0-.105-.162.164.164 0 0 0-.068-.01.14.14 0 0 0-.126.107.142.142 0 0 0-.002.059c.01.072.02.149.094.15.132-.003.206-.064.207-.144ZM15.889 52.121a.15.15 0 0 0-.16-.076.178.178 0 0 0-.152.155c.01.12.106.152.193.187.134-.116.166-.18.119-.266ZM14.618 52.075a.327.327 0 0 0 .038.018.307.307 0 0 0 .306-.207c.036-.137-.068-.267-.243-.312a.218.218 0 0 0-.275.134.3.3 0 0 0-.19.237.262.262 0 0 0 .22.198.194.194 0 0 0 .144-.068ZM16.06 52.582c.012-.024.004-.114-.035-.119-.038-.005-.08.044-.083.064-.004.02-.01.1.027.105a.1.1 0 0 0 .092-.05ZM14.256 51.087a17.373 17.373 0 0 0-.29-.008l-.005.034c.005.034.02.066.043.09a.291.291 0 0 0-.068.144c-.03.116.015.203.09.223.074.02.285-.081.303-.147a.194.194 0 0 0-.104-.226.156.156 0 0 0 .034-.097l-.003-.013ZM5.85 57.697a.29.29 0 0 0 .172-.047.234.234 0 0 0 .096-.017.292.292 0 0 0 .101-.385.204.204 0 0 0-.284-.102.257.257 0 0 0-.147.141.187.187 0 0 0-.143.193.2.2 0 0 0 .206.217ZM15.127 51.156c.018.011.037.02.057.027a.117.117 0 0 0 .117-.019 11.53 11.53 0 0 0-.636-.062.234.234 0 0 0 .464.05l-.002.004ZM5.312 55.918c.03.014.063.017.094.008a.237.237 0 0 0 .122-.21s-.016-.008-.016-.024a.266.266 0 0 0-.155-.193l-.218.313a.16.16 0 0 0 .13.111c.014.001.029 0 .043-.005ZM4.79 57.081c.049-.032.165-.082.133-.17-.033-.088-.157-.059-.214-.057-.058.002-.094.083-.076.16.018.077.092.11.157.067ZM10.05 52.244c-.03.13 0 .196.089.224.128.032.235-.02.255-.123a.33.33 0 0 0-.171-.246c-.08-.024-.144.027-.173.145ZM12.906 51.485a.16.16 0 0 0 .11.23.177.177 0 0 0 .188-.08.192.192 0 0 0-.072-.204.195.195 0 0 0-.07-.032.128.128 0 0 0-.156.086ZM4.817 56.723a.235.235 0 0 0 .23-.208.195.195 0 0 0-.008-.076c.023.003.046 0 .068-.007.076-.029.13-.244.086-.337a.205.205 0 0 0-.179-.085c-.123.192-.249.39-.348.598a.283.283 0 0 0 .151.115ZM6.664 56.156c.01.006.019.01.03.014a.353.353 0 0 0-.023.273.15.15 0 0 0 .2.059.21.21 0 0 0 .155-.18.212.212 0 0 0-.007-.083.252.252 0 0 0-.148-.147.143.143 0 0 0-.007-.154c-.058-.089-.15-.06-.246-.04-.022.102-.063.2.046.258ZM7.516 56.237a.277.277 0 0 0-.194.267.266.266 0 0 0 .311.17.192.192 0 0 0 .115-.11.144.144 0 0 0 .114.07.165.165 0 0 0 .17-.156.152.152 0 0 0-.152-.17.145.145 0 0 0-.107.044l-.003-.015a.187.187 0 0 0-.254-.1ZM16.019 51.283c-.119-.023-.237-.042-.361-.064a.21.21 0 0 0 .042.075.176.176 0 0 0-.021.09l.004.015c-.079.194.024.3.29.303.01.017.02.034.027.052.022.081.081.096.151.094a.139.139 0 0 0 .133-.102c.07-.148.043-.218-.11-.278l-.13-.061a.112.112 0 0 0 .014-.03.165.165 0 0 0-.04-.094ZM13.263 51.158c.02.004.041 0 .06-.01a.14.14 0 0 0 .102.155l.012.006a.325.325 0 0 0 .21.24.196.196 0 0 0 .199-.225.155.155 0 0 0-.099-.147.42.42 0 0 0 .06-.091 10.23 10.23 0 0 0-.623.028.351.351 0 0 0 .079.044ZM9.768 52.603c.043-.09.124-.158.048-.245a.155.155 0 0 0-.198-.036.164.164 0 0 0-.043.029.226.226 0 0 0-.14-.067.215.215 0 0 0-.124.205.113.113 0 0 0 .152.09.373.373 0 0 0 .123-.047.253.253 0 0 0 .182.071ZM10.735 52.48a.113.113 0 0 0 .076-.16.204.204 0 0 0-.226-.149.239.239 0 0 0-.138.239c.026.086.164.12.288.07ZM5.877 55.11a.177.177 0 0 0 .173-.158.14.14 0 0 0-.126-.145.052.052 0 0 0-.023.001c-.051.06-.102.122-.152.184a.162.162 0 0 0 .128.118ZM8.37 56.396a.177.177 0 0 0-.122.051.276.276 0 0 0-.007.389c.02.025.042.049.063.077a1.53 1.53 0 0 0-.14.115.145.145 0 0 0-.02.228.226.226 0 0 0 .328.051.176.176 0 0 0 .05-.077.144.144 0 0 0 .109-.015c.073-.069.021-.186-.025-.208a.092.092 0 0 0-.074-.001l-.004-.048c.023-.02.05-.04.073-.063a.304.304 0 0 0 .072-.336.353.353 0 0 0-.302-.163ZM6.284 56.414a.322.322 0 0 0-.19-.273.253.253 0 0 0-.333-.088.296.296 0 0 0-.163.341.161.161 0 0 0-.143.15.149.149 0 0 0 .154.14.126.126 0 0 0 .138-.13.4.4 0 0 0 .27.01.205.205 0 0 0 .052-.028.082.082 0 0 0 .018.009c.104.006.187-.048.197-.131ZM6.314 56.665a.156.156 0 0 0 .101.091c.038.007.142-.022.152-.07.01-.05-.08-.112-.12-.128a.109.109 0 0 0-.123.059.108.108 0 0 0-.01.048ZM7.014 57.094a.207.207 0 0 0-.11.091.125.125 0 0 0-.027.012c-.12.208-.231.074-.36.195a.25.25 0 0 0-.045.067.193.193 0 0 0 .216.275c.105-.017.208-.049.305-.093a.214.214 0 0 0 .104-.123.22.22 0 0 0 .05-.006c.107-.033.143-.128.093-.261a.232.232 0 0 0-.226-.157ZM6.378 55.453a.278.278 0 0 0-.336-.182.437.437 0 0 0-.196.41.283.283 0 0 0 .358.138.333.333 0 0 0 .174-.366ZM9.07 57.232a.13.13 0 0 0 .161-.09.13.13 0 0 0 0-.068.135.135 0 0 0-.23-.008.14.14 0 0 0 .069.166ZM7.65 57.59a.044.044 0 0 0 .042.048.046.046 0 0 0 .042-.044c.007-.013-.029-.037-.04-.037-.012 0-.041.012-.043.032ZM8.755 56.118c.068.033.11-.009.161-.158a.133.133 0 0 0-.23-.008.141.141 0 0 0 .069.166ZM5.717 60.362a.16.16 0 0 0-.185.138.15.15 0 0 0 .151.15.143.143 0 0 0 .158-.12.134.134 0 0 0-.124-.168ZM7.896 61.622a.075.075 0 0 0 .052.068c.029.001.062-.043.073-.071.012-.028-.012-.086-.054-.091-.043-.005-.066.064-.07.094ZM6.057 60.21a.253.253 0 0 0 .087-.261.202.202 0 0 0-.21-.122.281.281 0 0 0-.233-.273.292.292 0 0 0-.281.126.215.215 0 0 0-.132-.135c-.185-.088-.343-.028-.402.084a.343.343 0 0 0 .037.3.136.136 0 0 0-.135.132.163.163 0 0 0 .143.16.152.152 0 0 0 .17-.13v-.03a.278.278 0 0 0 .268-.127l.009-.017a.26.26 0 0 0 .241.158.364.364 0 0 0 .141-.007.135.135 0 0 0 .012.107.2.2 0 0 0 .285.034ZM15.672 55.56a.146.146 0 0 0 .16-.142.154.154 0 0 0-.125-.149.15.15 0 0 0-.155.15.119.119 0 0 0 .12.14ZM9.808 53.602a.26.26 0 0 0 .07-.324c-.044-.1-.135-.127-.26-.079a.264.264 0 0 0-.067-.032c-.117-.024-.2.044-.226.192a.209.209 0 0 0 .134.215.263.263 0 0 0 .153-.029.264.264 0 0 0 .196.056ZM4.622 64.92c0 .043.017.153.108.157.09.004.099-.102.1-.139a.15.15 0 0 0-.083-.108.094.094 0 0 0-.125.09ZM14.827 54.953c-.007-.03-.032-.073-.058-.08-.026-.007-.1.034-.1.06-.001.025.068.066.098.072.03.007.063-.038.06-.052ZM4.01 59.137a.505.505 0 0 0 .001.069.138.138 0 0 0-.145.033c-.055.05-.078.12-.028.182a.24.24 0 0 0 .16.076.115.115 0 0 0 .112-.08.427.427 0 0 0 .333.071.308.308 0 0 0 .27-.355c-.004-.11.073-.192.024-.29a.455.455 0 0 0-.484-.26.362.362 0 0 0-.29.197c-.066.11.055.222.048.357ZM10.85 55.885c-.008.016-.002.086.04.098.04.012.073-.053.083-.082a.074.074 0 0 0-.04-.074c-.028-.008-.067.033-.083.058ZM10.36 54.934c.012-.024.002-.107-.033-.118-.036-.011-.092.053-.098.077a.067.067 0 0 0 0 .026.092.092 0 0 0-.077.1c.01.105-.009.223.085.315l.15.006c.077.116.194.183.267.145a.136.136 0 0 0 .076-.16c-.022-.125-.066-.156-.216-.167-.061-.072-.113-.14-.174-.198a.067.067 0 0 0 .02-.026ZM7.737 54.788a.309.309 0 0 0-.418-.019c-.042-.002-.106.013-.12.041a.057.057 0 0 0-.002.029.248.248 0 0 0-.154.106.458.458 0 0 0 .081.545.373.373 0 0 0 .335.118c.127-.023.143-.188.26-.268.26-.176.166-.395.018-.552ZM9.083 54.909a.167.167 0 0 0-.037-.018c-.05-.006-.176.016-.184.058a.103.103 0 0 1-.062.015c-.084 0-.111.045-.135.132-.024.086-.054.217.066.244.12.028.154-.045.16-.083.007-.038.068-.084.078-.042.01.041.05.07.154.054a.16.16 0 0 0 .155-.177.223.223 0 0 0-.195-.183ZM9.389 56.078c.016.027.033.073.081.058a.052.052 0 0 0 .036-.029.053.053 0 0 0 0-.046c-.01-.028-.044-.095-.086-.082-.042.014-.04.085-.031.099ZM7.409 63.269a.425.425 0 0 0-.29-.348.288.288 0 0 0-.288.274.324.324 0 0 0 .253.316.294.294 0 0 0 .325-.242ZM4.68 63.532c.046-.036-.08-.266-.146-.277-.068-.01-.13.123-.093.234.037.112.192.08.239.043ZM5.508 62.742c.085-.01.192.009.215-.115a.142.142 0 0 0-.167-.178.175.175 0 0 0-.068.027c-.073.05-.063.12.02.266ZM4.749 62.3a.157.157 0 0 0 .126.175.177.177 0 0 0 .192-.136.161.161 0 0 0-.318-.04ZM4.089 58.441a.094.094 0 0 0-.101-.03c-.03.013-.085.047-.068.08a.1.1 0 0 0 .094.045c.026-.005.095-.062.075-.095ZM4.204 64.29a.154.154 0 0 0 .187-.068c.03-.085-.118-.229-.181-.204-.063.025-.087.235-.006.271ZM3.874 63.784c.023.026.082.005.104-.016.021-.02.041-.087.004-.12-.037-.034-.1.012-.111.032a.095.095 0 0 0 .003.104ZM5.808 63.692a.256.256 0 0 0-.229-.26.277.277 0 0 0-.317.256.22.22 0 0 0 .19.26.355.355 0 0 0 .356-.256ZM6.371 64.234c-.016-.041-.122-.04-.147-.024a.111.111 0 0 0-.023.113.125.125 0 0 0 .11.037.136.136 0 0 0 .06-.126ZM3.73 62.79c-.068 0-.123.024-.136.091a.84.84 0 0 0 .027.503c.014.024.031.045.052.063a.191.191 0 0 0 .334-.117c.017-.105.019-.212.007-.318a.3.3 0 0 0-.284-.223ZM5.655 59.235a.155.155 0 0 0-.13-.173.163.163 0 0 0-.169.192.131.131 0 0 0 .12.1.147.147 0 0 0 .116-.02.144.144 0 0 0 .063-.099ZM8.002 60.868c-.064-.063-.034-.051-.009-.14a.155.155 0 0 0-.16-.22.311.311 0 0 0-.26.316.364.364 0 0 0 .387.293c.12-.021.106-.185.042-.248ZM3.506 60.12a.124.124 0 0 0-.001-.033.308.308 0 0 0 .227.124.28.28 0 0 0 .098-.012.401.401 0 0 0 .028.375.292.292 0 0 0 .352.027c.08-.048.141-.103.25-.051.078.037.134-.03.161-.11-.05-.104-.131-.134-.209-.083a1.652 1.652 0 0 0-.183-.219.354.354 0 0 0-.285-.024.31.31 0 0 0 .052-.187c0-.216-.06-.283-.243-.312a.272.272 0 0 0-.212.076c-.03.165-.06.33-.082.497a.13.13 0 0 0 .047-.067ZM6.73 60.086a.306.306 0 0 0-.096.303c.03.08.06.164.178.147.118-.016.175-.012.262-.018a.128.128 0 0 0 .18-.096.164.164 0 0 0-.127-.194.394.394 0 0 1-.148-.07.222.222 0 0 0-.25-.072ZM6.158 61.215a.456.456 0 0 0-.068-.125.148.148 0 0 0-.147.088.149.149 0 0 0-.013.06c0 .07.05.082.104.089.054.006.139-.044.124-.112ZM6.824 61.393a.457.457 0 0 0-.068-.124.15.15 0 0 0-.148.088.149.149 0 0 0-.012.059c0 .07.05.083.104.089.054.006.138-.044.124-.112ZM5.431 61.927a.204.204 0 0 0 .195.232c.095.016.177-.07.194-.205a.149.149 0 0 0-.126-.187.317.317 0 0 0-.263.16ZM4.905 61.325a.15.15 0 0 0-.108.043.15.15 0 0 0-.043.11.276.276 0 0 0-.15-.019.285.285 0 0 1-.206-.028.316.316 0 0 0-.306.019.269.269 0 0 0-.129.27l.005.03a.256.256 0 0 0-.168-.09c-.095-.007-.169.082-.181.219-.009.103.064.226.145.23a.286.286 0 0 0 .27-.197.167.167 0 0 0-.003-.044.282.282 0 0 0 .117.055c.11.026.226.011.327-.04a.233.233 0 0 1 .122-.014.197.197 0 0 0 .27-.187c.014.012.032.02.05.024a.177.177 0 0 0 .14-.172.177.177 0 0 0-.152-.21ZM5.306 60.73a.31.31 0 0 0-.266-.263.178.178 0 0 0-.175.109.177.177 0 0 0-.013.071.19.19 0 0 0 .203.232c.132.012.248-.06.251-.148ZM18.404 53.676a.16.16 0 0 0-.114-.085c-.036 0-.133.066-.13.108.003.043.114.106.135.096.02-.01.125-.078.109-.119ZM12.887 52.412a.218.218 0 0 0-.175-.229c-.144-.035-.229 0-.258.106a.265.265 0 0 0 .025.181.102.102 0 0 0-.035-.017.152.152 0 1 0-.019.303.176.176 0 0 0 .15-.16.184.184 0 0 0-.003-.037c.01.008.021.014.034.016a.275.275 0 0 0 .281-.163ZM18.12 55.849a.09.09 0 0 0-.064-.105.088.088 0 0 0-.044-.002c-.049.007-.166.056-.165.098.002.042.102.108.15.127.048.018.116-.035.123-.118ZM13.728 53.903a.147.147 0 0 0 .173-.1.163.163 0 0 0-.1-.199.161.161 0 0 0-.176.097.176.176 0 0 0 .103.202ZM12.665 52.977c-.003-.048-.015-.174-.072-.185-.058-.012-.121.109-.128.152-.007.044.049.087.09.104a.074.074 0 0 0 .11-.071ZM16.238 54.524a.16.16 0 0 0-.125-.15c-.054 0-.105.081-.105.168a.085.085 0 0 0 .097.097c.064-.007.126-.03.133-.115ZM13.508 53.024c-.067-.006-.162.119-.143.17a.177.177 0 0 0 .14.066.09.09 0 0 0 .11-.057.09.09 0 0 0 .004-.046c-.008-.06-.024-.129-.11-.133ZM15.181 54.294c0-.03-.01-.06-.028-.086a.097.097 0 0 0 .014-.028.156.156 0 0 0-.093-.178.133.133 0 0 0-.176.085.152.152 0 0 0 .094.176c.02.007.042.01.063.008.002.033.013.096.048.092a.1.1 0 0 0 .078-.069ZM16.994 54.6c-.006-.031-.03-.074-.057-.08-.026-.008-.092-.002-.101.059-.01.06.068.066.099.072.03.007.063-.038.06-.052ZM12.114 53.038c.044-.15-.019-.318-.136-.356a.213.213 0 0 0-.073-.007l.085-.054a.058.058 0 0 0 .035-.036c.002-.008.003-.017.002-.026a.057.057 0 0 0-.008-.024.177.177 0 0 0-.226-.057.136.136 0 0 0 .003.217.322.322 0 0 0-.213.183.29.29 0 0 0 .188.328.284.284 0 0 0 .343-.168ZM14.854 54.266a.254.254 0 0 0-.184-.19.158.158 0 0 0-.139.165.149.149 0 0 0 .052.104.147.147 0 0 0 .111.034c.098.004.165-.046.16-.113ZM8.954 53.254a.26.26 0 0 0 .27.072.177.177 0 0 0 .08-.205c-.067-.142-.169-.208-.256-.167a.262.262 0 0 0-.094.3ZM12.07 54.225a.242.242 0 0 0-.197-.278.253.253 0 0 0-.265.197.236.236 0 0 0 .463.081ZM10.716 53.895a.046.046 0 0 0-.033-.054c-.025-.012-.046.023-.05.036-.005.014.022.043.036.043a.042.042 0 0 0 .047-.025ZM8.7 52.91a.232.232 0 0 0-.095-.262c.04.005.08 0 .116-.016a.115.115 0 0 0 .025-.172c-.202.12-.409.236-.608.367a.32.32 0 0 0 .213.297.327.327 0 0 0 .349-.214ZM12.984 53.716c-.056.001-.194.021-.204.075-.01.054.099.134.148.161.05.028.132-.035.14-.104.007-.069-.01-.137-.084-.132ZM12.653 53.511c-.045-.009-.205.068-.208.145-.003.076.173.133.238.133a.167.167 0 0 0 .14-.13c.008-.082-.104-.134-.17-.148ZM11.417 53.586a.15.15 0 0 0-.052-.188.123.123 0 0 0 .01-.118.11.11 0 0 0-.144-.069.118.118 0 0 0-.1.1.124.124 0 0 0 .033.1.22.22 0 0 0-.108.114.177.177 0 0 0 .106.21.214.214 0 0 0 .255-.15ZM13.153 54.715c.005-.011-.011-.072-.027-.076-.016-.003-.091-.022-.115.024-.024.045.036.088.051.09a.126.126 0 0 0 .09-.038ZM16.427 56.106c.002-.04-.086-.104-.113-.1-.026.002-.111.036-.118.07-.006.034.052.097.087.106.035.009.143-.041.144-.076ZM16.252 53.748a.12.12 0 0 0-.024-.106.12.12 0 0 0-.1-.043.135.135 0 0 0-.137.117c-.014.062.112.177.163.15a.162.162 0 0 0 .098-.118ZM20.805 54.39a.242.242 0 0 0-.257-.224.249.249 0 0 0-.21.253.235.235 0 0 0 .467-.028ZM18.739 52.945a.331.331 0 0 0-.225-.199c-.084-.005-.134.06-.135.18 0 .122.045.198.14.199a.188.188 0 0 0 .2-.103.188.188 0 0 0 .02-.077ZM19.898 53.738a.251.251 0 0 0-.244.197.177.177 0 0 0 .151.18.217.217 0 0 0 .214-.198.144.144 0 0 0-.021-.116.15.15 0 0 0-.1-.063ZM19.368 52.562l-.107-.05a.138.138 0 0 0 .107.05ZM19.582 53.13c.09.043.185.088.251-.022a.159.159 0 0 0-.016-.203.116.116 0 0 0-.087-.041 2.119 2.119 0 0 0-.213.094c-.17-.08-.316-.073-.363.023a.308.308 0 0 0 .129.345c.11.068.172.03.299-.196ZM20.017 53.19a.29.29 0 0 0 .26.276.298.298 0 0 0 .241-.12 11.11 11.11 0 0 0-.424-.315.255.255 0 0 0-.077.159ZM19.308 55.477c.012-.024-.024-.106-.06-.107-.037-.002-.077.07-.077.096 0 .025.027.08.064.082.038.002.063-.049.073-.071ZM20.063 56.207c-.028 0-.056.048-.066.078-.01.03.019.084.06.086.043.002.062-.07.064-.1a.078.078 0 0 0-.058-.064ZM8.503 58.864c.008-.06-.141-.116-.149-.1-.06.027-.144.052-.156.121-.01.07.077.098.107.092.03-.005.188-.057.198-.113ZM12.824 55.236a.156.156 0 0 0-.198-.035.12.12 0 0 0-.07.146c.028.114.116.13.224.137.042-.082.12-.159.044-.248ZM15.531 53.481c.014.048.03.105.077.12.046.013.156-.083.15-.159-.007-.075-.058-.08-.112-.082-.054-.002-.135.053-.115.121ZM15.008 53.199a.258.258 0 0 0 .07-.118.21.21 0 0 0-.167-.234c-.106-.027-.176.008-.2.1a.258.258 0 0 0-.01.078.16.16 0 0 0-.058.123.27.27 0 0 0 .207.24c.057-.002.13-.092.158-.19ZM17.22 53.888a.274.274 0 0 0-.302-.27.247.247 0 0 0-.25.149.249.249 0 0 0-.022.1.311.311 0 0 0 .285.303.327.327 0 0 0 .289-.282ZM18.382 54.135a.263.263 0 0 0-.271-.188c-.12.004-.182.09-.175.24a.207.207 0 0 0 .18.177c.09-.001.266-.151.266-.23ZM18.884 54.725c-.01-.067-.037-.127-.107-.112-.07.016-.18.065-.181.125-.002.06.137.097.196.094.058-.004.11-.028.092-.107ZM6.728 54.811a.274.274 0 0 0-.027-.353.292.292 0 0 0-.273 0 .329.329 0 0 0-.068-.022.09.09 0 0 0-.118.095c0 .053.009.102.052.13a.265.265 0 0 0 .083.236c.07.082.237.02.35-.086ZM18.99 54.133a.177.177 0 0 0-.15-.156.176.176 0 0 0-.162.171.141.141 0 0 0 .133.132.15.15 0 0 0 .124-.032.152.152 0 0 0 .056-.115ZM21.769 55.2a.153.153 0 0 0-.201.01.119.119 0 0 0-.04.157c.053.103.148.102.25.081.029-.095.084-.18-.01-.249ZM19.406 54.38a.046.046 0 0 0-.013-.033.045.045 0 0 0-.031-.014.05.05 0 0 0-.04.047c-.007.013.032.035.044.035.012 0 .04-.014.04-.035ZM15.424 52.478a.243.243 0 0 0-.182-.028c-.11.048-.057.144-.04.238.113.024.21.031.252-.076a.142.142 0 0 0-.03-.134ZM17.291 51.618l.01.029.093.003a1.762 1.762 0 0 1-.103-.032ZM16.485 53.401a.24.24 0 0 0-.02-.18.074.074 0 0 0-.021-.024.07.07 0 0 0-.09.005.156.156 0 0 0-.029.127c0 .045-.008.088.025.125.033.038.11.008.135-.053ZM17.544 52.822a.276.276 0 0 0-.338-.04c-.095.057-.076.235 0 .371a.272.272 0 0 0 .348.058.28.28 0 0 0-.01-.389ZM15.918 53.136a.095.095 0 0 0 .075.09c.02.007.041.004.06-.005a.078.078 0 0 0 .037-.046.085.085 0 0 0-.068-.117.083.083 0 0 0-.036 0 .083.083 0 0 0-.058.043.083.083 0 0 0-.01.035ZM16.513 52.117a.126.126 0 0 0-.017-.055l.007-.016c.004-.049-.033-.131-.069-.142a.144.144 0 0 0-.097.022.086.086 0 0 0-.038-.005.275.275 0 0 0-.184.238.138.138 0 0 0 .16.135c.163-.003.239-.06.238-.177ZM18.177 53.091a.155.155 0 0 0-.2.01.118.118 0 0 0-.04.158c.051.105.147.101.249.081.031-.095.084-.18-.009-.249ZM16.394 51.39a.255.255 0 0 1 .033.278.241.241 0 0 0 .141.24.314.314 0 0 0 .275-.167c.03-.064.076-.16-.015-.203a.276.276 0 0 1-.091-.087 6.515 6.515 0 0 0-.35-.088c0 .008-.001.019.007.027ZM16.727 52.366a2.824 2.824 0 0 0-.304.123.134.134 0 0 0-.071.083.13.13 0 0 0 .015.108.143.143 0 0 0 .187.072.4.4 0 0 1 .132-.03.218.218 0 0 0 .23-.174c.036-.108-.02-.18-.19-.182ZM16.994 53.266a.178.178 0 0 0-.043-.136c-.088-.063-.144.006-.2.064.014.094.054.162.152.152a.127.127 0 0 0 .09-.08ZM10.302 52.967a.332.332 0 0 1 .023-.208c.014-.03-.038-.102-.075-.122a.187.187 0 0 0-.148.01.14.14 0 0 0-.034.12c.016.078.039.155.067.229.025.063.073.074.139.042.01-.02.036-.051.028-.07ZM11.279 54.826c-.027-.093-.147-.164-.213-.125-.066.04-.054.29.024.332.077.043.217-.114.189-.207ZM9.294 52.171c-.1.048-.202.1-.3.15a.23.23 0 0 0 .19.011.261.261 0 0 0 .11-.16ZM7.008 53.693l.005-.01-.106.091a.143.143 0 0 0 .101-.08ZM11.306 51.425c-.224.06-.451.125-.68.196.013.014.029.027.046.038.064.03.134.047.205.047a.367.367 0 0 0 .133-.029c.044-.015.087-.033.13-.054a.217.217 0 0 0 .166-.198ZM13.152 52.019a.152.152 0 0 0-.136-.165.118.118 0 0 0-.15.125.142.142 0 0 0 .027.113.141.141 0 0 0 .102.056.148.148 0 0 0 .158-.129ZM11.37 51.967a.226.226 0 0 0-.138-.261.19.19 0 0 0-.216.092c-.048.146-.012.283.084.313a.255.255 0 0 0 .27-.144ZM12.016 51.492a.353.353 0 0 0 .402.045.341.341 0 0 0 .12-.36c-.378.055-.753.13-1.123.225l-.006.056a.207.207 0 0 0 .266.22c.12-.05.234-.112.34-.185ZM11.91 52.018c.018-.035-.01-.103-.04-.139a.124.124 0 0 0-.118-.02c-.087.046-.089.123-.045.213.077.015.164.041.204-.054ZM10.17 51.787a9.384 9.384 0 0 0-.575.24l.023.01c.132.063.296.06.322-.068a.51.51 0 0 0 .077-.018.267.267 0 0 0 .153-.164ZM7.425 58.215c-.024-.091-.16-.134-.294-.095a.177.177 0 0 0-.094.198.214.214 0 0 0 .23.147.246.246 0 0 0 .158-.25ZM6.411 58.076c-.025-.078-.212-.101-.244-.034s.071.212.15.19a.143.143 0 0 0 .094-.156ZM7.876 58.35a.297.297 0 0 0-.248-.278.216.216 0 0 0-.192.218.202.202 0 0 0 .206.222c.13.007.232-.066.234-.163ZM5.283 57.7a.145.145 0 0 0-.185.021c-.087.088-.019.168.037.243l-.102.124-.038-.018a.438.438 0 0 0-.006-.087c-.03-.118-.056-.24-.082-.358.215-.069.223-.09.125-.262a.221.221 0 0 0 .058-.121.135.135 0 0 0-.125-.15.203.203 0 0 0-.228.15.166.166 0 0 0 .13.191.264.264 0 0 0-.029.09c-.281.027-.334.18-.164.427a.203.203 0 0 1-.025.051.117.117 0 0 0-.012.141.242.242 0 0 0-.02.157.222.222 0 0 0 .264.083c.038-.01.076-.023.115-.035a.49.49 0 0 0 .23.16.409.409 0 0 0 .003.07.272.272 0 0 0 .3.192.283.283 0 0 0 .142-.363.308.308 0 0 0-.167-.156l.007-.04c.023-.157-.074-.23-.205-.276.02-.085.085-.169-.023-.234ZM7.238 58.901a.143.143 0 0 0-.124-.172.15.15 0 0 0-.169.129.177.177 0 0 0 .128.179.15.15 0 0 0 .165-.136Z" fill="#01AEA2"/><path d="M6.783 55.596a.147.147 0 0 0-.165.117.154.154 0 0 0 .124.175.12.12 0 0 0 .106-.016.117.117 0 0 0 .05-.094.143.143 0 0 0-.115-.182ZM9.74 54.26a.15.15 0 0 0-.09-.097.251.251 0 0 0-.136-.048.325.325 0 0 0-.24.137.232.232 0 0 0 .003.248.202.202 0 0 0 .185.089.24.24 0 0 0 .198-.112c.036-.079.107-.149.08-.216ZM7.39 53.886a.294.294 0 0 0-.204.098.164.164 0 0 0-.122.12c-.005.047.035.085.082.115a.283.283 0 0 0 .297.236.354.354 0 0 0 .237-.357.269.269 0 0 0-.29-.212ZM7.744 55.96c.08-.075.05-.17-.015-.251-.086-.008-.177-.01-.22.091a.133.133 0 0 0 .074.182.176.176 0 0 0 .161-.021ZM4.63 62.62a.177.177 0 0 0 .02-.16.177.177 0 0 0-.27-.037.156.156 0 0 0 .078.247.21.21 0 0 0 .172-.05ZM6.864 62.005c0-.027-.02-.08-.058-.085-.039-.005-.071.039-.078.065-.006.026.016.107.053.111.037.004.082-.066.083-.091ZM3.503 61.064c.014-.139-.027-.238-.105-.272-.011.13-.021.259-.023.381a.122.122 0 0 0 .128-.109ZM4.333 57.96a.313.313 0 0 0 .114-.416.34.34 0 0 0-.173-.153c-.086.182-.159.37-.228.557a.34.34 0 0 0 .287.011ZM6.021 58.573l.025-.01a.176.176 0 0 0 .075-.125c-.007-.118-.096-.148-.217-.148a.595.595 0 0 0-.068.142l-.008.016c-.014.03-.022.1-.002.118a.2.2 0 0 0 .15.054.084.084 0 0 0 .045-.047ZM3.857 61.015a.177.177 0 0 0-.15-.173.177.177 0 0 0-.16.168.156.156 0 0 0 .143.16.166.166 0 0 0 .167-.155ZM6.565 59.04a.152.152 0 0 0-.176.152.177.177 0 0 0 .173.159.164.164 0 0 0 .142-.216.145.145 0 0 0-.14-.094ZM8.244 59.759c.004-.039-.065-.07-.094-.078a.063.063 0 0 0-.066.047.11.11 0 0 0 .054.084c.02.008.1-.013.106-.053ZM4.782 58.444c-.014-.044-.087-.069-.119-.092-.107.04-.111.102-.089.154.023.052.072.112.135.074a.177.177 0 0 0 .073-.136ZM7.26 59.591a.099.099 0 0 0-.072-.137c-.072-.017-.172.035-.161.1.01.063.035.176.11.18.074.005.107-.097.122-.143Z" fill="#01AEA2"/><path d="M76.322 34.002H19.033a5.299 5.299 0 0 0-5.299 5.299v31.071a5.3 5.3 0 0 0 5.3 5.3h57.288a5.3 5.3 0 0 0 5.3-5.3V39.301a5.299 5.299 0 0 0-5.3-5.299Z" fill="#ECF0F6"/><path d="M81.621 42.456H13.734v11.718h67.887V42.456Z" fill="#343741"/><g opacity=".5"><path d="M80.841 69.068a1.54 1.54 0 0 0 .285 1.787.87.87 0 0 0 .508.108V68.76a.979.979 0 0 0-.793.308ZM74.596 74.534a1.4 1.4 0 0 1 .27.292c.307.332.615.416.83.224.216-.193.24-.64-.153-.97-.039 0-.116 0-.154-.062-.193-.185-.216-.362.046-.509.08-.032.163-.06.246-.084a1.048 1.048 0 0 0 .493 1.247 1.139 1.139 0 0 0 1.102.1c.05.05.104.097.161.14.2.176.347.415.701.369a.824.824 0 0 0 .555-1.002 1.079 1.079 0 0 0-.378-.508.608.608 0 0 0-.77-.916 1.543 1.543 0 0 0-.2-.185.94.94 0 0 0-1.086 0 .95.95 0 0 0 0-.362c-.085-.508-.308-.724-.87-.824a1.586 1.586 0 0 0-1.448.485 4.218 4.218 0 0 0-.624-.439c-.67-.308-1.14.046-1.063.77a.83.83 0 0 0 1.163.77v.085a.587.587 0 0 0-.5.377c-.17.401.13.647.423.917.362-.146.77-.231.732-.77a.254.254 0 0 0 0-.123h.092a.77.77 0 0 0 .432.978Z" fill="#CED5E1"/><path d="M72.117 75.466a.501.501 0 0 0 .046.33.771.771 0 0 0-.231.209h2.31a.693.693 0 0 0 .162-.393 1.14 1.14 0 0 0-2.249-.17l-.038.024ZM62.929 74.28a.353.353 0 0 0 .185.53.883.883 0 0 0 .631.424.842.842 0 0 0 .624-.215 1.172 1.172 0 0 0 .062-1.656c-.258-.013-.516 0-.77.038a.902.902 0 0 0-.724.855l-.008.023ZM80.911 62.843a1.474 1.474 0 0 0-.215-.116h-.07c-.325.11-.639.25-.94.416a.586.586 0 0 0-.13.493 1.217 1.217 0 0 0 1.078.84.585.585 0 0 0 .67-.447.987.987 0 0 0-.393-1.186ZM81.634 62.296v-.416a.947.947 0 0 0 0 .416ZM73.494 57.66c-.17-.07-.362-.231-.516-.192-.255.046-.486.18-.654.377-.17.262 0 .508.277.67.277.162.4.254.593.385a1.71 1.71 0 0 0 1.94-.77.208.208 0 0 0 0-.154c-.307-.44 0-.77.186-1.117a.616.616 0 0 0-.44-.94.65.65 0 0 0-.13 0c.049-.089.073-.19.069-.292a2.429 2.429 0 0 0-.262-.662c-.293 0-.578.061-.901.092a3.497 3.497 0 0 0-.077.585.654.654 0 0 0 .316.563.815.815 0 0 0-.177.616c.061.292.169.577-.224.84ZM76.59 55.234a.693.693 0 0 0-.616.139.384.384 0 0 0 .1.67l.085.046a.724.724 0 0 0-.3.894c.277.77.839.716 1.078.608.238-.108.723.092.516.285-.208.192-.216.562.269 1.093a1.072 1.072 0 0 0 1.54.24 1.543 1.543 0 0 0 .27-2.196c-.516-.708-1.001-.523-1.294-1.016-.293-.493-.67-.478-1.248-.293-.084 0-.169.054-.261.085a.439.439 0 0 0-.14-.555ZM81.28 58.946c0 .185.154.393.354.54v-.817a.487.487 0 0 0-.354.277ZM54.726 70.213a.986.986 0 0 0 1.117-.084c.23-.308 0-.855-.424-1.163a.463.463 0 0 0-.7.138.846.846 0 0 0 .007 1.11ZM67.41 71.392c-.2-.139-.431-.247-.639 0a.647.647 0 0 0 .154.893 1.87 1.87 0 0 0 .593-.277c.208-.193.123-.462-.108-.616ZM69.359 76.028h2.202v-.116a.523.523 0 0 0-.054-.338.934.934 0 0 0 .247-.208 1.14 1.14 0 0 0-.108-1.54 1.116 1.116 0 0 0-.547-.155c.31-.263.512-.63.57-1.032a1.479 1.479 0 0 0-.362-1.394c-.316-.323-.77-.123-1.27-.215a.447.447 0 0 0 .215-.177 1.017 1.017 0 0 0-.277-1.025.87.87 0 0 0-.863.285.654.654 0 0 0 0 .716c-.677 0-1.024.663-1.17 1.318-.066.285-.03.584.1.847a1.348 1.348 0 0 0 .9.677c.34.1.548.37.833.447a1.102 1.102 0 0 0 0 .994.977.977 0 0 0-.416.916Z" fill="#CED5E1"/><path d="M65.677 74.803a1.047 1.047 0 0 0 1.471.246.947.947 0 0 0 1.01 0 .832.832 0 0 0-.14-.962.585.585 0 0 0-.3-.131.902.902 0 0 0-.23-.632 1.38 1.38 0 0 0-1.21-.246.87.87 0 0 0-.277-.7.848.848 0 0 0-1.263.069 1.062 1.062 0 0 0 .077 1.34.838.838 0 0 0 .631 0 1.202 1.202 0 0 0 .231 1.016ZM66.048 59.817a.77.77 0 0 0 0-.97c-.486-.409-1.055-.478-1.317-.155a1.039 1.039 0 0 0 .161 1.271.932.932 0 0 0 1.156-.146ZM69.413 64.083a.47.47 0 0 0 .185.624c.23.154.624.123.724-.1a.555.555 0 0 0-.147-.77.533.533 0 0 0-.762.246ZM62.835 59.17c.08-.305.144-.613.193-.924.662-.37.978-.878.77-1.287a1.248 1.248 0 0 0-1.464-.392c-.47.238-.485.531 0 1.486-.354.216-.77.385-.516.886a.639.639 0 0 0 .717.416.456.456 0 0 0 .3-.185ZM67.256 60.602a.969.969 0 0 0 1.063-.87c.075-.609.204-1.21.385-1.795.177-.462.038-1.132-.285-1.232a.77.77 0 0 0-.77.47c-.039.446-.37.446-.609.624a1.923 1.923 0 0 0-.493.7 1.636 1.636 0 0 0-.092.555 4.67 4.67 0 0 0 0 .57c.061.624.308.94.8.978ZM71.392 61.295c.17-.277.3-.508.455-.724a.97.97 0 0 0-.162-1.232c-.239-.192-.77-.192-.893.046-.257.352-.38.783-.347 1.217.146.662.185.709.947.693ZM62.636 69.905c-.008.201.046.4.153.57.077.09.165.171.262.239-.022.273.052.545.208.77a.87.87 0 0 0 1.256-.285.585.585 0 0 0 .046-.647l.07-.123a.824.824 0 0 0-.132-.824.978.978 0 0 0-.824-.424c-.339.062-.77 0-.916.224a.64.64 0 0 0-.123.5ZM69.25 67.002a.563.563 0 0 0 .4-.609c-.06-.308-.269-.362-.9-.192a.546.546 0 0 0 .5.8ZM80.202 66.493a.932.932 0 0 0 1.07-.107c-.156.13-.287.29-.385.47a2.166 2.166 0 0 0 .694 2.187h.053v-2.888a.985.985 0 0 0-.277.154c.092-.08.175-.171.247-.27v-.847a1.273 1.273 0 0 0-.27-.27.98.98 0 1 0-1.163 1.54l.03.031Z" fill="#CED5E1"/><path d="M75.982 66.686c.049.372.177.73.377 1.047.162.254.27.47.131.77-.208.409 0 .655.362.825a1.325 1.325 0 0 0-.562 1.871c.316.57.77.632 1.494.285.2.092.377.185.539.27v.038a.84.84 0 0 0 .277 1.217 1.066 1.066 0 0 0 1.483-.25 1.063 1.063 0 0 0-.25-1.483.943.943 0 0 0-.155-.077c.039-.416.047-.832.07-1.27.562-.324.577-.378.238-1.025-.246-.131-.693.246-.77-.277.1-.07.208-.131.308-.193a.702.702 0 0 0 .77-.162.87.87 0 0 0 0-1.116 1.071 1.071 0 0 0-.23-.116.993.993 0 0 0-.57-.192c-.493-.108-.832.154-1.163.577l.392.955c-.138 0-.27 0-.4-.054-.562-.077-.685-.33-.3-.77a1.063 1.063 0 0 0 0-1.417 1.108 1.108 0 0 0-1.256-.508.901.901 0 0 0-.785 1.055ZM80.841 59.847a.9.9 0 0 0-1.209.77 1.332 1.332 0 0 0 .97 1.54h.07c.174-.072.343-.154.508-.246.192-.111.35-.274.454-.47v-.77a1.163 1.163 0 0 0-.793-.824ZM75.713 61.28c0 .6.77.77.77.955 0 .184-.77.77-.709 1.54a1.803 1.803 0 0 0 1.54 1.37 1.762 1.762 0 0 0 1.287-.415 1.455 1.455 0 0 0 .385-1.54c-.262-.493-1.048-.84-1.055-1.063-.008-.223.847-.77.77-1.471a1.286 1.286 0 0 0-1.425-1.04 2.133 2.133 0 0 0-1.563 1.664ZM80.78 57.044c-.208.293-.116.64.246.893.177.132.388.21.608.224v-1.54c-.324.04-.625.19-.855.423ZM70.307 58.161a.77.77 0 0 0-.146-1.07 1.495 1.495 0 0 0-1.31.139c-.254.3-.077.862.37 1.201.447.339.74.193 1.086-.27ZM58.64 72.74c.107-.216-.132-.77-.417-.878a.471.471 0 0 0-.639.3c-.185.477-.162.847.062.955a1.017 1.017 0 0 0 .993-.377ZM64.292 67.433a.7.7 0 0 0-.863.2.616.616 0 0 0 .139.863.685.685 0 0 0 .916-.216.67.67 0 0 0-.192-.847ZM69.235 61.41c-.192-.169-.816.07-.885.547a.686.686 0 0 0 .246.532.585.585 0 0 0 .816-.116.77.77 0 0 0-.177-.962ZM64.853 69.19c.531 1.162.87 1.324 2.087.97h.1c-.156.057-.302.14-.431.246a.394.394 0 0 0 0 .64.475.475 0 0 0 .724 0c.096-.186.141-.393.13-.602a.54.54 0 0 0 .77-.13.632.632 0 0 0-.338-.979.647.647 0 0 1-.408-.392c.285-.124.554-.324.424-.686.385-.33.392-.77 0-1.247a1.267 1.267 0 0 0-.162-.193.64.64 0 0 0-1.094.054l-.07.092a.616.616 0 0 0-.77 0 .901.901 0 0 0-.277 1.04.586.586 0 0 0-.43.223.854.854 0 0 0-.255.963ZM70.29 63.382c.25.04.507-.018.716-.161.385-.393 0-.724-.184-1.117-.501.07-.91.154-.948.678a.507.507 0 0 0 .416.6ZM70.622 65.639a.549.549 0 0 0-.77.3.84.84 0 0 0 0 .67.593.593 0 0 0 .77.17 1.379 1.379 0 0 0 0 .662c-.106.066-.2.149-.278.246v1.833c0 .085.185.208.3.231.159.039.306.112.432.216l-.046.115c.17.308.362.616.77.54a.593.593 0 0 0 .693-.232l.139-.277c.053.074.115.141.184.2a1.14 1.14 0 0 0 1.348.054.932.932 0 0 0 .17-.377c.377-.062.77-.254.77-.416 0-.162-.57-1.032-.963-1.009a.647.647 0 0 0-.493.239 1.218 1.218 0 0 0-.947.316l-.039-.093a1.032 1.032 0 0 1-.107-.924.877.877 0 0 0-.047-.593c0-.046.047-.077.062-.123l.108-.393c.2.062.393.13.578.177a.833.833 0 0 0 .254.616c.3.224.77.062 1.201-.385a.693.693 0 0 0-.447-1.101.94.94 0 0 0-.3-.593c.1-.054.2-.116.308-.162.177.239.408.524.816.331.316-.77.2-.908-.608-.824-.316-.292-.508-.593-.77-.677a1.625 1.625 0 0 0-.932.077c-.362.123-.424.585-.131.962.077.085.162.185.254.277a6.685 6.685 0 0 0-.57.44c-.123 0-.246-.078-.377-.1a1.425 1.425 0 0 0-1.04.238.616.616 0 0 0-.292-.631ZM61.657 73.894a.855.855 0 0 0 .1-.462 1.41 1.41 0 0 0 .832-.585v-.07a.432.432 0 0 0 .239-.207.223.223 0 0 0-.077-.216.877.877 0 0 0-.37-.855 1.154 1.154 0 0 0-.97-.161 1.07 1.07 0 0 0-.362-1.086.77.77 0 0 0-.778.177.57.57 0 0 0-.223-.324 1.063 1.063 0 0 0-1.402 0 .946.946 0 0 0 .339 1.148.817.817 0 0 0 1.04-.177.577.577 0 0 0 .246.57.817.817 0 0 0 .585.046.534.534 0 0 0-.084.1 1.07 1.07 0 0 0-.1.77 1.177 1.177 0 0 0-.293.27c-.323.431-.262.724.231 1.086.493.361.863.3 1.047-.024ZM63.198 64.507c.347-.493.347-.863 0-1.14a1.064 1.064 0 0 0-1.34.13.833.833 0 0 0-.123.455.523.523 0 0 0-.239.085c-.038 0 0 .292.07.323.075.02.155.02.23 0a.932.932 0 0 0 .278.455.894.894 0 0 0 1.124-.308ZM61.203 76.028h2.765a.863.863 0 0 0-.455-.647c-.7-.377-.97-.293-1.416.2-.347-.085-.64.07-.894.447ZM58.7 73.263a.331.331 0 0 0 .047.454.346.346 0 0 0 .539-.084.338.338 0 0 0-.131-.508.377.377 0 0 0-.455.138ZM71.67 64.268a.51.51 0 0 0 .316-.254.992.992 0 0 0 1.255-.77c1.663.054 2.149-.724 1.425-2.157.06-.089.13-.171.208-.246a.679.679 0 0 0 .123-.978.84.84 0 0 0-.878-.37c-.963.046-1.279.347-1.217 1.225.046.654.062 1.317.092 1.963-.908.14-1.224.255-1.224.601a.517.517 0 0 0-.6.139.548.548 0 0 0 .5.847ZM70.964 55.558a1.125 1.125 0 0 0 .239 1.595.954.954 0 0 0 1.417-.285c.5-.64.5-1.271 0-1.656a1.157 1.157 0 0 0-1.656.346ZM73.379 41.387a.4.4 0 0 0-.4.054.369.369 0 0 0 0 .378c.084.077.4.2.492.046a.462.462 0 0 0-.092-.478ZM55.804 76.028h1.132a.594.594 0 0 0-.185-.624.601.601 0 0 0-.847.177.569.569 0 0 0-.1.447ZM55.573 73.733c-.115.423.185.624.532.724a.854.854 0 0 0 .385-.37c0 .093 0 .231.061.247a.478.478 0 0 0 .4 0 .339.339 0 0 0 0-.478c-.169-.177-.369.062-.461.154a.87.87 0 0 0-.077-.57c-.34-.092-.716-.146-.84.293ZM53.633 73.301a.81.81 0 0 0 1.202-.215.994.994 0 0 0-.255-1.494 1.07 1.07 0 0 0-1.393.146c-.332.393-.1 1.17.446 1.563ZM75.335 42.157c.239.147.5.231.724 0 .224-.23 0-.831-.223-.87-.224-.038-.416.123-.578.285a.37.37 0 0 0 .077.585ZM58.578 74.757a1.234 1.234 0 0 0-.093 1.271h2.018l.054-.07a1.193 1.193 0 0 0-.4-1.455 1.247 1.247 0 0 0-1.58.254ZM50.876 72.74a.848.848 0 0 0 1.155-.116 1.263 1.263 0 0 0-.316-1.54.932.932 0 0 0-.84 1.655ZM60.85 68.82a.6.6 0 0 0 .77-.224.67.67 0 0 0 .084-.339.724.724 0 0 0 .393-.239 1.439 1.439 0 0 0-.177-1.424 1.047 1.047 0 0 0-1.248.485.66.66 0 0 0-.054.67.709.709 0 0 0-.223.37.601.601 0 0 0 .454.7ZM59.979 67.857a.63.63 0 0 0-.047-.87 1.309 1.309 0 0 0-1.355.123c-.262.385-.146.77.324 1.086.47.315.777.138 1.078-.34ZM57.338 66.994a.879.879 0 0 0-1.017.239.615.615 0 0 0 .231.84.685.685 0 0 0 .886-.1.902.902 0 0 0-.1-.979ZM57.406 70.737a.57.57 0 0 0 .486-.162c.226-.235.427-.493.6-.77.162-.223.085-.408-.17-.562-.084 0-.23 0-.277.062a1.286 1.286 0 0 1-.77.392c-.13 0-.261.362-.246.54a.77.77 0 0 0 .377.5ZM56.06 71.199c-.24-.146-.455-.177-.586-.062a1.032 1.032 0 0 0 0 1.063.877.877 0 0 0 .97-.054.408.408 0 0 0 .131-.385.601.601 0 0 0 .516-.177.547.547 0 0 0-.054-.77.624.624 0 0 0-.816.085.577.577 0 0 0-.162.3ZM54.911 76.028l.123-.123a1.393 1.393 0 0 0-.262-1.71c-.477-.385-1.193-.192-1.694.447a1.016 1.016 0 0 0 .131 1.386h1.702ZM74.634 39.724a.693.693 0 0 0 .123.77c.239.192.677-.062.878-.246.2-.185.254-.848 0-1.032-.254-.185-.886.292-1.001.508ZM54.496 68.488c.416.2.539-.192.77-.277.54-.208.855-.932.578-1.317a.909.909 0 0 0-1.048-.316.701.701 0 0 0-.57.77c.016.293-.138.932.27 1.14ZM68.674 41.573a.5.5 0 0 0 .408 0c.07-.054.124-.416 0-.478-.123-.061-.385.077-.477.162a.339.339 0 0 0 .07.316ZM78.6 40.402a.678.678 0 0 0-.87.17.77.77 0 0 0 .177.878.562.562 0 0 0 .77-.1.678.678 0 0 0-.077-.948ZM70.667 41.273c-.046 0-.192 0-.215.07a.162.162 0 0 0 0 .208.176.176 0 0 0 .202.042.177.177 0 0 0 .06-.042.193.193 0 0 0-.047-.278ZM63.734 55.21c0 .2 0 .585.14.64a.617.617 0 0 0 .554-.14c.084-.115.084-.592-.062-.685-.146-.092-.616.093-.632.185Z" fill="#CED5E1"/><path d="M70.676 53.547a1.156 1.156 0 0 0 .931-1.04c0-.447-.608-.77-1.232-.862a1.117 1.117 0 0 0-1.016 1.016 1.163 1.163 0 0 0 1.317.886ZM65.84 53.393c.254.323.408.708.855.554a.631.631 0 0 0 .431-.693.478.478 0 0 0-.431-.5c-.47-.039-.662.238-.855.639ZM65.931 46.47c.131-.177 0-.539-.307-.77a.338.338 0 0 0-.547.093c-.154.238-.224.5.046.724a.654.654 0 0 0 .808-.047ZM63.105 45.64c-.1-.101-.439-.055-.554 0-.116.053-.216.554-.085.661.13.108.547-.046.6-.138.054-.093.131-.424.039-.524ZM72.216 48.803c-.37.555-.362.932 0 1.21a1.016 1.016 0 0 0 1.162-.255 1.132 1.132 0 0 0-.362-1.17.561.561 0 0 0-.8.215ZM72.716 52c.17.231.37.578.709.424a1.463 1.463 0 0 1 1.232.07.486.486 0 0 0 .709-.34c.13-.362-.077-.855-.416-.831a1.04 1.04 0 0 1-1.009-.547.985.985 0 0 0-1.132-.093A1.295 1.295 0 0 0 72.716 52ZM76.66 48.95c-.263-.169-.54-.084-.77.232-.324.462-.363.832-.124 1.024a1.031 1.031 0 0 0 1.201-.192.885.885 0 0 0-.308-1.063ZM78.231 50.875a1.702 1.702 0 0 0 1.81-.277 1.17 1.17 0 0 0-.3-1.54 1.262 1.262 0 0 0-1.618.177 1.24 1.24 0 0 0 .108 1.64Z" fill="#0D0E12"/><path d="M80.307 51.169a1.11 1.11 0 0 0-1.633.346 1.132 1.132 0 0 0 .293 1.463c.5.393 1.04.278 1.479-.308a.964.964 0 0 0-.139-1.502ZM67.479 51.537a.516.516 0 0 0 .062.493.7.7 0 0 0 .554.177c.408-.146.308-.493.246-.816-.346-.177-.662-.216-.862.146ZM70.9 50.143c.122-.42.217-.846.284-1.278a.539.539 0 0 0-.508-.632.572.572 0 0 0-.67.455c-.048.178-.12.35-.216.508a.877.877 0 0 0 .047 1.178c.292.34.67.324 1.062-.23ZM81.38 47.994a.516.516 0 0 0-.169-.77.685.685 0 0 0-.87.17.662.662 0 0 0 .208.855.608.608 0 0 0 .832-.255ZM74.75 47.819c.046.724.185.985.578 1.032a.616.616 0 0 0 .662-.362.692.692 0 0 0-.162-.87c-.416-.255-.755 0-1.078.2ZM69.235 50.082c0-.184-.192-.285-.354-.392-.162-.108-.277-.231-.478-.216-.2.015-.277.308-.13.54.15.21.376.353.631.4a.301.301 0 0 0 .331-.332ZM79.502 45.16a.771.771 0 0 0 .285 1.194.647.647 0 0 0 .847-.061V44.96a1.293 1.293 0 0 0-1.132.2ZM73.595 45.531a.965.965 0 0 0 .516-.531c.1-.478-.346-.524-.7-.693-.347.315-.594.623-.34 1.024a.577.577 0 0 0 .524.2ZM70.052 45.299c.077.077.424.185.5.046.078-.139-.045-.37-.115-.416-.07-.046-.362-.185-.439-.054a.407.407 0 0 0 .054.424ZM66.818 44.79a.632.632 0 0 0 .77-.069.619.619 0 0 0-.131-.87.484.484 0 0 0-.77.077.595.595 0 0 0 .13.862ZM80.249 44.312a.632.632 0 0 0 .87-.07.486.486 0 0 0-.054-.77.588.588 0 0 0-.87.039.6.6 0 0 0 .054.8ZM78.069 45.092a1.202 1.202 0 0 0 1.478-.292.77.77 0 0 0-.292-.979.824.824 0 0 0-1.225.162.839.839 0 0 0 .039 1.11ZM70.899 43.474c-.231.332-.231.655 0 .77a.996.996 0 0 0 1.055-.169.614.614 0 0 0-.224-.847.585.585 0 0 0-.831.246ZM75.797 44.314a.678.678 0 0 0 .878-.13.724.724 0 0 0-.192-.94.563.563 0 0 0-.77.146.608.608 0 0 0 .084.924ZM71.169 46.246c-.185.262.069.917.47 1.202a.723.723 0 0 0 .931-.223.847.847 0 0 0-.115-1.11 1.1 1.1 0 0 0-1.286.131ZM62.813 53.224a1.07 1.07 0 0 0 1.263-.462c.277-.408.139-.816-.377-1.148a.848.848 0 0 0-1.025.185 1.44 1.44 0 0 0 .139 1.425ZM59.47 52.947c-.177.2-.123.455.162.593.285.14.508.178.624-.092.115-.27.2-.77 0-.9-.2-.132-.64.238-.786.4ZM60.495 49.789a.369.369 0 0 0 .608-.108c.1-.177.208-.693.062-.77-.146-.077-.6.084-.77.2-.17.115-.154.454.1.678ZM64.923 51.314a1.125 1.125 0 0 0 1.617-.37 1.025 1.025 0 0 0-.193-1.494 1.278 1.278 0 0 0-1.679.239 1.332 1.332 0 0 0 .255 1.625ZM57.891 53.34a.177.177 0 0 0 .262 0 .185.185 0 0 0-.061-.238c-.054 0-.193 0-.224.069a.177.177 0 0 0 .023.17ZM67.48 47.825a.694.694 0 0 0 .184.593.494.494 0 0 0 .77-.053.547.547 0 0 0-.061-.77c-.178-.147-.84-.016-.894.23ZM63.083 48.866a.5.5 0 0 0 .408 0 .346.346 0 0 0 .038-.477c-.185-.178-.385.069-.477.161a.337.337 0 0 0 .03.316ZM76.52 47.14a.57.57 0 0 0-.23-.816c-.254-.131-.54-.285-.724-.039-.293.447-.27.84 0 1.032a.661.661 0 0 0 .955-.177Z" fill="#0D0E12"/><path d="M79.625 46.132a1.055 1.055 0 0 0-1.178.262.77.77 0 0 0 .077.932c.531.4 1.132.447 1.379.1a1.163 1.163 0 0 0-.278-1.294ZM69.852 47.487c.246.147.4 0 .531-.177s.14-.577-.13-.662c-.27-.085-.424-.154-.578 0a.717.717 0 0 0 .177.84Z" fill="#0D0E12"/><path d="M60.373 56.273a.694.694 0 0 0 .878-.139.716.716 0 0 0-.193-.931.562.562 0 0 0-.77.146.616.616 0 0 0 .085.924ZM59.016 60.941a1.163 1.163 0 0 0 1.54 0 1.54 1.54 0 0 0-.131-1.794 1.178 1.178 0 0 0-1.54.223 1.14 1.14 0 0 0 .13 1.571ZM61.296 63.067c.285.13 1.101-.47 1.07-.832-.03-.362-.877-.478-1.132-.177-.254.3-.223.878.062 1.009ZM64.368 62.304a.662.662 0 0 0 .585.054.515.515 0 0 0 .262-.416c-.046-.393-.339-.516-.77-.493-.147.27-.378.562-.077.855Z" fill="#CED5E1"/><path d="M60.302 63.136c.193.061.686.2.809 0s-.223-.624-.377-.724c-.154-.1-.4.062-.524.185a.308.308 0 0 0 .092.539ZM54.726 62.042c0 .047.292.062.323 0 .031-.061.224-.315.085-.47-.139-.153-.385 0-.416.062a.555.555 0 0 0 .008.408ZM56.66 64.984a.444.444 0 0 0 .092.64.562.562 0 0 0 .37.146.615.615 0 0 0 .216.462.662.662 0 0 0 .885-.062.67.67 0 0 0-.1-.816.77.77 0 0 0-.554-.093.51.51 0 0 0-.208-.439.487.487 0 0 0-.701.162ZM66.101 56.374a1.35 1.35 0 0 0 1.186-.277c.224-.27.116-.593-.285-.878-.4-.285-.77-.316-.993 0a.772.772 0 0 0 .092 1.155ZM56.405 63.775c.24.139.516.146.624-.123.108-.27.224-.77 0-.886-.223-.115-.654.177-.832.324-.177.146-.038.546.208.685ZM57.999 57.475a.607.607 0 0 0 .878 0 1.025 1.025 0 0 0-.078-1.27.716.716 0 0 0-.962.076.893.893 0 0 0 .162 1.194ZM55.766 57.837a.831.831 0 0 0 .238 1.271.986.986 0 0 0 1.356-.331 1.032 1.032 0 0 0-.355-1.302.842.842 0 0 0-1.24.362ZM52.786 66.832c.339-.223.77-.154.77-.562 0-.177-.439-.3-.693-.424-.07 0-.193.047-.362.093l.285.893ZM60.941 65.277c-.238-.262-.708-.116-.908.215a.555.555 0 0 0 .215.77.77.77 0 0 0 .955-.323 1.944 1.944 0 0 0-.262-.662ZM65.662 63.097a2.968 2.968 0 0 0-.585.578c.116-.447.062-.862-.185-.993a.546.546 0 0 0-.7.1c-.378.354-.385.577-.077 1.116a8.09 8.09 0 0 0-.3 1.14.431.431 0 0 0 .153.393.64.64 0 0 0-.17.062.77.77 0 0 0-.2 1.047.77.77 0 0 0 1.14-.185.508.508 0 0 0-.092-.724.83.83 0 0 0-.223-.154.422.422 0 0 1 .061 0c.211-.154.412-.32.6-.5a1.64 1.64 0 0 0 1.957.531.616.616 0 0 1 .693.1.77.77 0 0 0 .97-.339c.17-.354 0-.547-.277-.693-.108-.061-.23-.115-.339-.185-.107-.069 0 0 0 0s.17-.277 0-.408a.223.223 0 0 0-.338 0v.039c-.247-.386-.463-.77-.701-1.225.77-.986.77-1.41-.285-1.879a.838.838 0 0 0-1.232.67c-.01.506.034 1.012.13 1.51Z" fill="#CED5E1"/></g><path d="M22.152 70.19a2.71 2.71 0 1 0 0-5.42 2.71 2.71 0 0 0 0 5.42ZM42.36 65.085H31.186a2.517 2.517 0 0 0 0 5.034H42.36a2.517 2.517 0 0 0 0-5.034Z" fill="#343741"/><path d="M77.57 78.13c1.934-4.056.129-8.952-4.031-10.934-4.16-1.983-9.1-.302-11.033 3.753-1.933 4.056-.128 8.951 4.032 10.934 4.16 1.983 9.1.302 11.032-3.754Z" fill="#F04E98"/><path d="M67.423 69.11c.01.041.068.033.081.018.013-.015.043-.04.034-.072a.045.045 0 0 0-.008-.016.044.044 0 0 0-.032-.016.044.044 0 0 0-.019.004c-.027.015-.068.043-.056.083ZM64.879 68.087a.086.086 0 0 0 .1-.063l.005-.009a.13.13 0 0 0 .03-.084 6.487 6.487 0 0 0-.229.175.17.17 0 0 0 .094-.02ZM66.972 68.668c.005-.052-.006-.104-.063-.104-.056-.001-.148.017-.16.062-.013.045.088.099.127.113.04.014.093-.014.096-.071ZM66.05 68.284a.062.062 0 0 0-.079 0 .086.086 0 0 0-.004.093c.017.022.064.009.083-.01.02-.018.024-.063 0-.083ZM73.51 67.059l.001.019a.14.14 0 0 0 .157.065l-.095-.045c-.033-.016-.04-.028-.063-.04ZM64.356 68.715a.115.115 0 0 0 .149-.083.118.118 0 0 0-.071-.139.116.116 0 0 0-.126.043.117.117 0 0 0-.02.042.093.093 0 0 0 .027.12.092.092 0 0 0 .04.017ZM63.964 68.855a.27.27 0 0 0 .065-.023.301.301 0 0 1 .076-.014c.085-.015.131-.056.122-.112a.098.098 0 0 0-.048-.07c-.072.071-.144.145-.215.219ZM65.704 68.775c.008.035.026.048.06.038a.043.043 0 0 0 .035-.02.043.043 0 0 0 .003-.04.044.044 0 0 0-.04-.043c-.006 0-.013 0-.02.003a.046.046 0 0 0-.038.062ZM65.441 68.433a.192.192 0 0 0-.244.026.16.16 0 0 0-.034.123.228.228 0 0 0 .259.188.754.754 0 0 0 .078-.128.18.18 0 0 0-.059-.21ZM67.279 68.318a.258.258 0 0 0 .124-.23c-.034-.083-.104-.104-.208-.064a.125.125 0 0 0-.079.085.09.09 0 0 0-.049-.023.139.139 0 0 0-.147.096.11.11 0 0 0 .082.13.12.12 0 0 0 .149-.062.114.114 0 0 0 .128.068ZM66.723 67.688c-.024-.011-.113.026-.12.059-.005.032.07.102.087.098.017-.004.106-.039.104-.07a.116.116 0 0 0-.071-.087ZM69.955 67.12l-.002-.012a.112.112 0 0 0 .028-.057.13.13 0 0 0-.104-.148.123.123 0 0 0-.088.024.146.146 0 0 0-.05-.01.14.14 0 0 0-.122.156.159.159 0 0 0 .097.162c.02.008.043.013.065.012.093.002.178-.063.176-.127ZM73.071 67.195c.017-.089.024-.275-.142-.282a.205.205 0 0 0-.186.16.21.21 0 0 0-.346.013.209.209 0 0 0-.03.13.193.193 0 0 0 .18.184.306.306 0 0 0 .22-.188c.013.03.036.054.066.067.066.022-.028.155.066.185.093.031.081.152.196.185s.24 0 .231-.112a.407.407 0 0 0-.131-.238c-.05-.058-.14-.016-.124-.104ZM69.966 67.44a.139.139 0 0 0-.125.135.108.108 0 0 0 .07.1.166.166 0 0 0 .144.057.13.13 0 0 0-.003-.252.124.124 0 0 0-.086-.04ZM71.805 68.228c-.021.044.04.062.062.073.023.01.056-.018.055-.03 0-.01-.01-.06-.029-.07-.018-.01-.07-.017-.088.027ZM69.554 67.179a.346.346 0 0 0-.099.094c-.028.06.03.135.103.147a.105.105 0 0 0 .123-.096.139.139 0 0 0-.127-.145ZM65.268 69.188c.043-.017.087-.043.07-.103a.126.126 0 0 0-.158-.076.352.352 0 0 0-.02.125.072.072 0 0 0 .108.054ZM69.65 68.866a.054.054 0 0 0 .049.06.054.054 0 0 0 .06-.05c.001-.022-.013-.086-.05-.081a.083.083 0 0 0-.06.071ZM67.987 67.596a.123.123 0 0 0-.001-.186.09.09 0 0 0-.035-.016 1.26 1.26 0 0 0-.18.031c-.11-.09-.23-.109-.286-.045a.24.24 0 0 0 .025.27.18.18 0 0 0-.04.01.14.14 0 0 0-.074.155.174.174 0 0 0 .167.09.171.171 0 0 0 .073-.19l-.011-.005a.396.396 0 0 0 .173-.134c.058.038.116.096.19.02ZM65.565 67.942c-.098.037-.143.105-.116.175.006.01.013.02.02.028a.05.05 0 0 0-.04.031c-.022.044.04.063.062.073.021.01.056-.018.056-.028l-.002-.021c.041.027.09.038.14.03a.152.152 0 0 0 .094-.147.15.15 0 0 0-.016-.06c-.033-.102-.085-.127-.198-.08ZM71.2 66.873a.127.127 0 0 0-.082-.128.13.13 0 0 0-.054-.008.11.11 0 0 0-.08.043.11.11 0 0 0-.02.088c.008.056.016.117.074.118.103-.003.161-.05.162-.113ZM71.5 67.097a.119.119 0 0 0-.125-.06.14.14 0 0 0-.12.121c.008.095.084.12.152.148.105-.091.13-.141.094-.21ZM70.501 67.06l.03.015a.242.242 0 0 0 .241-.163c.028-.108-.054-.21-.191-.245a.171.171 0 0 0-.216.105.236.236 0 0 0-.15.186.206.206 0 0 0 .173.156.152.152 0 0 0 .113-.053ZM71.636 67.46c.009-.02.003-.09-.028-.094-.03-.004-.063.035-.066.05-.002.016-.007.078.021.083a.08.08 0 0 0 .073-.04ZM70.217 66.282a13.238 13.238 0 0 0-.229-.006l-.003.026a.129.129 0 0 0 .034.072.229.229 0 0 0-.054.113c-.023.09.012.16.07.175.06.016.225-.064.239-.116a.153.153 0 0 0-.082-.177.122.122 0 0 0 .027-.077l-.002-.01ZM63.606 71.482a.228.228 0 0 0 .135-.037.184.184 0 0 0 .076-.014.23.23 0 0 0 .08-.302.16.16 0 0 0-.224-.08.201.201 0 0 0-.116.11.147.147 0 0 0-.113.152.157.157 0 0 0 .162.17ZM70.902 66.337c.014.009.029.016.045.021a.091.091 0 0 0 .092-.014 9.116 9.116 0 0 0-.5-.05.183.183 0 0 0 .364.04l-.001.003ZM63.182 70.083c.024.011.05.013.075.006a.186.186 0 0 0 .095-.165s-.012-.006-.012-.019a.209.209 0 0 0-.122-.152l-.172.247a.127.127 0 0 0 .102.087c.012 0 .023 0 .034-.004ZM62.773 70.996c.038-.025.129-.064.103-.133-.025-.07-.122-.047-.168-.045-.045.001-.074.065-.06.125.015.061.073.087.125.053ZM66.91 67.193c-.025.102 0 .154.069.176.1.025.185-.016.2-.097a.259.259 0 0 0-.134-.193c-.063-.02-.113.021-.136.114ZM69.155 66.596a.125.125 0 0 0 .086.18.14.14 0 0 0 .148-.062.151.151 0 0 0-.111-.185.1.1 0 0 0-.123.067ZM62.794 70.715a.185.185 0 0 0 .18-.164c.003-.02 0-.04-.006-.06.018.002.036 0 .053-.005.06-.023.102-.192.068-.265a.161.161 0 0 0-.14-.067 4.406 4.406 0 0 0-.274.47c.028.043.07.075.119.09ZM64.246 70.269a.084.084 0 0 0 .023.01.278.278 0 0 0-.018.216.119.119 0 0 0 .158.046.166.166 0 0 0 .116-.207.2.2 0 0 0-.116-.115.114.114 0 0 0-.006-.122c-.045-.07-.118-.047-.193-.03-.018.08-.05.156.036.202ZM64.916 70.334a.218.218 0 0 0-.152.21.209.209 0 0 0 .244.133.151.151 0 0 0 .09-.087.114.114 0 0 0 .09.055.13.13 0 0 0 .134-.122.12.12 0 0 0-.204-.099l-.002-.012a.147.147 0 0 0-.2-.078ZM71.603 66.437c-.093-.018-.186-.034-.284-.05a.167.167 0 0 0 .033.058.14.14 0 0 0-.017.07l.004.013c-.062.152.019.236.228.238a.232.232 0 0 1 .02.041c.018.064.065.075.12.074a.11.11 0 0 0 .104-.08c.056-.117.034-.172-.087-.219l-.101-.048a.088.088 0 0 0 .011-.024.13.13 0 0 0-.031-.073ZM69.436 66.338a.065.065 0 0 0 .046-.007.11.11 0 0 0 .08.121l.011.005a.256.256 0 0 0 .165.188.155.155 0 0 0 .156-.176.121.121 0 0 0-.077-.116.33.33 0 0 0 .046-.072c-.164.002-.327.01-.49.023.02.014.04.025.063.034ZM66.687 67.476c.034-.071.097-.124.038-.193a.122.122 0 0 0-.156-.028.13.13 0 0 0-.034.023.178.178 0 0 0-.11-.053.17.17 0 0 0-.098.162.09.09 0 0 0 .12.07.296.296 0 0 0 .097-.036.2.2 0 0 0 .143.055ZM67.448 67.378a.09.09 0 0 0 .06-.048.089.089 0 0 0 0-.077.161.161 0 0 0-.179-.118.188.188 0 0 0-.107.188c.02.068.128.095.226.055ZM63.627 69.446a.14.14 0 0 0 .137-.124.11.11 0 0 0-.1-.114.04.04 0 0 0-.018 0 3.93 3.93 0 0 0-.12.146.127.127 0 0 0 .101.092ZM65.588 70.458a.138.138 0 0 0-.096.04.217.217 0 0 0-.005.306c.015.02.032.039.05.06a1.201 1.201 0 0 0-.147.128.114.114 0 0 0 .02.142.177.177 0 0 0 .194.074.14.14 0 0 0 .103-.094.112.112 0 0 0 .086-.012c.058-.054.017-.145-.02-.163a.071.071 0 0 0-.057-.001l-.004-.038c.018-.015.04-.031.057-.05a.239.239 0 0 0 .057-.263.278.278 0 0 0-.238-.129ZM63.947 70.472a.253.253 0 0 0-.149-.215.199.199 0 0 0-.262-.07.232.232 0 0 0-.128.27.126.126 0 0 0-.113.116.116.116 0 0 0 .121.11.097.097 0 0 0 .078-.026.098.098 0 0 0 .031-.075c.068.027.142.03.212.008a.16.16 0 0 0 .041-.022.058.058 0 0 0 .014.007c.082.005.147-.038.155-.103ZM63.97 70.67a.121.121 0 0 0 .08.072c.03.005.112-.018.12-.056.007-.038-.064-.087-.094-.1a.086.086 0 0 0-.073.016.085.085 0 0 0-.032.068ZM64.522 71.007a.162.162 0 0 0-.087.071.1.1 0 0 0-.021.01c-.095.163-.182.058-.284.153a.195.195 0 0 0-.035.052.151.151 0 0 0 .17.217.929.929 0 0 0 .24-.074.168.168 0 0 0 .081-.096.171.171 0 0 0 .04-.005c.084-.026.112-.1.073-.205a.182.182 0 0 0-.177-.123ZM64.021 69.717a.218.218 0 0 0-.264-.143.343.343 0 0 0-.154.323.223.223 0 0 0 .281.108.261.261 0 0 0 .137-.288ZM66.138 71.115a.101.101 0 0 0 .127-.124.106.106 0 0 0-.182-.007.11.11 0 0 0 .055.131ZM65.022 71.396a.035.035 0 0 0 .019.035.035.035 0 0 0 .013.004.036.036 0 0 0 .034-.035c.004-.01-.023-.03-.033-.03-.009.001-.032.01-.033.026ZM65.89 70.24c.054.026.087-.007.127-.124a.103.103 0 0 0-.089-.057.106.106 0 0 0-.093.05.111.111 0 0 0 .055.13ZM63.5 73.578a.127.127 0 0 0-.095.023.125.125 0 0 0-.05.085.118.118 0 0 0 .12.118.112.112 0 0 0 .123-.095.107.107 0 0 0-.017-.088.105.105 0 0 0-.08-.043ZM65.215 74.568a.058.058 0 0 0 .041.053c.022.002.049-.034.058-.056.008-.022-.01-.067-.043-.07-.034-.005-.052.05-.056.073ZM63.769 73.457a.2.2 0 0 0 .068-.205.159.159 0 0 0-.165-.096.221.221 0 0 0-.183-.214.23.23 0 0 0-.221.099.17.17 0 0 0-.104-.106c-.145-.07-.27-.023-.317.066a.271.271 0 0 0 .03.236.107.107 0 0 0-.106.103.128.128 0 0 0 .112.126.12.12 0 0 0 .134-.102v-.023a.218.218 0 0 0 .21-.1l.007-.014a.205.205 0 0 0 .19.124.286.286 0 0 0 .111-.005.107.107 0 0 0 .01.084.158.158 0 0 0 .168.056.159.159 0 0 0 .056-.029ZM71.33 69.8a.115.115 0 0 0 .126-.111.121.121 0 0 0-.098-.118.116.116 0 0 0-.086.033.12.12 0 0 0-.037.085.093.093 0 0 0 .095.111ZM66.719 68.26a.204.204 0 0 0 .055-.254c-.035-.08-.107-.1-.205-.062a.206.206 0 0 0-.053-.025c-.092-.02-.156.035-.178.15a.165.165 0 0 0 .106.17.208.208 0 0 0 .12-.023.206.206 0 0 0 .155.044ZM62.64 77.162c0 .034.014.12.085.124.07.003.078-.08.078-.11a.118.118 0 0 0-.065-.084.074.074 0 0 0-.098.07ZM70.665 69.324c-.005-.025-.024-.058-.045-.064-.02-.005-.079.027-.08.047 0 .02.055.052.078.057.024.005.05-.03.047-.04ZM62.16 72.613a.39.39 0 0 0 0 .054.108.108 0 0 0-.114.026c-.044.04-.062.094-.023.143a.188.188 0 0 0 .126.06.09.09 0 0 0 .088-.062.335.335 0 0 0 .262.055.24.24 0 0 0 .213-.279c-.003-.086.057-.151.018-.228a.358.358 0 0 0-.38-.205.286.286 0 0 0-.228.155c-.052.087.043.175.037.281ZM67.538 70.056c-.006.013-.001.068.031.077.032.01.058-.042.066-.064a.06.06 0 0 0-.032-.059c-.022-.006-.053.026-.065.046ZM67.153 69.31c.009-.02.001-.085-.027-.094-.028-.008-.072.041-.076.06a.053.053 0 0 0 0 .02.073.073 0 0 0-.061.08c.008.082-.007.175.066.247l.118.005c.062.091.153.144.21.115a.107.107 0 0 0 .06-.126c-.017-.1-.052-.123-.17-.132-.048-.057-.088-.11-.136-.156a.054.054 0 0 0 .016-.02ZM65.09 69.194a.243.243 0 0 0-.329-.015c-.033-.002-.084.01-.094.032a.045.045 0 0 0-.002.023.195.195 0 0 0-.121.084.36.36 0 0 0 .064.428.293.293 0 0 0 .263.093c.1-.019.113-.148.204-.211.205-.138.131-.31.014-.434ZM66.148 69.289a.132.132 0 0 0-.029-.014c-.039-.005-.138.012-.144.045a.08.08 0 0 1-.05.012c-.065 0-.087.035-.105.103-.02.069-.043.171.051.193.094.022.122-.036.127-.066.005-.03.053-.066.06-.033.008.033.04.056.122.043a.127.127 0 0 0 .091-.043.125.125 0 0 0 .03-.096.175.175 0 0 0-.153-.144ZM66.389 70.209c.013.021.026.057.064.046a.042.042 0 0 0 .028-.059c-.008-.023-.035-.076-.068-.065-.032.01-.031.067-.024.078ZM64.832 75.862a.334.334 0 0 0-.227-.273.226.226 0 0 0-.228.215.255.255 0 0 0 .2.25.23.23 0 0 0 .255-.192ZM62.685 76.07c.037-.028-.062-.21-.115-.218-.053-.008-.101.097-.072.184.029.088.15.063.187.034ZM63.337 75.45c.067-.009.15.006.17-.091a.112.112 0 0 0-.075-.137.14.14 0 0 0-.11.018c-.059.04-.05.095.015.21ZM62.74 75.101a.123.123 0 0 0 .099.138.139.139 0 0 0 .15-.107.127.127 0 0 0-.199-.107.127.127 0 0 0-.05.076ZM62.22 72.067a.073.073 0 0 0-.079-.024c-.023.01-.067.037-.053.063a.08.08 0 0 0 .074.036c.02-.004.074-.05.059-.075ZM62.311 76.665a.12.12 0 0 0 .147-.053c.025-.067-.093-.18-.142-.16-.05.02-.068.184-.005.213ZM62.052 76.268c.018.021.064.005.081-.012.017-.016.033-.069.004-.095-.029-.026-.079.01-.088.026a.075.075 0 0 0 .003.081ZM63.573 76.195a.202.202 0 0 0-.18-.204.22.22 0 0 0-.25.201.175.175 0 0 0 .15.204.278.278 0 0 0 .28-.2ZM64.016 76.622c-.013-.032-.096-.032-.116-.018a.087.087 0 0 0-.018.088.097.097 0 0 0 .087.03.107.107 0 0 0 .047-.1ZM61.939 75.486c-.054 0-.097.02-.107.072a.66.66 0 0 0 .021.396c.01.019.024.036.04.05a.15.15 0 0 0 .234-.01.15.15 0 0 0 .03-.082.936.936 0 0 0 .005-.25.237.237 0 0 0-.223-.176ZM63.452 72.69a.122.122 0 0 0-.101-.136.127.127 0 0 0-.134.107.102.102 0 0 0 .095.123.113.113 0 0 0 .124-.05.114.114 0 0 0 .016-.044ZM65.298 73.975c-.05-.05-.027-.04-.007-.111a.122.122 0 0 0-.062-.163.123.123 0 0 0-.064-.01.245.245 0 0 0-.205.25.287.287 0 0 0 .305.23c.094-.017.083-.146.033-.196ZM61.763 73.387a.1.1 0 0 0-.001-.027.244.244 0 0 0 .178.097.218.218 0 0 0 .077-.01.316.316 0 0 0 .022.296.23.23 0 0 0 .277.021c.063-.038.111-.08.196-.04.062.03.106-.024.128-.086-.04-.082-.104-.106-.165-.066a1.305 1.305 0 0 0-.144-.172.277.277 0 0 0-.224-.019.244.244 0 0 0 .041-.147c0-.17-.048-.223-.191-.245a.214.214 0 0 0-.167.06c-.024.13-.047.259-.065.39a.102.102 0 0 0 .038-.052ZM64.297 73.36a.24.24 0 0 0-.075.239c.024.062.048.129.14.116.093-.013.138-.01.206-.015a.1.1 0 0 0 .142-.075.13.13 0 0 0-.1-.153.31.31 0 0 1-.117-.055.175.175 0 0 0-.196-.057ZM63.848 74.248a.36.36 0 0 0-.053-.098.118.118 0 0 0-.089.03.117.117 0 0 0-.037.085c0 .056.04.066.082.07.042.005.109-.034.097-.087ZM64.372 74.39a.357.357 0 0 0-.054-.099.116.116 0 0 0-.126.116c0 .055.04.065.083.07.042.004.108-.035.097-.088ZM63.276 74.809a.161.161 0 0 0 .089.166.16.16 0 0 0 .065.016c.074.012.139-.055.152-.161a.117.117 0 0 0-.099-.148.248.248 0 0 0-.207.127ZM62.863 74.334a.116.116 0 0 0-.12.12.217.217 0 0 0-.117-.014.224.224 0 0 1-.162-.022.25.25 0 0 0-.241.014.211.211 0 0 0-.101.212l.004.024a.201.201 0 0 0-.133-.07c-.075-.006-.132.064-.142.172-.007.081.05.178.114.18a.225.225 0 0 0 .212-.154c.001-.012 0-.024-.002-.035a.221.221 0 0 0 .092.044c.087.02.178.008.257-.032a.184.184 0 0 1 .096-.011.154.154 0 0 0 .212-.147c.012.01.026.016.04.02a.14.14 0 0 0 .11-.137.138.138 0 0 0-.066-.146.139.139 0 0 0-.053-.018ZM63.178 73.867a.244.244 0 0 0-.21-.208.14.14 0 0 0-.137.086.14.14 0 0 0-.01.056.15.15 0 0 0 .09.173.15.15 0 0 0 .07.01c.103.009.195-.048.197-.117ZM73.478 68.32a.126.126 0 0 0-.09-.068c-.027 0-.104.052-.101.085.002.034.09.083.105.075.017-.008.099-.06.087-.093ZM69.14 67.325a.172.172 0 0 0-.138-.18c-.113-.027-.18 0-.203.084a.209.209 0 0 0 .02.142.08.08 0 0 0-.027-.013.12.12 0 0 0-.13.159.12.12 0 0 0 .115.079.139.139 0 0 0 .118-.126c0-.01 0-.02-.003-.03.008.007.017.011.026.014a.217.217 0 0 0 .222-.13ZM73.255 70.028a.071.071 0 0 0-.05-.083.072.072 0 0 0-.035 0c-.038.005-.13.044-.129.077.001.033.08.084.118.099.037.015.091-.027.096-.093ZM69.802 68.498a.116.116 0 0 0 .136-.078.13.13 0 0 0-.08-.157.127.127 0 0 0-.138.076.138.138 0 0 0 .082.16ZM68.965 67.77c-.002-.038-.012-.137-.057-.146-.045-.01-.094.086-.1.12-.006.034.038.068.07.082.01.005.02.007.03.007.011 0 .022-.004.03-.01a.058.058 0 0 0 .027-.054ZM71.775 68.985a.126.126 0 0 0-.098-.117c-.043 0-.083.063-.082.131a.066.066 0 0 0 .018.058.067.067 0 0 0 .058.018c.05-.005.099-.023.104-.09ZM69.629 67.806c-.053-.005-.128.093-.113.133a.14.14 0 0 0 .11.052.07.07 0 0 0 .087-.045.07.07 0 0 0 .003-.035c-.007-.048-.02-.102-.087-.105ZM70.944 68.805a.12.12 0 0 0-.022-.068.077.077 0 0 0 .011-.022.123.123 0 0 0-.073-.14.105.105 0 0 0-.138.067.119.119 0 0 0 .123.145c.002.025.01.075.038.072a.08.08 0 0 0 .061-.054ZM72.37 69.045c-.005-.024-.024-.058-.045-.063-.02-.005-.072 0-.08.047-.007.047.054.052.078.057.024.005.05-.03.047-.04ZM68.532 67.818c.035-.119-.015-.25-.107-.28a.165.165 0 0 0-.057-.006l.066-.042a.047.047 0 0 0 .017-.011.047.047 0 0 0 .013-.038.045.045 0 0 0-.007-.019.139.139 0 0 0-.177-.044.107.107 0 0 0 .002.17.254.254 0 0 0-.167.144.228.228 0 0 0 .148.258.223.223 0 0 0 .269-.132ZM70.687 68.783a.198.198 0 0 0-.145-.149.124.124 0 0 0-.11.13.116.116 0 0 0 .041.082.115.115 0 0 0 .088.027c.077.003.13-.037.126-.09ZM66.046 67.987a.205.205 0 0 0 .214.057.138.138 0 0 0 .061-.162c-.052-.11-.132-.163-.2-.13a.206.206 0 0 0-.075.235ZM68.498 68.752a.191.191 0 0 0-.156-.22.199.199 0 0 0-.208.156.185.185 0 0 0 .364.064ZM67.433 68.492a.036.036 0 0 0-.026-.044c-.02-.01-.037.019-.04.03-.004.01.018.032.028.033a.033.033 0 0 0 .038-.02ZM65.847 67.717a.182.182 0 0 0-.074-.206.17.17 0 0 0 .09-.012.09.09 0 0 0 .041-.063.089.089 0 0 0-.021-.073c-.159.094-.321.186-.478.289a.252.252 0 0 0 .168.233.257.257 0 0 0 .274-.168ZM69.216 68.352c-.044 0-.153.016-.16.059-.009.042.077.105.116.126.04.022.104-.027.11-.082.006-.054-.007-.108-.066-.103ZM68.956 68.19c-.035-.007-.161.053-.164.113-.002.06.137.105.188.105a.13.13 0 0 0 .11-.102c.006-.064-.083-.105-.134-.116ZM67.984 68.248a.118.118 0 0 0-.04-.147.096.096 0 0 0 .007-.094.088.088 0 0 0-.045-.05.088.088 0 0 0-.068-.003.092.092 0 0 0-.078.079.09.09 0 0 0 .003.039.096.096 0 0 0 .023.04.173.173 0 0 0-.086.089.139.139 0 0 0 .084.164.169.169 0 0 0 .2-.117ZM69.349 69.136c.004-.008-.008-.056-.021-.059-.013-.003-.072-.017-.09.019-.02.035.028.069.04.07a.097.097 0 0 0 .071-.03ZM71.924 70.23c.001-.032-.068-.082-.089-.08-.02.003-.087.03-.092.056-.005.027.04.077.068.084.027.006.112-.033.113-.06ZM71.786 68.376a.096.096 0 0 0-.019-.083.095.095 0 0 0-.079-.034.106.106 0 0 0-.107.092c-.01.049.088.139.129.118a.128.128 0 0 0 .076-.093ZM75.367 68.88a.191.191 0 0 0-.203-.176.196.196 0 0 0-.165.199.185.185 0 0 0 .368-.022ZM73.742 67.744a.26.26 0 0 0-.177-.157c-.066-.004-.105.047-.106.142 0 .095.036.156.11.156a.147.147 0 0 0 .119-.032.148.148 0 0 0 .054-.11ZM74.654 68.368a.198.198 0 0 0-.192.155.139.139 0 0 0 .119.141.171.171 0 0 0 .168-.155.116.116 0 0 0-.095-.14ZM74.237 67.443l-.084-.04a.109.109 0 0 0 .084.04ZM74.405 67.889c.072.034.146.07.198-.017a.126.126 0 0 0-.044-.183.09.09 0 0 0-.037-.01 1.667 1.667 0 0 0-.168.075c-.133-.064-.248-.057-.286.017a.242.242 0 0 0 .102.272c.087.054.135.023.235-.154ZM74.747 67.936a.228.228 0 0 0 .204.218.232.232 0 0 0 .19-.095 8.809 8.809 0 0 0-.333-.248.2.2 0 0 0-.061.125ZM74.19 69.735c.01-.019-.019-.083-.047-.084-.03-.001-.061.056-.061.076 0 .02.02.062.05.064.03.002.05-.038.058-.056ZM74.783 70.31c-.021 0-.044.037-.052.06-.008.024.015.066.048.068.033.002.048-.056.05-.08a.061.061 0 0 0-.046-.049ZM65.692 72.399c.007-.046-.11-.092-.116-.079-.048.022-.114.041-.123.096-.01.054.06.076.084.072.023-.004.148-.045.155-.09ZM69.09 69.547a.123.123 0 0 0-.156-.028.094.094 0 0 0-.055.115c.022.09.092.102.177.107.032-.064.094-.125.034-.194ZM71.22 68.166c.01.038.023.083.06.094.036.01.123-.065.117-.125-.005-.06-.045-.063-.087-.064-.043-.002-.106.041-.09.095ZM70.808 67.944a.203.203 0 0 0 .055-.093.165.165 0 0 0-.131-.184c-.084-.021-.139.007-.158.079a.203.203 0 0 0-.007.061.126.126 0 0 0-.046.097.212.212 0 0 0 .162.188c.046-.001.102-.071.125-.148ZM72.548 68.485a.215.215 0 0 0-.238-.212.194.194 0 0 0-.15.051.197.197 0 0 0-.064.145.244.244 0 0 0 .224.238.257.257 0 0 0 .228-.222ZM73.461 68.68a.206.206 0 0 0-.213-.147c-.094.003-.143.07-.137.188a.161.161 0 0 0 .141.14c.072-.001.21-.119.21-.18ZM73.856 69.144c-.007-.052-.029-.1-.084-.088-.055.013-.142.052-.143.099 0 .047.109.076.155.074.046-.003.086-.023.072-.085ZM64.296 69.212a.216.216 0 0 0-.021-.278.23.23 0 0 0-.215 0 .25.25 0 0 0-.053-.017.072.072 0 0 0-.067.012.07.07 0 0 0-.026.063c0 .041.007.08.04.102a.209.209 0 0 0 .066.185c.055.065.187.017.276-.067ZM73.94 68.678a.14.14 0 0 0-.118-.122.138.138 0 0 0-.128.135.11.11 0 0 0 .105.103.118.118 0 0 0 .097-.025.12.12 0 0 0 .044-.09ZM76.125 69.517a.12.12 0 0 0-.158.008.093.093 0 0 0-.031.124c.041.081.116.08.196.064.023-.075.066-.142-.007-.196ZM74.267 68.873a.036.036 0 0 0-.01-.026.035.035 0 0 0-.025-.01.04.04 0 0 0-.023.012.04.04 0 0 0-.009.025c-.005.01.026.027.035.027.01 0 .031-.011.032-.028ZM71.135 67.378a.19.19 0 0 0-.143-.023c-.086.038-.045.113-.032.187.09.02.165.025.199-.06a.111.111 0 0 0-.024-.104ZM72.603 66.7l.008.022.073.003a1.465 1.465 0 0 1-.08-.025ZM71.97 68.104a.19.19 0 0 0-.016-.142.058.058 0 0 0-.017-.019.057.057 0 0 0-.048-.008.056.056 0 0 0-.022.012.122.122 0 0 0-.023.1c0 .035-.007.07.02.098.025.03.086.006.105-.041ZM72.802 67.647a.217.217 0 0 0-.265-.03c-.075.044-.06.183 0 .29a.214.214 0 0 0 .274.046.221.221 0 0 0-.009-.306ZM71.524 67.894a.076.076 0 0 0 .058.071.061.061 0 0 0 .077-.04.067.067 0 0 0-.025-.082.067.067 0 0 0-.029-.01.066.066 0 0 0-.074.033.067.067 0 0 0-.007.028ZM71.991 67.093a.097.097 0 0 0-.013-.044l.006-.012c.003-.039-.026-.104-.054-.112a.113.113 0 0 0-.077.017.068.068 0 0 0-.03-.004.216.216 0 0 0-.145.187.11.11 0 0 0 .039.083.11.11 0 0 0 .088.024c.127-.003.187-.048.186-.14ZM73.3 67.86a.123.123 0 0 0-.158.007.093.093 0 0 0-.03.124c.04.083.115.08.195.064.025-.074.067-.142-.007-.196ZM71.898 66.521a.2.2 0 0 1 .026.219.19.19 0 0 0 .11.188.248.248 0 0 0 .217-.13c.024-.05.06-.126-.012-.16a.218.218 0 0 1-.072-.069 5.131 5.131 0 0 0-.275-.07c0 .007 0 .016.006.022ZM72.16 67.289c-.082.027-.162.06-.24.097a.103.103 0 0 0-.058.109.104.104 0 0 0 .015.041.112.112 0 0 0 .147.056.313.313 0 0 1 .104-.023.172.172 0 0 0 .18-.137c.029-.085-.015-.142-.148-.143ZM72.37 67.997a.14.14 0 0 0-.034-.107c-.069-.05-.113.004-.157.05.011.074.043.128.119.12a.101.101 0 0 0 .072-.063ZM67.107 67.762a.261.261 0 0 1 .018-.164c.011-.024-.03-.08-.06-.096a.147.147 0 0 0-.115.008.112.112 0 0 0-.027.095c.013.06.03.12.053.18.02.049.057.057.109.032.008-.016.028-.04.022-.055ZM67.875 69.223c-.02-.073-.115-.129-.167-.098-.052.031-.042.228.019.262.06.033.17-.09.148-.164ZM66.314 67.136c-.08.037-.159.078-.236.117a.18.18 0 0 0 .15.01.206.206 0 0 0 .086-.127ZM64.517 68.334l.004-.01-.084.073a.112.112 0 0 0 .08-.064ZM67.897 66.548c-.176.047-.355.099-.536.154a.244.244 0 0 0 .037.03c.05.024.105.037.161.037a.29.29 0 0 0 .105-.023.848.848 0 0 0 .102-.042.171.171 0 0 0 .131-.156ZM69.349 67.016a.12.12 0 0 0-.108-.13.092.092 0 0 0-.084.019.094.094 0 0 0-.033.08.112.112 0 0 0 .056.12.112.112 0 0 0 .127-.014.116.116 0 0 0 .042-.075ZM67.947 66.975a.177.177 0 0 0-.109-.205.15.15 0 0 0-.17.072c-.037.115-.009.223.066.246a.2.2 0 0 0 .213-.113ZM68.455 66.602a.278.278 0 0 0 .316.035.268.268 0 0 0 .095-.283 8.433 8.433 0 0 0-.884.176l-.004.044a.164.164 0 0 0 .13.177.162.162 0 0 0 .078-.003 1.51 1.51 0 0 0 .269-.146ZM68.372 67.016c.013-.028-.009-.082-.032-.11a.1.1 0 0 0-.093-.016c-.068.037-.07.097-.035.168.06.012.13.032.16-.042ZM67.003 66.834c-.153.058-.304.12-.452.188l.018.009c.104.05.233.046.253-.053a.395.395 0 0 0 .06-.015.21.21 0 0 0 .121-.129ZM64.844 71.89c-.018-.072-.125-.106-.23-.075a.14.14 0 0 0-.075.156.168.168 0 0 0 .18.115.194.194 0 0 0 .125-.196ZM64.047 71.779c-.02-.062-.167-.08-.192-.027-.025.053.056.167.119.149a.113.113 0 0 0 .073-.122ZM65.199 71.994a.233.233 0 0 0-.195-.218.17.17 0 0 0-.151.171.159.159 0 0 0 .162.175c.102.005.183-.052.184-.128ZM63.16 71.484a.114.114 0 0 0-.146.017c-.068.069-.015.131.03.19l-.08.098-.03-.014c0-.023-.002-.046-.005-.069-.024-.093-.044-.189-.065-.282.17-.053.176-.07.098-.206a.173.173 0 0 0 .046-.095.104.104 0 0 0-.024-.08.104.104 0 0 0-.074-.038.16.16 0 0 0-.18.118.13.13 0 0 0 .103.15.206.206 0 0 0-.023.072c-.221.02-.263.14-.13.335a.163.163 0 0 1-.019.04.092.092 0 0 0-.01.11.19.19 0 0 0-.015.125.175.175 0 0 0 .208.065c.03-.007.06-.018.09-.028.047.06.11.103.182.127a.322.322 0 0 0 .001.055.214.214 0 0 0 .236.15.222.222 0 0 0 .112-.285.242.242 0 0 0-.131-.123l.005-.03c.018-.125-.058-.183-.161-.218.015-.067.067-.133-.018-.184ZM64.697 72.429a.11.11 0 0 0-.018-.09.113.113 0 0 0-.079-.046.12.12 0 0 0-.087.023.118.118 0 0 0-.046.079.139.139 0 0 0 .1.14.118.118 0 0 0 .117-.062.117.117 0 0 0 .013-.044Z" fill="#E21C7D"/><path d="M64.34 69.83a.116.116 0 0 0-.13.091.12.12 0 0 0 .098.138.092.092 0 0 0 .111-.044.093.093 0 0 0 .011-.042.112.112 0 0 0-.046-.126.113.113 0 0 0-.044-.017ZM66.665 68.78a.119.119 0 0 0-.07-.078.198.198 0 0 0-.108-.037.255.255 0 0 0-.188.108.182.182 0 0 0 .002.195.159.159 0 0 0 .146.07.188.188 0 0 0 .156-.088c.028-.062.083-.118.062-.17ZM64.818 68.484a.23.23 0 0 0-.162.077.129.129 0 0 0-.096.094c-.003.037.028.068.065.091a.223.223 0 0 0 .234.185.278.278 0 0 0 .186-.28.211.211 0 0 0-.227-.167ZM65.095 70.116c.063-.06.04-.135-.011-.198-.068-.007-.14-.008-.173.071a.102.102 0 0 0-.003.085.104.104 0 0 0 .06.058.14.14 0 0 0 .127-.016ZM62.647 75.353a.14.14 0 0 0 .015-.126.14.14 0 0 0-.212-.03.122.122 0 0 0 .061.195.166.166 0 0 0 .136-.039ZM64.403 74.87c.001-.022-.015-.063-.045-.067-.03-.004-.056.03-.062.051-.005.02.013.084.042.088.03.003.065-.053.065-.073ZM61.76 74.13c.01-.11-.021-.188-.083-.215a4.324 4.324 0 0 0-.018.3.096.096 0 0 0 .101-.086ZM62.413 71.688a.246.246 0 0 0 .09-.328.268.268 0 0 0-.136-.12 5.37 5.37 0 0 0-.18.439.265.265 0 0 0 .226.008ZM63.74 72.17l.02-.008a.137.137 0 0 0 .059-.098c-.005-.093-.076-.116-.171-.117a.468.468 0 0 0-.053.112l-.006.012c-.012.024-.018.08-.002.094a.155.155 0 0 0 .117.042.067.067 0 0 0 .036-.037ZM62.039 74.09a.14.14 0 0 0-.118-.136.139.139 0 0 0-.127.132.122.122 0 0 0 .113.127.13.13 0 0 0 .132-.122ZM64.168 72.538a.12.12 0 0 0-.138.119.139.139 0 0 0 .136.125.13.13 0 0 0 .119-.124.114.114 0 0 0-.117-.12ZM65.488 73.103c.004-.03-.05-.055-.074-.061a.05.05 0 0 0-.051.037.088.088 0 0 0 .042.066c.016.006.079-.01.083-.042ZM62.766 72.068c-.011-.034-.068-.054-.094-.072-.084.03-.087.08-.07.12.018.041.057.09.107.06a.14.14 0 0 0 .057-.108ZM64.714 72.97a.079.079 0 0 0-.024-.094.077.077 0 0 0-.032-.014c-.057-.013-.135.028-.127.079.009.05.028.14.087.142.058.004.084-.076.096-.112Z" fill="#E21C7D"/></svg>
