<svg xmlns="http://www.w3.org/2000/svg" xmlns:xlink="http://www.w3.org/1999/xlink" viewBox="0 0 100 100"><defs><style>.cls-1{fill:#0066b1;}.cls-2{fill:transparent;}.cls-3{clip-path:url(#clip-path);}.cls-4{fill:#07c;}.cls-5{fill:#1ba9f5;}</style><clipPath id="clip-path"><path class="cls-1" d="M22.07,19.5H77.93A8.06,8.06,0,0,1,86,27.56v34.8a8.06,8.06,0,0,1-8.06,8.06H46.37L22,90.69l-.18-20.28a8.05,8.05,0,0,1-7.77-8V27.56A8.06,8.06,0,0,1,22.07,19.5Z"/></clipPath></defs><g id="Layer_1" data-name="Layer 1"><rect class="cls-2" x="-10.09" y="-9.45" width="118.91" height="118.91" rx="18.42"/><path class="cls-1" d="M22.07,19.5H77.93A8.06,8.06,0,0,1,86,27.56v34.8a8.06,8.06,0,0,1-8.06,8.06H46.37L22,90.69l-.18-20.28a8.05,8.05,0,0,1-7.77-8V27.56A8.06,8.06,0,0,1,22.07,19.5Z"/><g class="cls-3"><path class="cls-4" d="M12.46,34.48a1.53,1.53,0,0,0-2.27.14.62.62,0,0,1-.66.22.72.72,0,0,0-.7.73c0,.38.24.48.55.48a1.54,1.54,0,0,1,.69.1c.44.24.84.55,1.29.85-.27,1.22,0,1.57,1.08,1.53a.83.83,0,0,0,.79-1.14,7,7,0,0,0-.81-1.29A1.43,1.43,0,0,0,12.46,34.48Z"/><path class="cls-4" d="M10.46,49.12c-.25-.13-.58-.35-.81-.06a1.46,1.46,0,0,1-1.12.48.49.49,0,0,0-.47.62c0,.37.44.71.74.54a1,1,0,0,1,1.13,0,1,1,0,0,0,1-.41A1.25,1.25,0,0,0,10.46,49.12Z"/><path class="cls-4" d="M18.57,35.17a1.15,1.15,0,0,0-1.38.66,1.48,1.48,0,0,0,.91,1.52,1.17,1.17,0,0,0,1.27-.88A1.14,1.14,0,0,0,18.57,35.17Z"/><path class="cls-4" d="M5.89,20.38a1.05,1.05,0,1,0,.36-2.07c-.51-.07-1,.45-1.13,1.13A.82.82,0,0,0,5.89,20.38Z"/><path class="cls-4" d="M2.15,38c.06.82.23.9.9.46a2.86,2.86,0,0,0,1,.26,1.58,1.58,0,0,0,.79-.49c.26-.26.11-.7-.31-.9a1.17,1.17,0,0,0-.83-.15c-.27.12-.43.47-.66.75C2.75,37.79,2.43,37.63,2.15,38Z"/><path class="cls-4" d="M20,45.41c-.06.47.24.77.84.84a.84.84,0,0,0,.82-.62c.06-.38-.44-1.17-.75-1.19S20.05,44.88,20,45.41Z"/><path class="cls-4" d="M9.88,62.62a.8.8,0,0,0,1-.68c.07-.45-.19-.93-.52-1a1.19,1.19,0,0,0-1.18.91A.74.74,0,0,0,9.88,62.62Z"/><path class="cls-4" d="M10.36,27.65c-.06.43.23.72.8.82S12,28.35,12,28a1.6,1.6,0,0,0-.7-1.17A.87.87,0,0,0,10.36,27.65Z"/><path class="cls-4" d="M12.32,51.71c.08-.65-.1-1-.57-1.05a1,1,0,0,0-.9.74c0,.32.46.82.83.87A.56.56,0,0,0,12.32,51.71Z"/><path class="cls-4" d="M5.59,31.58A.63.63,0,0,0,5,30.86a.75.75,0,0,0-.76.58c0,.25.42.75.7.78S5.55,31.86,5.59,31.58Z"/><path class="cls-4" d="M11.41,53.14a.6.6,0,0,0-.42.61.66.66,0,0,0,.53.69c.48,0,.66-.33.86-.65C12,53.17,11.78,53,11.41,53.14Z"/><path class="cls-4" d="M17.62,44.72c-.37-.17-.67-.44-1-.11a.63.63,0,0,0-.08.81.47.47,0,0,0,.61.24C17.59,45.52,17.63,45.16,17.62,44.72Z"/><path class="cls-4" d="M28.14,31.69c-.37-.17-.68-.44-1-.11a.62.62,0,0,0-.08.8.47.47,0,0,0,.6.25C28.11,32.48,28.14,32.12,28.14,31.69Z"/><path class="cls-4" d="M23.82,55.74a.6.6,0,0,0,.5.71A.48.48,0,0,0,25,56a.59.59,0,0,0-.47-.72A.61.61,0,0,0,23.82,55.74Z"/><path class="cls-4" d="M20.27,28.19a.66.66,0,0,0,.45.67.74.74,0,0,0,.76-.46.59.59,0,0,0-.45-.66A.67.67,0,0,0,20.27,28.19Z"/><path class="cls-4" d="M13.11,55.15a.6.6,0,0,0-.56.05.93.93,0,0,0-.21.7c.12.46.53.31.92.3C13.42,55.77,13.51,55.39,13.11,55.15Z"/><path class="cls-4" d="M7.31,36.6a.76.76,0,0,0,.63.8.73.73,0,0,0,.8-.72A.63.63,0,0,0,8.13,36C7.75,36,7.3,36.27,7.31,36.6Z"/><path class="cls-4" d="M20.48,53.61c0,.22.26.46.61.51a.34.34,0,0,0,.44-.32c0-.28,0-.54-.36-.62A.66.66,0,0,0,20.48,53.61Z"/><path class="cls-4" d="M2.73,71a.59.59,0,0,0,0,.55.57.57,0,0,0,.84,0,.55.55,0,0,0-.39-.73A.5.5,0,0,0,2.73,71Z"/><path class="cls-4" d="M-.66,62a.6.6,0,0,0,.6.42c.32-.08.44-.85.2-1S-.73,61.67-.66,62Z"/><path class="cls-4" d="M13.59,63.15c-.07.26.38.72.58.67s.31-.3.38-.51a.37.37,0,0,0-.34-.51C13.93,62.78,13.67,62.82,13.59,63.15Z"/><path class="cls-4" d="M1.62,60.28c-.06.49.24,1,.62,1.08a1.17,1.17,0,0,0,1-.82.8.8,0,0,0-.73-1A.81.81,0,0,0,1.62,60.28Z"/><path class="cls-4" d="M5.47,63.46c.19.06.47-.29.55-.45s-.15-.6-.39-.56a.61.61,0,0,0-.4.38C5.19,63,5.28,63.4,5.47,63.46Z"/><path class="cls-4" d="M24.64,30.57c0,.12-.06.37.14.45s.34-.18.34-.24a.56.56,0,0,0-.19-.35S24.65,30.51,24.64,30.57Z"/><path class="cls-4" d="M17,52.06c.19-.12.1-.4-.13-.53a.94.94,0,0,0-.73-.07.29.29,0,0,0-.14.43.62.62,0,0,0,.48.19A.77.77,0,0,0,17,52.06Z"/><path class="cls-4" d="M15.17,47a1.13,1.13,0,0,0-.35,1.33c.16.41.88.44,1.47.21a1.1,1.1,0,0,0,.44-1.35A1.14,1.14,0,0,0,15.17,47Z"/><path class="cls-4" d="M-3.6,37a.79.79,0,0,0,.24.84c.22.25.48.1.72,0,.45-.12.63-.47.73-1l-.73-.63.35-.13c.51-.17.73,0,.59.53a1,1,0,0,0,.57,1.21,1,1,0,0,0,1.27-.11.84.84,0,0,0,.21-1.22,2.61,2.61,0,0,0-.76-.72c-.25-.15-.43-.28-.42-.57s-.27-.56-.66-.54a1.25,1.25,0,0,0-.35-1.85c-.51-.34-.89-.21-1.38.4a4.73,4.73,0,0,0-1,0,.69.69,0,0,0-.5.83c.15.43.36.83.55,1.27-.34.51-.33.56.23,1,.27,0,.48-.5.78-.09A5.77,5.77,0,0,0-3.6,37Z"/><path class="cls-4" d="M11,29.55c-1-.79-1.35-.78-2.27.07l-.09.05h0a1.66,1.66,0,0,0,.28-.41.39.39,0,0,0-.28-.57.48.48,0,0,0-.64.33,1.19,1.19,0,0,0,.15.58.54.54,0,0,0-.6.45.63.63,0,0,0,.74.71c.42-.05.56.21.81.45-.63.7-.55,1.26.18,1.63a.92.92,0,0,0,.23.09c.53.18.82,0,.94-.53a.93.93,0,0,0-.51-1.23,2.84,2.84,0,0,1,.64-.19.58.58,0,0,0,.65-.47A.83.83,0,0,0,11,29.55Z"/><path class="cls-4" d="M1.57,30.11a.82.82,0,0,0-1.36-.17c-.13.13-.23.3-.46.6-.17-.25-.36-.39-.37-.56a.79.79,0,0,0-.84-.79,1.26,1.26,0,0,1-.37-.13c-.42-.16-.73-.1-.83.17s.07.67.57.79c0,0,.11,0,.15,0,.25.08.36.23.19.47s-.16.15-.22.24a1.07,1.07,0,0,0,.05,1.21.87.87,0,0,0,1.13.34,1.56,1.56,0,0,0,1-1.11,3.49,3.49,0,0,0,.75.11C1.71,31.24,2,30.72,1.57,30.11Z"/><path class="cls-4" d="M2.46,32.85c0,.45-.08,1,.43,1.29a1,1,0,0,1,.5.77,1,1,0,0,0,.94.75,2.36,2.36,0,0,0,1.23-1.39c-.22-.44-.51-1-.82-1.61,0-.07-.25-.1-.37-.07a1.14,1.14,0,0,1-.91-.18C3.07,32.17,2.46,32.44,2.46,32.85Z"/><path class="cls-4" d="M-.43,55.16a.89.89,0,0,0-.4,1c0,.15.07.31.1.47-.29.27-.63.52-.71.87h-.29a1.08,1.08,0,0,0-.85,1.13,1.13,1.13,0,0,0,1.41.68,1.2,1.2,0,0,0,.68-.62l.15,0C.3,58.91.6,58.53.84,58c.33.11.65.39.94,0a.56.56,0,0,0,0-.74c-.33-.38-.66-.13-1,.07L.3,56.89l.55-.63a4.19,4.19,0,0,0-.22-.63A1.28,1.28,0,0,0-.43,55.16Z"/><path class="cls-4" d="M13.28,42.22c-.17-.42.12-.56.26-.82a2,2,0,0,0,.12-.84A1.47,1.47,0,0,0,13.5,40c-.08-.17-.17-.33-.26-.5-.31-.53-.66-.7-1.11-.52a1,1,0,0,0-.55,1.24A11,11,0,0,1,12,42c.05.49.47,1,.8,1S13.34,42.37,13.28,42.22Z"/><path class="cls-4" d="M8.81,46c-.29-.06-.59,0-.74-.48.12-.14.32-.29.33-.44a1.1,1.1,0,0,0-.19-.72c-.2-.23-.48-.12-.7.08s-.36.31-.53.46a1.68,1.68,0,0,0,.19,2s.11.06.15,0c.49-.17.71.21,1,.48a.61.61,0,0,0,1-.16.75.75,0,0,0,.07-.12.51.51,0,0,0,.26.14,2.05,2.05,0,0,0,.69-.07v0l.15-.87a3,3,0,0,0-.53-.24.67.67,0,0,0-.62.15A.81.81,0,0,0,8.81,46Z"/><path class="cls-4" d="M2.39,62.84a.78.78,0,0,0-1.17.79,5.4,5.4,0,0,0,.29,1.25,1.2,1.2,0,0,0,1.29.59c.27-.07.79-.42.52-.93-.79-.53-.23-.93-.67-1.5A1.21,1.21,0,0,0,2.39,62.84Z"/><path class="cls-4" d="M5.13,41.8a1.36,1.36,0,0,1-.08.32.66.66,0,0,0,.33.91A.82.82,0,0,0,6.31,43c.84-.47,1-.88.53-1.62-.33-.56-.64-1.13-1-1.69,1.08-.78,1.11-.92.34-1.6a1,1,0,0,0-.8,1.21C3.94,40,3.86,40.86,5.13,41.8Z"/><path class="cls-4" d="M10.89,19.44c-.14.47-.3.94-.45,1.41-.89-.21-1-.14-1,.64.37.29.69.19,1-.18,1,.49,1.53.06,1.45-1.14a1.22,1.22,0,0,1,.19-.12c.32-.12.36-.36.33-.66s-.19-.4-.45-.49C11.35,18.67,11.07,18.8,10.89,19.44Z"/><path class="cls-4" d="M4.41,22.22a1,1,0,0,0-1.12.89,1.08,1.08,0,0,0,1,1.41,1.2,1.2,0,0,0,1.32-1C5.63,23,5,22.35,4.41,22.22Z"/><path class="cls-4" d="M18,49.94a1,1,0,0,0,.83,1.23,1.26,1.26,0,0,0,1.37-1,1.32,1.32,0,0,0-1-1.32C18.64,48.76,18.12,49.2,18,49.94Z"/><path class="cls-4" d="M6.11,50.65a1.26,1.26,0,0,0-1-1.48c-.65-.11-1.12.25-1.27,1s.14,1.52.84,1.65A1.29,1.29,0,0,0,6.11,50.65Z"/><path class="cls-4" d="M7,55.57a1.38,1.38,0,0,0-1.2.85.94.94,0,0,0,.77,1,1,1,0,0,0,1.1-.71A1,1,0,0,0,7,55.57Z"/><path class="cls-4" d="M.88,25.32a1.12,1.12,0,0,0,.79,1.32,1.75,1.75,0,0,0,1.52-1,1.13,1.13,0,0,0-.95-1.2A1.32,1.32,0,0,0,.88,25.32Z"/><path class="cls-4" d="M-1.06,43.67c-.11.15-.24.28-.34.44a.9.9,0,0,0,0,1.12,1.25,1.25,0,0,0,1.24.57.89.89,0,0,0,.7-1.24A1.31,1.31,0,0,0-1,43.62Z"/><path class="cls-4" d="M17.67,38a.62.62,0,0,0-.81,0c-.1.07-.22.23-.21.32a8.11,8.11,0,0,0,.25.9c-.43.62-.48,1.22-.11,1.48a1.26,1.26,0,0,0,1.45-.31c.31-.42.19-.69-.63-1.33C17.82,38.7,18.09,38.38,17.67,38Z"/><path class="cls-4" d="M22.29,35.83a1,1,0,0,0,.88,1c.52.07.88-.27.94-.86a.83.83,0,0,0-.77-1A1,1,0,0,0,22.29,35.83Z"/><path class="cls-4" d="M5.4,54.3a1.09,1.09,0,0,0,1.28-1,1.11,1.11,0,0,0-.91-1.15c-.61-.13-1,.21-1.16.92A.94.94,0,0,0,5.4,54.3Z"/><path class="cls-4" d="M11.8,25.2a.9.9,0,0,0,.76,1.11,1.21,1.21,0,0,0,1.33-1A1.23,1.23,0,0,0,13,24.14C12.39,24,11.91,24.48,11.8,25.2Z"/><path class="cls-4" d="M12.88,50a9.7,9.7,0,0,0,.32,1.26.55.55,0,0,0,.73.34.57.57,0,0,0,.39-.71,1.62,1.62,0,0,1,0-.54.89.89,0,0,0-.56-1C13.3,49.1,13,49.28,12.88,50Z"/><path class="cls-4" d="M7.43,41.18a1,1,0,0,0,.69,1c.3.06.77-.17.77-.44a1.79,1.79,0,0,0-.24-1.23c-.42-.51-.48-.54-1.14-.18C7.48,40.66,7.47,40.92,7.43,41.18Z"/><path class="cls-4" d="M.27,42.22a.54.54,0,0,0-.1-.49,1.18,1.18,0,0,0-1.32-.26.57.57,0,0,0-.39.69A1,1,0,0,0-.66,43a1,1,0,0,0,.24,0l0,0A5.31,5.31,0,0,0,.27,42.22Z"/><path class="cls-4" d="M23.75,25.52a1,1,0,0,0,.08,1.41.88.88,0,0,0,1.05-.14.69.69,0,0,0,.15-.94c-.15-.27-.3-.9-.75-.9S23.89,25.36,23.75,25.52Z"/><path class="cls-4" d="M14.94,33.07c-.09.59.07.91.52,1a1,1,0,0,0,1.12-.69,1.11,1.11,0,0,0-.79-1.08C15.45,32.22,15,32.62,14.94,33.07Z"/><path class="cls-4" d="M3.18,17.64a1,1,0,0,0-.73-1c-.44-.1-.73.14-.86.71-.08.39.16.94.46,1A1.05,1.05,0,0,0,3.18,17.64Z"/><path class="cls-4" d="M8,25.69a1,1,0,0,0-.66-1.15c-.32-.05-1,.58-1,1A.84.84,0,0,0,8,25.69Z"/><path class="cls-4" d="M10.57,43.39c.09-.37-.31-.79-.85-.89s-.75.12-.84.72a.74.74,0,0,0,.6.87A1.44,1.44,0,0,0,10.57,43.39Z"/><path class="cls-4" d="M8.91,58.48a1.14,1.14,0,0,0,.83,1,1.07,1.07,0,0,0,.92-.75.79.79,0,0,0-.49-.82C9.52,57.84,9,58.06,8.91,58.48Z"/><path class="cls-4" d="M.51,22.08a.57.57,0,0,0-.29.55c0,.43.39.52.77.64.26-.29.6-.54.34-1a.28.28,0,0,0-.09-.1,1.41,1.41,0,0,0,.64-.9.59.59,0,0,0-.56-.64c-.54-.07-1,.2-1,.61A1,1,0,0,0,.51,22.08Z"/><path class="cls-4" d="M18.53,24.14a.94.94,0,0,0-.81-.86.85.85,0,0,0-.88.74c-.07.44.09.71.47.78A1.06,1.06,0,0,0,18.53,24.14Z"/><path class="cls-4" d="M15.22,39.56a1,1,0,0,0-.7-1.05.93.93,0,0,0-1,.66A.77.77,0,0,0,14,40C14.6,40.15,15.14,40,15.22,39.56Z"/><path class="cls-4" d="M2.85,29.84c-.07.4.34.75,1,.83a.8.8,0,0,0,.73-.62A1.14,1.14,0,0,0,4,29.1,1.11,1.11,0,0,0,2.85,29.84Z"/><path class="cls-4" d="M6.2,61.57c-.07.43.11.77.44.83a1.28,1.28,0,0,0,1.16-.68c.08-.48-.22-.83-.78-.93S6.28,61,6.2,61.57Z"/><path class="cls-4" d="M14.87,57.19a.71.71,0,0,0-.72.61.84.84,0,0,0,.59.93A1.09,1.09,0,0,0,15.81,58C15.86,57.73,15.35,57.27,14.87,57.19Z"/><path class="cls-4" d="M1.8,36.48a.76.76,0,0,0,.53.79.94.94,0,0,0,1-.5,1,1,0,0,0-.63-1.16C2.32,35.54,2,35.91,1.8,36.48Z"/><path class="cls-4" d="M1.12,48.25c.06-.35-.17-.62-.6-.68s-.95.13-1,.54a.86.86,0,0,0,.68,1C.48,49.14,1.07,48.59,1.12,48.25Z"/><path class="cls-4" d="M.49,34.74a1.32,1.32,0,0,0,1.3.46.7.7,0,0,0,.34-.82.6.6,0,0,0-.57-.57C1.1,33.78.43,34.48.49,34.74Z"/><path class="cls-4" d="M20.22,38.15a1,1,0,0,0,.63,1.09.7.7,0,0,0,.81-.5.86.86,0,0,0-.66-1C20.61,37.69,20.3,37.83,20.22,38.15Z"/><path class="cls-4" d="M15.45,43.06c-.07.34.16.58.64.65s.81-.06.87-.44a.77.77,0,0,0-.59-1A1.33,1.33,0,0,0,15.45,43.06Z"/><path class="cls-4" d="M4.51,14.1a.85.85,0,0,0-.5-1,1,1,0,0,0-1.07.52c-.1.36.28.79.82.93A.7.7,0,0,0,4.51,14.1Z"/><path class="cls-4" d="M3,56.44a1,1,0,0,0,.7,1,.55.55,0,0,0,.64-.46.82.82,0,0,0-.53-1A.66.66,0,0,0,3,56.44Z"/><path class="cls-4" d="M8.91,53c.07-.55-.05-.89-.36-.95a1,1,0,0,0-1,.7c-.06.3.36.75.75.79S8.85,53.38,8.91,53Z"/><path class="cls-4" d="M16.19,27.57c0,.49.54.83.74.84a.87.87,0,0,0,.54-1,.67.67,0,0,0-1.28.13Z"/><path class="cls-4" d="M4.91,27a.61.61,0,0,0,.76-.52.69.69,0,0,0-.46-.75c-.28-.05-.81.25-.85.48A.85.85,0,0,0,4.91,27Z"/><path class="cls-4" d="M8.19,38.36A.5.5,0,0,0,7.56,38a.94.94,0,0,0-.56.46c-.16.51.32.64.66.9C8.07,39.1,8.39,38.85,8.19,38.36Z"/><path class="cls-4" d="M5.3,68.64a.66.66,0,0,0,.57.73.61.61,0,0,0,.73-.55.64.64,0,0,0-.53-.68A.61.61,0,0,0,5.3,68.64Z"/><path class="cls-4" d="M9.85,55.69c.29,0,.6,0,.65-.29.06-.52-.13-.85-.45-.91a.67.67,0,0,0-.79.59A.57.57,0,0,0,9.85,55.69Z"/><path class="cls-4" d="M20.54,42.5a.71.71,0,0,0,.58.74.56.56,0,0,0,.63-.47.62.62,0,0,0-.5-.78A.68.68,0,0,0,20.54,42.5Z"/><path class="cls-4" d="M12,61.16a.71.71,0,0,0,.59.74.56.56,0,0,0,.62-.48.6.6,0,0,0-.5-.77A.68.68,0,0,0,12,61.16Z"/><path class="cls-4" d="M11.22,67.85a.66.66,0,0,0,.69-.53.73.73,0,0,0-.55-.7.56.56,0,0,0-.65.44A.67.67,0,0,0,11.22,67.85Z"/><path class="cls-4" d="M11.67,31.93a.52.52,0,0,0,.4.6.66.66,0,0,0,.79-.25.72.72,0,0,0-.29-1A.78.78,0,0,0,11.67,31.93Z"/><path class="cls-4" d="M18.46,59.15a.62.62,0,0,0,.57.65.59.59,0,0,0,.65-.57c.05-.4-.09-.68-.36-.7A1,1,0,0,0,18.46,59.15Z"/><path class="cls-4" d="M15.56,29.56a.72.72,0,0,0-.7.7c.13.12.29.38.52.47s.67-.21.71-.59A.54.54,0,0,0,15.56,29.56Z"/><path class="cls-4" d="M14.54,28.78a.61.61,0,0,0-.5-.69.64.64,0,0,0-.17,1.26A.7.7,0,0,0,14.54,28.78Z"/><path class="cls-4" d="M6.79,35.58A.77.77,0,0,0,6.47,35c-.46-.23-.73.1-1,.48.16.34.32.72.77.69A.54.54,0,0,0,6.79,35.58Z"/><path class="cls-4" d="M9.89,38.41a.66.66,0,0,0-.45-.36.58.58,0,0,0-.66.47c-.1.43.34.7.58.77S10.05,38.87,9.89,38.41Z"/><path class="cls-4" d="M9.37,64a.61.61,0,0,0-.73.45.47.47,0,0,0,.38.66.57.57,0,0,0,.75-.42A.6.6,0,0,0,9.37,64Z"/><path class="cls-4" d="M21.41,23a.54.54,0,0,0,.4.67.61.61,0,0,0,.68-.44.52.52,0,0,0-.39-.67A.63.63,0,0,0,21.41,23Z"/><path class="cls-4" d="M7.89,15.53c-.22.42,0,.7.45,1,.34-.2.72-.31.64-.76a.53.53,0,0,0-.57-.48A.75.75,0,0,0,7.89,15.53Z"/><path class="cls-4" d="M17.44,53.05a.53.53,0,0,0,.38.61c.24.09.76-.32.7-.56a.65.65,0,0,0-.43-.44A.48.48,0,0,0,17.44,53.05Z"/><path class="cls-4" d="M14,36.54A.49.49,0,0,0,14,37c.21.34.53.31.87.11,0-.32.11-.67-.29-.8A.65.65,0,0,0,14,36.54Z"/><path class="cls-4" d="M8.91,23.27c-.07.36.41.52.62.63s.5-.09.56-.4S10,22.93,9.71,23,9,22.9,8.91,23.27Z"/><path class="cls-4" d="M21,31.44c0,.22.15.77.37.79s.5-.44.6-.65-.19-.51-.47-.52S20.94,31.16,21,31.44Z"/><path class="cls-4" d="M16.88,49.83a.49.49,0,0,0-.27-.4.63.63,0,0,0-.57.09c-.3.3-.06.57.15.82C16.57,50.34,16.86,50.23,16.88,49.83Z"/><path class="cls-4" d="M16.19,54.84c-.05.3.13.57.41.53s.44-.06.52-.24-.23-.67-.54-.68S16.23,54.63,16.19,54.84Z"/><path class="cls-4" d="M23,43.11c0,.22.16.75.39.79s.47-.49.53-.7-.1-.45-.41-.45S23,42.82,23,43.11Z"/><path class="cls-4" d="M12.54,18.25c0,.19.16.42.23.57.44.08.59-.13.64-.36s0-.54-.32-.54S12.57,18.1,12.54,18.25Z"/><path class="cls-4" d="M27.07,46.84c0,.2.12.7.29.72s.49-.34.59-.52-.07-.48-.39-.56A.36.36,0,0,0,27.07,46.84Z"/><path class="cls-4" d="M18.69,44.45c0,.14.18.56.35.58s.49-.39.47-.48S19.26,44,19.1,44A.62.62,0,0,0,18.69,44.45Z"/><path class="cls-4" d="M17.38,33.34c0,.23.48.45.66.47s.33-.23.38-.4A.3.3,0,0,0,18.1,33C17.91,33,17.41,33.11,17.38,33.34Z"/><path class="cls-4" d="M27.11,53.75c0,.17.08.47.21.51s.42-.14.48-.28-.06-.58-.22-.61S27.12,53.65,27.11,53.75Z"/><path class="cls-4" d="M15,66.84c-.07.17.14.85.45.91s.63-.61.67-.87a.67.67,0,0,0-.46-.65C15.38,66.17,15.11,66.59,15,66.84Z"/><path class="cls-4" d="M21.69,59.22c0,.09.08.43.18.44s.3-.23.35-.35S22.1,59,22,59A.48.48,0,0,0,21.69,59.22Z"/><path class="cls-4" d="M19.16,57.43c0,.15.21.31.29.31s.4,0,.41-.14a.41.41,0,0,0-.24-.35C19.52,57.21,19.17,57.27,19.16,57.43Z"/><path class="cls-4" d="M18.62,63.46c0,.19.21.35.32.37a.41.41,0,0,0,.32-.22.39.39,0,0,0-.19-.33C19,63.26,18.63,63.28,18.62,63.46Z"/><path class="cls-4" d="M27,41.88c0-.15-.13-.3-.23-.33s-.44,0-.46.18.23.35.34.36S27,42,27,41.88Z"/><path class="cls-4" d="M30.41,39.27c.06,0,.34,0,.37-.19s-.24-.29-.35-.32a.31.31,0,0,0-.29.19C30.12,39.07,30.29,39.21,30.41,39.27Z"/><path class="cls-4" d="M20.26,60a.19.19,0,0,0,.16.19c.06,0,.16-.11.16-.16s0-.16-.11-.18A.18.18,0,0,0,20.26,60Z"/><path class="cls-4" d="M22.27,40.64c0,.11.11.17.16.18s.16-.1.16-.15,0-.17-.11-.18A.17.17,0,0,0,22.27,40.64Z"/><path class="cls-4" d="M1.63,67.71s0-.16-.11-.17a.18.18,0,0,0-.22.15c0,.11.11.17.17.18S1.63,67.77,1.63,67.71Z"/><path class="cls-4" d="M19.06,17.88a.33.33,0,0,0,.18.44c.23.08.3-.24.34-.35s-.12-.28-.17-.28A.45.45,0,0,0,19.06,17.88Z"/><path class="cls-4" d="M21.57,50.39a.34.34,0,0,0,.18.45c.23.07.3-.24.34-.36s-.12-.27-.17-.27A.48.48,0,0,0,21.57,50.39Z"/><path class="cls-4" d="M14.93,19.68a.38.38,0,0,0,.28.32c.14,0,.4,0,.41-.14a.43.43,0,0,0-.23-.36C15.29,19.47,14.93,19.53,14.93,19.68Z"/><path class="cls-4" d="M17.31,19.52a.34.34,0,0,0,.34.39c.21,0,.33-.22.34-.32a.32.32,0,0,0-.24-.38A.34.34,0,0,0,17.31,19.52Z"/><path class="cls-4" d="M3.07,43.38a1.72,1.72,0,0,0,.49-1.76c-.23-.42-.81-.3-.89-.4s.27-.81,0-1.32A1.43,1.43,0,0,0,1,39.49a1.4,1.4,0,0,0-.76.71,1.18,1.18,0,0,0,.3,1.26c.36.26,1,.22,1.12.38s-.34.82,0,1.31A1,1,0,0,0,3.07,43.38Z"/><path class="cls-4" d="M3.64,52.66c-.18-.56-.92-.54-1-.69s.5-.92.25-1.61A1.76,1.76,0,0,0,1,49.5,1.72,1.72,0,0,0,0,50.2a1.58,1.58,0,0,0-.2.87.54.54,0,0,0-.41.45.71.71,0,0,0,.5.73A.52.52,0,0,0,.34,52c.41.22.92.32,1,.48s-.59.93-.28,1.6a1.26,1.26,0,0,0,1.63.59A2.1,2.1,0,0,0,3.64,52.66Z"/><path class="cls-4" d="M15.44,45.53c.24-.55.13-1.23-.4-1.27a2,2,0,0,0-1.33.47c-.33.2-.19.68-.62.54s-1.37-.32-1.53.51a1,1,0,0,0,.66,1.06h0a1.14,1.14,0,0,0-.58.87,1.19,1.19,0,0,0,1,1.16,1,1,0,0,0,1.06-.78A1.52,1.52,0,0,0,13,46.84a.63.63,0,0,0,.38-.29c.16-.32.76.26,1-.17S15.19,46.08,15.44,45.53Z"/><path class="cls-4" d="M2.23,47.14c.72.37,1,0,1.49.3s.74.12,1.15-.27L5.05,47c0,.22.19.41.38.39A.65.65,0,0,0,5.87,47a.35.35,0,0,0-.36-.51H5.43a.66.66,0,0,0-.13-.85c-.56-.55-1-.25-1.14-.07s-.64.24-.55,0,0-.55-.67-.79a1,1,0,0,0-1.4.45A1.45,1.45,0,0,0,2.23,47.14Z"/><path class="cls-4" d="M6.25,60.2a.67.67,0,0,0,.69-.53A.64.64,0,0,0,6.38,59a.62.62,0,0,0-.62.6A.51.51,0,0,0,6.25,60.2Z"/><path class="cls-4" d="M8,74.27a1.52,1.52,0,0,0,2.09-.88c.14-.34.3-.36.55-.43a.73.73,0,0,0,.43-.92c-.13-.36-.39-.37-.69-.27a1.65,1.65,0,0,1-.67.14c-.5-.09-1-.25-1.5-.39C8,70.28,7.71,70,6.67,70.44a.83.83,0,0,0-.37,1.33,7,7,0,0,0,1.19,1A1.44,1.44,0,0,0,8,74.27Z"/><path class="cls-4" d="M38.23,62.92a1.32,1.32,0,0,0-1.12,1.36,1.4,1.4,0,0,0,1.37,1c.6-.06,1-.7.87-1.49A1,1,0,0,0,38.23,62.92Z"/><path class="cls-4" d="M27.51,56.8a1.2,1.2,0,0,0-1,1.29,1.21,1.21,0,0,0,1.34,1,1,1,0,0,0,.83-1.31C28.58,57.05,28.12,56.68,27.51,56.8Z"/><path class="cls-4" d="M5.05,59.79c.28,0,.67.13.79-.21a1.45,1.45,0,0,1,.9-.83A.49.49,0,0,0,7,58c-.17-.33-.65-.53-.88-.27A1,1,0,0,1,5,58.08a1,1,0,0,0-.84.74A1.29,1.29,0,0,0,5.05,59.79Z"/><path class="cls-4" d="M2,75.62c.62-.08,1.14-.59,1.09-1.08a1.5,1.5,0,0,0-1.37-1.13,1.16,1.16,0,0,0-.9,1.25A1.14,1.14,0,0,0,2,75.62Z"/><path class="cls-4" d="M32.29,41.44a1.12,1.12,0,0,0,1.33,1,.89.89,0,0,0,.81-1c-.11-.63-.86-1.24-1.36-1.11A1,1,0,0,0,32.29,41.44Z"/><path class="cls-4" d="M18.83,85.42A1.07,1.07,0,0,0,18,86.75a1.08,1.08,0,0,0,1.19.74,1.17,1.17,0,0,0,.7-1.44A.82.82,0,0,0,18.83,85.42Z"/><path class="cls-4" d="M16.57,67.57c-.33-.76-.51-.77-1-.14a2.69,2.69,0,0,0-1,.08,1.56,1.56,0,0,0-.59.72c-.16.33.12.69.59.74.28,0,.67,0,.83-.12a2.39,2.39,0,0,0,.38-.93C16.06,68,16.42,68,16.57,67.57Z"/><path class="cls-4" d="M30.36,74.12A1,1,0,0,0,29.11,74a.82.82,0,0,0-.29.58c0,.64.33,1,1.1,1.21a4,4,0,0,0,.52-.57A.89.89,0,0,0,30.36,74.12Z"/><path class="cls-4" d="M40.74,64.15A1.26,1.26,0,0,0,42,65a.89.89,0,0,0,.54-1,.88.88,0,0,0-1.1-.77C41,63.37,40.65,63.79,40.74,64.15Z"/><path class="cls-4" d="M38.16,55.32A.73.73,0,0,0,39,56c.51-.08,1-.59.87-1a1.08,1.08,0,0,0-1.08-.79C38.42,54.26,38.1,54.85,38.16,55.32Z"/><path class="cls-4" d="M1.16,46.84a.81.81,0,0,0-.72,1c.08.44.49.81.81.73a1.18,1.18,0,0,0,.81-1.24A.74.74,0,0,0,1.16,46.84Z"/><path class="cls-4" d="M12.21,80c-.08-.42-.45-.6-1-.5s-.75.38-.67.73.77.91,1,.87A.86.86,0,0,0,12.21,80Z"/><path class="cls-4" d="M32.38,72.38c-.07-.52-.32-.69-.91-.59s-.82.37-.75.75a1.38,1.38,0,0,0,1.07.82A.78.78,0,0,0,32.38,72.38Z"/><path class="cls-4" d="M2.45,58c.13.64.41.9.88.81a1,1,0,0,0,.61-1,1.1,1.1,0,0,0-1.07-.55A.56.56,0,0,0,2.45,58Z"/><path class="cls-4" d="M39.05,74.82c.09.39.34.62.64.58s.91-.7.85-1-.42-.64-1-.53S38.93,74.28,39.05,74.82Z"/><path class="cls-4" d="M40.39,70.35c0,.38.57.62,1.1.52.33-.05.43-.28.4-.58s-.45-.82-.78-.77S40.34,70.05,40.39,70.35Z"/><path class="cls-4" d="M15.43,74.74a.64.64,0,0,0,.78.5.77.77,0,0,0,.53-.8,1,1,0,0,0-.92-.51A.87.87,0,0,0,15.43,74.74Z"/><path class="cls-4" d="M2.84,56.3a.61.61,0,0,0,.2-.71.7.7,0,0,0-.73-.49c-.47.12-.52.53-.6.9C2.25,56.47,2.53,56.55,2.84,56.3Z"/><path class="cls-4" d="M25.47,51.15a.69.69,0,0,0-.78-.52.67.67,0,0,0-.51.77.72.72,0,0,0,.81.47A.63.63,0,0,0,25.47,51.15Z"/><path class="cls-4" d="M28.58,44.57a.6.6,0,0,0-.48.71.61.61,0,0,0,.66.56.63.63,0,0,0,.54-.67A.69.69,0,0,0,28.58,44.57Z"/><path class="cls-4" d="M-.26,66.29c.4,0,.78.2,1-.22a.62.62,0,0,0-.19-.79.47.47,0,0,0-.65,0C-.49,65.53-.41,65.88-.26,66.29Z"/><path class="cls-4" d="M28.44,42.27a.71.71,0,0,0,.24.52c.27.23.53.12,1-.35-.13-.32-.16-.75-.67-.72A.57.57,0,0,0,28.44,42.27Z"/><path class="cls-4" d="M15.91,45.5a.63.63,0,0,0-.55.68.67.67,0,0,0,.71.52.53.53,0,0,0,.48-.63A.58.58,0,0,0,15.91,45.5Z"/><path class="cls-4" d="M2.68,82.78A.65.65,0,0,0,2,82.29a.76.76,0,0,0-.58.68.61.61,0,0,0,.65.48A.67.67,0,0,0,2.68,82.78Z"/><path class="cls-4" d="M.58,55a.59.59,0,0,0,.5-.23.92.92,0,0,0,0-.73c-.26-.4-.6-.12-1,0C.07,54.48.12,54.87.58,55Z"/><path class="cls-4" d="M36,46.15c.16.22,1,.1,1-.26a.62.62,0,0,0-.45-.65C36.23,45.21,35.84,45.94,36,46.15Z"/><path class="cls-4" d="M40.23,48.81c.26.1.87-.24.84-.55s-.21-.72-.74-.54S40,48.72,40.23,48.81Z"/><path class="cls-4" d="M12.15,70.57A.76.76,0,0,0,11.3,70a.72.72,0,0,0-.53.94.63.63,0,0,0,.79.41C11.94,71.29,12.27,70.88,12.15,70.57Z"/><path class="cls-4" d="M5.15,36.56A.64.64,0,0,0,5,36a.57.57,0,0,0-.78.31c-.07.2.21.61.61.56A.52.52,0,0,0,5.15,36.56Z"/><path class="cls-4" d="M11.32,44a.57.57,0,0,0-.7-.19c-.28.18-.14.94.12,1S11.49,44.25,11.32,44Z"/><path class="cls-4" d="M9.73,46.33c-.1-.48-.57-.89-.94-.82a1.17,1.17,0,0,0-.72,1.13.8.8,0,0,0,1,.72A.81.81,0,0,0,9.73,46.33Z"/><path class="cls-4" d="M15.85,58.48c.17.26.81.11,1,0A.48.48,0,0,0,17,58a.6.6,0,0,0-.54-.41C16.1,57.59,15.68,58.23,15.85,58.48Z"/><path class="cls-4" d="M5.05,44.6c-.2,0-.35.43-.37.6s.34.53.55.4a.62.62,0,0,0,.26-.48C5.47,45,5.25,44.59,5.05,44.6Z"/><path class="cls-4" d="M38.6,43.21a.38.38,0,0,0,.48.4c.16,0,.57-.23.49-.59s-.5-.28-.64-.24A.61.61,0,0,0,38.6,43.21Z"/><path class="cls-4" d="M34.65,38.14a.47.47,0,0,0,.46,0,.49.49,0,0,0,0-.47.53.53,0,0,0-.55-.1C34.44,37.64,34.56,38.05,34.65,38.14Z"/><path class="cls-4" d="M47.4,64.65c0,.15.22.24.33.23s.4-.17.38-.32-.34-.25-.44-.23S47.38,64.49,47.4,64.65Z"/><path class="cls-4" d="M35,47.82a.41.41,0,0,0,.4-.12c.07-.12-.07-.32-.17-.39a.45.45,0,0,0-.48.11C34.71,47.57,34.94,47.8,35,47.82Z"/><path class="cls-4" d="M11.27,35.53c.17.2.35.51.66.49s.29-.41.24-.52-.43-.71-.66-.68S11.21,35.46,11.27,35.53Z"/><path class="cls-4" d="M44,49.2c.06.25.33.19.44.17A.38.38,0,0,0,44.6,49a.41.41,0,0,0-.33-.23C44.17,48.83,43.91,49,44,49.2Z"/><path class="cls-4" d="M40,79.7c.11-.07.26-.16.22-.34a.21.21,0,0,0-.28-.18c-.11,0-.34.14-.33.35S39.94,79.73,40,79.7Z"/><path class="cls-4" d="M1.31,63.36A1.12,1.12,0,0,0,1.21,62c-.29-.33-1-.12-1.46.28a1.12,1.12,0,0,0,0,1.43A1.13,1.13,0,0,0,1.31,63.36Z"/><path class="cls-4" d="M25.86,64.79a1.77,1.77,0,0,0,.89-1.85,1.79,1.79,0,0,0-.68-1.1,1.45,1.45,0,0,0-1.61.06c-.4.37-.52,1.21-.73,1.27s-.92-.61-1.59-.31a1.12,1.12,0,0,0-.68.92,1.46,1.46,0,0,0,0-.36.73.73,0,0,0-.95-.6,1,1,0,0,0-.82,1.12,1,1,0,0,0,1.14.78.91.91,0,0,0,.65-.83,1.68,1.68,0,0,0,.07.59,2.13,2.13,0,0,0,2,1c.56-.18.55-.91.7-1S25.17,65,25.86,64.79Z"/><path class="cls-4" d="M33.24,60.25c0-.19.24-.56,0-.8s-1.21.13-1.32.26-.25.61-.58.47-.55-.53-.92-.46-1.24.18-1.39.76.37.56.56.84a.78.78,0,0,0,1,.26c.39-.21.66-.6.88-.63s.49,0,.5.37.38.74,1.08.69,1.14-.87.82-1.27S33.23,60.43,33.24,60.25Z"/><path class="cls-4" d="M27.43,47.36a1,1,0,0,1-.18-.47.79.79,0,0,0-1-.85.37.37,0,0,0,0-.23.7.7,0,0,0-.81-.36.73.73,0,0,0-.64.8.61.61,0,0,0,.75.43h0a1.07,1.07,0,0,0,.08.59,1.17,1.17,0,0,1,.11.84,1.27,1.27,0,0,0,.39,1.17,1.07,1.07,0,0,0,1.18.23l.11,0a1,1,0,0,0-.18.75c.08.38.5.57,1,.47s.8-.48.75-.8A1.14,1.14,0,0,0,28,49l-.17.05a1.09,1.09,0,0,0,.11-.5A1.84,1.84,0,0,0,27.43,47.36Z"/><path class="cls-4" d="M35.85,69.79a.45.45,0,0,0,.52.46c.5,0,.83-.16.85-.41a1,1,0,0,0-.72-.76C36.25,69.06,35.88,69.48,35.85,69.79Z"/><path class="cls-4" d="M33.3,84c0,.11.08.31.28.29a.22.22,0,0,0,.21-.26c0-.12-.1-.41-.28-.4S33.28,83.91,33.3,84Z"/><path class="cls-4" d="M22.32,66.62a.79.79,0,0,0-.5-.73c-.29-.16-.48.07-.69.21a1.07,1.07,0,0,0-.37,1.17l.91.35-.3.24c-.43.33-.68.25-.73-.3a1,1,0,0,0-.93-1,1,1,0,0,0-1.17.52.84.84,0,0,0,.21,1.22,2.41,2.41,0,0,0,.95.43c.28.06.5.13.59.41s.43.43.8.28c-.14.92.18,1.43.93,1.64s.91-.09,1.18-.83a4.78,4.78,0,0,0,.95-.39.69.69,0,0,0,.2-.95c-.28-.35-.61-.67-.94-1,.15-.59.13-.63-.53-.83-.25.08-.29.63-.7.35A6.26,6.26,0,0,0,22.32,66.62Z"/><path class="cls-4" d="M11,78.42c1.19.43,1.54.3,2.13-.81l.06-.07h0a1.46,1.46,0,0,0-.12.48.38.38,0,0,0,.44.44c.33,0,.55-.24.5-.51a1.29,1.29,0,0,0-.34-.51.53.53,0,0,0,.42-.62.63.63,0,0,0-.93-.43c-.38.19-.6,0-.91-.15.37-.87.1-1.38-.71-1.48l-.24,0c-.56,0-.78.27-.71.81s.15.91.88,1a3.08,3.08,0,0,1-.54.38.58.58,0,0,0-.46.66C10.55,78,10.64,78.28,11,78.42Z"/><path class="cls-4" d="M19.71,74.81a.82.82,0,0,0,1.34-.29,5.39,5.39,0,0,0,.23-.71c.24.17.47.25.54.4a.78.78,0,0,0,1.05.47,1.34,1.34,0,0,1,.4,0c.44,0,.71-.15.72-.44s-.29-.6-.79-.55c-.05,0-.1.07-.15.07-.26,0-.41-.1-.33-.39,0-.1.11-.19.14-.29A1.08,1.08,0,0,0,22.41,72a.88.88,0,0,0-1.18,0,1.57,1.57,0,0,0-.61,1.39,3.24,3.24,0,0,0-.74.14C19.2,73.79,19.13,74.36,19.71,74.81Z"/><path class="cls-4" d="M18,72.52c-.16-.43-.24-.94-.84-1.08a1,1,0,0,1-.72-.56,1,1,0,0,0-1.13-.41,2.38,2.38,0,0,0-.71,1.72c.36.35.82.81,1.31,1.25.06,0,.27,0,.37,0a1.11,1.11,0,0,1,.91-.13C17.62,73.36,18.1,72.9,18,72.52Z"/><path class="cls-4" d="M13.35,50.5a.91.91,0,0,0,0-1.12,4.5,4.5,0,0,0-.25-.41,2,2,0,0,0,.38-1.06l.28-.08a1.11,1.11,0,0,0,.43-1.36,1.14,1.14,0,0,0-1.56-.18,1.25,1.25,0,0,0-.43.81l-.16,0c-.65.07-.81.53-.87,1.08-.35,0-.74-.15-.88.34a.56.56,0,0,0,.27.69c.44.25.67-.1.91-.39l.59.27-.32.77a3.8,3.8,0,0,0,.42.52A1.25,1.25,0,0,0,13.35,50.5Z"/><path class="cls-4" d="M22.91,58.68c-.15.3-.13.62.19.75a1.62,1.62,0,0,1,.69.63,1.18,1.18,0,0,0,1.74.3,1.92,1.92,0,0,1,.35-.18c.47.07.66-.12.76-.38s-.07-.51-.3-.68-.49-.39-.75-.57-.56-.42-.95-.23a.48.48,0,0,1-.35,0C23.5,57.9,23.27,58,22.91,58.68Z"/><path class="cls-4" d="M30.08,85.33a1.39,1.39,0,0,0-1-.91.67.67,0,0,0-.53.1,1.12,1.12,0,0,0-.35,1.53c.06.12.13.24.2.36-.23.12-.46.21-.66.34a.58.58,0,0,0-.25.88.9.9,0,0,0,.89.57.81.81,0,0,0,.75-.64,4,4,0,0,0,.11-.8,2.9,2.9,0,0,0,.34-.19A1.22,1.22,0,0,0,30.08,85.33Z"/><path class="cls-4" d="M4.67,67.23c.29.33.06.57,0,.86a1.9,1.9,0,0,0,.17.83,1.34,1.34,0,0,0,.32.44,3.78,3.78,0,0,0,.41.39c.46.41.86.45,1.22.13a1,1,0,0,0,.11-1.35,10.39,10.39,0,0,1-1-1.51c-.21-.44-.78-.8-1.07-.64A.73.73,0,0,0,4.67,67.23Z"/><path class="cls-4" d="M7.64,62.2c.3,0,.58-.16.86.21-.06.17-.21.37-.17.52a1.14,1.14,0,0,0,.42.62c.26.15.5,0,.64-.32l.34-.6a1.7,1.7,0,0,0-.84-1.87.22.22,0,0,0-.16,0c-.41.33-.74,0-1.1-.12a.62.62,0,0,0-.91.48s0,.09,0,.13a.48.48,0,0,0-.29,0,2.44,2.44,0,0,0-.64.29v0l.14.88a4.26,4.26,0,0,0,.58,0A.63.63,0,0,0,7,62.06.86.86,0,0,0,7.64,62.2Z"/><path class="cls-4" d="M33.53,47.68a5.42,5.42,0,0,0-1.25.3,1.22,1.22,0,0,0-.56,1.31c.07.27.23.46.5.43a3.41,3.41,0,0,0,1.92-.63,1.21,1.21,0,0,0,.2-.26A.78.78,0,0,0,33.53,47.68Z"/><path class="cls-4" d="M8.16,44.17A.77.77,0,0,0,9,43,4.61,4.61,0,0,0,8.32,42a1.21,1.21,0,0,0-1.41-.13c-.24.16-.6.66-.19,1,.93.25.53.8,1.13,1.2A1.08,1.08,0,0,0,8.16,44.17Z"/><path class="cls-4" d="M12.5,64.94a1.66,1.66,0,0,1,0-.32c0-.48-.23-.66-.61-.76a.81.81,0,0,0-.86.37c-.64.71-.63,1.14,0,1.7.5.41,1,.86,1.45,1.28-.76,1.09-.74,1.24.21,1.62a1,1,0,0,0,.36-1.41C14.23,66.28,14,65.41,12.5,64.94Z"/><path class="cls-4" d="M14.42,88c0-.49,0-1,0-1.48.91-.1,1-.18.72-.93-.45-.14-.72,0-.88.5-1.12-.12-1.46.44-1,1.55a.79.79,0,0,1-.14.18c-.26.21-.22.46-.1.73a.59.59,0,0,0,.59.32C14.24,88.83,14.46,88.61,14.42,88Z"/><path class="cls-4" d="M19.62,83.19A1,1,0,0,0,20.39,82,1.08,1.08,0,0,0,19,81a1.19,1.19,0,0,0-.91,1.4A1.43,1.43,0,0,0,19.62,83.19Z"/><path class="cls-4" d="M28.71,36a1.16,1.16,0,0,0,1.37.84A1.3,1.3,0,0,0,31,35.51a1.18,1.18,0,0,0-1.25-1A1.71,1.71,0,0,0,28.71,36Z"/><path class="cls-4" d="M8.66,56.91A1.26,1.26,0,0,0,10.13,58c.65-.1,1-.6.87-1.36s-.63-1.39-1.34-1.28A1.3,1.3,0,0,0,8.66,56.91Z"/><path class="cls-4" d="M6.16,52.56A1.37,1.37,0,0,0,7,51.37a.94.94,0,0,0-1-.68,1,1,0,0,0-.81,1A1,1,0,0,0,6.16,52.56Z"/><path class="cls-4" d="M29.09,66.3a1.17,1.17,0,0,0-1,1.39.91.91,0,0,0,.89.79.66.66,0,0,0,0,.14,1.17,1.17,0,0,0,1.29.74,1.14,1.14,0,0,0,0-2.22A1.2,1.2,0,0,0,29.09,66.3Z"/><path class="cls-4" d="M21.93,79.1a1.1,1.1,0,0,0-1.17-1,1.74,1.74,0,0,0-1.1,1.46A1.12,1.12,0,0,0,21,80.4,1.32,1.32,0,0,0,21.93,79.1Z"/><path class="cls-4" d="M17.72,61.14a3.68,3.68,0,0,0,.18-.53.89.89,0,0,0-.36-1,1.27,1.27,0,0,0-1.36-.14.9.9,0,0,0-.26,1.41,1.32,1.32,0,0,0,1.77.37Z"/><path class="cls-4" d="M1.89,72.62a.65.65,0,0,0,.79-.22c.07-.1.13-.29.08-.37a8.12,8.12,0,0,0-.52-.78c.2-.72,0-1.3-.38-1.42a1.24,1.24,0,0,0-1.27.77c-.15.49.05.71,1,1.05C1.53,72,1.38,72.44,1.89,72.62Z"/><path class="cls-4" d="M8.13,53.23a1.09,1.09,0,0,0-.87,1.39,1.11,1.11,0,0,0,1.24.79c.62-.08.91-.54.79-1.25S8.78,53.12,8.13,53.23Z"/><path class="cls-4" d="M25.08,66a1.13,1.13,0,0,0-.95,1.12,1.5,1.5,0,0,0,1.46,1,.82.82,0,0,0,.5-.36.7.7,0,0,0,.62.16.6.6,0,0,0,.48-.7.7.7,0,0,0-.82-.46l-.11,0A1.13,1.13,0,0,0,25.08,66Z"/><path class="cls-4" d="M11.66,82.81a.9.9,0,0,0-1.08-.8,1.21,1.21,0,0,0-.92,1.4,1.24,1.24,0,0,0,1.26.79A1.08,1.08,0,0,0,11.66,82.81Z"/><path class="cls-4" d="M27.52,69.66a1.29,1.29,0,0,0-.73,1.5.86.86,0,0,0,1.1.65c.85-.25.9-.52.84-1.37A1,1,0,0,0,27.52,69.66Z"/><path class="cls-4" d="M39.94,67.17c0-.5-.75-.89-1.4-.78a.8.8,0,0,0-.7,1,1,1,0,0,0,1.22.86A1,1,0,0,0,39.94,67.17Z"/><path class="cls-4" d="M2.5,59.79a12.52,12.52,0,0,0-.72-1.08.54.54,0,0,0-.8-.08.58.58,0,0,0-.14.79,1.62,1.62,0,0,1,.21.51.88.88,0,0,0,.87.77C2.38,60.73,2.62,60.46,2.5,59.79Z"/><path class="cls-4" d="M25.79,83.1c-.48.05-1,.54-1,.9a1.08,1.08,0,0,0,1.07.91,1.1,1.1,0,0,0,.81-1.22A.76.76,0,0,0,25.79,83.1Z"/><path class="cls-4" d="M31.09,64a.84.84,0,0,0,1.05.45c.57-.14.76-.45.64-1.07s-.51-.85-.86-.77A1.31,1.31,0,0,0,31.09,64Z"/><path class="cls-4" d="M10.53,66.28a1,1,0,0,0-1-.73c-.3,0-.66.41-.57.67a1.69,1.69,0,0,0,.62,1.07c.56.35.63.36,1.14-.19C10.65,66.79,10.58,66.54,10.53,66.28Z"/><path class="cls-4" d="M11,38.53c-.1-.51-.49-.83-.87-.74A1.2,1.2,0,0,0,9.34,39c.05.36.6.63,1.05.52A.8.8,0,0,0,11,38.53Z"/><path class="cls-4" d="M17,62.94c0,.13.12.35.26.44a1.22,1.22,0,0,0,1.33-.19.58.58,0,0,0,.14-.78,1,1,0,0,0-1.12-.55.9.9,0,0,0-.23.08l0,.06A4.87,4.87,0,0,0,17,62.94Z"/><path class="cls-4" d="M.28,86.44c.21-.52-.09-1.24-.55-1.31a.89.89,0,0,0-.94.48.69.69,0,0,0,.16.94c.23.21.58.75,1,.6S.19,86.64.28,86.44Z"/><path class="cls-4" d="M14.94,55.3a1.21,1.21,0,0,0,1.26.88.77.77,0,0,0,.48-.82.83.83,0,0,0-1-.83C15.27,54.6,14.9,55,14.94,55.3Z"/><path class="cls-4" d="M32.42,52.17a.76.76,0,0,0-1-.63c-.5.1-.78.44-.69.81a1.22,1.22,0,0,0,1.23.83A.9.9,0,0,0,32.42,52.17Z"/><path class="cls-4" d="M22.09,45.3a1.25,1.25,0,0,0-.75,1.28.7.7,0,0,0,.89.54.77.77,0,0,0,.7-1C22.83,45.6,22.43,45.22,22.09,45.3Z"/><path class="cls-4" d="M6.11,76.42c-.11-.59-.37-.84-.82-.78a1.06,1.06,0,0,0-.83,1,1.12,1.12,0,0,0,1.1.76A.88.88,0,0,0,6.11,76.42Z"/><path class="cls-4" d="M36.4,72.82a.85.85,0,0,0-.57.85c.08.38.8,1,1.11.88a1.05,1.05,0,0,0,.54-1.21C37.38,72.87,37,72.68,36.4,72.82Z"/><path class="cls-4" d="M22.29,87.12a1,1,0,0,0,1,.71c.45,0,.65-.37.58-1-.05-.4-.46-.83-.76-.8A1.07,1.07,0,0,0,22.29,87.12Z"/><path class="cls-4" d="M15.14,81.08c.1.51.59.94,1,.87s.71-.86.61-1.27a.85.85,0,0,0-.82-.51A.83.83,0,0,0,15.14,81.08Z"/><path class="cls-4" d="M6.83,65.23c0,.38.56.65,1.1.56s.67-.36.56-1a.74.74,0,0,0-.86-.63A1.46,1.46,0,0,0,6.83,65.23Z"/><path class="cls-4" d="M3.44,50.44a1.14,1.14,0,0,0-1.13-.71,1.06,1.06,0,0,0-.62,1,.77.77,0,0,0,.73.6C3.07,51.24,3.51,50.85,3.44,50.44Z"/><path class="cls-4" d="M23.35,82a.58.58,0,0,0,.09-.62c-.16-.39-.54-.35-.93-.34-.15.35-.4.71,0,1l.12.06a1.37,1.37,0,0,0-.31,1.06.59.59,0,0,0,.74.42c.53-.11.89-.52.79-.92A1,1,0,0,0,23.35,82Z"/><path class="cls-4" d="M5.66,86a.92.92,0,0,0,1,.55.84.84,0,0,0,.59-1C7.21,85.15,7,85,6.59,85,6.05,85.09,5.57,85.61,5.66,86Z"/><path class="cls-4" d="M3.7,70.37a1,1,0,0,0,1,.76.9.9,0,0,0,.7-.94.77.77,0,0,0-.7-.64C4.1,69.61,3.66,70,3.7,70.37Z"/><path class="cls-4" d="M18.59,75.48c-.07-.4-.57-.59-1.2-.45a.78.78,0,0,0-.48.82,1.11,1.11,0,0,0,.89.7A1.13,1.13,0,0,0,18.59,75.48Z"/><path class="cls-4" d="M5,46.62c-.08-.43-.35-.68-.69-.64s-.92.7-.86,1c.07.48.47.72,1,.62S5.09,47.17,5,46.62Z"/><path class="cls-4" d="M17.39,68.87a.74.74,0,0,0-.75-.57c-.38,0-.81.48-.78.8s.58,1,1,.88S17.44,69.46,17.39,68.87Z"/><path class="cls-4" d="M39.57,60.29a1.09,1.09,0,0,0-1.07-.68,1,1,0,0,0-.59,1,.77.77,0,0,0,.72.54C39.23,61.09,39.65,60.69,39.57,60.29Z"/><path class="cls-4" d="M14.16,57.54c.06.35.37.52.8.44s.85-.44.76-.84a.87.87,0,0,0-1-.72A1.34,1.34,0,0,0,14.16,57.54Z"/><path class="cls-4" d="M27.28,42.57c0-.38-.46-.61-1-.54s-.67.34-.6.69.63.88.92.85A.82.82,0,0,0,27.28,42.57Z"/><path class="cls-4" d="M35.33,72.25c-.14-.61-.49-1-.87-.87a1.07,1.07,0,0,0-.61,1.11,1.05,1.05,0,0,0,1,.51A.71.71,0,0,0,35.33,72.25Z"/><path class="cls-4" d="M25.25,52c-.64.11-1,.45-.95.87a1.09,1.09,0,0,0,.95.7c.33-.05.67-.68.61-1.11A.5.5,0,0,0,25.25,52Z"/><path class="cls-4" d="M19.2,70.08a1.32,1.32,0,0,0-1.37,0,.71.71,0,0,0-.06.89.61.61,0,0,0,.73.35C18.94,71.19,19.34,70.3,19.2,70.08Z"/><path class="cls-4" d="M2.34,67.14c0-.34-.34-.48-.82-.4s-.75.33-.68.71.47.82.88.72A1.33,1.33,0,0,0,2.34,67.14Z"/><path class="cls-4" d="M22.2,90.9c0,.4.45.8.79.76a1,1,0,0,0,.84-.85c0-.38-.52-.66-1.08-.61A.71.71,0,0,0,22.2,90.9Z"/><path class="cls-4" d="M9.73,50.41a1,1,0,0,0-1-.67.53.53,0,0,0-.45.65.82.82,0,0,0,.81.73A.68.68,0,0,0,9.73,50.41Z"/><path class="cls-4" d="M5.24,55.59c.11.55.34.83.65.79a1,1,0,0,0,.68-1c0-.3-.59-.59-1-.5S5.17,55.23,5.24,55.59Z"/><path class="cls-4" d="M6.74,82a.92.92,0,0,0-1-.55.88.88,0,0,0-.2,1.09.61.61,0,0,0,.8.17A.58.58,0,0,0,6.74,82Z"/><path class="cls-4" d="M17.59,78.9a.6.6,0,0,0-.54.74.67.67,0,0,0,.67.55c.29,0,.69-.5.65-.73A.81.81,0,0,0,17.59,78.9Z"/><path class="cls-4" d="M10.74,69.19a.5.5,0,0,0,.71.12,1,1,0,0,0,.38-.62c0-.54-.52-.5-.92-.63C10.61,68.46,10.4,68.8,10.74,69.19Z"/><path class="cls-4" d="M40.75,73c0,.29.52.67.75.62a.89.89,0,0,0,.55-.88.62.62,0,0,0-.75-.43A.68.68,0,0,0,40.75,73Z"/><path class="cls-4" d="M15,42.69a.74.74,0,0,0,.43-.84.65.65,0,0,0-.76-.42.58.58,0,0,0-.42.74A.61.61,0,0,0,15,42.69Z"/><path class="cls-4" d="M3.5,39.65a.65.65,0,0,0-.78-.5.61.61,0,0,0-.5.76.64.64,0,0,0,.72.47A.61.61,0,0,0,3.5,39.65Z"/><path class="cls-4" d="M43.12,61a.66.66,0,1,0,1.3,0c-.05-.29-.51-.53-1.06-.46C43.3,60.68,43.12,60.86,43.12,61Z"/><path class="cls-4" d="M3.47,53.38c-.27.09-.57.19-.52.48.11.52.41.77.73.71a.66.66,0,0,0,.55-.81A.57.57,0,0,0,3.47,53.38Z"/><path class="cls-4" d="M39.65,71.64c.06-.11-.07-.43-.2-.54a.72.72,0,0,0-.59-.08c-.12,0-.23.29-.23.45a5,5,0,0,0,.1.94c0,.26.22.34.51.27,0-.06.16-.15.15-.23A1.31,1.31,0,0,1,39.65,71.64Z"/><path class="cls-4" d="M33,68.58a1,1,0,0,0-.43,1c.07.23.6.42.9.33a.46.46,0,0,0,.24-.65C33.47,68.74,33.2,68.5,33,68.58Z"/><path class="cls-4" d="M45.67,57.58c0,.23.56.48.87.44A.57.57,0,0,0,47,57.3a.52.52,0,0,0-.62-.47C46,56.9,45.61,57.32,45.67,57.58Z"/><path class="cls-4" d="M28.38,62.52a1,1,0,0,0-.59.45.68.68,0,0,0,.57.86,1.75,1.75,0,0,1-.66.19.71.71,0,0,0-.43.42,5.8,5.8,0,0,1-.41.78.73.73,0,0,0,.22,1c.45.28.77.25,1.05-.16a4.44,4.44,0,0,0,.3-.81h.47a.6.6,0,0,0,.61-.42.87.87,0,0,0-.28-.9.6.6,0,0,0-.48-.23.83.83,0,0,0,.24-.77A.48.48,0,0,0,28.38,62.52Z"/><path class="cls-4" d="M9.57,76.42A.52.52,0,0,0,9,76a.65.65,0,0,0-.66.49.74.74,0,0,0,.6.86A.78.78,0,0,0,9.57,76.42Z"/><path class="cls-4" d="M17.78,52.45c.25.16.55.18.71-.09a1,1,0,0,0,.16-.71.46.46,0,0,0-.43-.31A1.74,1.74,0,0,0,18.14,50a1.29,1.29,0,0,0-.54-.63,1.35,1.35,0,0,0-1.12-.05c-.42.13-.82-.08-1.15.21a1.85,1.85,0,0,0-.51,2.15,1.51,1.51,0,0,0,1.07.94c.51.1.81-.49,1.34-.6l.27-.07A.57.57,0,0,0,17.78,52.45Z"/><path class="cls-4" d="M30.13,46a.64.64,0,0,0-.51,1.18.61.61,0,0,0,.87-.55A.84.84,0,0,0,30.13,46Z"/><path class="cls-4" d="M6.68,79.93A.73.73,0,0,0,7.11,79a1.85,1.85,0,0,0-.65-.27c-.34,0-.57.42-.47.79A.54.54,0,0,0,6.68,79.93Z"/><path class="cls-4" d="M7.89,80.33a.62.62,0,0,0,.71.49.63.63,0,0,0-.26-1.24A.69.69,0,0,0,7.89,80.33Z"/><path class="cls-4" d="M13,71.36a.78.78,0,0,0,.49.44c.51.06.65-.34.76-.78-.27-.27-.54-.58-1-.4A.54.54,0,0,0,13,71.36Z"/><path class="cls-4" d="M13.66,40.19a.59.59,0,0,0-.69-.5.58.58,0,0,0-.54.66.6.6,0,0,0,.67.53A.72.72,0,0,0,13.66,40.19Z"/><path class="cls-4" d="M24.19,72.14a.84.84,0,0,0,.12.55.75.75,0,0,0,.78.23c.26,0,.53,0,.74-.25a.8.8,0,0,0-.35-1.09,1,1,0,0,0-.61-.08.64.64,0,0,0-.75-.54.62.62,0,0,0-.45.66A.74.74,0,0,0,24.19,72.14Z"/><path class="cls-4" d="M9.11,69.71a.69.69,0,0,0,.55.19.57.57,0,0,0,.47-.66c-.05-.44-.55-.55-.8-.53S8.82,69.33,9.11,69.71Z"/><path class="cls-4" d="M27.06,81.19c-.34-.1-.7-.18-.93.17a.54.54,0,0,0,.15.78.75.75,0,0,0,.63.07C27.29,82,27.24,81.58,27.06,81.19Z"/><path class="cls-4" d="M35.79,61.4a.58.58,0,0,0-.42.68.53.53,0,0,0,.61.5.59.59,0,0,0,.53-.68A.66.66,0,0,0,35.79,61.4Z"/><path class="cls-4" d="M1.2,45.41a.62.62,0,0,0,.55-.67.48.48,0,0,0-.59-.49.58.58,0,0,0-.57.64A.6.6,0,0,0,1.2,45.41Z"/><path class="cls-4" d="M3.31,88.06a.53.53,0,0,0-.6-.5.61.61,0,0,0-.49.64c0,.31.32.59.59.5A.62.62,0,0,0,3.31,88.06Z"/><path class="cls-4" d="M18.53,90.66c.08-.47-.26-.65-.74-.76-.25.29-.57.52-.35.93a.53.53,0,0,0,.69.26A.73.73,0,0,0,18.53,90.66Z"/><path class="cls-4" d="M33.6,67.55c.32-.21.63-.43.4-.83s-.55-.3-.87-.13A.68.68,0,0,0,33.6,67.55Z"/><path class="cls-4" d="M40.84,81.22c.27.23.95-.27.92-.67s-.45-.76-.74-.66S40.57,81,40.84,81.22Z"/><path class="cls-4" d="M5.85,72.82a.49.49,0,0,0-.12-.46c-.31-.25-.6-.12-.86.18.08.31.12.67.54.66C5.56,73.2,5.77,73,5.85,72.82Z"/><path class="cls-4" d="M35.86,51.32c0-.17-.32-.63-.59-.58a.56.56,0,0,0-.43.66.42.42,0,0,0,.59.35A.75.75,0,0,0,35.86,51.32Z"/><path class="cls-4" d="M15,83.69c0-.37-.56-.36-.79-.4s-.44.25-.41.56.25.52.55.4S15.09,84.05,15,83.69Z"/><path class="cls-4" d="M1,79.93c-.08-.2-.39-.68-.61-.62s-.32.58-.34.81.34.42.61.34S1.07,80.19,1,79.93Z"/><path class="cls-4" d="M36.21,50.28a1,1,0,0,0,.55.46c.23.06.5-.37.39-.64s-.28-.28-.36-.36C36.34,49.81,36.09,50.06,36.21,50.28Z"/><path class="cls-4" d="M42.38,74.65a.54.54,0,0,0,.61.48.47.47,0,0,0,.38-.59.44.44,0,0,0-.51-.39A.47.47,0,0,0,42.38,74.65Z"/><path class="cls-4" d="M28.45,76.76a1.79,1.79,0,0,0-.23.6c0,.29.24.41.51.36s.47-.12.45-.44A.65.65,0,0,0,28.45,76.76Z"/><path class="cls-4" d="M12.66,45.68a.49.49,0,0,0,.46-.11.79.79,0,0,0,.06-.63c-.19-.31-.5-.17-.77-.06C12.26,45.23,12.29,45.54,12.66,45.68Z"/><path class="cls-4" d="M42.33,55.58c.33,0,.44-.52.62-.74l-.08-.18a.57.57,0,0,0-.67-.12.77.77,0,0,0-.45.29C41.92,55.05,42,55.6,42.33,55.58Z"/><path class="cls-4" d="M41.11,61.25c0,.29.31.32.56.27s.5-.35.36-.57-.28-.6-.6-.47S41.1,61,41.11,61.25Z"/><path class="cls-4" d="M19.76,39.65c-.14-.32-.23-.67-.34-1a.51.51,0,0,0-.56-.6.66.66,0,0,0-.62.69,1.55,1.55,0,0,1-.14.65.9.9,0,0,0,0,1,1.22,1.22,0,0,0,1.27.06C19.65,40.29,20,40.09,19.76,39.65Z"/><path class="cls-4" d="M20.75,43.44a.54.54,0,0,0-.53.65.66.66,0,0,0,.73.58.61.61,0,0,0,.42-.75A.56.56,0,0,0,20.75,43.44Z"/><path class="cls-4" d="M23.64,41.85c-.05-.3-.31-.49-.56-.36a1.71,1.71,0,0,0-.41.39.6.6,0,0,0,.73.48C23.68,42.28,23.68,42.07,23.64,41.85Z"/><path class="cls-4" d="M22.67,39.11a.6.6,0,0,0,.73.48c.28-.08.28-.29.24-.51a.4.4,0,0,0-.56-.36A1.71,1.71,0,0,0,22.67,39.11Z"/><path class="cls-4" d="M13.25,89.62c0-.19-.29-.35-.4-.46-.45.07-.52.31-.48.55s.2.5.47.4S13.27,89.77,13.25,89.62Z"/><path class="cls-4" d="M45.54,72.62c.15.1.52-.09.78-.18a.25.25,0,0,0,.19-.32.74.74,0,0,0-.85-.4A.55.55,0,0,0,45.54,72.62Z"/><path class="cls-4" d="M25.54,54.29a1,1,0,0,0-.43.22.55.55,0,0,0-.22-.48.64.64,0,0,0-.81-.08c-.39.26-.23.66-.17,1.07a1.55,1.55,0,0,0,.79,0,1,1,0,0,0-.06.5,1.29,1.29,0,0,0,1.33.93,1,1,0,0,0,.8-1.1C26.63,54.66,26.09,54.17,25.54,54.29Z"/><path class="cls-4" d="M31.49,57.65a1,1,0,0,0,.8-.89,1.09,1.09,0,0,0-1.12-.85c-.3.06-.54.55-.47,1A.77.77,0,0,0,31.49,57.65Z"/><path class="cls-4" d="M34.84,59.56c0,.65.71.8,1,.87s.69-.67.5-1.19a.6.6,0,0,0-.7-.41C35.27,58.87,34.83,59.23,34.84,59.56Z"/><path class="cls-4" d="M18.2,54a.9.9,0,0,0-.79,1.08,2.27,2.27,0,0,0,.37,1,1.13,1.13,0,0,0-.56,1.26.79.79,0,0,0,.87.64.9.9,0,0,0,1-.72,1.07,1.07,0,0,0-.28-1,1.63,1.63,0,0,0,.78-1.38A1.48,1.48,0,0,0,18.2,54Z"/><path class="cls-4" d="M20,56a.57.57,0,0,0,.62.5.77.77,0,0,0,.49-.83A.58.58,0,1,0,20,56Z"/><path class="cls-4" d="M34.33,64.84a.63.63,0,0,0,.75.45.47.47,0,0,0,.34-.63.6.6,0,0,0-.7-.51A.54.54,0,0,0,34.33,64.84Z"/><path class="cls-4" d="M15.17,39.32c0,.29.31.62.55.52s.66-.32.59-.62-.49-.31-.68-.32A.39.39,0,0,0,15.17,39.32Z"/><path class="cls-4" d="M30.6,58.44c.08-.24-.25-.46-.51-.43s-.49.28-.42.51.19.52.45.48S30.53,58.66,30.6,58.44Z"/><path class="cls-4" d="M22.44,56.77c-.19-.27-.82-.18-.87.18s.36.64.77.53C22.54,57.42,22.59,57,22.44,56.77Z"/><path class="cls-4" d="M39,57.8c.09.26.59.38.78.36s.41-.32.34-.63a.38.38,0,0,0-.56-.28C39.34,57.32,38.87,57.54,39,57.8Z"/><path class="cls-4" d="M41.23,59.68a.7.7,0,0,0,.47.32c.26,0,.5-.42.37-.67s-.28-.23-.36-.29C41.3,59.15,41.1,59.45,41.23,59.68Z"/><path class="cls-4" d="M33.62,44.83c-.19-.14-1,.59-.93.85s.61.38,1,.12S33.81,45,33.62,44.83Z"/><path class="cls-4" d="M30.77,83.62c.26.17.44.06.77-.49a.54.54,0,0,0-.91-.22A.57.57,0,0,0,30.77,83.62Z"/><path class="cls-4" d="M31.14,88.28a.51.51,0,0,0,.76-.49.53.53,0,0,0-.9-.22A.55.55,0,0,0,31.14,88.28Z"/><path class="cls-4" d="M3.71,77c0-.23-.59-.27-.77-.23s-.23.33-.23.5.19.42.44.29S3.76,77.18,3.71,77Z"/><path class="cls-4" d="M40.26,49.8c-.12,0-.48.1-.47.38s.41.3.54.27.37-.13.33-.36A.36.36,0,0,0,40.26,49.8Z"/><path class="cls-4" d="M15.05,35.35a.26.26,0,0,0,.25.2.41.41,0,0,0,.27-.29c0-.09-.15-.38-.31-.36S15.05,35.22,15.05,35.35Z"/><path class="cls-4" d="M46.19,65.05c-.06,0-.31.13-.29.3s.32.19.44.18a.32.32,0,0,0,.21-.28C46.53,65.14,46.32,65.06,46.19,65.05Z"/><path class="cls-4" d="M25.14,38.24c0,.15.23.24.34.24s.4-.18.37-.32-.33-.26-.44-.23S25.13,38.09,25.14,38.24Z"/><path class="cls-4" d="M22.71,33.83c-.07,0-.32.14-.3.31s.33.18.45.18a.32.32,0,0,0,.2-.28C23,33.93,22.83,33.85,22.71,33.83Z"/><path class="cls-4" d="M41.18,54.54c-.07,0-.19.08-.18.17s.1.08.17.13.13-.12.14-.18S41.2,54.53,41.18,54.54Z"/><path class="cls-4" d="M7.28,39.32s.08.14.16.13a.18.18,0,0,0,.15-.21.19.19,0,0,0-.21-.12C7.32,39.13,7.26,39.27,7.28,39.32Z"/><path class="cls-4" d="M7.22,92.11c0-.09-.07-.36-.32-.35s-.2.32-.21.44.21.23.26.2S7.21,92.22,7.22,92.11Z"/><path class="cls-4" d="M10.53,89.05a.41.41,0,0,0-.38-.21c-.13,0-.38.13-.34.27a.41.41,0,0,0,.34.26C10.26,89.37,10.57,89.19,10.53,89.05Z"/><path class="cls-4" d="M8.33,90a.34.34,0,0,0-.45-.25.37.37,0,0,0-.21.42.31.31,0,0,0,.35.27A.33.33,0,0,0,8.33,90Z"/><path class="cls-4" d="M31.59,76.35c.18,0,.26-.09.25-.27s-.08-.25-.25-.24-.26.07-.26.26S31.41,76.36,31.59,76.35Z"/><path class="cls-4" d="M27.82,77.57a1.27,1.27,0,0,0-.65-.52,1.32,1.32,0,0,0-1.11.15c-.39.2-.82.07-1.09.41a1.84,1.84,0,0,0-.12,2.21,1.48,1.48,0,0,0,1.22.73c.52,0,.72-.63,1.22-.83C28.47,79.25,28.28,78.31,27.82,77.57Z"/><path class="cls-4" d="M24,75.44a1.16,1.16,0,0,0-1.57.11,1.14,1.14,0,0,0-.1,1.37c.25.37,1,.26,1.49-.07A1.1,1.1,0,0,0,24,75.44Z"/><path class="cls-4" d="M27.18,73.73a1,1,0,0,0-1.24,1c0,.82.49,1.3,1,1.31a1.4,1.4,0,0,0,1.22-1.21A1.1,1.1,0,0,0,27.18,73.73Z"/><path class="cls-4" d="M13.92,62.78A1.69,1.69,0,0,0,14,64.59c.36.33.86,0,1,.09s0,.85.47,1.24a1.43,1.43,0,0,0,1.65-.14,1.46,1.46,0,0,0,.48-.93,1.16,1.16,0,0,0-.69-1.09c-.43-.12-1.06.13-1.18,0s0-.88-.44-1.23A1,1,0,0,0,13.92,62.78Z"/><path class="cls-4" d="M19.3,42.93a1,1,0,0,0-1.11-.06.81.81,0,0,0-.25.94A1.14,1.14,0,0,0,17.12,45a1.18,1.18,0,0,0,.78,1,.89.89,0,0,0-.38.62c-.13.81.24,1.36.74,1.47a1.36,1.36,0,0,0,1.13-.46A.55.55,0,0,0,20,48a.65.65,0,0,0,.47-.72.61.61,0,0,0-.68-.53l-.11,0a1.15,1.15,0,0,0-.78-.91l-.07,0a1,1,0,0,0,.36-1.1,1.4,1.4,0,0,0-.17-.5.58.58,0,0,0,.41-.15A.81.81,0,0,0,19.3,42.93Z"/><path class="cls-4" d="M10.33,54.19c.36.47,1,.21,1.16.33s-.17,1,.3,1.61a1.75,1.75,0,0,0,2.84-.83,1.6,1.6,0,0,0-.1-.88.58.58,0,0,0,.24-.57.71.71,0,0,0-.72-.51.52.52,0,0,0-.4.36c-.45-.07-1,0-1.07-.13s.26-1.08-.26-1.61a1.26,1.26,0,0,0-1.73,0A2.08,2.08,0,0,0,10.33,54.19Z"/><path class="cls-4" d="M34.84,53.76c-.3.84.61,1,.23,1.43s-.63-.09-1.12.58-.2,1.48.38,1.52.83-.41,1-.37.63.42.9,0c.57-.8-.27-1.12-.18-1.41s.59-.65.77-1.07a1,1,0,0,0-.5-1.43A1.08,1.08,0,0,0,34.84,53.76Z"/><path class="cls-4" d="M1.54,64.81c-.06.6.28,1.21.79,1.07A2.09,2.09,0,0,0,3.44,65c.24-.3-.06-.71.4-.71s1.4-.15,1.28-1a1,1,0,0,0-1-.77h0a1.19,1.19,0,0,0,.26-1,1.18,1.18,0,0,0-1.34-.76,1,1,0,0,0-.75,1.08,1.56,1.56,0,0,0,1.15.93.63.63,0,0,0-.27.4c-.05.35-.8,0-.9.49S1.59,64.21,1.54,64.81Z"/><path class="cls-4" d="M13.48,58.94c-.8-.11-1,.33-1.5.21s-.75.14-1,.64c0,.07-.07.15-.11.23-.11-.19-.32-.32-.48-.24a.63.63,0,0,0-.31.5.36.36,0,0,0,.51.36l.09,0a.65.65,0,0,0,.4.76c.71.33,1-.09,1.09-.31s.53-.43.53-.17.23.5.89.53a1,1,0,0,0,1.18-.89A1.46,1.46,0,0,0,13.48,58.94Z"/><path class="cls-4" d="M36.14,77.09a.58.58,0,0,0-.28-.45.93.93,0,0,0-.5-.3,1.25,1.25,0,0,0-1,.35,1,1,0,0,0-.19,1,.81.81,0,0,0,.66.49,1,1,0,0,0,.88-.28C35.85,77.6,36.19,77.38,36.14,77.09Z"/><path class="cls-4" d="M33.56,74a.31.31,0,0,0-.39-.08.43.43,0,0,0-.12.47c.06.12.31.1.43,0S33.66,74.11,33.56,74Z"/><path class="cls-4" d="M31.22,79.59c-.16.32-.39.81.06,1s.65-.06.7-.21.34-.27.34-.1.15.32.57.33a.63.63,0,0,0,.75-.57.93.93,0,0,0-.82-1c-.51-.07-.63.2-1,.13S31.38,79.27,31.22,79.59Z"/><path class="cls-4" d="M37.16,80.41c0,.42-.21.88.08,1.31l.58.15c.22.52.63.88.94.79a.58.58,0,0,0,.43-.56c0-.51-.14-.67-.72-.84a9.6,9.6,0,0,0-.59-1A.4.4,0,0,0,37.16,80.41Z"/><path class="cls-4" d="M21.66,48.26c-.35.3-.38.62-.11.9a5.75,5.75,0,0,0-.65.94,1.4,1.4,0,0,0,.2,1.13,1.31,1.31,0,0,0-.79,0c-.83.23-1,.53-.92,1.24a1.15,1.15,0,0,0,1.49.87l.15,0a1.24,1.24,0,0,0-.33.92.8.8,0,0,0,.94.53.84.84,0,0,0,.72-1c-.06-.43-.46-.81-.78-.75l-.13,0a1.26,1.26,0,0,0,.24-1,1.11,1.11,0,0,0-.15-.37,1.59,1.59,0,0,0,1.43-.5,1.15,1.15,0,0,0-.25-1.39c-.28-.26-.56-.44-.47-.92S22,48.29,21.66,48.26Z"/><path class="cls-4" d="M29.42,54.08c-.12-.68-.73-1.25-1.24-1.17a1.37,1.37,0,0,0-1,1.39,1.29,1.29,0,0,0,1.37.87A1,1,0,0,0,29.42,54.08Z"/><path class="cls-4" d="M5.38,47.93a.69.69,0,0,0-.48.73.65.65,0,0,0,.75.44A.6.6,0,0,0,6,48.33.51.51,0,0,0,5.38,47.93Z"/><path class="cls-4" d="M32.49,65.66a.53.53,0,0,0-.63-.46.51.51,0,0,0-.49.6.63.63,0,0,0,.65.57A.59.59,0,0,0,32.49,65.66Z"/><path class="cls-4" d="M20.09,58.79c-.05.14-.95-.3-1.26.5s0,1.32.72,1.51a1.94,1.94,0,0,1,.71.48h0a.57.57,0,0,0,.51.43,1.07,1.07,0,0,0,1.4.12,1,1,0,0,0,.3-1.5c-.27-.26-.76-.27-.88-.49s.35.09.22-.75S20.43,57.83,20.09,58.79Z"/><path class="cls-4" d="M19.82,34.68c-.18.32-.16.19-.54.18s-.89.22-.69.85a1.25,1.25,0,0,0,1.5.69,1.47,1.47,0,0,0,.76-1.81C20.62,34.15,20,34.37,19.82,34.68Z"/></g><rect class="cls-5" x="28.11" y="35.14" width="46.65" height="6.1" transform="translate(102.87 76.38) rotate(-180)"/><rect class="cls-5" x="28.11" y="48.05" width="31.03" height="5.89" transform="translate(87.25 101.98) rotate(-180)"/></g></svg>
