<svg id="Layer_1" data-name="Layer 1" xmlns="http://www.w3.org/2000/svg" viewBox="0 0 21.61 24">
  <defs>
    <style>
      .cls-1 {
        fill: #00bfb3;
      }
    </style>
  </defs>
  <title>icon-elasticsearch-1color</title>
  <g>
    <path class="cls-1" d="M1.69,12.5a12,12,0,0,0,.48,3.37H12.23a13.74,13.74,0,0,0,.42-3.37,13.74,13.74,0,0,0-.42-3.37H2.18A12,12,0,0,0,1.69,12.5Z" transform="translate(-1.69 -0.5)"/>
    <g>
      <path class="cls-1" d="M1.69,12.5a12,12,0,0,0,.48,3.37H12.23a13.74,13.74,0,0,0,.42-3.37,13.74,13.74,0,0,0-.42-3.37H2.18A12,12,0,0,0,1.69,12.5Z" transform="translate(-1.69 -0.5)"/>
      <path class="cls-1" d="M17.47,9.13H13.28a14.72,14.72,0,0,1,.39,3.37,14.72,14.72,0,0,1-.39,3.37h4.19a3.37,3.37,0,0,0,3.37-3.36h0A3.37,3.37,0,0,0,17.47,9.13Z" transform="translate(-1.69 -0.5)"/>
    </g>
    <g>
      <path class="cls-1" d="M2.91,17.76A12.05,12.05,0,0,0,7.81,23a13.75,13.75,0,0,0,3.79-5.19Z" transform="translate(-1.69 -0.5)"/>
      <path class="cls-1" d="M19.15,17.76H12.7a14.8,14.8,0,0,1-3.91,5.69,12,12,0,0,0,14.52-3.77A5.45,5.45,0,0,0,19.15,17.76Z" transform="translate(-1.69 -0.5)"/>
    </g>
    <g>
      <path class="cls-1" d="M2.91,7.24H11.6A13.75,13.75,0,0,0,7.81,2,12.05,12.05,0,0,0,2.91,7.24Z" transform="translate(-1.69 -0.5)"/>
      <path class="cls-1" d="M13.69.5a12,12,0,0,0-4.9,1A14.8,14.8,0,0,1,12.7,7.24h6.38a5.45,5.45,0,0,0,4.19-2A12,12,0,0,0,13.69.5Z" transform="translate(-1.69 -0.5)"/>
    </g>
  </g>
</svg>
