<?xml version="1.0" encoding="UTF-8"?>
<svg width="709px" height="268px" viewBox="0 0 709 268" version="1.1" xmlns="http://www.w3.org/2000/svg" xmlns:xlink="http://www.w3.org/1999/xlink">
    <title>elastic-logo-H-white-outline</title>
    <g id="elastic-logo-H-white-outline" stroke="none" stroke-width="1" fill="none" fill-rule="evenodd">
        <path d="M336.743902,140.759615 C336.743902,130.734309 335.13482,123.652312 331.922669,119.509615 C328.708514,115.368924 323.479246,113.298077 316.234865,113.298077 C308.988478,113.298077 303.54266,115.479235 299.894404,119.836538 C296.242137,124.19685 294.36337,131.171543 294.256098,140.759615 L336.743902,140.759615 Z M341.156098,176.229766 L345.895122,175.740385 L346.221951,185.384615 C333.802439,187.126534 323.180488,188 314.356098,188 C302.590244,188 294.256098,184.595387 289.353659,177.783152 C284.45122,170.973926 282,160.375 282,145.990385 C282,117.330462 293.382882,103 316.153659,103 C327.155574,103 335.380443,106.079696 340.829268,112.235076 C346.276089,118.393464 349,128.065774 349,141.25 L348.346341,150.567308 L294.419512,150.567308 C294.419512,159.613851 296.053659,166.315774 299.321951,170.672074 C302.590244,175.032386 308.281685,177.211538 316.398279,177.211538 C324.513871,177.211538 332.765809,176.884615 341.156098,176.229766 L341.156098,176.229766 Z" id="Fill-3" fill="#333333"></path>
        <polygon id="Fill-4" fill="#333333" points="366 187 378 187 378 80 366 80"></polygon>
        <path d="M404.568044,162.663462 C404.568044,172.690774 408.702652,177.701923 416.972867,177.701923 C424.371902,177.701923 431.662789,176.450389 438.844529,173.942308 L442.59862,172.633613 L442.59862,145.663462 L418.44186,147.951923 C413.545219,148.389158 410.008422,149.806159 407.832471,152.20092 C405.654518,154.599693 404.568044,158.086538 404.568044,162.663462 Z M454.840222,129.317308 L454.840222,170.545717 C454.840222,174.63025 465,174.467791 465,174.467791 L464.375153,185.299375 C455.777493,185.299375 448.658839,186.013391 444.382039,181.872699 C434.589759,186.232008 424.808494,188 415.014211,188 C407.506029,188 401.793281,185.875 397.87697,181.625 C393.958656,177.375 392,171.27277 392,163.316305 C392,155.363851 394.01273,149.504306 398.03919,145.744691 C402.063648,141.985076 408.376209,139.671543 416.972867,138.798077 L442.59862,136.346154 L442.59862,129.317308 C442.59862,123.759615 441.399995,119.782386 439.00775,117.384615 C436.613503,114.988851 433.349076,113.788462 429.214469,113.788462 L397.05085,113.815538 L397.05085,103 L428.399364,103 C437.645903,103 444.366017,105.125 448.5567,109.373997 C452.744379,113.625 454.840222,120.273773 454.840222,129.317308 L454.840222,129.317308 Z" id="Fill-5" fill="#333333"></path>
        <path d="M502.771883,113.951923 C491.012823,113.951923 485.135279,118.09462 485.135279,126.375 C485.135279,130.190774 486.482319,132.888391 489.180371,134.465845 C491.875445,136.04731 498.023987,137.681925 507.625995,139.370694 C517.226017,141.060465 524.020781,143.431159 528.013263,146.479766 C532.002766,149.532386 534,155.253539 534,163.644231 C534,172.036928 531.330735,178.191305 525.99022,182.115385 C520.650697,186.038462 512.856325,188 502.61008,188 C495.920538,188 473.60056,185.497935 473.60056,185.497935 L474.247775,174.873938 C487.076923,176.123466 496.352346,177.048077 502.61008,177.048077 C508.864835,177.048077 513.637549,176.041234 516.929212,174.023537 C520.21889,172.007846 521.864721,168.629306 521.864721,163.889924 C521.864721,159.148537 520.461099,155.935465 517.657825,154.245694 C514.851573,152.556925 508.703032,150.949387 499.212202,149.423077 C489.718394,147.89777 482.976241,145.663462 478.986737,142.720151 C474.995248,139.778846 473,134.330462 473,126.375 C473,118.421543 475.77548,112.536928 481.332395,108.721154 C486.887325,104.907386 493.81709,103 502.124668,103 C508.703032,103 531.534231,104.689771 531.534231,104.689771 L531.534231,115.378952 C519.524027,114.825389 509.673854,113.951923 502.771883,113.951923" id="Fill-6" fill="#333333"></path>
        <path d="M592.852113,115.458502 L566.778672,115.458502 L566.778672,154.331636 C566.778672,163.658515 567.459759,169.783301 568.827968,172.710985 C570.194165,175.638668 573.445674,177.10251 578.584507,177.10251 L593.179074,176.125618 L594,186.21086 C586.674044,187.40229 581.098592,188 577.272636,188 C568.746479,188 562.842052,185.941441 559.562374,181.818336 C556.282696,177.700221 554.643863,169.83918 554.643863,158.235215 L554.643863,115.458502 L543,115.458502 L543,104.88631 L554.643863,104.88631 L554.643863,80 L566.778672,80 L566.778672,104.88631 L592.852113,104.88631 L592.852113,115.458502" id="Fill-7" fill="#333333"></path>
        <path d="M610,187 L622,187 L622,104.571414 L610,104.571414 L610,187 Z M610,94.1675537 L622,94.1675537 L622,80 L610,80 L610,94.1675537 Z" id="Fill-8" fill="#333333"></path>
        <path d="M674.762319,103 C678.333333,103 684.392905,103.653846 692.942029,104.961538 L696.837681,105.451923 L696.350725,115.423077 C687.69206,114.442308 681.308847,113.951923 677.197101,113.951923 C667.997706,113.951923 661.748929,116.158152 658.449773,120.571614 C655.14763,124.986078 653.498551,133.158152 653.498551,145.091848 C653.498551,157.023537 655.041078,165.335005 658.12414,170.019231 C661.209194,174.705462 667.62029,177.048077 677.35942,177.048077 L696.513043,175.576923 L697,185.710536 C686.936232,187.235842 679.413799,188 674.437681,188 C661.776812,188 653.037486,184.730769 648.223686,178.191305 C643.4069,171.653846 641,160.619691 641,145.091848 C641,129.561999 643.597101,118.666234 648.791304,112.398537 C653.985507,106.133849 662.64218,103 674.762319,103" id="Fill-9" fill="#333333"></path>
        <path d="M211.908823,176.745031 L172.816225,167.604552 L162.434477,147.768302 L213.564813,102.989272 C228.727195,108.730739 238.833446,123.266172 238.833446,139.532158 C238.833446,156.274846 227.793509,171.497293 211.908823,176.745031 Z M182.521752,222.951165 C176.431754,222.951165 170.464979,220.908153 165.591177,217.163631 L173.319133,176.910274 L208.829261,185.216523 C209.957298,188.281042 210.526326,191.550863 210.526326,194.955884 C210.526326,210.39465 197.965643,222.951165 182.521752,222.951165 Z M156.474714,217.164633 C145.55299,233.25536 127.465326,242.841495 108.010191,242.841495 C75.6657804,242.841495 49.3512588,216.536707 49.3512588,184.208036 C49.3512588,180.240185 49.738959,176.318402 50.4963267,172.537827 L101.521473,126.437849 L153.585496,150.159829 L165.113314,172.179298 L156.474714,217.164633 Z M20.1645503,128.495884 C20.1645503,111.759204 31.2044874,96.5437679 47.0831628,91.284012 L86.0876012,100.494594 L95.2421335,120.048427 L45.3800872,165.103865 C30.2467579,159.345374 20.1645503,144.791913 20.1645503,128.495884 Z M76.476244,45.0758746 C82.6423795,45.0758746 88.6382074,47.1068695 93.4949783,50.8163393 L85.7079156,91.2109042 L50.1687351,82.8225349 C49.040698,79.7580161 48.4716704,76.4881945 48.4716704,73.0771646 C48.4716704,57.638399 61.0323538,45.0758746 76.476244,45.0758746 Z M102.755702,50.8934531 C113.69646,34.9669682 131.694964,25.4679612 150.991812,25.4679612 C183.248064,25.4679612 209.486448,51.7036478 209.486448,83.9491963 C209.486448,87.8940132 209.115779,91.6625702 208.358411,95.443145 L156.035921,141.273726 L104.177269,117.638874 L94.052986,96.0310118 L102.755702,50.8934531 Z M248,139.643322 C248,119.787042 235.68476,102.427444 217.15129,95.6724832 C217.965761,91.4863103 218.390528,87.301139 218.390528,82.9417107 C218.390528,46.0302819 188.350278,16 151.420587,16 C129.850633,16 109.783394,26.341249 97.1736216,43.7669445 C90.9744264,38.9588546 83.3606767,36.3239692 75.4173317,36.3239692 C55.817937,36.3239692 39.8721404,52.2644747 39.8721404,71.8573659 C39.8721404,76.18675 40.6445353,80.3308608 42.0941532,84.240626 C23.6688788,90.8884287 11,108.654626 11,128.385721 C11,148.344152 23.3753487,165.781865 41.9929704,172.488755 C41.2015412,176.626857 40.7707632,180.896152 40.7707632,185.213518 C40.7707632,222.040823 70.7398847,252 107.579413,252 C129.203464,252 149.258682,241.615688 161.796324,224.118887 C168.037595,229.01711 175.669378,231.705074 183.581666,231.705074 C203.182063,231.705074 219.12786,215.771578 219.12786,196.177686 C219.12786,191.848302 218.354463,187.699184 216.904845,183.788417 C235.331121,177.147624 248,159.374417 248,139.643322 L248,139.643322 Z" id="Fill-10" fill="#333333"></path>
    </g>
</svg>