<svg width="32" height="32" viewBox="0 0 32 32" fill="none" xmlns="http://www.w3.org/2000/svg">
<path d="M22.5707 29.9822L16.8214 29.9813C17.3478 29.9813 17.8076 29.7001 18.0536 29.2823L25.8572 16L20.9288 7.61065L26.6774 7.61096C27.1686 7.61136 27.6462 7.86215 27.9095 8.31025L31.6068 14.6021C32.0971 15.4387 32.1328 16.5024 31.6064 17.3986L25.0351 28.5844C24.5432 29.42 23.6237 29.9822 22.5707 29.9822ZM21.8594 27.186C21.8594 27.572 22.178 27.8851 22.5707 27.8851C22.9636 27.8851 23.2821 27.572 23.2821 27.186C23.2821 26.7999 22.9636 26.4869 22.5707 26.4869C22.178 26.4869 21.8594 26.7999 21.8594 27.186ZM28.7868 16.6058C29.1269 16.7987 29.5619 16.6842 29.7583 16.3499C29.9547 16.0156 29.8381 15.5882 29.498 15.3952C29.1578 15.2022 28.7229 15.3166 28.5264 15.651C28.3301 15.9853 28.4467 16.4128 28.7868 16.6058Z" fill="#DB4437"/>
<path d="M25.0357 3.41633L27.9095 8.31025C27.6462 7.86204 27.1687 7.61136 26.6775 7.61096L11.0714 7.61025L6.14297 15.9995L3.26895 11.1067C3.02369 10.6884 3.00583 10.1565 3.26906 9.70832L6.96475 3.41562C7.45682 2.57988 8.37626 2.01765 9.42926 2.01765L22.5716 2.01775C23.554 2.01867 24.5091 2.52003 25.0357 3.41633ZM10.1405 4.814C10.1405 4.42788 9.82204 4.11491 9.42916 4.11491C9.03639 4.11491 8.71783 4.42788 8.71783 4.814C8.71783 5.20012 9.03639 5.51309 9.42916 5.51309C9.82204 5.51309 10.1405 5.20012 10.1405 4.814ZM22.9273 5.41986H22.9272C23.2673 5.2268 23.3838 4.79939 23.1874 4.46501C22.9911 4.13074 22.5561 4.0162 22.2159 4.20926C21.8757 4.40222 21.7593 4.82972 21.9556 5.164C22.152 5.49828 22.5869 5.61281 22.9273 5.41986Z" fill="#4285F4"/>
<path d="M0.393603 14.6013H0.3935L3.26906 9.70842C3.00573 10.1565 3.02359 10.6884 3.26885 11.1067L11.0714 24.3897H20.9281L18.0537 29.2822C17.8076 29.7001 17.3479 29.9813 16.8214 29.9813L9.42834 29.9821C8.44604 29.9813 7.49089 29.4799 6.96434 28.5836L0.393087 17.3978C-0.0972356 16.5612 -0.132952 15.4976 0.393603 14.6013ZM3.21322 15.3942C2.87298 15.2012 2.43809 15.3157 2.24165 15.65C2.04532 15.9844 2.16186 16.4118 2.50199 16.6048C2.84212 16.7979 3.27711 16.6834 3.47345 16.349C3.66989 16.0147 3.55335 15.5872 3.21322 15.3942ZM9.07283 26.5802C8.7327 26.7732 8.61605 27.2007 8.81249 27.535C9.00883 27.8694 9.44382 27.9839 9.78405 27.7908C10.1242 27.5979 10.2407 27.1704 10.0443 26.8361C9.84795 26.5018 9.41296 26.3873 9.07283 26.5802Z" fill="#F4B400"/>
<path opacity="0.1" fill-rule="evenodd" clip-rule="evenodd" d="M18.0541 29.2824L20.9286 24.3899H17.96L16.8218 29.9815C17.3483 29.9815 17.8081 29.7003 18.0541 29.2824Z" fill="black"/>
<path opacity="0.1" fill-rule="evenodd" clip-rule="evenodd" d="M26.6778 7.61125L20.9292 7.61104L22.4135 10.1376L27.9099 8.31054C27.6465 7.86244 27.169 7.61165 26.6778 7.61125Z" fill="black"/>
<g opacity="0.1">
<mask id="mask0_107_1379" style="mask-type:alpha" maskUnits="userSpaceOnUse" x="3" y="9" width="5" height="7">
<g opacity="0.1">
<path opacity="0.1" d="M7.62801 9.709H3.07901V16H7.62801V9.709Z" fill="white"/>
</g>
</mask>
<g mask="url(#mask0_107_1379)">
<path opacity="0.1" fill-rule="evenodd" clip-rule="evenodd" d="M3.26942 11.107L6.14333 15.9998L7.62772 13.4732L3.26942 9.70873C3.0063 10.1568 3.02416 10.6887 3.26942 11.107Z" fill="black"/>
</g>
</g>
<path d="M11.0714 24.3898L6.14265 16L11.0714 7.61025H20.9286L25.8572 16L20.9286 24.3898H11.0714ZM20.2679 16C20.2679 13.6834 18.3571 11.8056 16 11.8056C13.6429 11.8056 11.7321 13.6834 11.7321 16C11.7321 18.3165 13.6429 20.1944 16 20.1944C18.3571 20.1944 20.2679 18.3165 20.2679 16Z" fill="#CCCCCC"/>
</svg>
