<svg xmlns="http://www.w3.org/2000/svg" width="84" height="131" viewBox="0 0 84 131">
  <g fill="none">
    <path fill="#98A2B3" d="M9.21473437,130.596363 L9.21473437,119.192556 C9.21473437,118.388561 8.62476562,118.04165 7.92946875,118.04165 C6.53559375,118.04165 4.7945625,118.388561 3.2143125,119.084679 L3.2143125,130.596363 L0,130.596363 L0,109.422314 L3.21398437,109.422314 L3.21398437,116.407757 C4.74173437,115.846403 6.56282812,115.365056 8.38457812,115.365056 C11.3042344,115.365056 12.4027969,117.158305 12.4027969,119.619801 L12.4027969,130.596363 L9.21473437,130.596363 L9.21473437,130.596363 Z M18.4019062,123.689943 C18.508875,127.517771 19.2592969,128.267664 21.6155625,128.267664 C23.4642187,128.267664 25.5537187,127.651552 27.1615312,127.035768 L27.6970312,129.444473 C25.98225,130.221581 23.8930781,130.970817 21.4026094,130.970817 C16.0443281,130.970817 15.2135156,128.02699 15.2135156,123.341392 C15.2135156,120.772347 15.4015313,118.442992 16.0174219,116.301519 C17.6245781,115.685735 19.7678906,115.364728 22.472625,115.364728 C26.8672031,115.364728 28.2059531,117.800976 28.2059531,122.057033 L28.2059531,123.689943 L18.4019062,123.689943 Z M22.472625,118.04165 C21.5095781,118.04165 19.9821562,118.068537 18.7231406,118.308227 C18.5899219,118.950899 18.4281562,119.834571 18.3746719,121.467809 L25.0717031,121.467809 C25.0717031,119.245347 24.66975,118.04165 22.472625,118.04165 Z M34.2316406,119.084679 L34.2316406,130.596363 L31.017,130.596363 L31.017,117.639653 C33.7227188,116.167739 36.5888906,115.712623 38.4647813,115.578842 L38.4647813,118.255764 C37.1522813,118.362658 35.4906563,118.523325 34.2319688,119.084679 L34.2316406,119.084679 Z M46.9556719,130.970817 C42.1597969,130.970817 39.9902344,128.615559 39.9902344,123.234499 C39.9902344,117.532759 42.8564063,115.365056 46.9556719,115.365056 C51.7502344,115.365056 53.9204531,117.719986 53.9204531,123.100718 C53.9204531,128.802786 51.053625,130.970817 46.9556719,130.970817 Z M46.9556719,118.041978 C44.4907969,118.041978 43.1248125,119.460117 43.1248125,123.234499 C43.1248125,127.357431 44.2765312,128.267664 46.9556719,128.267664 C49.4198906,128.267664 50.7862031,126.8751 50.7862031,123.100718 C50.7862031,118.977786 49.6344844,118.04165 46.9556719,118.04165 L46.9556719,118.041978 Z M69.4289531,130.596363 L65.65125,130.596363 C64.7679375,128.240776 63.5348438,125.831415 61.6330313,123.74339 L59.9451563,123.74339 L59.9451563,130.596363 L56.7308438,130.596363 L56.7308438,109.422314 L59.9451563,109.422314 L59.9451563,121.574702 L61.4456719,121.574702 C63.0797344,119.888018 64.3384219,117.800976 65.2227188,115.739182 L68.8386563,115.739182 C67.606875,118.228877 66.026625,120.423796 64.2583594,122.217373 C66.3747656,124.894296 68.0354063,127.731886 69.428625,130.596363 L69.4289531,130.596363 Z M75.4543125,130.970817 C72.5349844,130.970817 71.43675,129.177896 71.43675,126.71476 L71.43675,115.739182 L74.6241563,115.739182 L74.6241563,127.116102 C74.6241563,127.920097 75.2128125,128.267664 75.9094219,128.267664 C77.3026406,128.267664 79.2044531,127.920097 80.7853594,127.223651 L80.7853594,115.739182 L84,115.739182 L84,128.64179 C80.1960469,130.730144 77.2757344,130.970817 75.4543125,130.970817 L75.4543125,130.970817 Z M74.0341875,104.025188 L9.92840625,104.025188 C4.44445312,104.025188 0,99.5838706 0,94.1047707 L0,9.92074489 C0,4.44164497 4.44478125,0 9.92807813,0 L74.0338594,0 C79.5168281,0 83.9629219,4.44164497 83.9629219,9.92074489 L83.9629219,94.1047707 C83.9629219,99.5838706 79.5168281,104.025188 74.0338594,104.025188 L74.0341875,104.025188 Z"/>
    <path fill="#FFF" d="M52.618125,89.711654 L52.618125,48.4003554 C52.618125,48.4003554 55.3071094,38.5143672 19.4962031,52.4445935 C19.4305781,52.6213281 19.4305781,14.2436924 19.4305781,14.2436924 L31.1315156,14.1715559 L31.1315156,38.7606152 C31.1315156,38.7606152 63.8934844,25.8662044 63.8934844,48.5397102 L63.8934844,89.711654 L52.6184531,89.711654 L52.618125,89.711654 Z M59.285625,29.053329 L46.874625,29.053329 C51.3420469,23.5952143 55.3861875,14.2433645 55.3861875,14.2433645 L68.2191563,14.2433645 C68.2191563,14.2433645 66.0220313,20.3379205 59.2859531,29.053329 L59.285625,29.053329 Z M19.6432031,89.6401732 L19.6432031,66.1144724 L31.4156719,77.8783065 L19.6432031,89.6401732 Z"/>
  </g>
</svg>
