<svg width="360" height="330" xmlns="http://www.w3.org/2000/svg" viewBox="0 0 360 330"><defs><style>.cls-1{fill:#ecf0f6;}.cls-2{fill:#7de2d1;}.cls-3{fill:#42d4c6;}.cls-4{fill:#fec514;}.cls-5{fill:#e6ebf2;}.cls-6{fill:#00bfb3;}.cls-7{fill:#01ada1;}.cls-8{fill:#fff;}.cls-9{fill:#07c;}.cls-10{fill:#fa744e;}.cls-11{fill:#0066b1;}.cls-12{fill:#343741;}.cls-13{fill:#1ba9f5;}</style></defs><title>illustration-cloud-ui-check-email-360x330_1</title><g id="Layer_2" data-name="Layer 2"><path class="cls-1" d="M75.93,189c-.09.12-.19.21-.2.3s.19.2.21.18.29-.15.27-.28S76,189.11,75.93,189Z"/><path class="cls-1" d="M73.9,204.69a1.63,1.63,0,0,0,1.84-.93c.35-.66.07-1.26-.77-1.67a1.3,1.3,0,0,0-1.53.45A2.18,2.18,0,0,0,73.9,204.69Z"/><path class="cls-1" d="M75.38,185.32a.74.74,0,0,0-1.16.24.92.92,0,0,0,.29,1.3,1,1,0,0,0,1.22-.25A.93.93,0,0,0,75.38,185.32Z"/><path class="cls-1" d="M72.28,219.46a1.8,1.8,0,0,0,2.37-.22,2.32,2.32,0,0,0-.51-2.71,1.81,1.81,0,0,0-2.32.6A1.77,1.77,0,0,0,72.28,219.46Z"/><path class="cls-1" d="M76,230.49a1.08,1.08,0,0,0-1.29.46.94.94,0,0,0,.37,1.28,1,1,0,0,0,.92-1.74Z"/><path class="cls-1" d="M76.22,222.75a1.63,1.63,0,0,0-2,.41,1.73,1.73,0,0,0,.56,2,1.37,1.37,0,0,0,1.67-.67C76.89,223.68,76.82,223.11,76.22,222.75Z"/><path class="cls-1" d="M74.57,181.09c-.41,0-.74.7-.51,1.07.14.22.47.33.59.41.63-.21.91-.7.68-1A1.07,1.07,0,0,0,74.57,181.09Z"/><path class="cls-1" d="M76,205.28c0,.3.08.9.32.95a1,1,0,0,0,.82-.37c.11-.19,0-.92-.2-1S76,205.13,76,205.28Z"/><path class="cls-1" d="M80.68,182c-.14-.08-.56.18-.69.32s0,.47.1.49a.7.7,0,0,0,.61-.07C80.8,182.59,80.82,182,80.68,182Z"/><path class="cls-1" d="M73.64,229.27a1.13,1.13,0,0,0,1.4-.65,2.73,2.73,0,0,0-.51-1c-.4-.36-1.09-.06-1.35.47A.85.85,0,0,0,73.64,229.27Z"/><path class="cls-1" d="M74.46,178.72c-.44.12-.74.61-.51.93s.51.89,1,.66.46-.9.42-1.23S74.85,178.62,74.46,178.72Z"/><path class="cls-1" d="M78.83,190.45a.51.51,0,0,0-.81.24c-.19.39-.25.8.19,1.09a1,1,0,0,0,1.23-.25C79.61,191.23,79.31,190.71,78.83,190.45Z"/><path class="cls-1" d="M75.4,195.22a.56.56,0,0,0,.11.49.74.74,0,0,0,.61-.08.53.53,0,0,0,0-.74C75.8,194.65,75.53,195.07,75.4,195.22Z"/><path class="cls-1" d="M115.63,248.41a2.36,2.36,0,0,0,.25-1h-2.31a1.76,1.76,0,0,0,.75,1.39A1.12,1.12,0,0,0,115.63,248.41Z"/><path class="cls-1" d="M125.35,247.45h-.91A1.76,1.76,0,0,0,125.35,247.45Z"/><path class="cls-1" d="M120.15,247.45h-.6A.77.77,0,0,0,120.15,247.45Z"/><path class="cls-1" d="M84.19,137.77h.16v-.89h-.09c-.14,0-.44.25-.43.39S84,137.75,84.19,137.77Z"/><path class="cls-1" d="M78.19,154l-.15-.28c-.21.5-.43,1-.67,1.47a10.46,10.46,0,0,0,.89,1.32.62.62,0,0,0,1.11-.32c0-.66.24-1.38-.26-2Z"/><path class="cls-1" d="M81.91,154.66c.23.14.39.38.81.41a2,2,0,0,0,1.6-.65l0,0v-1.72a1.32,1.32,0,0,0-.92-.46,1.5,1.5,0,0,0-1.32.52c-.28.45-.78.83-.68,1.27A.94.94,0,0,0,81.91,154.66Z"/><path class="cls-1" d="M74.51,238.59c.77.44,1.71,0,2.26-.94a1.39,1.39,0,0,0-.5-2,1.88,1.88,0,0,0-2.49.76A1.93,1.93,0,0,0,74.51,238.59Z"/><path class="cls-1" d="M81.47,160.64a1.33,1.33,0,0,0,.8-1.38c-.16-.58-1.34-1.4-1.81-1.25a1.63,1.63,0,0,0-.71,1.94C80,160.67,80.57,160.92,81.47,160.64Z"/><path class="cls-1" d="M113.85,262c.19,0,.46.07.6-.19a.34.34,0,0,0-.16-.49c-.18-.06-.55-.18-.74.09S113.75,261.94,113.85,262Z"/><path class="cls-1" d="M80.59,227.91a.8.8,0,0,0-.26-1.09,1,1,0,0,0-1.28-.07,1.15,1.15,0,0,0-.12,1.63A1.21,1.21,0,0,0,80.59,227.91Z"/><path class="cls-1" d="M77.85,212.37a2,2,0,0,0-2.28-.33c-.67.45-.65.9.2,2.28-.5.39-1.07.72-.63,1.44a1,1,0,0,0,1.16.51c.18-.05.44-.21.47-.36a12.81,12.81,0,0,0,.13-1.45C77.86,213.79,78.25,213,77.85,212.37Z"/><path class="cls-1" d="M78.78,219.94a1.05,1.05,0,0,0,.9,0,.79.79,0,0,0,.32-.68c-.13-.6-.6-.73-1.21-.62C78.57,219.06,78.26,219.54,78.78,219.94Z"/><path class="cls-1" d="M83.71,232.9a.49.49,0,0,1,.15,0h0a2.31,2.31,0,0,0-.62.45.59.59,0,0,0,.1,1,.74.74,0,0,0,1,0V231a5.84,5.84,0,0,1-.31-.66l.31-.19v-2.57a1,1,0,0,0-1.63.29,1.46,1.46,0,0,0,.07,2.08,4.34,4.34,0,0,1-1-.07.89.89,0,0,0-1.2.34,1.3,1.3,0,0,0-.2,1.51C81.37,233.46,81.91,233.64,83.71,232.9Z"/><path class="cls-1" d="M83,241.05c.27.16.87,0,1.35-.31v-2.1a1.26,1.26,0,0,0-1.7.39A1.59,1.59,0,0,0,83,241.05Z"/><path class="cls-1" d="M81.12,198.24a1.57,1.57,0,0,0-.54-2.24,2,2,0,0,0-2,.13c0-.42-.67-.42-.86-.37s-.56.25-.48.6a.59.59,0,0,0,.64.42l.17,0a2,2,0,0,0,.11,1.64.26.26,0,0,0-.13-.08c-.41-.13-1.32.46-1.25.94.11.69.41,1.1,1.22.76a.94.94,0,0,0,.38-1.28,1.67,1.67,0,0,0,.38.37C79.5,199.6,80.5,199.24,81.12,198.24Z"/><path class="cls-1" d="M80.76,205.6a.73.73,0,0,0-.74-.68c-.73,0-1,.48-1.2,1.12.29.3.53.64.85.75a.56.56,0,0,0,0,.43c.15.54.8.38,1,.3a.92.92,0,0,0,.48-.7.57.57,0,0,0-.43-.55A1.06,1.06,0,0,0,80.76,205.6Z"/><path class="cls-1" d="M76.92,163.62a1.1,1.1,0,0,0,.92.07c.18-.07.32-.47.31-.72a8,8,0,0,0-.25-1.45c-.09-.41-.38-.51-.82-.37-.06.1-.23.26-.21.38a1.9,1.9,0,0,1-.32,1.27C76.46,163,76.7,163.47,76.92,163.62Z"/><path class="cls-1" d="M72.41,170.5a1.49,1.49,0,0,0,1-1.36c-.13-.57-1-.9-1.77-.7a.71.71,0,0,0-.55.95C71.25,170.06,71.91,170.62,72.41,170.5Z"/><path class="cls-1" d="M81.77,216.34a1.19,1.19,0,0,0-.21-1.47c-.8-.54-1.69-.54-2,0a1.59,1.59,0,0,0,.47,1.91A1.42,1.42,0,0,0,81.77,216.34Z"/><path class="cls-1" d="M82.83,182.43a.29.29,0,0,0,.39-.11.23.23,0,0,0,0-.2,1,1,0,0,0,.8.17,1.35,1.35,0,0,0,.34-.11V180a3.15,3.15,0,0,0-.81-.18c-.54-.07-1,1.1-.65,1.89a1.11,1.11,0,0,0,.16.24.36.36,0,0,0-.29.14A.28.28,0,0,0,82.83,182.43Z"/><path class="cls-1" d="M84.35,195.86a2.53,2.53,0,0,0-.23-.12c0-.05,0-.1,0-.14a1.45,1.45,0,0,0-.89-.65c-.37-.07-.74.63-.55,1s.46.41.6.52a1.24,1.24,0,0,0,.29-.1.47.47,0,0,0,.07.12,1.58,1.58,0,0,0,.74.47Z"/><path class="cls-1" d="M72.81,174.9A1.36,1.36,0,0,0,74.58,176c.73-.21,1.23-.9,1-1.44a1.94,1.94,0,0,0-2.09-1.2A1.37,1.37,0,0,0,72.81,174.9Z"/><path class="cls-1" d="M79.33,210.25a2,2,0,0,0,1.76-.62c.29-.45.08-.92-.58-1.29s-1.22-.35-1.52.17A1.18,1.18,0,0,0,79.33,210.25Z"/><path class="cls-1" d="M102,247.51c-.29.33-.13.72.24.93s.7.32,1-.08a.9.9,0,0,0,0-.91h-1.16Z"/><path class="cls-1" d="M110.78,248.7c0,.21.27.44.49.46s.51-.17.51-.42a.5.5,0,0,0-.39-.48A.69.69,0,0,0,110.78,248.7Z"/><path class="cls-1" d="M72.05,208.06a1,1,0,0,0,1.31-.36,1.1,1.1,0,0,0-.45-1.4.89.89,0,0,0-1.17.36A.94.94,0,0,0,72.05,208.06Z"/><path class="cls-1" d="M72.15,198.09c-.13-.38-.54-.27-.71-.22a.59.59,0,0,0-.24.53.66.66,0,0,0,.54.32C71.89,198.68,72.28,198.47,72.15,198.09Z"/><path class="cls-1" d="M82.33,208.11a3,3,0,0,0,2,.07v-2.73c-.56.31-1.31,0-1.91.59S81.57,207.76,82.33,208.11Z"/><path class="cls-1" d="M82.43,177.59a1,1,0,0,0,1.16.71.91.91,0,0,0,.59-1.1.82.82,0,0,0-1-.71A.91.91,0,0,0,82.43,177.59Z"/><path class="cls-1" d="M82.66,199a.78.78,0,0,0,.17.74,1.06,1.06,0,0,0,.88.18c.6-.29.39-.81.23-1.29C83.39,198.4,82.9,198.41,82.66,199Z"/><path class="cls-1" d="M81.79,164.62c-.78.06-1.28.34-1.27.73a1.57,1.57,0,0,0,1.19,1.11c.38,0,.92-.68.93-1.17A.71.71,0,0,0,81.79,164.62Z"/><path class="cls-1" d="M77.33,184.76a.6.6,0,0,0,.91.37c.27-.12,1-.52.81-.91s-1-.54-1.25-.47A.73.73,0,0,0,77.33,184.76Z"/><path class="cls-1" d="M79.58,181.36a1.56,1.56,0,0,0,.8-1.67,1.19,1.19,0,0,0-1.17-.76c-.92.21-1.53.88-1.37,1.49A1.72,1.72,0,0,0,79.58,181.36Z"/><path class="cls-1" d="M79,172.53c-.92.15-1.43,1.18-1.2,2.4a1.57,1.57,0,0,0,1.84,1.26A2.05,2.05,0,0,0,81.25,174,2.14,2.14,0,0,0,79,172.53Z"/><path class="cls-1" d="M80.81,223.77a2.39,2.39,0,0,0,3.4,1l.14-.06v-3.24l-.56-.81a5.67,5.67,0,0,0,.56-1.09v-.87a2,2,0,0,0-1.32-.85,1.29,1.29,0,0,0-1.77,1.23,11.17,11.17,0,0,0,.49,2.31C81.13,222,80.47,222.79,80.81,223.77Z"/><path class="cls-1" d="M83.84,160.21a1.11,1.11,0,0,0-.65,1.21c.24.77.68,1.25,1.16,1.28v-2.5A1,1,0,0,0,83.84,160.21Z"/><path class="cls-1" d="M82.41,216c.15.95.59,1.39,1.34,1.37a1.47,1.47,0,0,0,.6-.14v-5.87a1.13,1.13,0,0,0-.55.71c0,.69-.48.74-.82,1.05a3,3,0,0,0-.63,1.16,2.41,2.41,0,0,0,0,.85A6.47,6.47,0,0,0,82.41,216Z"/><path class="cls-1" d="M80.55,188a1.14,1.14,0,0,0-1.34-1c-.77.18-1.41,1-1.23,1.63a1.67,1.67,0,0,0,1.75,1.12C80.25,189.65,80.69,188.7,80.55,188Z"/><path class="cls-1" d="M81.43,203a1.78,1.78,0,0,0,2.17,1.12,2.23,2.23,0,0,0,.75-.5v-2a2.94,2.94,0,0,0-1.54-.39A1.7,1.7,0,0,0,81.43,203Z"/><path class="cls-1" d="M83.84,173.21a1,1,0,0,0,.51.64v-1.66h0A.75.75,0,0,0,83.84,173.21Z"/><path class="cls-1" d="M82,193.33a1.08,1.08,0,0,0,.39.87.75.75,0,0,0,1.16-.21.83.83,0,0,0-.22-1.11C83,192.63,82.06,193,82,193.33Z"/><path class="cls-1" d="M82.65,186.69c.13.1.68.2.77,0,.22.29.5.51.44.72-.12.46-.85,1.08-1.08,1.74-.32.92-.1,1.93.92,2.17a2.47,2.47,0,0,0,.65.05v-8.15a1,1,0,0,0-.7.55c-.3.55-.24,1,.13,1.2a.61.61,0,0,0-.35.28,1.41,1.41,0,0,0-.25.82h0c-.18-.09-.57-.23-.66,0A.63.63,0,0,0,82.65,186.69Z"/><path class="cls-1" d="M73.16,189.22l.15.27a.88.88,0,0,0,1,.13,1.22,1.22,0,0,0,.66-.5c-.28-.33-.47-1.17-1-1.11S73.42,188.87,73.16,189.22Z"/><path class="cls-1" d="M101.59,260.47c-.07.18-.22.45,0,.63a.35.35,0,0,0,.51-.11c.09-.16.29-.59,0-.75S101.62,260.37,101.59,260.47Z"/><path class="cls-1" d="M78.35,241.06c-.28.44-.22.86.26,1s1,.47,1.34,0-.32-1-.56-1.26S78.61,240.64,78.35,241.06Z"/><path class="cls-1" d="M76.65,244.06c-1.23-1.26-2.19-.91-2.72.89a2,2,0,0,1-.35.07c-.53,0-.72.33-.83.78a.89.89,0,0,0,.39,1c.77.66,1.24.62,1.85-.21.47-.62,1-1.22,1.42-1.82,1.19.78,1.35.73,1.78-.4C77.8,243.71,77.28,243.69,76.65,244.06Z"/><path class="cls-1" d="M73,222.76c.17-.32-.45-.9-.7-1s-.6.16-.77.37a.47.47,0,0,0,.24.79C72.09,223,72.86,223.09,73,222.76Z"/><path class="cls-1" d="M75.77,253a.82.82,0,0,0,.58,1,1.15,1.15,0,0,0,.9-.12c.55-.5.33-1-.14-1.65C76.52,252.34,75.91,252.29,75.77,253Z"/><path class="cls-1" d="M79.47,233.24c-.64-.37-1.28-.28-1.53.21a2.45,2.45,0,0,0,.38,2.07,1.34,1.34,0,0,0,1.87-.67C80.51,234.26,80.25,233.69,79.47,233.24Z"/><path class="cls-1" d="M83.41,249.67a1.28,1.28,0,0,0-.62-1.79,1.63,1.63,0,1,0-1.64,2.82A1.8,1.8,0,0,0,83.41,249.67Z"/><path class="cls-1" d="M104.59,253.3c-.31-.41-.65-.37-1.16-.15s-1.27.59-.94,1.29.84.57,1,.45.68,0,.51.21-.14.53.35,1a1,1,0,0,0,1.47.05,1.44,1.44,0,0,0,0-2C105.33,253.5,104.91,253.71,104.59,253.3Z"/><path class="cls-1" d="M122.78,258.14a.72.72,0,0,0-1.07.12.84.84,0,0,0,.25,1.18.74.74,0,0,0,1.05-.33A.68.68,0,0,0,122.78,258.14Z"/><path class="cls-1" d="M121.7,251.1a1.12,1.12,0,0,0-.62-.68.94.94,0,0,0-.72.31,7.92,7.92,0,0,0-.81,1.23c-.22.36-.07.63.34.84.12,0,.35,0,.41-.14a2.06,2.06,0,0,1,1.11-.71C121.6,251.88,121.76,251.37,121.7,251.1Z"/><path class="cls-1" d="M123.57,251.14c-.3.5.08,1.3.81,1.71a.71.71,0,0,0,1.05-.3,1.29,1.29,0,0,0-.16-1.69A1.49,1.49,0,0,0,123.57,251.14Z"/><path class="cls-1" d="M138.27,251.11a.55.55,0,0,0-.64.11c-.13.2,0,.51.17.62s.65.18.77,0S138.41,251.19,138.27,251.11Z"/><path class="cls-1" d="M128.55,258a.85.85,0,0,0-1,1c.07.27.71.41,1.11.56a.38.38,0,0,0,.54-.19A1.16,1.16,0,0,0,128.55,258Z"/><path class="cls-1" d="M135.14,250.59c-.14.22.2.54.35.65a.48.48,0,0,0,.52-.13c.09-.15-.08-.46-.22-.6S135.28,250.36,135.14,250.59Z"/><path class="cls-1" d="M122.75,254.37a1.07,1.07,0,0,0-1.34.28,1.38,1.38,0,0,0,.28,1.47,1.34,1.34,0,0,0,1.53-.49A1,1,0,0,0,122.75,254.37Z"/><path class="cls-1" d="M111.62,253.35a2,2,0,0,0-1.61-.63,1.48,1.48,0,0,0-1.2,1,1.29,1.29,0,0,0,.31,1.25,1.5,1.5,0,0,0,1.33.52c.51-.13,1.13-.07,1.36-.46a.9.9,0,0,0,.11-.82A1.46,1.46,0,0,0,111.62,253.35Z"/><path class="cls-1" d="M110.77,260.54a.62.62,0,0,0-1-.53c-.46.47-1.11.84-1.19,1.65l.55.76c-.25.83-.12,1.67.34,1.87a.88.88,0,0,0,1.07-.25c.52-.6.5-.94,0-1.72A16.14,16.14,0,0,0,110.77,260.54Z"/><path class="cls-1" d="M119.13,254.52c-.63-.35-1.18-.11-1.58.66a1,1,0,0,0,.19,1.32,2,2,0,0,0,2-.37C120.13,255.5,119.9,254.93,119.13,254.52Z"/><path class="cls-1" d="M107,249.06c-.17.22-.17.4.06.57a.34.34,0,0,0,.57-.08.34.34,0,0,0-.06-.54A.36.36,0,0,0,107,249.06Z"/><path class="cls-1" d="M114.88,263.21c-.45-.17-1.61.87-1.52,1.41s1.41.61,1.76.11S115.34,263.37,114.88,263.21Z"/><path class="cls-1" d="M116.35,250.16a1.3,1.3,0,0,0-1.53.45,2.23,2.23,0,0,0,.46,2.15,1.63,1.63,0,0,0,1.84-.92C117.47,251.17,117.19,250.57,116.35,250.16Z"/><path class="cls-1" d="M67.5,173.22c0-.26-.52-.26-.7-.23a.47.47,0,0,0-.3.45c0,.17.38.27.58.28S67.55,173.48,67.5,173.22Z"/><path class="cls-1" d="M67.26,184.67a.88.88,0,0,0-.64,1.15.82.82,0,0,0,1,.67c.58-.16,1.15-.83,1-1.24S67.73,184.56,67.26,184.67Z"/><path class="cls-1" d="M65.2,217.22a1.52,1.52,0,0,0,2-.73,1.56,1.56,0,0,0-.76-1.92,1.27,1.27,0,0,0-1.83.75A1.29,1.29,0,0,0,65.2,217.22Z"/><path class="cls-1" d="M65.27,198.11a.56.56,0,0,0,.91-.27c.11-.28.19-1.08,0-1.2s-.9.24-1.15.44S64.84,197.82,65.27,198.11Z"/><path class="cls-1" d="M60.94,222.9c.09-.17.28-.52,0-.74s-.59.08-.62.17a.79.79,0,0,0,.08.6C60.48,223,60.89,223,60.94,222.9Z"/><path class="cls-1" d="M80.5,170.47c.69-.19.94-.73.7-1.57-.17-.59-.59-.92-1-.83s-1.34,1.18-1.22,1.67C79.1,170.43,79.65,170.69,80.5,170.47Z"/><path class="cls-1" d="M64.86,175c.17,0,.44-.28.39-.52s-.37-.35-.54-.33-.6.31-.55.54S64.71,175,64.86,175Z"/><path class="cls-1" d="M75.93,165.48a1.33,1.33,0,0,0-.77,1.41,1,1,0,0,0,1.2.59,1.07,1.07,0,0,0,.78-1.12C77,165.91,76.28,165.37,75.93,165.48Z"/><path class="cls-1" d="M69.1,205.72c.39.15.81.17.94-.26s.18-1.17-.14-1.36-1,.47-1.15.74S68.64,205.55,69.1,205.72Z"/><path class="cls-1" d="M56.92,207.82a.48.48,0,0,0,.52-.12c.09-.16-.09-.46-.22-.6s-.51-.15-.65.07S56.77,207.72,56.92,207.82Z"/><path class="cls-1" d="M71.94,180.37c.08-.17.34-.47.32-.75a1,1,0,1,0-2,.15C70.34,180.22,71.08,180.54,71.94,180.37Z"/><path class="cls-1" d="M69.84,187.74c.1-.24.13-.72,0-.86A.87.87,0,0,0,69,187c-.14.15-.23.88,0,1S69.78,187.9,69.84,187.74Z"/><path class="cls-1" d="M68.78,236.65c.34-.6.25-1.08-.27-1.38a1.62,1.62,0,0,0-2.12.3,1.44,1.44,0,0,0,.71,1.69A1.3,1.3,0,0,0,68.78,236.65Z"/><path class="cls-1" d="M69,243.4c-.19-.08-.58-.22-.67,0a.63.63,0,0,0,.14.64c.13.1.69.21.78,0A.62.62,0,0,0,69,243.4Z"/><path class="cls-1" d="M66.77,223.61c.1-.33.2-1.21-.11-1.36s-1,.38-1.22.63,0,.85.4,1S66.65,224,66.77,223.61Z"/><path class="cls-1" d="M70.79,246.63c-.2.32-.26.8.18,1a1.06,1.06,0,0,0,1-.18c.16-.25,0-.7,0-1C71.31,246.09,71,246.31,70.79,246.63Z"/><path class="cls-1" d="M69.83,209.49a.29.29,0,0,0-.14-.36c-.08,0-.29.07-.32.14s0,.26.07.32A.27.27,0,0,0,69.83,209.49Z"/><path class="cls-1" d="M71.65,231.84a1.43,1.43,0,0,0-.63-1.63,1.35,1.35,0,0,0-1.31,1.11.93.93,0,0,0,.78,1A.92.92,0,0,0,71.65,231.84Z"/><path class="cls-1" d="M71.48,214.23a1.56,1.56,0,0,0-.34-1.94,1.08,1.08,0,0,0-1.45.29,1.36,1.36,0,0,0,.45,1.77A.93.93,0,0,0,71.48,214.23Z"/><path class="cls-1" d="M58.39,218.94a.74.74,0,0,0-.75-.68c-.73,0-1,.48-1.2,1.12.44.45.75,1,1.4.7A1,1,0,0,0,58.39,218.94Z"/><path class="cls-1" d="M61.33,234.5a.94.94,0,0,0-1.22.28.8.8,0,0,0,.21,1.19,1,1,0,0,0,1.24-.27A.84.84,0,0,0,61.33,234.5Z"/><path class="cls-1" d="M61.52,244c-.08.08,0,.47.1.49a.67.67,0,0,0,.61-.08.52.52,0,0,0,0-.73C61.91,243.44,61.64,243.87,61.52,244Z"/><path class="cls-1" d="M60.16,228.64a1.39,1.39,0,0,0-1.61-.37,1.08,1.08,0,0,0-.73,1.3c.07.47,0,1.48.61,1.72s.79-.38,1.08-.54C60.29,230.33,60.65,229.17,60.16,228.64Z"/><path class="cls-1" d="M64.23,205a.54.54,0,0,0-.64.11.55.55,0,0,0,.17.61c.13.1.65.19.77,0S64.38,205.08,64.23,205Z"/><path class="cls-1" d="M65.38,242.21a.58.58,0,0,0-.66.3.49.49,0,0,0,.15.67.52.52,0,0,0,.8-.21A.53.53,0,0,0,65.38,242.21Z"/><path class="cls-1" d="M64.37,227.76a.93.93,0,0,0,.32,1.21,1,1,0,0,0,1.34-.24,1,1,0,0,0-.29-1.22A1.18,1.18,0,0,0,64.37,227.76Z"/><path class="cls-2" d="M64.89,267.79a19.11,19.11,0,0,1-19.11-19H27.22a37.6,37.6,0,1,0,75.19,0H84A19.11,19.11,0,0,1,64.89,267.79Z"/><path class="cls-3" d="M39.06,260.15a.86.86,0,0,0-1,.57.79.79,0,0,0,.56.93.73.73,0,0,0,1-.45A.79.79,0,0,0,39.06,260.15Z"/><path class="cls-3" d="M41,267.76c0-.51-.13-1-.75-1s-.71.49-.69,1A.91.91,0,0,0,41,267.76Z"/><path class="cls-3" d="M37.09,268.44a.71.71,0,0,0,.43,1,.84.84,0,0,0,1.09-.45.79.79,0,0,0-.58-1A.72.72,0,0,0,37.09,268.44Z"/><path class="cls-3" d="M39.16,264.59a.65.65,0,0,0-.56-.8.81.81,0,0,0-1,.54.72.72,0,0,0,.6.89A.85.85,0,0,0,39.16,264.59Z"/><path class="cls-3" d="M36.74,272.49a1.58,1.58,0,0,0,1.06,2.09,1.23,1.23,0,0,0,1.5-.6.77.77,0,0,0,.17.07,1.6,1.6,0,0,0,1.7-1.11,1.69,1.69,0,0,0-1-1.88,1.65,1.65,0,0,0-1.7.46A1.6,1.6,0,0,0,36.74,272.49Z"/><path class="cls-3" d="M79.5,280a.78.78,0,0,0-.89.63,1,1,0,0,0,.23.75c.33.36.7.27,1.43-.29C80.15,280.61,80.18,280,79.5,280Z"/><path class="cls-3" d="M75.86,274.6c0-.2-.41-.4-.55-.39s-.42.17-.42.38.26.36.41.38S75.87,274.8,75.86,274.6Z"/><path class="cls-3" d="M36.1,268.76c-.14.15,0,.57.12.66a.48.48,0,0,0,.57,0,.46.46,0,0,0,0-.55C36.67,268.78,36.24,268.61,36.1,268.76Z"/><path class="cls-3" d="M39.86,276.45a1,1,0,0,0,0,.49c.51.46,1,.9,1.58,1.33a1.15,1.15,0,0,0,1.25-.95c.22-1.19-.08-1.42-1.16-1.87A1.36,1.36,0,0,0,39.86,276.45Z"/><path class="cls-3" d="M34.31,270.78q.48.68,1,1.32l0,0a.84.84,0,0,0-.14-1A1,1,0,0,0,34.31,270.78Z"/><path class="cls-3" d="M28.3,257.54h-.05c.23,1,.5,1.94.81,2.89.24-.6-.07-1.09.06-1.21s.89-.52.59-1.08A1.09,1.09,0,0,0,28.3,257.54Z"/><path class="cls-3" d="M41.87,269.17a1.37,1.37,0,0,0,.89,1.11c.33.05.89-.47,1-.89a.59.59,0,0,0-.51-.66,1,1,0,0,0-.2-.32.41.41,0,0,0-.47,0c-.06.06-.05.18,0,.31C42.14,268.79,41.9,268.94,41.87,269.17Z"/><path class="cls-3" d="M47,273.52a1.06,1.06,0,0,0-.82-1.32.91.91,0,0,0-.83,0,.92.92,0,0,0-.83-.45.84.84,0,0,0-.82,1,.87.87,0,0,0,.89.76l.22-.05a.8.8,0,0,0,.55.89A1.89,1.89,0,0,0,47,273.52Z"/><path class="cls-3" d="M75.9,282.05a1.13,1.13,0,0,0,1.1-1.23c0-.53-.52-.91-1.26-.91-.57,0-1,.34-.93.82S75.5,282,75.9,282.05Z"/><path class="cls-3" d="M41.63,278.41l.47.36A.58.58,0,0,0,41.63,278.41Z"/><path class="cls-3" d="M38.28,275.45l.15.15A.71.71,0,0,0,38.28,275.45Z"/><path class="cls-3" d="M46.5,278.82a1.47,1.47,0,0,0-1.89.53,1.6,1.6,0,0,0-.31,1c.7.46,1.42.9,2.15,1.31a1.25,1.25,0,0,0,.78-.59A1.9,1.9,0,0,0,46.5,278.82Z"/><path class="cls-3" d="M60.66,270.23a13,13,0,0,0-1.58.09.54.54,0,0,0-.25,1c.48.31.93.79,1.64.7l.53-.62c.77.06,1.45-.22,1.54-.66a.75.75,0,0,0-.42-.85C61.5,269.54,61.21,269.62,60.66,270.23Z"/><path class="cls-3" d="M50.48,275.59c.12-.22.05-.37-.17-.47a.3.3,0,0,0-.45.15c-.1.22-.08.37.15.48A.3.3,0,0,0,50.48,275.59Z"/><path class="cls-3" d="M48.09,268a.78.78,0,0,0-1.12.28.38.38,0,0,0,0,.24.82.82,0,0,0-.76.56,1.44,1.44,0,0,0,1,1.42,1.43,1.43,0,0,0,1.24-.92,1,1,0,0,0-.24-.74l0-.1A.89.89,0,0,0,48.09,268Z"/><path class="cls-3" d="M51,272.78a.27.27,0,0,0-.27-.21c-.08,0-.18.19-.17.25s.09.22.2.21A.24.24,0,0,0,51,272.78Z"/><path class="cls-3" d="M49.2,277.52c1.21.5.57,1.18,1.31,1.81a1.47,1.47,0,0,0,.4.2,1.06,1.06,0,0,0,1.34-1.37,6.88,6.88,0,0,0-.72-1.59,1.64,1.64,0,0,0-1.88-.43C49.3,276.3,48.71,276.91,49.2,277.52Z"/><path class="cls-3" d="M42.86,254.83c0-.07-.38-.13-.43-.06l0,0a.91.91,0,0,0-.17-.09,1.19,1.19,0,0,0-1.61.85,1.15,1.15,0,0,0,.63,1.43,1.7,1.7,0,0,0,1.83-1,.91.91,0,0,0-.21-.76A.66.66,0,0,0,42.86,254.83Z"/><path class="cls-3" d="M37.58,253.05a3,3,0,0,0-.22.59.38.38,0,0,0-.16.28c0,.47.47.75.74.86s.58-.17.67-.51a.81.81,0,0,0,0-.38c.23-.2.13-.7-.17-.91S37.76,252.71,37.58,253.05Z"/><path class="cls-3" d="M75,285a1,1,0,0,0-1-.63,1,1,0,0,0-1,1,.48.48,0,0,0,.05.17c.67-.14,1.33-.31,2-.5Z"/><path class="cls-3" d="M38.91,252.21a1,1,0,0,0,1.32-.41,1,1,0,0,0-.53-1.18c-.39-.12-1,.29-1.21,1C38.58,251.77,38.69,252.1,38.91,252.21Z"/><path class="cls-3" d="M72.84,268.55c0-.16-.28-.3-.44-.35s-.45.13-.45.36.4.31.56.32A.43.43,0,0,0,72.84,268.55Z"/><path class="cls-3" d="M72.3,276.09c.39-.06.42-.34.42-.64s-.33-.71-.7-.59a2.7,2.7,0,0,0-.63.46A.82.82,0,0,0,72.3,276.09Z"/><path class="cls-3" d="M68.07,282.51a.83.83,0,0,0,.71-.94.77.77,0,0,0-.75-.76.73.73,0,0,0-.83.78A.88.88,0,0,0,68.07,282.51Z"/><path class="cls-3" d="M71.8,279.83c.39-.06.42-.34.41-.64s-.33-.72-.69-.59a2.44,2.44,0,0,0-.63.46A.83.83,0,0,0,71.8,279.83Z"/><path class="cls-3" d="M68.25,285.15a1,1,0,0,0,1.11.9c.79,0,1.17-.45,1.12-1.27s-.5-1.26-1-1.21A1.71,1.71,0,0,0,68.25,285.15Z"/><path class="cls-3" d="M62.84,282.26a1.6,1.6,0,0,0,.89,1.43,1.25,1.25,0,0,0-.63.77,1.75,1.75,0,0,0,.41,1.93c.43,0,.87,0,1.31,0h.24a2,2,0,0,0,.38-.24.79.79,0,0,0,.09.23c.44,0,.88,0,1.31,0a.85.85,0,0,0,.13-.45.83.83,0,0,0-.82-.83l-.16,0a1.53,1.53,0,0,0-.88-1.37l-.09,0a1.42,1.42,0,0,0,.69-1.43,2.07,2.07,0,0,0-.14-.7.73.73,0,0,0,.58-.14,1.09,1.09,0,0,0,0-1.55,1.38,1.38,0,0,0-1.48-.29,1.1,1.1,0,0,0-.51,1.23A1.55,1.55,0,0,0,62.84,282.26Z"/><path class="cls-3" d="M61.69,284.86a4.84,4.84,0,0,0,0-.53.65.65,0,0,0,0-.13.76.76,0,0,0,.26-.59.79.79,0,0,0-.76-.89.86.86,0,0,0-.57.23l-.07,0a1.92,1.92,0,0,0-1.75.7s0,.07,0,.1h0a1.55,1.55,0,0,0-2.07-.51,1.67,1.67,0,0,0-.73,1h-.22a1.12,1.12,0,0,0-1,.44,1.08,1.08,0,0,0-1.08-.59,2.62,2.62,0,0,0-.39.52,35.18,35.18,0,0,0,4.24,1.11.77.77,0,0,0,0-.15l.39-.06a1.38,1.38,0,0,0,.78-.85,1.49,1.49,0,0,0,1.55,1.06l.55,0v.52c.74.09,1.5.15,2.26.18a1.24,1.24,0,0,0-.41-.89A5.49,5.49,0,0,0,61.69,284.86Z"/><path class="cls-3" d="M62.52,268.84c0-.12-.15-.53-.36-.54s-.34.4-.37.57.14.33.31.31A.58.58,0,0,0,62.52,268.84Z"/><path class="cls-3" d="M39.2,249.92a1,1,0,0,0,1.22,0,.81.81,0,0,0,0-1.09l-.07-.05H39.18A.9.9,0,0,0,39.2,249.92Z"/><path class="cls-3" d="M33.92,266.77a1.8,1.8,0,0,0,1.18,1.86c.48.12,1-.35,1.19-1s-.08-1.2-.91-1.43A1.19,1.19,0,0,0,33.92,266.77Z"/><path class="cls-3" d="M87.76,275.34c-.21.12-.13.69,0,.82a.48.48,0,0,0,.75-.58A.73.73,0,0,0,87.76,275.34Z"/><path class="cls-3" d="M77.75,284.13c.29-.1.57-.22.85-.33a.42.42,0,0,0-.22-.05A.78.78,0,0,0,77.75,284.13Z"/><path class="cls-3" d="M84.22,281c.77-.47,1.53-1,2.27-1.49a1.59,1.59,0,0,0-1.28-.78A1.41,1.41,0,0,0,84,280.19,1.67,1.67,0,0,0,84.22,281Z"/><path class="cls-3" d="M30,255.29A2,2,0,0,0,30,257.7a1.58,1.58,0,0,0,2.09-.07,1.56,1.56,0,0,0,.05-2.08A1.59,1.59,0,0,0,30,255.29Z"/><path class="cls-3" d="M33.45,262.32c-.91.21-1,.79-1.32.62s-.71-.84-1.3-.64c-.3.1-.49.64-.59,1.18.5,1.11,1,2.19,1.59,3.25a.79.79,0,0,1,0-.38c.14-.38.44-.77,1-.5s1.51,0,2-1.19S34.35,262.11,33.45,262.32Z"/><path class="cls-3" d="M33.16,252.72c-.24-.12-.88-.38-1.08-.13s.21.86.4,1,.55,0,.73-.17A.4.4,0,0,0,33.16,252.72Z"/><path class="cls-3" d="M32.43,259a.81.81,0,0,0-.92.59,1.27,1.27,0,0,0-.08.55,1.39,1.39,0,0,0,.1,1.46,1,1,0,0,0,1.29,0,1,1,0,0,0,.28-.78,2.7,2.7,0,0,0,.47-.51C33.86,259.93,33.18,259.06,32.43,259Z"/><path class="cls-3" d="M32.78,253.75a.52.52,0,0,0-.68.52c0,.26,0,1,.33,1s.82-.48.91-.74S33.2,253.86,32.78,253.75Z"/><path class="cls-3" d="M29.57,252.52a1.45,1.45,0,0,0-1.62.82c-.15.44.36,1.2,1,1.4a1,1,0,0,0,1.33-.57A1.35,1.35,0,0,0,29.57,252.52Z"/><path class="cls-3" d="M45.66,250.92c0,.08,0,.46.19.54a.19.19,0,0,0,.15,0c0-.26-.08-.51-.11-.76A.84.84,0,0,0,45.66,250.92Z"/><path class="cls-3" d="M44.18,250a1.23,1.23,0,0,0,1.31.62,1.12,1.12,0,0,0,.39-.13c-.05-.55-.09-1.11-.1-1.68H44.41A1.11,1.11,0,0,0,44.18,250Z"/><path class="cls-3" d="M30.44,249.36a1.1,1.1,0,0,0,.06.68,1.37,1.37,0,0,0-1,.43c-.54.6-.59,1.1-.15,1.52a1.43,1.43,0,0,0,1.8,0,1.51,1.51,0,0,0-.1-1.81.59.59,0,0,0-.28-.15c.38,0,.88.11,1-.23s-.19-.69-.4-1h-.72A.82.82,0,0,0,30.44,249.36Z"/><path class="cls-3" d="M65,276.29a1.69,1.69,0,0,0,1.71.31c.41-.23.85-.45.67-1.08-.12-.46-.19-.94-.28-1.41a.69.69,0,0,0-.65-.91c-.49,0-.83.27-1,.82a2.2,2.2,0,0,1-.3.86A1.22,1.22,0,0,0,65,276.29Z"/><path class="cls-3" d="M59,267.17c0,.17,0,.51.22.62s.46-.28.45-.37a.61.61,0,0,0-.13-.39l-.33-.09A.31.31,0,0,0,59,267.17Z"/><path class="cls-3" d="M52.31,264.36c-.17.6.14,1,.88,1.22a.86.86,0,0,0,1.09-.42,1.24,1.24,0,0,0,0-.6c-.48-.31-.93-.66-1.37-1A1.21,1.21,0,0,0,52.31,264.36Z"/><path class="cls-3" d="M50.42,266.59c-.64-.17-1.1.19-1.29,1a1.15,1.15,0,0,0,.69,1.21c.51.14,1.65-.39,1.74-.81S51.12,266.77,50.42,266.59Z"/><path class="cls-3" d="M34.35,257a1.35,1.35,0,0,0,.9,1.34,1,1,0,0,0,1.09-.54c.25-.79,0-1.55-.51-1.69A1.48,1.48,0,0,0,34.35,257Z"/><path class="cls-3" d="M54.52,275.75c-.39.58-.13.9-.42,1.25s-.19.63.1,1,.75,1,1.28.55.33-.83.18-1-.12-.57.08-.47.48,0,.76-.49a.86.86,0,0,0-.24-1.26A1.27,1.27,0,0,0,54.52,275.75Z"/><path class="cls-3" d="M57.11,267.52c-.32,0-.52.81-.45.92.19.3.38.74.8.77s.47-.5.42-.66C57.78,268.24,57.43,267.52,57.11,267.52Z"/><path class="cls-3" d="M57.36,275.15a.82.82,0,0,0,.81.83,1,1,0,0,0,.88-.83.81.81,0,0,0-.85-.79A.78.78,0,0,0,57.36,275.15Z"/><path class="cls-3" d="M55.21,279.82a.77.77,0,0,0-.91-.39c-.41.19-.36,1.24,0,1.35S55.39,280.24,55.21,279.82Z"/><path class="cls-3" d="M61,278.19a.3.3,0,0,0,.15-.59l-.11,0a.9.9,0,0,0-.9-.57.79.79,0,0,0-.7.92.83.83,0,0,0,.92.84A1,1,0,0,0,61,278.19Z"/><path class="cls-3" d="M58.83,281c.36-.21.34-.5-.13-1.23a.73.73,0,0,0-.82,1A.76.76,0,0,0,58.83,281Z"/><path class="cls-3" d="M57.35,282.31a1.11,1.11,0,0,0,.19-.84c-.2-.46-.65-.32-1-.22-.27.45-.28.87.19,1.13A.67.67,0,0,0,57.35,282.31Z"/><path class="cls-3" d="M51.6,281.46a2.26,2.26,0,0,0-1.93-.54,1.71,1.71,0,0,0-1,.48,1.59,1.59,0,0,0-.48,1.12,36.79,36.79,0,0,0,4.13,1.75,2.69,2.69,0,0,0-.14-.46,1.11,1.11,0,0,0,.5-1.08A1.37,1.37,0,0,0,51.6,281.46Z"/><path class="cls-3" d="M61.94,273.76a.53.53,0,0,0-.7.48c0,.4.31.91.65.81s.94-.32.9-.73S62.19,273.81,61.94,273.76Z"/><path class="cls-3" d="M54.75,271.29h0c-.13-.35-.24-.7-.53-.79a.84.84,0,0,0-.73.06,1.26,1.26,0,0,0-.66.42,1.76,1.76,0,0,0-.23,1.5,1.32,1.32,0,0,0,1.08.83h0a1.35,1.35,0,0,0,1.08.39,1.09,1.09,0,0,0,1.06-1.27C55.75,271.73,55.29,271.22,54.75,271.29Z"/><path class="cls-3" d="M44.54,257.76a.86.86,0,0,0-.68.87.63.63,0,0,0,.5.72c.62.17.93-.22,1.24-.72C45.31,258.16,45.16,257.62,44.54,257.76Z"/><path class="cls-3" d="M44.64,265.17a1.17,1.17,0,0,0,.47,1.22.62.62,0,0,0,.88-.33c.3-.62.31-1.12,0-1.29A1.4,1.4,0,0,0,44.64,265.17Z"/><path class="cls-3" d="M34.34,260.6a1.09,1.09,0,0,0,.78,1.45,1.33,1.33,0,0,0,1.8-.95,1.41,1.41,0,0,0-.77-1.73C35.52,259.12,34.62,259.74,34.34,260.6Z"/><path class="cls-3" d="M50.4,279.91c.1-.31.14-.65-.26-.82a.88.88,0,0,0-1.08.57c.16.18.33.5.6.64S50.3,280.27,50.4,279.91Z"/><path class="cls-3" d="M36.2,252.44a1.65,1.65,0,0,0-.58.26c-.12.57.12,1,.48,1a1,1,0,0,0,.68-.38C37,253,36.57,252.43,36.2,252.44Z"/><path class="cls-3" d="M48.82,271.75a.43.43,0,0,0-.34.43.61.61,0,0,0,.49.43c.19,0,.32-.31.3-.5S49,271.7,48.82,271.75Z"/><path class="cls-3" d="M47,275.72a1.34,1.34,0,0,0-.9,1.45,1.13,1.13,0,0,0,.53.71,1.58,1.58,0,0,0,2.14-.61,5.22,5.22,0,0,0-.37-1A1.23,1.23,0,0,0,47,275.72Z"/><path class="cls-3" d="M43.93,263.59c0-.09-.09-.29-.19-.32-.42-.15-.59-.48-.82-.81a.84.84,0,0,0-.78-.09,1,1,0,0,0-.46.67c0,.16.21.45.4.55a7.25,7.25,0,0,0,1.2.46C43.63,264.16,43.84,264,43.93,263.59Z"/><rect class="cls-4" x="16.02" y="207.64" width="22.24" height="7.43" transform="translate(-184.21 238.5) rotate(-90)"/><rect class="cls-4" x="37.28" y="212.72" width="12.09" height="7.43" transform="translate(-173.1 259.76) rotate(-90)"/><rect class="cls-4" x="40.34" y="199.59" width="38.35" height="7.43" transform="translate(-143.79 262.82) rotate(-90)"/><polygon class="cls-5" points="265.12 133.72 176.5 190.49 84.54 133.14 265.12 133.72"/><path class="cls-1" d="M158.08,185c.35-.23.25-.52.11-.81a.59.59,0,0,0-.95-.24,2.71,2.71,0,0,0-.4.74A.88.88,0,0,0,158.08,185Z"/><path class="cls-1" d="M141.14,202a.79.79,0,0,0-.32,1.11,1.19,1.19,0,0,0,1.47.64,1,1,0,0,0,.52-1.27A1.42,1.42,0,0,0,141.14,202Z"/><path class="cls-1" d="M135.44,203.4a.44.44,0,0,0,.17.47c.15.07.42-.12.54-.26s.1-.49-.13-.6S135.53,203.24,135.44,203.4Z"/><path class="cls-1" d="M135.14,215.2c-.08,0-.25,0-.3.09a.27.27,0,0,0,.13.36h0l.3-.18A.36.36,0,0,0,135.14,215.2Z"/><path class="cls-1" d="M134.26,214c1,.4,1.39.37,1.7-.11a.87.87,0,0,0-.05-1.08,1,1,0,0,0-1.24-.34C134.08,212.87,134.2,213.46,134.26,214Z"/><path class="cls-1" d="M118,225.78a.88.88,0,0,0-.08.58l1.31-.82A1.09,1.09,0,0,0,118,225.78Z"/><path class="cls-1" d="M119.2,213.79a.31.31,0,0,0,0,.32.27.27,0,0,0,.29.11.27.27,0,0,0,.11-.37A.28.28,0,0,0,119.2,213.79Z"/><path class="cls-1" d="M136.54,202.59a.9.9,0,0,0,.19-1.25.76.76,0,0,0-1.11-.25,1,1,0,0,0-.32,1.24A1,1,0,0,0,136.54,202.59Z"/><path class="cls-1" d="M135,210.46c.4.66.92.88,1.34.65a1,1,0,0,0,.39-1.39.84.84,0,0,0-1.23-.17C135.16,209.8,134.78,210.08,135,210.46Z"/><path class="cls-1" d="M166.3,185.67a1,1,0,0,0,.84,1.69.93.93,0,0,0,.45-1.19A1,1,0,0,0,166.3,185.67Z"/><path class="cls-1" d="M158.67,192.16a1.12,1.12,0,0,0,.48-1.75c-.35-.64-1.08-1-1.53-.71a1.83,1.83,0,0,0-.45,2.11A1,1,0,0,0,158.67,192.16Z"/><path class="cls-1" d="M159.88,181.45a.49.49,0,0,0,.59-.36c.06-.36-.41-.38-.59-.41s-.37.23-.35.31S159.73,181.42,159.88,181.45Z"/><path class="cls-1" d="M163.1,185.2a1.2,1.2,0,0,0,.48-1.7.84.84,0,0,0-.41-.38.75.75,0,0,0,0-.15.53.53,0,0,0-.55-.4.46.46,0,0,0-.48.44.51.51,0,0,0,0,.13l-.22.07a.88.88,0,0,0-.52,1.23A1.84,1.84,0,0,0,163.1,185.2Z"/><path class="cls-1" d="M159.46,194.44c-.07-.5-.58-.55-1.06-.44-.35.59-.24,1.05.26,1.3a10,10,0,0,0-.47,1.61,2.07,2.07,0,0,0,.8,1.48,1.89,1.89,0,0,0-1.09.35c-1.05.71-1.19,1.22-.7,2.16a1.71,1.71,0,0,0,.46.53l2.7-1.7a1.53,1.53,0,0,0-.21-.61,1.48,1.48,0,0,0-.38-.44,2.31,2.31,0,0,0,1.76-1.36,1.7,1.7,0,0,0-1-1.82C160,195.27,159.56,195.15,159.46,194.44Z"/><path class="cls-1" d="M99.84,237.07a.87.87,0,0,0-1.12.56,1.58,1.58,0,0,0-.11.87l1.7-1.08A1.64,1.64,0,0,0,99.84,237.07Z"/><path class="cls-1" d="M115.25,222a.89.89,0,0,0-1.17.45,1,1,0,0,0,.56,1.23,1,1,0,0,0,1.15-.51A1,1,0,0,0,115.25,222Z"/><path class="cls-1" d="M114.48,217.38a.88.88,0,0,0-.87.81.87.87,0,0,0,.55,1.05,1.35,1.35,0,0,0,1.47-.72C115.72,218.24,115.18,217.37,114.48,217.38Z"/><path class="cls-1" d="M122.76,216.49c.15-.05.51-.44.38-.63a.59.59,0,0,0-.62-.1c-.16.11-.47.34-.34.52A.6.6,0,0,0,122.76,216.49Z"/><path class="cls-1" d="M125,221.48c-.15-.29-.72-.31-1.16-.06a.49.49,0,0,0-.22.77,1.14,1.14,0,0,0,.35.37l1.06-.66A.65.65,0,0,0,125,221.48Z"/><path class="cls-1" d="M129.92,212.91a1.21,1.21,0,0,0-.86-1.66,1.68,1.68,0,0,0-.36-.08.9.9,0,0,0-.08-.23,1.24,1.24,0,0,0-1.52-.54,1.58,1.58,0,0,0-.63,1.75,1,1,0,0,0,.77.35,1.38,1.38,0,0,0,2.68.41Z"/><path class="cls-1" d="M116.74,220.89a1.06,1.06,0,0,0,.73,1.26l.1-.05a.83.83,0,0,0,.08.56.87.87,0,0,0,1.18.42.91.91,0,0,0,.41-1.1.81.81,0,0,0-.88-.45.9.9,0,0,0-.6-1.16A.79.79,0,0,0,116.74,220.89Z"/><path class="cls-1" d="M128,216c-.21.21-.46.46-.4.74a1,1,0,0,0,1.24.31c.35-.23.25-.52.1-.81A.58.58,0,0,0,128,216Z"/><path class="cls-1" d="M122.79,219.76c.31.13.81-.5.91-.74s-.2-.55-.42-.69a.43.43,0,0,0-.71.29C122.53,218.9,122.47,219.64,122.79,219.76Z"/><path class="cls-1" d="M118.35,216.57a.66.66,0,0,0,.24-.53c0-.12-.46-.42-.6-.35s-.14.54-.08.72S118.29,216.63,118.35,216.57Z"/><path class="cls-1" d="M116.94,227c-.16-.11-.33-.19-.44-.15s-.26.31-.3.53a1.12,1.12,0,0,0-1.24,0c-.85.62-1.25,1.06-1.28,1.63Z"/><path class="cls-1" d="M145,209.38l-.1.06.12-.07Z"/><path class="cls-1" d="M169.55,193.67c0,.07,0,.16,0,.26l1.2-.75a1,1,0,0,0-.54-.2C169.76,193,169.45,193.21,169.55,193.67Z"/><path class="cls-1" d="M148.24,205.59c-.26-.18-.14-1.61-1.1-2.11a1.85,1.85,0,0,0-2.42.78,3.07,3.07,0,0,0,.68,3.24c.72.49,1.55-.19,1.77-.09s.13.23.2.48l4.14-2.6a.9.9,0,0,0-.09-.32,1,1,0,0,0-1.24-.38.75.75,0,0,0-.38.69C149.12,205.39,148.44,205.73,148.24,205.59Z"/><path class="cls-1" d="M141.9,207.17a1.6,1.6,0,0,0-.57,2.34,1.62,1.62,0,0,0,2.09.53,1.63,1.63,0,0,0-1.52-2.87Z"/><path class="cls-1" d="M149.12,192.84a.92.92,0,0,0-.44,1.2,1,1,0,0,0,1.23.39.76.76,0,0,0,.37-1.09A.85.85,0,0,0,149.12,192.84Z"/><path class="cls-1" d="M169.1,186.89a.94.94,0,0,0-.16,1.88.91.91,0,0,0,1-1.17A1.22,1.22,0,0,0,169.1,186.89Z"/><path class="cls-1" d="M165,196.26a1,1,0,0,0-1.32-.36,1,1,0,0,0-.36,1.3.94.94,0,0,0,.5.34l1.28-.8A.8.8,0,0,0,165,196.26Z"/><path class="cls-1" d="M155.05,199.88a2.58,2.58,0,0,0-.74-1.86,1.9,1.9,0,0,0-1.06-.63,2,2,0,0,0-1.57.44c-.52.38-1.18.27-1.5.83a2.69,2.69,0,0,0,.29,3.23,2.18,2.18,0,0,0,1.92.81c.75-.1.9-1.06,1.59-1.46a2.84,2.84,0,0,0,.34-.22.79.79,0,0,0,.63.6c.42.11.84,0,.94-.44a1.4,1.4,0,0,0-.1-1.06A.67.67,0,0,0,155.05,199.88Z"/><path class="cls-1" d="M140.74,210.93a1.28,1.28,0,0,0-1.58-.26.78.78,0,0,0-.18,1.14,1.57,1.57,0,0,0,.85.81l.85-.53A1.52,1.52,0,0,0,140.74,210.93Z"/><path class="cls-1" d="M161.45,190.06c.05.28.39.7.61.7s.57-.33.76-.46c0-.08,0-.12,0-.19a.82.82,0,0,0,.28-.11h0a1.69,1.69,0,0,0,.4.79h0a.92.92,0,0,0-.34.65c-.18.95.08,1.31,1.05,1.42l.33,0a6.26,6.26,0,0,0,.57.45,1.44,1.44,0,0,0,1.24.05c0,1,.12,1.16,1.06,1a1.42,1.42,0,0,0,1.35-.12c.54-.29.88-1.05.66-1.45a1.65,1.65,0,0,0-1.84-.69.62.62,0,0,0-.21.15,1.6,1.6,0,0,0-.08-.76,2.91,2.91,0,0,0-1.26-1.48,1.34,1.34,0,0,1-.48-.55,1.15,1.15,0,0,0-1.79-.72.6.6,0,0,0-.09-.33,1,1,0,0,0-1.3-.11,1.08,1.08,0,0,0-.58,1.18A.45.45,0,0,0,161.45,190.06Z"/><path class="cls-1" d="M129.09,198.34a.69.69,0,0,0-1-.41.84.84,0,0,0-.5,1.15.86.86,0,0,0,1.08.44A.89.89,0,0,0,129.09,198.34Z"/><path class="cls-1" d="M139.49,205.11a1.39,1.39,0,0,0-1.78-.46,1.5,1.5,0,0,0-.64,1.81,1.47,1.47,0,0,0,1.78.71A2,2,0,0,0,139.49,205.11Z"/><path class="cls-1" d="M132.45,217.11a1,1,0,0,0-.39-1.33,1.28,1.28,0,0,0-1.62.57.88.88,0,0,0,.23,1.25A1.47,1.47,0,0,0,132.45,217.11Z"/><path class="cls-1" d="M174.63,187.7a6.08,6.08,0,0,0-1,.58,1.78,1.78,0,0,0-1.72-1.23,1.81,1.81,0,0,0-1.44,1.64c0,.83.76,1.41,1.83,1.39a1.21,1.21,0,0,0,.34-.06,1.62,1.62,0,0,0,.23.75c.23.35.53.54.9.38a10,10,0,0,0,1-.53s0,0,0,0l2.1-1.32a.75.75,0,0,0-.65-.31h0a.81.81,0,0,1,0-.11A1.13,1.13,0,0,0,174.63,187.7Z"/><path class="cls-1" d="M138,209.63c-.08.14-.12.63.08.73s.58-.2.64-.35.05-.48-.15-.58S138.07,209.5,138,209.63Z"/><path class="cls-1" d="M163.91,186.47c0-.2-.09-.58-.3-.55a.6.6,0,0,0-.46.42c0,.16.16.65.38.62A.57.57,0,0,0,163.91,186.47Z"/><path class="cls-1" d="M109.4,217a.86.86,0,0,0,1.28-.37,1.53,1.53,0,0,0-.47-2,1.37,1.37,0,0,0-1.52.81A1.24,1.24,0,0,0,109.4,217Z"/><path class="cls-1" d="M132.2,213.09c.23,0,.59-.36.59-.56a1.37,1.37,0,0,0-.37-1c-.56-.43-.9.12-1.34.47C131.28,212.65,131.52,213.17,132.2,213.09Z"/><path class="cls-1" d="M128.7,203.23c.33.57,1.05.89,1.47.64a1.75,1.75,0,0,0,.55-2.11,1.1,1.1,0,0,0-1.47-.23A1.21,1.21,0,0,0,128.7,203.23Z"/><path class="cls-1" d="M133.09,207.21c.86-.45,1.29-1.2,1-1.74a1.67,1.67,0,0,0-1.89-.46,1.54,1.54,0,0,0-.39,1.69A1.14,1.14,0,0,0,133.09,207.21Z"/><path class="cls-1" d="M129.71,186a.77.77,0,0,0,.33-.63c0-.25-.28-.61-.49-.66-.57-.15-1,.49-.94.8A.8.8,0,0,0,129.71,186Z"/><path class="cls-1" d="M134.56,188.35a.27.27,0,0,0,.11-.36.28.28,0,0,0-.36-.07c-.08,0-.09.26-.05.32A.28.28,0,0,0,134.56,188.35Z"/><path class="cls-1" d="M128.74,191.73a.92.92,0,0,0,.44-1.28,1,1,0,0,0-1.32-.34.91.91,0,0,0-.35,1.3A1,1,0,0,0,128.74,191.73Z"/><path class="cls-1" d="M134.21,201.1c.56-.3.65-.92.25-1.65a1,1,0,0,0-1.26-.56,1.87,1.87,0,0,0-.72,1.83A1.16,1.16,0,0,0,134.21,201.1Z"/><path class="cls-1" d="M135.14,193.44c1.4-.09,1.11.87,2.12,1.14a1.45,1.45,0,0,0,.48,0,1.13,1.13,0,0,0,.65-1.95,7,7,0,0,0-1.45-1.2,1.77,1.77,0,0,0-2,.47C134.66,192.21,134.38,193.08,135.14,193.44Z"/><path class="cls-1" d="M134.34,197.93a.88.88,0,0,0,.12-.8c-.09-.2-.57-.62-.84-.52s-.29.76-.24,1A.64.64,0,0,0,134.34,197.93Z"/><path class="cls-1" d="M127.74,206.34a1,1,0,0,0,.37-1.22,1,1,0,0,0-1.34-.34.83.83,0,0,0-.3,1.12A.9.9,0,0,0,127.74,206.34Z"/><path class="cls-1" d="M122.33,208.42c.18-.25-.12-.55-.2-.57a.77.77,0,0,0-.57.12.57.57,0,0,0,.08.47C121.81,208.51,122.15,208.66,122.33,208.42Z"/><path class="cls-1" d="M119.3,202.54c.39-.2.33-.93.22-1.3s-.93-.86-1.34-.65-.19,1.27,0,1.6A1,1,0,0,0,119.3,202.54Z"/><path class="cls-1" d="M122,214.72a1.41,1.41,0,0,0,.46-.76.44.44,0,0,0,.31-.21c.12-.31-.44-.87-.69-1.09s-.65,0-.84.33h0a.86.86,0,0,0-.24,1.23C121.21,214.74,121.63,214.94,122,214.72Z"/><path class="cls-1" d="M126.23,221a1,1,0,0,0,.16.06l2.65-1.66a.87.87,0,0,0-.28-.29,1.55,1.55,0,0,0-.79-.94,1.67,1.67,0,0,0-2.14.63A1.69,1.69,0,0,0,126.23,221Z"/><path class="cls-1" d="M124,198.22a.8.8,0,0,0,.36-1.09,1,1,0,0,0-1.29-.47,1,1,0,0,0-.32,1.24A1,1,0,0,0,124,198.22Z"/><path class="cls-1" d="M123.2,204c-.18.23-.09.61,0,.92a.53.53,0,0,0,.77.32s0,0,0,.06a.92.92,0,0,0,1.11.42.68.68,0,0,0,.58-.75c0-.69-.53-.88-1.15-1l-.17.19C124.11,203.85,123.37,203.78,123.2,204Z"/><path class="cls-1" d="M121.46,223.12c.8.35,1.32.24,1.61-.36a1.54,1.54,0,0,0-.55-1.85,1.66,1.66,0,0,0-1.84.7C120.45,222.07,120.85,222.84,121.46,223.12Z"/><path class="cls-1" d="M150.72,178.25a2.15,2.15,0,0,0,.22-2.86c-.52-.52-1.28.08-1.39.6s-.14.33-.66.5a.92.92,0,0,0-.57,1.5A1.83,1.83,0,0,0,150.72,178.25Z"/><path class="cls-1" d="M145,195.44a1.77,1.77,0,0,0-.22,1.32l-.22.1c-.86.4-.88,1.11-.7,1.91-.48.17-1.11.13-1.07.87a.84.84,0,0,0,.7.84c.72.14.89-.44,1.08-1l.94.1c0,.45-.05.83-.08,1.23a5.53,5.53,0,0,0,.82.52,1.84,1.84,0,0,0,1.64-.39,1.31,1.31,0,0,0-.45-1.57c-.17-.16-.36-.3-.55-.45a3,3,0,0,0,.05-1.66,4.15,4.15,0,0,0,.34-.24,1.62,1.62,0,0,0,0-2.09A1.68,1.68,0,0,0,145,195.44Z"/><path class="cls-1" d="M149.77,181.11a1,1,0,0,0-.54,1.25,2.36,2.36,0,0,1,.12,1,1.3,1.3,0,0,0,.48,1.46,1.82,1.82,0,0,0,1.8-.51c.28-.41.61-.84.14-1.36s-.63-.82-.94-1.23A.75.75,0,0,0,149.77,181.11Z"/><path class="cls-1" d="M151.17,189.55a1.64,1.64,0,0,0-.6,2,1.74,1.74,0,0,0,1.54,1,1.3,1.3,0,0,0-.24,1c.19,1.18,1,1.78,1.71,1.7a2,2,0,0,0,1.36-1.16.82.82,0,0,0,1,.26,1,1,0,0,0,.32-1.23.89.89,0,0,0-1.18-.42l-.15.1a1.63,1.63,0,0,0-1.5-.91h-.11a1.53,1.53,0,0,0,0-1.71,2.12,2.12,0,0,0-.46-.61.78.78,0,0,0,.49-.4,1.17,1.17,0,0,0-.72-1.51,1.5,1.5,0,0,0-1.57.42A1.19,1.19,0,0,0,151.17,189.55Z"/><path class="cls-1" d="M155.75,189.35a.9.9,0,0,0,.24-1.24.84.84,0,0,0-1.09-.39.8.8,0,0,0-.43,1.16A1,1,0,0,0,155.75,189.35Z"/><path class="cls-1" d="M146.24,185.06c.24-.21.76-.76.53-1.14s-.82-.21-1.09-.13a.57.57,0,0,0-.45.79C145.38,185,146,185.31,146.24,185.06Z"/><path class="cls-1" d="M143.67,179.28a.63.63,0,0,0,.25-.53c0-.12-.4-.44-.61-.35s-.13.54-.08.72S143.52,179.38,143.67,179.28Z"/><path class="cls-1" d="M138.75,198.05a1.24,1.24,0,1,0,2.18-1.19,1.43,1.43,0,0,0-1.69-.71A1.74,1.74,0,0,0,138.75,198.05Z"/><path class="cls-1" d="M141.6,194.18c.38-.06.81-1,.44-1.35a.84.84,0,0,0-1.07,0C140.67,193.26,141.22,194.25,141.6,194.18Z"/><path class="cls-1" d="M139.2,181.5c.41-.18.22-.7.1-.83s-.93-.78-1.24-.64-.11,1,0,1.1C138.39,181.33,138.79,181.67,139.2,181.5Z"/><path class="cls-1" d="M144.7,194.6c.19,0,.56-.22.58-.37a1.15,1.15,0,0,0-.21-.91c-.41-.35-.77,0-1.09.27C143.94,194.15,144.12,194.56,144.7,194.6Z"/><path class="cls-1" d="M146.5,189.37a1.06,1.06,0,0,0,.22-1.36,1,1,0,0,0-1.26-.24.87.87,0,0,0-.24,1.23A.88.88,0,0,0,146.5,189.37Z"/><path class="cls-1" d="M138.7,187.14a1.17,1.17,0,0,0,.42-1.73c-.38-.66-1.07-.94-1.56-.62a1.74,1.74,0,0,0-.55,2.11A1.26,1.26,0,0,0,138.7,187.14Z"/><path class="cls-1" d="M143.09,187.71a1.07,1.07,0,0,0,.46-1.21.88.88,0,0,0-1.2-.37.83.83,0,0,0-.44,1.16A.87.87,0,0,0,143.09,187.71Z"/><path class="cls-1" d="M89.85,242.48c0,.19,0,.38,0,.57a2.12,2.12,0,0,0,.2.85l2.6-1.63a1.79,1.79,0,0,0-1-.46l-.59-.06a10.39,10.39,0,0,0,.13-1.07c0-.67-.21-.93-.86-1a1.33,1.33,0,0,0-1.42.62,1.18,1.18,0,0,0,.15,1.43A5.58,5.58,0,0,0,89.85,242.48Z"/><path class="cls-1" d="M86.38,244.9a.78.78,0,0,0,1-.91.82.82,0,0,0-1-.42A.76.76,0,0,0,86.38,244.9Z"/><path class="cls-1" d="M91,231.84a1,1,0,0,0-.39-1.24,1.25,1.25,0,0,0-1.57.32,1.45,1.45,0,0,0,.33,1.72C89.87,232.93,90.62,232.56,91,231.84Z"/><path class="cls-1" d="M94.1,236a1.39,1.39,0,0,0,1.61-.26,1.56,1.56,0,0,0-.57-1.86,1.42,1.42,0,0,0-1.71.63C93.11,235.06,93.34,235.57,94.1,236Z"/><path class="cls-1" d="M95.49,226.09c-.15-.54-.16-1.12-.83-1.19a.77.77,0,0,0-.89.62,1,1,0,0,0,.19.84C94.47,226.84,95,226.59,95.49,226.09Z"/><path class="cls-1" d="M94.84,240a1.16,1.16,0,0,0-.06.9l2.15-1.35a.48.48,0,0,0-.11-.09A1.58,1.58,0,0,0,94.84,240Z"/><path class="cls-1" d="M156.8,181.14c.35-.23.25-.52.1-.81a.58.58,0,0,0-.94-.24,2.57,2.57,0,0,0-.4.74A.88.88,0,0,0,156.8,181.14Z"/><path class="cls-1" d="M118,209c.14-.07.5-.4.35-.61a.62.62,0,0,0-.69-.14.41.41,0,0,0,.34.75Z"/><path class="cls-1" d="M109.14,224.54a1.32,1.32,0,0,0,1.86-.64,1.78,1.78,0,0,0-.93-2.27,1.81,1.81,0,0,0-2,.87C107.72,223.26,108.17,224.1,109.14,224.54Z"/><path class="cls-1" d="M109.69,210.1a.78.78,0,0,0,1.1-.31.9.9,0,0,0-.36-1.12.75.75,0,0,0-1.1.3A.9.9,0,0,0,109.69,210.1Z"/><path class="cls-1" d="M107.51,232.45a1.23,1.23,0,0,0,.84-2.28,1.51,1.51,0,0,0-1.87.5C106.28,231.1,106.93,232.23,107.51,232.45Z"/><path class="cls-1" d="M116.26,212.47a1,1,0,0,0,.34,1.24,1,1,0,0,0,1.12-.38,1.1,1.1,0,0,0-.35-1.26A.89.89,0,0,0,116.26,212.47Z"/><path class="cls-1" d="M114.16,207.77c.45.69,1.57.93,2,.42a1.29,1.29,0,0,0,.21-1.53,1,1,0,0,0-1.28-.58c-.44.11-1.39.08-1.56.72S114,207.5,114.16,207.77Z"/><path class="cls-1" d="M98.42,231.79a1.2,1.2,0,0,0,1.63-.74,1.55,1.55,0,0,0-.9-2.12,1.56,1.56,0,0,0-1.88.82A1.72,1.72,0,0,0,98.42,231.79Z"/><path class="cls-1" d="M112.06,227.51c.57.25,1.09,0,1.45-.82.29-.63.15-1.22-.33-1.41a2.28,2.28,0,0,0-1.91.53A1.27,1.27,0,0,0,112.06,227.51Z"/><path class="cls-1" d="M100.28,221.9c-.55.78-.47,1.22.35,1.73.62.38,1.23.78,1.83,1.17-.63,1.18-.57,1.32.53,1.64.55-.43.53-.91.13-1.47,1.07-1.26.67-2.14-1.06-2.48a1.19,1.19,0,0,1-.1-.32c0-.5-.37-.65-.8-.72A.85.85,0,0,0,100.28,221.9Z"/><path class="cls-1" d="M100.48,220.73c.28-.6,0-.88-.27-1s-.77-.17-.87.24,0,.8.25.9S100.25,220.77,100.48,220.73Z"/><path class="cls-1" d="M102.25,211.39c.2-.3-.22-.51-.37-.62s-.43.06-.45.13a.68.68,0,0,0,.13.57A.49.49,0,0,0,102.25,211.39Z"/><path class="cls-1" d="M105.29,227.89c.49.24.9-.38,1.14-.63s.06-.74-.35-.95-.83-.13-.93.33S104.8,227.66,105.29,227.89Z"/><path class="cls-1" d="M103.09,217.72c.06-.18.16-.56,0-.63a.59.59,0,0,0-.58.19c-.09.14-.14.66.07.73A.58.58,0,0,0,103.09,217.72Z"/><path class="cls-1" d="M102.1,233.85a1.42,1.42,0,0,0,.83,1.93h0l2.48-1.55a1.81,1.81,0,0,0-1.07-1.53A2.08,2.08,0,0,0,102.1,233.85Z"/><path class="cls-1" d="M103.22,214.58a.5.5,0,0,0,.68-.34.55.55,0,0,0-.34-.6.47.47,0,0,0-.62.2A.5.5,0,0,0,103.22,214.58Z"/><path class="cls-5" d="M94,248.47c1.79.13,2.8.2,4.55.23,4.16.07,8.32.16,12.47.17l18.36.08c7.47,0,14.93,0,22.39,0,4,0,8.09.11,12.12,0s8.27-.35,12.41-.37c8.29-.06,16.59,0,24.88.07q11.55.08,23.09.13l19.53.07c4.7,0,9.4,0,14.1,0,2.22,0,4.44.06,6.65,0h.29a1.24,1.24,0,0,0,1.22-1.22V237c0-8.5.07-17,.14-25.49q.11-15.47.11-30.93c0-8.87.06-17.73-.08-26.6l-.15-8.8c0-.89,0-1.79-.08-2.68,0-.3,0-.59,0-.89a2.64,2.64,0,0,0,0-.29c0-.13,0-.25,0-.37-.14-.82-.09.39,0,.16,0,0,0-.13,0-.18a1.08,1.08,0,0,0-2.15,0v.2c.05,0,.15-.74.08-.31,0,.15-.07.31-.09.48s0,.22,0,.33c0,.7-.08,1.4-.1,2.1-.08,2.57-.08,5.15-.13,7.72-.13,8.47-.15,16.93-.13,25.41,0,10.31,0,20.61.09,30.92.07,8.89.17,17.78.17,26.67v8.87a26.39,26.39,0,0,0,0,4.17,1.08,1.08,0,0,1,0,.18l1.22-1.22h-4.55l-12.47,0-18.36.06q-11.19,0-22.39.1c-8.18.05-16.35.18-24.53.15s-16.58-.44-24.88-.44c-7.7,0-15.4,0-23.09,0l-19.52.08q-7.07,0-14.11.14c-1.45,0-2.92,0-4.37.07-.45,0,0,0-.38.05l-.39,0-.64.05-.87.06-.29,0a.82.82,0,0,0,0,1.64Z"/><circle class="cls-6" cx="252.18" cy="236.25" r="45.32"/><path class="cls-7" d="M267.85,278.54c.39,0,1.36-.24,1.44-.66s-.87-.87-1.24-1-.81.15-.83.71S267.34,278.56,267.85,278.54Z"/><path class="cls-7" d="M213.47,246.13a1.93,1.93,0,0,0,.22.83c.51.94,1.72,1.12,2.89.43a1.79,1.79,0,0,0,.67-2.56,2.26,2.26,0,0,0-1.79-1,1.52,1.52,0,0,0-.89-.45,1.52,1.52,0,0,0-1.1,2.73Z"/><path class="cls-7" d="M265.3,261.22c-.49.22-.83.95-.49,1.28s1,.86,1.43.55.18-1,.07-1.35A.71.71,0,0,0,265.3,261.22Z"/><path class="cls-7" d="M274.08,270.58a.65.65,0,0,0,.64.89c.35,0,1.25-.19,1.29-.49s-.59-.9-.91-1.08S274.24,270,274.08,270.58Z"/><path class="cls-7" d="M270.48,275.07c.32.4.67.26,1,.05a.72.72,0,0,0,.22-1.18,3.33,3.33,0,0,0-.94-.42A1.1,1.1,0,0,0,270.48,275.07Z"/><path class="cls-7" d="M276.17,265.77c-.65-.09-.42-.15-.67-.77s-1-1.33-1.88-.56a2.23,2.23,0,0,0-.11,2.95,2.6,2.6,0,0,0,3.5,0C277.6,266.73,276.81,265.86,276.17,265.77Z"/><path class="cls-7" d="M272.31,259.12c.15-.05.51-.52.38-.77s-.68-.12-.89,0-.29.37-.16.55A.75.75,0,0,0,272.31,259.12Z"/><path class="cls-7" d="M268.91,252.17c-.22.42-.6.93-.35,1.42s.87.21,1,0c.29-.32.88-1.2.68-1.57S269,252,268.91,252.17Z"/><path class="cls-7" d="M265.81,271.39c-.27-.07-.54.22-.61.41s.05.78.31.83.63-.4.66-.59S266.08,271.45,265.81,271.39Z"/><path class="cls-7" d="M267.18,266.14a1.6,1.6,0,0,0-1.74.71,2.22,2.22,0,0,0,.77,2.16c.53.31,1.08.67,1.68.06.44-.45.94-.84,1.42-1.25a.92.92,0,0,0,.62-1.34,1.2,1.2,0,0,0-1.58-.56A2.89,2.89,0,0,1,267.18,266.14Z"/><path class="cls-7" d="M266.89,277a.72.72,0,0,0,.21-1.18,3.35,3.35,0,0,0-.93-.41,1.07,1.07,0,0,0-.28,1.54C266.21,277.36,266.55,277.22,266.89,277Z"/><path class="cls-7" d="M279.45,270.71c.17-.11.16-.51.1-.73s-.44-.43-.7-.28-.1.66,0,.86A.56.56,0,0,0,279.45,270.71Z"/><path class="cls-7" d="M257.48,276.42a1.26,1.26,0,0,0-.3,1.86,1.36,1.36,0,0,0,2.18.44c.76-.49,1.11-1.41.74-1.93A2.23,2.23,0,0,0,257.48,276.42Z"/><path class="cls-7" d="M235.1,267.11c-.62,1.15.27,3,1.07,3.53a3.15,3.15,0,0,0,2.24.62,2.91,2.91,0,0,0,1.41-.77,1,1,0,0,0,1.09,0,1.27,1.27,0,0,0,.37-1.54,1,1,0,0,0-.88-.41c-.19-.81-.66-1.62-.51-1.88s2-.31,2.48-1.52a2.26,2.26,0,0,0-1.15-2.89c-1-.59-3.37.19-3.91,1.11s.37,1.87.26,2.15S235.73,266,235.1,267.11Z"/><path class="cls-7" d="M220.87,263.6a2.2,2.2,0,0,0-.67,2.19,1.72,1.72,0,0,0,.66,1,1,1,0,0,0-.14.39c-.08.55.41.8.95.85s.83.11,1.24.16c1,.13,2.73-1.7,2.52-2.68a.4.4,0,0,0-.13-.25c-.83-.46-.56-1.21-.56-1.91a1.1,1.1,0,0,0-1.42-1.17l-.23.05a1,1,0,0,0-.12-.52,4.69,4.69,0,0,0-.92-.85l0,0-1.36.83a6.93,6.93,0,0,0,.32,1,1.14,1.14,0,0,0,.94.64,1.87,1.87,0,0,0,0,.34A1.4,1.4,0,0,0,220.87,263.6Z"/><path class="cls-7" d="M261.91,274.67a1,1,0,0,0,.37-1.37,1,1,0,0,0-1.44-.43,1.17,1.17,0,0,0-.47,1.6A1.1,1.1,0,0,0,261.91,274.67Z"/><path class="cls-7" d="M227.94,245.55c0-.1-.21-.27-.3-.26s-.29.08-.3.23a.32.32,0,0,0,.3.35C227.84,245.87,227.93,245.65,227.94,245.55Z"/><path class="cls-7" d="M225.83,250.58a1.45,1.45,0,0,0,1.5,1.59,1.93,1.93,0,0,0,.95-.18,1,1,0,0,0,.42.39,1.07,1.07,0,0,0,1.31-.16,1.19,1.19,0,0,0,.31-1.53,1.35,1.35,0,0,0-1.49-.46A2.19,2.19,0,0,0,227.2,249C226.55,248.93,225.84,249.75,225.83,250.58Z"/><path class="cls-7" d="M216,238.05c.78,0,1.35-.32,1.42-.92a2.31,2.31,0,0,0-1.41-2c-.86-.09-1.45.5-1.53,1.53C214.38,237.47,215,238,216,238.05Z"/><path class="cls-7" d="M219.26,249.31c-.36-.4-.74-.64-1.15-.52-.48-.25-1.31-.23-1.45.1s.53,1.52,1.1,1.35c0,0,0,0,.05,0a.9.9,0,0,0,.51.28C219.08,250.52,219.15,249.88,219.26,249.31Z"/><path class="cls-7" d="M213.29,241.26c-.18-.4-.67-.12-.88,0s-.24.49-.17.55a.85.85,0,0,0,.67.26A.62.62,0,0,0,213.29,241.26Z"/><path class="cls-7" d="M216.68,251.35a1.72,1.72,0,0,0-1.45.13.82.82,0,0,0-1,.32.86.86,0,0,0,0,.85l.13.1a2.06,2.06,0,0,0,1.64,1.93,2,2,0,0,0,2.2-1.1C218.49,252.87,217.67,251.87,216.68,251.35Z"/><path class="cls-7" d="M234,230.41a.76.76,0,0,0,.11-.86.71.71,0,0,0-.68-.17.65.65,0,0,0-.2.64C233.27,230.2,233.7,230.61,234,230.41Z"/><path class="cls-7" d="M247.12,234.82a1.3,1.3,0,0,0-.29,1.56,1,1,0,0,0,1.37.34,1.1,1.1,0,1,0-1.08-1.9Z"/><path class="cls-7" d="M227.36,232.34a.34.34,0,0,0,0-.45c0-.09-.33-.08-.4,0s-.18.25-.1.37A.32.32,0,0,0,227.36,232.34Z"/><path class="cls-7" d="M228.86,266.56a1.77,1.77,0,0,0-1.15.55,1.22,1.22,0,0,0-.66,0,.64.64,0,0,0-.25,1.09l.1.13a1.2,1.2,0,0,0-1,1.19c-.07,1.4.85,1.62,1.27,1.6s1.07.58.63.76-.67.72-.26,1.84a2.88,2.88,0,0,0,.5.87l.74.46a2.09,2.09,0,0,0,1,0h0l.1,0h0a2.62,2.62,0,0,0,1.66-3.18,4,4,0,0,0-1.14-1.78,1.34,1.34,0,0,0-.31-.87,1.24,1.24,0,0,0-.3-.5c0-.11.11-.25.19-.56C230.21,267.49,230.05,266.49,228.86,266.56Z"/><path class="cls-7" d="M248.37,247.85a.77.77,0,0,0-.29,1.19,1.09,1.09,0,0,0,1,.09c.24-.13.7-.76.56-1.08S248.67,247.77,248.37,247.85Z"/><path class="cls-7" d="M248.3,254.45a1.52,1.52,0,1,0,1.64,2.55,1.75,1.75,0,0,0,.72-2.12A2.12,2.12,0,0,0,248.3,254.45Z"/><path class="cls-7" d="M233.37,242.82a1.14,1.14,0,0,0,1-.06,1,1,0,0,0-.2-1.5,1,1,0,0,0-1.24.81A.91.91,0,0,0,233.37,242.82Z"/><path class="cls-7" d="M226.5,235.34a1.81,1.81,0,0,0,1.85.43,1.12,1.12,0,0,0,.19-1.55A1,1,0,0,0,227,234C226.41,234.43,226.21,235,226.5,235.34Z"/><path class="cls-7" d="M217.67,224.6c.48.08,1.23-.8,1.11-1.15s-.58-.5-1-.59a.65.65,0,0,0-.86.68C217,224,217.07,224.51,217.67,224.6Z"/><path class="cls-7" d="M208.9,231.5c-.11,1.17.38,2.11,1.13,2.16a2,2,0,0,0,1.73-1.64,1.85,1.85,0,0,0-1.06-1.39l.11,0c.23-.19.52-.67.43-.89a1,1,0,0,0-.94-.3c-.23.08-.71.77-.57,1a.33.33,0,0,0,.14.12A1.36,1.36,0,0,0,208.9,231.5Z"/><path class="cls-7" d="M217.47,215.56c.33,0,.59-.44.61-.63a.72.72,0,0,0-.45-.54.66.66,0,0,0-.55.39C217.05,215,217.15,215.57,217.47,215.56Z"/><path class="cls-7" d="M218.82,244.66a1.37,1.37,0,0,0,1.23,2,.83.83,0,0,0,0,.35,1.67,1.67,0,0,0,.78,1.07.51.51,0,0,0,.74-.32,1.16,1.16,0,0,0-.32-.89c-.09-.12-.16-.26-.26-.38a9.74,9.74,0,0,0,1.6-.55,2.17,2.17,0,0,0,.86-2.39c-.16-.48-.87-1.35-1.74-.8,0,.08-.09.15-.13.22-.38-.28-1.21-.37-1.41-.07a1.06,1.06,0,0,0-.14.86,1.56,1.56,0,0,0-.9.42A1.72,1.72,0,0,0,218.82,244.66Z"/><path class="cls-7" d="M253.26,257.59c.11.46,1.34.91,1.7.42a1,1,0,0,0-.15-1.29C254.32,256.38,253.15,257.13,253.26,257.59Z"/><path class="cls-7" d="M259.56,263.18a1.31,1.31,0,0,0,1.68.15,1.18,1.18,0,0,0,.19-1.56,1.07,1.07,0,0,0-1.53-.19A1.09,1.09,0,0,0,259.56,263.18Z"/><path class="cls-7" d="M252.93,272.33a2.45,2.45,0,0,0,1.52,1.55,1,1,0,0,0-.22,1.3,1.16,1.16,0,0,0,1.53.28,1.09,1.09,0,0,0,.41-1.48.76.76,0,0,0-.13-.17,2,2,0,0,0,1-1.91.71.71,0,0,0,0-.14,1.86,1.86,0,0,0,2.09-.15,2.93,2.93,0,0,0,.71-.62.94.94,0,0,0,.53.57,1.44,1.44,0,0,0,1.78-1,1.82,1.82,0,0,0-.64-1.87,1.46,1.46,0,0,0-1.74.22,2,2,0,0,0-2.53-.55,2.1,2.1,0,0,0-1.06,2,1.57,1.57,0,0,0-1.29-.21C253.43,270.43,252.77,271.42,252.93,272.33Z"/><path class="cls-7" d="M260.25,248.6a.34.34,0,0,0,.05-.44c-.05-.09-.33-.09-.4,0a.29.29,0,1,0,.35.47Z"/><path class="cls-7" d="M261.62,253.46a1.44,1.44,0,0,0,2.15.37c.78-.53,1.06-1.39.63-2a2.13,2.13,0,0,0-2.63-.5A1.56,1.56,0,0,0,261.62,253.46Z"/><path class="cls-7" d="M253.52,262.1a1.4,1.4,0,0,0,1.09-.34c.39-.52-.06-.94-.42-1.3-.69,0-1.18.25-1.17,1C253,261.66,253.33,262.09,253.52,262.1Z"/><path class="cls-7" d="M246.09,240.86a1.05,1.05,0,0,0-.45,1.35,1.1,1.1,0,0,0,1.48.46.84.84,0,0,0,.42-1.3A1,1,0,0,0,246.09,240.86Z"/><path class="cls-7" d="M252.42,252.33a1.69,1.69,0,0,0,0,.59,1.38,1.38,0,0,0,2.44.62,8.61,8.61,0,0,0,1.34-1.87,2.15,2.15,0,0,0-.75-2.43c-.41-.29-1.49-.56-1.86.4C253.85,251.35,252.66,251.07,252.42,252.33Z"/><path class="cls-7" d="M244.5,247a1.42,1.42,0,0,0-.31,2.14c.41.66,1.18.72,2,.17a1.18,1.18,0,0,0,.58-1.58A2.29,2.29,0,0,0,244.5,247Z"/><path class="cls-7" d="M254,266.24a1.19,1.19,0,0,0-.37,1.54.94.94,0,0,0,1.36.35,1.05,1.05,0,0,0,.52-1.46A1.13,1.13,0,0,0,254,266.24Z"/><path class="cls-7" d="M263,242.72c.3-.08.72-.38.76-.64.13-.72-.68-1.12-1-1.09a1,1,0,0,0-.51,1.39A.92.92,0,0,0,263,242.72Z"/><path class="cls-7" d="M256.77,242.1a1.19,1.19,0,0,0,.3-1.64,1.12,1.12,0,0,0-1.62-.31,1.16,1.16,0,0,0-.28,1.52A1.12,1.12,0,0,0,256.77,242.1Z"/><path class="cls-7" d="M212.1,256.28a1.07,1.07,0,0,0-.52.12c.31.62.64,1.24,1,1.85h0a4,4,0,0,0,2.08,1.08c.67.2,1.14-.57,1.46.19s1.21,2.22,2.52,1.44a1.85,1.85,0,0,0,.62-2.15v0a1.93,1.93,0,0,0,2.2-3,1.76,1.76,0,0,0-2.31-.5,2.79,2.79,0,0,0-.75,2.54,1.15,1.15,0,0,0-.84-.18c-.62.16-.57-1.32-1.44-1.16s-1.41-.75-2.43-.43a2.41,2.41,0,0,0-1,.56A.93.93,0,0,0,212.1,256.28Z"/><path class="cls-7" d="M232.73,258a1.55,1.55,0,0,0,.18-1.95,1,1,0,0,0-1.4-.12c-.83.55-1.14,1.13-.87,1.61A1.8,1.8,0,0,0,232.73,258Z"/><path class="cls-7" d="M236.63,248.31c.61,1,1.57,1.47,2.2,1.06a2,2,0,0,0,.41-2.35,1.89,1.89,0,0,0-2.11-.34A1.4,1.4,0,0,0,236.63,248.31Z"/><path class="cls-7" d="M225.38,227a1.31,1.31,0,0,0-1.17,1.08,1,1,0,0,0,.89,1.09,1.1,1.1,0,1,0,.28-2.17Z"/><path class="cls-7" d="M230,240.63c-.47.31-.48,1.55,0,2.28a1.29,1.29,0,0,0,1.69.25,1.53,1.53,0,0,0,.54-1.9A2,2,0,0,0,230,240.63Z"/><path class="cls-7" d="M228.86,236.23a1.17,1.17,0,0,0-1.14,1.06,1.11,1.11,0,0,0,1,1.29,1.19,1.19,0,0,0,1.23-1.13A1.11,1.11,0,0,0,228.86,236.23Z"/><path class="cls-7" d="M242.78,250.59a1.15,1.15,0,0,0-.22,1.54,1.09,1.09,0,0,0,1.54.12.92.92,0,0,0,.22-1.37A1.22,1.22,0,0,0,242.78,250.59Z"/><path class="cls-7" d="M237.67,240.1a1.1,1.1,0,0,0-.44,1.59,1.2,1.2,0,0,0,1.53.35,1.26,1.26,0,0,0,.3-1.66A1,1,0,0,0,237.67,240.1Z"/><path class="cls-7" d="M240.46,244.45a2.13,2.13,0,0,0,2.62.49,1.34,1.34,0,0,0,.16-1.81,1.47,1.47,0,0,0-2.12-.53C240.45,243.05,240.12,244,240.46,244.45Z"/><path class="cls-7" d="M242.78,231.22c.3-.12,1-1.22.68-1.69s-1.58-.13-2,.13a1.23,1.23,0,0,0-.33,1.4C241.44,231.52,242.32,231.39,242.78,231.22Z"/><path class="cls-7" d="M237.89,253.11a1.79,1.79,0,0,0-.72,2.23,2.45,2.45,0,0,0,2.57.6,1.71,1.71,0,0,0,.41-2.21A1.84,1.84,0,0,0,237.89,253.11Z"/><path class="cls-7" d="M238.6,236.05a.66.66,0,0,0-.28,1.06c.3.39.67.71,1.21.42a1.3,1.3,0,0,0,.2-1.58A1.27,1.27,0,0,0,238.6,236.05Z"/><path class="cls-7" d="M232.13,252.6a1.19,1.19,0,0,0,1.73.35,1,1,0,0,0,.12-1.51c-.34-.39-.71-.82-1.17-.54C232,251.44,231.82,252.1,232.13,252.6Z"/><path class="cls-7" d="M208,242.13a1.46,1.46,0,0,0-.69.08c.11.79.23,1.57.37,2.35a1.85,1.85,0,0,0,1.25-1.36A1,1,0,0,0,208,242.13Z"/><path class="cls-7" d="M250.38,261.68l-.14-.25c-.56-1-1.43-1-2.39-.69-.25-.58-.25-1.35-1.16-1.24a1,1,0,0,0-1,.92c-.11.9.62,1.05,1.27,1.24,0,.4,0,.78,0,1.16h-1.51a6.84,6.84,0,0,0-.57,1.05,2.23,2.23,0,0,0,.63,2,1.62,1.62,0,0,0,1.88-.69c.17-.22.33-.46.5-.7a3.64,3.64,0,0,0,2-.09,4.12,4.12,0,0,0,.33.4,2,2,0,0,0,2.54-.22,2,2,0,0,0-.78-2.7A2.24,2.24,0,0,0,250.38,261.68Z"/><path class="cls-7" d="M220.68,233.26a.84.84,0,0,0,1.11-.79,1,1,0,0,0-.85-1.28,1.07,1.07,0,0,0-1.18.82A1.1,1.1,0,0,0,220.68,233.26Z"/><path class="cls-7" d="M207,239.46a1.74,1.74,0,0,0,1.49-1.52,1.84,1.84,0,0,0-1.44-1.85h-.17v.16C206.86,237.33,206.91,238.4,207,239.46Z"/><path class="cls-7" d="M224,219.47a1.23,1.23,0,0,0-1.1.92c-.06.54.73,1,1.2,1.1.3.08,1.5-.4,1.55-1S224.43,219.5,224,219.47Z"/><path class="cls-7" d="M209.59,223.21a2,2,0,0,0-.44-1.19c-.25.77-.49,1.54-.7,2.32A1.39,1.39,0,0,0,209.59,223.21Z"/><path class="cls-7" d="M215.91,229.61c-.81,0-1.62.49-1.64,1.09a2.14,2.14,0,0,0,1.81,2,.72.72,0,0,0,.38-.07,1,1,0,0,0,.95,0,1.09,1.09,0,0,0,.35-1.51.94.94,0,0,0-.56-.51A1.35,1.35,0,0,0,215.91,229.61Z"/><path class="cls-7" d="M218.57,238.15a.48.48,0,0,0-.18,0,.58.58,0,0,0-.87-.09c-.4.29-.69.68-.39,1.21a1.15,1.15,0,0,0,1.38.41s0-.05.06-.07c.33,0,.82-.24.88-.51S218.86,238.27,218.57,238.15Z"/><path class="cls-7" d="M212.46,237a1.16,1.16,0,0,0-1.1,1.1,1.09,1.09,0,0,0,1.16,1,.91.91,0,0,0,1-1A1.2,1.2,0,0,0,212.46,237Z"/><path class="cls-7" d="M214.65,225.55a1.09,1.09,0,0,0-1.31,1,1.21,1.21,0,0,0,1,1.19,1.26,1.26,0,0,0,1.23-1.15A1,1,0,0,0,214.65,225.55Z"/><path class="cls-7" d="M209.21,248.4l-.51.63q.48,1.65,1.08,3.24l.14,0c0,.11,0,.23,0,.35s.19.5.3.75a1.27,1.27,0,0,0,.25.27.48.48,0,0,0-.11.09c.25.59.51,1.18.79,1.76a1.11,1.11,0,0,0,1.05-.85,1,1,0,0,0,0-.58,2,2,0,0,0,.86-2.56,2.2,2.2,0,0,0-1.21-1.11c0-.09,0-.19,0-.29.15-1.15-.57-1.64-1.51-2,.14-.62.6-1.23-.19-1.69a1,1,0,0,0-1.32.17C208.3,247.29,208.8,247.85,209.21,248.4Z"/><path class="cls-7" d="M234.51,258.57a2,2,0,0,0-.47,2.59c.56,1,1.53,1.14,2.62.46a1.69,1.69,0,0,0,.75-2.56A2,2,0,0,0,234.51,258.57Z"/><path class="cls-7" d="M239.6,278.82a3,3,0,0,0,2.83.36,2.69,2.69,0,0,0,.64-2.91,1.64,1.64,0,0,0-2.34-.58,4.37,4.37,0,0,0-1.46,1.32,1.78,1.78,0,0,0-.57-.33.68.68,0,0,0,.17-.21,1.55,1.55,0,0,0,0-1.61,1.44,1.44,0,0,0,.89-.16,1.5,1.5,0,0,0,.71-2.16,1.53,1.53,0,0,0-1.81-.77,2.22,2.22,0,0,0-.76,2.32,1.49,1.49,0,0,0-.9.19c-.44.23-1.43.46-1.6,1.13-.49-.23-1.19-.27-1.4,0s.38,1.42.64,1.61a.87.87,0,0,0,.91-.07,1.2,1.2,0,0,0,.35-.65,1.4,1.4,0,0,1,.46.21,1.68,1.68,0,0,0,.56.34l-.08.05a1.4,1.4,0,0,0-.52,1.75c.88.33,1.77.63,2.67.91A2,2,0,0,0,239.6,278.82Z"/><path class="cls-7" d="M236.11,274.32a1.55,1.55,0,0,0,.54-2.1,2.4,2.4,0,0,0-2.26-.21c-.54.34-.62,1-.19,1.62C234.74,274.46,235.51,274.74,236.11,274.32Z"/><path class="cls-7" d="M215.08,261.82a2.07,2.07,0,0,0-1.58-1.94,46.53,46.53,0,0,0,2.91,4.18,1.68,1.68,0,0,0,.19-1.38A1.45,1.45,0,0,0,215.08,261.82Z"/><path class="cls-7" d="M243.62,257.7a1,1,0,0,0-1.38-.3,1.47,1.47,0,0,0-.66,1.85,1.22,1.22,0,0,0,1.6.53A1.73,1.73,0,0,0,243.62,257.7Z"/><path class="cls-7" d="M231.66,262.45a2.27,2.27,0,0,0-.74,3.16c.63,1,1.67,1.21,2.87.52,1.4-.81,1.87-2,1.2-3.1A2.34,2.34,0,0,0,231.66,262.45Z"/><path class="cls-7" d="M232.44,253.91c-.43.21-1,.39-1.13.93s.57.69.78.65c.43-.07,1.43-.43,1.48-.84S232.59,253.84,232.44,253.91Z"/><path class="cls-7" d="M217.19,265.05c.55.68,1.13,1.33,1.73,2a1.25,1.25,0,0,0-.07-1.28A2.68,2.68,0,0,0,217.19,265.05Z"/><path class="cls-7" d="M230.62,260.91a.76.76,0,0,0,.38.61c.15.05.72-.11.76-.39s-.46-.5-.68-.56S230.62,260.69,230.62,260.91Z"/><path class="cls-7" d="M232.65,276.65a1.63,1.63,0,0,0-1.59-.3q1.08.57,2.19,1.08A1.76,1.76,0,0,0,232.65,276.65Z"/><path class="cls-7" d="M223,259.73c.06.39.27,1.28.81,1.3s.77-.71.87-1a.71.71,0,0,0-.53-1C223.61,258.89,222.9,259.27,223,259.73Z"/><path class="cls-7" d="M228.54,258.79a1.87,1.87,0,0,1-1.31-1.55,1.71,1.71,0,0,0-1.79-.89,2.28,2.28,0,0,0-1,2.09c.12.5.23,1.19.88,1.17a2.58,2.58,0,0,1,2,.92.88.88,0,0,0,1.39-.1C229.13,259.92,229.12,259,228.54,258.79Z"/><path class="cls-7" d="M225,254.87a1.78,1.78,0,0,0,2.07.34,2,2,0,0,0,.18-2.16,1,1,0,0,0-1.52-.19C224.72,253.53,224.49,254.17,225,254.87Z"/><path class="cls-7" d="M261.3,258.87a1.29,1.29,0,0,0,1.52.45,1.06,1.06,0,0,0,.35-1.49,1,1,0,0,0-1.46-.44A1.07,1.07,0,0,0,261.3,258.87Z"/><path class="cls-7" d="M258.88,281.07l1.15-.19-.07,0A1.38,1.38,0,0,0,258.88,281.07Z"/><path class="cls-7" d="M263.73,279.54c0-.1-.19-.28-.28-.29s-.3.05-.32.2a.32.32,0,0,0,.26.38C263.59,279.86,263.71,279.65,263.73,279.54Z"/><path class="cls-7" d="M260.93,264.49c-.3-.07-.52.43-.58.63a.58.58,0,0,0,.34.52c.2,0,.47-.26.57-.46S261.23,264.56,260.93,264.49Z"/><path class="cls-7" d="M249.6,279.2a2.25,2.25,0,0,0-.53-1.3c-.95-1.23-1.59-1.36-2.69-.68a2.06,2.06,0,0,0-.42,3.06,1.18,1.18,0,0,0,.18.21,2.24,2.24,0,0,0-1.75.09.75.75,0,0,0-.27.26c1.32.24,2.67.42,4,.54a.37.37,0,0,0,.13-.21.46.46,0,0,0-.06-.22,1.91,1.91,0,0,0,.58-.27,1.87,1.87,0,0,0,.51-.5,2.84,2.84,0,0,0,.73,1.33c.71,0,1.42.06,2.14.06l.61,0a2.09,2.09,0,0,0,.47-.72c.23-.6.35-1.15,1.08-1.35a3,3,0,0,0,.43.12,1.82,1.82,0,0,0,1.81-1.55c.14-.92-.44-1.59-1.52-1.71a1.47,1.47,0,0,0-1.84,1.35,1.62,1.62,0,0,0,.12.85h0a10.89,10.89,0,0,0-2-.44A2.48,2.48,0,0,0,249.6,279.2Z"/><path class="cls-7" d="M230.6,246.25c-.78.3-1.39.64-1.23,1.46,0,.28.49.7.73.68a1.69,1.69,0,0,0,1.19-.54C231.76,247.14,231.07,246.76,230.6,246.25Z"/><path class="cls-7" d="M248.51,268.46a3.28,3.28,0,0,0-3.91.62,2.68,2.68,0,0,0-.82,2.42c.18.9,1.36,1,1.9,1.82a4.43,4.43,0,0,0,.31.39,1,1,0,0,0-.68.83h0a.54.54,0,0,0-.12.09c0,.05.05.3.14.44a.7.7,0,0,0,.6.57,1.73,1.73,0,0,0,1.29-.21.85.85,0,0,0,.22-.93,3.2,3.2,0,0,0,2.22-1.06,2.35,2.35,0,0,0,.67-1.35,2.37,2.37,0,0,0-.67-1.88C249.15,269.62,249.23,268.81,248.51,268.46Z"/><path class="cls-7" d="M223.55,250.89a1,1,0,0,0-1.4.32,3.22,3.22,0,0,1-.69.69,1.57,1.57,0,0,0-.7,2c.24.72.8.95,1.69.46a1.27,1.27,0,0,0-.12.39,1.31,1.31,0,0,0,.95,1.28,1.07,1.07,0,0,0,1.17-1,1,1,0,0,0-.9-1.23,1.22,1.22,0,0,0-.69.16,12.38,12.38,0,0,0,1.11-1.67A1,1,0,0,0,223.55,250.89Z"/><path class="cls-7" d="M224.56,242.34c-.33.1-.61,1.12-.28,1.54s.67.26,1,.06a.72.72,0,0,0,.22-1.18C225.22,242.52,224.9,242.24,224.56,242.34Z"/><path class="cls-7" d="M224.1,230.53a.64.64,0,0,0-.16.56.82.82,0,0,0,.66.25c.16-.05.48-.6.38-.76S224.31,230.45,224.1,230.53Z"/><path class="cls-7" d="M224.61,235.74a.74.74,0,0,0-.2.73c.08.18.59.58.8.41a.73.73,0,0,0,.08-.77C225.14,235.93,224.82,235.57,224.61,235.74Z"/><polygon class="cls-8" points="248.41 257.93 229.13 238.65 236.88 230.89 248.41 242.42 268.99 221.84 276.74 229.6 248.41 257.93"/><path class="cls-5" d="M91.18,121.34l82-52.51L258.33,122a14.42,14.42,0,0,1,6.79,12.23h0l-180.58-.47v-.22A14.44,14.44,0,0,1,91.18,121.34Z"/><polygon class="cls-9" points="239.74 150.25 175.89 190.16 112.74 150.25 112.74 94.07 239.74 94.07 239.74 150.25"/><path class="cls-10" d="M299.4,136.05a10.17,10.17,0,1,1,10.16-10.16,10.18,10.18,0,0,1-10.16,10.16m0-15.57a5.41,5.41,0,1,0,5.4,5.41,5.42,5.42,0,0,0-5.4-5.41"/><path class="cls-5" d="M325.47,94h-5.3V90.14h5.31V84.89h3.85v5.25h5.32V94h-5.33v5.15h-3.85Z"/><path class="cls-5" d="M142,280.07h-5.31v-3.83h5.32V271h3.84v5.25h5.32v3.83h-5.33v5.15H142Z"/><path class="cls-11" d="M227.29,152.63a6.61,6.61,0,0,0,.37.55,1.42,1.42,0,0,0,.44,1.82,1.48,1.48,0,0,0,1.9-.41,1.28,1.28,0,0,0,.16-.27,1.68,1.68,0,0,0,.35-.2c.32-.25.49-.57.3-.92a5,5,0,0,0-2-2.22,1.53,1.53,0,0,0-.47-.11A1.14,1.14,0,0,0,227.29,152.63Z"/><path class="cls-11" d="M229.23,147.5a1.4,1.4,0,0,0,.3-1c-.06-.35-.8-.46-1.09-.17a1.67,1.67,0,0,0-.27.7C228.51,147.61,229,147.79,229.23,147.5Z"/><path class="cls-11" d="M236.71,138.08a.55.55,0,0,0-.05.91c.2.21.78.71,1.07.43s.18-1,0-1.25A.68.68,0,0,0,236.71,138.08Z"/><path class="cls-11" d="M238.93,135.28a1,1,0,0,0,.16-.82.73.73,0,0,0-1.11-.11,1.73,1.73,0,0,0-.18.66C238.18,135.49,238.71,135.59,238.93,135.28Z"/><path class="cls-11" d="M208.81,151.71a1.24,1.24,0,0,0,.31,1.66.86.86,0,0,0,1.33,0,1.53,1.53,0,0,0,0-2A1.37,1.37,0,0,0,208.81,151.71Z"/><path class="cls-11" d="M234.55,144.29c-.92,0-1.75.53-1.63,1.5a1.57,1.57,0,0,0,1.79,1.53c1.3-.09,1-1.39,1.79-1.14s.24.89,1.42,1.16a1.53,1.53,0,0,0,1.82-.78v-.62c-.29-.79-1-.87-1-1.06s.18-1.1-.48-1.24c-1.41-.3-1.35,1-1.79,1.06S235.21,144.29,234.55,144.29Z"/><path class="cls-11" d="M213.26,166.88a1.16,1.16,0,0,1,.13-.42,1.3,1.3,0,0,0,.15-.38,1.64,1.64,0,0,0,.84-.16,1.47,1.47,0,0,0,.63-1.06,1.15,1.15,0,0,0,.32.72l1.49-.92a1,1,0,0,0-.08-.23,1.07,1.07,0,0,0-1.49-.36.8.8,0,0,0-.23.46,1.71,1.71,0,0,0-.3-.93,1.91,1.91,0,0,0-2.32-.49,1.86,1.86,0,0,0-.79,1.88c-1.46.63-1.68,1.15-1.29,2.83V168a2.18,2.18,0,0,0-.32-.65.56.56,0,0,0-.92-.05.68.68,0,0,0,0,1,1.6,1.6,0,0,0,.85.23,1.07,1.07,0,0,0-.15.53Z"/><path class="cls-11" d="M208.71,162.41a1.26,1.26,0,0,0,.33,1.84c.5.39,1.08.24,1.62-.43s.45-1.14,0-1.45A2.28,2.28,0,0,0,208.71,162.41Z"/><path class="cls-11" d="M211.05,145.61a.92.92,0,0,0,.06,1.19.79.79,0,0,0,1.15,0,.89.89,0,0,0-.07-1.18A.76.76,0,0,0,211.05,145.61Z"/><path class="cls-11" d="M206.44,158.4a1.57,1.57,0,0,0,.53,2.24,1.3,1.3,0,0,0,1.95-.15,1.78,1.78,0,0,0-.33-2.44A1.81,1.81,0,0,0,206.44,158.4Z"/><path class="cls-11" d="M175,176.54a1.57,1.57,0,0,0,.52,2.24,1.31,1.31,0,0,0,2-.16,1.78,1.78,0,0,0-.33-2.43A1.81,1.81,0,0,0,175,176.54Z"/><path class="cls-11" d="M231.24,136a.82.82,0,0,0,.22,1,1.24,1.24,0,0,0,.65.43c.2-.36.89-.79.68-1.22s-1-.29-1.36-.4A2,2,0,0,0,231.24,136Z"/><path class="cls-11" d="M232.38,128.91a.76.76,0,0,0-.27,1.11c.31.47,1.09.75,1.42.52a1.36,1.36,0,0,0,.07-1.43A.82.82,0,0,0,232.38,128.91Z"/><path class="cls-11" d="M183.24,179.28a.88.88,0,0,0,0,1.19,1.34,1.34,0,0,0,1.64,0,1.16,1.16,0,0,0,0-1,.8.8,0,0,0,1.06-.71.82.82,0,0,0-.84-.64c-.41.05-.52.31-.41,1a.85.85,0,0,0-.29-.24A.88.88,0,0,0,183.24,179.28Z"/><path class="cls-11" d="M230.83,147.38c-.24.05-.66.79-.44,1.13a.84.84,0,0,0,1.14.19.63.63,0,0,0,.13-1A1.06,1.06,0,0,0,230.83,147.38Z"/><path class="cls-11" d="M233.47,139.88a1.56,1.56,0,0,0-.43,1.9c.25.44,1.23.53,1.82.17a1.09,1.09,0,0,0,.45-1.5A1.46,1.46,0,0,0,233.47,139.88Z"/><path class="cls-11" d="M227.61,157.34a1.2,1.2,0,0,0-.63.86.22.22,0,0,0,0,.11l1.43-.9A.94.94,0,0,0,227.61,157.34Z"/><path class="cls-11" d="M232.14,138.1s-.11.23-.08.24.21.21.33.15.05-.19.08-.31A.78.78,0,0,0,232.14,138.1Z"/><path class="cls-11" d="M239.74,149.56a1.84,1.84,0,0,0-.17.89l.17-.11Z"/><path class="cls-11" d="M235.61,151.54a1.33,1.33,0,0,0-1.63,0,1.12,1.12,0,0,0-.27,1.73,1.57,1.57,0,0,0,.61.5l1.4-.88A1.49,1.49,0,0,0,235.61,151.54Z"/><path class="cls-11" d="M173.08,187.53a1.51,1.51,0,0,0-1.89-.42s0,0,0,0l2.09,1.32A1,1,0,0,0,173.08,187.53Z"/><path class="cls-11" d="M174.11,174.05c.13-.14.39-.43.24-.58a.58.58,0,0,0-.61-.1c-.14.08-.42.52-.26.68A.59.59,0,0,0,174.11,174.05Z"/><path class="cls-11" d="M175.66,171.31a.49.49,0,0,0,.76,0,.53.53,0,0,0,0-.68.47.47,0,0,0-.65-.11A.49.49,0,0,0,175.66,171.31Z"/><path class="cls-11" d="M212.5,161.22a1,1,0,0,0,1.24-.21,1,1,0,0,0-.23-1.26.89.89,0,0,0-1.25.14A1,1,0,0,0,212.5,161.22Z"/><path class="cls-11" d="M169.22,178.17c.38.62.73,1.26,1.08,1.88-1.1.76-1.11.92-.27,1.7.68-.12.89-.57.78-1.25,1.54-.63,1.58-1.59.19-2.68a1.37,1.37,0,0,1,.07-.34c.18-.46,0-.74-.39-1a.82.82,0,0,0-1,0C168.84,176.92,168.72,177.34,169.22,178.17Z"/><path class="cls-11" d="M227.06,144.55c-.48.34-1.05.54-.86,1.19a.9.9,0,0,0,1,.68.68.68,0,0,0,.75-.58C228.06,145.16,227.62,144.86,227.06,144.55Z"/><path class="cls-11" d="M170.65,174.48c-.21-.29-.61-.51-.89-.18a1,1,0,0,0-.19.91c.16.23.61.25.84.32C170.94,175.13,170.86,174.76,170.65,174.48Z"/><path class="cls-11" d="M183.14,172.19a6.4,6.4,0,0,0,.65,1c-.06.18-.14.36-.19.54a1.8,1.8,0,0,0,.61,1.89,2,2,0,0,0,2,0,1,1,0,0,0,.48-.62,1.62,1.62,0,0,0-1.09-2l-.55-.21c.14-.35.29-.67.39-1a.86.86,0,0,0-.57-1.22,1.13,1.13,0,0,0-.24-.08.92.92,0,0,0,.13-1.09.76.76,0,0,0-1.12-.24.93.93,0,0,0-.2,1.18.76.76,0,0,0,.23.24,1.23,1.23,0,0,0-.33.23A1.19,1.19,0,0,0,183.14,172.19Z"/><path class="cls-11" d="M171.4,184.1c.33.43,1,.07,1.31,0s.39-.64.12-1-.67-.5-1-.13S171.07,183.66,171.4,184.1Z"/><path class="cls-11" d="M180.2,173.37a.76.76,0,0,0-.37,1.28l.18.09a1.24,1.24,0,0,0,.06,1.52c.4.51.85.6,1.3.26a1.54,1.54,0,0,0,.49-2,1.1,1.1,0,0,0-.88-.28A.65.65,0,0,0,181,174,.83.83,0,0,0,180.2,173.37Z"/><path class="cls-11" d="M202.31,151.94c-.12.11-.3.6-.11.72a.58.58,0,0,0,.62-.14c.1-.16.29-.5.11-.62A.62.62,0,0,0,202.31,151.94Z"/><path class="cls-11" d="M204.3,148.69a.47.47,0,0,0-.65,0,.52.52,0,1,0,.82.63A.55.55,0,0,0,204.3,148.69Z"/><path class="cls-11" d="M204.78,165.9a1.5,1.5,0,0,0-1.93,0c-.3.37.05,1.63.55,2a1.22,1.22,0,0,0,1.38-2Z"/><path class="cls-11" d="M213.05,157.11c.14.09.38,0,.56-.19a1.48,1.48,0,0,0,1.15-.48,1.26,1.26,0,0,0-.83-1.39.88.88,0,0,0-1.05.57,1,1,0,0,0,0,.77A.77.77,0,0,0,213.05,157.11Z"/><path class="cls-11" d="M203.56,161.59c-.37-.33-.77-.34-1,.08s-.6.9-.18,1.25,1-.14,1.26-.32S203.9,161.89,203.56,161.59Z"/><path class="cls-11" d="M199.53,154.79c.43-.52.27-.85,0-1.08s-.7-.36-.91,0a1,1,0,0,0,0,.94C198.86,154.84,199.3,154.76,199.53,154.79Z"/><path class="cls-11" d="M204.19,170.68a.91.91,0,0,0-.11-1.35,1,1,0,0,0-1.29,0,1.4,1.4,0,0,0,0,1.44A1.23,1.23,0,0,0,204.19,170.68Z"/><path class="cls-11" d="M199,157.62c.5.53,1,1.07,1.47,1.6-.9,1-.89,1.14.1,1.71.64-.27.75-.74.5-1.38,1.36-1,1.18-1.9-.41-2.67a1.87,1.87,0,0,1,0-.34c.08-.48-.2-.72-.6-.89a.85.85,0,0,0-1,.21C198.32,156.48,198.29,156.93,199,157.62Z"/><path class="cls-11" d="M202.92,145.51a.7.7,0,0,0,0,.58.49.49,0,0,0,.69.09c.27-.24-.08-.55-.2-.69S203,145.44,202.92,145.51Z"/><path class="cls-11" d="M189.24,172a1.61,1.61,0,0,0,.28,2.12,1.11,1.11,0,0,0,1.56-.22,1.65,1.65,0,0,0,.22-1.93A1.58,1.58,0,0,0,189.24,172Z"/><path class="cls-11" d="M189.26,166.32c-.45.49-.36,1,.28,1.61a1.39,1.39,0,0,0,1.62.15,1.56,1.56,0,0,0-.08-2A1.43,1.43,0,0,0,189.26,166.32Z"/><path class="cls-11" d="M190.71,176c-.18.63.24,1,.82,1.26.47-.21.94-.47.86-1.08a.78.78,0,0,0-.91-.71A1.06,1.06,0,0,0,190.71,176Z"/><path class="cls-11" d="M226.37,141.64a.57.57,0,0,0-.16.7c.08.17.43.59.79.42s.17-.73.06-.89S226.66,141.46,226.37,141.64Z"/><path class="cls-11" d="M188,176.67a1,1,0,0,0,1.17.18,1.11,1.11,0,0,0,.26-1.28.88.88,0,0,0-1.17-.16A1,1,0,0,0,188,176.67Z"/><path class="cls-11" d="M192.85,157.36a.77.77,0,0,0-1,.38,1.08,1.08,0,0,0,0,.86c.38.59.92.47,1.55.12C193.35,158.16,193.49,157.6,192.85,157.36Z"/><path class="cls-11" d="M195.47,174.59c.28-.13.15-.54.08-.6a.75.75,0,0,0-.56-.15c-.07,0-.2.38-.14.45S195.2,174.72,195.47,174.59Z"/><path class="cls-11" d="M193.6,172.48a1.51,1.51,0,0,0,1.2.27.86.86,0,0,0,.5.77c.55.28.94-.13,1.36-.51-.17-.54-.25-1.17-1-1.14a.65.65,0,0,0-.19,0,2.12,2.12,0,0,0-.68-1.47.87.87,0,0,0-1.22.26A1.26,1.26,0,0,0,193.6,172.48Z"/><path class="cls-11" d="M196.53,164.67a1.53,1.53,0,1,0-2.36-2,1.72,1.72,0,0,0,.6,2.26A1.2,1.2,0,0,0,196.53,164.67Z"/><path class="cls-11" d="M188.5,170.27c.09.83,1,1.54,1.62,1.31a1.31,1.31,0,0,0,.88-1.28,1,1,0,0,0-.87-1.09c-.44-.11-1.27-.57-1.71-.08S188.47,170,188.5,170.27Z"/><path class="cls-11" d="M163.52,178c.11-.55.37-1.07-.2-1.44a.76.76,0,0,0-1.07.15,1,1,0,0,0-.22.83C162.27,178.2,162.83,178.21,163.52,178Z"/><path class="cls-11" d="M238.89,130.2c-.37.24-.42,1,0,1.7.18,0,.53.16.77,0l.08,0v-1.71A1,1,0,0,0,238.89,130.2Z"/><path class="cls-11" d="M165.47,182.2a1.55,1.55,0,0,0-2-.12,1.59,1.59,0,0,0-.13.13l2.51,1.58A1.56,1.56,0,0,0,165.47,182.2Z"/><path class="cls-11" d="M176.35,180.58a1.57,1.57,0,0,0,0,2.3,1.32,1.32,0,0,0,1.95.28,1.78,1.78,0,0,0,.21-2.45A1.81,1.81,0,0,0,176.35,180.58Z"/><path class="cls-11" d="M181.37,180.15a.31.31,0,0,0,0,.49c.14.11.51.35.68.16s0-.55-.12-.6S181.57,179.93,181.37,180.15Z"/><path class="cls-11" d="M181.7,183.31a1,1,0,0,0-.07,1.36,1,1,0,0,0,1.26.06,1,1,0,0,0,.05-1.28A.88.88,0,0,0,181.7,183.31Z"/><path class="cls-11" d="M177.67,185a1.21,1.21,0,0,0-.17,1.7.64.64,0,0,0-.3.23.8.8,0,0,0,.07,1c.48.58.8.62,1.6.23l.18.07,1.65-1a1.61,1.61,0,0,0-.92-.72l-.43.22c.46-.42.58-1,.27-1.32A2.32,2.32,0,0,0,177.67,185Z"/><path class="cls-11" d="M185.93,161.79a1.44,1.44,0,0,0-.1,1.74c.38.4,1.2.23,1.77-.36a1,1,0,0,0-.06-1.3A1.27,1.27,0,0,0,185.93,161.79Z"/><path class="cls-11" d="M187.42,182c-.7.2-.66.69-.58.9s-.11.62-.27.43a.45.45,0,0,0-.56-.06.75.75,0,0,0-.07-.12.8.8,0,0,0-1.16,0,1.07,1.07,0,0,0,.08,1.45h.07l3.36-2.1C188.13,182.12,187.88,181.84,187.42,182Z"/><path class="cls-11" d="M193.23,177a1.28,1.28,0,0,0-.35,1,.79.79,0,0,0-.64.2c-.28.28-.41.66-.08.92a3.2,3.2,0,0,0,.42.26,2.63,2.63,0,0,0-.14.49l4.06-2.54a2.47,2.47,0,0,0-1.22-.69A2.18,2.18,0,0,0,193.23,177Z"/><path class="cls-11" d="M201.25,171.91a1.5,1.5,0,0,0-1.57-.14l-.17-.15c-.54.22-1.14.29-1.1,1a.89.89,0,0,0,.29.63,1.8,1.8,0,0,0,.5,1.41,1.9,1.9,0,0,0,1,.39l1.42-.89A2.59,2.59,0,0,0,201.25,171.91Z"/><path class="cls-11" d="M222.67,137a.58.58,0,0,0-.11.58c.08.12.39.4.68.17s.07-.57,0-.7A.53.53,0,0,0,222.67,137Z"/><path class="cls-11" d="M221.37,159.44c.28.2.92-.28,1.07-.49s-.05-.59-.23-.78a.43.43,0,0,0-.76.11C221.34,158.54,221.1,159.24,221.37,159.44Z"/><path class="cls-11" d="M223.15,147.72c-.08,0-.12.41-.05.47s.44.34.68.15,0-.56-.06-.6A.75.75,0,0,0,223.15,147.72Z"/><path class="cls-11" d="M221.42,152.59c-.21.33-.25.73.13.91s1.09.37,1.28.11-.21-1-.4-1.23S221.64,152.24,221.42,152.59Z"/><path class="cls-11" d="M225.79,150.5c0,.14.17.56.42.58s.42-.42.4-.56a.6.6,0,0,0-.39-.47C226,150,225.82,150.33,225.79,150.5Z"/><path class="cls-11" d="M223.68,142.15c-.58.3-.84.71-.29,1.31s1.54-.1,1.52-.51S224.09,141.93,223.68,142.15Z"/><path class="cls-11" d="M224.56,159.26a1.93,1.93,0,0,0-.42.83l2-1.23A1.58,1.58,0,0,0,224.56,159.26Z"/><path class="cls-11" d="M224.67,153.5c-.58-.37-1.17.33-1.26.67s1.35.94,1.7.75S225.25,153.88,224.67,153.5Z"/><path class="cls-11" d="M222.23,149.92c.17.51,1.38.62,1.58.28s-.46-1.4-1-1.27A.91.91,0,0,0,222.23,149.92Z"/><path class="cls-11" d="M217.38,144.27c-.45,0-1.36-.27-1.69.3s.24.79.34,1.09c.26.79,1.28,1.3,1.86.92a1.29,1.29,0,0,0,.58-1.43A1,1,0,0,0,217.38,144.27Z"/><path class="cls-11" d="M217.51,147.22c-.43.31-.08.83.06,1a.87.87,0,0,0,.77.2.57.57,0,0,0,.25-.88C218.44,147.35,217.94,146.91,217.51,147.22Z"/><path class="cls-11" d="M215.23,159a1.07,1.07,0,0,0,.39,1.4,2.77,2.77,0,0,0,1-.33c.39-.32.22-1-.24-1.33A.8.8,0,0,0,215.23,159Z"/><path class="cls-11" d="M198.13,170a1.57,1.57,0,0,0,2.48-.2,1.74,1.74,0,0,0-.34-2.42,2.1,2.1,0,0,0-2.46.55A1.43,1.43,0,0,0,198.13,170Z"/><path class="cls-11" d="M218.08,151.94a1.09,1.09,0,0,0,0-1.3.87.87,0,0,0-1.17.1,1,1,0,0,0,0,1.29A1,1,0,0,0,218.08,151.94Z"/><path class="cls-11" d="M218.88,160.7a1.29,1.29,0,0,0,.37,1.65,1.88,1.88,0,0,0,.68.36l1.2-.74a1.47,1.47,0,0,0-.31-1.48A1.62,1.62,0,0,0,218.88,160.7Z"/><path class="cls-11" d="M222.49,160.84a2.71,2.71,0,0,0-.61.66l.87-.55Z"/><path class="cls-11" d="M218.32,155.08a2.05,2.05,0,0,0-.7,2.49,1.51,1.51,0,0,0,2,.36,1.65,1.65,0,0,0,.51-2.35A1.31,1.31,0,0,0,218.32,155.08Z"/><rect class="cls-12" x="240.17" y="80.12" width="13.4" height="13.4" transform="translate(493.74 173.63) rotate(180)"/><rect class="cls-12" x="46.12" y="234.93" width="13.4" height="13.4" transform="translate(105.64 483.27) rotate(180)"/><path class="cls-13" d="M224.21,137.17a85.49,85.49,0,0,1-9.6,3,26.39,26.39,0,0,1-7.58.42,15.41,15.41,0,0,1-7.06-2,5.07,5.07,0,0,1-2.12-4.13,5.93,5.93,0,0,1,1.69-4.87,2.44,2.44,0,0,1,1-.62c.19,0-.06-.3.19.15a3.25,3.25,0,0,1,.09,2.61c-1.64,4.82-6.57,8.05-11.33,9.19a25.22,25.22,0,0,1-17.7-2.8c-1.61-.91-4.39-2.81-3.46-5s4.19-2.62,6.21-1.78c5,2.08,7.27,9.17,3.32,13.23s-10.72,5.15-16.25,4.71a35,35,0,0,1-17.86-7.11c-5-3.67-9.38-8.09-14.45-11.68-1.2-.86-2.26,1.08-1.14,1.95,5.39,4.17,10,9.27,15.51,13.27A35.22,35.22,0,0,0,164,152.65c6.52,0,15.28-2.15,18.41-8.57s-1.33-15.14-8.31-16.45a8.14,8.14,0,0,0-8.41,3.36c-1.8,2.92-.45,6.29,2,8.36a24.42,24.42,0,0,0,9.76,4.57,28,28,0,0,0,11.39.57c6.37-1,12.49-5.08,14.89-11.22.88-2.27.84-5.93-1.77-7.11-2.4-1.08-5.06,1.4-6,3.4a10.07,10.07,0,0,0-.55,7.3,7.7,7.7,0,0,0,4.94,5.06c6.18,2.41,13.35,1.33,19.28-1.18a46.05,46.05,0,0,0,5.1-2.59c.51-.3.17-1.17-.41-1Z"/><path class="cls-13" d="M289.65,51.15l4.64-5.35,6.28,3.63-2.3,6.65a14.39,14.39,0,0,1,2.48,4.27l6.9,1.33v7.25l-6.9,1.34a14.39,14.39,0,0,1-2.48,4.27l2.3,6.65-6.28,3.62-4.64-5.34a14.42,14.42,0,0,1-4.86,0l-4.65,5.35-6.28-3.62,2.33-6.73a14.31,14.31,0,0,1-2.39-4.17l-7-1.36V61.68l7-1.35a14.18,14.18,0,0,1,2.39-4.17l-2.33-6.73,6.28-3.63,4.65,5.36a14.42,14.42,0,0,1,4.86,0"/><path class="cls-5" d="M263.88,134.36a119.59,119.59,0,0,0-12,6.66c-4.55,2.69-9.1,5.39-13.62,8.14-4.91,3-10,5.83-14.64,9.21-5,3.63-10.43,6.66-15.7,9.86-10.9,6.63-21.78,13.28-32.56,20.09-10.22,6.45-20.51,12.75-30.71,19.22-8.58,5.43-17.13,10.87-25.5,16.63-.88.6-1.73,1.23-2.57,1.88a1.08,1.08,0,0,0,1.08,1.86c8.57-4.69,16.68-10.33,24.89-15.61,10-6.45,20-13,30-19.35q16.2-10.19,32.33-20.48c5.26-3.35,10.52-6.73,15.86-9.95,2.59-1.56,5.33-2.83,7.9-4.4l7.3-4.48c8.72-5.33,17.47-10.6,26.12-16,.92-.58,1.79-1.18,2.65-1.83a.82.82,0,0,0-.83-1.42Z"/><path class="cls-5" d="M84.13,139.7l-.12.67s0,.24,0,.06a5,5,0,0,0-.1.49,4,4,0,0,0,0,.49c0,.38,0,.76,0,1.14-.09,2.44-.09,4.88-.09,7.33,0,3.6,0,7.2,0,10.8,0,2.15,0,4.3.2,6.44a58.9,58.9,0,0,1,.36,6.91c-.07,9.81-.13,19.62,0,29.43.1,8.61,0,17.21,0,25.82,0,2.94,0,5.87.18,8.81a33.07,33.07,0,0,0,.34,4.77,1.27,1.27,0,0,0,.55.95l-.53-.93v.1a1.08,1.08,0,0,0,2.15,0v-.1l-.54.93c1-.71.7-3.13.74-4.19.09-2.63.13-5.25.08-7.88-.12-8.26-.44-16.52-.52-24.78-.08-9.82-.29-19.64-.56-29.47-.06-2.36-.12-4.72-.11-7.08s.35-4.44.32-6.68c0-3.84-.07-7.67-.15-11.5,0-2.76,0-5.54-.21-8.3L86,141.41a4.45,4.45,0,0,0-.22-1.54c0-.06,0-.12,0-.17a.82.82,0,0,0-1.58,0Z"/></g></svg>