<svg id="Layer_1" data-name="Layer 1" xmlns="http://www.w3.org/2000/svg" viewBox="0 0 128 128"><defs><style>.cls-1{fill:#ecf0f6;}.cls-2{fill:#fff;}.cls-3{fill:#ced5e1;}.cls-4{fill:#7de2d1;}.cls-5{fill:#343741;}.cls-6{fill:#1dbab0;}.cls-7{fill:#00bfb3;}.cls-8{fill:#01ada1;}</style></defs><title>illustration-feature-packed-128-white-bg</title><circle class="cls-1" cx="64" cy="64" r="60"/><path class="cls-2" d="M115.17,49.54c.16-.26-.07-.47-.33-.58s-.66,0-.67.29-.11.69.25.78S115.05,49.74,115.17,49.54Z"/><path class="cls-2" d="M114.1,50.86a.73.73,0,0,0-.22-.57c-.22-.18-.7.06-.73.36a1,1,0,0,0,.14.48C113.71,51.29,114.08,51.14,114.1,50.86Z"/><path class="cls-2" d="M116.66,45.65a.87.87,0,0,0-.92.33,1.32,1.32,0,0,0-1-.19,2.69,2.69,0,0,1-.42,1.19c-.08.11-.17.21-.25.31v0a1.23,1.23,0,0,0,1.48.73,1.48,1.48,0,0,0,.65-.5.87.87,0,0,0,1.11-.35A1.32,1.32,0,0,0,116.66,45.65Z"/><path class="cls-2" d="M106.14,21.46s.06,0,.1-.07c-.31-.31-.64-.6-.95-.9a.61.61,0,0,0-.05.56A.65.65,0,0,0,106.14,21.46Z"/><path class="cls-2" d="M117.06,36.6a.78.78,0,0,0,.5.87.43.43,0,0,0,.25,0c-.17-.35-.35-.69-.53-1A.24.24,0,0,0,117.06,36.6Z"/><path class="cls-2" d="M120.44,43.6c-.29-.8-.6-1.58-.92-2.36a3.71,3.71,0,0,0-.37.21.91.91,0,0,0-.07,1.5A6.91,6.91,0,0,0,120.44,43.6Z"/><path class="cls-2" d="M116.87,40.31a1.52,1.52,0,0,0,.45.38,4.46,4.46,0,0,0,.52.31c.59.31,1,.26,1.32-.16a1.2,1.2,0,0,0,.11-.23c-.22-.52-.46-1-.7-1.54a8.38,8.38,0,0,1-1-1c-.33-.41-1-.66-1.28-.41a.78.78,0,0,0,0,.93c.39.28.2.58.24.9A2,2,0,0,0,116.87,40.31Z"/><path class="cls-2" d="M45.27,18.14a.85.85,0,0,0,.09-1c-.49-.51-1.11-.66-1.43-.34A1.24,1.24,0,0,0,44,18.21,1.14,1.14,0,0,0,45.27,18.14Z"/><path class="cls-2" d="M67.16,4.65c-.32.56-.21.94.37,1.29a.93.93,0,0,0,1.24-.11,1.41,1.41,0,0,0-.47-1.66l-.51,0A1.13,1.13,0,0,0,67.16,4.65Z"/><path class="cls-2" d="M115.25,53.46c.25-.14.41-.39.23-.64s-.58-.61-.8-.5-.19.55-.17.83l0,0a.5.5,0,0,0-.69.34.42.42,0,0,0,.32.6c.21,0,.76.13.84-.15a.59.59,0,0,0-.1-.41A.53.53,0,0,0,115.25,53.46Z"/><path class="cls-2" d="M64.57,4.59a1.11,1.11,0,0,0-.12-.27.81.81,0,0,0,.19-.3L64,4h-.42s0,.07,0,.1a.27.27,0,0,0-.08.07,6.83,6.83,0,0,0-.36.94c-.77.26-1.19.74-1,1.21A1.33,1.33,0,0,0,63.57,7c.54-.17.61-.48.3-1.56C64.28,5.26,64.72,5.15,64.57,4.59Z"/><path class="cls-2" d="M71.25,7.09c.32-.08.69-.06.88-.35s.76-1.11.42-1.66-.73-.12-1.09-.17a.87.87,0,0,0-.83.37,1.2,1.2,0,0,0-.64.33A1.07,1.07,0,0,0,70,6.91a.42.42,0,0,1-.33-.11c-.27-.25-.86-.25-1.33.35s-.16,1.53.4,1.56.71-.27.85-.13.27.6.64.59S71,8.11,71,7.93s-.21-.5-.06-.7A1.28,1.28,0,0,0,71.25,7.09Z"/><path class="cls-2" d="M82.05,7a1.19,1.19,0,0,0-1.26.23,1.23,1.23,0,0,0,.43,1.3A.56.56,0,0,0,82,8.35C82.42,7.76,82.43,7.22,82.05,7Z"/><path class="cls-2" d="M72.9,7c-.16.24,0,.57.1.79s.54.14.71-.09.14-.59-.1-.7S73.07,6.79,72.9,7Z"/><path class="cls-2" d="M44.15,13.06a1.48,1.48,0,0,0-1.58,0,1,1,0,0,0,0,1.35,1.11,1.11,0,0,0,1.41.08A1.08,1.08,0,0,0,44.15,13.06Z"/><path class="cls-2" d="M82.52,9.11a.7.7,0,1,0,.75-1.19.77.77,0,0,0-1,.29A.68.68,0,0,0,82.52,9.11Z"/><path class="cls-2" d="M117.27,42.66a1,1,0,0,0,.51-1.15.84.84,0,0,0-.9-.51c-.63.22-1,.71-.86,1.12A1.1,1.1,0,0,0,117.27,42.66Z"/><path class="cls-2" d="M60.88,8.27l0,0A.86.86,0,0,0,60.63,7a1.06,1.06,0,0,0-1.58.32,1.13,1.13,0,0,0,.2,1.49.94.94,0,0,0,.87.06.5.5,0,0,0,.5-.17A1.09,1.09,0,0,0,60.88,8.27Z"/><path class="cls-2" d="M57.16,4.4l0,0A1.46,1.46,0,0,0,57,4.9a.74.74,0,0,0-.17-.3l-.16-.14-1,.14a1.78,1.78,0,0,1,.32.68.68.68,0,0,0,.58.23A.72.72,0,0,0,57,5.16a.69.69,0,0,0,.26.62.79.79,0,0,0,.86-.36c.12-.47.46-.4.75-.55a1,1,0,0,0,.28-.23s0,0,0,0a1.12,1.12,0,0,0,1.13,0,.65.65,0,0,0,.12-.47c.38.31.82.39,1.08.15a.64.64,0,0,0,.19-.29C60.15,4.12,58.64,4.23,57.16,4.4Z"/><path class="cls-2" d="M45.26,9.25a1,1,0,0,0-1.6.06,1,1,0,0,0-.12,1.59,1.17,1.17,0,0,0,1.77-.07A1.2,1.2,0,0,0,45.26,9.25Z"/><path class="cls-2" d="M116.78,49c-.12.06-.17.4-.12.58a.32.32,0,0,0,.53.2c.16-.14.56-.51.45-.73S117,48.89,116.78,49Z"/><path class="cls-2" d="M93.39,16.53a.42.42,0,0,0,.69-.17,2.14,2.14,0,0,0,0-.62.64.64,0,0,0-.91.24C93,16.25,93.19,16.4,93.39,16.53Z"/><path class="cls-2" d="M92.83,12.62a.72.72,0,0,0,.57-.24.51.51,0,0,0,0-.52c-.23-.35-.57-.32-.94-.09C92.47,12.11,92.39,12.5,92.83,12.62Z"/><path class="cls-2" d="M90.68,22.72a.64.64,0,0,0,.63-.61c0-.53-.61-.88-.82-.88a.94.94,0,0,0-.57,1.05A.65.65,0,0,0,90.68,22.72Z"/><path class="cls-2" d="M67.63,6.48a.65.65,0,0,0-.92-.18,1.1,1.1,0,0,0-.14,1.36.75.75,0,0,0,1,.08A.94.94,0,0,0,67.63,6.48Z"/><path class="cls-2" d="M88.52,14A1.25,1.25,0,0,0,90,13.24a1.61,1.61,0,0,0-1-1.62,1.27,1.27,0,0,0-1.33,1A1.23,1.23,0,0,0,88.52,14Z"/><path class="cls-2" d="M88.07,9.52a.82.82,0,0,0,.31,1.3,1,1,0,0,0,1.07.07.66.66,0,0,0,.84,0,.55.55,0,0,0,.21-.35,3.74,3.74,0,0,0-.12-.45q-1-.47-1.95-.9A1.07,1.07,0,0,0,88.07,9.52Z"/><path class="cls-2" d="M95.1,18a.84.84,0,0,0,1-.72.55.55,0,0,0-.45-.64.7.7,0,0,0-.84.29A.78.78,0,0,0,95.1,18Z"/><path class="cls-2" d="M91.23,11.19a.61.61,0,0,0,.84-.13s0-.05,0-.07c-.39-.21-.79-.41-1.19-.61A.68.68,0,0,0,91.23,11.19Z"/><path class="cls-2" d="M103,19.43a.76.76,0,0,0,0,.68.39.39,0,0,0,.6.27c.26-.15.48-.33.37-.68S103.13,19.27,103,19.43Z"/><path class="cls-2" d="M103.19,23.83a1,1,0,0,0,.9-.54.89.89,0,0,0-.62-.83.66.66,0,0,0-.8.58A.73.73,0,0,0,103.19,23.83Z"/><path class="cls-2" d="M104.45,20.11a.77.77,0,0,0,.39-.05l-1.07-1v0A1.19,1.19,0,0,0,104.45,20.11Z"/><path class="cls-2" d="M97.62,14.3c-.87-.59-1.75-1.15-2.65-1.69a1.73,1.73,0,0,1,.15.2,1.57,1.57,0,0,0,0,1.75,1.65,1.65,0,0,0,2.45-.22Z"/><path class="cls-2" d="M96.55,22.77a.94.94,0,0,0,1-.92c.06-.46-.26-.76-.88-.85s-.9.15-.93.53A1.69,1.69,0,0,0,96.55,22.77Z"/><path class="cls-2" d="M91.9,14.32a1.76,1.76,0,0,0,0-.61.64.64,0,0,0-.91.23c-.14.28,0,.43.22.56A.44.44,0,0,0,91.9,14.32Z"/><path class="cls-2" d="M118.48,55a1,1,0,0,0,1.21-.12c.36-.6-.13-1.15-.4-1.42s-1,.17-1.17.75A.65.65,0,0,0,118.48,55Z"/><path class="cls-2" d="M121.49,51.42a.79.79,0,0,0,.23-1.05,2.15,2.15,0,0,0-.75-.12c-.36.07-.49.58-.3,1A.59.59,0,0,0,121.49,51.42Z"/><path class="cls-2" d="M119.84,45c-.26.47.12,1.25.76,1.56a.88.88,0,0,0,.82,0c-.21-.69-.44-1.37-.68-2.05A1.09,1.09,0,0,0,119.84,45Z"/><path class="cls-2" d="M116.48,52.6a1.07,1.07,0,0,0,1.15-.56.83.83,0,0,0-.3-.92c-.59-.28-1.21-.18-1.38.22A1.19,1.19,0,0,0,116.48,52.6Z"/><path class="cls-2" d="M118.5,44.67a.73.73,0,0,0,.37-.51.55.55,0,0,0-.24-.46c-.38-.18-.65,0-.85.41C117.93,44.41,118.07,44.78,118.5,44.67Z"/><path class="cls-2" d="M117.56,56.23a.72.72,0,0,0,.43-.84.71.71,0,0,0-.8-.36.83.83,0,0,0-.43.86A.65.65,0,0,0,117.56,56.23Z"/><path class="cls-2" d="M120.58,49.31a1.49,1.49,0,0,0-.59-1.74l-.17-.07a.64.64,0,0,0-.84-.24,1.17,1.17,0,0,0-.65,1l0,.05a1.1,1.1,0,0,0,.45,1.48A1.44,1.44,0,0,0,120.58,49.31Z"/><path class="cls-2" d="M64.56,7.06a.64.64,0,0,0,.91-.18.58.58,0,0,0-.26-.81.67.67,0,0,0-.9.26A.51.51,0,0,0,64.56,7.06Z"/><path class="cls-2" d="M122.53,50.84c-.06-.29-.13-.58-.2-.87,0,0,0,0,0,.05A.65.65,0,0,0,122.53,50.84Z"/><path class="cls-2" d="M55,4.72l0,0-.89.15A1.32,1.32,0,0,0,55,4.72Z"/><path class="cls-2" d="M67,4.31a1.53,1.53,0,0,0,.16-.22c-.65,0-1.31,0-2-.06a.8.8,0,0,0,.14.24A1.27,1.27,0,0,0,67,4.31Z"/><path class="cls-2" d="M54.21,6.1a.74.74,0,0,0-.14-.93c-.27-.17-.91-.09-1,.13a.92.92,0,0,0,.28,1.08A.66.66,0,0,0,54.21,6.1Z"/><path class="cls-2" d="M123.9,60.65a1.17,1.17,0,0,0,0,.59Z"/><path class="cls-2" d="M87.93,32.56c0,.07.13.29.19.29s.33-.1.37-.21a.37.37,0,0,0-.2-.47C88,32.09,88,32.43,87.93,32.56Z"/><path class="cls-2" d="M90.7,26c.07-.47-.12-.76-.53-.82-.58-.09-1.24.29-1.29.74s.43.86.9.91A.91.91,0,0,0,90.7,26Z"/><path class="cls-2" d="M84,8.18c0,.07,0,.18.13.19a.18.18,0,0,0,.22-.16c0-.13-.12-.19-.18-.2S84,8.13,84,8.18Z"/><path class="cls-2" d="M89.12,16.45a1.09,1.09,0,0,0,.08-.15c.24-.05.63-.16.65-.38s-.52-.46-.72-.48a.16.16,0,0,0-.1,0h0a1.38,1.38,0,0,0-1.35.1A.89.89,0,0,0,88,16.85C88.3,17.09,88.78,16.93,89.12,16.45Z"/><path class="cls-2" d="M115.11,85c.08-.16-.17-.36-.28-.43a.36.36,0,0,0-.36.12c0,.11.09.31.19.4S115,85.21,115.11,85Z"/><path class="cls-2" d="M116.16,65.91c.1-.28.08-.55-.18-.69a3.7,3.7,0,0,0-2.09-.63.88.88,0,0,0-.33.12.83.83,0,0,0,0,1.51,5.38,5.38,0,0,0,1.3.5A1.32,1.32,0,0,0,116.16,65.91Z"/><path class="cls-2" d="M115.21,79.73a.38.38,0,0,0-.15-.41c-.1-.07-.47-.09-.54.05s.15.43.25.47A.38.38,0,0,0,115.21,79.73Z"/><path class="cls-2" d="M120.72,70.61a1.38,1.38,0,0,0,.38-1.27,1.17,1.17,0,0,0-.91-.93l-.12,0a1.11,1.11,0,0,0,.61-.55c.16-.38-.09-.81-.63-1.06a.94.94,0,0,0-1.15.25,1.22,1.22,0,0,0,.41,1.39.55.55,0,0,0,.18.06,1.21,1.21,0,0,0-.41.38,2.05,2.05,0,0,0-.31,1.4.93.93,0,0,1-.12.52.85.85,0,0,0,.37,1.37.41.41,0,0,0-.15.2c-.1.28.14.66.5.82a.78.78,0,0,0,1-.31A.66.66,0,0,0,120,72h0a1.27,1.27,0,0,0,.29-.58A1.23,1.23,0,0,1,120.72,70.61Z"/><path class="cls-2" d="M123.71,67.74a.69.69,0,0,0-.87.35.72.72,0,0,0,.37.93.71.71,0,0,0,.57,0c0-.39.06-.77.08-1.16Z"/><path class="cls-2" d="M122,77a.61.61,0,0,0,.26.81l.08,0c.11-.42.21-.85.3-1.28A.69.69,0,0,0,122,77Z"/><path class="cls-2" d="M114.87,73.53c-.11-.37-.4-.44-1.12-.31-.08.37-.31.76.15,1a.6.6,0,0,0,.85-.13A.78.78,0,0,0,114.87,73.53Z"/><path class="cls-2" d="M104.15,27.53a1,1,0,0,0,1.18-1,1.76,1.76,0,0,0,0-.61,1.41,1.41,0,0,0,.84-.06.76.76,0,0,0,.37-.76,1.43,1.43,0,0,0,1.33-1A1.18,1.18,0,0,0,107,22.7a1.89,1.89,0,0,0-1.61,1.13.83.83,0,0,0,.09.55h-.06a1.27,1.27,0,0,0-.59.84,1.62,1.62,0,0,0-.55-.17,1.28,1.28,0,0,0-1.39,1.14C102.82,26.74,103.47,27.42,104.15,27.53Z"/><path class="cls-2" d="M96.1,24.53a1,1,0,0,0-.84-1.17,1.32,1.32,0,0,0-1.41,1.14,1.33,1.33,0,0,0,1,1.22C95.5,25.8,96,25.31,96.1,24.53Z"/><path class="cls-2" d="M116.81,58.62c.61-.16.5.46,1.34.17s1.1-1.18.6-1.57-1-.15-1.07-.27-.31-.76-.78-.59c-1,.36-.44,1.17-.71,1.36s-.92.22-1.33.48c-.57.36-.89,1-.44,1.57a1.47,1.47,0,0,0,.35.32.66.66,0,0,0,.23.17c.3.16.8.65,1.21.39s.12-.6.15-.82v0C116.76,59.31,116.28,58.76,116.81,58.62Z"/><path class="cls-2" d="M33.62,14.48c.33.14.92-.45.8-.71s-.9-.36-1.05,0A.61.61,0,0,0,33.62,14.48Z"/><path class="cls-2" d="M111.89,65c-.14.06-.14.33-.09.45s.32.28.49.2.09-.43,0-.51A.43.43,0,0,0,111.89,65Z"/><path class="cls-2" d="M112.79,62.27a1.06,1.06,0,0,0-.21-.74c-.17-.19-.67,0-.74.32a1.41,1.41,0,0,0,.1.54C112.38,62.61,112.76,62.54,112.79,62.27Z"/><path class="cls-2" d="M25.33,18.16c-.13.22-.36.81-.2,1s.76-.13.78-.22c.08-.28.24-.63,0-.88S25.4,18,25.33,18.16Z"/><path class="cls-2" d="M123,59.17a.42.42,0,0,0,.68-.19c.06-.2.15-.58-.11-.7a.35.35,0,0,0-.2-.05.89.89,0,0,0,.21-.91l.09.08c-.06-.59-.14-1.18-.22-1.76a.36.36,0,0,1-.1-.55s0-.05,0-.07c0-.28-.1-.56-.14-.85a1.69,1.69,0,0,0-.42-.36,1.17,1.17,0,0,0-.68-.13.32.32,0,0,0,0-.09,1,1,0,0,0-1.16-.33,1,1,0,0,0,.06,1.19.61.61,0,0,0,.35.15c.1.4.33.52.22.66s-.56.35-.49.71,1.15.62,1.33.57.6-.38.8,0a1.76,1.76,0,0,1,.17.42.59.59,0,0,0-.7-.15c-.55.23-.92.89-.73,1.3a.91.91,0,0,0,.87.41h0C122.55,58.64,122.7,59,123,59.17Z"/><path class="cls-2" d="M118.92,63.8a1.31,1.31,0,0,0-.58-1.49,1,1,0,0,0-1,.61.84.84,0,0,0,.51,1.19C118.31,64.31,118.78,64.19,118.92,63.8Z"/><path class="cls-2" d="M117.57,79.61c-.29-.1-.42.08-.52.3a.43.43,0,0,0,.28.66,2.18,2.18,0,0,0,.61-.09A.65.65,0,0,0,117.57,79.61Z"/><path class="cls-2" d="M85.09,10.23a.93.93,0,0,0,.74,1,.63.63,0,0,0,.83-.42,1.08,1.08,0,0,0-.72-1.16A.75.75,0,0,0,85.09,10.23Z"/><path class="cls-2" d="M91.34,19.34a.59.59,0,0,0,.59.61.78.78,0,0,0,.73-.78c-.14-.12-.33-.4-.58-.49S91.37,18.93,91.34,19.34Z"/><path class="cls-2" d="M85.54,8l-.8-.32A1.37,1.37,0,0,0,85.54,8Z"/><path class="cls-2" d="M91.91,15.09a1.13,1.13,0,0,0-1.19.78A1.2,1.2,0,0,0,91.6,17c.37.06.83-.38.9-.87S92.39,15.17,91.91,15.09Z"/><path class="cls-2" d="M100.24,23.9a1.12,1.12,0,0,0,.74,1.22c.35.05,1-.66,1-1.1a.9.9,0,0,0-1.78-.12Z"/><path class="cls-2" d="M40.75,22.7a.65.65,0,0,0,.09-.86.67.67,0,0,0-.93-.08.51.51,0,0,0-.08.82A.63.63,0,0,0,40.75,22.7Z"/><path class="cls-2" d="M46.4,14.05a.61.61,0,0,0,.12.9c.25.18.52.39.75.17.39-.42.43-.83.19-1.08A.7.7,0,0,0,46.4,14.05Z"/><path class="cls-2" d="M40.9,26.37a.77.77,0,0,0,0-.95.59.59,0,0,0-.85,0,.73.73,0,0,0-.07,1A.71.71,0,0,0,40.9,26.37Z"/><path class="cls-2" d="M44.46,8.27a1.41,1.41,0,0,0,2-.08,1.32,1.32,0,0,0,.22-1.65c-.86.26-1.72.54-2.56.84A1.06,1.06,0,0,0,44.46,8.27Z"/><path class="cls-2" d="M34.32,23.31a.71.71,0,0,0,0,1,.66.66,0,0,0,1,0,.7.7,0,0,0,0-.93A.67.67,0,0,0,34.32,23.31Z"/><path class="cls-2" d="M49.94,19.45a.78.78,0,0,0-1,.07.92.92,0,0,0-.08,1.19,1.2,1.2,0,0,0,1.37.09C50.45,20.55,50.3,19.82,49.94,19.45Z"/><path class="cls-2" d="M49.19,27.3a.48.48,0,0,0,.05.52.45.45,0,0,0,.42,0,.4.4,0,0,0,0-.41C49.62,27.33,49.32,27.14,49.19,27.3Z"/><path class="cls-2" d="M47.71,11a1.06,1.06,0,0,0-1.28,0,.94.94,0,0,0,.14,1.17.57.57,0,0,0,.84-.11C47.83,11.59,47.94,11.21,47.71,11Z"/><path class="cls-2" d="M37.75,13.64a.88.88,0,0,0-1.31.06A1.05,1.05,0,0,0,36.29,15a1.27,1.27,0,0,0,1.44,0A.87.87,0,0,0,37.75,13.64Z"/><path class="cls-2" d="M35.71,11.14c.46.52,1,.39,1.49.1.22.31.32.76.84.58a.6.6,0,0,0,.44-.66c0-.54-.49-.54-.9-.57,0-.15,0-.29-.08-.43l-1.83.94S35.69,11.13,35.71,11.14Z"/><path class="cls-2" d="M54,11.85c-.26-.42-.65-.47-1.17,0a13.2,13.2,0,0,0-.52,1.31.59.59,0,0,0,.42.75.62.62,0,0,0,.79-.36,1.8,1.8,0,0,1,.32-.49A1,1,0,0,0,54,11.85Z"/><path class="cls-2" d="M35.48,16.42A.83.83,0,0,0,34,16.36a4.79,4.79,0,0,0-.55,1.27A1.29,1.29,0,0,0,34.16,19c.28.12,1,.14,1.05-.47-.35-1,.39-1,.37-1.74A1,1,0,0,0,35.48,16.42Z"/><path class="cls-2" d="M38.52,18.88a.47.47,0,0,0,0-.74.65.65,0,0,0-.59.07c-.13.11-.32.54-.19.7S38.36,19,38.52,18.88Z"/><path class="cls-2" d="M40.81,17.58c-.32-.33-.78-.27-1.21.16a.71.71,0,0,0-.14,1,1.4,1.4,0,0,0,1.44.13A.85.85,0,0,0,40.81,17.58Z"/><path class="cls-2" d="M31.45,19.94a.19.19,0,0,0,0,.26c0,.05.2,0,.24,0a.18.18,0,1,0-.27-.23Z"/><path class="cls-2" d="M85.53,23.1a1.13,1.13,0,0,0-.35-1.47,1.21,1.21,0,0,0-1.73.35,1,1,0,0,0,.2,1.38A1.5,1.5,0,0,0,85.53,23.1Z"/><path class="cls-2" d="M85.08,27.69a.68.68,0,0,0,.73-.49.58.58,0,0,0-.45-.71.67.67,0,0,0-.72.49C84.56,27.31,84.78,27.69,85.08,27.69Z"/><path class="cls-2" d="M86.89,21.56a.7.7,0,0,0-.5-.71.82.82,0,0,0-.81.52.62.62,0,0,0,.51.69A.71.71,0,0,0,86.89,21.56Z"/><path class="cls-2" d="M86.09,26.67a.59.59,0,0,0,.48-.36c0-.19-.38-.4-.51-.39a.48.48,0,0,0-.32.38A.5.5,0,0,0,86.09,26.67Z"/><path class="cls-2" d="M82.64,15.33a.67.67,0,0,0-.21,1.1.94.94,0,0,0,.77.17.75.75,0,0,0,.39-.57A.77.77,0,0,0,82.64,15.33Z"/><path class="cls-2" d="M82.66,25.17c.49,0,.41-.45.56-.63A1.06,1.06,0,0,0,83.09,23,.94.94,0,0,0,82,23.2a.74.74,0,0,0-.13,1C82,24.5,82.18,25.18,82.66,25.17Z"/><path class="cls-2" d="M81.53,20.19c.19,0,.23-.67.14-1.07a.7.7,0,0,0,.13.16s.31-.09.31-.16,0-.4-.16-.48-.36.2-.36.26h0l-.06-.08c-.23-.18-.75.21-.83.71S81.28,20.24,81.53,20.19Z"/><path class="cls-2" d="M85.22,15.5a.65.65,0,0,0-.92.11.68.68,0,0,0,.13.93.75.75,0,0,0,1-.14A.65.65,0,0,0,85.22,15.5Z"/><path class="cls-2" d="M93.61,21.49a.68.68,0,0,0,.14-1.36.75.75,0,0,0-.71.63A.66.66,0,0,0,93.61,21.49Z"/><path class="cls-2" d="M93,18.34a.36.36,0,0,0-.43.09c-.08.08-.16.44,0,.53s.45-.08.51-.18S93.08,18.43,93,18.34Z"/><path class="cls-2" d="M92.51,24.73a1.85,1.85,0,0,0-.4-1.92,1.25,1.25,0,0,0-1.66.46,1.39,1.39,0,0,0,.36,1.7A1.26,1.26,0,0,0,92.51,24.73Z"/><path class="cls-2" d="M87.36,18.85a.62.62,0,0,0,0-.87.83.83,0,0,0-.59-.2c-.38,0-.49.34-.46,1.06C86.65,19,87,19.27,87.36,18.85Z"/><path class="cls-2" d="M74.13,9A.84.84,0,0,0,73,9.1a1.06,1.06,0,0,0,.12,1.29,1.16,1.16,0,0,0,1.48-.26C74.75,9.84,74.53,9.3,74.13,9Z"/><path class="cls-2" d="M76.61,13.86a.84.84,0,0,0,1.25-.33c.27-.47.22-.95-.14-1.15a1.32,1.32,0,0,0-1.56.37A1,1,0,0,0,76.61,13.86Z"/><path class="cls-2" d="M80.13,6.38a.65.65,0,0,0,.54.17.76.76,0,0,0,.31-.1c-1-.3-2-.56-3.06-.81A1,1,0,0,0,78.22,7a1.56,1.56,0,0,0,1.15.24.29.29,0,0,0,.14.08c.11,0,.46,0,.49-.2a.26.26,0,0,0-.1-.2A.73.73,0,0,0,80,6.87,1.12,1.12,0,0,0,80.13,6.38Z"/><path class="cls-2" d="M82.33,12.66a.56.56,0,0,0,.09-.17,1,1,0,0,0,.22.35,1.3,1.3,0,0,0-.11.46.89.89,0,0,0,.86,1.07,1,1,0,0,0,1-.8.74.74,0,0,1,.13.08A.85.85,0,0,0,86,13.48a.52.52,0,0,0,.18.18.77.77,0,0,0,.88-.38.79.79,0,0,0-.16-1.09.64.64,0,0,0-.89.28h0a1.23,1.23,0,0,0-.54-.37,1.27,1.27,0,0,1-.74-.53,1.36,1.36,0,0,0-1.2-.55,1.19,1.19,0,0,0-1.06.76l0,.12a1.08,1.08,0,0,0-.46-.68c-.35-.22-.81,0-1.13.47a.93.93,0,0,0,.08,1.17A1.21,1.21,0,0,0,82.33,12.66Z"/><path class="cls-2" d="M85.52,18.51c.29,0,.56-.13.53-.43s-.18-.83-.42-.85-.53.5-.62.72S85.22,18.5,85.52,18.51Z"/><path class="cls-2" d="M76,10.25c0-.13-.18-.28-.3-.33s-.37,0-.4.21.27.3.39.33A.34.34,0,0,0,76,10.25Z"/><path class="cls-2" d="M77.31,10.08A1.42,1.42,0,0,0,79.14,10a1.47,1.47,0,0,0-.38-1.8,1.37,1.37,0,0,0-1.68.44A1.07,1.07,0,0,0,77.31,10.08Z"/><path class="cls-2" d="M76.56,6.58a1,1,0,0,0,.13-.34h0c.48.16.74-.13,1-.52l-.07-.15c-1-.23-1.93-.43-2.91-.6a.88.88,0,0,0-.24.23,1.09,1.09,0,0,0,.41,1.62A1.1,1.1,0,0,0,76.56,6.58Z"/><path class="cls-2" d="M116.05,72a.7.7,0,0,0,.62-1.24.68.68,0,0,0-.9.26A.76.76,0,0,0,116.05,72Z"/><path class="cls-2" d="M116.15,70.14a.77.77,0,0,0,.56-1,.67.67,0,0,0-1.12,0,.88.88,0,0,0-.06.78A.72.72,0,0,0,116.15,70.14Z"/><path class="cls-2" d="M116.53,75.67a.64.64,0,0,0,1-.24,1.4,1.4,0,0,0-.29-1.32.89.89,0,0,0-1.22.47C115.77,75,116,75.4,116.53,75.67Z"/><path class="cls-2" d="M111.26,55.41c0-.08,0-.14-.07-.23s-.19,0-.24.08a.28.28,0,0,0,0,.19C111.08,55.46,111.21,55.49,111.26,55.41Z"/><path class="cls-2" d="M113.09,68.51c.14-.26-.32-.71-.83-.72s-.6.66-.52.9S113,68.76,113.09,68.51Z"/><path class="cls-2" d="M117.74,86.15c.36-.16.26-.06.59.17a.67.67,0,0,0,1.13-.33,1.33,1.33,0,0,0-.91-1.52,1.55,1.55,0,0,0-1.77,1.13C116.7,86.14,117.39,86.32,117.74,86.15Z"/><path class="cls-2" d="M98.83,22.74c.11,0,.4-.25.3-.42a.48.48,0,0,0-.5-.15.42.42,0,0,0-.16.39A.4.4,0,0,0,98.83,22.74Z"/><path class="cls-2" d="M110.24,70.85a1,1,0,0,0-1.33.4,1.5,1.5,0,0,0,.52,1.82,1.12,1.12,0,0,0,1.4-.56A1.2,1.2,0,0,0,110.24,70.85Z"/><path class="cls-2" d="M122,74.13c-.22.5-.1,1.07.26,1.22a1,1,0,0,0,.67,0c.11-.55.21-1.1.3-1.66A.82.82,0,0,0,122,74.13Z"/><path class="cls-2" d="M106.72,74a.52.52,0,0,0-.43-.26.54.54,0,0,0-.31.4c0,.11.23.43.42.43S106.75,74.12,106.72,74Z"/><path class="cls-2" d="M120.84,81.79c-.08.37-.2.73-.31,1.09a.54.54,0,0,0,.13.87c.28-.81.55-1.63.8-2.47A.6.6,0,0,0,120.84,81.79Z"/><path class="cls-2" d="M121.52,64.86a1.45,1.45,0,0,0,1.72-.62,1.37,1.37,0,0,0-.68-1.61,1.08,1.08,0,0,0-1.42.44A1.41,1.41,0,0,0,121.52,64.86Z"/><path class="cls-2" d="M119.27,77.15c-.29-.1-.42.09-.52.3a.44.44,0,0,0,.28.67,1.85,1.85,0,0,0,.61-.1A.65.65,0,0,0,119.27,77.15Z"/><path class="cls-2" d="M108.82,80.21a1.84,1.84,0,0,0,1.84-.67A1.26,1.26,0,0,0,110,78a1.41,1.41,0,0,0-1.64.6A1.26,1.26,0,0,0,108.82,80.21Z"/><path class="cls-2" d="M100.15,20.31a1.21,1.21,0,0,0-.18-.62.59.59,0,0,0,.64-.5.68.68,0,0,0-.82-.75c-.45.07-.61-.2-.89-.46a3.25,3.25,0,0,0,.25-.34.47.47,0,0,0,.21-.06.52.52,0,0,0,.06.2.73.73,0,0,0,.79.33c.31-.12.31-.66.25-.94a1.17,1.17,0,0,0-.83-.59c0-.17.06-.16.29-.39L100,16c-.43-.32-.87-.63-1.31-.94a1.9,1.9,0,0,0-.62.61.89.89,0,0,0-.09.38c-.33,0-.52.22-.6.66A1,1,0,0,0,98,18.06a2.86,2.86,0,0,1-.69.21.63.63,0,0,0-.68.53.92.92,0,0,0,.26,1c1.09.82,1.49.8,2.45-.14l.09-.06h0a1.54,1.54,0,0,0-.28.45.42.42,0,0,0,.31.6A.51.51,0,0,0,100.15,20.31Z"/><path class="cls-2" d="M107.57,62c.58.16.92-.66.75-.91s-.91-.32-1.09,0S107,61.85,107.57,62Z"/><path class="cls-2" d="M104.74,58.63a.36.36,0,0,0,.5-.16c.09-.27-.18-.38-.3-.43a.39.39,0,0,0-.35.19A.44.44,0,0,0,104.74,58.63Z"/><path class="cls-2" d="M105.77,67.25a.65.65,0,0,0,.56-.18.41.41,0,0,0-.18-.64c-.17-.07-.65-.15-.8.21S105.62,67.2,105.77,67.25Z"/><path class="cls-2" d="M114.69,62.12a.47.47,0,0,0-.31-.68.83.83,0,0,0-.64.13.74.74,0,0,0,.16.88A.61.61,0,0,0,114.69,62.12Z"/><path class="cls-2" d="M119.58,61.57a.68.68,0,0,0,.37-.79.57.57,0,0,0-.75-.38.66.66,0,0,0-.37.79A.56.56,0,0,0,119.58,61.57Z"/><path class="cls-2" d="M120.77,52.33a.57.57,0,0,0-.24-.82.63.63,0,0,0-.88.28.69.69,0,0,0,.33.88A.63.63,0,0,0,120.77,52.33Z"/><path class="cls-2" d="M114.15,56.61a.8.8,0,0,0-.3-1.11,1.15,1.15,0,0,0-1.24.19c-.06-.13-.17-.32-.36-.28s-.21.36-.17.41a.56.56,0,0,0,.36.21,1.15,1.15,0,0,0,.5,1.19C113.27,57.39,113.92,57.06,114.15,56.61Z"/><path class="cls-2" d="M120.71,60.37c.3.13.81-.16,1-.59a.84.84,0,0,0-.25-1.14,1.06,1.06,0,0,0-1.26.3A1.17,1.17,0,0,0,120.71,60.37Z"/><path class="cls-2" d="M40.92,12.49a.89.89,0,0,0,.15-1.17.74.74,0,0,0-1-.11,1,1,0,0,0,0,1.28A.57.57,0,0,0,40.92,12.49Z"/><path class="cls-2" d="M29.48,15a.1.1,0,0,0,0-.05l-.26.19A.59.59,0,0,0,29.48,15Z"/><path class="cls-2" d="M41.39,15.63a.66.66,0,0,0-.92.12.55.55,0,0,0,.05.83.71.71,0,0,0,.94,0A.68.68,0,0,0,41.39,15.63Z"/><path class="cls-2" d="M31,24.72a.59.59,0,0,0,.12-.88.53.53,0,0,0-.51-.1.68.68,0,0,0-.37.48C30.22,24.65,30.74,24.79,31,24.72Z"/><path class="cls-2" d="M123.53,67.5a1.82,1.82,0,0,0,.35.12c0-.48.05-1,.07-1.45a1.3,1.3,0,0,0-.68.55A.54.54,0,0,0,123.53,67.5Z"/><path class="cls-2" d="M30.21,18.5A.93.93,0,0,0,30,17.26a.87.87,0,0,0-1.31,0,.86.86,0,0,0-.12,1.23A1.28,1.28,0,0,0,30.21,18.5Z"/><path class="cls-2" d="M110.44,66.06c0-.29-.83-.7-1.09-.42a.67.67,0,0,0,0,.86C109.65,66.75,110.45,66.35,110.44,66.06Z"/><path class="cls-2" d="M108.9,60.21c.11.08.49.21.65,0s-.18-.52-.31-.58-.41-.1-.52.12A.4.4,0,0,0,108.9,60.21Z"/><path class="cls-2" d="M43.05,8.36a.72.72,0,0,0,0-.58c-1,.37-2,.77-2.92,1.19a1.76,1.76,0,0,0,.81.54A2.26,2.26,0,0,0,43.05,8.36Z"/><path class="cls-2" d="M110.66,54.84c0-.3.25-.83,0-1s-.71.19-1,.27l0,.21c.1.38.23.43.51.53A.82.82,0,0,0,110.66,54.84Z"/><path class="cls-2" d="M109.78,56.27a.67.67,0,0,0-.39-.78.5.5,0,0,0-.69.12c-.33.39-.15.74.11,1.13C109.24,56.69,109.68,56.75,109.78,56.27Z"/><path class="cls-2" d="M43.44,21c.34-.35.42-.93.16-1.17a1.29,1.29,0,0,0-1.6,0A.81.81,0,0,0,42.13,21,.88.88,0,0,0,43.44,21Z"/><path class="cls-2" d="M48.75,14a.72.72,0,0,0,0,.94c.39.34.78.14,1.16,0,.08-.77,0-1.06-.42-1.18A.65.65,0,0,0,48.75,14Z"/><path class="cls-2" d="M51.21,13.07c.48-.52.54-.92.18-1.28a1.08,1.08,0,0,0-1.27.07,1.21,1.21,0,0,0,.17,1.29A.62.62,0,0,0,51.21,13.07Z"/><path class="cls-2" d="M49.16,17.57c.42-.28.74-.55.54-1a.64.64,0,0,0-.52-.3,1,1,0,0,0-.63.47C48.37,17.2,48.82,17.33,49.16,17.57Z"/><path class="cls-2" d="M48.79,10a1.11,1.11,0,0,1,1,.74,1,1,0,0,0,1.16.3,1.24,1.24,0,0,0,.39-.81.54.54,0,0,0,.16-.21A.58.58,0,0,0,51,9.24a.39.39,0,0,0-.45-.18,1.56,1.56,0,0,1-1.28-.29.53.53,0,0,0-.81.23C48.3,9.35,48.42,9.91,48.79,10Z"/><path class="cls-2" d="M45.84,21.08a.73.73,0,0,0-.94,0,.77.77,0,0,0,0,1,.61.61,0,0,0,.85,0A.66.66,0,0,0,45.84,21.08Z"/><path class="cls-2" d="M45.75,24.57a.39.39,0,0,0,0-.66c-.23-.19-.48-.33-.76-.09a.79.79,0,0,0,.08.95A.75.75,0,0,0,45.75,24.57Z"/><path class="cls-2" d="M44.86,28.69a.73.73,0,0,0,0-.86c-.22-.24-.72,0-1,.11s-.41.83-.19,1.08S44.67,28.89,44.86,28.69Z"/><path class="cls-2" d="M54.87,9.23a.69.69,0,0,0,.51,0c.34-.17.5.71,1,.5s.92.27,1.49-.05.9-1,.46-1.36a2.22,2.22,0,0,0-1.46-.44.59.59,0,0,0-.32.08,1,1,0,0,0-.13-1.16c-.33-.22-.88,0-1.2.47a.77.77,0,0,0-.89.15,1.14,1.14,0,0,0-.09,1.35h0a1.25,1.25,0,0,0-1.06.38,1.27,1.27,0,0,0,.14,1.65,1.07,1.07,0,0,0,1.43,0A1.73,1.73,0,0,0,54.87,9.23Z"/><path class="cls-2" d="M52.34,7.93l0,0,.7-.67a5.18,5.18,0,0,0-.31-.54.71.71,0,0,0-.64-.26.9.9,0,0,0-.26-.64l-.09-.09a.46.46,0,0,0-.11-.47l-1.79.41a.13.13,0,0,0,.07.06c.54.16.48.63.57,1a.66.66,0,0,0,1,.51l.13-.06a.6.6,0,0,0,.14.29A2.85,2.85,0,0,0,52.34,7.93Z"/><path class="cls-3" d="M57.76,68.87a7.43,7.43,0,0,0,0-4.5c-.26-1.13-.74-2.07-1-3.19-.27-1.31-.16-2.78-.34-4.12-.22-1.65.19-9.34-3.07-8.89s-.57,7.43-.23,9a35.85,35.85,0,0,1,1,7.19c0,1.43.46,3.65,1.48,4.74a1.33,1.33,0,0,0,2.07-.27Z"/><path class="cls-3" d="M44.06,69.64A3.88,3.88,0,0,0,42,65.11l.83.84c-.31-1.83-.66-3.68-1.14-5.46-.34-1.27-1.41-3.09-3-2.41s-1.12,2.73-.55,3.92c.78,1.65,1.62,3.28,2.53,4.87V65.66c-.94,1.45-.05,3.91,1.39,4.82a1.43,1.43,0,0,0,2.08-.84Z"/><path class="cls-3" d="M88.56,54.5c-1.94.78-2.75,4.59-1.49,6.1l-.32-1.22a36.81,36.81,0,0,1-2.22,6.46c-.52,1.38-1,2.92-.27,4.32a1.6,1.6,0,0,0,2.18.57,4.31,4.31,0,0,0,1.6-3c.32-1.83.63-3.71.84-5.57a6.44,6.44,0,0,1,.36-1.75A10.76,10.76,0,0,0,90.17,58c.2-1.07.44-2.27-.34-3.16a1.25,1.25,0,0,0-1.27-.33Z"/><path class="cls-3" d="M73,70c.9-.41,1.06-1.64,1.17-2.49a7.73,7.73,0,0,0,0-2,6.39,6.39,0,0,0-.23-.7,8.18,8.18,0,0,1,.3-1.33c.39-2.08,1.6-5.6,0-7.39a1.63,1.63,0,0,0-2.26,0c-2.1,1.83-.44,6.17-.62,8.5,0,.22-.42.88-.56,1.6a6.45,6.45,0,0,0,0,2c.17,1.18.88,2.48,2.28,1.84Z"/><path class="cls-3" d="M72.69,46c-.64,1.31-.67,2.67.65,3.56l-.45-1.7a6.15,6.15,0,0,0-.54,1.3c-.08.28-.06.59-.14.86.22-.79-.24.42-.21.33a2.53,2.53,0,0,0,.79,3.16,1.88,1.88,0,0,0,1.88,0c1.48-.72,1.18-2.72.6-3.91l.23.85a7.69,7.69,0,0,0-.33-2.29l-.57,1.4a2.49,2.49,0,0,0,1-3.17c-.39-1.22-2.31-1.71-3-.39Z"/><path class="cls-4" d="M31.07,24.33c.26,1.24.55,2.48.78,3.73a1.85,1.85,0,0,0,2.69,1.12c.68-.5,1.35-1,2-1.57a1,1,0,0,1,1.61,0c1,1,2,2,3,3a1.11,1.11,0,0,1,0,1.7c-.43.48-.75,1.06-1.21,1.5a1.7,1.7,0,0,0-.31,2.32,1.19,1.19,0,0,0,1.09.82c.94.08,1.87.26,2.81.42a1,1,0,0,1,.91,1.11c0,1.39,0,2.78,0,4.16a1,1,0,0,1-1,1.08c-1,.14-1.94.28-2.9.45a1.83,1.83,0,0,0-1,2.58c.56.76,1.2,1.48,1.68,2.29a1.33,1.33,0,0,1,0,1.23c-1,1.1-2.08,2.11-3.15,3.14a1,1,0,0,1-1.61,0c-.4-.36-.88-.63-1.27-1A1.91,1.91,0,0,0,32.63,52a1.45,1.45,0,0,0-.9,1.17c-.09.88-.27,1.74-.38,2.61a1,1,0,0,1-1.12,1c-1.36,0-2.71,0-4.06,0-.77,0-1.09-.35-1.18-1.08s-.26-1.74-.4-2.6a1.8,1.8,0,0,0-2.8-1.1c-.67.52-1.33,1.05-2,1.58a.89.89,0,0,1-1.35,0l-3.11-3a1.14,1.14,0,0,1,0-1.78c.43-.47.75-1,1.2-1.5a1.64,1.64,0,0,0,.36-2.14,1.36,1.36,0,0,0-1.31-1c-.87-.06-1.74-.25-2.61-.39a1,1,0,0,1-1-1.17q0-2,0-4a1,1,0,0,1,1-1.16c.87-.11,1.73-.3,2.6-.37a1.37,1.37,0,0,0,1.25-.94,1.66,1.66,0,0,0-.3-2.15c-.5-.54-.89-1.18-1.36-1.77a.91.91,0,0,1,0-1.35c1-1,2.07-2,3.11-3.06a1.09,1.09,0,0,1,1.69,0c.43.39,1,.66,1.35,1.08a1.78,1.78,0,0,0,2.4.33,1.54,1.54,0,0,0,1-1.33c.1-.84.22-1.67.39-2.5a5.4,5.4,0,0,1,.45-1Zm-2.75,9.74a6.49,6.49,0,1,0,6.39,6.6A6.44,6.44,0,0,0,28.32,34.07Z"/><circle class="cls-5" cx="28.22" cy="40.56" r="6.48"/><path class="cls-4" d="M48.81,26.83c0,13.41,15.64,19.26,16.31,19.5a1.41,1.41,0,0,0,.95,0c.67-.24,16.31-6.09,16.31-19.5V14.49a1.75,1.75,0,0,0-1.16-1.65l-15-5.47a1.63,1.63,0,0,0-1.15,0L49.91,12.86a1.68,1.68,0,0,0-1.1,1.58Z"/><path class="cls-5" d="M65.68,28.94a7.06,7.06,0,1,1,7-7A7.06,7.06,0,0,1,65.68,28.94Zm0-11.16a4.11,4.11,0,1,0,4.11,4.11A4.11,4.11,0,0,0,65.68,17.78Z"/><rect class="cls-5" x="56.9" y="21.89" width="17.42" height="13.38" rx="0.96"/><circle class="cls-4" cx="102.57" cy="39.85" r="16.03"/><rect class="cls-5" x="106.42" y="40.79" width="3.2" height="8.12" transform="translate(-0.08 89.52) rotate(-45)"/><path class="cls-5" d="M101.23,45.71a7.5,7.5,0,1,1,7.5-7.5A7.51,7.51,0,0,1,101.23,45.71Zm0-11.8a4.31,4.31,0,1,0,4.31,4.3A4.31,4.31,0,0,0,101.23,33.91Z"/><rect class="cls-6" x="23.44" y="62.17" width="4.2" height="15.54" transform="translate(-43.06 40.99) rotate(-47.06)"/><rect class="cls-6" x="94.24" y="68.56" width="14.22" height="4.2" transform="translate(-21.54 83.41) rotate(-40.81)"/><rect class="cls-7" x="29.64" y="73.69" width="67.93" height="38.27"/><path class="cls-8" d="M38.81,107.47a.62.62,0,0,0,.66-.3,1.09,1.09,0,0,0,1-.36,1.1,1.1,0,0,0-.07-1.44.77.77,0,0,0-.25-.14.8.8,0,0,0,.13-.13,1.09,1.09,0,0,0-.19-1.34,1,1,0,0,0-.77-.06.79.79,0,0,0-.66.44.8.8,0,0,0,.17.74.93.93,0,0,0,.29.3l.18.09a1.46,1.46,0,0,0-.52.34.79.79,0,0,0-.2.81.6.6,0,0,0-.19.37A.54.54,0,0,0,38.81,107.47Z"/><path class="cls-8" d="M31.6,106.43a.46.46,0,0,0-.23-.14.84.84,0,0,0,.47-.69.5.5,0,0,0-.48-.57,1.05,1.05,0,0,0-.72.26.69.69,0,0,0,.3,1,1.94,1.94,0,0,1-.72,0,.74.74,0,0,0-.55.28l0,0v2a.79.79,0,0,0,.37-.16,3.79,3.79,0,0,0,.55-.71l.46.16a.64.64,0,0,0,.74-.22.7.7,0,0,0,.13-.57.94.94,0,0,0,.21.18c.37.24.76.09,1.09-.41a.88.88,0,0,0,.17-.63.54.54,0,0,0,.5-.52.32.32,0,0,0,0-.13,1.47,1.47,0,0,0,1.09-.36.53.53,0,0,0,.13-.46s.07-.06.09-.1a.13.13,0,0,0,0-.06.33.33,0,0,1,.12.4c-.11.33.13.85.84,1s1.4-.49,1.2-1-.54-.51-.47-.69.29-.38.28-.63a.64.64,0,0,0-.32-.81.57.57,0,0,0-.77.26,1,1,0,0,0,0,.18,1.22,1.22,0,0,0-.28.06c-.15.1-.44.52-.71.28s-.38-.7-.77-.75-1.27-.2-1.6.32.19.67.29,1a.84.84,0,0,0,.42.49,1,1,0,0,0,0,.28.6.6,0,0,0-.57.29.5.5,0,0,0-.07.45,1.39,1.39,0,0,0-1,.25A.79.79,0,0,0,31.6,106.43Z"/><path class="cls-8" d="M30.72,92.79a.76.76,0,0,0,.65.72.65.65,0,0,0,.69-.56.67.67,0,0,0-1.34-.16Z"/><path class="cls-8" d="M31.68,102.46a.75.75,0,0,0-.31-.58c-.42-.17-.72.09-.94.47a1.18,1.18,0,0,0,.28.53,1.29,1.29,0,0,0-.77.38l-.3-.05V106a1.68,1.68,0,0,0,.91-1,.42.42,0,0,1,0-.06.9.9,0,0,0,1.17-.34,1.24,1.24,0,0,0-.38-1.64A.54.54,0,0,0,31.68,102.46Z"/><path class="cls-8" d="M29.64,89.24v.39s0,0,0,0A.33.33,0,0,0,29.64,89.24Z"/><path class="cls-8" d="M29.64,109.47v1.29a1,1,0,0,0,.42.31l0,.13a1,1,0,0,0,.28.71h1.77a.91.91,0,0,0,.27-.51,1.26,1.26,0,0,0-.54-1.23,1.19,1.19,0,0,0-.15-.55,1.65,1.65,0,0,0,.53.16.42.42,0,0,0,.19.33,1.2,1.2,0,0,0,.61.1.55.55,0,0,0,.18.75.63.63,0,0,0,.79-.09.87.87,0,0,0,0,.86.61.61,0,0,0,.25.18h.48a.62.62,0,0,0,.22-.15.6.6,0,0,0,.14-.21c.3-.1.55-.25.47-.63a.61.61,0,0,0-.1-.23.88.88,0,0,0,1.05-.21l.18-.17a.82.82,0,0,0,.24-.5.38.38,0,0,0,.13,0c.35,0,.5-.2.54-.52a.61.61,0,0,0-.53-.71.45.45,0,0,0-.23,0,1.68,1.68,0,0,0-.23-.92l.05.06a.52.52,0,0,0,.73-.13.66.66,0,0,0,.1-.84.76.76,0,0,0-1.07-.15.74.74,0,0,0,0,.77.94.94,0,0,0-1-.15s0-.05,0-.08c.06-.5-.23-1-.6-1a1.36,1.36,0,0,0-1.25,1.1.6.6,0,0,0,.17.42,2,2,0,0,0-.4.3,0,0,0,0,1,0,0,1.36,1.36,0,0,0-1.68-.07,1.24,1.24,0,0,0-.35,1.24.9.9,0,0,0-.43-.2A1.29,1.29,0,0,0,29.64,109.47Zm4.51,1.09c.12-.42.42-.45.75-.58a2,2,0,0,0,.36.55.94.94,0,0,0-.5,0,.81.81,0,0,0-.1.18.79.79,0,0,0-.62,0A1.08,1.08,0,0,0,34.15,110.56Zm-.9-.9a.31.31,0,0,1,0,.1h0l0-.08Z"/><path class="cls-8" d="M30.82,82.58a1.2,1.2,0,0,0-1.18.07v2.52h0a.64.64,0,0,0,.66-.6s0-.06,0-.09A2.11,2.11,0,0,0,31,84,1.13,1.13,0,0,0,30.82,82.58Z"/><path class="cls-8" d="M46.08,102.3a1,1,0,0,0,1,.07.34.34,0,0,0,.2.22c.33.09.6-.38.84-.54l0-.2a.55.55,0,0,0-.59-.33.77.77,0,0,0-.22-.34.89.89,0,0,0-1.18.23A.61.61,0,0,0,46.08,102.3Z"/><path class="cls-8" d="M47.32,96.67a.39.39,0,0,0-.3-.42c-.12,0-.5,0-.58.23s.31.42.44.44S47.28,96.9,47.32,96.67Z"/><path class="cls-8" d="M32.37,89.92a1,1,0,0,0-.66-.56.6.6,0,0,0-.05-.64c-.25-.36-.63-.24-1-.14-.07.4-.23.81.23,1l.13,0a1.47,1.47,0,0,0-.06,1.14.61.61,0,0,0,.84.24A.9.9,0,0,0,32.37,89.92Z"/><path class="cls-8" d="M38.79,93.08a.49.49,0,0,0,.35.58,3.88,3.88,0,0,0,1.76.07l.09.06a.53.53,0,0,0,.67-.59.78.78,0,0,0-.59-1.14A5.3,5.3,0,0,0,39.75,92,1.25,1.25,0,0,0,38.79,93.08Z"/><path class="cls-8" d="M40.19,88.53a.56.56,0,0,0-1,0,.58.58,0,0,0,.3.68C39.83,89.31,40,89.16,40.19,88.53Z"/><path class="cls-8" d="M32.71,75.24c-.08-.51-.76-.49-1-.24s-.22.14-.58,0-.95-.06-.94.62a1.27,1.27,0,0,0,1.25,1.14A1.5,1.5,0,0,0,32.71,75.24Z"/><path class="cls-8" d="M32.59,81.38c.21.82.79,1.18,1.31,1.08a1.44,1.44,0,0,0,.94-1.5,1.06,1.06,0,0,0-.87-.82.37.37,0,0,0-.36-.15,2.18,2.18,0,0,0-.53.26s0,0,0,0A.94.94,0,0,0,32.59,81.38Z"/><path class="cls-8" d="M32.79,83.66c.29,0,.36-.19.39-.41s-.15-.58-.44-.54a2.18,2.18,0,0,0-.53.26A.62.62,0,0,0,32.79,83.66Z"/><path class="cls-8" d="M44.54,105.41c0,.12.13.3.22.32a4,4,0,0,0,.48.09c-.26.07-.41.25-.36.44a.75.75,0,0,0,.36.47c.25.1.62-.26.57-.54a.8.8,0,0,0-.2-.32h.1c.41.66.95,1,1.35.71a1.3,1.3,0,0,0,.31-1.5c-.27-.46-.57-.46-1.52,0-.23-.35-.43-.74-.92-.48A.66.66,0,0,0,44.54,105.41Z"/><path class="cls-8" d="M45.63,97.72a.85.85,0,0,0-1.28.31,1,1,0,0,0,.41,1.35,1,1,0,0,0,1.3-.42A.85.85,0,0,0,45.63,97.72Z"/><path class="cls-8" d="M42.59,102.62a1.2,1.2,0,0,0,0,1.58,1,1,0,0,0,.51.18,1.09,1.09,0,0,0,.09.75c.39,0,.78.18,1-.25a.55.55,0,0,0-.07-.64.41.41,0,0,0,.13-.1.69.69,0,0,0,.17-.17,1.21,1.21,0,0,0-.31-1.56A1.17,1.17,0,0,0,42.59,102.62Z"/><path class="cls-8" d="M29.64,81v1l.26,0c.45-.09.69-.32.63-.61S30.11,80.85,29.64,81Z"/><path class="cls-8" d="M46.69,107.81c-.09.08-.33.2-.39.38a.68.68,0,1,0,1.29.4C47.63,108.29,47.26,107.91,46.69,107.81Z"/><path class="cls-8" d="M34.37,83.45a1.34,1.34,0,0,0-1.07.41c-.34.29-.81.26-1,.67a1.9,1.9,0,0,0,.4,2.25,1.55,1.55,0,0,0,1.4.44c.52-.11.56-.8,1-1.11a2.44,2.44,0,0,0,.33-.29.26.26,0,0,0,.1,0,.85.85,0,0,0,1-.77c.08-.39-.26-.74-.81-.84a.83.83,0,0,0-.22,0,2.79,2.79,0,0,0-.35-.42A1.35,1.35,0,0,0,34.37,83.45Z"/><path class="cls-8" d="M41.66,96.66a.73.73,0,0,0,.55-.29c.09-.15-.11-.72-.39-.76a.58.58,0,0,0-.63.52A.44.44,0,0,0,41.66,96.66Z"/><path class="cls-8" d="M43.27,92.15,43,92.4a.42.42,0,0,0-.07-.15c-.06-.07-.37-.17-.5,0s0,.41.11.47a.48.48,0,0,0,.22.06.46.46,0,0,0,0,.3.64.64,0,0,0,.73.41A.48.48,0,0,0,44,93C44,92.5,43.68,92.32,43.27,92.15Z"/><path class="cls-8" d="M43.87,95.58a1.37,1.37,0,0,0-.24-.47c-.46-.08-.79.1-.74.35a1,1,0,0,0,.39.62C43.49,96.21,43.89,95.87,43.87,95.58Z"/><path class="cls-8" d="M43.06,106.34a1.14,1.14,0,0,0-.85-1c-.34,0-.86.44-.89.84a.78.78,0,0,0,.53.75H42a.75.75,0,0,0,0,.57.51.51,0,0,0,.43.24c.4-.06.51-.37.46-.78l-.23-.13A.64.64,0,0,0,43.06,106.34Z"/><path class="cls-8" d="M29.87,100.26l-.23-.27v2a.63.63,0,0,0,.87-.13.6.6,0,0,0-.09-.77C30.24,100.79,30.06,100.52,29.87,100.26Z"/><path class="cls-8" d="M47.56,111.27a.73.73,0,0,0-.51-.73c-.46,0-.47-.35-.67-.59a.64.64,0,0,0-.13-.1c.18-.17.31-.46.06-.64a.72.72,0,0,0-.66-.06.58.58,0,0,0-.12.32,2.22,2.22,0,0,0-.45,0,1.93,1.93,0,0,0-.24,0l-.06-.11-.16-.19a.72.72,0,0,0,.64-.19c.39-.51.43-1.1.09-1.35l-.13,0c0-.21-.14-.45-.4-.43s-.44.31-.52.53a.83.83,0,0,0-.23.19.88.88,0,0,0,.09,1,.93.93,0,0,0-.6.26l-.28.2a.83.83,0,0,0-.8-.75,4.17,4.17,0,0,0-1.12.15,1.12,1.12,0,0,0-.45-.22,1.37,1.37,0,0,0-.29,0,1.24,1.24,0,0,0-1.22-.39,1.58,1.58,0,0,0-.8,2.21.64.64,0,0,1-.07.71.72.72,0,0,0,.3.89h.61a1.09,1.09,0,0,0,.13-.17l.08.17h.86a.37.37,0,0,0-.08-.59,2.4,2.4,0,0,0-.44-.28l.27-.18.15,0a1,1,0,0,0,1.05-.51.68.68,0,0,0,.29,0,1.73,1.73,0,0,0,.45.2c.3.44.63.59,1,.45a1.23,1.23,0,0,0,.82.64.79.79,0,0,0,.67-.4,9.25,9.25,0,0,1,1.67.28C46.81,111.78,47.48,111.6,47.56,111.27Z"/><path class="cls-8" d="M29.82,90.65c-.07-.11-.12-.22-.18-.32v1.76A1.19,1.19,0,0,0,29.82,90.65Z"/><path class="cls-8" d="M37.45,111.18c-.23-.24-1.14-.09-1.43.23a.73.73,0,0,0-.14.5H37.6A.85.85,0,0,0,37.45,111.18Z"/><path class="cls-8" d="M37.11,101.72a1,1,0,0,0-.24,1.11,1.1,1.1,0,0,0,1.37.11,1,1,0,0,0,0-1.29C38,101.29,37.56,101.31,37.11,101.72Z"/><path class="cls-8" d="M29.64,77s0,0,0,0a.7.7,0,0,0,0-1Z"/><path class="cls-8" d="M29.89,78.05l-.05,0a.67.67,0,0,0-.17-.08h0v2.48a.55.55,0,0,0,.42-.63c0-.22,0-.45,0-.68l.19,0a.93.93,0,0,0,.25.53.76.76,0,0,0,.83,0c.26-.08.55-.08.69-.42a.82.82,0,0,0-.6-1,1,1,0,0,0-.64.06A.65.65,0,0,0,29.89,78.05Z"/><path class="cls-8" d="M31.15,87.19c.06-.52-.21-1-.58-1a1.2,1.2,0,0,0-.93.56v1a.86.86,0,0,0,.51.26C30.74,88.07,31.07,87.8,31.15,87.19Z"/><path class="cls-8" d="M39.66,78.89a.44.44,0,0,0,0,.49c.07.1.25.06.36,0a1.28,1.28,0,0,0,1.07.95,1.35,1.35,0,0,0,1.33-1,1.22,1.22,0,0,0-.91-1.38,1.83,1.83,0,0,0-1.43.94A.32.32,0,0,0,39.66,78.89Z"/><path class="cls-8" d="M70.83,109c-.4.37-.4.67,0,1.12s.8.48,1.07.2a1.4,1.4,0,0,0,.07-1.38A.8.8,0,0,0,70.83,109Z"/><path class="cls-8" d="M71.51,107a.33.33,0,0,0,.16.38.44.44,0,0,0,.46-.17c.08-.12-.08-.33-.22-.38A.33.33,0,0,0,71.51,107Z"/><path class="cls-8" d="M73.58,103c-.35,0-.73-.16-1,.05a.59.59,0,0,0-.22.5,1,1,0,0,0,0,.6,1.33,1.33,0,0,0,.91.69,1,1,0,0,0,.94-.42.84.84,0,0,0,0-.85A1,1,0,0,0,73.58,103Z"/><path class="cls-8" d="M72.68,98.67c.17-.13,0-.4-.09-.43s-.28-.12-.42,0a.23.23,0,0,0,0,.34C72.29,98.67,72.51,98.81,72.68,98.67Z"/><path class="cls-8" d="M72.29,96.24c-.31.26-.39.83-.13,1s1.19-.26,1.23-.63S72.6,96,72.29,96.24Z"/><path class="cls-8" d="M77.91,109.82a1.29,1.29,0,0,0-.07.86,1.42,1.42,0,0,0,.77.85,2.1,2.1,0,0,1,.5.43h1.64a1.7,1.7,0,0,0,.8-.93,1.57,1.57,0,0,0-.09-1.47c-.3-.44-.95-.24-1.42-.54C79,108.29,78.26,109,77.91,109.82Z"/><path class="cls-8" d="M77.55,103.72a.65.65,0,0,0-.92-.3,1,1,0,0,0-.39,1.29c.24.47.55.41.68.74s.35.35.71.3.92-.14.83-.65-.43-.52-.58-.48-.43-.12-.28-.22S77.78,104.09,77.55,103.72Z"/><path class="cls-8" d="M77.1,111.48a1.44,1.44,0,0,0-1.75-.32,1.06,1.06,0,0,0-.46.8h2.33A.88.88,0,0,0,77.1,111.48Z"/><path class="cls-8" d="M73.49,109.68a1,1,0,0,0,.63,1.14.85.85,0,0,0,.66-.1,1.19,1.19,0,0,0,.38-1.64,4.07,4.07,0,0,0-.78-.11A.92.92,0,0,0,73.49,109.68Z"/><path class="cls-8" d="M51.94,101.69c.21.07.77.16.91,0s-.27-.65-.45-.79-.46-.1-.59.2S51.66,101.59,51.94,101.69Z"/><path class="cls-8" d="M52.47,97.87a.36.36,0,0,0,0-.43.35.35,0,0,0-.41.09c-.07.08-.15.42,0,.51S52.41,98,52.47,97.87Z"/><path class="cls-8" d="M51.36,93.14c.06,0,.12-.33,0-.43s-.37.11-.45.21a.32.32,0,0,0,.07.35C51.06,93.33,51.26,93.23,51.36,93.14Z"/><path class="cls-8" d="M51.24,97.14c.09,0,.29-.18.28-.27a.44.44,0,0,0-.26-.33c-.1,0-.39,0-.4.29S51.13,97.13,51.24,97.14Z"/><path class="cls-8" d="M80.14,101.42c.07-.1.22-.24.08-.4a.22.22,0,0,0-.34,0c-.09.09-.29.33-.17.47S80.1,101.48,80.14,101.42Z"/><path class="cls-8" d="M74.86,100.23c.38-.21.86-.33,1.06-.83l-.21-.58c.31-.49.37-1,.12-1.26a.59.59,0,0,0-.73,0c-.44.29-.49.51-.29,1.1a9.52,9.52,0,0,0-.51,1.09A.41.41,0,0,0,74.86,100.23Z"/><path class="cls-8" d="M74.6,107.71a.23.23,0,0,0,.06-.38.23.23,0,0,0-.37,0,.21.21,0,0,0-.06.35A.23.23,0,0,0,74.6,107.71Z"/><path class="cls-8" d="M41.16,94.62a.55.55,0,0,0-.4,0,.38.38,0,0,0,0,.33c.11.07.33.21.48.06S41.22,94.65,41.16,94.62Z"/><path class="cls-8" d="M57.68,111.62a.73.73,0,0,0,.19-.5.2.2,0,0,0-.13-.16.79.79,0,0,0-.07-.74c-.43-.45-1-.57-1.31-.27a1.13,1.13,0,0,0,0,1.31.79.79,0,0,0,.62.14.67.67,0,0,0-.08.28.32.32,0,0,0,.12.26h.33A1,1,0,0,0,57.68,111.62Z"/><path class="cls-8" d="M54.6,111.92c.17-.23,0-.72-.16-.87a.4.4,0,0,0-.32-.13,2.07,2.07,0,0,0,.12-.61,1.13,1.13,0,0,0-1.09-1,1.17,1.17,0,0,0-.82,1.39,1.14,1.14,0,0,0,1.1.88.36.36,0,0,0,.2,0,.5.5,0,0,0,.17.21,1.46,1.46,0,0,0,.31.16h.47S54.6,111.93,54.6,111.92Z"/><path class="cls-8" d="M55.93,111.16c.16-.36.17-.68-.2-.87a.53.53,0,0,0-.49.09.69.69,0,0,0-.15.57C55.25,111.36,55.6,111.24,55.93,111.16Z"/><path class="cls-8" d="M81.32,103.78c0-.32-.21-.41-.87-.37a.56.56,0,0,0,.35.9A.59.59,0,0,0,81.32,103.78Z"/><path class="cls-8" d="M36.48,88a.65.65,0,0,0,.47.76.66.66,0,0,0,.75-.49.71.71,0,0,0-.52-.82A.64.64,0,0,0,36.48,88Z"/><path class="cls-8" d="M76.86,108.84a.67.67,0,0,0,0,.92,1.94,1.94,0,0,0,.64-.16c.25-.16.21-.44,0-.64S77.12,108.64,76.86,108.84Z"/><path class="cls-8" d="M36.89,79.76a1,1,0,0,0-1.28.17.87.87,0,0,0-.16.66,1.21,1.21,0,0,0,1.39,1,3.6,3.6,0,0,0,.39-.69A.93.93,0,0,0,36.89,79.76Z"/><path class="cls-8" d="M84.54,101.28a.59.59,0,0,0,.52-.54.54.54,0,0,0-.87-.36A.56.56,0,0,0,84.54,101.28Z"/><path class="cls-8" d="M83,104.78a.76.76,0,0,0,.4.39,1.15,1.15,0,0,0,1.51-.6l.18-.37c.24.12.45.26.68.35a.61.61,0,0,0,.9-.3,1,1,0,0,0,0-1.09.83.83,0,0,0-1-.26,4.34,4.34,0,0,0-.75.37,3,3,0,0,0-.36-.17,1.27,1.27,0,0,0-1.37.27A1.45,1.45,0,0,0,83,104.78Z"/><path class="cls-8" d="M83.76,107.2a.78.78,0,0,0,0,1.11c.32.38,1,.55,1.33.31a1.1,1.1,0,0,0,.15-1.44A1.13,1.13,0,0,0,83.76,107.2Z"/><path class="cls-8" d="M47.87,83.1c.09-.09.22-.22.14-.4a.23.23,0,0,0-.32-.11c-.11.07-.32.22-.25.43S47.82,83.15,47.87,83.1Z"/><path class="cls-8" d="M35.59,82.86a2,2,0,0,0-.08.66c.05.28.33.35.59.24s.44-.24.35-.55A.67.67,0,0,0,35.59,82.86Z"/><path class="cls-8" d="M51.23,111.93c.15-.2.38-.43.2-.68s.06-.92-.36-1.38-1.11-.64-1.37-.15a2.18,2.18,0,0,0-.1,1.45c0,.38.5.45.29.76Z"/><path class="cls-8" d="M46.7,85a8.77,8.77,0,0,0-.82-.88.41.41,0,0,0-.69.33c.06.43,0,.93.39,1.29l.62,0c.34.47.84.73,1.13.57a.58.58,0,0,0,.29-.66C47.52,85.18,47.33,85.05,46.7,85Z"/><path class="cls-8" d="M41.15,77.58a.75.75,0,0,0,.29-.87c-.28-.57-.71-.84-1.07-.66A1.08,1.08,0,0,0,40,77.3,1.1,1.1,0,0,0,41.15,77.58Z"/><path class="cls-8" d="M50.83,105.08a1.14,1.14,0,0,0-.65.16.58.58,0,0,0-.7.15.54.54,0,0,0,0,.8c.28.28.86.37,1.05.16a.25.25,0,0,0,0-.09l.08,0a.55.55,0,0,0,.59-.28.55.55,0,0,0,.2.34c.12.08.61.06.69-.09s-.16-.62-.26-.64a1,1,0,0,0-.54.08A.54.54,0,0,0,50.83,105.08Z"/><path class="cls-8" d="M57,98.82a.38.38,0,0,0,.14.62c.19.08.71.16.8,0s-.12-.6-.25-.77S57.2,98.55,57,98.82Z"/><path class="cls-8" d="M57.79,105.21a.91.91,0,0,0,0,1.38.88.88,0,0,0,1.18.11,1.29,1.29,0,0,0,0-1.6A.9.9,0,0,0,57.79,105.21Z"/><path class="cls-8" d="M55.47,107.47c-.08.19-.33.59,0,.79a.41.41,0,0,0,.23.07,1.4,1.4,0,0,0,.63,1,1,1,0,0,0,1.5-.27,1.31,1.31,0,0,0-.33-1.7,1.33,1.33,0,0,0-1.33.08A.43.43,0,0,0,55.47,107.47Z"/><path class="cls-8" d="M54.15,105.4c-.22.21-.16.74.23,1.17.13,0,.39,0,.54-.07a.76.76,0,0,0,.21-1A.75.75,0,0,0,54.15,105.4Z"/><path class="cls-8" d="M52.3,104.27a1.08,1.08,0,0,0,.54,1.26c.43.26.83.09,1.14-.45a.86.86,0,0,0-.24-1A1.45,1.45,0,0,0,52.3,104.27Z"/><path class="cls-8" d="M55.22,102.51c-.11.1,0,.43.06.5s.31.16.43,0a.34.34,0,0,0,0-.42C55.65,102.55,55.33,102.4,55.22,102.51Z"/><path class="cls-8" d="M58.33,103.32c-.25-.14-.52-.2-.73.08a0,0,0,0,1,0,0,1.46,1.46,0,0,0-1.18.42,1,1,0,0,0-.1,1.47,1.2,1.2,0,0,0,2-1.3l.13-.15A.35.35,0,0,0,58.33,103.32Z"/><path class="cls-8" d="M55.13,101.07c-.08.08,0,.31,0,.42s.3.19.43.07,0-.38-.1-.48A.33.33,0,0,0,55.13,101.07Z"/><path class="cls-8" d="M56.55,102.05a.82.82,0,0,0,1.24,0,1,1,0,0,0,0-1.54,1.07,1.07,0,0,0-1.43-.12A1.24,1.24,0,0,0,56.55,102.05Z"/><path class="cls-8" d="M95.23,110.88a.54.54,0,0,0-.18-.74.77.77,0,0,0-.6-.09c-.44.22-.4.61-.21,1.08C94.63,111.17,95,111.31,95.23,110.88Z"/><path class="cls-8" d="M92.5,106.8a.89.89,0,0,0,.19-1.12,1,1,0,0,0-1.21-.21c-.31.24-.25.82.11,1.27A.72.72,0,0,0,92.5,106.8Z"/><path class="cls-8" d="M89.76,111.61a.83.83,0,0,0-.21.36h2.11a1,1,0,0,0-.27-.6A1.2,1.2,0,0,0,89.76,111.61Z"/><path class="cls-8" d="M38,74.64a.87.87,0,0,0,1,.12.47.47,0,0,0,.09-.71,1.44,1.44,0,0,0-.35-.35h-.6A1.09,1.09,0,0,0,38,74.64Z"/><path class="cls-8" d="M49.53,101.32s0-.2-.08-.22a.17.17,0,0,0-.22,0,.18.18,0,0,0,.05.26A.22.22,0,0,0,49.53,101.32Z"/><path class="cls-8" d="M89.24,108.94a1,1,0,0,0,0-1.29c-.31-.36-.7-.34-1.15.07a1,1,0,0,0-.24,1.11A1.1,1.1,0,0,0,89.24,108.94Z"/><path class="cls-8" d="M42.65,88.88c0-.11-.2-.39-.37-.33s-.16.35-.12.42.15.29.34.22A.22.22,0,0,0,42.65,88.88Z"/><path class="cls-8" d="M84.84,111.56a1.47,1.47,0,0,0,1.09-.36.61.61,0,0,0-.08-.87.89.89,0,0,0-1.25-.14,1.06,1.06,0,0,0-.29.81.6.6,0,0,0-.57.29.59.59,0,0,0,0,.68h1a.55.55,0,0,0,.09-.28A.32.32,0,0,0,84.84,111.56Z"/><path class="cls-8" d="M49.08,84.43c.32.17.89-.5.76-.89s-.63-.66-.9-.49S48.75,84.26,49.08,84.43Z"/><path class="cls-8" d="M50.14,102.92a.7.7,0,0,0,.19.88.73.73,0,0,0,.94-.24.58.58,0,0,0-.19-.79A.63.63,0,0,0,50.14,102.92Z"/><path class="cls-8" d="M48.41,107.65a1.36,1.36,0,0,0,.34,1.19c.29.21.6.09.87-.34s.29-.79,0-1A.77.77,0,0,0,48.41,107.65Z"/><path class="cls-8" d="M47.91,89a.57.57,0,0,0-.46.32.39.39,0,0,0,.35.53c.17,0,.63,0,.66-.42S48.06,89,47.91,89Z"/><path class="cls-8" d="M29.64,74.76a1.36,1.36,0,0,0,1.06.11.84.84,0,0,0,.41-.49.72.72,0,0,0,.67,0,.62.62,0,0,0,.34-.71H29.64Z"/><path class="cls-8" d="M33,76a1.33,1.33,0,0,0-.38,1.68.89.89,0,0,0,1.26.39c.79-.45.78-.74.52-1.58A1,1,0,0,0,33,76Z"/><path class="cls-8" d="M54.09,108.39a1,1,0,0,0,0,.47c.33.29.71.28.82,0a.71.71,0,0,0,0-.59C54.73,108.08,54.21,108.13,54.09,108.39Z"/><path class="cls-8" d="M34.78,75.08c-.07,0-.36,0-.39.2s.26.29.38.32a.33.33,0,0,0,.29-.21C35.08,75.27,34.89,75.13,34.78,75.08Z"/><path class="cls-8" d="M51.22,107.48c-.32.27-.7.45-.52.89a.64.64,0,0,0,.73.41.48.48,0,0,0,.48-.46C52,107.83,51.63,107.65,51.22,107.48Z"/><path class="cls-8" d="M33.44,94.27a1.67,1.67,0,0,0,0-.18c-.14-.39-.66-.73-1-.63a1,1,0,0,0-.46.44.49.49,0,0,0-.37-.22c-.67-.1-1.14.12-1.21.55a1.12,1.12,0,0,0,.72,1c.23,0,.55-.2.75-.49a1,1,0,0,0,1.17.45.48.48,0,0,0,.17-.1.53.53,0,0,0,.34.2.59.59,0,0,0,.52-.54A.54.54,0,0,0,33.44,94.27Z"/><path class="cls-8" d="M47.73,94.24c-.58,0-.65.86-.43,1s.92,0,1-.28S48.31,94.22,47.73,94.24Z"/><path class="cls-8" d="M46.76,111.8a.25.25,0,0,0,0,.12h.53C47.18,111.83,46.86,111.68,46.76,111.8Z"/><path class="cls-8" d="M40.87,89.84c-.06.27.48.56,1,.43s.37-.78.23-1S40.93,89.57,40.87,89.84Z"/><path class="cls-8" d="M45.29,82.44c-.18,0-.19.49-.13.6a.46.46,0,0,0,.46.12.49.49,0,0,0,.17-.45A.53.53,0,0,0,45.29,82.44Z"/><path class="cls-8" d="M38.84,101.75c.56.22.95-.14,1.06,0a1.63,1.63,0,0,0,.5.37s0,.05-.06.09c-.05.2-.17.71,0,.83s.62-.27.72-.43-.09-.4-.22-.52l-.07,0a.81.81,0,0,0,.27-1.07.69.69,0,0,0,.43-.13.9.9,0,0,0,.3-.76,1.49,1.49,0,0,0,.33-.27,1,1,0,0,0,0-1.56,1.1,1.1,0,0,0-1.35,0A1.17,1.17,0,0,0,40.6,98c-.17-.19-.57,0-.69.22s-.13.53.15.63l.21.05a2.1,2.1,0,0,0,.12.73.58.58,0,0,0-.09.26.29.29,0,0,1-.08.07c-.51.32-.58-.29-1.27.21S38.28,101.54,38.84,101.75Z"/><path class="cls-8" d="M43,81a1,1,0,0,0-.57-.19,1.33,1.33,0,0,0-1,.6,1,1,0,0,0,0,1,.86.86,0,0,0,.78.34,1,1,0,0,0,.81-.49c.13-.32.42-.62.3-.9A.57.57,0,0,0,43,81Z"/><path class="cls-8" d="M42.93,84.65a1.06,1.06,0,0,0-1.12.9,1.14,1.14,0,0,0,1,1.35.92.92,0,0,0,1.1-.73A1.43,1.43,0,0,0,42.93,84.65Z"/><path class="cls-8" d="M37.78,95.19c-.52,0-.91.2-.93.59A1.23,1.23,0,0,0,37.8,97c.34,0,.74-.41.77-.84A.79.79,0,0,0,37.78,95.19Z"/><path class="cls-8" d="M35.4,100.25a.8.8,0,0,0,.54,1A1,1,0,0,0,37,100.6a1.12,1.12,0,0,0-.84-1.19C35.86,99.38,35.47,99.79,35.4,100.25Z"/><path class="cls-8" d="M36.7,98.12a.67.67,0,0,0,.82-.14.78.78,0,0,0-.11-.91.6.6,0,0,0-.81.16A.67.67,0,0,0,36.7,98.12Z"/><path class="cls-8" d="M35,96.86a1.31,1.31,0,0,0-.85-1.33,1.4,1.4,0,0,0-1.41,1.06.87.87,0,0,0,.07.44,1,1,0,0,0-.67.34,1.39,1.39,0,0,0-.26.66,1,1,0,0,0-.17,0,.91.91,0,0,0,.27-.51c.1-.77-.28-1.41-.86-1.47a.94.94,0,0,0-.49.08.59.59,0,0,0-.07-.54.65.65,0,0,0-.77-.33.52.52,0,0,0-.18.1v1.06a1,1,0,0,0,.45.13.89.89,0,0,0-.22.46.93.93,0,0,0,0,.4h-.27v.85a.37.37,0,0,0,.16,0,.58.58,0,0,0,.47-.33,1.15,1.15,0,0,0,.61.37,1.29,1.29,0,0,0,.28,0,1.06,1.06,0,0,0-.15.15.85.85,0,0,0,.23,1,1,1,0,0,0-.29.57,1.26,1.26,0,0,0,1,1.39,1.07,1.07,0,0,0,.69-.13.82.82,0,0,0,.14,1c.32.38,1.05.55,1.33.31a1,1,0,0,0,.3-.54,1,1,0,0,0,.34-.29,1,1,0,0,0,.77-.42.9.9,0,0,0-.69-.91.61.61,0,0,0-.69.47.77.77,0,0,0,0,.15,1.15,1.15,0,0,0-1.2,0,1.29,1.29,0,0,0,.25-.62,1.05,1.05,0,0,0-.76-1.3h0a1.13,1.13,0,0,0,1-.06.59.59,0,0,0,.23,0,1.08,1.08,0,0,0,.64-.81c.18.09.34.19.52.26a.61.61,0,0,0,.9-.3,1,1,0,0,0-.05-1.09A.72.72,0,0,0,35,96.86Z"/><path class="cls-8" d="M82.37,107.88c-.42-.17-.72.09-.94.47.11.35.25.7.68.69a.55.55,0,0,0,.57-.58A.75.75,0,0,0,82.37,107.88Z"/><path class="cls-8" d="M33.08,73.84a.94.94,0,0,0,1.08.59.65.65,0,0,0,0,.13,1.22,1.22,0,0,0,1.47.45,1.29,1.29,0,0,0,.65-1.32H33S33.05,73.79,33.08,73.84Z"/><path class="cls-8" d="M43.23,101a.76.76,0,0,0,.58.93c.52.07,1.12-.29,1.16-.71a1.1,1.1,0,0,0-.81-1.11C43.81,100.07,43.31,100.54,43.23,101Z"/><path class="cls-8" d="M37.46,77.15c-.51.21-.74.58-.58.94a1.43,1.43,0,0,0,1.27.57.81.81,0,0,0,.36-1.12C38.32,77,38,76.92,37.46,77.15Z"/><path class="cls-8" d="M44,91.34c.09.26,1,.41,1.12.08a.65.65,0,0,0-.24-.79C44.5,90.48,43.88,91.08,44,91.34Z"/><path class="cls-8" d="M39,85.05c-.09.36-.2.91.3,1s.64-.21.66-.36.27-.36.31-.19.22.29.65.2a.65.65,0,0,0,.62-.74,1,1,0,0,0-1.06-.83c-.53,0-.59.36-.93.36S39.13,84.69,39,85.05Z"/><path class="cls-8" d="M42.65,77a.86.86,0,0,0-.37,1c.16.37,1,.78,1.32.63a1.1,1.1,0,0,0,.25-1.35C43.64,76.85,43.21,76.76,42.65,77Z"/><path class="cls-8" d="M38.53,81.19c-.17,0-.25.14-.2.32s.14.25.32.2a.23.23,0,0,0,.19-.33C38.79,81.22,38.7,81.15,38.53,81.19Z"/><path class="cls-8" d="M38.43,90.05a.85.85,0,0,0-.17-.73.72.72,0,0,0-.66-.12.74.74,0,0,0-.21,1.11.51.51,0,0,0,.35.15.69.69,0,0,0-.26.17,1.15,1.15,0,0,0,0,1.63l.27.31c-.19.16-.37.3-.54.47a.7.7,0,0,0-.75-.38H36a1.14,1.14,0,0,0-.75-1,.54.54,0,0,0-.18,0,.83.83,0,0,0,.13-.18,1.19,1.19,0,0,0,.3-1.26.53.53,0,0,0-.24-.29l0-.1a.89.89,0,0,1,0-.51,1.07,1.07,0,0,0,0-.56.54.54,0,0,0,.17-.08c.32-.33.18-.71-.1-1a.94.94,0,0,0-.76.17.75.75,0,0,0-.65-.46.73.73,0,0,0-.87.57.61.61,0,0,0,.6.66h0a1.19,1.19,0,0,0-.1.62,1.17,1.17,0,0,1-.16.85,1.33,1.33,0,0,0,0,1.27,1.12,1.12,0,0,0,1.09.6h.12a1.07,1.07,0,0,0-.41.68c0,.39.31.71.87.79a1.22,1.22,0,0,0,.33,0c.09.15.25.25.31.37.25.54,1,.81,1.37.51a.85.85,0,0,0,.19-.19.94.94,0,0,0,1,.32.83.83,0,0,0,.6-.82,3.35,3.35,0,0,0-.08-.82,4,4,0,0,0,.3-.28,1.26,1.26,0,0,0,.25-1.37,1.45,1.45,0,0,0-1.19-.67A.67.67,0,0,0,38.43,90.05Z"/><path class="cls-8" d="M38.51,84.8a.58.58,0,0,0-.74.35.72.72,0,0,0,.06.59c.2.32.49.29,1.11,0C38.92,85.36,39,84.93,38.51,84.8Z"/><polygon class="cls-4" points="70.38 96.44 68.14 97.28 66 96.43 63.78 97.39 61.19 96.42 59.27 97.35 57.4 96.44 57.4 111.97 70.38 111.97 70.38 96.44"/></svg>