<svg xmlns="http://www.w3.org/2000/svg" viewBox="0 0 340 240"><defs><style>.cls-1{fill:#e6ebf2;}.cls-2,.cls-4{fill:#1ba9f5;}.cls-3{fill:#0d90e0;}.cls-3,.cls-4,.cls-6,.cls-7{fill-rule:evenodd;}.cls-5{fill:#294492;}.cls-6,.cls-8{fill:#fff;}.cls-7{fill:#fa744e;}.cls-9{fill:#343741;}.cls-10{fill:#ff957d;}.cls-11{fill:#fec514;}.cls-12{fill:#f990c6;}.cls-13{fill:#7de2d1;}.cls-14{fill:#07c;}.cls-15{fill:#42d4c6;}.cls-16{fill:#00bfb3;}.cls-17{fill:#f368ab;}.cls-18{fill:#f04e98;}.cls-19{fill:#e55940;}</style></defs><g id="Layer_2" data-name="Layer 2"><path class="cls-1" d="M247.6,214a.54.54,0,0,0-.42.61c.06.53.45.65.93.74.28-.36.65-.64.36-1.07A.7.7,0,0,0,247.6,214Z"/><path class="cls-1" d="M246.1,202.25a1.69,1.69,0,0,0-1.9.66,1.32,1.32,0,0,0,.68,1.6,1.28,1.28,0,0,0,1.62-.58A1.31,1.31,0,0,0,246.1,202.25Z"/><path class="cls-1" d="M244.9,207.89a1.15,1.15,0,0,0-1.3.74,1.07,1.07,0,0,0,2,.62A1.09,1.09,0,0,0,244.9,207.89Z"/><path class="cls-1" d="M242.83,205.06a1.12,1.12,0,0,0-1.35.45.77.77,0,0,0,.36,1,1,1,0,0,0,1.22-.5A.67.67,0,0,0,242.83,205.06Z"/><path class="cls-1" d="M240.59,201.77a1.17,1.17,0,0,0,.24.58c.39.44.72.37,1.62-.39.33.32.62.7,1.09.31a.75.75,0,0,0,.3-.5Z"/><path class="cls-1" d="M250.06,207.45c-.25,0-.89,0-1,.22s.37.66.58.81.61-.08.69-.39S250.38,207.49,250.06,207.45Z"/><path class="cls-1" d="M248.8,203.05c-.25-.08-.61.42-.67.61s.18.42.35.52a.34.34,0,0,0,.54-.26C249,203.7,249.05,203.13,248.8,203.05Z"/><path class="cls-1" d="M251.39,202.92a.23.23,0,0,0-.25.17c0,.07.1.21.16.22a.21.21,0,0,0,.24-.11A.22.22,0,0,0,251.39,202.92Z"/><path class="cls-1" d="M249.64,211.76c-.13.2.11.42.18.43a.6.6,0,0,0,.43-.12.47.47,0,0,0-.08-.36C250,211.67,249.76,211.57,249.64,211.76Z"/><path class="cls-1" d="M234.87,203.1c-.51-.18-.92.09-1.13.74a1,1,0,0,0,.49,1,1.61,1.61,0,0,0,1.5-.55C235.86,203.9,235.44,203.3,234.87,203.1Z"/><path class="cls-1" d="M231.62,210.59c-.21-.05-.79,0-.85.16s.26.62.43.77.55,0,.71-.3A.41.41,0,0,0,231.62,210.59Z"/><path class="cls-1" d="M231,201.77h-.64v0l-1.57-1.13a1.44,1.44,0,0,0,.77,1.58A1.46,1.46,0,0,0,231,201.77Z"/><path class="cls-1" d="M228.46,203.78c-.14.24.19.39.31.46s.33-.06.34-.12a.51.51,0,0,0-.12-.43A.39.39,0,0,0,228.46,203.78Z"/><path class="cls-1" d="M237,211.24a.39.39,0,0,0,.15.44c.16.07.36-.08.42-.18s.07-.49-.09-.56S237,211.12,237,211.24Z"/><path class="cls-1" d="M238,204.39a.82.82,0,0,0-1,.48.64.64,0,0,0,.38.8.69.69,0,0,0,1-.37A.77.77,0,0,0,238,204.39Z"/><path class="cls-1" d="M239.62,215.83c-.12-.05-.32.11-.41.22s-.05.38.13.46.37-.2.43-.32A.35.35,0,0,0,239.62,215.83Z"/><path class="cls-1" d="M225.69,201.74c-.23-.09-.57.18-.71.54a.39.39,0,0,0,.26.57c.3.09.6.09.76-.26A.72.72,0,0,0,225.69,201.74Z"/><path class="cls-1" d="M236.69,207c-.24,0-.86,0-1,.24s.44.64.66.75.52,0,.59-.34S237,207.07,236.69,207Z"/><path class="cls-1" d="M265.86,201.77a.49.49,0,0,0,.31.37c.25.11.6.1.66-.23a.61.61,0,0,0,0-.14Z"/><path class="cls-1" d="M266.25,213.43c-.24,0-.87,0-.92.23s.33.66.53.81.6,0,.75-.39A.44.44,0,0,0,266.25,213.43Z"/><path class="cls-1" d="M265.61,209a.52.52,0,0,0-.12-.43.38.38,0,0,0-.53.09c-.14.24.19.39.31.46S265.6,209,265.61,209Z"/><path class="cls-1" d="M264,201.84a1.21,1.21,0,0,0-.49-.07h0a1.2,1.2,0,0,0-1.09.87,1.52,1.52,0,0,0,.92,1.83,1.63,1.63,0,0,0,1.77-.93C265.34,202.86,264.9,202.15,264,201.84Z"/><path class="cls-1" d="M271.47,209.16c-.27,0-.94.06-1,.34s.52.66.77.76.56,0,.62-.42S271.82,209.19,271.47,209.16Z"/><path class="cls-1" d="M264.08,206.2a.38.38,0,0,0-.51.29.43.43,0,0,0,.28.45.37.37,0,0,0,.47-.18A.38.38,0,0,0,264.08,206.2Z"/><path class="cls-1" d="M271,204.21a.76.76,0,0,0-.42-.57c-.17,0-.72.13-.77.33s.39.66.51.65S271,204.4,271,204.21Z"/><path class="cls-1" d="M269.19,205.05c-.57-.15-1,.16-1.16.88a1,1,0,0,0,.61,1.1c.45.13,1.49-.34,1.58-.71S269.82,205.22,269.19,205.05Z"/><path class="cls-1" d="M259.73,201.77a.48.48,0,0,0,.35.21.73.73,0,0,0,.42-.21Z"/><path class="cls-1" d="M256,211.91a1.1,1.1,0,0,0-1.58-.24,1,1,0,0,0-.09,1.19.78.78,0,0,0,1,.39c.33-.1,1.06-.12,1.17-.62S256.1,212.11,256,211.91Z"/><path class="cls-1" d="M257.84,212.32c-.2,0-.58,0-.66.17a.71.71,0,0,0,.26.62c.14.08.72,0,.79-.16S258,212.34,257.84,212.32Z"/><path class="cls-1" d="M253.82,207.44a.75.75,0,0,0-.85.34.86.86,0,0,0,.33,1,.68.68,0,0,0,.83-.36A.75.75,0,0,0,253.82,207.44Z"/><path class="cls-1" d="M253.41,201.92a.76.76,0,0,0,0-.15h-1.59a.79.79,0,0,0,.6.58,1.29,1.29,0,0,0,.42,0h.06a.48.48,0,0,0,.36-.21A.68.68,0,0,0,253.41,201.92Z"/><path class="cls-1" d="M262.29,206.28c-.13.27.24.41.37.48s.36-.1.36-.16a.58.58,0,0,0-.16-.46A.42.42,0,0,0,262.29,206.28Z"/><path class="cls-1" d="M251.53,204.94c0,.12.24.41.37.48s.36-.09.36-.16a.58.58,0,0,0-.16-.46C252,204.74,251.57,204.82,251.53,204.94Z"/><path class="cls-1" d="M259.13,204.28c-.19-.06-.44.1-.6.37a.6.6,0,0,0-.28.32,1.2,1.2,0,0,0,.44,1.5,1.05,1.05,0,0,0,1.14-.69.87.87,0,0,0-.3-.95A.72.72,0,0,0,259.13,204.28Z"/><path class="cls-1" d="M259.29,209.92a.6.6,0,0,0-.83.29.69.69,0,0,0,.32.85.6.6,0,0,0,.84-.28A.72.72,0,0,0,259.29,209.92Z"/><path class="cls-1" d="M321.33,202.09c-.09.78.23,1.43.74,1.48a1.28,1.28,0,0,0,1.22-1,.9.9,0,0,0-.31-.76H321.5A.77.77,0,0,0,321.33,202.09Z"/><path class="cls-1" d="M292.32,212.12a.49.49,0,0,0,.38-.29c0-.14-.06-.55-.3-.54s-.4.32-.41.45A.51.51,0,0,0,292.32,212.12Z"/><path class="cls-1" d="M302.27,208.71c-.14.27.23.41.37.48s.35-.1.36-.16-.05-.39-.17-.46A.41.41,0,0,0,302.27,208.71Z"/><path class="cls-1" d="M303.49,207.43c0-.36-.28-.42-.56-.44s-.69.25-.6.59.14.55.37.63S303.51,207.81,303.49,207.43Z"/><path class="cls-1" d="M292.61,205.63c0-.35-.1-.68-.53-.73s-.85.59-.76.83.42.35.69.4A.47.47,0,0,0,292.61,205.63Z"/><path class="cls-1" d="M255.29,204.53a.76.76,0,0,0,.17-1.45,1,1,0,0,0-1.1.62C254.3,203.92,254.75,204.56,255.29,204.53Z"/><path class="cls-1" d="M304.66,208.88c-.08.31.51.91.8.8a.84.84,0,0,0,.5-.6.61.61,0,0,0-.58-.77A.67.67,0,0,0,304.66,208.88Z"/><path class="cls-1" d="M284.41,202.94a1.39,1.39,0,0,0,1.45-.77.62.62,0,0,0,0-.4h-2.12A1.25,1.25,0,0,0,284.41,202.94Z"/><path class="cls-1" d="M285.81,202.58a.83.83,0,0,0,.77.8.9.9,0,0,0,.8-.79.69.69,0,0,0-.65-.75A.83.83,0,0,0,285.81,202.58Z"/><path class="cls-1" d="M325.08,202.73c.41,0,.87.05,1-.47a.7.7,0,0,0-.19-.49H325A.75.75,0,0,0,325.08,202.73Z"/><path class="cls-1" d="M335.49,196.86c0,.6.27,1,.71,1s1.35-.7,1.38-1.05a1.1,1.1,0,0,0-1.18-1.11C335.85,195.72,335.53,196.12,335.49,196.86Z"/><path class="cls-1" d="M333.75,201.78a2.42,2.42,0,0,0-.51.73c-.11.42.36.82.84.81a.7.7,0,0,0,.66-.76A.92.92,0,0,0,333.75,201.78Z"/><path class="cls-1" d="M254.85,202.62c.06-.12.05-.56-.14-.6a.5.5,0,0,0-.43.3c0,.16-.08.49.1.52A.49.49,0,0,0,254.85,202.62Z"/><path class="cls-1" d="M334.16,194.06a.49.49,0,0,0,.67-.43c.06-.4-.15-.74-.5-.75a1.47,1.47,0,0,0-.72.27c-.06-.43-.27-.67-.65-.69a.8.8,0,0,0-.79,1c.12.52-.17.74-.45,1.09-1-.7-1.67-.52-2,.46,0,.1-.06.2-.09.3-.14.69.11,1,.81,1.1s1.17.07,1.49-.81a3.58,3.58,0,0,1,.33.78.73.73,0,0,0,.69.75,1.06,1.06,0,0,0,1.17-.41c.86-1.36.79-1.82-.41-2.86l-.08-.1h0A2.08,2.08,0,0,0,334.16,194.06Z"/><path class="cls-1" d="M224,209c-.19,0-.54,0-.62.12a.63.63,0,0,0,.2.59c.13.08.66.07.73-.1S224.1,209.05,224,209Z"/><path class="cls-1" d="M272.6,213.36c-.17-.06-.46.23-.5.35s0,.41.19.48.39-.12.45-.24S272.77,213.42,272.6,213.36Z"/><path class="cls-1" d="M216.58,191.87c-.3,0-.69.32-.69.51s.26.41.47.53a.41.41,0,0,0,.65-.25.92.92,0,0,0,0-.46Z"/><path class="cls-1" d="M218.69,200c-.13,0-.22.08-.25.14s.08.2.14.21.19,0,.22-.08A.21.21,0,0,0,218.69,200Z"/><path class="cls-1" d="M215.25,197.37a.5.5,0,0,0-.48.27.45.45,0,0,0,.17.41.42.42,0,0,0,.4-.14C215.4,197.8,215.44,197.43,215.25,197.37Z"/><path class="cls-1" d="M218.68,201.85c0,.11.19.39.31.47a.41.41,0,0,0,.34-.13.52.52,0,0,0-.12-.43C219.13,201.7,218.73,201.74,218.68,201.85Z"/><path class="cls-1" d="M222.56,204.92a.68.68,0,0,0-.9.39.54.54,0,0,0,.3.8.66.66,0,0,0,.9-.34A.69.69,0,0,0,222.56,204.92Z"/><path class="cls-1" d="M220.05,198.21a.69.69,0,0,0-.85.48.65.65,0,0,0,.47.84c.43.16.77.07.86-.23A1.13,1.13,0,0,0,220.05,198.21Z"/><path class="cls-1" d="M212.36,192.61c-.17-.11-1,0-1.11.28s.52.85.8,1a.76.76,0,0,0,.83-.36C213,193.17,212.61,192.77,212.36,192.61Z"/><path class="cls-1" d="M255.42,209.31a.72.72,0,0,0,1-.44.77.77,0,0,0-.4-.9.73.73,0,0,0-.94.49A.58.58,0,0,0,255.42,209.31Z"/><path class="cls-1" d="M221.88,199.94c.06-.11.07-.51-.09-.56s-.39.16-.42.25-.1.44.06.48A.46.46,0,0,0,221.88,199.94Z"/><path class="cls-1" d="M249,202.15a1.23,1.23,0,0,0,1.21-.38h-1.59A.78.78,0,0,0,249,202.15Z"/><path class="cls-1" d="M235.51,202.15c-.06.19.32.63.42.63s.64-.15.65-.34a.7.7,0,0,0-.35-.54C236.08,201.84,235.56,202,235.51,202.15Z"/><path class="cls-1" d="M239.36,206.88c0,.06.08.2.13.21a.21.21,0,0,0,.23-.08.21.21,0,0,0-.12-.27C239.48,206.7,239.38,206.82,239.36,206.88Z"/><path class="cls-1" d="M270.42,202.29c.12-.19.26-.35.35-.52h-1.33C269.6,202.14,270,202.24,270.42,202.29Z"/><path class="cls-1" d="M272.91,201.77h-.4A1.34,1.34,0,0,0,272.91,201.77Z"/><path class="cls-1" d="M311.1,202.92a2,2,0,0,0,1.47-1.15H310A1.22,1.22,0,0,0,311.1,202.92Z"/><path class="cls-1" d="M284.3,203.92c-.27-.07-.62.5-.68.72s.23.44.42.53a.37.37,0,0,0,.57-.32C284.61,204.61,284.58,204,284.3,203.92Z"/><path class="cls-1" d="M327.59,196.52a.78.78,0,0,1-.37-.8.78.78,0,0,0-.13-.36v4.41a1.3,1.3,0,0,0,1-.41A1.93,1.93,0,0,0,327.59,196.52Z"/><path class="cls-1" d="M226.24,198.82c-.11.26.21.88.47.87a.64.64,0,0,0,.45-.21Z"/><path class="cls-1" d="M325.16,210.61a.77.77,0,0,0-.59-.94,1.28,1.28,0,0,0-1.28,1,.88.88,0,0,0,.74,1A1.12,1.12,0,0,0,325.16,210.61Z"/><path class="cls-1" d="M328.09,207.17a1.46,1.46,0,0,0-1-1.65,1.89,1.89,0,0,0-1.79,1.37,1.49,1.49,0,0,0,1.29,1.47A1.44,1.44,0,0,0,328.09,207.17Z"/><path class="cls-1" d="M326,216.43c-.14,0-.3.23-.35.38s.07.43.29.45.32-.35.35-.5A.39.39,0,0,0,326,216.43Z"/><path class="cls-1" d="M324.34,206.44a.79.79,0,0,0,0-1,.61.61,0,0,0-.44-.21,10.5,10.5,0,0,0-1.1.44c-.84-.45-1.59-.43-1.87.07a1.59,1.59,0,0,0,.6,1.79c.57.33.89.14,1.58-1C323.53,206.73,324,207,324.34,206.44Z"/><path class="cls-1" d="M331.2,198a.65.65,0,0,0-.7.59.83.83,0,0,0,.42,1,.92.92,0,0,0,1.22-.51A1,1,0,0,0,331.2,198Z"/><path class="cls-1" d="M327.79,212a1.29,1.29,0,0,0-1.12,1.25c0,.67.47,1.07,1.23,1.06a1.05,1.05,0,0,0,1.17-1.12A1.24,1.24,0,0,0,327.79,212Z"/><path class="cls-1" d="M330.23,202.28c-.76,0-1.15.23-1.19.8a1.31,1.31,0,0,0,1,1.31,1.4,1.4,0,0,0,1.25-1.14C331.37,202.8,330.8,202.31,330.23,202.28Z"/><path class="cls-1" d="M321.73,212.62c-.15,0-.21.16-.21.23s.15.19.22.18a.22.22,0,0,0,.21-.17C322,212.76,321.87,212.61,321.73,212.62Z"/><path class="cls-1" d="M330.23,205.41c-.3,0-.5.66-.5.89s.34.38.56.42.57-.12.48-.46S330.52,205.41,330.23,205.41Z"/><path class="cls-1" d="M319.74,201.77a2.66,2.66,0,0,0,.63,0Z"/><path class="cls-1" d="M315.38,210.42c-.61,0-.94.42-.94,1.18a1.07,1.07,0,0,0,.89,1c.5,0,1.42-.73,1.4-1.13S316.06,210.43,315.38,210.42Z"/><path class="cls-1" d="M315.9,206.06a.81.81,0,0,0-1,0,.6.6,0,0,0-.22.8c.25.54.71.53,1.25.46C316.07,206.85,316.37,206.43,315.9,206.06Z"/><path class="cls-1" d="M316.41,208.65c-.18,0-.69.31-.68.53s.56.56.67.51.63-.38.57-.58A.79.79,0,0,0,316.41,208.65Z"/><path class="cls-1" d="M320.93,217.87c-.19,0-.41.35-.41.48s.12.4.32.42.36-.21.38-.34S321.12,217.88,320.93,217.87Z"/><path class="cls-1" d="M314.59,219.57c-.25,0-.86.25-.86.47s.5.57.74.67.59-.16.65-.58A.45.45,0,0,0,314.59,219.57Z"/><path class="cls-1" d="M334.68,207.29c0-.35-.2-.65-.56-.58s-.95.3-.94.58.63.57.9.66S334.7,207.64,334.68,207.29Z"/><path class="cls-1" d="M318.72,214c-.27.05-.92.3-.94.61s.69.52,1,.56.55-.19.51-.58S319.08,213.89,318.72,214Z"/><path class="cls-1" d="M319.13,210.7a.91.91,0,0,0-.85.85.7.7,0,0,0,.69.72.77.77,0,0,0,.9-.74A.86.86,0,0,0,319.13,210.7Z"/><path class="cls-1" d="M318.79,205.42c0-.34-.7-1-1.1-1s-.7.28-.73.89.2,1,.68,1C318.31,206.33,318.8,206,318.79,205.42Z"/><path class="cls-1" d="M337.34,203.07c-.62,0-1,.8-.95,1.06a1.12,1.12,0,0,0,1.29.55.76.76,0,0,0,.44-.94A.75.75,0,0,0,337.34,203.07Z"/><path class="cls-1" d="M337.15,208.31a.83.83,0,0,0-.79.66,1,1,0,0,0,.69.9.75.75,0,0,0,.77-.67A.85.85,0,0,0,337.15,208.31Z"/><path class="cls-1" d="M335.53,199.62a.83.83,0,0,0-.76.79.87.87,0,0,0,.81.76.77.77,0,0,0,.79-.74A.84.84,0,0,0,335.53,199.62Z"/><path class="cls-1" d="M334.77,214.17c-.15,0-.48,0-.55.23s.27.41.35.4a.7.7,0,0,0,.41-.28C335,214.46,334.85,214.17,334.77,214.17Z"/><path class="cls-1" d="M272.63,206.22a.87.87,0,0,0-1,.58.7.7,0,0,0,.47.85.75.75,0,0,0,1-.48A.83.83,0,0,0,272.63,206.22Z"/><path class="cls-1" d="M331.9,210.6a.79.79,0,0,0-1,0,.6.6,0,0,0-.23.79c.25.55.71.54,1.26.46C332.06,211.39,332.36,211,331.9,210.6Z"/><path class="cls-1" d="M290.09,208.3a.82.82,0,0,0-.9.43.93.93,0,0,0,.43,1,.73.73,0,0,0,.88-.44A.83.83,0,0,0,290.09,208.3Z"/><path class="cls-1" d="M296.22,210.57a.67.67,0,0,0-.89.37.76.76,0,0,0,.42.9.64.64,0,0,0,.89-.36A.78.78,0,0,0,296.22,210.57Z"/><path class="cls-1" d="M289.07,201.77H288a.65.65,0,0,0-.13.16c-.21.37.14.85.6,1a.67.67,0,0,0,.79-.55A.72.72,0,0,0,289.07,201.77Z"/><path class="cls-1" d="M287.63,207.23c-.22,0-1.06.31-1.08.7s.86.72,1.18.73a.87.87,0,0,0,.77-.68C288.52,207.6,288,207.32,287.63,207.23Z"/><path class="cls-1" d="M285.88,213.31c-.12.22.16.44.23.45a.7.7,0,0,0,.46-.16c.05,0,0-.36-.12-.38S286,213.09,285.88,213.31Z"/><path class="cls-1" d="M296.49,206a1,1,0,0,0-.76-1.19c-.52-.16-.87,0-1,.44a1.28,1.28,0,0,0,.59,1.59A1.17,1.17,0,0,0,296.49,206Z"/><path class="cls-1" d="M292.75,213a1.21,1.21,0,0,0-1.74-.13,1.11,1.11,0,0,0,0,1.3.86.86,0,0,0,1.13.34c.35-.14,1.14-.22,1.22-.76S292.92,213.19,292.75,213Z"/><path class="cls-1" d="M295.1,203.42a.86.86,0,0,0-.74-.82.9.9,0,0,0-.85.84.72.72,0,0,0,.69.73A.78.78,0,0,0,295.1,203.42Z"/><path class="cls-1" d="M292.1,204.26a.73.73,0,0,0-.57-.82c-.59-.13-1.1.52-1.15.76a1.08,1.08,0,0,0,1.08.83A.75.75,0,0,0,292.1,204.26Z"/><path class="cls-1" d="M277.29,214.57c-.14,0-.34.15-.43.27s0,.42.17.5.39-.25.44-.39A.38.38,0,0,0,277.29,214.57Z"/><path class="cls-1" d="M278,206.56a1.23,1.23,0,0,0-1.43.59.85.85,0,0,0,.47,1.07,1.07,1.07,0,0,0,1.28-.65A.73.73,0,0,0,278,206.56Z"/><path class="cls-1" d="M286.4,209.27c.06-.33,0-.65-.39-.67s-1,.05-1,.32.45.68.69.83S286.33,209.61,286.4,209.27Z"/><path class="cls-1" d="M274.61,208.63c-.14,0-.23.11-.26.17s.11.21.17.23.2,0,.23-.11A.23.23,0,0,0,274.61,208.63Z"/><path class="cls-1" d="M278.38,202.2a8,8,0,0,0-1.14.14,2.12,2.12,0,0,0-1.05-.57h-.38a.64.64,0,0,0-.34.19,1.54,1.54,0,0,0,.13,1.82c.46.44.81.34,1.73-.55.38.32.73.71,1.21.25a.78.78,0,0,0,.2-1C278.67,202.37,278.5,202.2,278.38,202.2Z"/><path class="cls-1" d="M283.84,215.86a.57.57,0,0,0-.4.69c.1.56.53.67,1.06.73.27-.41.65-.74.31-1.19A.77.77,0,0,0,283.84,215.86Z"/><path class="cls-1" d="M281.31,203.27a1.83,1.83,0,0,0-2,.85,1.45,1.45,0,0,0,.86,1.69,1.4,1.4,0,0,0,1.15-2.54Z"/><path class="cls-1" d="M280.45,209.47a1.24,1.24,0,0,0-1.36.91c-.16.62.18,1.11.9,1.29a1,1,0,0,0,1.36-.78A1.19,1.19,0,0,0,280.45,209.47Z"/><path class="cls-1" d="M300.1,211.11c-.19,0-.36.3-.36.41s.05.5.24.49a.51.51,0,0,0,.41-.34C300.42,211.53,300.29,211.09,300.1,211.11Z"/><path class="cls-1" d="M306.63,206.3a.81.81,0,0,0-.17.64.94.94,0,0,0,.1.64c.18.23.51.08.65-.23a1.27,1.27,0,0,0,0-.94A.37.37,0,0,0,306.63,206.3Z"/><path class="cls-1" d="M297,212.86c-.15,0-.21.16-.22.23s.16.19.23.19.2-.07.2-.18A.22.22,0,0,0,297,212.86Z"/><path class="cls-1" d="M309.59,203.09c.17-.56-.1-.94-1-1a13.14,13.14,0,0,0-1.55.59.68.68,0,0,0-.31,1,.73.73,0,0,0,.94.39,2.21,2.21,0,0,1,.68-.12A1.11,1.11,0,0,0,309.59,203.09Z"/><path class="cls-1" d="M307.84,216.69c-.21,0-.58.17-.62.34s.25.51.42.56.73-.16.75-.37S308,216.68,307.84,216.69Z"/><path class="cls-1" d="M311,204.32c-.49.27-.42,1.18-.06,1.88a1.4,1.4,0,0,0,1.77.37,1.43,1.43,0,0,0-1.71-2.25Z"/><path class="cls-1" d="M305.74,213a.82.82,0,0,0-.63-.8c-.28,0-.55.39-.57.83s.16.52.48.51S305.69,213.46,305.74,213Z"/><path class="cls-1" d="M309.38,208.53a1.27,1.27,0,0,0-1.43,1.22,1.59,1.59,0,0,0,1.4,1.6,1.66,1.66,0,0,0,1.52-1.39C311,209.21,310.33,208.61,309.38,208.53Z"/><path class="cls-1" d="M309.32,213.13c-.11,0-.47,0-.53.29s.34.35.49.39.33-.19.32-.26A.61.61,0,0,0,309.32,213.13Z"/><path class="cls-1" d="M308.61,206.34c.05.48.24.83.74.8a.66.66,0,0,0,.48-.4.84.84,0,0,0-.2-.7C309.2,205.7,308.9,206.05,308.61,206.34Z"/><path class="cls-1" d="M314.57,204.7c.73.24,1.58,0,1.56-.68a2.71,2.71,0,0,0-.79-1.62c-.3-.36-.83-.16-.78-.63h-2a.82.82,0,0,0,.41.43c.43.16-.21,1,.36,1.26S313.85,204.47,314.57,204.7Z"/><path class="cls-1" d="M303.23,201.77a4.45,4.45,0,0,0,.48.26l.32-.26Z"/><path class="cls-1" d="M297.83,210.47a.78.78,0,0,0-.74.82.74.74,0,0,0,.81.73c.51,0,.84-.21.83-.55A1.27,1.27,0,0,0,297.83,210.47Z"/><path class="cls-1" d="M298.2,214.56c-.11,0-.53.16-.53.29s.34.34.49.38.33-.18.32-.25S298.33,214.6,298.2,214.56Z"/><path class="cls-1" d="M298.91,204.83a1.08,1.08,0,0,0-1.09.89,1.42,1.42,0,0,0,1,1.26c.4,0,.92-.71.94-1.32A.91.91,0,0,0,298.91,204.83Z"/><path class="cls-1" d="M301.12,206.16a.42.42,0,0,0-.53.36c0,.25.22.43.34.46a.4.4,0,0,0,.5-.23A.42.42,0,0,0,301.12,206.16Z"/><path class="cls-1" d="M302.89,216.74a.76.76,0,0,0-.82.73.62.62,0,0,0,.61.76.75.75,0,0,0,.84-.69A.78.78,0,0,0,302.89,216.74Z"/><path class="cls-1" d="M302,202.45a1.16,1.16,0,0,0-.91-.17c-.57.22-.32.72-.25,1.21l.11,0a0,0,0,0,1,0,0c0,.16-.08.49.1.52a.49.49,0,0,0,.47-.22.65.65,0,0,0,0-.26.67.67,0,0,0,.61-.43A.72.72,0,0,0,302,202.45Z"/><path class="cls-1" d="M3.23,95.18c-.08,0-.17.3-.13.34a.53.53,0,0,0,.41.19.39.39,0,0,0,.27-.47C3.69,95,3.36,95.14,3.23,95.18Z"/><path class="cls-1" d="M8.71,100.66c-.23-.46-.52-.44-.76-.32s-.47.4-.26.65.52.34.67.26S8.63,100.82,8.71,100.66Z"/><path class="cls-1" d="M5.78,95.48a.35.35,0,0,0-.17.47.38.38,0,0,0,.58.17.37.37,0,0,0,.11-.57A.41.41,0,0,0,5.78,95.48Z"/><path class="cls-1" d="M10.52,93.42c.44-.24.57-.57.37-1a1.19,1.19,0,0,0-1.43-.63,1.06,1.06,0,0,0-.21,1.32A1,1,0,0,0,10.52,93.42Z"/><path class="cls-1" d="M8.27,85.17a1,1,0,0,0-.86-.83.76.76,0,0,0-.94.52c-.14.32-.6.89-.28,1.29s.63.07.87.08C7.7,86.27,8.36,85.69,8.27,85.17Z"/><path class="cls-1" d="M8,98.13a.44.44,0,0,0,.08-.47c-.09-.12-.27-.36-.41-.27a.45.45,0,0,0-.15.46C7.55,98,7.85,98.23,8,98.13Z"/><path class="cls-1" d="M5.89,88.94a.6.6,0,0,0-.33.82.72.72,0,0,0,.87.31.61.61,0,0,0,.32-.83A.71.71,0,0,0,5.89,88.94Z"/><path class="cls-1" d="M14.59,71.22c.12-.06.13-.32.1-.46s-.26-.28-.43-.2-.09.41,0,.54A.35.35,0,0,0,14.59,71.22Z"/><path class="cls-1" d="M10.11,79a.71.71,0,0,0,.77-.49.54.54,0,0,0-.2-.71c-.44-.29-.78-.08-1.17.23C9.61,78.49,9.59,79,10.11,79Z"/><path class="cls-1" d="M14.27,84.6c.18-.17.58-.67.45-.88s-.74-.13-1-.08-.33.53-.15.78S14,84.82,14.27,84.6Z"/><path class="cls-1" d="M14.74,99.79c-.34.17-.46.45-.22.73s.46.69.83.49.18-.73.14-1S15.06,99.64,14.74,99.79Z"/><path class="cls-1" d="M10.62,81.76c0,.06.26.21.32.17s.37-.21.31-.43-.39-.18-.45-.14A.6.6,0,0,0,10.62,81.76Z"/><path class="cls-1" d="M10.93,87.11a.75.75,0,0,0,.92.37.75.75,0,0,0,.29-.87.84.84,0,0,0-.94-.36A.67.67,0,0,0,10.93,87.11Z"/><path class="cls-1" d="M14.13,91.54a1,1,0,0,0,.24-1.24,1,1,0,0,0-1.24.18.67.67,0,0,0,.1.91A.66.66,0,0,0,14.13,91.54Z"/><path class="cls-1" d="M26.86,123.48c-.46.11-1,.1-1.37.57,0,.21,0,.44.06.67-.48.42-.72,1-.51,1.29a.63.63,0,0,0,.75.25c.56-.17.68-.39.64-1.07a11,11,0,0,0,.87-1A.45.45,0,0,0,26.86,123.48Z"/><path class="cls-1" d="M21.65,120.65c-.1.09-.3.19-.21.4a.25.25,0,0,0,.36.13c.12-.06.4-.26.32-.44S21.72,120.6,21.65,120.65Z"/><path class="cls-1" d="M21.83,117.41a.64.64,0,0,0-.71.41c-.09.34.09.49.8.64A.61.61,0,0,0,21.83,117.41Z"/><path class="cls-1" d="M20,108.09a.59.59,0,0,0-.28.33.61.61,0,0,0,0,.15,1.63,1.63,0,0,0-1.25.05.67.67,0,0,0-.17.94c.31.54.87.77,1.26.52a1.12,1.12,0,0,0,.55-.77l.12,0A8.58,8.58,0,0,1,20,108.09Z"/><path class="cls-1" d="M22.24,113.07a8.65,8.65,0,0,1-.8-1,.6.6,0,0,0-.36.41.85.85,0,0,0,.16.71A.74.74,0,0,0,22.24,113.07Z"/><path class="cls-1" d="M9.71,106.21c-.41-.16-.77-.42-1.12,0a.59.59,0,0,0,0,.83.83.83,0,0,0,.6.27C9.69,107.19,9.77,106.76,9.71,106.21Z"/><path class="cls-1" d="M13.7,95.17a1.38,1.38,0,0,0-.38,1.63,1.21,1.21,0,0,0,1.75.29,1,1,0,0,0,.46-1.44A1.36,1.36,0,0,0,13.7,95.17Z"/><path class="cls-1" d="M25.22,118.27c-.18.06-.29.28-.15.73a.72.72,0,0,0,.88.6,1.05,1.05,0,0,0,.79-1.25c-.11-.57-.45-.6-.49-1s-.26-.47-.66-.53-1-.12-1.07.44.3.67.47.67S25.4,118.21,25.22,118.27Z"/><path class="cls-1" d="M14.87,105.7a1.2,1.2,0,0,0-1.73-.43,1.22,1.22,0,0,0-.36,1.54,1.32,1.32,0,0,0,1.79.23A.92.92,0,0,0,14.87,105.7Z"/><path class="cls-1" d="M18.55,111.58a1.22,1.22,0,0,0-.58,1.47,1.24,1.24,0,0,0,1.6.43.85.85,0,0,0,.3-1.17C19.65,111.81,18.93,111.41,18.55,111.58Z"/><path class="cls-1" d="M10.24,111.29a1,1,0,0,0-.53,1.12,1.1,1.1,0,0,0,1.21.58c.39-.15.51-.79.26-1.37A.78.78,0,0,0,10.24,111.29Z"/><path class="cls-1" d="M13.39,101.75c0-.53-.31-.75-.84-.75-.28-1.25-1-1.41-2-.5a1.25,1.25,0,0,1-.25-.09c-.32-.2-.57-.07-.81.16a.65.65,0,0,0-.13.75c.23.71.53.86,1.23.58l1.57-.58C12.57,102.26,12.69,102.29,13.39,101.75Z"/><path class="cls-1" d="M17,119.49a.63.63,0,0,0-.71.4.58.58,0,0,0,.8.64A.6.6,0,0,0,17,119.49Z"/><path class="cls-1" d="M15.73,110.53a1.23,1.23,0,0,0-1.42-.52,1.1,1.1,0,0,0-.4,1.35c.22.47.63.56,1.23.28A1.08,1.08,0,0,0,15.73,110.53Z"/><path class="cls-1" d="M19.88,80.18a.91.91,0,0,0,.11.16V79.18A1,1,0,0,0,19.88,80.18Z"/><path class="cls-1" d="M51.66,117c-.52.12-.82.47-.75.88a1.58,1.58,0,0,0,1.31,1,1,1,0,0,0,.71-1.31C52.82,117,52.34,116.79,51.66,117Z"/><path class="cls-1" d="M53.26,116.39a.8.8,0,0,0,.66.55,1,1,0,0,0,1.07.21,1.22,1.22,0,0,0,.51-1.23H53.28A.68.68,0,0,0,53.26,116.39Z"/><path class="cls-1" d="M75.56,119.27a1.82,1.82,0,0,0-.27-.52l-.92,1.55C75.08,120.29,75.74,119.87,75.56,119.27Z"/><path class="cls-1" d="M16.09,93.09a.71.71,0,1,0,1.23-.72.79.79,0,0,0-1-.21A.69.69,0,0,0,16.09,93.09Z"/><path class="cls-1" d="M38.59,117.47a.71.71,0,0,0,.43,1c.25.07.74-.29.66-.78a.63.63,0,0,0-.44-.4A.8.8,0,0,0,38.59,117.47Z"/><path class="cls-1" d="M29.19,116.06a.25.25,0,0,0,.38.17.23.23,0,0,0,.17-.31h-.56A.35.35,0,0,0,29.19,116.06Z"/><path class="cls-1" d="M34.13,117.08a1.19,1.19,0,0,0-.17,1.26.78.78,0,0,0,1,.23c.6-.37.84-.86.61-1.24A1.19,1.19,0,0,0,34.13,117.08Z"/><path class="cls-1" d="M55.65,118.51c.1,0,.18.1.25.09s.1-.17.08-.18-.15-.18-.24-.14S55.69,118.42,55.65,118.51Z"/><path class="cls-1" d="M88.76,116.11a1,1,0,0,0,.36-.19H88A1.08,1.08,0,0,0,88.76,116.11Z"/><path class="cls-1" d="M89.15,117c-.27.07-.3.75-.24,1s.42.28.63.26a.37.37,0,0,0,.34-.55C89.76,117.47,89.43,117,89.15,117Z"/><path class="cls-1" d="M95.17,124.46c0,.26.36.32.42.29a.65.65,0,0,0,.32-.37c0-.06-.21-.3-.28-.28S95.17,124.21,95.17,124.46Z"/><path class="cls-1" d="M78.41,119.91a1.62,1.62,0,0,0-1.3-.71c-.42.06-.58.44-.45,1s.43.91.9.81C78.19,120.89,78.56,120.41,78.41,119.91Z"/><path class="cls-1" d="M80,116.15c.11.75.58,1.28,1.07,1.2a1.27,1.27,0,0,0,.89-1.28.94.94,0,0,0-.06-.15H80A.47.47,0,0,0,80,116.15Z"/><path class="cls-1" d="M77,123.55c-.17,0-.57.46-.51.67s.67.38.76.31.5-.52.4-.7A.75.75,0,0,0,77,123.55Z"/><path class="cls-1" d="M17.61,101.56c.18.33,1.18.45,1.58.2a1,1,0,0,0,.25-1.07,1,1,0,0,0-1.27-.51A1.17,1.17,0,0,0,17.61,101.56Z"/><path class="cls-1" d="M19.72,72.71c.15-.08.15-.45.09-.56s-.28-.25-.43-.17-.18.33-.14.44S19.58,72.79,19.72,72.71Z"/><path class="cls-1" d="M60.7,119.1h0L60.06,118a.72.72,0,0,0,0,.5C60.2,118.81,60.33,119.18,60.7,119.1Z"/><path class="cls-1" d="M46.42,116.09a.75.75,0,0,0,.19-.17h-1A.65.65,0,0,0,46.42,116.09Z"/><path class="cls-1" d="M43.08,115.92h-.67A.57.57,0,0,0,43.08,115.92Z"/><path class="cls-1" d="M17.64,86.07c.16.16.58.54.81.4s.07-.73,0-.91-.43-.13-.62-.06A.34.34,0,0,0,17.64,86.07Z"/><path class="cls-1" d="M18.61,88.62a1,1,0,0,0,1.29.22l.09-.07V87.28a1.05,1.05,0,0,0-1-.11A1.26,1.26,0,0,0,18.61,88.62Z"/><path class="cls-1" d="M20,84.87V82.5a.61.61,0,0,0-.13,0,1.3,1.3,0,0,0-.61,1.62A1.52,1.52,0,0,0,20,84.87Z"/><path class="cls-1" d="M17.26,80.37a1.14,1.14,0,0,0,.27-1.47.93.93,0,0,0-1.42-.23.93.93,0,0,0-.37,1.39A1.1,1.1,0,0,0,17.26,80.37Z"/><path class="cls-1" d="M17.46,90.85a2.21,2.21,0,0,0,.05-.79c-.12-.37-.66-.45-1-.22a.63.63,0,0,0-.15.88A.82.82,0,0,0,17.46,90.85Z"/><path class="cls-1" d="M18.25,96.67c.42-.24.48-.7.17-1.28s-.68-.66-1-.45a1.78,1.78,0,0,0-.55,1.43A1,1,0,0,0,18.25,96.67Z"/><path class="cls-1" d="M19.11,106.12a1.22,1.22,0,0,0,.59-1.83,1.35,1.35,0,0,0-1.83-.47,1.64,1.64,0,0,0-.33,1.92A1.11,1.11,0,0,0,19.11,106.12Z"/><path class="cls-1" d="M27.33,127.71c-.15.37.64.92,1.05.74s.65-.75.43-1S27.48,127.34,27.33,127.71Z"/><path class="cls-1" d="M20,94.1a.82.82,0,0,0-.46.73c0,.86.08,1.31.46,1.59Z"/><path class="cls-1" d="M20,92.19a.18.18,0,0,0,0,.09v-.49A.64.64,0,0,0,20,92.19Z"/><path class="cls-1" d="M17.57,115.91l-.3.33c-.21-.2-.4-.4-.61-.57a.65.65,0,0,0-1,0,1,1,0,0,0-.28,1.17.91.91,0,0,0,1,.57,4.26,4.26,0,0,0,.89-.18c.11.1.21.21.33.3a1.38,1.38,0,0,0,1.52.12,1.59,1.59,0,0,0,.6-1.44.8.8,0,0,0-.3-.52A1.26,1.26,0,0,0,17.57,115.91Z"/><path class="cls-1" d="M67.09,129.89a1,1,0,0,0-.14.79c.08.32.28.45.58.36l.19-.07Z"/><path class="cls-1" d="M71.46,129.54c-.11,0-.44.1-.43.41s.41.24.56.24.27-.26.24-.32A.59.59,0,0,0,71.46,129.54Z"/><path class="cls-1" d="M70.11,137.43c-.19.07-.5.31-.49.48s.35.41.53.41.65-.32.61-.53S70.23,137.39,70.11,137.43Z"/><path class="cls-1" d="M71.42,125.3,70,127.66a1.41,1.41,0,0,0,1,.2,1.63,1.63,0,0,0,1.08-1.69A1.13,1.13,0,0,0,71.42,125.3Z"/><path class="cls-1" d="M78,134.26c-.23.08-.74.46-.69.66s.61.41.86.44.52-.29.47-.7A.44.44,0,0,0,78,134.26Z"/><path class="cls-1" d="M77,115.92l-.29.49a.67.67,0,0,0,.43-.09c.4-.38.7-.11,1.06-.07a2.39,2.39,0,0,0,1-.25.35.35,0,0,0,.13-.08Z"/><path class="cls-1" d="M78,126.07a1.28,1.28,0,0,0-1.52-.6c-.57.14-.78.63-.58,1.34a1,1,0,0,0,1.07.67C77.43,127.37,78.1,126.44,78,126.07Z"/><path class="cls-1" d="M75.86,121.24a.77.77,0,0,0-1,.28.58.58,0,0,0,0,.8c.37.45.8.33,1.29.12C76.22,121.94,76.39,121.47,75.86,121.24Z"/><path class="cls-1" d="M66.33,134.55a.74.74,0,0,0-.58.89.59.59,0,0,0,.76.56.73.73,0,0,0,.61-.86A.75.75,0,0,0,66.33,134.55Z"/><path class="cls-1" d="M61.85,121.36a1.18,1.18,0,0,0-.89.07c-.48.35-.12.76.06,1.2.58,0,1-.09,1.15-.66A.72.72,0,0,0,61.85,121.36Z"/><path class="cls-1" d="M61.09,130.65a1.21,1.21,0,0,0-1.09-.71.76.76,0,0,0-.49.95.72.72,0,0,0,.94.48C60.93,131.26,61.19,131,61.09,130.65Z"/><path class="cls-1" d="M61.37,133.68c-.11,0-.45.28-.42.41s.4.24.56.23.26-.25.23-.32A.58.58,0,0,0,61.37,133.68Z"/><path class="cls-1" d="M63.92,125.38c-.38.08-.6.41-.42.71s.26.48.5.49.66-.57.55-.93S64.18,125.33,63.92,125.38Z"/><path class="cls-1" d="M62.29,130c-.18.06-.26.38-.23.48s.17.46.35.4a.51.51,0,0,0,.3-.43C62.7,130.28,62.47,129.9,62.29,130Z"/><path class="cls-1" d="M88.48,134.22c-.14,0-.22.29-.24.44s.18.38.39.35.22-.41.2-.55A.37.37,0,0,0,88.48,134.22Z"/><path class="cls-1" d="M93,120.27c-.25.12-.82.52-.74.79s.73.37,1,.38.51-.44.4-.77S93.28,120.12,93,120.27Z"/><path class="cls-1" d="M88.52,123.78a1.25,1.25,0,0,0-.74,1.47,1.17,1.17,0,0,0,2.23-.67A1.2,1.2,0,0,0,88.52,123.78Z"/><path class="cls-1" d="M59.83,132.39a.23.23,0,0,0-.14.27c0,.07.19.13.25.11a.21.21,0,0,0,.15-.21A.21.21,0,0,0,59.83,132.39Z"/><path class="cls-1" d="M95.6,127.43a.77.77,0,0,0-1,.27.59.59,0,0,0,0,.81c.36.44.79.32,1.29.11C96,128.13,96.12,127.65,95.6,127.43Z"/><path class="cls-1" d="M96.38,118a.82.82,0,0,0-.57.82.93.93,0,0,0,.88.67.74.74,0,0,0,.55-.82A.84.84,0,0,0,96.38,118Z"/><path class="cls-1" d="M28.69,125.77c-.22.09-.09.44,0,.48s.26.22.45.12a.26.26,0,0,0,.09-.37C29.1,125.9,28.91,125.68,28.69,125.77Z"/><path class="cls-1" d="M80.5,127.94c-.25.12-.8.52-.74.81s.78.31,1,.28.47-.31.33-.67S80.82,127.79,80.5,127.94Z"/><path class="cls-1" d="M83.89,119.48a.8.8,0,0,0-.31-1,.59.59,0,0,0-.47-.09,9.19,9.19,0,0,0-.92.69c-.91-.21-1.61,0-1.74.54a1.54,1.54,0,0,0,1,1.53c.62.16.88-.1,1.24-1.33C83.19,120,83.69,120.12,83.89,119.48Z"/><path class="cls-1" d="M80.3,126.3a.75.75,0,0,0,.67-.92.85.85,0,0,0-.91-.59.89.89,0,0,0-.59,1A.69.69,0,0,0,80.3,126.3Z"/><path class="cls-1" d="M86.21,117.92a1.85,1.85,0,0,0-1.34,1.74,1.45,1.45,0,0,0,1.58,1.06,1.41,1.41,0,0,0,1.14-1.51A1.43,1.43,0,0,0,86.21,117.92Z"/><path class="cls-1" d="M83,125.93a.24.24,0,0,0-.14.28c0,.07.19.13.25.11a.21.21,0,0,0,.15-.21A.22.22,0,0,0,83,125.93Z"/><path class="cls-1" d="M83.56,131.06c-.18,0-.3.43-.26.56s.21.35.4.32.28-.29.27-.43S83.74,131,83.56,131.06Z"/><path class="cls-1" d="M84.92,122.45a1.25,1.25,0,0,0-1,1.23.87.87,0,0,0,.94.7,1.08,1.08,0,0,0,.81-1.2C85.62,122.69,85.32,122.41,84.92,122.45Z"/><path class="cls-1" d="M38.23,129.62c0,.2.29.53.48.77a.27.27,0,0,0,.4.09.83.83,0,0,0,.13-1A.62.62,0,0,0,38.23,129.62Z"/><path class="cls-1" d="M46.76,121.89a.94.94,0,0,0-1.21-.46,1.41,1.41,0,0,0-.45,1.69,1,1,0,0,0,1.22.22A1,1,0,0,0,46.76,121.89Z"/><path class="cls-1" d="M38.79,123.29c-.38.2-.45.84-.16,1.37a.52.52,0,0,0,.77.22c.45-.22.72-.78.54-1.11A1.09,1.09,0,0,0,38.79,123.29Z"/><path class="cls-1" d="M46.13,127.38c-.17.08-.08.41,0,.53s.26.19.37.12.12-.31.09-.45S46.31,127.29,46.13,127.38Z"/><path class="cls-1" d="M37,121.82a5.65,5.65,0,0,0-1,.44c-.27.15-.29.37-.11.65.09,0,.23.11.31.07a1.47,1.47,0,0,1,1,0c.15,0,.44-.23.51-.41a.83.83,0,0,0-.13-.66C37.44,121.79,37.13,121.77,37,121.82Z"/><path class="cls-1" d="M46,118.3a1.49,1.49,0,0,0-1.86-.71,1.55,1.55,0,0,0-.67,1.52.57.57,0,0,0-.29,0,.81.81,0,0,0-.58,1,.76.76,0,0,0,1,.59.78.78,0,0,0,.54-.77,1.75,1.75,0,0,0,1.35-.1A1.14,1.14,0,0,0,46,118.3Z"/><path class="cls-1" d="M41.05,119.49a1.11,1.11,0,0,0-.49,1.62,1.17,1.17,0,0,0,1.47.55,1.34,1.34,0,0,0,.33-1.78A.91.91,0,0,0,41.05,119.49Z"/><path class="cls-1" d="M38.74,118.67a1,1,0,0,0-1-.43.51.51,0,0,0-.31.72c.18.54.48.83.75.76A1.15,1.15,0,0,0,38.74,118.67Z"/><path class="cls-1" d="M36.11,124.63c-.29.16-.53.8-.39,1a1,1,0,0,0,1.14.28.7.7,0,0,0,.19-1A.79.79,0,0,0,36.11,124.63Z"/><path class="cls-1" d="M31.83,116.9c-.12.11,0,.37.12.47a.37.37,0,0,0,.48-.06.36.36,0,0,0-.06-.45A.53.53,0,0,0,31.83,116.9Z"/><path class="cls-1" d="M29.81,119.09a1.06,1.06,0,0,0-1.11.15.93.93,0,0,0-.29.89A1.1,1.1,0,0,0,29,121c.36.11.72.39,1,.23a.68.68,0,0,0,.39-.46,1.09,1.09,0,0,0,.14-.64A1.42,1.42,0,0,0,29.81,119.09Z"/><path class="cls-1" d="M34.54,121.26c.47-.28.53-.75.17-1.33a1,1,0,0,0-1.12-.31,1.62,1.62,0,0,0-.54,1.51A1.19,1.19,0,0,0,34.54,121.26Z"/><path class="cls-1" d="M34.91,127a.6.6,0,0,0-.29.82.53.53,0,0,0,.77.2.5.5,0,0,0,.23-.68A.53.53,0,0,0,34.91,127Z"/><path class="cls-1" d="M34.76,123.68c-.26-.45-.69-.52-1.23-.19a.7.7,0,0,0-.39.89,1.48,1.48,0,0,0,1.4.54C35,124.67,35.07,124.23,34.76,123.68Z"/><path class="cls-1" d="M47.43,128.72a.37.37,0,0,0-.13.44c0,.12.33.37.48.29s.14-.45.08-.55A.4.4,0,0,0,47.43,128.72Z"/><path class="cls-1" d="M55.11,132.07c-.22.07-.3.41-.28.53a.52.52,0,0,0,.4.28.46.46,0,0,0,.29-.37C55.5,132.37,55.32,132,55.11,132.07Z"/><path class="cls-1" d="M53.19,126.15c-.33,0-.65.77-.5,1s.48.22.75.21a.45.45,0,0,0,.43-.62C53.77,126.38,53.61,126.09,53.19,126.15Z"/><path class="cls-1" d="M54.76,123.42a.86.86,0,0,0-.59,1,.79.79,0,0,0,0,.09,1.22,1.22,0,0,0,0,.9.64.64,0,0,0,.93.23.58.58,0,0,0,.27-.83l0,0a.68.68,0,0,0,.29-.76A.82.82,0,0,0,54.76,123.42Z"/><path class="cls-1" d="M52.65,120.52a.92.92,0,0,0-.53,1.13,1,1,0,0,0,1.24.85c.55-.13,1-.65.87-1A1.47,1.47,0,0,0,52.65,120.52Z"/><path class="cls-1" d="M56.8,115.92a1.22,1.22,0,0,0,1.14.55,1.4,1.4,0,0,0,.81-.55Z"/><path class="cls-1" d="M56.44,118.66a1.09,1.09,0,0,0-.58.5c-.19.25-.71.53-.58.87.07.18.26.24.47.28a1.38,1.38,0,0,0,1.16.49,1,1,0,0,0,.7-.93C57.46,119.08,57,118.55,56.44,118.66Z"/><path class="cls-1" d="M60.07,126.4c.38-.09.68-.89.55-1.47a.88.88,0,0,0-1-.56,1.06,1.06,0,0,0-.8,1.1A1.37,1.37,0,0,0,60.07,126.4Z"/><path class="cls-1" d="M50.51,120.33a.79.79,0,0,0-.17.62c.07.29.63.39.84.16a1.32,1.32,0,0,0,.18-.5C51.1,120.21,50.7,120.11,50.51,120.33Z"/><path class="cls-1" d="M48.92,121.78a.72.72,0,0,0,.82.67.73.73,0,0,0,.61-.77.74.74,0,0,0-.55-.62.36.36,0,0,0-.08-.23c-.25-.29-.72-.15-.94-.06s-.23.45-.09.7a.66.66,0,0,0,.23.21Z"/><path class="cls-1" d="M47.4,124.62a.76.76,0,1,0,.24,1.49.9.9,0,0,0,.56-.94A.68.68,0,0,0,47.4,124.62Z"/><path class="cls-1" d="M49.25,118.78a1.24,1.24,0,0,0,.34-1.39.52.52,0,0,0-.17-.16,1.5,1.5,0,0,0,.5.16c.32,0,.63-.44.47-.7a.73.73,0,0,0-.61-.29c-.19,0-.64.32-.62.56a.3.3,0,0,0,.13.19,1.21,1.21,0,0,0-1,0,.86.86,0,0,0-.32,1C48.27,118.7,48.86,119,49.25,118.78Z"/><path class="cls-1" d="M49.6,129.46c-.22,0-.91.56-.84.93s1,.46,1.3.38a.83.83,0,0,0,.54-.82C50.53,129.58,49.93,129.46,49.6,129.46Z"/><path class="cls-1" d="M49.73,122.84a.74.74,0,1,0,.49,1.39c.29-.16.38-.73.1-1.3C50.19,122.91,49.93,122.78,49.73,122.84Z"/><rect class="cls-2" x="2.11" y="141.08" width="131.58" height="94.98"/><path class="cls-3" d="M6.25,208.86a.49.49,0,0,0-.28-.44c-.13,0-.56,0-.58.21s.25.39.35.39S6.23,209,6.25,208.86Z"/><path class="cls-3" d="M2.87,187.91a1.53,1.53,0,0,0,1.79-.35c.39-.51.25-.84-.74-1.65.27-.42.61-.82.1-1.24a.78.78,0,0,0-1-.09c-.13.09-.28.28-.26.4A9.16,9.16,0,0,0,3,186.1C2.5,186.85,2.42,187.58,2.87,187.91Z"/><path class="cls-3" d="M112.16,235.41c.28.47.69.26,1.08.1.13-.48.09-.88-.4-1a.69.69,0,0,0-.6.2A.89.89,0,0,0,112.16,235.41Z"/><path class="cls-3" d="M4.37,210.51a1.46,1.46,0,0,0,0,1.56,1.11,1.11,0,0,0-.87.29,1.48,1.48,0,0,0-.47,2,1.7,1.7,0,0,0,1.45.47,1,1,0,0,0,0,.29,1.08,1.08,0,0,0-1.33.23c-.23.45-.05,1.14.34,1.23s1-.61,1.1-1.09a.66.66,0,0,0,.22.22.82.82,0,0,0,1-.32.78.78,0,0,0-.23-1.06.42.42,0,0,0-.14-.06,1.41,1.41,0,0,0,0-1.51.22.22,0,0,1,0-.08,1.29,1.29,0,0,0,1.24-.78,1.61,1.61,0,0,0,.24-.61.7.7,0,0,0,.52.18,1,1,0,0,0,.77-1.21,1.3,1.3,0,0,0-1-1,1,1,0,0,0-1,.71A1.44,1.44,0,0,0,4.37,210.51Z"/><path class="cls-3" d="M10.24,199.92a.52.52,0,0,0,.5-.06c.08-.08.15-.49,0-.59s-.46.14-.57.26A.33.33,0,0,0,10.24,199.92Z"/><path class="cls-3" d="M10,188a.21.21,0,0,0-.14-.22.22.22,0,0,0-.26.18.24.24,0,0,0,.2.23C9.9,188.23,10,188.09,10,188Z"/><path class="cls-3" d="M8.53,200a.41.41,0,0,0,.21.54c.29.11.38-.28.44-.42s-.14-.35-.21-.34A.59.59,0,0,0,8.53,200Z"/><path class="cls-3" d="M11,192c.29.06.59-.6.66-.86s-.1-.56-.49-.57-.65.08-.63.44S10.7,192,11,192Z"/><path class="cls-3" d="M79.9,228.83c.49-.07,1,0,1.14-.58a.67.67,0,0,0-.44-.84.89.89,0,0,0-.75.06C79.38,227.85,79.54,228.32,79.9,228.83Z"/><path class="cls-3" d="M8.34,189.63a.83.83,0,0,0-.89.61.89.89,0,0,0,.71.93.7.7,0,0,0,.78-.57A.76.76,0,0,0,8.34,189.63Z"/><path class="cls-3" d="M80.52,232.47a1.16,1.16,0,0,0,1.64-.56,1.43,1.43,0,1,0-2.57-1.23C79.28,231.34,79.67,232.09,80.52,232.47Z"/><path class="cls-3" d="M114.42,230.51a1.7,1.7,0,0,0-2,.73c-.36.68,0,1.48.88,1.91a1.29,1.29,0,0,0,1.8-.61A1.61,1.61,0,0,0,114.42,230.51Z"/><path class="cls-3" d="M90.67,229.9a1.15,1.15,0,0,0,.68,1.33c.7.31,1.16.21,1.42-.31a1.36,1.36,0,0,0-.49-1.63A1.45,1.45,0,0,0,90.67,229.9Z"/><path class="cls-3" d="M12.24,212a.75.75,0,0,0,.33,1.05c.33.15.5-.05.64-.29a.5.5,0,0,0-.25-.8A2.37,2.37,0,0,0,12.24,212Z"/><path class="cls-3" d="M103.3,232.56A1.71,1.71,0,0,0,104,234c.39.21.76,0,1-.57s.2-1-.25-1.23A1,1,0,0,0,103.3,232.56Z"/><path class="cls-3" d="M104.27,214.1c.06-.07.09-.43-.11-.53s-.43.2-.51.34a.4.4,0,0,0,.15.42C103.93,214.39,104.17,214.22,104.27,214.1Z"/><path class="cls-3" d="M98.45,229.51a.81.81,0,0,0-.33,1c0,.14.2.34.33.36a12,12,0,0,0,1.2,0c.63.74,1.34,1,1.79.63a1.61,1.61,0,0,0,.11-1.91c-.42-.52-.79-.46-1.87.34C99.33,229.55,99,229.1,98.45,229.51Z"/><path class="cls-3" d="M101,226a.9.9,0,0,0-.35-1.17,1.12,1.12,0,0,0-1.42.49.77.77,0,0,0,.2,1.1A1.3,1.3,0,0,0,101,226Z"/><path class="cls-3" d="M96.15,234.8a9.3,9.3,0,0,0-1.87.58,1.88,1.88,0,0,0-2-.6,1.69,1.69,0,0,0-.93,1.28h6A1.06,1.06,0,0,0,96.15,234.8Z"/><path class="cls-3" d="M9,206.9c0,.39.72,1.06,1.18,1.09s.89.07,1.06-.51c0-.08.06-.15.08-.23a.87.87,0,0,0,.46.29.58.58,0,0,0,.8-.48.72.72,0,0,0-.55-.9.57.57,0,0,0-.26,0,.62.62,0,0,0-.11-.95.84.84,0,0,0-1.16.17,2.44,2.44,0,0,1-.65.52A1.11,1.11,0,0,0,9,206.9Z"/><path class="cls-3" d="M5,216.52a.46.46,0,0,0,.41-.26.49.49,0,0,0-.23-.41c-.13,0-.54,0-.56.22S4.84,216.5,5,216.52Z"/><path class="cls-3" d="M3.19,219.74a1.56,1.56,0,0,0-.75-.64,3.43,3.43,0,0,0-.33-.12v4.48a1.51,1.51,0,0,0,.32-.34,1,1,0,0,0-.15-1.35l-.16-.07a1.58,1.58,0,0,0,1.06-.78,1.48,1.48,0,0,0,.15-.48,2,2,0,0,0,1.79.67A1.46,1.46,0,0,0,6,219.56c0-.47-.17-.87.3-1.26s.14-.67-.16-1c-.59,0-.87.29-.83.78a7.6,7.6,0,0,0-1.39.37A1.77,1.77,0,0,0,3.19,219.74Z"/><path class="cls-3" d="M9.1,216.26c.3-.56.22-1.24-.18-1.44a1.52,1.52,0,0,0-1.53.37.75.75,0,0,0-.46.31c-.37.54-.32.82.19,1.4a11.13,11.13,0,0,0-.07,1.49.51.51,0,0,0,.89.33c.33-.42.83-.79.82-1.46-.12-.12-.25-.26-.37-.4A1.12,1.12,0,0,0,9.1,216.26Z"/><path class="cls-3" d="M3.93,217.73a.28.28,0,0,0,.17.39c.16,0,.47.09.6-.15s-.22-.45-.3-.45S4,217.51,3.93,217.73Z"/><path class="cls-3" d="M107.6,230.16c.07-.2-.32-.74-.44-.73s-.74.13-.76.33a.79.79,0,0,0,.36.65C106.92,230.48,107.52,230.37,107.6,230.16Z"/><path class="cls-3" d="M106.26,233a.82.82,0,0,0,1,.37.6.6,0,0,0,.51-.66c0-.61-.46-.77-1-.91C106.4,232.23,106,232.52,106.26,233Z"/><path class="cls-3" d="M2.69,201.29a1.31,1.31,0,0,0-.58-.15V202h.08a.94.94,0,0,0,.64,0C3.07,201.81,3,201.46,2.69,201.29Z"/><path class="cls-3" d="M32,227.85c.13-.19-.14-.46-.26-.56a.41.41,0,0,0-.44.09c-.08.12.06.38.16.5S31.91,228,32,227.85Z"/><path class="cls-3" d="M7,211.65a.24.24,0,0,0-.27.18c0,.14.13.22.2.24s.2-.13.21-.19S7.05,211.67,7,211.65Z"/><path class="cls-3" d="M3,227.15a1.68,1.68,0,0,0,.66,1.59,1.16,1.16,0,0,0,.53.16,1.22,1.22,0,0,0,.15,1.22,1.43,1.43,0,0,0-1.41.63,1.53,1.53,0,0,0,.49,2A1.34,1.34,0,0,0,4,233a.62.62,0,0,0-.07.19c-.11.64,0,1.09.32,1.17a1.32,1.32,0,0,0,1.13-.72c.07-.25-.22-.67-.54-.87a1.67,1.67,0,0,0,.47-.54,1.29,1.29,0,0,0-.37-1.91A1.43,1.43,0,0,0,6,229.52a1.37,1.37,0,0,0-.67-1.21,1.43,1.43,0,0,0-.31-2,.92.92,0,0,0-.33-.11,3,3,0,0,0-.09-.32,1,1,0,0,0,0-.34.8.8,0,0,0-.72-.74c-.59-.07-.75.45-1,.9l0,.05a1.36,1.36,0,0,0-.21.37A.84.84,0,0,0,3,227.15Z"/><path class="cls-3" d="M2.93,205.75c.11-.22-.27-.83-.65-.86a.31.31,0,0,0-.17,0V206a.48.48,0,0,0,.18,0C2.54,206,2.83,206,2.93,205.75Z"/><path class="cls-3" d="M6,222.39a.92.92,0,0,0,.41,1.11.65.65,0,0,0,.23.06.49.49,0,0,1,0,.11,2.29,2.29,0,0,1,.08.28.83.83,0,0,0-.17-.15c-.71-.42-1.34-.39-1.62.07a1.41,1.41,0,0,0,.35,1.45,1.41,1.41,0,0,0,1.48-.58.66.66,0,0,0,.11-.51l.1.11a1.63,1.63,0,0,0,1.37.36,1.25,1.25,0,0,0,.89-.92,1.06,1.06,0,0,0-.37-1,1.27,1.27,0,0,0-1.13-.31l-.26.09a.83.83,0,0,0-.39-.51A.87.87,0,0,0,6,222.39Z"/><path class="cls-3" d="M22.41,221.31A1.13,1.13,0,0,0,24,221a1.76,1.76,0,0,0-.42-2.17,1.31,1.31,0,0,0-1.68.5A1.39,1.39,0,0,0,22.41,221.31Z"/><path class="cls-3" d="M22,223.74a1.43,1.43,0,0,0,1.67-.29,1.36,1.36,0,0,0-.51-1.71,1.4,1.4,0,0,0-1.72.74A1,1,0,0,0,22,223.74Z"/><path class="cls-3" d="M20.08,236.06v0a1,1,0,0,0-.81-1.23,1.81,1.81,0,0,1-.42-.28c-.46-.33-.87-.34-1.08,0s-.11.85.47,1.15c.06,0,.15,0,.2,0s.27.24.24.39Z"/><path class="cls-3" d="M29.7,233.22c-.2.32,0,.94.62,1.35.14,0,.47-.06.63-.23a.83.83,0,0,0,.21-.49.92.92,0,0,0,.86-.54,1.31,1.31,0,0,0-.47-1.62c-.38-.17-1.36.43-1.53.93a.66.66,0,0,0,0,.37A.63.63,0,0,0,29.7,233.22Z"/><path class="cls-3" d="M14.68,216.79a1,1,0,0,0,1.46-.42c.27-.41.05-1-.53-1.33a.75.75,0,0,0-1.13.18A1.59,1.59,0,0,0,14.68,216.79Z"/><path class="cls-3" d="M14.81,210.36c.33.15.5-.06.64-.29a.52.52,0,0,0-.25-.81,2.33,2.33,0,0,0-.72.05A.76.76,0,0,0,14.81,210.36Z"/><path class="cls-3" d="M20.42,225.38a.7.7,0,0,0,.39-.94,1.11,1.11,0,0,0-.39-.42.92.92,0,0,0,0-.36c-.07-.29-1.4-.2-1.59.08s.13.63.54.82a1.81,1.81,0,0,0-.07.35C19.61,225.25,19.93,225.59,20.42,225.38Z"/><path class="cls-3" d="M13.38,175.89a.68.68,0,0,0-.21-.44c-.05,0-.36.09-.37.16s-.08.46.16.56S13.38,176,13.38,175.89Z"/><path class="cls-3" d="M19.76,231.81a1.4,1.4,0,0,0-1.17,1.39,1.44,1.44,0,0,0,2.81-.43C21.4,232.2,20.56,231.82,19.76,231.81Z"/><path class="cls-3" d="M29,233.54a.87.87,0,0,0-.34-1.07,1.22,1.22,0,0,0-1.2.34,1,1,0,0,0,.44,1.14A.78.78,0,0,0,29,233.54Z"/><path class="cls-3" d="M22.08,233.8c-.21.28.15.63.3.7s.47.17.62-.08a.47.47,0,0,0-.15-.6C22.72,233.71,22.3,233.53,22.08,233.8Z"/><path class="cls-3" d="M23,226.47c-.32-.33-1.29.05-1.31.39s.89.9,1.23.6A.76.76,0,0,0,23,226.47Z"/><path class="cls-3" d="M124.47,234.37a1.29,1.29,0,0,0,.48,1.28.8.8,0,0,0,1-.49.74.74,0,0,0-.49-1C125,234,124.59,234.05,124.47,234.37Z"/><path class="cls-3" d="M42.39,225.23a.89.89,0,0,0,1.12-.18,1.12,1.12,0,0,0-.18-1.22,1.1,1.1,0,0,0-1.28.35A.79.79,0,0,0,42.39,225.23Z"/><path class="cls-3" d="M48.68,226.86a.61.61,0,0,0-.19,0h0a1.35,1.35,0,0,0-1.56.68c-.31.54-.1,1,.58,1.42a1.08,1.08,0,0,0,1.27-.31,2,2,0,0,0,0-1.33.43.43,0,0,1,0-.07C48.86,227.18,48.75,226.87,48.68,226.86Z"/><path class="cls-3" d="M39.91,233.22a1,1,0,0,0,1.52-.34A1.25,1.25,0,0,0,41,231a1.33,1.33,0,0,0-1.76.25C38.87,231.78,39.2,232.75,39.91,233.22Z"/><path class="cls-3" d="M43.41,222.06a.69.69,0,0,0-.16-1,.62.62,0,0,0-.88.23.56.56,0,0,0,.15.81A.6.6,0,0,0,43.41,222.06Z"/><path class="cls-3" d="M40.11,226.62a1.06,1.06,0,0,0,.07,1.4,1.22,1.22,0,0,0,1.4-.16c.27-.4,0-1.08-.59-1.45a1,1,0,0,0-.3-.11A.54.54,0,0,0,41,226c.14-.29.14-.68-.23-.76a.86.86,0,0,0-.78.24c-.1.22.07.57.11.77a1.24,1.24,0,0,0,.36.1A.74.74,0,0,0,40.11,226.62Z"/><path class="cls-3" d="M38.65,221.26c0-.22-.57-.36-.9-.5a.3.3,0,0,0-.45.14,1,1,0,0,0,.46,1.11A.7.7,0,0,0,38.65,221.26Z"/><path class="cls-3" d="M55.43,234.14a1.06,1.06,0,0,0,.78-.3,1.5,1.5,0,0,0,0-2.1,5.33,5.33,0,0,0-1,.09,1.16,1.16,0,0,0-.88,1.12A1.26,1.26,0,0,0,55.43,234.14Z"/><path class="cls-3" d="M53.34,221.1c.4-.36.95-.64,1-1.31l-.43-.64c.24-.68.17-1.37-.21-1.56a.72.72,0,0,0-.88.16c-.46.48-.46.76,0,1.42a11,11,0,0,0-.32,1.46A.51.51,0,0,0,53.34,221.1Z"/><path class="cls-3" d="M58.2,231a.83.83,0,0,0,.24,1.12,2.27,2.27,0,0,0,.74-.38.48.48,0,0,0-.17-.77C58.75,230.77,58.45,230.65,58.2,231Z"/><path class="cls-3" d="M57.58,224.57a.81.81,0,0,0-1.2-.11,1.19,1.19,0,0,0-.1,1.68c.42.51.78.35,1,.7s.52.33.95.17,1.07-.44.82-1-.66-.51-.84-.42-.55,0-.4-.19S58,225,57.58,224.57Z"/><path class="cls-3" d="M55.14,230.23a.28.28,0,0,0,0-.46.29.29,0,0,0-.47,0,.28.28,0,0,0,0,.45A.29.29,0,0,0,55.14,230.23Z"/><path class="cls-3" d="M35.17,228.55c.38.47.8.45,1.28.08,1.12.92,1.88.55,2.14-1a1.31,1.31,0,0,1,.28-.09c.43-.05.56-.34.61-.71a.76.76,0,0,0-.41-.76c-.7-.46-1.08-.38-1.5.35-.32.55-.66,1.08-1,1.61C35.54,227.53,35.42,227.58,35.17,228.55Z"/><path class="cls-3" d="M3.33,167.35c-.1.53.1.87.57,1,.66.14,1.44-.26,1.51-.78s-.44-1-1-1.08A1,1,0,0,0,3.33,167.35Z"/><path class="cls-3" d="M5.58,233.7c-.1.22-.24.65,0,.82s.67,0,.91-.15.13-.64-.15-.83A.5.5,0,0,0,5.58,233.7Z"/><path class="cls-3" d="M123.28,226.53a.75.75,0,0,0-1,.33.8.8,0,0,0,.29,1,.78.78,0,0,0,1-.38A.62.62,0,0,0,123.28,226.53Z"/><path class="cls-3" d="M126.42,231c-.08,0-.39.05-.4.12a.6.6,0,0,0,.11.5c.09.08.55.05.61-.07S126.55,231.14,126.42,231Z"/><path class="cls-3" d="M126.9,233.57c0-.07-.08-.24-.14-.26s-.22,0-.26.09a.24.24,0,0,0,.12.31C126.75,233.76,126.87,233.63,126.9,233.57Z"/><path class="cls-3" d="M123,233.56c-.08.12-.12.58.06.64a.51.51,0,0,0,.49-.25c.06-.16.15-.49,0-.55A.49.49,0,0,0,123,233.56Z"/><path class="cls-3" d="M34.07,232a1.12,1.12,0,0,0,.36,1.68,1.08,1.08,0,0,0,1.46-.2,1.61,1.61,0,0,0-.48-1.93.73.73,0,0,0-.21-.06.75.75,0,0,0,.15-.2c.18-.39.09-.73-.31-.81s-.9-.28-1.09.15.35.78.57,1h0A1.09,1.09,0,0,0,34.07,232Z"/><path class="cls-3" d="M27.7,218c0-.13-.21-.52-.44-.54s-.45.47-.43.62a.59.59,0,0,0,.47.35A.58.58,0,0,0,27.7,218Z"/><path class="cls-3" d="M26.93,222.4a1.36,1.36,0,0,0,1.61-.53,1.23,1.23,0,0,0-.59-1.48c-.52-.27-.95-.06-1.29.62A1.2,1.2,0,0,0,26.93,222.4Z"/><path class="cls-3" d="M4.85,161.9a.39.39,0,0,0-.28-.47.44.44,0,1,0-.14.86A.45.45,0,0,0,4.85,161.9Z"/><path class="cls-3" d="M51.31,225.8a1.2,1.2,0,0,0,.21.72,1.67,1.67,0,0,0,1.3.58,1.22,1.22,0,0,0,1-.77,1.06,1.06,0,0,0-.21-1,1.22,1.22,0,0,0-1.07-.48c-.42.09-.93,0-1.14.32A.73.73,0,0,0,51.31,225.8Z"/><path class="cls-3" d="M59.23,234.1a1.78,1.78,0,0,0-2.2.11,1.39,1.39,0,0,0,0,1.85h2.12A1.46,1.46,0,0,0,59.23,234.1Z"/><path class="cls-3" d="M51.2,230.31a.41.41,0,0,0,.3.41.57.57,0,0,0,.52-.34c0-.17-.2-.37-.38-.4S51.21,230.1,51.2,230.31Z"/><path class="cls-3" d="M73.1,235.7a1.83,1.83,0,0,0-.73-2.08,1.24,1.24,0,0,0-1.77.48,1.34,1.34,0,0,0,.2,2h2A1.38,1.38,0,0,0,73.1,235.7Z"/><path class="cls-3" d="M64.3,222.56a1.79,1.79,0,0,0,.19,1.76.93.93,0,0,0,.59.35,1.42,1.42,0,0,0,1.66-1.15l.12-.5c.32.08.62.19.92.24a.76.76,0,0,0,1-.62,1.19,1.19,0,0,0-.37-1.31,1,1,0,0,0-1.26,0,5.32,5.32,0,0,0-.79.66,3.88,3.88,0,0,0-.49-.11A1.56,1.56,0,0,0,64.3,222.56Z"/><path class="cls-3" d="M65.36,219.64a.73.73,0,0,0,.48-.8.66.66,0,0,0-1.15-.19A.7.7,0,0,0,65.36,219.64Z"/><path class="cls-3" d="M61.69,224.37a.72.72,0,0,0,.48-.79c-.1-.39-.37-.44-1.15-.2A.69.69,0,0,0,61.69,224.37Z"/><path class="cls-3" d="M59.74,231.86a1.65,1.65,0,0,0,.17,1.06,1.69,1.69,0,0,0,1.17.82c.55.14.84.64,1.4.55a2.36,2.36,0,0,0,2-2,1.9,1.9,0,0,0-.53-1.74c-.48-.45-1.22,0-1.87-.27C60.57,229.71,59.94,230.77,59.74,231.86Z"/><path class="cls-3" d="M74.72,226.73a.52.52,0,0,0,.49-.25c.05-.17.14-.5,0-.56a.53.53,0,0,0-.52.17C74.58,226.21,74.53,226.67,74.72,226.73Z"/><path class="cls-3" d="M74.48,220.91c.17-.27-.19-.45-.33-.55a.47.47,0,0,0-.39.12.59.59,0,0,0,.11.5A.43.43,0,0,0,74.48,220.91Z"/><path class="cls-3" d="M80.13,224.47a1.08,1.08,0,0,0,.63,1.34c.52.24.91.12,1.12-.32a1.33,1.33,0,0,0-.41-1.73A1.2,1.2,0,0,0,80.13,224.47Z"/><path class="cls-3" d="M82.23,235a1.35,1.35,0,0,1,.29-.05.64.64,0,0,0,.25,0,1.27,1.27,0,0,0,.31.2c.51.23,1,0,1.28-.71a1.13,1.13,0,0,0,.12-.4.57.57,0,0,0,.4-.27c.18-.26.25-.65-.1-.79A.86.86,0,0,0,84,233s0,0,0,.07a2.58,2.58,0,0,0-1.18.23c-.5-.39-.86-.31-1.34.27s-.83,1-1.24,1.44c-1-.69-1.08-.66-1.48.26.3.53.72.57,1.25.29a2.59,2.59,0,0,0,.57.48h1A2.39,2.39,0,0,0,82.23,235Z"/><path class="cls-3" d="M82,219.51a.8.8,0,0,0-.31-1,.67.67,0,0,0-1,.26.81.81,0,0,0,.31,1A.68.68,0,0,0,82,219.51Z"/><path class="cls-3" d="M76.58,224.08a1.12,1.12,0,0,0-.09-1.41,1.27,1.27,0,0,0-1.53.08c-.3.38-.07,1.07.5,1.51A.89.89,0,0,0,76.58,224.08Z"/><path class="cls-3" d="M72.74,230.15c-.49.68-.42,1.07.31,1.51.54.34,1.07.7,1.6,1-.55,1-.5,1.16.47,1.43.48-.37.46-.79.11-1.28a3.73,3.73,0,0,0,.33-.47,1.34,1.34,0,0,0,1-2.45,1.49,1.49,0,0,0-1.9.75s0,0,0,.06l-.28-.07a1.4,1.4,0,0,1-.09-.29c0-.43-.32-.57-.7-.63A.74.74,0,0,0,72.74,230.15Z"/><path class="cls-3" d="M44.34,226.74a1.65,1.65,0,0,1-.94.53c-.15,0-.28.39-.28.62-.13-.07-.56-.1-.61.08s.16.45.26.48.49.13.55,0v-.07a1.17,1.17,0,0,0,.29.22.75.75,0,0,0,.61-.23,7.54,7.54,0,0,0,.71-1c.19-.3.09-.52-.24-.71C44.59,226.66,44.4,226.65,44.34,226.74Z"/><path class="cls-3" d="M50,219.34c-.16,0-.38-.08-.5.13a.27.27,0,0,0,.11.41c.15.06.45.17.62,0S50.11,219.35,50,219.34Z"/><path class="cls-3" d="M51.28,234.2c.57.38,1.1.35,1.36-.07a1.72,1.72,0,0,0-.31-1.69,1,1,0,0,0-1.4.41C50.54,233.4,50.64,233.78,51.28,234.2Z"/><path class="cls-3" d="M49.56,234a.7.7,0,0,0,.29,1,.79.79,0,0,0,1-.34.65.65,0,0,0-.29-.95A.8.8,0,0,0,49.56,234Z"/><path class="cls-3" d="M48,230.43c-.39.7-.36,1.32.08,1.57a1.07,1.07,0,1,0,1-1.88A.93.93,0,0,0,48,230.43Z"/><path class="cls-3" d="M49.1,217c-.31.4-.24,1.11.13,1.27s1.36-.66,1.31-1.11S49.4,216.6,49.1,217Z"/><path class="cls-3" d="M45.4,232.31a.58.58,0,0,0-.09-.88c-.48-.43-.93-.57-1.16-.35a1.33,1.33,0,0,0,0,1.35A1.11,1.11,0,0,0,45.4,232.31Z"/><path class="cls-3" d="M47.76,234.34a.58.58,0,0,0-.79.41c-.22.61-.17,1.08.12,1.21a1.29,1.29,0,0,0,1.24-.53C48.46,235.14,48.12,234.5,47.76,234.34Z"/><path class="cls-3" d="M46.34,228.78a.4.4,0,0,0-.19-.54.42.42,0,0,0-.63.26.42.42,0,0,0,.3.58A.47.47,0,0,0,46.34,228.78Z"/><path class="cls-3" d="M43.57,233.94c-.22.52-.1.91.35,1.11a1.34,1.34,0,0,0,1.71-.45,1.2,1.2,0,0,0-.74-1.31A1.08,1.08,0,0,0,43.57,233.94Z"/><path class="cls-3" d="M44.92,223.9c-.32.5-.16,1,.46,1.35s1,.14,1.33-.48a.81.81,0,0,0-.1-1.1A1.66,1.66,0,0,0,44.92,223.9Z"/><path class="cls-3" d="M2.44,171.7c-.06.61.65,1,.89,1.06a1.08,1.08,0,0,0,.7-1.18.74.74,0,0,0-.84-.54A.74.74,0,0,0,2.44,171.7Z"/><path class="cls-3" d="M25.55,235.41c.14-.25-.13-.94-.46-1.16a.73.73,0,0,0-1.05.28.67.67,0,0,0,.18,1C24.64,235.77,25.37,235.72,25.55,235.41Z"/><path class="cls-3" d="M21.63,236.06h0Z"/><path class="cls-3" d="M25.31,225.07a1.1,1.1,0,0,0-1.49.43,1.3,1.3,0,0,0,.06,1.08.75.75,0,0,0-.53.59c-.1.53.34.76.76,1,.41-.27.92-.48.72-1.08a.37.37,0,0,0-.08-.15,1.86,1.86,0,0,0,1.07-.92A.76.76,0,0,0,25.31,225.07Z"/><path class="cls-3" d="M18.09,210.38c-.13-.06-.41-.08-.52.09a.44.44,0,0,0,.13.49c.11.09.53.16.63,0S18.2,210.44,18.09,210.38Z"/><path class="cls-3" d="M26.7,226.88c.19.1.73.24.94-.16s-.25-.67-.42-.75a.78.78,0,0,0-.67.15A.47.47,0,0,0,26.7,226.88Z"/><path class="cls-3" d="M27.12,236.06h.29A.57.57,0,0,0,27.12,236.06Z"/><path class="cls-3" d="M18.25,204.3c-.12.18.16.44.28.53a.38.38,0,0,0,.42-.1c.08-.12-.06-.37-.17-.48S18.37,204.12,18.25,204.3Z"/><path class="cls-3" d="M18.7,214.46a.69.69,0,0,0,.82.87.71.71,0,0,0,.34-.86A.66.66,0,0,0,18.7,214.46Z"/><path class="cls-3" d="M28.68,227.94a1.23,1.23,0,0,0-1.66.76,1.37,1.37,0,0,0,.76,2,1.52,1.52,0,0,0,1.95-.87A1.81,1.81,0,0,0,28.68,227.94Z"/><path class="cls-3" d="M25.05,210.58a2.15,2.15,0,0,0-2.21.58,1.47,1.47,0,0,0,.64,1.92,1.65,1.65,0,0,0,2-.52A1.49,1.49,0,0,0,25.05,210.58Z"/><path class="cls-3" d="M21.56,216.66a5.16,5.16,0,0,0-.67.78,4.07,4.07,0,0,0-.5,0,1.56,1.56,0,0,0-1.44,1,1.81,1.81,0,0,0,.48,1.7.92.92,0,0,0,.63.26,1.44,1.44,0,0,0,1.45-1.41c0-.16,0-.33,0-.51.33,0,.63.08.93.08.59,0,.82-.2.89-.76a1.15,1.15,0,0,0-.57-1.23A1,1,0,0,0,21.56,216.66Z"/><path class="cls-3" d="M14,185.14c-.09,0-.33.1-.35.23s.18.33.32.39.42,0,.47-.22S14.18,185.18,14,185.14Z"/><path class="cls-3" d="M25.32,230a1.69,1.69,0,0,0-2,.71,1.51,1.51,0,0,0,.29,1.68.55.55,0,0,0,0,.46c.17.3,1,.46,1.26.14a1.13,1.13,0,0,0,.22-.48,1.91,1.91,0,0,0,1-.72A1.46,1.46,0,0,0,25.32,230Z"/><path class="cls-3" d="M39.43,234.8l.09-.18a1.59,1.59,0,0,0-.81-1.72c-.67-.29-1.4.12-1.76,1a1.25,1.25,0,0,0,0,1l0,0a1.22,1.22,0,0,0-.18,1.1h2.87A1.93,1.93,0,0,0,39.43,234.8Z"/><path class="cls-3" d="M59.64,220.61c-.09.13-.26.47-.08.61s.48-.08.51-.17.2-.35,0-.51A.27.27,0,0,0,59.64,220.61Z"/><path class="cls-3" d="M63.59,229.09c.23.39.5.77,1,.65a.7.7,0,0,0,.54-.87,1,1,0,0,0-.55-.62C64,228.16,63.76,228.56,63.59,229.09Z"/><path class="cls-3" d="M69.51,230.23a1.1,1.1,0,0,0-1.55.19,1.29,1.29,0,0,0-.12,1.07.74.74,0,0,0-.62.5.73.73,0,0,0,.25.83.61.61,0,0,0-.45.51.91.91,0,0,0,.16.73c.45.42.89.2,1.35-.23a2,2,0,0,0-.34-.87c.32-.15.58-.34.51-.79a.52.52,0,0,0-.06-.16,1.87,1.87,0,0,0,1.21-.74A.77.77,0,0,0,69.51,230.23Z"/><path class="cls-3" d="M68.15,228.36a1.38,1.38,0,0,0-.23-1.78,1.43,1.43,0,0,0-1.83.45,1,1,0,0,0,.35,1.34A1.44,1.44,0,0,0,68.15,228.36Z"/><path class="cls-3" d="M32.15,223.64a1.49,1.49,0,0,0-1.75,1.05,1.05,1.05,0,0,0,.68,1.4,1.34,1.34,0,1,0,1.07-2.45Z"/><path class="cls-3" d="M29.48,227.29a.46.46,0,0,0,.53-.07.44.44,0,0,0-.12-.51c-.1-.09-.53-.18-.63,0S29.36,227.22,29.48,227.29Z"/><path class="cls-3" d="M31,216.51a1.24,1.24,0,0,0-1.49.33c-.24.41.1,1.06.74,1.4a.9.9,0,0,0,1.07-.37A1.09,1.09,0,0,0,31,216.51Z"/><path class="cls-3" d="M35.77,220.49a.94.94,0,0,0-.73.19c-.41.45-.18.88.27,1.33.47-.15,1-.17,1-.76A.68.68,0,0,0,35.77,220.49Z"/><path class="cls-3" d="M35.89,235.76a1,1,0,0,0-1.2.3h1.45A.65.65,0,0,0,35.89,235.76Z"/><path class="cls-3" d="M32.74,235.13c-.32-.19-.78-.09-.84.23a1.45,1.45,0,0,0-.06.7h1l.18-.19C33.27,235.58,33,235.3,32.74,235.13Z"/><path class="cls-3" d="M15,226.43a.6.6,0,0,0,.13.82,7.15,7.15,0,0,0,.88.54,2.42,2.42,0,0,0,0,.47,1.64,1.64,0,0,0,.33,1,1.72,1.72,0,0,0,1.29.6c.56.05.93.5,1.46.32a2.34,2.34,0,0,0,1.66-2.29,1.87,1.87,0,0,0-.8-1.63c-.55-.36-1.2.18-1.88,0h0a6.15,6.15,0,0,0-1.41-.69A1.52,1.52,0,0,0,15,226.43Z"/><path class="cls-3" d="M5.2,181.15a1.42,1.42,0,0,0-1.72.78,1.84,1.84,0,0,0,1.09,1.9,1.44,1.44,0,0,0,1.58-1.06A1.41,1.41,0,0,0,5.2,181.15Z"/><path class="cls-3" d="M6.13,192.74c-.06-.24-.29-.66-.49-.63a.78.78,0,0,0-.52.48c0,.18.22.71.43.73S6.16,192.85,6.13,192.74Z"/><path class="cls-3" d="M2.11,177.64v2a1.11,1.11,0,0,0,.67-.71A1.39,1.39,0,0,0,2.11,177.64Z"/><path class="cls-3" d="M5.05,179c.09-.26,0-.56-.38-.52s-.85.13-.89.41.57.57.79.59S5,179.18,5.05,179Z"/><path class="cls-3" d="M4.1,199.36a1.24,1.24,0,0,0,1,1.53,1.56,1.56,0,0,0,1.73-1.14,1.64,1.64,0,0,0-1.14-1.65C5,197.92,4.31,198.45,4.1,199.36Z"/><path class="cls-3" d="M115.64,235.1c-.09-.28-.46-.26-.7,0a1.16,1.16,0,0,0-.34.88.51.51,0,0,0,0,.1h.7a1.48,1.48,0,0,0,.15-.31C115.58,235.53,115.71,235.34,115.64,235.1Z"/><path class="cls-3" d="M118.79,236.06h.79a.61.61,0,0,0-.07-.1C119.39,235.86,119.05,235.91,118.79,236.06Z"/><path class="cls-3" d="M6.7,193.81c-.09.59.28,1,1,1.06a1,1,0,0,0,1-.74c.08-.47-.52-1.45-.9-1.49S6.79,193.16,6.7,193.81Z"/><path class="cls-3" d="M2.11,175.26a1,1,0,0,0,.15-.38.63.63,0,0,0-.15-.48Z"/><path class="cls-3" d="M119.59,230.69a.42.42,0,0,0-.26-.65c-.33-.13-.68-.15-.88.24a.83.83,0,0,0,.3,1C119,231.39,119.41,231.1,119.59,230.69Z"/><path class="cls-3" d="M117.92,234.59c.19-.27-.15-1.05-.46-1.05a.86.86,0,0,0-.7.38.62.62,0,0,0,.27.94A.67.67,0,0,0,117.92,234.59Z"/><path class="cls-3" d="M15.41,195.76c0,.24.14.86.34.89s.62-.41.74-.63-.07-.59-.47-.7A.44.44,0,0,0,15.41,195.76Z"/><path class="cls-3" d="M15.16,189.21c-.12,0-.54,0-.57.21s.28.44.41.46a.44.44,0,0,0,.45-.25C15.49,189.45,15.29,189.26,15.16,189.21Z"/><path class="cls-3" d="M17.31,217.71c.08.44.42.55,1.27.48.13-.42.44-.86-.07-1.24a.71.71,0,0,0-1,.06A.92.92,0,0,0,17.31,217.71Z"/><path class="cls-3" d="M7.16,184.86a1.25,1.25,0,0,0,.76,1.36.86.86,0,0,0,1-.59,1.08,1.08,0,0,0-.8-1.21A.73.73,0,0,0,7.16,184.86Z"/><path class="cls-3" d="M13.29,202.74a1.57,1.57,0,0,0,.89,1.87,1.41,1.41,0,0,0,1.14-.08c0,.18.12.35.23.39s.51-.17.58-.33a.86.86,0,0,0-.08-.56,1.29,1.29,0,0,0,.32-.55c.14-.62-.63-.9-1.07-.75s-.3.05-.66-.26A.79.79,0,0,0,13.29,202.74Z"/><path class="cls-3" d="M68.7,235.11a1.69,1.69,0,0,0-2,.39,1.77,1.77,0,0,0-.22.56h2.93A1.56,1.56,0,0,0,68.7,235.11Z"/><path class="cls-3" d="M8.24,176.6c0,.27.17,1,.44,1s.63-.54.75-.79-.22-.64-.56-.66S8.22,176.25,8.24,176.6Z"/><path class="cls-3" d="M8.41,172a.82.82,0,0,0-1,.53.82.82,0,0,0,.54.84.94.94,0,0,0,1-.55A.73.73,0,0,0,8.41,172Z"/><path class="cls-3" d="M9.77,182.05a1.25,1.25,0,0,0,1.07,1.24c.64.1,1.09-.31,1.18-1a1,1,0,0,0-.93-1.27A1.2,1.2,0,0,0,9.77,182.05Z"/><path class="cls-3" d="M86.9,235.05a1.07,1.07,0,0,0-1.26-.05,2.9,2.9,0,0,0-1,1.06h2.66a.11.11,0,0,1,0-.05A.74.74,0,0,0,86.9,235.05Z"/><path class="cls-3" d="M16,222.84a1.05,1.05,0,0,0,.15-.9.85.85,0,0,0-.69-.43.9.9,0,0,0-.75,1.16A.78.78,0,0,0,16,222.84Z"/><path class="cls-3" d="M17,219.72c-.15-.33-.4-.35-1-.08a.71.71,0,0,0-.24-.3.82.82,0,0,0-.85,1.38.81.81,0,0,0,1.07-.21s0-.07,0-.11a.71.71,0,0,0,.64.18A.73.73,0,0,0,17,219.72Z"/><path class="cls-3" d="M15.11,227.47c-.28-.12-.59-.19-.79.16a.82.82,0,0,0,.42,1.06,2.26,2.26,0,0,0,.66-.49C15.61,227.91,15.43,227.6,15.11,227.47Z"/><path class="cls-3" d="M11.08,227a.28.28,0,0,0-.45.11.28.28,0,0,0,.09.44.3.3,0,0,0,.47-.09A.29.29,0,0,0,11.08,227Z"/><path class="cls-3" d="M10.85,230.2a1.27,1.27,0,0,0,1.26,1,1.09,1.09,0,0,0,.72-.43,1.54,1.54,0,0,0,.25-.65,1.23,1.23,0,0,0,.28-.33,1,1,0,0,0-.47-1.44c-.56-.29-1.11-.19-1.32.24a1.3,1.3,0,0,0-.09.41A1.14,1.14,0,0,0,10.85,230.2Z"/><path class="cls-3" d="M14.05,217.21c-.06.14-.18.51,0,.61s.45-.15.47-.24.13-.39-.09-.51A.28.28,0,0,0,14.05,217.21Z"/><path class="cls-3" d="M8.68,211.45c.13,0,.38-.28.44-.42s-.14-.35-.21-.34a.57.57,0,0,0-.44.22C8.43,211,8.56,211.43,8.68,211.45Z"/><path class="cls-3" d="M8,203.44H7.88l0,0a.5.5,0,0,0-.79,0c-.23.29-.2.85.12.95l.32.07a1.25,1.25,0,0,0,.34.12c.32.05.52-.08.55-.39S8.38,203.54,8,203.44Z"/><path class="cls-3" d="M6.36,196.66c0,.33-.06.77.25,1s.61-.15.65-.3.15-1-.09-1.19S6.36,196.54,6.36,196.66Z"/><path class="cls-3" d="M8.1,212.14a.83.83,0,0,0,.24,1.15.77.77,0,0,0,1-.38.71.71,0,0,0-.21-1A.68.68,0,0,0,8.1,212.14Z"/><path class="cls-3" d="M13.49,222.32c-.16.12-.55.06-.43-.12s.06-.45-.39-.76l-.25-.14c0-.06,0-.12,0-.19a1.09,1.09,0,0,1,.19-.59,1,1,0,0,0-.28-1.64.5.5,0,0,0,.2-.21.87.87,0,0,0-.5-1,.89.89,0,0,0-1.25.25.75.75,0,0,0,.37,1h0a1.39,1.39,0,0,0-.4.65,1.43,1.43,0,0,1-.57.89,1.61,1.61,0,0,0-.57,1.44,1.36,1.36,0,0,0,.95,1.18l.14,0a1.34,1.34,0,0,0-.77.58c-.22.43,0,.95.63,1.3a1.1,1.1,0,0,0,1.36-.18,1.42,1.42,0,0,0-.33-1.65.67.67,0,0,0-.21-.09.37.37,0,0,0,.12-.07.51.51,0,0,0,.13.16c.5.44.82.22,1.12.53s.57.24,1,0,1-.6.64-1.14S13.64,222.2,13.49,222.32Z"/><path class="cls-3" d="M17.27,230.7a.71.71,0,0,0-.95.29.34.34,0,0,0-.05.14,1.17,1.17,0,0,0-.43-.59,1.8,1.8,0,0,0-2.15.46,1.4,1.4,0,0,0,.3,1.82,1.58,1.58,0,0,0,.63.34l-.21.11c-1,.57-.21,1.44-.94,1.57s-.55-.53-1.42-.37c-.05,0-.09-.06-.15-.08-1.08-.32-1.33-.06-1.86.9a1,1,0,0,0-.06.77h4a.27.27,0,0,1,.09-.12l.1,0a.88.88,0,0,0,.05.15h2.1v-.12a.73.73,0,0,0-.35-.6,1.13,1.13,0,0,0,.37-1.59,1.51,1.51,0,0,0-.84-.67,1.17,1.17,0,0,0,.46-.43,2.12,2.12,0,0,0,.34-1.05.42.42,0,0,0,.27.21.92.92,0,0,0,.76-.08C17.53,231.6,17.57,230.87,17.27,230.7Z"/><path class="cls-3" d="M4.85,205.06a.74.74,0,0,0-1,.38.76.76,0,0,0,.31,1.1.94.94,0,0,0,1.1-.45A.84.84,0,0,0,4.85,205.06Z"/><path class="cls-3" d="M7.66,235.37a1.59,1.59,0,0,0-1.84.69H8.38A1.6,1.6,0,0,0,7.66,235.37Z"/><path class="cls-3" d="M18.54,231a1.22,1.22,0,0,0,.16.88c.18.24.79,0,.9-.29a1.62,1.62,0,0,0-.06-.65C19.05,230.66,18.6,230.71,18.54,231Z"/><path class="cls-3" d="M71.51,226.43a1.21,1.21,0,0,0,0,1.42,1.38,1.38,0,0,0,1.69-.26,1.25,1.25,0,0,0-.35-1.57C72.41,225.68,72,225.81,71.51,226.43Z"/><path class="cls-3" d="M5.34,235.45c-.42-.24-1.35-.82-2-.39-.45.32-.25.66-.16,1H5.7A.85.85,0,0,0,5.34,235.45Z"/><path class="cls-3" d="M2.11,236.06h.8a.83.83,0,0,0-.1-1.06,1.7,1.7,0,0,0-.7.1Z"/><path class="cls-3" d="M8.79,230a1,1,0,0,0-1.31.63c-.29.62-.14,1,.56,1.28s1.14.17,1.33-.29A1.77,1.77,0,0,0,8.79,230Z"/><path class="cls-3" d="M2.11,197.53a1.37,1.37,0,0,0,.53-1.63,1.13,1.13,0,0,0-.53-.41Z"/><path class="cls-3" d="M62.43,236.06h.76l-.28-.07A1,1,0,0,0,62.43,236.06Z"/><path class="cls-3" d="M3.72,199.36a1,1,0,0,0-.25-1.42,1.48,1.48,0,0,0-1.36.14v1.72H2.2l.06.05A1,1,0,0,0,3.72,199.36Z"/><path class="cls-3" d="M2.57,192.75a.77.77,0,0,0-.12,1,.58.58,0,0,0,.74.32c.55-.17.6-.61.6-1.15C3.35,192.69,3,192.35,2.57,192.75Z"/><path class="cls-3" d="M2.8,210a.84.84,0,0,0-.69-.07v1.42a.67.67,0,0,0,.85-.28A.74.74,0,0,0,2.8,210Z"/><path class="cls-3" d="M9.13,232.39c-.33-.19-1,.1-1.26.58A1,1,0,0,0,8,234.32a1.26,1.26,0,0,0,1.49-.21A1.35,1.35,0,0,0,9.13,232.39Z"/><path class="cls-3" d="M4.65,202a.73.73,0,0,0-1.06.21.79.79,0,0,0-.07.65.5.5,0,0,0-.14.28.66.66,0,0,0,.45.77c.3.11,1-.38.88-.68h0a.76.76,0,0,0,.21-.19A.76.76,0,0,0,4.65,202Z"/><path class="cls-3" d="M88.33,233.57a1,1,0,0,0,.5,1.33.65.65,0,0,0,.88-.3.83.83,0,0,0,0-1A.93.93,0,0,0,88.33,233.57Z"/><path class="cls-3" d="M7.22,229.56a1.27,1.27,0,0,0,1.7-.35,1.67,1.67,0,0,0-.25-2.13,1.73,1.73,0,0,0-2.08.54A1.61,1.61,0,0,0,7.22,229.56Z"/><path class="cls-3" d="M86.23,227.18c.08-.24-.39-1-1-1a.77.77,0,0,0-.76.72.75.75,0,0,0,.48.92A1.17,1.17,0,0,0,86.23,227.18Z"/><path class="cls-3" d="M95.27,232.82a.9.9,0,0,0,.09.74.66.66,0,0,0,.58.22c.48-.16.56-.55.43-1.05C96,232.58,95.57,232.37,95.27,232.82Z"/><path class="cls-3" d="M88.1,228.81a.71.71,0,0,0-.9.46.94.94,0,0,0,.64,1.11,2.37,2.37,0,0,0,.76-.5C88.86,229.53,88.56,229,88.1,228.81Z"/><path class="cls-3" d="M77.83,234c-.39-.2-.72-.11-.81.29s-.32.9.12,1.11.79-.34,1-.56S78.19,234.21,77.83,234Z"/><path class="cls-3" d="M72.68,228.2c-.28-.14-.68-.15-.77.22a.9.9,0,0,0,.22.79c.22.11.58-.06.78-.09C73.17,228.59,73,228.34,72.68,228.2Z"/><path class="cls-3" d="M95.19,227.43a1.49,1.49,0,0,0,.36,1.94,1.93,1.93,0,0,0,2.2-.63,1.52,1.52,0,0,0-.67-1.87A1.48,1.48,0,0,0,95.19,227.43Z"/><path class="cls-3" d="M85.36,231.75a.85.85,0,0,0,1-.45.91.91,0,0,0-.47-1,.78.78,0,0,0-1,.4A.85.85,0,0,0,85.36,231.75Z"/><path class="cls-3" d="M109.23,227.13a1.85,1.85,0,0,0-1.74.54c-.18.48.26,1.19.9,1.45s1,0,1.32-.76A1.09,1.09,0,0,0,109.23,227.13Z"/><path class="cls-3" d="M106.38,219.21a.45.45,0,0,0-.5.18c-.07.12-.1.55.07.64s.51-.18.56-.3A.45.45,0,0,0,106.38,219.21Z"/><path class="cls-3" d="M2.11,189.92v1.72c.53.05.84-.12.91-.54a1,1,0,0,0-.7-1.22A1,1,0,0,0,2.11,189.92Z"/><path class="cls-3" d="M109.47,233.75a1.47,1.47,0,0,0-.76,1.87,1.88,1.88,0,0,0,.3.44h1.78a2.37,2.37,0,0,0,.21-1.3A1.43,1.43,0,0,0,109.47,233.75Z"/><path class="cls-3" d="M107,223.44c-.29-.17-.59,0-.7.35s-.08.68.28.76,1,.06,1.12-.22S107.22,223.58,107,223.44Z"/><path class="cls-3" d="M98.46,235a1,1,0,0,0,1.2-.28c.38-.7.32-1.43-.14-1.67a1.31,1.31,0,0,0-1.54.52A1.18,1.18,0,0,0,98.46,235Z"/><path class="cls-3" d="M100.23,235.35a1.89,1.89,0,0,0-.71,0,6,6,0,0,0-.71.15,1.41,1.41,0,0,0-.88.54h3.54a1.61,1.61,0,0,0-.24-.28A2.44,2.44,0,0,0,100.23,235.35Z"/><path class="cls-3" d="M104.57,226.4a.87.87,0,0,0,.4,1,.9.9,0,0,0,1.11-.47.73.73,0,0,0-.38-.95A.79.79,0,0,0,104.57,226.4Z"/><path class="cls-3" d="M103.12,224.36a.22.22,0,0,0,.11.31.24.24,0,0,0,.29-.14c0-.07-.08-.23-.14-.25S103.16,224.27,103.12,224.36Z"/><path class="cls-3" d="M107,234.81c-.6-.49-1.49-.58-1.72.07a2.07,2.07,0,0,0,0,1.18h2.25C107.39,235.66,107.45,235.18,107,234.81Z"/><polygon class="cls-4" points="119.01 192.06 167.93 228.07 167.93 156.05 119.01 192.06"/><circle class="cls-5" cx="66.03" cy="184.98" r="27.56"/><polygon class="cls-6" points="81.78 184.93 58.15 171.29 58.15 198.57 81.78 184.93"/><polygon class="cls-7" points="307.84 3.78 96.78 3.78 96.78 141.56 132.29 141.56 132.29 183.22 189.91 141.56 307.84 141.56 307.84 3.78"/><polygon class="cls-8" points="301.4 120.05 103.5 121.48 103.05 56.84 301.36 55.41 301.4 120.05"/><path class="cls-9" d="M132.4,101c8.76-3,18-5.79,24.6-12.63,3.46-3.59,9.6-12.06,7-17.62s-8.06.72-9.69,3.73c-5.08,9.45-3.94,21.48-4.25,31.81a1.6,1.6,0,0,0,1.62,1.58,1.65,1.65,0,0,0,.38-.05,88.51,88.51,0,0,0,22.56-13.09L172,93.19a15,15,0,0,0-.68,9.48,1.59,1.59,0,0,0,2,1.09,1.28,1.28,0,0,0,.34-.14,110.14,110.14,0,0,0,27.74-20.73l-2.65-.69A102.19,102.19,0,0,0,208.77,101c2.17,3.14,4.87,8.06,8.95,9,5.25,1.17,9.71-4.25,13.09-7.34l19.43-17.7-2.69-1.12C247.16,92,250.38,103.18,261,100c1.94-.58,1.12-3.64-.84-3-9.69,2.93-9.65-7.93-9.41-13.15A1.61,1.61,0,0,0,249,82.23a1.56,1.56,0,0,0-1,.42c-7.23,6.6-14.34,14.73-22.34,20.36-9.14,6.41-12.12-.28-16.21-6.72a97.39,97.39,0,0,1-7.66-14.89,1.62,1.62,0,0,0-2-1.06,1.58,1.58,0,0,0-.62.37,108,108,0,0,1-27.09,20.23l2.33,1a10.31,10.31,0,0,1,.67-7.8c.63-1.65-1.56-2.4-2.64-1.54a83.23,83.23,0,0,1-21.17,12.26l2,1.54c.2-7.1-.2-14.42,1.12-21.46a29.27,29.27,0,0,1,3.11-9.45c2.51-4.25,4.18-2.27,2.93,1.79-3.9,12.6-17.7,17-28.84,20.77-1.93.66-1.11,3.71.84,3Z"/><path class="cls-10" d="M174.31,41.8h-5.49V33.56h-6.34V41.8H157l-.15-20.23h5.5v7.49h6.36v-7.5h5.49Z"/><path class="cls-10" d="M193,41.68l-12,.08-.14-20.23,12-.09v4.39h-6.54V29h6.06v4.38h-6.06v3.82h6.54Z"/><path class="cls-10" d="M198.77,41.68l-.13-20.28h5.48l.1,15.81H212v4.41Z"/><path class="cls-10" d="M217.51,41.49l-.14-20.22h5.46L223,37.09h7.78v4.42Z"/><path class="cls-10" d="M255.12,31.09a10.85,10.85,0,0,1-2.45,7.75,11.36,11.36,0,0,1-14.63.08,10.87,10.87,0,0,1-2.6-7.74,10.87,10.87,0,0,1,2.49-7.74,11.49,11.49,0,0,1,14.63-.1A11,11,0,0,1,255.12,31.09Zm-13.91.1q0,5.86,4.12,5.83a3.48,3.48,0,0,0,3.07-1.42,7.79,7.79,0,0,0,1-4.44,7.7,7.7,0,0,0-1.05-4.47,3.46,3.46,0,0,0-3-1.42C242.56,25.27,241.21,27.25,241.21,31.19Z"/><rect class="cls-11" x="0.74" y="31.65" width="52.24" height="16.38" rx="7.33"/><circle class="cls-12" cx="192.38" cy="170.08" r="8.12"/><circle class="cls-2" cx="223.11" cy="228.34" r="8.12"/><circle class="cls-13" cx="69.93" cy="39.7" r="7.62"/><circle class="cls-9" cx="69.93" cy="14.69" r="7.62"/><path class="cls-2" d="M307.84,130V114.91A15.74,15.74,0,1,0,292.1,99.17H277A30.83,30.83,0,1,1,307.84,130Z"/><path class="cls-5" d="M307.84,130a30.83,30.83,0,1,1,0-61.65V83.44a15.74,15.74,0,1,0,15.73,15.73h15.09A30.86,30.86,0,0,1,307.84,130Z"/><circle class="cls-9" cx="117.25" cy="222.26" r="7.85"/><circle class="cls-14" cx="90.58" cy="222.26" r="7.85"/><rect class="cls-11" x="167.78" y="203.91" width="49.2" height="16.24" rx="7.27" transform="translate(404.42 19.65) rotate(90)"/><rect class="cls-13" x="317.89" y="178.38" width="14.65" height="17.67" rx="6.19" transform="translate(512.43 -138) rotate(90)"/><rect class="cls-13" x="230.31" y="175.82" width="96.79" height="25.94"/><rect class="cls-15" x="230.31" y="188.75" width="96.79" height="13.01"/><polygon class="cls-9" points="212.3 188.79 230.34 201.77 230.34 175.82 212.3 188.79"/><path class="cls-16" d="M271.74,168.73H321.1a6,6,0,0,1,6,6v1.1a0,0,0,0,1,0,0H271.74a0,0,0,0,1,0,0v-7.09A0,0,0,0,1,271.74,168.73Z"/><rect class="cls-16" x="317.56" y="175.82" width="9.53" height="25.94"/><path class="cls-12" d="M107.05,61.85H28.75A8.67,8.67,0,0,0,20,70.42v36.92a8.67,8.67,0,0,0,8.76,8.58H58.84l9.06,15.35L77,115.92h30.09a8.67,8.67,0,0,0,8.76-8.58V70.42A8.67,8.67,0,0,0,107.05,61.85Z"/><path class="cls-17" d="M84.51,76h0a11.33,11.33,0,0,0-16,0l-.61.61L67.29,76a11.31,11.31,0,0,0-16,16l16.59,16.58,0,0,0,0L84.51,92A11.31,11.31,0,0,0,84.51,76Z"/><path class="cls-18" d="M67.92,108.57,84.51,92a11.31,11.31,0,0,0,0-16h0a11.33,11.33,0,0,0-16,0l-.61.61v32Z"/><path class="cls-19" d="M115.64,130.64a1.32,1.32,0,0,0-.92-1.47c-.63-.17-1.36.4-1.57,1.23a1,1,0,0,0,0,.3h0a1.83,1.83,0,0,0-.81,2,1.43,1.43,0,0,0,1.8.58,1.41,1.41,0,0,0,.71-1.66A1.33,1.33,0,0,0,115.64,130.64Z"/><path class="cls-19" d="M111,127.89a1.21,1.21,0,0,0-.75-1.36c-.53-.19-.93.07-1.17.76a1.17,1.17,0,0,0,.42,1.31h0c0,.34.18.59.57.75.34-.2.74-.39.57-.88a.47.47,0,0,0-.06-.09A1,1,0,0,0,111,127.89Z"/><path class="cls-19" d="M106.63,133.65c0,.52.41.69.86.9a2.31,2.31,0,0,0,.58-.59,1.54,1.54,0,0,0,1.37,1.14c.63,0,.81-.32.83-1.6.5-.05,1,0,1-.69a.77.77,0,0,0-.55-.83.54.54,0,0,0-.47,0c-.25.26-.45.58-.7.9-.75,0-1.29.3-1.46.7a.58.58,0,0,0-.07-.21.55.55,0,0,0-.09-.14,1.76,1.76,0,0,0,.92-1,.74.74,0,0,0-.61-.87h-.07a1.3,1.3,0,0,0,.3-1.3,1.13,1.13,0,0,0-1.36-.47,1,1,0,0,0-.49,1.07,1.7,1.7,0,0,0,.67.8.8.8,0,0,0-.44.51,1.28,1.28,0,0,0,.19,1A.7.7,0,0,0,106.63,133.65Z"/><path class="cls-19" d="M121.54,124.77a.75.75,0,0,0-.1-1,.73.73,0,0,0-1-.17,1.13,1.13,0,0,0-.27,1.35A1.08,1.08,0,0,0,121.54,124.77Z"/><path class="cls-19" d="M119.47,133.49c1.2.74,1.88.3,2-1.21a1.23,1.23,0,0,1,.26-.12c.41-.1.5-.39.5-.76a.7.7,0,0,0-.48-.68c-.67-.34-1-.26-1.33.35a.27.27,0,0,0-.16.08c-.21.18-.65.72-.5.95a.24.24,0,0,0,.14.09c-.11.24-.21.49-.32.72-1.07-.38-1.18-.31-1.31.65C118.65,134,119.05,133.9,119.47,133.49Z"/><path class="cls-19" d="M100,124.66c.28-.7.6-1.38.89-2.06a.62.62,0,0,0,.57.05h0c1.07.28,1.2.07,1.29-1a1.15,1.15,0,0,0-1.52-.1.62.62,0,0,0-.47.12c-1.64-.79-2.52-.19-2.49,1.67a1.53,1.53,0,0,1-.37.16c-.57.14-.68.52-.65,1s.31.68.75.87C99.14,125.81,99.64,125.64,100,124.66Z"/><path class="cls-19" d="M118.06,122.89a.75.75,0,0,0,.3-1,.83.83,0,0,0-1.11-.26.8.8,0,0,0-.24,1A.84.84,0,0,0,118.06,122.89Z"/><path class="cls-19" d="M96.78,136.76v1.83h0a1.09,1.09,0,0,0,.58-1.31A.6.6,0,0,0,96.78,136.76Z"/><path class="cls-19" d="M96.78,129.15a.93.93,0,0,1,.1-.2c.22,0,.51.1.67,0a1.36,1.36,0,0,0,.57-.71c.07-.37-.24-.57-.61-.63l-.73-.16Z"/><path class="cls-19" d="M98.34,119.47a1.76,1.76,0,0,0-.78-1.88,2.61,2.61,0,0,0-.78-.25v4.83a1.44,1.44,0,0,0,.56-.53c.24-.53-.31-1-.26-1.17S98.06,120.14,98.34,119.47Z"/><path class="cls-19" d="M109.11,123c-.44,0-.52-.21-.7-.48a.88.88,0,0,0-1.23-.15c-.38.29-.3.59-.07.9a1.91,1.91,0,0,1,.42.74c.08.61.08,1.24.12,1.9-1.4.64-1.57,1.13-.7,2.19a1,1,0,0,0,1.7-.06,8.69,8.69,0,0,0,.66-1.75c.67-.14,1.44-.37,1.63-1.17A1.88,1.88,0,0,0,109.11,123Z"/><path class="cls-19" d="M103.93,125.6c.11.28.92.36,1.25-.13a.63.63,0,0,0,.08-.3.78.78,0,0,0,.26-.66,1.15,1.15,0,0,0-.7-1.12.87.87,0,0,0-.74,0,.53.53,0,0,0-.25-.5,1.18,1.18,0,0,0-.87-.2c-.62.22-.38.78-.39,1.31a2.41,2.41,0,0,0,.73.16c-.07.12-.14.25-.22.37s-.33,0-.49,0a1.79,1.79,0,0,0-.61.25,3.7,3.7,0,0,0-.46-.24c-.33.21-.6.39-.88.54a1.18,1.18,0,0,0-.48,1.43c.15.34.73.62,1,.42l.37-.27a2.22,2.22,0,0,0,.46.56.88.88,0,0,0,.65.17,1.38,1.38,0,0,0,1.22-1.53c0-.16,0-.33,0-.5h0A1.05,1.05,0,0,0,103.93,125.6Z"/><path class="cls-19" d="M117.57,127.22c.44-.2.92-.28.89-.86a.63.63,0,0,0-.63-.66.89.89,0,0,0-.68.26C116.81,126.45,117.09,126.84,117.57,127.22Z"/><path class="cls-19" d="M136.52,161.53c.13,0,.41,0,.47-.2s-.12-.4-.24-.45-.55,0-.6.15S136.39,161.5,136.52,161.53Z"/><path class="cls-19" d="M135.7,147c0,.15-.12.46.11.58s.44-.17.45-.25a.67.67,0,0,0-.18-.46S135.72,146.91,135.7,147Z"/><path class="cls-19" d="M138.69,160.08a1.53,1.53,0,0,0-.34-2.11.11.11,0,0,0,.08,0,.25.25,0,0,0,0-.32c0-.06-.23-.05-.28,0a.24.24,0,0,0-.07.25,2,2,0,0,0-1.9.64,1.25,1.25,0,0,0,.32,1.8A1.37,1.37,0,0,0,138.69,160.08Z"/><path class="cls-19" d="M136.65,146.13a.85.85,0,0,0,0,.81c.18.16.57.08.77.09.36-.45.22-.74,0-.94S136.82,145.79,136.65,146.13Z"/><path class="cls-19" d="M136.06,140c-.55-.06-.53.45-.73.63-.53.47-.59,1.44-.11,1.76a1.11,1.11,0,0,0,1.32,0,.87.87,0,0,0,.33-1.15C136.72,140.85,136.62,140.05,136.06,140Z"/><path class="cls-19" d="M116.77,125.16c.12.4.7.5,1.1.25a.68.68,0,0,0,.18-1,.89.89,0,0,0-1.21-.16A2.33,2.33,0,0,0,116.77,125.16Z"/><path class="cls-19" d="M136.62,168.4c.2,0,.65-.35.8-.56s0-.6-.4-.75a.45.45,0,0,0-.66.39C136.32,167.72,136.41,168.35,136.62,168.4Z"/><path class="cls-19" d="M125.55,123.35a1.13,1.13,0,0,0,.25-1.42,1,1,0,0,0-1.38-.31c-.48.25-.62.61-.41,1C124.31,123.25,125.1,123.61,125.55,123.35Z"/><path class="cls-19" d="M123.23,129.67c-.24,0-.66.15-.72.33s.13.55.19.74c.54.16.75-.07.85-.36S123.6,129.71,123.23,129.67Z"/><path class="cls-19" d="M123.88,128.47a.81.81,0,0,0-1-.41.79.79,0,0,0-.33.93.94.94,0,0,0,1,.42A.74.74,0,0,0,123.88,128.47Z"/><path class="cls-19" d="M141.45,161a.76.76,0,0,0,.26-1.38.88.88,0,0,0-1.12.06,1.54,1.54,0,0,0-1,.16,1.11,1.11,0,0,0-.06,1.48,1,1,0,0,0,1.52.22A1.32,1.32,0,0,0,141.45,161Z"/><path class="cls-19" d="M106.29,139.43c.15-.19.33-.63.19-.77a.75.75,0,0,0-.69-.1c-.16.08-.42.6-.31.77S106.22,139.52,106.29,139.43Z"/><path class="cls-19" d="M102.49,60.23c.17-.25.11-.62-.15-.69s-.64-.23-.78.1.16.65.32.8S102.34,60.45,102.49,60.23Z"/><path class="cls-19" d="M112.17,124.18a.86.86,0,0,0,.93-.38.65.65,0,0,0,.28,0,.89.89,0,0,0,.77-1,1,1,0,0,0-1.3-.4l-.08.06s0,0-.07,0a1.22,1.22,0,0,0-1.4.5C111.12,123.35,111.52,123.94,112.17,124.18Z"/><path class="cls-19" d="M111.43,121.5l.15-.07h-1.09C110.71,121.66,111,121.69,111.43,121.5Z"/><path class="cls-19" d="M100.83,59.19a.69.69,0,0,0,.58-.11c.21-.17.07-.67-.21-.75a1.15,1.15,0,0,0-.47,0C100.5,58.75,100.57,59.12,100.83,59.19Z"/><path class="cls-19" d="M99.86,117.57c-.76.67-.71.88.22,1.22.19.49.24.92.48,1.15a2,2,0,0,0,1,.41c.46.06.77-.4.65-1-.07-.34-.21-.79-.46-.92a3.19,3.19,0,0,0-1.23-.1C100.5,118,100.41,117.59,99.86,117.57Z"/><path class="cls-19" d="M103.55,54.13a.59.59,0,0,0-.18-.86.54.54,0,0,0-.79.1c-.23.33-.22.91,0,1.07S103.36,54.38,103.55,54.13Z"/><path class="cls-19" d="M98.77,61.85h1.42a.82.82,0,0,0-.14-1,1.12,1.12,0,0,0-1.28.27A.86.86,0,0,0,98.77,61.85Z"/><path class="cls-19" d="M97,141.23a.5.5,0,0,0-.23,0v.38h.54A.83.83,0,0,0,97,141.23Z"/><path class="cls-19" d="M97.3,55.67a.74.74,0,0,0,0-.24.25.25,0,0,0-.19,0c0,.08-.08.2,0,.26S97.21,55.68,97.3,55.67Z"/><path class="cls-19" d="M98.63,59.14a.48.48,0,0,0-.2-.71.39.39,0,0,0-.61.2c-.09.18-.27.69,0,.81S98.51,59.3,98.63,59.14Z"/><path class="cls-19" d="M98.69,55.37c.23-.25-.06-.7-.08-1l-.19-.06a.58.58,0,0,0-.59.39.85.85,0,0,0-.12.53C98,55.27,98.45,55.62,98.69,55.37Z"/><path class="cls-19" d="M115.55,126.71a1.1,1.1,0,0,0-1.4-.26c-.65.35-.84.75-.59,1.25a1.27,1.27,0,0,0,1.51.58A1.38,1.38,0,0,0,115.55,126.71Z"/><path class="cls-19" d="M100.8,129.83c.44-.19.55-.9.24-1.5s-.67-.64-1.32-.3a.93.93,0,0,0-.41,1.25A1.8,1.8,0,0,0,100.8,129.83Z"/><path class="cls-19" d="M106.56,129.58c.3-.7.2-1.17-.31-1.48a1.18,1.18,0,0,0-1.63.38,13,13,0,0,1-1.37,1.74,1.56,1.56,0,0,0-.45.81,1.13,1.13,0,0,0-.35.91c.33.3.68.59,1.13.32a.66.66,0,0,0,.35-.64s0,0,0,0c.28-.47.64-.28,1-.35a2.3,2.3,0,0,0,.9-.5,1.17,1.17,0,0,0,.31-.41.63.63,0,0,0,.32-.33,1,1,0,0,0,.06-.42Z"/><path class="cls-19" d="M106.2,122c-.24-.42-.85-.65-1.16-.39a1,1,0,0,0-.33,1.21.9.9,0,0,0,1.3.25A.77.77,0,0,0,106.2,122Z"/><path class="cls-19" d="M101.92,117.82a1.27,1.27,0,0,0,.66-1.48c-.2-.41-.83-.5-1.5-.23a.92.92,0,0,0-.39,1.1A1.17,1.17,0,0,0,101.92,117.82Z"/><path class="cls-19" d="M99.38,128.07a.7.7,0,0,0,.23-.87c-.2-.33-.46-.3-1.13.14A.67.67,0,0,0,99.38,128.07Z"/><path class="cls-19" d="M103.06,58.3h0s0,0,0,0Z"/><path class="cls-19" d="M105.66,136a.93.93,0,0,0,.52-1.3,1.64,1.64,0,0,0-1.44-.33c-.39.18-.44.58-.16,1.1S105.24,136.22,105.66,136Z"/><path class="cls-19" d="M138.65,148.6a.63.63,0,0,0-.2.23,1.32,1.32,0,0,1,0-.28c.06-.43-.19-.63-.54-.77a.72.72,0,0,0-.83.21c-.63.55-.65.94-.05,1.53s.89.92,1.32,1.37c-.77.87-.75,1,.12,1.49.56-.25.64-.67.4-1.22.67-.49.89-1,.7-1.4a1.36,1.36,0,0,0,.31-.88C139.44,148.61,139.09,148.23,138.65,148.6Z"/><path class="cls-19" d="M103.45,138c.47.33.85.09,1.27-.24-.1-.48-.07-1-.63-1.06a.77.77,0,0,0-.85.53A.58.58,0,0,0,103.45,138Z"/><path class="cls-19" d="M98.55,136.4a1.9,1.9,0,0,0,.64-1.69.85.85,0,0,0,.44.16,2.89,2.89,0,0,0,0,.72,1.57,1.57,0,0,0,.45.94,1.65,1.65,0,0,0,1.31.43c.55,0,1,.37,1.46.13a2.3,2.3,0,0,0,1.33-2.41,1.86,1.86,0,0,0-1-1.48c-.58-.29-1.14.31-1.82.27a2.11,2.11,0,0,0-.63,0c-.22-.56-.72-1.37-1.57-.95a1.29,1.29,0,0,0-.54,1.44h0a1.42,1.42,0,0,0-1.28.08,1.44,1.44,0,0,0-.39,1.85A1.21,1.21,0,0,0,98.55,136.4Z"/><path class="cls-19" d="M96.83,132.49l1-.5a5.05,5.05,0,0,0-.16-.69.89.89,0,0,0-.23-.3.53.53,0,0,0,0-.71.73.73,0,0,0-.46-.3c-.06-.11-.11-.21-.16-.32v2.72l.09.08Z"/><path class="cls-19" d="M96.78,125.66a.52.52,0,0,0,.19-.23c0-.15.08-.39-.16-.48h0Z"/><path class="cls-19" d="M156.64,149.65c-.09.24-.28.85,0,1s.79-.26.92-.45-.06-.51-.21-.67A.39.39,0,0,0,156.64,149.65Z"/><path class="cls-19" d="M157.75,145.55c.16-.23-.19-.83-.37-1.06s-.69-.1-.87.21-.21.64.13.79S157.59,145.79,157.75,145.55Z"/><path class="cls-19" d="M154.44,151.82a1.14,1.14,0,0,0,.36,1.43c.61.46,1.08.47,1.44,0a1.33,1.33,0,0,0-.1-1.68A1.45,1.45,0,0,0,154.44,151.82Z"/><path class="cls-19" d="M161.54,152.3a1.49,1.49,0,0,0-.22-2,1.45,1.45,0,0,0-1.95.11,1.47,1.47,0,0,0-.09,2A1.88,1.88,0,0,0,161.54,152.3Z"/><path class="cls-19" d="M162,138.68c.11-.59-.27-.85-.77-1.1-.41.3-.9.48-.73,1a.8.8,0,0,0,.86.58A.6.6,0,0,0,162,138.68Z"/><path class="cls-19" d="M147.11,165.12c.11,0,.35-.37.25-.55s-.47-.07-.62,0-.2.27-.1.39A.51.51,0,0,0,147.11,165.12Z"/><path class="cls-19" d="M151.29,158a1.19,1.19,0,0,0-1.7-.19,3.4,3.4,0,0,1,.18-.83.74.74,0,0,0-.14-1,1.06,1.06,0,0,0-1.2-.33c-1.5.62-1.71,1.05-1.31,2.59,0,0,0,.07,0,.13h0a2.23,2.23,0,0,0-.3-.56.49.49,0,0,0-.8,0,.61.61,0,0,0,0,.92,1.5,1.5,0,0,0,.75.18.7.7,0,0,0,.13.95.8.8,0,0,0,1.25-.4c.2-.5.57-.51,1-.64.4,1.14,1.09,1.39,1.94.79a1.55,1.55,0,0,0,.24-.19C151.83,158.86,151.83,158.42,151.29,158Z"/><path class="cls-19" d="M147.78,164a1.12,1.12,0,0,0-.33-1.1.82.82,0,0,0-1.17.21,1,1,0,0,0,.19,1.21A1.32,1.32,0,0,0,147.78,164Z"/><path class="cls-19" d="M148.89,152.4a.84.84,0,0,0,1.08-.21.88.88,0,0,0-.23-1.1.78.78,0,0,0-1.08.15A.85.85,0,0,0,148.89,152.4Z"/><path class="cls-19" d="M139.83,144.5c-.1.1-.25.53-.08.63a.51.51,0,0,0,.53-.13c.09-.14.25-.44.09-.54A.54.54,0,0,0,139.83,144.5Z"/><path class="cls-19" d="M147,167.15c.52.27,1,.67,1.72.3a1.32,1.32,0,0,1,1.16-.1,1.26,1.26,0,0,0,1.42-.59,3,3,0,0,0-.81-2.24c-.64,0-1.48-.05-2.31,0-.11,0-.27.22-.31.36a1.46,1.46,0,0,1-.75.92A.86.86,0,0,0,147,167.15Z"/><path class="cls-19" d="M158.48,141c.2-.18,0-.49-.06-.53a.67.67,0,0,0-.5,0c-.07,0-.09.37,0,.42S158.28,141.12,158.48,141Z"/><path class="cls-19" d="M166.54,146.59c0,.24.15.68.34.74s.56-.13.75-.19c.18-.56-.06-.78-.36-.87S166.59,146.21,166.54,146.59Z"/><path class="cls-19" d="M171.53,145.11c-.1.09-.23.51-.08.63s.53-.06.61-.17a.35.35,0,1,0-.53-.46Z"/><path class="cls-19" d="M170.62,139.3a.4.4,0,0,0,0,.44c.11.09.38,0,.51-.11s.18-.4,0-.54S170.72,139.19,170.62,139.3Z"/><path class="cls-19" d="M169.8,141.1a.47.47,0,0,0-.36-.48.4.4,0,0,0-.51.25.45.45,0,1,0,.87.23Z"/><path class="cls-19" d="M198.77,133c-.06.13,0,.56.15.62s.49-.24.52-.38,0-.42-.21-.48S198.83,132.84,198.77,133Z"/><path class="cls-19" d="M168,138.83c.14-.29-.25-.42-.39-.49s-.37.1-.38.17a.63.63,0,0,0,.18.48A.43.43,0,0,0,168,138.83Z"/><path class="cls-19" d="M163.62,144.69A1.06,1.06,0,0,0,162,145a1.25,1.25,0,0,0,.37,1.72,1.29,1.29,0,0,0,1.65-.39A1.07,1.07,0,0,0,163.62,144.69Z"/><path class="cls-19" d="M162.4,152.1a1,1,0,0,0,.27.71c.5.35.9.07,1.29-.42-.19-.45-.27-1-.86-.93A.67.67,0,0,0,162.4,152.1Z"/><path class="cls-19" d="M158.66,156.76c.5,0,.66-.41.65-.92-.34-.23-.69-.53-1.08-.16a.9.9,0,0,0-.09.73A.67.67,0,0,0,158.66,156.76Z"/><path class="cls-19" d="M168.92,143.91c-.06.13,0,.59.16.62a.52.52,0,0,0,.45-.32c0-.16.07-.5-.12-.54A.54.54,0,0,0,168.92,143.91Z"/><path class="cls-19" d="M147.33,138.81a.8.8,0,0,0,.07,1,.69.69,0,0,0,1,0,.78.78,0,0,0-.08-1A.66.66,0,0,0,147.33,138.81Z"/><path class="cls-19" d="M149.38,148.51a1.17,1.17,0,0,0,1.39-.33A1.12,1.12,0,0,0,150,147a.77.77,0,0,0-.9.52A.76.76,0,0,0,149.38,148.51Z"/><path class="cls-19" d="M134.1,137.59a.65.65,0,0,0-.39-.89.78.78,0,0,0-.91.44.67.67,0,0,0,.4.89A.76.76,0,0,0,134.1,137.59Z"/><path class="cls-19" d="M132.29,152.66V154a1.35,1.35,0,0,0,.48.41,1.67,1.67,0,0,0,.74,1.57,1,1,0,0,0,1.52-.3,1.34,1.34,0,0,0-.34-2,1.1,1.1,0,0,0-.42-.17,1,1,0,0,0-.82-1.35A1.14,1.14,0,0,0,132.29,152.66Z"/><path class="cls-19" d="M132.29,163.31c.22.06.48-.29.64-.57a1.22,1.22,0,0,0,.75.06.73.73,0,0,0,.45.66c.48.23.82-.13,1.18-.48-.17-.47-.24-1-.87-1a.53.53,0,0,0-.17,0,1.62,1.62,0,0,0,0-.2,1.27,1.27,0,0,0,.52-.34,6.2,6.2,0,0,0,.91-1.34,1.52,1.52,0,0,0-.57-1.7c-.3-.2-1.06-.37-1.31.31.19,1.2-.65,1-.8,1.92v0a.82.82,0,0,0-.4.3,1.44,1.44,0,0,0-.29.87h0Z"/><path class="cls-19" d="M145.49,144.17a1.09,1.09,0,0,0,.3,1.45.75.75,0,0,0,1.16-.06,1.34,1.34,0,0,0,0-1.77A1.2,1.2,0,0,0,145.49,144.17Z"/><path class="cls-19" d="M136,168.37a2.34,2.34,0,0,0-1.8-2.18,1.86,1.86,0,0,0-1.77.36.45.45,0,0,0-.11.13v3.69a2.86,2.86,0,0,0,1,.5,1.75,1.75,0,0,0,.79,0,.78.78,0,0,0,.05.68.66.66,0,0,0,1,.22.73.73,0,0,0,.34-1,.81.81,0,0,0-.52-.36,2.26,2.26,0,0,0,.36-.67C135.48,169.18,136,168.93,136,168.37Z"/><path class="cls-19" d="M132.29,178.81a.79.79,0,0,0,.13-.26.76.76,0,0,0-.13-.72Z"/><path class="cls-19" d="M140.24,138.88a.57.57,0,0,0,0,.51.44.44,0,0,0,.6.07c.23-.22-.08-.49-.18-.61S140.26,138.82,140.24,138.88Z"/><path class="cls-19" d="M140.56,152.71a.84.84,0,0,0-.52-.18.7.7,0,0,0-.33,1,.54.54,0,0,0,.25.18.45.45,0,0,0,.15.38c.38.3.85-.15,1.1-.31s.2-.62-.11-.88A.63.63,0,0,0,140.56,152.71Z"/><path class="cls-19" d="M133.68,164.39c.08.32,1,.61,1.2.26a.74.74,0,0,0-.13-.91C134.4,163.51,133.59,164.07,133.68,164.39Z"/><path class="cls-19" d="M136.05,152.26a.78.78,0,0,0-1.14-.19.81.81,0,0,0-.17,1.08.78.78,0,0,0,1.13.27A.84.84,0,0,0,136.05,152.26Z"/><path class="cls-19" d="M141.66,142.21a.49.49,0,0,0-.16-.58.42.42,0,0,0-.57,0,.46.46,0,1,0,.73.54Z"/><path class="cls-19" d="M133.42,172.18a2.27,2.27,0,0,0-.31-.77.48.48,0,0,0-.78.09l0,.06v.76A.83.83,0,0,0,133.42,172.18Z"/><path class="cls-19" d="M147.34,154.7c.37-.48.37-1,0-1.27a2,2,0,0,0-1.73.08,1.09,1.09,0,0,0,.33,1.59C146.38,155.43,146.88,155.29,147.34,154.7Z"/><path class="cls-19" d="M137.7,168.1a1.39,1.39,0,0,0,1.05,1.49,1.44,1.44,0,0,0,.3-2.83C138.5,166.62,137.92,167.34,137.7,168.1Z"/><path class="cls-19" d="M143.56,150.05a1.38,1.38,0,0,0,.5,1.95,1.14,1.14,0,0,0,1.7-.18,1.54,1.54,0,0,0-.34-2.11A1.57,1.57,0,0,0,143.56,150.05Z"/><path class="cls-19" d="M145.35,164.28a1,1,0,0,0-.25-1.19,1.1,1.1,0,1,0-1.28,1.8C144.24,165.2,144.87,165,145.35,164.28Z"/><path class="cls-19" d="M152.45,156.14a.82.82,0,0,0,.21-1,.93.93,0,0,0-1.31-.29,1,1,0,0,0,.19,1.4A.64.64,0,0,0,152.45,156.14Z"/><path class="cls-19" d="M145.54,160.2c-.15-.26-.9,0-.95.09-.14.3-.4.66-.22,1s.62.13.72,0S145.69,160.45,145.54,160.2Z"/><path class="cls-19" d="M140.44,165.43a.74.74,0,0,0,.21-1.05.72.72,0,0,0-1-.29l0,0a2.31,2.31,0,0,0-.3-2.18,1.44,1.44,0,0,0-1.93.33,1.7,1.7,0,0,0,.19,2.08,1.47,1.47,0,0,0,1.8.05.7.7,0,0,0,0,.74A.91.91,0,0,0,140.44,165.43Z"/><path class="cls-19" d="M151.6,151.64a2.53,2.53,0,0,0,.85-.31c.33-.28.17-.88-.24-1.15a.7.7,0,0,0-1,.24A.94.94,0,0,0,151.6,151.64Z"/><path class="cls-19" d="M142.25,156.63a1.3,1.3,0,0,0-1.68,0c-.26.33.07,1.42.52,1.72a.62.62,0,0,0,.37.09.53.53,0,0,0,.12.1c.07,0,.43,0,.49-.18,0,0,0,0,0-.05a.71.71,0,0,0,.23-.18A1.06,1.06,0,0,0,142.25,156.63Z"/><path class="cls-19" d="M153.58,144.2a1,1,0,0,0-.05-1.14.75.75,0,0,0-1,.11.85.85,0,0,0,0,1.12A.81.81,0,0,0,153.58,144.2Z"/><path class="cls-19" d="M153.79,138.26a.88.88,0,0,0-1-.74c-.39,0-1.19-.21-1.47.3s.22.68.32.94c.25.68,1.15,1.1,1.64.77A1.15,1.15,0,0,0,153.79,138.26Z"/><path class="cls-19" d="M194.38,139a1.12,1.12,0,0,0-1.33.68.77.77,0,0,0,.35,1.06,1.3,1.3,0,0,0,1.49-.64A.89.89,0,0,0,194.38,139Z"/><path class="cls-19" d="M200.42,136.8c-.31-.12-.59,0-.64.44s0,.69.38.71,1-.08,1.07-.37S200.68,136.9,200.42,136.8Z"/><path class="cls-19" d="M203.14,140.13a1.83,1.83,0,0,0-1.64.77.88.88,0,0,0,.18.66h2a2,2,0,0,0,.1-.29A1.07,1.07,0,0,0,203.14,140.13Z"/><path class="cls-19" d="M197,138.13c-.07,0-.22,0-.25.12a.23.23,0,0,0,.16.29c.14,0,.24-.11.26-.18S197.05,138.14,197,138.13Z"/><path class="cls-19" d="M206.51,133.17c.05-.21-.36-.68-.57-.84s-.62,0-.78.42a.47.47,0,0,0,.39.68C205.8,133.46,206.45,133.38,206.51,133.17Z"/><path class="cls-19" d="M196.27,127.46c-.21-.07-.4.26-.46.41a.38.38,0,0,0,.2.39c.14,0,.35-.15.44-.29S196.47,127.53,196.27,127.46Z"/><path class="cls-19" d="M199.52,139.54a.77.77,0,0,0-1.06.51.86.86,0,0,0,.53,1,.91.91,0,0,0,1-.63A.71.71,0,0,0,199.52,139.54Z"/><path class="cls-19" d="M216.91,137.58a.75.75,0,0,0-1,.47.78.78,0,0,0,.43.93.76.76,0,0,0,1-.52A.61.61,0,0,0,216.91,137.58Z"/><path class="cls-19" d="M214.74,133.64c-.15-.08-.75,0-.82.18s.29.63.42.65.61,0,.68-.19S214.91,133.73,214.74,133.64Z"/><path class="cls-19" d="M205.43,141.22c0,.12,0,.23,0,.34H207a.62.62,0,0,0-.22-.42C206.33,140.74,205.91,140.93,205.43,141.22Z"/><path class="cls-19" d="M217.47,135.88c-.18.06-.24.35-.21.48s.32.46.49.4.24-.49.19-.61S217.66,135.82,217.47,135.88Z"/><path class="cls-19" d="M209.38,140.34c-.08-.05-.37.1-.37.17a.59.59,0,0,0,.18.48.43.43,0,0,0,.59-.16C209.91,140.54,209.53,140.41,209.38,140.34Z"/><path class="cls-19" d="M211.91,133.5c-.21.07-.16.46-.11.61a.39.39,0,0,0,.39.19c.14-.05.19-.34.18-.5S212.12,133.44,211.91,133.5Z"/><path class="cls-19" d="M180.59,146.47a.77.77,0,0,0-1,.53.81.81,0,0,0,1.57.41A.89.89,0,0,0,180.59,146.47Z"/><path class="cls-19" d="M181.21,137.58a.77.77,0,0,0-.91.48.86.86,0,0,0,.44,1,.84.84,0,0,0,.93-.46A1,1,0,0,0,181.21,137.58Z"/><path class="cls-19" d="M182.56,144.72a.71.71,0,0,0-.83.58.94.94,0,0,0,.79,1,2.42,2.42,0,0,0,.68-.59C183.41,145.32,183,144.82,182.56,144.72Z"/><path class="cls-19" d="M177.6,150.23a1.09,1.09,0,0,0,0,.26l1.32-1C178.4,149.6,177.68,150,177.6,150.23Z"/><path class="cls-19" d="M180.49,143.38a1.12,1.12,0,0,0-1.14-.85.86.86,0,0,0,0,1.66A1.19,1.19,0,0,0,180.49,143.38Z"/><path class="cls-19" d="M190.27,141.56h.87A1.52,1.52,0,0,0,190.27,141.56Z"/><path class="cls-19" d="M178.65,148.09c.12-.17-.09-.76-.23-1s-.58-.21-.87.1a.47.47,0,0,0,.11.78C177.88,148.11,178.52,148.27,178.65,148.09Z"/><path class="cls-19" d="M191.23,135.45a1.06,1.06,0,0,0-1.41.82,1.24,1.24,0,0,0,1,1.47,1.3,1.3,0,0,0,1.41-1C192.35,136.13,192,135.62,191.23,135.45Z"/><path class="cls-19" d="M185.33,137.53c-.27-.16-.69.15-.75.5s0,.68.41.7,1-.07,1.07-.35S185.57,137.68,185.33,137.53Z"/><path class="cls-19" d="M187.09,142.28a.38.38,0,0,0-.58.34c0,.25,0,.9.33,1s.64-.54.7-.76S187.3,142.37,187.09,142.28Z"/><path class="cls-19" d="M185.07,133.81c.12-.23-.17-.46-.25-.46a.66.66,0,0,0-.48.17s0,.38.13.4S184.94,134.05,185.07,133.81Z"/><path class="cls-19" d="M186.45,129.65c-.28.44-.67.79-.3,1.25a.8.8,0,0,0,1,.23.6.6,0,0,0,.41-.73C187.46,129.81,187,129.71,186.45,129.65Z"/><path class="cls-19" d="M222,138.54c-.11-.29-.86-.2-1.12-.13s-.44.4-.24.75.42.53.73.32S222.13,138.83,222,138.54Z"/><path class="cls-19" d="M211.52,137.85c-.46.19-1,1.25-.84,1.62a1.37,1.37,0,0,0,1.67.38c.56-.25.7-.78.38-1.48A1.09,1.09,0,0,0,211.52,137.85Z"/><path class="cls-19" d="M221.86,141.14a.93.93,0,0,0-.52.42h1.46s0,0,0,0A.72.72,0,0,0,221.86,141.14Z"/><path class="cls-19" d="M205.12,137.13a.46.46,0,0,0,.72.3c.23-.12.69-.59.61-.79s-.7-.32-1-.31S205,136.71,205.12,137.13Z"/><path class="cls-19" d="M100.71,137a1.38,1.38,0,0,0-1.57.63.29.29,0,0,0,0,.1,1.68,1.68,0,0,0-1.36.79,1.33,1.33,0,0,0,.48,1.7c0,.09,0,.18-.08.27.28.37.62.57,1,.3a.73.73,0,0,0,.18-.3,1.09,1.09,0,0,0,.82-.65,2.86,2.86,0,0,0,.17-.52,1.36,1.36,0,0,0,1.33-.66A1.38,1.38,0,0,0,100.71,137Z"/><path class="cls-19" d="M126,141.56h.86a.89.89,0,0,0-.41-.1A1.06,1.06,0,0,0,126,141.56Z"/><path class="cls-19" d="M125.85,132c-.12-.05-.57,0-.6.16s.21.41.31.43.49.07.52-.11A.51.51,0,0,0,125.85,132Z"/><path class="cls-19" d="M128.19,137a1.05,1.05,0,0,0-1.19.8.72.72,0,0,0,.47,1,1.3,1.3,0,0,0,1.6-.64A1.19,1.19,0,0,0,128.19,137Z"/><path class="cls-19" d="M122.17,137.34c-.68-.19-1.34.29-1.58,1.16a1.12,1.12,0,0,0,.77,1.48,1.52,1.52,0,0,0,1.8-1.07A1.55,1.55,0,0,0,122.17,137.34Z"/><path class="cls-19" d="M124.14,134.29c0-.06-.29-.22-.35-.19s-.41.23-.34.47.42.21.48.16A.68.68,0,0,0,124.14,134.29Z"/><path class="cls-19" d="M124.65,137.3a.77.77,0,0,0-.85.52.58.58,0,0,0,.21.77c.47.33.85.1,1.27-.23C125.18,137.87,125.21,137.37,124.65,137.3Z"/><path class="cls-19" d="M128.81,131.94a.42.42,0,0,0-.59.32.43.43,0,0,0,.37.54.46.46,0,0,0,.46-.36A.39.39,0,0,0,128.81,131.94Z"/><path class="cls-19" d="M128.07,129.49c-.69-.06-1.42.56-1.32,1.13a1.09,1.09,0,0,0,.91.92.85.85,0,0,0,1-.55c.15-.35.66-1,.32-1.4S128.34,129.51,128.07,129.49Z"/><path class="cls-19" d="M135.17,178.78a.67.67,0,0,0-.26-.66,1.75,1.75,0,0,0-1.71.15.93.93,0,0,0-.18.61l-.33,0a.88.88,0,0,0-.4.12v3.53l.09-.07a1,1,0,0,0,.09-.72l.14,0a1.47,1.47,0,0,0,1.48-1c.16-.44.23-.86.82-1,.43-.1.43-.54.3-.94Z"/><path class="cls-19" d="M141.42,172.87a1,1,0,0,0-.59-.42.74.74,0,0,0-.72.24,1,1,0,0,0-.45-.65,1,1,0,0,0-1.22.18,1.55,1.55,0,0,0-1.15-.5,1.4,1.4,0,0,0-1.8-.14,1.76,1.76,0,0,0-.39,1.56H135a1.79,1.79,0,0,0-1.19.89,2,2,0,0,0-1,.32,4.58,4.58,0,0,0,0,1,1.16,1.16,0,0,0,1,1,1.5,1.5,0,0,0,.74-.23.68.68,0,0,0,.05.65.82.82,0,0,0,1.08.18.77.77,0,0,0,.28-.34.53.53,0,0,0,.19-.17c.08-.14,0-.68-.17-.77a1.44,1.44,0,0,0,.52-1.25.34.34,0,0,0,0-.1,1.33,1.33,0,0,0,1.47-.14,2,2,0,0,0,.49-.45.63.63,0,0,0,.38.39.76.76,0,0,0,.61,0,1.09,1.09,0,0,0,1.16.45,1.42,1.42,0,0,0,.66-.45.8.8,0,0,0,1.16-.14.79.79,0,0,0-.14-1A1,1,0,0,0,141.42,172.87Z"/><path class="cls-19" d="M128.82,125.32a.66.66,0,0,0-.36.89.74.74,0,0,0,.93.34.64.64,0,0,0,.37-.88A.77.77,0,0,0,128.82,125.32Z"/><path class="cls-19" d="M131.09,130.3a.61.61,0,0,0-.47.18.43.43,0,0,0,.16.57c.28.13.41-.25.48-.39S131.15,130.31,131.09,130.3Z"/><path class="cls-19" d="M140.07,176.25a.73.73,0,0,0,.24-1,.69.69,0,0,0-1-.28.86.86,0,0,0-.4.87,1.12,1.12,0,0,0-.67.49,1.68,1.68,0,0,0-.33,1,1.5,1.5,0,0,0-.9.19.9.9,0,0,0-.17,1.32,1,1,0,0,0,.76.52l3-2.16a2.06,2.06,0,0,0-.49-1Z"/><path class="cls-19" d="M105.8,140.54a.8.8,0,0,0-.38,1h1.93a1.11,1.11,0,0,0,.07-.86A1.29,1.29,0,0,0,105.8,140.54Z"/><path class="cls-19" d="M109.87,137.78a1.42,1.42,0,0,0-1-1.64,1.66,1.66,0,0,0-1.81.93,1.38,1.38,0,0,0,.78,1.74A2.18,2.18,0,0,0,109.87,137.78Z"/><path class="cls-19" d="M103.71,138.56a1.37,1.37,0,0,0-1,1.49,1.4,1.4,0,0,0,1.81.72,1.38,1.38,0,0,0,.85-1.48C105.34,138.75,104.49,138.48,103.71,138.56Z"/><path class="cls-19" d="M109.06,138.93a.86.86,0,0,0-.29,1.12.68.68,0,0,0,.93.26.74.74,0,0,0,.38-1.06A.81.81,0,0,0,109.06,138.93Z"/><path class="cls-19" d="M103.16,141.3c-.49-.26-.88-.22-1,.1a1,1,0,0,0,0,.16h1.68l-.14,0A1.81,1.81,0,0,1,103.16,141.3Z"/><path class="cls-19" d="M115.1,137c-.39-.11-1.26.58-1.37,1.09a1,1,0,0,0,2,.42A1.28,1.28,0,0,0,115.1,137Z"/><path class="cls-19" d="M118.63,136.31a.83.83,0,0,0,.09-.16c.13-.4,0-.71-.4-.74-.24,0-.74-.13-1,.13a1.54,1.54,0,0,0-.47.16,1.26,1.26,0,0,0-.32,1.6,1,1,0,0,0,1.55.28A1,1,0,0,0,118.63,136.31Z"/><path class="cls-19" d="M116.56,129.49c-.16-.17-.62-.58-.87-.44s-.09.8,0,1,.47.15.67.08A.37.37,0,0,0,116.56,129.49Z"/><path class="cls-19" d="M112.37,138.14a1.17,1.17,0,0,0-1.12.47,1,1,0,0,0,.56,1,.76.76,0,0,0,1-.53A.84.84,0,0,0,112.37,138.14Z"/><path class="cls-19" d="M119.79,140.45a1.06,1.06,0,0,0-1.33.87.69.69,0,0,0,0,.24h2C120.34,141.1,120,140.52,119.79,140.45Z"/><path class="cls-19" d="M114,135.88a.73.73,0,0,0-.9-.5,1.83,1.83,0,0,0-1.26-1.63,1.21,1.21,0,0,0-1.51.93,1.33,1.33,0,0,0,1,1.88,1.39,1.39,0,0,0,1.1-.17,1,1,0,0,0,0,.43.86.86,0,0,0,1.09.42A1.07,1.07,0,0,0,114,135.88Z"/><path class="cls-19" d="M172.15,150.29c.19-.24-.28-.83-.48-1s-.56-.17-.75.18-.24.64.1.79S172,150.53,172.15,150.29Z"/><path class="cls-19" d="M169.21,148.47a1.11,1.11,0,0,1-.12-.27c-.1-.42-.4-.52-.78-.52a.73.73,0,0,0-.71.49c-.3.58-.28.93.09,1.22a.19.19,0,0,0,.08.22.22.22,0,0,0,.26,0l.09,0c.58.25,1.16.53,1.72.79a2,2,0,0,0-.21.94.76.76,0,0,0-1,.22.87.87,0,0,0,.14,1.11.91.91,0,0,0,1.19-.21.71.71,0,0,0,0-.8,2.42,2.42,0,0,0,.48.09c.43-.43.35-.85-.07-1.28C171.21,149.26,170.76,148.56,169.21,148.47Z"/><path class="cls-19" d="M170.48,155.09c-.24-.05-.74,0-.81.16a.81.81,0,0,0,.2.7l.09,0,.74-.53A.69.69,0,0,0,170.48,155.09Z"/><path class="cls-19" d="M166.05,157.25a1.69,1.69,0,0,0,.22,1.4l1.49-1.07a.64.64,0,0,0-.26-.4A1,1,0,0,0,166.05,157.25Z"/><path class="cls-19" d="M179.72,134.36a1.14,1.14,0,0,0,0-1.35.89.89,0,0,0-1.18-.35c-.36.15-1.19.24-1.26.82s.45.56.63.76A1.26,1.26,0,0,0,179.72,134.36Z"/><path class="cls-19" d="M167.47,154.4a1.37,1.37,0,0,0-1.52.94c-.18.64.4,1.39,1.25,1.62a1,1,0,0,0,1.32-.83A1.36,1.36,0,0,0,167.47,154.4Z"/><path class="cls-19" d="M175.23,136.41a.78.78,0,0,0-.45-.93.66.66,0,0,0-.91.39.79.79,0,0,0,.44.94A.68.68,0,0,0,175.23,136.41Z"/><path class="cls-19" d="M171.2,153.47a1.25,1.25,0,0,0,.32,1.39l1.7-1.23a.86.86,0,0,0-.21-.28A1.85,1.85,0,0,0,171.2,153.47Z"/><path class="cls-19" d="M176.05,146.75a1.56,1.56,0,0,0-1.62,1c-.22.69.27,1.37,1.17,1.63a1.14,1.14,0,0,0,1.53-.78A1.54,1.54,0,0,0,176.05,146.75Z"/><path class="cls-19" d="M174.9,142.79c.55.16.91,0,1.06-.48a1.33,1.33,0,0,0-.64-1.65,1.19,1.19,0,0,0-1.22.89A1.08,1.08,0,0,0,174.9,142.79Z"/><path class="cls-19" d="M163.78,149.3a.77.77,0,0,0-.06,1.11,1.29,1.29,0,0,0,1.61-.06.89.89,0,0,0-.06-1.21A1.13,1.13,0,0,0,163.78,149.3Z"/><path class="cls-19" d="M173.16,151.29c-.41-.15-.73,0-.76.4s-.19.92.27,1.07.73-.45.91-.69S173.54,151.42,173.16,151.29Z"/><path class="cls-19" d="M155.1,162.42a.8.8,0,0,0-1.09.29c-.29.4-.25,1.08.13,1.27a1,1,0,0,0,1.28-.22A.93.93,0,0,0,155.1,162.42Z"/><path class="cls-19" d="M146.65,172.72c-.64-.95-1.36-1.18-2.22-.76.24-.23.49-.44.73-.66a.65.65,0,0,0,.41-1,.84.84,0,0,0-1.12-.36l-.09,0a2.17,2.17,0,0,0-.64-1.39,5.24,5.24,0,0,0,.57-.77c.42-.83,0-1.43-.94-1.36a1.29,1.29,0,0,0-.68.24.47.47,0,0,0-.46,0c-.33.16-.56.68-.32.9a2.74,2.74,0,0,0,.46.34c.07.2.19.41.38.82-.38,0-.66.16-.85.08a1,1,0,0,0-1.4.47,2,2,0,0,1-.38.33c-.43.37-.55.76-.31,1s.8.32,1.23-.16c0-.05,0-.15.08-.19.24-.23.47-.26.64.08.06.12.07.27.13.39a1.34,1.34,0,0,0,.58.55,1.56,1.56,0,0,0,.55.81,1.14,1.14,0,0,0,.87.23c-.2.32-.15.75.1,1.36a6.25,6.25,0,0,0-.57,1.18,1.61,1.61,0,0,0,0,.22l4.07-2.94C147.1,172.13,146.84,172.33,146.65,172.72Z"/><path class="cls-19" d="M153.23,167.56c-.28.21-.65.54-.67.84a.77.77,0,0,0,0,.15l1.55-1.12A.88.88,0,0,0,153.23,167.56Z"/><path class="cls-19" d="M153,164.89a.69.69,0,0,0-.36-.95,1,1,0,0,0-.84,0c-.53.39-.32.89,0,1.39C152.27,165.36,152.8,165.42,153,164.89Z"/><path class="cls-19" d="M150.21,168.57c-.27.35-.12.93.36,1.43l1.5-1.09a.64.64,0,0,0-.17-.35A1.34,1.34,0,0,0,150.21,168.57Z"/><path class="cls-19" d="M149.46,169.2a1,1,0,0,0-.64-.59,1.07,1.07,0,0,0-.32-.16.77.77,0,0,0-1,.3,1.67,1.67,0,0,0,.36,1.73,2,2,0,0,0,.23.44,1.17,1.17,0,0,0,.67.38l1.74-1.25a1,1,0,0,0-.56-.32C149.49,169.68,149.65,169.64,149.46,169.2Z"/><path class="cls-19" d="M163.15,153.89c-.26-.46-.46-1-1.1-.69a.82.82,0,0,0-.55.89c0,.15.12.38.24.42a9.38,9.38,0,0,0,1.16.28c.44.85,1.07,1.27,1.59,1A1.6,1.6,0,0,0,165,154C164.74,153.38,164.37,153.35,163.15,153.89Z"/><path class="cls-19" d="M164.6,159.14a1.21,1.21,0,0,0-1.35.68,2.71,2.71,0,0,0-.8-.57,1.77,1.77,0,0,0-.69-.14,5.77,5.77,0,0,0-.72,0c-.79,0-1.2.32-1.27.93a1.23,1.23,0,0,0,1.07,1.38l1.27.26,3-2.14A1,1,0,0,0,164.6,159.14Z"/><path class="cls-19" d="M160.62,158.25a1.07,1.07,0,0,0,.19.28,1,1,0,0,0,1.22,0c.53-.59.64-1.31.25-1.65a1.31,1.31,0,0,0-1.61.16s0,.07,0,.1a.85.85,0,0,0-.31-.26,1.1,1.1,0,0,0-1.32.48,1.17,1.17,0,0,0,0,.53,1.08,1.08,0,0,0-.32-.09,8.52,8.52,0,0,0-1.94.13c-.42-.58-1-1.2-1.81-1a2,2,0,0,0-1.22,2.64.8.8,0,0,1-.15.88.92.92,0,0,0,.39,1.23c.43.23.68,0,.88-.33a2,2,0,0,1,.52-.71c.54-.35,1.14-.61,1.75-.93,1.21,1,1.75,1,2.37-.29a1.17,1.17,0,0,0,.13-.56A1.07,1.07,0,0,0,160.62,158.25Z"/><path class="cls-19" d="M156.66,164.06a.62.62,0,0,0-.77.5,1.2,1.2,0,0,0,.17.91.6.6,0,0,0,.48.21l.9-.65C157.37,164.52,157.23,164.12,156.66,164.06Z"/><path class="cls-19" d="M155.13,166.08a1.48,1.48,0,0,0,0,.65l1.13-.81C156,165.8,155.67,165.88,155.13,166.08Z"/><path class="cls-19" d="M157.75,162.17a.85.85,0,0,0-.68.29.73.73,0,0,0,.12,1,.91.91,0,0,0,1.21-.19C158.62,163.07,158.35,162.27,157.75,162.17Z"/></g></svg>