<svg id="Layer_1" data-name="Layer 1" xmlns="http://www.w3.org/2000/svg" viewBox="0 0 128 128"><defs><style>.cls-1{fill:#ecf0f6;}.cls-2{fill:#fff;}.cls-3{fill:#00bfb3;}.cls-4{fill:#343741;}.cls-5{fill:#7de2d1;}.cls-6{fill:#01ada1;}.cls-7{fill:#ced5e1;}</style></defs><title>illustration-powerful-hour-glass-128-white-bg</title><circle class="cls-1" cx="64" cy="64" r="60"/><path class="cls-2" d="M115.17,49.54c.16-.26-.07-.47-.33-.58s-.66,0-.67.29-.11.69.25.78S115.05,49.74,115.17,49.54Z"/><path class="cls-2" d="M114.1,50.86a.73.73,0,0,0-.22-.57c-.22-.18-.7.06-.73.36a1,1,0,0,0,.14.48C113.71,51.29,114.08,51.14,114.1,50.86Z"/><path class="cls-2" d="M116.16,47.55a.87.87,0,0,0,1.11-.35,1.32,1.32,0,0,0-.61-1.55.87.87,0,0,0-.92.33,1.32,1.32,0,0,0-1.07-.19,1.26,1.26,0,0,0-.64,1.53,1.23,1.23,0,0,0,1.48.73A1.48,1.48,0,0,0,116.16,47.55Z"/><path class="cls-2" d="M106.14,21.46s.06,0,.1-.07c-.31-.31-.64-.6-.95-.9a.61.61,0,0,0-.05.56A.65.65,0,0,0,106.14,21.46Z"/><path class="cls-2" d="M112.1,47.71c-.14.29.13.78.66,1,.12,0,.39-.1.5-.26a.71.71,0,1,0-1.16-.79Z"/><path class="cls-2" d="M114.67,44.92a.69.69,0,0,0,.77-.43.49.49,0,0,0,0-.41c-.22-.24-.48-.44-.74-.68,0-.81-.27-1.38-.75-1.4a1.21,1.21,0,0,0-.9.53.32.32,0,0,0-.24.13.26.26,0,0,0,0,.23.86.86,0,0,0-.06.23c0,.56.23.73,1.35.84C114.15,44.4,114.09,44.85,114.67,44.92Z"/><path class="cls-2" d="M112.84,38.84c-.53.23-.71.53-.54.91a.82.82,0,0,0,1.09.55,1.41,1.41,0,0,0,.4-1.24C113.67,38.71,113.32,38.63,112.84,38.84Z"/><path class="cls-2" d="M110,31.35a.7.7,0,0,0,.32,0,2.43,2.43,0,0,1,.33.46,1,1,0,0,0,1.1.61c.49-.08.68-.43.39-1.1-.22-.21-.55-.57-.93-.88a.19.19,0,0,0,0-.07.81.81,0,0,0-.73-.89c-.51-.11-1.22.22-1.3.6A1.15,1.15,0,0,0,110,31.35Z"/><path class="cls-2" d="M112.77,30a.76.76,0,0,0,.35-.44c-.45-.65-.91-1.29-1.39-1.91a.52.52,0,0,0-.29.12.58.58,0,0,0-.11.85.79.79,0,0,0,.27.2.72.72,0,0,0,.05.55C112,30,112.31,30.22,112.77,30Z"/><path class="cls-2" d="M117.06,36.6a.78.78,0,0,0,.5.87.43.43,0,0,0,.25,0c-.17-.35-.35-.69-.53-1A.24.24,0,0,0,117.06,36.6Z"/><path class="cls-2" d="M120.44,43.6c-.29-.8-.6-1.58-.92-2.36a3.71,3.71,0,0,0-.37.21.91.91,0,0,0-.07,1.5A6.91,6.91,0,0,0,120.44,43.6Z"/><path class="cls-2" d="M116.87,40.31a1.52,1.52,0,0,0,.45.38,4.46,4.46,0,0,0,.52.31c.59.31,1,.26,1.32-.16a1.2,1.2,0,0,0,.11-.23c-.22-.52-.46-1-.7-1.54a8.38,8.38,0,0,1-1-1c-.33-.41-1-.66-1.28-.41a.78.78,0,0,0,0,.93c.39.28.2.58.24.9A2,2,0,0,0,116.87,40.31Z"/><path class="cls-2" d="M110.4,27.52c.68.36,1,.37,1.25,0-.28-.38-.57-.74-.87-1.11C110.35,26.69,110.39,27.12,110.4,27.52Z"/><path class="cls-2" d="M109,26.71a.66.66,0,0,0,.48-.37,1.09,1.09,0,0,0-.21-.76c-.38-.35-.67,0-1,.25C108.31,26.33,108.45,26.72,109,26.71Z"/><path class="cls-2" d="M45.27,18.14a.85.85,0,0,0,.09-1c-.49-.51-1.11-.66-1.43-.34A1.24,1.24,0,0,0,44,18.21,1.14,1.14,0,0,0,45.27,18.14Z"/><path class="cls-2" d="M67.16,4.65c-.32.56-.21.94.37,1.29a.93.93,0,0,0,1.24-.11,1.41,1.41,0,0,0-.47-1.66l-.51,0A1.13,1.13,0,0,0,67.16,4.65Z"/><path class="cls-2" d="M115.25,53.46c.25-.14.41-.39.23-.64s-.58-.61-.8-.5-.19.55-.17.83l0,0a.5.5,0,0,0-.69.34.42.42,0,0,0,.32.6c.21,0,.76.13.84-.15a.59.59,0,0,0-.1-.41A.53.53,0,0,0,115.25,53.46Z"/><path class="cls-2" d="M61.37,10.81c-.11.1-.2.61-.06.73s.67,0,.71-.13.12-.61,0-.69A.68.68,0,0,0,61.37,10.81Z"/><path class="cls-2" d="M64.57,4.59a1.11,1.11,0,0,0-.12-.27.81.81,0,0,0,.19-.3L64,4h-.42s0,.07,0,.1a.27.27,0,0,0-.08.07,6.83,6.83,0,0,0-.36.94c-.77.26-1.19.74-1,1.21A1.33,1.33,0,0,0,63.57,7c.54-.17.61-.48.3-1.56C64.28,5.26,64.72,5.15,64.57,4.59Z"/><path class="cls-2" d="M71.25,7.09c.32-.08.69-.06.88-.35s.76-1.11.42-1.66-.73-.12-1.09-.17a.87.87,0,0,0-.83.37,1.2,1.2,0,0,0-.64.33A1.07,1.07,0,0,0,70,6.91a.42.42,0,0,1-.33-.11c-.27-.25-.86-.25-1.33.35s-.16,1.53.4,1.56.71-.27.85-.13.27.6.64.59S71,8.11,71,7.93s-.21-.5-.06-.7A1.28,1.28,0,0,0,71.25,7.09Z"/><path class="cls-2" d="M82.05,7a1.19,1.19,0,0,0-1.26.23,1.23,1.23,0,0,0,.43,1.3A.56.56,0,0,0,82,8.35C82.42,7.76,82.43,7.22,82.05,7Z"/><path class="cls-2" d="M72.9,7c-.16.24,0,.57.1.79s.54.14.71-.09.14-.59-.1-.7S73.07,6.79,72.9,7Z"/><path class="cls-2" d="M62.08,13.73a.91.91,0,0,0,1.11,0,1.52,1.52,0,0,0,.1-1.52,1.12,1.12,0,0,0-1.4.27C61.53,12.84,61.6,13.3,62.08,13.73Z"/><path class="cls-2" d="M44.15,13.06a1.48,1.48,0,0,0-1.58,0,1,1,0,0,0,0,1.35,1.11,1.11,0,0,0,1.41.08A1.08,1.08,0,0,0,44.15,13.06Z"/><path class="cls-2" d="M82.52,9.11a.7.7,0,1,0,.75-1.19.77.77,0,0,0-1,.29A.68.68,0,0,0,82.52,9.11Z"/><path class="cls-2" d="M117.27,42.66a1,1,0,0,0,.51-1.15.84.84,0,0,0-.9-.51c-.63.22-1,.71-.86,1.12A1.1,1.1,0,0,0,117.27,42.66Z"/><path class="cls-2" d="M60.88,8.27l0,0A.86.86,0,0,0,60.63,7a1.06,1.06,0,0,0-1.58.32,1.13,1.13,0,0,0,.2,1.49.94.94,0,0,0,.87.06.5.5,0,0,0,.5-.17A1.09,1.09,0,0,0,60.88,8.27Z"/><path class="cls-2" d="M59.47,9.63a.68.68,0,0,0-.58.66.5.5,0,0,0,.36.59c.49.16.74-.13,1-.51C60.06,10,60,9.55,59.47,9.63Z"/><path class="cls-2" d="M57.16,4.4l0,0A1.46,1.46,0,0,0,57,4.9a.74.74,0,0,0-.17-.3l-.16-.14-1,.14a1.78,1.78,0,0,1,.32.68.68.68,0,0,0,.58.23A.72.72,0,0,0,57,5.16a.69.69,0,0,0,.26.62.79.79,0,0,0,.86-.36c.12-.47.46-.4.75-.55a1,1,0,0,0,.28-.23s0,0,0,0a1.12,1.12,0,0,0,1.13,0,.65.65,0,0,0,.12-.47c.38.31.82.39,1.08.15a.64.64,0,0,0,.19-.29C60.15,4.12,58.64,4.23,57.16,4.4Z"/><path class="cls-2" d="M45.26,9.25a1,1,0,0,0-1.6.06,1,1,0,0,0-.12,1.59,1.17,1.17,0,0,0,1.77-.07A1.2,1.2,0,0,0,45.26,9.25Z"/><path class="cls-2" d="M116.78,49c-.12.06-.17.4-.12.58a.32.32,0,0,0,.53.2c.16-.14.56-.51.45-.73S117,48.89,116.78,49Z"/><path class="cls-2" d="M93.39,16.53a.42.42,0,0,0,.69-.17,2.14,2.14,0,0,0,0-.62.64.64,0,0,0-.91.24C93,16.25,93.19,16.4,93.39,16.53Z"/><path class="cls-2" d="M92.83,12.62a.72.72,0,0,0,.57-.24.51.51,0,0,0,0-.52c-.23-.35-.57-.32-.94-.09C92.47,12.11,92.39,12.5,92.83,12.62Z"/><path class="cls-2" d="M90.68,22.72a.64.64,0,0,0,.63-.61c0-.53-.61-.88-.82-.88a.94.94,0,0,0-.57,1.05A.65.65,0,0,0,90.68,22.72Z"/><path class="cls-2" d="M67.63,6.48a.65.65,0,0,0-.92-.18,1.1,1.1,0,0,0-.14,1.36.75.75,0,0,0,1,.08A.94.94,0,0,0,67.63,6.48Z"/><path class="cls-2" d="M88.52,14A1.25,1.25,0,0,0,90,13.24a1.61,1.61,0,0,0-1-1.62,1.27,1.27,0,0,0-1.33,1A1.23,1.23,0,0,0,88.52,14Z"/><path class="cls-2" d="M88.07,9.52a.82.82,0,0,0,.31,1.3,1,1,0,0,0,1.07.07.66.66,0,0,0,.84,0,.55.55,0,0,0,.21-.35,3.74,3.74,0,0,0-.12-.45q-1-.47-1.95-.9A1.07,1.07,0,0,0,88.07,9.52Z"/><path class="cls-2" d="M95.1,18a.84.84,0,0,0,1-.72.55.55,0,0,0-.45-.64.7.7,0,0,0-.84.29A.78.78,0,0,0,95.1,18Z"/><path class="cls-2" d="M91.23,11.19a.61.61,0,0,0,.84-.13s0-.05,0-.07c-.39-.21-.79-.41-1.19-.61A.68.68,0,0,0,91.23,11.19Z"/><path class="cls-2" d="M103,19.43a.76.76,0,0,0,0,.68.39.39,0,0,0,.6.27c.26-.15.48-.33.37-.68S103.13,19.27,103,19.43Z"/><path class="cls-2" d="M103.19,23.83a1,1,0,0,0,.9-.54.89.89,0,0,0-.62-.83.66.66,0,0,0-.8.58A.73.73,0,0,0,103.19,23.83Z"/><path class="cls-2" d="M104.45,20.11a.77.77,0,0,0,.39-.05l-1.07-1v0A1.19,1.19,0,0,0,104.45,20.11Z"/><path class="cls-2" d="M67.18,10a.19.19,0,0,0,0-.23.2.2,0,0,0-.28,0,.2.2,0,0,0,0,.27C67,10.09,67.14,10.05,67.18,10Z"/><path class="cls-2" d="M97.62,14.3c-.87-.59-1.75-1.15-2.65-1.69a1.73,1.73,0,0,1,.15.2,1.57,1.57,0,0,0,0,1.75,1.65,1.65,0,0,0,2.45-.22Z"/><path class="cls-2" d="M96.55,22.77a.94.94,0,0,0,1-.92c.06-.46-.26-.76-.88-.85s-.9.15-.93.53A1.69,1.69,0,0,0,96.55,22.77Z"/><path class="cls-2" d="M91.9,14.32a1.76,1.76,0,0,0,0-.61.64.64,0,0,0-.91.23c-.14.28,0,.43.22.56A.44.44,0,0,0,91.9,14.32Z"/><path class="cls-2" d="M65.93,9.94a.69.69,0,0,0,.92-.2.63.63,0,0,0-.23-.83.57.57,0,0,0-.84.12A.63.63,0,0,0,65.93,9.94Z"/><path class="cls-2" d="M118.48,55a1,1,0,0,0,1.21-.12c.36-.6-.13-1.15-.4-1.42s-1,.17-1.17.75A.65.65,0,0,0,118.48,55Z"/><path class="cls-2" d="M121.49,51.42a.79.79,0,0,0,.23-1.05,2.15,2.15,0,0,0-.75-.12c-.36.07-.49.58-.3,1A.59.59,0,0,0,121.49,51.42Z"/><path class="cls-2" d="M119.84,45c-.26.47.12,1.25.76,1.56a.88.88,0,0,0,.82,0c-.21-.69-.44-1.37-.68-2.05A1.09,1.09,0,0,0,119.84,45Z"/><path class="cls-2" d="M116.48,52.6a1.07,1.07,0,0,0,1.15-.56.83.83,0,0,0-.3-.92c-.59-.28-1.21-.18-1.38.22A1.19,1.19,0,0,0,116.48,52.6Z"/><path class="cls-2" d="M118.5,44.67a.73.73,0,0,0,.37-.51.55.55,0,0,0-.24-.46c-.38-.18-.65,0-.85.41C117.93,44.41,118.07,44.78,118.5,44.67Z"/><path class="cls-2" d="M117.56,56.23a.72.72,0,0,0,.43-.84.71.71,0,0,0-.8-.36.83.83,0,0,0-.43.86A.65.65,0,0,0,117.56,56.23Z"/><path class="cls-2" d="M120.58,49.31a1.49,1.49,0,0,0-.59-1.74l-.17-.07a.64.64,0,0,0-.84-.24,1.17,1.17,0,0,0-.65,1l0,.05a1.1,1.1,0,0,0,.45,1.48A1.44,1.44,0,0,0,120.58,49.31Z"/><path class="cls-2" d="M64.56,7.06a.64.64,0,0,0,.91-.18.58.58,0,0,0-.26-.81.67.67,0,0,0-.9.26A.51.51,0,0,0,64.56,7.06Z"/><path class="cls-2" d="M122.53,50.84c-.06-.29-.13-.58-.2-.87,0,0,0,0,0,.05A.65.65,0,0,0,122.53,50.84Z"/><path class="cls-2" d="M55,4.72l0,0-.89.15A1.32,1.32,0,0,0,55,4.72Z"/><path class="cls-2" d="M67,4.31a1.53,1.53,0,0,0,.16-.22c-.65,0-1.31,0-2-.06a.8.8,0,0,0,.14.24A1.27,1.27,0,0,0,67,4.31Z"/><path class="cls-2" d="M54.21,6.1a.74.74,0,0,0-.14-.93c-.27-.17-.91-.09-1,.13a.92.92,0,0,0,.28,1.08A.66.66,0,0,0,54.21,6.1Z"/><path class="cls-2" d="M123.9,60.65a1.17,1.17,0,0,0,0,.59Z"/><path class="cls-2" d="M96.52,35.72a.59.59,0,0,0-.27.53c0,.14.39.49.56.43s.25-.52.2-.62S96.66,35.69,96.52,35.72Z"/><path class="cls-2" d="M79.58,17.67a5.71,5.71,0,0,0,.44-.85,1.31,1.31,0,0,0-.61-1.4.53.53,0,0,0-.72.07,3.76,3.76,0,0,0-.91,2,1.23,1.23,0,0,0,.06.34.83.83,0,0,0,1.23.46.49.49,0,0,0,.32-.17A.61.61,0,0,0,79.58,17.67Z"/><path class="cls-2" d="M79,22.24c.3-.26,0-1.11-.27-1.14s-.81.72-.57,1A.65.65,0,0,0,79,22.24Z"/><path class="cls-2" d="M78.62,19.22c-.05-.18-.41-.16-.49-.11a.44.44,0,0,0-.2.41c0,.15.3.18.43.15S78.68,19.39,78.62,19.22Z"/><path class="cls-2" d="M87.93,32.56c0,.07.13.29.19.29s.33-.1.37-.21a.37.37,0,0,0-.2-.47C88,32.09,88,32.43,87.93,32.56Z"/><path class="cls-2" d="M89.6,30.77a.34.34,0,0,0,.27.39.36.36,0,0,0,.46-.35A.37.37,0,0,0,90,30.4.41.41,0,0,0,89.6,30.77Z"/><path class="cls-2" d="M90.7,26c.07-.47-.12-.76-.53-.82-.58-.09-1.24.29-1.29.74s.43.86.9.91A.91.91,0,0,0,90.7,26Z"/><path class="cls-2" d="M84,8.18c0,.07,0,.18.13.19a.18.18,0,0,0,.22-.16c0-.13-.12-.19-.18-.2S84,8.13,84,8.18Z"/><path class="cls-2" d="M60.08,17.81a.38.38,0,0,0-.12.5c.15.22.41,0,.52-.09a.35.35,0,0,0,0-.34A.52.52,0,0,0,60.08,17.81Z"/><path class="cls-2" d="M61.21,12.86a.9.9,0,0,0-.16-1.22,1.34,1.34,0,0,0-1.63.39,1,1,0,0,0,1.79.83Z"/><path class="cls-2" d="M59,15a1.19,1.19,0,0,0-1.75.11,1.08,1.08,0,0,0-.06,1.6,1.36,1.36,0,0,0,1.8.05A1.43,1.43,0,0,0,59,15Z"/><path class="cls-2" d="M73.58,14.6c-.44-.85-1.22-.24-1.3-.87s.53-.42.37-1.3-1-1.25-1.48-.82-.28,1-.41,1-.79.2-.7.69c-.12-.06-.26-.09-.33,0s0,.45.06.53a.39.39,0,0,0,.45.05.3.3,0,0,0,0-.08c.34.39.9.19,1,.41s.08.95.28,1.39c.27.62.87,1,1.49.66A1.16,1.16,0,0,0,73.58,14.6Z"/><path class="cls-2" d="M72.17,21.36c-.08.12-.17.39,0,.53a.4.4,0,0,0,.52-.1c.09-.1.27-.45,0-.65S72.24,21.24,72.17,21.36Z"/><path class="cls-2" d="M69,11.56a1,1,0,0,0,0-1.21c-.54-.44-1.15,0-1.45.19s0,1,.57,1.26A.63.63,0,0,0,69,11.56Z"/><path class="cls-2" d="M68.08,18.8c0,.11,0,.2,0,.25a.24.24,0,0,0,.19,0c0-.09.08-.21,0-.27S68.17,18.79,68.08,18.8Z"/><path class="cls-2" d="M89.12,16.45a1.09,1.09,0,0,0,.08-.15c.24-.05.63-.16.65-.38s-.52-.46-.72-.48a.16.16,0,0,0-.1,0h0a1.38,1.38,0,0,0-1.35.1A.89.89,0,0,0,88,16.85C88.3,17.09,88.78,16.93,89.12,16.45Z"/><path class="cls-2" d="M115.11,85c.08-.16-.17-.36-.28-.43a.36.36,0,0,0-.36.12c0,.11.09.31.19.4S115,85.21,115.11,85Z"/><path class="cls-2" d="M94.57,31.85c0,.26,0,.58.36.57s.54-.21.57-.37-.18-.45-.25-.61C94.76,31.37,94.61,31.6,94.57,31.85Z"/><path class="cls-2" d="M116.16,65.91c.1-.28.08-.55-.18-.69a3.7,3.7,0,0,0-2.09-.63.88.88,0,0,0-.33.12.83.83,0,0,0,0,1.51,5.38,5.38,0,0,0,1.3.5A1.32,1.32,0,0,0,116.16,65.91Z"/><path class="cls-2" d="M115.21,79.73a.38.38,0,0,0-.15-.41c-.1-.07-.47-.09-.54.05s.15.43.25.47A.38.38,0,0,0,115.21,79.73Z"/><path class="cls-2" d="M120.72,70.61a1.38,1.38,0,0,0,.38-1.27,1.17,1.17,0,0,0-.91-.93l-.12,0a1.11,1.11,0,0,0,.61-.55c.16-.38-.09-.81-.63-1.06a.94.94,0,0,0-1.15.25,1.22,1.22,0,0,0,.41,1.39.55.55,0,0,0,.18.06,1.21,1.21,0,0,0-.41.38,2.05,2.05,0,0,0-.31,1.4.93.93,0,0,1-.12.52.85.85,0,0,0,.37,1.37.41.41,0,0,0-.15.2c-.1.28.14.66.5.82a.78.78,0,0,0,1-.31A.66.66,0,0,0,120,72h0a1.27,1.27,0,0,0,.29-.58A1.23,1.23,0,0,1,120.72,70.61Z"/><path class="cls-2" d="M123.71,67.74a.69.69,0,0,0-.87.35.72.72,0,0,0,.37.93.71.71,0,0,0,.57,0c0-.39.06-.77.08-1.16Z"/><path class="cls-2" d="M122,77a.61.61,0,0,0,.26.81l.08,0c.11-.42.21-.85.3-1.28A.69.69,0,0,0,122,77Z"/><path class="cls-2" d="M114.87,73.53c-.11-.37-.4-.44-1.12-.31-.08.37-.31.76.15,1a.6.6,0,0,0,.85-.13A.78.78,0,0,0,114.87,73.53Z"/><path class="cls-2" d="M104.15,27.53a1,1,0,0,0,1.18-1,1.76,1.76,0,0,0,0-.61,1.41,1.41,0,0,0,.84-.06.76.76,0,0,0,.37-.76,1.43,1.43,0,0,0,1.33-1A1.18,1.18,0,0,0,107,22.7a1.89,1.89,0,0,0-1.61,1.13.83.83,0,0,0,.09.55h-.06a1.27,1.27,0,0,0-.59.84,1.62,1.62,0,0,0-.55-.17,1.28,1.28,0,0,0-1.39,1.14C102.82,26.74,103.47,27.42,104.15,27.53Z"/><path class="cls-2" d="M97.7,29.19c1,.19,1,.12,1-.72-.42-.3-.76-.18-1.06.22-1.12-.49-1.65,0-1.53,1.27a1.1,1.1,0,0,1-.21.14c-.33.13-.37.4-.33.71s.22.43.5.53c.67.22,1,.07,1.14-.62C97.39,30.21,97.55,29.69,97.7,29.19Z"/><path class="cls-2" d="M96.1,24.53a1,1,0,0,0-.84-1.17,1.32,1.32,0,0,0-1.41,1.14,1.33,1.33,0,0,0,1,1.22C95.5,25.8,96,25.31,96.1,24.53Z"/><path class="cls-2" d="M103.12,32.37c-.09-.22-.5-.28-.84-.13a.38.38,0,0,0-.22.56c.14.27.34.47.69.35A.69.69,0,0,0,103.12,32.37Z"/><path class="cls-2" d="M102.37,51.15c-.08,0-.3.22-.24.39s.39.12.51.08a.32.32,0,0,0,.15-.34C102.74,51.17,102.5,51.14,102.37,51.15Z"/><path class="cls-2" d="M102.61,29.57a1.14,1.14,0,0,0-1.31,1.08,1.15,1.15,0,0,0,1,1.15c.56.07,1.11-.51,1.19-1.24A.88.88,0,0,0,102.61,29.57Z"/><path class="cls-2" d="M57.1,19.92c-.17.16-.08.57.19.83a.36.36,0,0,0,.59,0c.2-.23.32-.49.08-.77A.68.68,0,0,0,57.1,19.92Z"/><path class="cls-2" d="M116.81,58.62c.61-.16.5.46,1.34.17s1.1-1.18.6-1.57-1-.15-1.07-.27-.31-.76-.78-.59c-1,.36-.44,1.17-.71,1.36s-.92.22-1.33.48c-.57.36-.89,1-.44,1.57a1.47,1.47,0,0,0,.35.32.66.66,0,0,0,.23.17c.3.16.8.65,1.21.39s.12-.6.15-.82v0C116.76,59.31,116.28,58.76,116.81,58.62Z"/><path class="cls-2" d="M33.62,14.48c.33.14.92-.45.8-.71s-.9-.36-1.05,0A.61.61,0,0,0,33.62,14.48Z"/><path class="cls-2" d="M111.89,65c-.14.06-.14.33-.09.45s.32.28.49.2.09-.43,0-.51A.43.43,0,0,0,111.89,65Z"/><path class="cls-2" d="M112.79,62.27a1.06,1.06,0,0,0-.21-.74c-.17-.19-.67,0-.74.32a1.41,1.41,0,0,0,.1.54C112.38,62.61,112.76,62.54,112.79,62.27Z"/><path class="cls-2" d="M25.33,18.16c-.13.22-.36.81-.2,1s.76-.13.78-.22c.08-.28.24-.63,0-.88S25.4,18,25.33,18.16Z"/><path class="cls-2" d="M123,59.17a.42.42,0,0,0,.68-.19c.06-.2.15-.58-.11-.7a.35.35,0,0,0-.2-.05.89.89,0,0,0,.21-.91l.09.08c-.06-.59-.14-1.18-.22-1.76a.36.36,0,0,1-.1-.55s0-.05,0-.07c0-.28-.1-.56-.14-.85a1.69,1.69,0,0,0-.42-.36,1.17,1.17,0,0,0-.68-.13.32.32,0,0,0,0-.09,1,1,0,0,0-1.16-.33,1,1,0,0,0,.06,1.19.61.61,0,0,0,.35.15c.1.4.33.52.22.66s-.56.35-.49.71,1.15.62,1.33.57.6-.38.8,0a1.76,1.76,0,0,1,.17.42.59.59,0,0,0-.7-.15c-.55.23-.92.89-.73,1.3a.91.91,0,0,0,.87.41h0C122.55,58.64,122.7,59,123,59.17Z"/><path class="cls-2" d="M118.92,63.8a1.31,1.31,0,0,0-.58-1.49,1,1,0,0,0-1,.61.84.84,0,0,0,.51,1.19C118.31,64.31,118.78,64.19,118.92,63.8Z"/><path class="cls-2" d="M117.57,79.61c-.29-.1-.42.08-.52.3a.43.43,0,0,0,.28.66,2.18,2.18,0,0,0,.61-.09A.65.65,0,0,0,117.57,79.61Z"/><path class="cls-2" d="M85.09,10.23a.93.93,0,0,0,.74,1,.63.63,0,0,0,.83-.42,1.08,1.08,0,0,0-.72-1.16A.75.75,0,0,0,85.09,10.23Z"/><path class="cls-2" d="M91.34,19.34a.59.59,0,0,0,.59.61.78.78,0,0,0,.73-.78c-.14-.12-.33-.4-.58-.49S91.37,18.93,91.34,19.34Z"/><path class="cls-2" d="M85.54,8l-.8-.32A1.37,1.37,0,0,0,85.54,8Z"/><path class="cls-2" d="M91.91,15.09a1.13,1.13,0,0,0-1.19.78A1.2,1.2,0,0,0,91.6,17c.37.06.83-.38.9-.87S92.39,15.17,91.91,15.09Z"/><path class="cls-2" d="M100.24,23.9a1.12,1.12,0,0,0,.74,1.22c.35.05,1-.66,1-1.1a.9.9,0,0,0-1.78-.12Z"/><path class="cls-2" d="M101.68,28c-.13.07-.37.22-.29.36a.44.44,0,0,0,.42.19c.11,0,.4-.29.32-.43A.43.43,0,0,0,101.68,28Z"/><path class="cls-2" d="M46.4,14.05a.61.61,0,0,0,.12.9c.25.18.52.39.75.17.39-.42.43-.83.19-1.08A.7.7,0,0,0,46.4,14.05Z"/><path class="cls-2" d="M44.46,8.27a1.41,1.41,0,0,0,2-.08,1.32,1.32,0,0,0,.22-1.65c-.86.26-1.72.54-2.56.84A1.06,1.06,0,0,0,44.46,8.27Z"/><path class="cls-2" d="M34.32,23.31a.71.71,0,0,0,0,1,.66.66,0,0,0,1,0,.7.7,0,0,0,0-.93A.67.67,0,0,0,34.32,23.31Z"/><path class="cls-2" d="M53.51,22.39a.43.43,0,0,0,.05.46c.11.09.34.26.45.14a.45.45,0,0,0,0-.46C54,22.44,53.62,22.26,53.51,22.39Z"/><path class="cls-2" d="M49.94,19.45a.78.78,0,0,0-1,.07.92.92,0,0,0-.08,1.19,1.2,1.2,0,0,0,1.37.09C50.45,20.55,50.3,19.82,49.94,19.45Z"/><path class="cls-2" d="M49.19,27.3a.48.48,0,0,0,.05.52.45.45,0,0,0,.42,0,.4.4,0,0,0,0-.41C49.62,27.33,49.32,27.14,49.19,27.3Z"/><path class="cls-2" d="M47.71,11a1.06,1.06,0,0,0-1.28,0,.94.94,0,0,0,.14,1.17.57.57,0,0,0,.84-.11C47.83,11.59,47.94,11.21,47.71,11Z"/><path class="cls-2" d="M37.75,13.64a.88.88,0,0,0-1.31.06A1.05,1.05,0,0,0,36.29,15a1.27,1.27,0,0,0,1.44,0A.87.87,0,0,0,37.75,13.64Z"/><path class="cls-2" d="M35.71,11.14c.46.52,1,.39,1.49.1.22.31.32.76.84.58a.6.6,0,0,0,.44-.66c0-.54-.49-.54-.9-.57,0-.15,0-.29-.08-.43l-1.83.94S35.69,11.13,35.71,11.14Z"/><path class="cls-2" d="M54,11.85c-.26-.42-.65-.47-1.17,0a13.2,13.2,0,0,0-.52,1.31.59.59,0,0,0,.42.75.62.62,0,0,0,.79-.36,1.8,1.8,0,0,1,.32-.49A1,1,0,0,0,54,11.85Z"/><path class="cls-2" d="M35.48,16.42A.83.83,0,0,0,34,16.36a4.79,4.79,0,0,0-.55,1.27A1.29,1.29,0,0,0,34.16,19c.28.12,1,.14,1.05-.47-.35-1,.39-1,.37-1.74A1,1,0,0,0,35.48,16.42Z"/><path class="cls-2" d="M38.52,18.88a.47.47,0,0,0,0-.74.65.65,0,0,0-.59.07c-.13.11-.32.54-.19.7S38.36,19,38.52,18.88Z"/><path class="cls-2" d="M40.81,17.58c-.32-.33-.78-.27-1.21.16a.71.71,0,0,0-.14,1,1.4,1.4,0,0,0,1.44.13A.85.85,0,0,0,40.81,17.58Z"/><path class="cls-2" d="M31.45,19.94a.19.19,0,0,0,0,.26c0,.05.2,0,.24,0a.18.18,0,1,0-.27-.23Z"/><path class="cls-2" d="M82.64,15.33a.67.67,0,0,0-.21,1.1.94.94,0,0,0,.77.17.75.75,0,0,0,.39-.57A.77.77,0,0,0,82.64,15.33Z"/><path class="cls-2" d="M81.53,20.19c.19,0,.23-.67.14-1.07a.7.7,0,0,0,.13.16s.31-.09.31-.16,0-.4-.16-.48-.36.2-.36.26h0l-.06-.08c-.23-.18-.75.21-.83.71S81.28,20.24,81.53,20.19Z"/><path class="cls-2" d="M98.57,28.32a.48.48,0,0,0,.21-.37c0-.09-.31-.34-.41-.3s-.14.39-.11.52S98.52,28.36,98.57,28.32Z"/><path class="cls-2" d="M85.22,15.5a.65.65,0,0,0-.92.11.68.68,0,0,0,.13.93.75.75,0,0,0,1-.14A.65.65,0,0,0,85.22,15.5Z"/><path class="cls-2" d="M93.61,21.49a.68.68,0,0,0,.14-1.36.75.75,0,0,0-.71.63A.66.66,0,0,0,93.61,21.49Z"/><path class="cls-2" d="M98.48,33.12a.66.66,0,0,0,.38-.77A.65.65,0,0,0,98,32a.53.53,0,0,0-.36.75A.63.63,0,0,0,98.48,33.12Z"/><path class="cls-2" d="M93,18.34a.36.36,0,0,0-.43.09c-.08.08-.16.44,0,.53s.45-.08.51-.18S93.08,18.43,93,18.34Z"/><path class="cls-2" d="M92.51,24.73a1.85,1.85,0,0,0-.4-1.92,1.25,1.25,0,0,0-1.66.46,1.39,1.39,0,0,0,.36,1.7A1.26,1.26,0,0,0,92.51,24.73Z"/><path class="cls-2" d="M87.36,18.85a.62.62,0,0,0,0-.87.83.83,0,0,0-.59-.2c-.38,0-.49.34-.46,1.06C86.65,19,87,19.27,87.36,18.85Z"/><path class="cls-2" d="M92.4,30.78c.11,0,.49,0,.49-.21s-.23-.33-.32-.33-.42,0-.43.16A.47.47,0,0,0,92.4,30.78Z"/><path class="cls-2" d="M75.45,16.33a.47.47,0,0,0-.72.21.83.83,0,0,0,0,.66c.11.15.73.21.89,0A.61.61,0,0,0,75.45,16.33Z"/><path class="cls-2" d="M74.13,9A.84.84,0,0,0,73,9.1a1.06,1.06,0,0,0,.12,1.29,1.16,1.16,0,0,0,1.48-.26C74.75,9.84,74.53,9.3,74.13,9Z"/><path class="cls-2" d="M74.77,19.11a1.23,1.23,0,0,0,.55,0c.28-.4.26-.79,0-.86a1,1,0,0,0-.76.1C74.34,18.47,74.48,19,74.77,19.11Z"/><path class="cls-2" d="M99.28,26.54c.06-.4-.47-.55-.69-.67s-.54.11-.6.45.09.61.43.58S99.22,26.94,99.28,26.54Z"/><path class="cls-2" d="M74.32,23.36c.24-.55-.53-1-.79-.87s-.45.86-.18,1.07S74.08,23.92,74.32,23.36Z"/><path class="cls-2" d="M70.34,17.36c.22-.3,0-1-.42-1.28a.8.8,0,0,0-1.15.14,1.08,1.08,0,0,0,.16,1.41A1.14,1.14,0,0,0,70.34,17.36Z"/><path class="cls-2" d="M70.15,25.77a.44.44,0,0,0,.42-.09.36.36,0,0,0-.09-.51c-.25-.14-.4.12-.46.22A.38.38,0,0,0,70.15,25.77Z"/><path class="cls-2" d="M75.31,13.84c.14-.12,0-.4-.11-.5a.33.33,0,0,0-.37,0c-.09.08,0,.32,0,.44S75.17,14,75.31,13.84Z"/><path class="cls-2" d="M76.61,13.86a.84.84,0,0,0,1.25-.33c.27-.47.22-.95-.14-1.15a1.32,1.32,0,0,0-1.56.37A1,1,0,0,0,76.61,13.86Z"/><path class="cls-2" d="M80.13,6.38a.65.65,0,0,0,.54.17.76.76,0,0,0,.31-.1c-1-.3-2-.56-3.06-.81A1,1,0,0,0,78.22,7a1.56,1.56,0,0,0,1.15.24.29.29,0,0,0,.14.08c.11,0,.46,0,.49-.2a.26.26,0,0,0-.1-.2A.73.73,0,0,0,80,6.87,1.12,1.12,0,0,0,80.13,6.38Z"/><path class="cls-2" d="M82.33,12.66a.56.56,0,0,0,.09-.17,1,1,0,0,0,.22.35,1.3,1.3,0,0,0-.11.46.89.89,0,0,0,.86,1.07,1,1,0,0,0,1-.8.74.74,0,0,1,.13.08A.85.85,0,0,0,86,13.48a.52.52,0,0,0,.18.18.77.77,0,0,0,.88-.38.79.79,0,0,0-.16-1.09.64.64,0,0,0-.89.28h0a1.23,1.23,0,0,0-.54-.37,1.27,1.27,0,0,1-.74-.53,1.36,1.36,0,0,0-1.2-.55,1.19,1.19,0,0,0-1.06.76l0,.12a1.08,1.08,0,0,0-.46-.68c-.35-.22-.81,0-1.13.47a.93.93,0,0,0,.08,1.17A1.21,1.21,0,0,0,82.33,12.66Z"/><path class="cls-2" d="M85.52,18.51c.29,0,.56-.13.53-.43s-.18-.83-.42-.85-.53.5-.62.72S85.22,18.5,85.52,18.51Z"/><path class="cls-2" d="M76,10.25c0-.13-.18-.28-.3-.33s-.37,0-.4.21.27.3.39.33A.34.34,0,0,0,76,10.25Z"/><path class="cls-2" d="M77.31,10.08A1.42,1.42,0,0,0,79.14,10a1.47,1.47,0,0,0-.38-1.8,1.37,1.37,0,0,0-1.68.44A1.07,1.07,0,0,0,77.31,10.08Z"/><path class="cls-2" d="M76.56,6.58a1,1,0,0,0,.13-.34h0c.48.16.74-.13,1-.52l-.07-.15c-1-.23-1.93-.43-2.91-.6a.88.88,0,0,0-.24.23,1.09,1.09,0,0,0,.41,1.62A1.1,1.1,0,0,0,76.56,6.58Z"/><path class="cls-2" d="M116.05,72a.7.7,0,0,0,.62-1.24.68.68,0,0,0-.9.26A.76.76,0,0,0,116.05,72Z"/><path class="cls-2" d="M67.79,18.22a.39.39,0,0,0-.66,0c-.13.17-.33.68-.2.81s.64,0,.85-.08S68,18.5,67.79,18.22Z"/><path class="cls-2" d="M116.15,70.14a.77.77,0,0,0,.56-1,.67.67,0,0,0-1.12,0,.88.88,0,0,0-.06.78A.72.72,0,0,0,116.15,70.14Z"/><path class="cls-2" d="M116.53,75.67a.64.64,0,0,0,1-.24,1.4,1.4,0,0,0-.29-1.32.89.89,0,0,0-1.22.47C115.77,75,116,75.4,116.53,75.67Z"/><path class="cls-2" d="M111.26,55.41c0-.08,0-.14-.07-.23s-.19,0-.24.08a.28.28,0,0,0,0,.19C111.08,55.46,111.21,55.49,111.26,55.41Z"/><path class="cls-2" d="M113.09,68.51c.14-.26-.32-.71-.83-.72s-.6.66-.52.9S113,68.76,113.09,68.51Z"/><path class="cls-2" d="M117.74,86.15c.36-.16.26-.06.59.17a.67.67,0,0,0,1.13-.33,1.33,1.33,0,0,0-.91-1.52,1.55,1.55,0,0,0-1.77,1.13C116.7,86.14,117.39,86.32,117.74,86.15Z"/><path class="cls-2" d="M111.74,49.59a1.1,1.1,0,0,0-1.38-.39A1,1,0,0,0,111.3,51,1.05,1.05,0,0,0,111.74,49.59Z"/><path class="cls-2" d="M98.83,22.74c.11,0,.4-.25.3-.42a.48.48,0,0,0-.5-.15.42.42,0,0,0-.16.39A.4.4,0,0,0,98.83,22.74Z"/><path class="cls-2" d="M110.24,70.85a1,1,0,0,0-1.33.4,1.5,1.5,0,0,0,.52,1.82,1.12,1.12,0,0,0,1.4-.56A1.2,1.2,0,0,0,110.24,70.85Z"/><path class="cls-2" d="M122,74.13c-.22.5-.1,1.07.26,1.22a1,1,0,0,0,.67,0c.11-.55.21-1.1.3-1.66A.82.82,0,0,0,122,74.13Z"/><path class="cls-2" d="M106.72,74a.52.52,0,0,0-.43-.26.54.54,0,0,0-.31.4c0,.11.23.43.42.43S106.75,74.12,106.72,74Z"/><path class="cls-2" d="M120.84,81.79c-.08.37-.2.73-.31,1.09a.54.54,0,0,0,.13.87c.28-.81.55-1.63.8-2.47A.6.6,0,0,0,120.84,81.79Z"/><path class="cls-2" d="M121.52,64.86a1.45,1.45,0,0,0,1.72-.62,1.37,1.37,0,0,0-.68-1.61,1.08,1.08,0,0,0-1.42.44A1.41,1.41,0,0,0,121.52,64.86Z"/><path class="cls-2" d="M64.22,15.3a.78.78,0,0,0-.6.14c-.21.19,0,.71.25.78a1.08,1.08,0,0,0,.5-.07C64.59,15.75,64.5,15.36,64.22,15.3Z"/><path class="cls-2" d="M119.27,77.15c-.29-.1-.42.09-.52.3a.44.44,0,0,0,.28.67,1.85,1.85,0,0,0,.61-.1A.65.65,0,0,0,119.27,77.15Z"/><path class="cls-2" d="M100.8,42.94a.38.38,0,0,0,.23-.61c-.11-.19-.51-.56-.68-.49s-.25.6-.23.82S100.45,43.05,100.8,42.94Z"/><path class="cls-2" d="M108.82,80.21a1.84,1.84,0,0,0,1.84-.67A1.26,1.26,0,0,0,110,78a1.41,1.41,0,0,0-1.64.6A1.26,1.26,0,0,0,108.82,80.21Z"/><path class="cls-2" d="M103.78,36.29a.49.49,0,0,0,.21-.37.36.36,0,0,0-.41-.3c-.26.06-.14.39-.12.52A.42.42,0,0,0,103.78,36.29Z"/><path class="cls-2" d="M100,35.16a.77.77,0,0,0,.55-.31c.23-.46,0-.76-.51-1-.35.22-.76.35-.67.84A.57.57,0,0,0,100,35.16Z"/><path class="cls-2" d="M100.15,20.31a1.21,1.21,0,0,0-.18-.62.59.59,0,0,0,.64-.5.68.68,0,0,0-.82-.75c-.45.07-.61-.2-.89-.46a3.25,3.25,0,0,0,.25-.34.47.47,0,0,0,.21-.06.52.52,0,0,0,.06.2.73.73,0,0,0,.79.33c.31-.12.31-.66.25-.94a1.17,1.17,0,0,0-.83-.59c0-.17.06-.16.29-.39L100,16c-.43-.32-.87-.63-1.31-.94a1.9,1.9,0,0,0-.62.61.89.89,0,0,0-.09.38c-.33,0-.52.22-.6.66A1,1,0,0,0,98,18.06a2.86,2.86,0,0,1-.69.21.63.63,0,0,0-.68.53.92.92,0,0,0,.26,1c1.09.82,1.49.8,2.45-.14l.09-.06h0a1.54,1.54,0,0,0-.28.45.42.42,0,0,0,.31.6A.51.51,0,0,0,100.15,20.31Z"/><path class="cls-2" d="M104.36,47c.11,0,.38-.28.32-.43s-.42-.18-.52-.13a.39.39,0,0,0-.21.4C104,47,104.25,47,104.36,47Z"/><path class="cls-2" d="M99.54,26.67a.19.19,0,0,0,.1-.26.21.21,0,0,0-.26-.07c-.06,0-.08.19,0,.23S99.45,26.71,99.54,26.67Z"/><path class="cls-2" d="M101.34,27.21a1.07,1.07,0,0,0,.43-1.05.68.68,0,0,0-.9-.27.63.63,0,0,0-.26.89C100.79,27.18,101.08,27.35,101.34,27.21Z"/><path class="cls-2" d="M108.05,41a1.13,1.13,0,0,0,.26-1.41c-.22-.46-.67-.56-1.25-.27a.89.89,0,0,0-.39,1C106.84,40.68,107.75,41.11,108.05,41Z"/><path class="cls-2" d="M107.57,62c.58.16.92-.66.75-.91s-.91-.32-1.09,0S107,61.85,107.57,62Z"/><path class="cls-2" d="M104.74,58.63a.36.36,0,0,0,.5-.16c.09-.27-.18-.38-.3-.43a.39.39,0,0,0-.35.19A.44.44,0,0,0,104.74,58.63Z"/><path class="cls-2" d="M106.85,43.4c-.14-.19-.57-.59-.81-.49s-.14.72-.07.94.34.35.63.18S107,43.65,106.85,43.4Z"/><path class="cls-2" d="M106,36.74c.1-.4-.32-.85-.91-1a.75.75,0,0,0-.79.53.93.93,0,0,0,.56,1.05A1.09,1.09,0,0,0,106,36.74Z"/><path class="cls-2" d="M105.77,67.25a.65.65,0,0,0,.56-.18.41.41,0,0,0-.18-.64c-.17-.07-.65-.15-.8.21S105.62,67.2,105.77,67.25Z"/><path class="cls-2" d="M110.05,39.67c-.07-.14-.5-.41-.66-.32s-.22.64-.15.7.53.34.66.23A.68.68,0,0,0,110.05,39.67Z"/><path class="cls-2" d="M114.69,62.12a.47.47,0,0,0-.31-.68.83.83,0,0,0-.64.13.74.74,0,0,0,.16.88A.61.61,0,0,0,114.69,62.12Z"/><path class="cls-2" d="M119.58,61.57a.68.68,0,0,0,.37-.79.57.57,0,0,0-.75-.38.66.66,0,0,0-.37.79A.56.56,0,0,0,119.58,61.57Z"/><path class="cls-2" d="M120.77,52.33a.57.57,0,0,0-.24-.82.63.63,0,0,0-.88.28.69.69,0,0,0,.33.88A.63.63,0,0,0,120.77,52.33Z"/><path class="cls-2" d="M114.15,56.61a.8.8,0,0,0-.3-1.11,1.15,1.15,0,0,0-1.24.19c-.06-.13-.17-.32-.36-.28s-.21.36-.17.41a.56.56,0,0,0,.36.21,1.15,1.15,0,0,0,.5,1.19C113.27,57.39,113.92,57.06,114.15,56.61Z"/><path class="cls-2" d="M111.83,38.33a.68.68,0,0,0-.39-.78.5.5,0,0,0-.69.12c-.32.39-.15.74.11,1.13C111.29,38.75,111.73,38.82,111.83,38.33Z"/><path class="cls-2" d="M111.53,42.26c-.09-.06-.46-.09-.53.06s.15.43.25.47a.37.37,0,0,0,.43-.11C111.76,42.53,111.63,42.33,111.53,42.26Z"/><path class="cls-2" d="M111.79,47.08c.41-.15.6-.46.5-.79a1.09,1.09,0,0,0-1.21-.63.75.75,0,0,0-.45.92A.94.94,0,0,0,111.79,47.08Z"/><path class="cls-2" d="M120.71,60.37c.3.13.81-.16,1-.59a.84.84,0,0,0-.25-1.14,1.06,1.06,0,0,0-1.26.3A1.17,1.17,0,0,0,120.71,60.37Z"/><path class="cls-2" d="M40.92,12.49a.89.89,0,0,0,.15-1.17.74.74,0,0,0-1-.11,1,1,0,0,0,0,1.28A.57.57,0,0,0,40.92,12.49Z"/><path class="cls-2" d="M29.48,15a.1.1,0,0,0,0-.05l-.26.19A.59.59,0,0,0,29.48,15Z"/><path class="cls-2" d="M110.26,36.07a1.25,1.25,0,0,0,1.43-.51,1,1,0,0,0,.76-.43,5.25,5.25,0,0,0,.37-.79c.13,0,.28,0,.41-.08l.23-.11a1.57,1.57,0,0,0,.42,0,.72.72,0,0,0-.18.48c0,.38-.84.21-.83.74s-.58.76-.49,1.4.59,1.2,1.1.93a2.19,2.19,0,0,0,.92-1.15.55.55,0,0,0,.86-.31.56.56,0,0,0-.58-.59c.49-.12,1.42-.5,1.09-1.35a1.14,1.14,0,0,0-1.22-.58h0a1.26,1.26,0,0,0,0-1.12,1.12,1.12,0,0,0-.85-.55,1.58,1.58,0,0,0-.29-.22.75.75,0,0,0-.57-.07,1.19,1.19,0,0,0-.86,1.46c0,.14.05.28.08.43a7.82,7.82,0,0,0-.78.14l-.08,0c-.4-.12-1,.23-1.32.71A1.17,1.17,0,0,0,110.26,36.07Z"/><path class="cls-2" d="M41.39,15.63a.66.66,0,0,0-.92.12.55.55,0,0,0,.05.83.71.71,0,0,0,.94,0A.68.68,0,0,0,41.39,15.63Z"/><path class="cls-2" d="M31,24.72a.59.59,0,0,0,.12-.88.53.53,0,0,0-.51-.1.68.68,0,0,0-.37.48C30.22,24.65,30.74,24.79,31,24.72Z"/><path class="cls-2" d="M123.53,67.5a1.82,1.82,0,0,0,.35.12c0-.48.05-1,.07-1.45a1.3,1.3,0,0,0-.68.55A.54.54,0,0,0,123.53,67.5Z"/><path class="cls-2" d="M30.21,18.5A.93.93,0,0,0,30,17.26a.87.87,0,0,0-1.31,0,.86.86,0,0,0-.12,1.23A1.28,1.28,0,0,0,30.21,18.5Z"/><path class="cls-2" d="M110.44,66.06c0-.29-.83-.7-1.09-.42a.67.67,0,0,0,0,.86C109.65,66.75,110.45,66.35,110.44,66.06Z"/><path class="cls-2" d="M108.64,28.43a1.09,1.09,0,0,0-.28-.86.6.6,0,0,0,.29-.6c0-.45-.43-.54-.84-.66-.27.31-.64.6-.34,1a.44.44,0,0,0,.09.11,1.52,1.52,0,0,0-.66,1,.65.65,0,0,0,.63.68C108.11,29.18,108.61,28.87,108.64,28.43Z"/><path class="cls-2" d="M109.07,33.94a.73.73,0,0,0,.46-.41c.1-.45-.28-.56-.61-.67-.35.22-.55.49-.34.86A.57.57,0,0,0,109.07,33.94Z"/><path class="cls-2" d="M108.34,31.81a.31.31,0,0,0-.12-.48.72.72,0,0,0-.56.11c-.17.08-.36.13-.45.31s.13.43.42.42A1,1,0,0,0,108.34,31.81Z"/><path class="cls-2" d="M105.64,28.52c-.17.15-.36.31-.34.52s.6.47.89.31.22-.37.13-.58A.44.44,0,0,0,105.64,28.52Z"/><path class="cls-2" d="M107,35.93c.61-.21.83-.91.54-1.67a1.07,1.07,0,0,0-1.46-.64,1.36,1.36,0,0,0-.71,1.66A1.43,1.43,0,0,0,107,35.93Z"/><path class="cls-2" d="M108.23,43a.65.65,0,0,0,.9.41.72.72,0,0,0,.35-.87.76.76,0,0,0-1-.34A.61.61,0,0,0,108.23,43Z"/><path class="cls-2" d="M105.85,31.85a.52.52,0,0,0,.37-.73.58.58,0,0,0-.71-.34c-.26.06-.5.73-.31.92A.74.74,0,0,0,105.85,31.85Z"/><path class="cls-2" d="M67,20.28a.62.62,0,0,0,.59-.44.88.88,0,0,0,.1-.56c-.31,0-.8-.37-1-.1s.1.73.14,1Z"/><path class="cls-2" d="M108.9,60.21c.11.08.49.21.65,0s-.18-.52-.31-.58-.41-.1-.52.12A.4.4,0,0,0,108.9,60.21Z"/><path class="cls-2" d="M43.05,8.36a.72.72,0,0,0,0-.58c-1,.37-2,.77-2.92,1.19a1.76,1.76,0,0,0,.81.54A2.26,2.26,0,0,0,43.05,8.36Z"/><path class="cls-2" d="M110.66,54.84c0-.3.25-.83,0-1s-.71.19-1,.27l0,.21c.1.38.23.43.51.53A.82.82,0,0,0,110.66,54.84Z"/><path class="cls-2" d="M107.53,49.43a.55.55,0,0,0,.26.79c.38.17,1,.05,1.09-.22s-.2-.78-.51-.92A.61.61,0,0,0,107.53,49.43Z"/><path class="cls-2" d="M109.78,56.27a.67.67,0,0,0-.39-.78.5.5,0,0,0-.69.12c-.33.39-.15.74.11,1.13C109.24,56.69,109.68,56.75,109.78,56.27Z"/><path class="cls-2" d="M105.61,32.44a1,1,0,0,0,.81,1.07c.48.1.79-.17.91-.79.08-.42-.2-1-.52-1.07A1.15,1.15,0,0,0,105.61,32.44Z"/><path class="cls-2" d="M108.73,45.13c-.06,0-.08.19-.06.24s.13.13.21.09a.19.19,0,0,0,.11-.25A.22.22,0,0,0,108.73,45.13Z"/><path class="cls-2" d="M59.44,24.88a.63.63,0,0,0,.05-.92.66.66,0,0,0-.86-.06.65.65,0,0,0,0,.93A.51.51,0,0,0,59.44,24.88Z"/><path class="cls-2" d="M57.94,11.92a1.21,1.21,0,0,0-2.39-.23c-.11.46.49,1,1.14,1.12A1.18,1.18,0,0,0,57.94,11.92Z"/><path class="cls-2" d="M62,16.33c0-.12-.05-.4-.19-.54a.71.71,0,1,0-.95,1C61.08,17,61.6,16.82,62,16.33Z"/><path class="cls-2" d="M56.34,15.28a.36.36,0,0,0,0-.45c-.15-.11-.38.12-.46.22a.32.32,0,0,0,.07.36C56,15.48,56.24,15.37,56.34,15.28Z"/><path class="cls-2" d="M55.77,16.53c-.13-.1-.35,0-.43.09s-.15.44,0,.53.45-.08.5-.18S55.91,16.62,55.77,16.53Z"/><path class="cls-2" d="M43.44,21c.34-.35.42-.93.16-1.17a1.29,1.29,0,0,0-1.6,0A.81.81,0,0,0,42.13,21,.88.88,0,0,0,43.44,21Z"/><path class="cls-2" d="M56.39,13.81a.71.71,0,0,0-.55-.28c-.45.07-.41.46-.4.81.33.24.66.33.93,0A.56.56,0,0,0,56.39,13.81Z"/><path class="cls-2" d="M61.86,21.6a.57.57,0,0,0,.83-.14c.22-.35.18-1-.07-1.11s-.8.09-1,.37A.61.61,0,0,0,61.86,21.6Z"/><path class="cls-2" d="M66,13.41a1.67,1.67,0,0,0,.71-.33c.22-.18.2-.45-.07-.65a.57.57,0,0,0-.52-.15.72.72,0,0,0-.27-.3.79.79,0,0,0-1,.17c-.37.54-.36,1.17,0,1.4A1.15,1.15,0,0,0,66,13.41Z"/><path class="cls-2" d="M65.11,11.3a.66.66,0,0,0,0-1,.71.71,0,0,0-.94,0,.75.75,0,0,0,0,1A.61.61,0,0,0,65.11,11.3Z"/><path class="cls-2" d="M66.76,16a.41.41,0,0,0,.63-.24c.08-.2.25-.73,0-.85s-.73.18-.86.36S66.46,15.8,66.76,16Z"/><path class="cls-2" d="M63.07,14.06c-.24-.2-.48,0-.63.24s-.08.65.19.71.67.21.81-.14S63.24,14.2,63.07,14.06Z"/><path class="cls-2" d="M63.21,24.9c.13-.07.33-.54.21-.67s-.58-.06-.65,0-.23.46-.14.58S63.08,25,63.21,24.9Z"/><path class="cls-2" d="M63.61,8.67A1.5,1.5,0,0,0,61.8,9c-.39.51-.16,1.27.54,1.78a1.07,1.07,0,0,0,1.52-.24A1.43,1.43,0,0,0,63.61,8.67Z"/><path class="cls-2" d="M55.71,18.23a.73.73,0,0,0-.09-.66.51.51,0,0,0-.81-.08.57.57,0,0,0-.06.78C54.9,18.5,55.61,18.47,55.71,18.23Z"/><path class="cls-2" d="M48.75,14a.72.72,0,0,0,0,.94c.39.34.78.14,1.16,0,.08-.77,0-1.06-.42-1.18A.65.65,0,0,0,48.75,14Z"/><path class="cls-2" d="M51.21,13.07c.48-.52.54-.92.18-1.28a1.08,1.08,0,0,0-1.27.07,1.21,1.21,0,0,0,.17,1.29A.62.62,0,0,0,51.21,13.07Z"/><path class="cls-2" d="M49.16,17.57c.42-.28.74-.55.54-1a.64.64,0,0,0-.52-.3,1,1,0,0,0-.63.47C48.37,17.2,48.82,17.33,49.16,17.57Z"/><path class="cls-2" d="M48.79,10a1.11,1.11,0,0,1,1,.74,1,1,0,0,0,1.16.3,1.24,1.24,0,0,0,.39-.81.54.54,0,0,0,.16-.21A.58.58,0,0,0,51,9.24a.39.39,0,0,0-.45-.18,1.56,1.56,0,0,1-1.28-.29.53.53,0,0,0-.81.23C48.3,9.35,48.42,9.91,48.79,10Z"/><path class="cls-2" d="M45.84,21.08a.73.73,0,0,0-.94,0,.77.77,0,0,0,0,1,.61.61,0,0,0,.85,0A.66.66,0,0,0,45.84,21.08Z"/><path class="cls-2" d="M55,26a.4.4,0,0,0,0-.35.5.5,0,0,0-.42-.06c-.09.05-.2.41-.13.49S54.85,26.05,55,26Z"/><path class="cls-2" d="M53.17,18.16c-.24-.2-.42-.07-.59.09a.43.43,0,0,0,0,.72c.19.11.42.23.6.13A.77.77,0,0,0,53.17,18.16Z"/><path class="cls-2" d="M54.87,9.23a.69.69,0,0,0,.51,0c.34-.17.5.71,1,.5s.92.27,1.49-.05.9-1,.46-1.36a2.22,2.22,0,0,0-1.46-.44.59.59,0,0,0-.32.08,1,1,0,0,0-.13-1.16c-.33-.22-.88,0-1.2.47a.77.77,0,0,0-.89.15,1.14,1.14,0,0,0-.09,1.35h0a1.25,1.25,0,0,0-1.06.38,1.27,1.27,0,0,0,.14,1.65,1.07,1.07,0,0,0,1.43,0A1.73,1.73,0,0,0,54.87,9.23Z"/><path class="cls-2" d="M52.34,7.93l0,0,.7-.67a5.18,5.18,0,0,0-.31-.54.71.71,0,0,0-.64-.26.9.9,0,0,0-.26-.64l-.09-.09a.46.46,0,0,0-.11-.47l-1.79.41a.13.13,0,0,0,.07.06c.54.16.48.63.57,1a.66.66,0,0,0,1,.51l.13-.06a.6.6,0,0,0,.14.29A2.85,2.85,0,0,0,52.34,7.93Z"/><path class="cls-2" d="M55,16.33c.25,0,.35-.27.23-.54a1,1,0,0,0-.59-.53.32.32,0,0,0-.4.29c0,.2.15.33.31.48S54.82,16.32,55,16.33Z"/><path class="cls-2" d="M53.09,25.56a.19.19,0,0,0,0-.23.2.2,0,0,0-.28,0,.21.21,0,0,0,0,.27S53.05,25.61,53.09,25.56Z"/><path class="cls-2" d="M52.81,24.29c.31-.31.36-.65.14-.83a1.09,1.09,0,0,0-1.14,0,.66.66,0,0,0,.08.93A.62.62,0,0,0,52.81,24.29Z"/><path class="cls-3" d="M77.16,55.13,80.27,52A35.44,35.44,0,0,0,90.66,27V22.05H36.38V27A35.47,35.47,0,0,0,46.76,52l3.12,3.11a10.1,10.1,0,0,1,3,7.15h0a10.1,10.1,0,0,1-3,7.15l-3.12,3.11A35.47,35.47,0,0,0,36.38,97.6v4.91H90.66V97.6A35.44,35.44,0,0,0,80.27,72.54l-3.11-3.11a10.1,10.1,0,0,1-3-7.15h0A10.1,10.1,0,0,1,77.16,55.13Z"/><path class="cls-4" d="M45.34,94.42h37c.14-5.3-4-11.72-4-11.72H73.84a8.76,8.76,0,0,1-4.6-1.3l-1-.59a8.79,8.79,0,0,0-9.65.29h0a8.8,8.8,0,0,1-5.05,1.6h-4.7A19.79,19.79,0,0,0,45.34,94.42Z"/><path class="cls-5" d="M31.78,21.44H95.31a0,0,0,0,1,0,0v5a3.88,3.88,0,0,1-3.88,3.88H35.66a3.88,3.88,0,0,1-3.88-3.88v-5A0,0,0,0,1,31.78,21.44Z"/><path class="cls-5" d="M35.66,99.93H91.43a3.88,3.88,0,0,1,3.88,3.88v5a0,0,0,0,1,0,0H31.78a0,0,0,0,1,0,0v-5A3.88,3.88,0,0,1,35.66,99.93Z"/><path class="cls-6" d="M39.92,98.31c-.22,0-.38.25-.38.34s0,.39.21.44a.26.26,0,0,0,.34-.22C40.11,98.72,40.13,98.35,39.92,98.31Z"/><path class="cls-6" d="M44.43,85.52a1,1,0,0,0,.35.62.59.59,0,0,0,0,.17.77.77,0,0,0,.87.48.58.58,0,0,0,.57-.54.93.93,0,0,0,0-.39l0-.07c.06-.76-.22-1.29-.69-1.33A1.28,1.28,0,0,0,44.43,85.52Z"/><path class="cls-6" d="M46.29,87.62a.8.8,0,0,0,0,.29c.08-.27.17-.53.26-.78A.87.87,0,0,0,46.29,87.62Z"/><path class="cls-6" d="M50.42,99c-.58-.36-1-.39-1.24-.08a.72.72,0,0,0-.1.43.49.49,0,0,0-.47-.35c-.86,0-1,.54-1.09.89h3.22A.63.63,0,0,0,50.42,99Z"/><path class="cls-6" d="M57.38,98.06a1.06,1.06,0,0,0-.19,1.4,1.61,1.61,0,0,0,2-.13A1,1,0,0,0,58.89,98,.93.93,0,0,0,57.38,98.06Z"/><path class="cls-6" d="M45.4,83.27a.78.78,0,0,0,.25.66c.15.09.72.07.82-.11s-.19-.74-.31-.76S45.46,83.08,45.4,83.27Z"/><path class="cls-6" d="M54.65,96a1.15,1.15,0,0,0,.67.58c.58.09.61-.44.79-.88-.41-.39-.79-.67-1.25-.34A.68.68,0,0,0,54.65,96Z"/><path class="cls-6" d="M53.29,96.83a.74.74,0,0,0,.1-.44.7.7,0,0,0,.93-.07.64.64,0,0,0,.08-.95.71.71,0,0,0-1-.06.7.7,0,0,0-.2.48L53,95.54c-.87.1-1.17.29-1.2.76a.74.74,0,0,0,.09.43,1.42,1.42,0,0,0-1.12.54.92.92,0,0,0-.14.35c0-.42-.28-.87-.61-.85s-.92,1.1-.7,1.47,1.19,0,1.31-.42a.86.86,0,0,0,.21.43,1.12,1.12,0,0,0,1.32.35,1.21,1.21,0,0,0,.21-1.5A.79.79,0,0,0,53.29,96.83Z"/><path class="cls-6" d="M46.72,81.47A1.27,1.27,0,0,0,47.36,83a.86.86,0,0,0,.42.13s0,0,0,0a.55.55,0,0,0,.38.71,11.15,11.15,0,0,1,.75-1.13H49a.66.66,0,0,0-.2-.16.33.33,0,0,0-.14,0s0-.06.08-.11a1,1,0,0,0-.29-1.21A1.71,1.71,0,0,0,46.72,81.47Z"/><path class="cls-6" d="M53.45,99.93h2.68a1.23,1.23,0,0,0-.29-1.24c-.53-.65-1.61-.55-1.81,0a.34.34,0,0,0-.16-.29c-.55-.33-1-.27-1.24.06a.8.8,0,0,0,.27,1.16.69.69,0,0,0,1-.35l.1-.24c0,.38.13.57,0,.67S53.63,99.84,53.45,99.93Z"/><path class="cls-6" d="M48.52,76.16a.64.64,0,0,0-.7.65.77.77,0,0,0,.7.8c.4,0,.58-.23.63-.61A.72.72,0,0,0,48.52,76.16Z"/><path class="cls-6" d="M41.48,99.63a.41.41,0,0,1,0,.09.82.82,0,0,0-1-.28,1.2,1.2,0,0,0-.62.49h2.64a.85.85,0,0,0-.2-.46A.44.44,0,0,0,41.48,99.63Z"/><path class="cls-6" d="M57.2,70.45a.46.46,0,0,0-.54-.53c-.24,0-.87.1-.86.44s.54.66.78.7S57.17,70.84,57.2,70.45Z"/><path class="cls-6" d="M56.7,99.93h1l0,0A1,1,0,0,0,56.7,99.93Z"/><path class="cls-6" d="M57.67,74.38c-.42,0-.59.53-.65.78s.23.48.54.52.72-.23.64-.54S58.09,74.35,57.67,74.38Z"/><path class="cls-6" d="M54.8,56.76c-.15.15,0,.49.14.56a.47.47,0,0,0,.5,0c.14-.11.05-.4,0-.51S55,56.62,54.8,56.76Z"/><path class="cls-6" d="M55.39,60.61a1.18,1.18,0,0,0,.46.73c.25.15.73-.24.7-.59a1.43,1.43,0,0,0-.29-.55C55.72,60.1,55.33,60.31,55.39,60.61Z"/><path class="cls-6" d="M55.52,78.38a1.52,1.52,0,0,0,1.18,1.48,1,1,0,0,0,.82-.52.56.56,0,0,0,.34-.5c0-.1-.09-.2-.21-.29a1,1,0,0,0-1-.92C56.11,77.58,55.55,77.94,55.52,78.38Z"/><path class="cls-6" d="M65.18,98.34a.63.63,0,0,0,.12-.11,1.43,1.43,0,0,0-.14-1.81,1.39,1.39,0,0,0-2.27,1.49,1.44,1.44,0,0,0,0,1.8,1.13,1.13,0,0,0,.27.22h1.65c.06-.05.12-.09.18-.15A1.12,1.12,0,0,0,65.18,98.34Z"/><path class="cls-6" d="M75.33,99.77c-.29-.46-.65-.62-.94-.43a.57.57,0,0,0-.29.59h1.32Z"/><path class="cls-6" d="M78.21,99.14c.21-.49-.39-1.14-1.09-1.44a1.35,1.35,0,0,0-1.54.79,1.42,1.42,0,0,0,.89,1.44h.86A1.28,1.28,0,0,0,78.21,99.14Z"/><path class="cls-6" d="M82,90.1a.72.72,0,0,0-.18.25c.1.36.18.73.26,1.09.4.42,1.21.61,1.54.33a1.32,1.32,0,0,0,.17-1.7A1.34,1.34,0,0,0,82,90.1Z"/><path class="cls-6" d="M68.8,79.51c-.14-.06-.33-.15-.49,0a.26.26,0,0,0,0,.4c.12.09.37.25.58.09S68.88,79.55,68.8,79.51Z"/><path class="cls-6" d="M53.53,73.27a.93.93,0,0,0,.63.89c.73.12,1.37-.2,1.43-.69a1.34,1.34,0,0,0-1-1.18C54.19,72.23,53.57,72.8,53.53,73.27Z"/><path class="cls-6" d="M61.29,79.69a.66.66,0,0,0-.14.2c.32-.09.65-.18,1-.24A.58.58,0,0,0,61.29,79.69Z"/><path class="cls-6" d="M60,78.38c-.12.16.08.65.2.7s.56.14.67,0a.66.66,0,0,0-.08-.67C60.64,78.32,60.08,78.21,60,78.38Z"/><path class="cls-6" d="M84.47,93.79A1,1,0,0,0,83,93.63a1.22,1.22,0,0,0-.34,1,.68.68,0,0,0-.68.33c-.29.43,0,.79.29,1.18.46-.1,1-.1,1-.7a.31.31,0,0,0,0-.16,1.72,1.72,0,0,0,1.28-.42A.73.73,0,0,0,84.47,93.79Z"/><path class="cls-6" d="M82.67,98.13a1.61,1.61,0,0,0-2-.08,1.36,1.36,0,0,0-.18,1.86l0,0h2.25A1.4,1.4,0,0,0,82.67,98.13Z"/><path class="cls-6" d="M61.53,68.4a2,2,0,0,0,0-.24.69.69,0,0,0-.73-.4.92.92,0,0,0-.62.18c.12.32,0,1,.4,1.09S61.24,68.58,61.53,68.4Z"/><path class="cls-6" d="M46.76,72.54l-.1.11a1.46,1.46,0,0,0,.73.41c.84.19,1.65-.59,1.42-1.17s-.63-.6-.56-.81l0-.07Z"/><path class="cls-6" d="M59.43,75.65a.8.8,0,1,0,1.51.48c.06-.36-.39-.81-1.06-.93C59.77,75.3,59.49,75.44,59.43,75.65Z"/><path class="cls-6" d="M42.94,79.44A1.49,1.49,0,0,0,42.3,78c-.51.76-1,1.55-1.42,2.34a1.36,1.36,0,0,0,.53.22A1.51,1.51,0,0,0,42.94,79.44Z"/><path class="cls-6" d="M40.78,84.42a1.65,1.65,0,0,0,.94,1.34,1,1,0,0,0,.35,0,1.72,1.72,0,0,0,.45,1.13c.34.25.72.11,1-.39s.33-.94-.07-1.19a1.18,1.18,0,0,0-.8-.21.81.81,0,0,0,.07-.22c.12-.63-.11-.92-.83-1S40.84,84,40.78,84.42Z"/><path class="cls-6" d="M72.3,99.16c-.2-.25-.32-.56-.76-.58a1,1,0,0,0-.85,1.1.81.81,0,0,0,.08.25h1.87A1,1,0,0,0,72.3,99.16Z"/><path class="cls-6" d="M43.44,78s0-.22-.09-.25-.21,0-.26,0a.23.23,0,0,0,.06.31A.24.24,0,0,0,43.44,78Z"/><path class="cls-6" d="M41.49,88a.63.63,0,0,0-.05.94c.34.33,1,.44,1.25.2a1.17,1.17,0,0,0-.17-1.18A.69.69,0,0,0,41.49,88Z"/><path class="cls-6" d="M75.92,95.22c.48.25.64.78,1.18.81a2.24,2.24,0,0,0,2.29-1.41,1.52,1.52,0,0,0,.06-.2H75.09A1.79,1.79,0,0,0,75.92,95.22Z"/><path class="cls-6" d="M67.29,97.22A1.21,1.21,0,0,0,67.35,99a1.36,1.36,0,0,0,1.52.05c.21.14,1,.22,1.21-.08s-.16-.72-.43-1a1,1,0,0,0-.39-.82C68.42,96.43,68.11,96.56,67.29,97.22Z"/><path class="cls-6" d="M72.07,94.78a1.31,1.31,0,0,0-.4,1.71,1.24,1.24,0,0,0,1.83.58,1.45,1.45,0,0,0,.63-1.91A1.7,1.7,0,0,0,72.07,94.78Z"/><path class="cls-6" d="M60.94,96.72a.72.72,0,0,0-1,0,.66.66,0,0,0,0,1,.62.62,0,0,0,1,.07A.75.75,0,0,0,60.94,96.72Z"/><path class="cls-6" d="M62.14,99.29a.69.69,0,0,0-.23-.93.75.75,0,0,0-1.11.18.82.82,0,0,0,.22,1A.86.86,0,0,0,62.14,99.29Z"/><path class="cls-6" d="M46,79.69c.44-.12.88-.27.77-.81a.57.57,0,0,0-.32-.43c.3.07.81.13.95-.08s-.32-.77-.53-.93-.55-.12-.7.23-.17.6.14.73a1.4,1.4,0,0,0-.5,0A.83.83,0,0,0,46,79.69Z"/><path class="cls-6" d="M41.31,95.71a1.34,1.34,0,0,0-.89-.14c-.36.11-.38.48-.26.83s.17.54.26.81a2.05,2.05,0,0,0,2.36.79s.12-.1.12-.15c.05-.64.59-.69,1-.89a1,1,0,0,0,.13-.09,1.29,1.29,0,0,0,0,1.49,1.25,1.25,0,0,0,1.51-.16l0,0c.12.54.4,1,.74,1a.68.68,0,0,0,.7-.49s0,0,0,0c.37,0,.75-.25.71-.58a1.27,1.27,0,0,1,.59-1.25,1.39,1.39,0,0,0,.23-.72.52.52,0,0,0,.28.1c.15,0,.35-.09.38-.32a.28.28,0,0,0,0-.13.77.77,0,0,0,.31.37,1.36,1.36,0,0,0,1.38-.5.62.62,0,0,0,0-.7.81.81,0,0,0,.18-.12.77.77,0,0,0,.16-.34H49.46a.91.91,0,0,0-.27.28,1.17,1.17,0,0,0,.05,1,.27.27,0,0,0-.23-.14.56.56,0,0,0-.44.16.75.75,0,0,0-.15-.28,1.28,1.28,0,0,0-.83-.23,1.24,1.24,0,0,0-.23-.54.58.58,0,0,0-.87.09.47.47,0,0,0,.11.76l.06,0c-.23.19-.45.42-.29.74a1.43,1.43,0,0,1,.13.94A8.32,8.32,0,0,0,46.24,96a.49.49,0,0,0-.9-.08c-.09.2-.2.41-.29.62a1.11,1.11,0,0,0-.75.07.73.73,0,0,0-.06-.87.64.64,0,0,0-.1-.13.64.64,0,0,0,.29-.22,3.07,3.07,0,0,0,.26-.81l0,0-.9-.6a3.51,3.51,0,0,0-.52.48.78.78,0,0,0-.14.76,1,1,0,0,0-.63.44c-.21.3-.33.65-.9.59C41.54,96.09,41.48,95.8,41.31,95.71Z"/><path class="cls-6" d="M56.85,95.55a.64.64,0,0,0,.95-.09.88.88,0,0,0,.17-.4.76.76,0,0,0,.36.47,1,1,0,0,0,1.32-.2,1.33,1.33,0,0,0,.11-.91H58a.66.66,0,0,0-.07.25.64.64,0,0,0-.18-.25H57l-.1.08A.72.72,0,0,0,56.85,95.55Z"/><path class="cls-6" d="M41.81,93.72a2.12,2.12,0,0,0-.11.21.67.67,0,0,0,.33.76.92.92,0,0,0,.6.24c.1-.32.6-.78.36-1.1S42.16,93.75,41.81,93.72Z"/><path class="cls-6" d="M60.39,95.46a.81.81,0,0,0,.65-1H60l0,.07C59.69,95,60,95.26,60.39,95.46Z"/><path class="cls-6" d="M53.47,81.6c.13-.6-.54-1.31-1.34-1.43a1,1,0,0,0-1.18.89,1.2,1.2,0,0,0,1.1,1.46A1.29,1.29,0,0,0,53.47,81.6Z"/><path class="cls-6" d="M56.89,66.12c-.41-.07-1,.49-1.1,1.06a.9.9,0,0,0,.69,1.1c.62.09,1.33-.35,1.37-.84A1.31,1.31,0,0,0,56.89,66.12Z"/><path class="cls-6" d="M53.25,42.71a1.58,1.58,0,0,0,1.57-1.18,1.44,1.44,0,0,0-1.07-1.63A2.09,2.09,0,0,0,52,41.23,1.41,1.41,0,0,0,53.25,42.71Z"/><path class="cls-6" d="M54.4,53.32c-.17-.24-1.33.33-1.4.65s.58.66,1.13.5S54.56,53.56,54.4,53.32Z"/><path class="cls-6" d="M53.43,58.46a1.33,1.33,0,0,0,.32-.23.94.94,0,0,0-.51-1.63,5.43,5.43,0,0,0-1.56-.11.92.92,0,0,0-.52.22,9.45,9.45,0,0,1,1,1.95A3.31,3.31,0,0,0,53.43,58.46Z"/><path class="cls-6" d="M51.86,68c.13.1.58.71,1,.38,1-.72.09-1.41.31-1.71s.93-.54,1.28-1a1.19,1.19,0,0,0,0-1.85,1.31,1.31,0,0,0-1.76.08,8.81,8.81,0,0,1-.31,1.35c.08.24.13.44-.14.61l-.09,0A10.06,10.06,0,0,1,51,68.12C51.43,68.15,51.75,67.9,51.86,68Z"/><path class="cls-6" d="M50.72,49.09c0-.42.09-.93-.5-1.09a.7.7,0,0,0-.88.43.9.9,0,0,0,.07.7C49.65,49.49,50,49.46,50.72,49.09Z"/><path class="cls-6" d="M53.38,61.4a.53.53,0,0,0,.56.63.91.91,0,0,0,.65-.35c.11-.18-.13-.85-.46-.89A.69.69,0,0,0,53.38,61.4Z"/><path class="cls-6" d="M54.11,48.89a1.36,1.36,0,0,0,1.19,1.6,1.08,1.08,0,0,0,1.31-.86c.11-.77-.54-1.76-1.17-1.8A1.27,1.27,0,0,0,54.11,48.89Z"/><path class="cls-6" d="M57.74,73.38a.84.84,0,0,0,.43.54c.29.12.74-.3.67-.63s-.24-.37-.31-.47C58,72.79,57.67,73.06,57.74,73.38Z"/><path class="cls-6" d="M48.38,52.7a.78.78,0,0,0,.88-.58.86.86,0,0,0-.62-1,.79.79,0,0,0-.26,1.55Z"/><path class="cls-6" d="M60.1,62.33c.17,0,.48,0,.53-.3a.45.45,0,0,0-.36-.48c-.14,0-.59-.06-.69.26S60,62.32,60.1,62.33Z"/><path class="cls-6" d="M58,55.83a.76.76,0,0,0-.28-.93c-.41-.17-1.15.53-1,.84S57.8,56.22,58,55.83Z"/><path class="cls-6" d="M58.62,46.07a.6.6,0,0,0,.2-.53c0-.12-.38-.39-.59-.32s-.23.58-.16.71A.57.57,0,0,0,58.62,46.07Z"/><path class="cls-6" d="M59.46,67.74c.09-.06.2-.09.23-.16s-.08-.19-.11-.19-.25,0-.27.13S59.4,67.65,59.46,67.74Z"/><path class="cls-6" d="M40.23,42.18c0-.43,0-.86,0-1.29a.62.62,0,0,0-.43-.91.73.73,0,0,0-.79.27c.33.83.7,1.64,1.1,2.44A.65.65,0,0,0,40.23,42.18Z"/><path class="cls-6" d="M39.66,90.16c.57.18,1.36,0,1.46-.43a.82.82,0,0,0-.38-.74l0,0a.26.26,0,0,0-.2-.37c-.2-.06-.34,0-.4.2h0c-.22-.13-.28-.39-.44-.59a2,2,0,0,0-.72-.47,2.11,2.11,0,0,0,.45-.28,1.1,1.1,0,0,0,.31-1.31,1.23,1.23,0,0,0-1.2-.64l0,0c-.22.59-.42,1.18-.61,1.79a1.52,1.52,0,0,0,.26.32h0l-.34,0c-.21.71-.4,1.44-.56,2.16a1.29,1.29,0,0,0,.21.07A12.92,12.92,0,0,1,39.66,90.16Z"/><path class="cls-6" d="M39.21,83.74c.44.5.93.7,1.32.47a1.52,1.52,0,0,0,.36-1.77A.66.66,0,0,0,40,82.1C39.7,82.64,39.45,83.19,39.21,83.74Z"/><path class="cls-6" d="M37.55,98.09A1,1,0,0,0,37.94,97c-.11-1.14-.49-1.5-1.5-1.39,0,.66-.06,1.32-.06,2V98A.8.8,0,0,0,37.55,98.09Z"/><path class="cls-6" d="M38,94.61c.21-.29.18-.93-.12-1.06a2.77,2.77,0,0,0-1.18-.37c-.07.57-.13,1.14-.17,1.71h0A1.17,1.17,0,0,0,38,94.61Z"/><path class="cls-6" d="M41.81,38.52a1.78,1.78,0,0,0,1.55-1.81c-.1-.6-.9-.58-1.22-.28s-.26.16-.7,0-1.11-.07-1.11.73A1.5,1.5,0,0,0,41.81,38.52Z"/><path class="cls-6" d="M46,47.93a1.59,1.59,0,0,0,.76,1.34,1,1,0,0,0,1.16-.92c.09-.46-.31-.87-1-1C46.41,47.27,46,47.5,46,47.93Z"/><path class="cls-6" d="M45.8,37.13a.38.38,0,0,0,.34-.24c0-.14-.2-.31-.34-.37s-.41,0-.45.24S45.65,37.1,45.8,37.13Z"/><path class="cls-6" d="M44.48,43.45c.35,0,.43-.23.47-.49s-.18-.69-.52-.63a2.17,2.17,0,0,0-.63.3A.73.73,0,0,0,44.48,43.45Z"/><path class="cls-6" d="M43.45,46.67c.35,0,.43-.23.47-.5s-.18-.68-.52-.63a2.06,2.06,0,0,0-.63.31A.75.75,0,0,0,43.45,46.67Z"/><path class="cls-6" d="M47.3,42.93c.12,0,.53,0,.56-.23s-.3-.42-.43-.43-.4.08-.43.26S47.17,42.9,47.3,42.93Z"/><path class="cls-6" d="M88.48,92.15a1.19,1.19,0,0,0,0-1.52c-.36-.42-.82-.4-1.36.08A1.16,1.16,0,0,0,86.86,92,1.31,1.31,0,0,0,88.48,92.15Z"/><path class="cls-6" d="M39.23,99.39c-.12-.12-.4-.28-.6-.09a.47.47,0,0,0,0,.61s0,0,0,0h.8A.72.72,0,0,0,39.23,99.39Z"/><path class="cls-6" d="M43.65,87.9a2.54,2.54,0,0,0-.12,1.72c.06.4.5.51.4.79a1.13,1.13,0,0,0-.52.15,1.14,1.14,0,0,0-.58,1.07,1,1,0,0,0,.59.82l.22.08h0a1.27,1.27,0,0,0,1.5-.23h0a1.23,1.23,0,0,0,.22.62c0-.5.08-1,.15-1.44h0a.75.75,0,0,0-.13-.56c-.27-.34.66-.73.31-1.22s.07-1.08-.42-1.63S44,87.33,43.65,87.9Z"/><path class="cls-6" d="M44,76.84a.75.75,0,0,0,.54.9.71.71,0,0,0,.81-.66.65.65,0,0,0-.56-.76A.62.62,0,0,0,44,76.84Z"/><path class="cls-6" d="M43.28,87.61a.42.42,0,0,0,.26-.46.38.38,0,0,0-.43-.23.52.52,0,0,0-.31.49C42.82,87.58,43.12,87.65,43.28,87.61Z"/><path class="cls-6" d="M61.78,60.06c.13-.53,0-.91-.67-.9s-.77,1-.51,1.23S61.7,60.44,61.78,60.06Z"/><path class="cls-6" d="M44.91,82.31a.56.56,0,0,0,.52-.67,1.76,1.76,0,0,0-.22-.76.67.67,0,0,0,.29-.26.68.68,0,0,0-.22-.93.74.74,0,0,0-1.11.18.81.81,0,0,0,.22,1,1.12,1.12,0,0,0-.4.68C44,81.89,44.53,82.31,44.91,82.31Z"/><path class="cls-6" d="M51.63,70.34c-.51-.11-1.16.14-1.26.53-.2.77.52,1.2.89,1.4s1.05-.52,1-1.2A.73.73,0,0,0,51.63,70.34Z"/><path class="cls-6" d="M52.26,75a.44.44,0,0,0,.17.73c.22.1.84.2.94,0s-.14-.71-.29-.91S52.51,74.7,52.26,75Z"/><path class="cls-6" d="M49.14,53.21a.79.79,0,0,0-.42.76l.73.74a.78.78,0,0,0,.67-.5,1,1,0,0,0-.2-.86A.85.85,0,0,0,49.14,53.21Z"/><path class="cls-6" d="M50,74a.65.65,0,0,0,.53.8.71.71,0,0,0,.86-.59.78.78,0,0,0-.64-.84A.71.71,0,0,0,50,74Z"/><path class="cls-6" d="M46.32,73.6a.79.79,0,0,0-.32-.26c-.51.55-1,1.1-1.48,1.67a1.21,1.21,0,0,0,.91.49c.72.06,1.06-.24,1.14-1a1.64,1.64,0,0,0,0-.39.69.69,0,0,0,.37-.22.41.41,0,0,0-.06-.5.41.41,0,0,0-.48.1A.36.36,0,0,0,46.32,73.6Z"/><path class="cls-6" d="M40.67,92.72a.51.51,0,0,0-.17-.26.86.86,0,0,0-.93.07c-.31-.15-.54,0-.82.26s-.75.8-.31,1.21.67.23.82.1a1.93,1.93,0,0,0,.21.17,1,1,0,0,0,.44.14,1.05,1.05,0,0,0,.39.22.78.78,0,0,0,1.08-.38,1.14,1.14,0,0,0-.58-1.49Z"/><path class="cls-6" d="M69.75,77.61c0-.43-.94-.76-1.3-.46s-.46,1-.16,1.2S69.7,78,69.75,77.61Z"/><path class="cls-6" d="M65.26,62.59c.11,0,.34-.21.33-.32s-.18-.37-.3-.38-.46,0-.48.34S65.13,62.58,65.26,62.59Z"/><path class="cls-6" d="M64.52,73.41a.7.7,0,0,0,.8-.66.64.64,0,0,0-.55-.77c-.47-.06-1.07.27-1.1.61S64.15,73.35,64.52,73.41Z"/><path class="cls-6" d="M71.48,81.86c.45-.25,1-.39,1.26-1l-.26-.69c.37-.58.45-1.23.15-1.49a.69.69,0,0,0-.86,0c-.52.34-.58.6-.34,1.3a12.18,12.18,0,0,0-.61,1.28A.49.49,0,0,0,71.48,81.86Z"/><path class="cls-6" d="M61.19,53.92c.2,0,.75-.05.79-.49s-.48-.51-.66-.52a.73.73,0,0,0-.54.38A.47.47,0,0,0,61.19,53.92Z"/><path class="cls-6" d="M82.92,83.1a.68.68,0,0,0,.62-.63.63.63,0,0,0-1-.43A.65.65,0,0,0,82.92,83.1Z"/><path class="cls-6" d="M51.25,77.19a1.68,1.68,0,0,0,1.22,1.69c.71.16,1.38-.44,1.56-1.4a1.23,1.23,0,0,0-1-1.45A1.62,1.62,0,0,0,51.25,77.19Z"/><path class="cls-6" d="M84.65,97.61a1.3,1.3,0,0,0-.07,2.07,1.09,1.09,0,0,0,.38.25h1.21a1.32,1.32,0,0,0,.44-.3,1.75,1.75,0,0,0-.22-2.09A1.18,1.18,0,0,0,84.65,97.61Z"/><path class="cls-6" d="M81.58,87.7A1.35,1.35,0,0,0,83.36,87l.22-.44a8.85,8.85,0,0,0,.8.42.71.71,0,0,0,1.06-.35,1.11,1.11,0,0,0,0-1.29A1,1,0,0,0,84.23,85a4.82,4.82,0,0,0-.88.44,4.11,4.11,0,0,0-.42-.21,1.5,1.5,0,0,0-1.62.32,1.7,1.7,0,0,0-.2,1.67A.88.88,0,0,0,81.58,87.7Z"/><path class="cls-6" d="M77.7,82.7a.2.2,0,0,0-.17,0Z"/><path class="cls-6" d="M90.64,97.07c0-.76,0-1.52-.11-2.27a1.64,1.64,0,0,0-1.44.51,1,1,0,0,0,.08,1.48A1.27,1.27,0,0,0,90.64,97.07Z"/><polygon class="cls-5" points="66.22 54.05 60.36 54.05 58.36 38.7 68.22 38.7 66.22 54.05"/><rect class="cls-5" x="60.36" y="59.21" width="5.86" height="5.29"/><path class="cls-7" d="M100.49,83c5.83-4.47,7.82-12.91,8.43-19.88.63-7.24-.94-16.26-6.18-21.6-.82-.85-2.61,0-2.11,1.23,2.58,6.37,5.6,11.83,5.62,18.92a22.43,22.43,0,0,1-2.2,10.63c-1.57,3.12-3.44,6.21-4.88,9.38-.35.76.46,2,1.32,1.32Z"/><path class="cls-7" d="M97.47,72.84A8.3,8.3,0,0,0,96.37,77a20.48,20.48,0,0,0,.3,3.36c.08,1.53-.19,3.14,1.19,4.21a5.26,5.26,0,0,0,3.77.66c2.71-.25,5.78-.18,8.06-1.84.75-.55.9-2.14-.3-2.32-2.33-.33-4.37.46-6.59,1.06-.69.18-2.67.71-3.36.24s-.64-2.17-.45-2.84c.55-1.93,1-4.55.25-6.47a1,1,0,0,0-1.77-.23Z"/><path class="cls-7" d="M29.6,41.93c-5.92,4.8-7.74,14.46-8.24,21.65s.82,16.42,6.26,21.7c1.1,1.07,2.54-.27,2-1.53-3.08-7.07-5.8-13-5.51-20.9.28-7.73,4.23-13.11,7.12-20,.42-1-1-1.46-1.62-.94Z"/><path class="cls-7" d="M32,53.86a10,10,0,0,0,.82-5c0-1.21-.48-2.21-.41-3.42s.32-3.2-1-4.08c-1.12-.75-2.72-.42-3.93-.2-2.86.53-5.89.75-8.22,2.65-.91.76-.09,2.1.9,2.17,3.31.21,6.9-2.76,9.92-2.26-.44-.07-.3-.54-.26-.09,0,.29.14.61.19.9a5.41,5.41,0,0,1,0,2.53c-.54,2.09-.69,4.84.3,6.81a1,1,0,0,0,1.67,0Z"/></svg>