<svg xmlns="http://www.w3.org/2000/svg" viewBox="0 0 340 240"><defs><style>.cls-1,.cls-3{fill:#1ba9f5;}.cls-2{fill:#0d90e0;}.cls-2,.cls-3,.cls-5,.cls-6{fill-rule:evenodd;}.cls-4{fill:#294492;}.cls-5,.cls-7{fill:#fff;}.cls-6{fill:#fa744e;}.cls-8{fill:#343741;}.cls-9{fill:#ff957d;}.cls-10{fill:#fec514;}.cls-11{fill:#f990c6;}.cls-12{fill:#7de2d1;}.cls-13{fill:#e6ebf2;}.cls-14{fill:#07c;}.cls-15{fill:#42d4c6;}.cls-16{fill:#00bfb3;}.cls-17{fill:#f368ab;}.cls-18{fill:#f04e98;}.cls-19{fill:#e55940;}</style></defs><g id="Layer_2" data-name="Layer 2"><path d="M2.7,95.46c-.07,0-.16.3-.12.34A.53.53,0,0,0,3,96a.38.38,0,0,0,.27-.46C3.16,95.26,2.84,95.42,2.7,95.46Z"/><path d="M8.19,100.94c-.24-.45-.52-.44-.76-.32s-.47.4-.26.66.52.33.67.25S8.11,101.1,8.19,100.94Z"/><path d="M5.25,95.76a.35.35,0,0,0-.16.47.4.4,0,1,0,.69-.4A.42.42,0,0,0,5.25,95.76Z"/><path d="M10,93.7c.44-.24.56-.57.36-1-.28-.55-1-.87-1.42-.62a1,1,0,0,0-.21,1.31A1,1,0,0,0,10,93.7Z"/><path d="M7.74,85.46a1,1,0,0,0-.85-.84.78.78,0,0,0-.95.52c-.13.32-.59.89-.27,1.29s.63.07.87.08C7.18,86.56,7.84,86,7.74,85.46Z"/><path d="M7.46,98.42a.45.45,0,0,0,.09-.48c-.09-.12-.27-.36-.41-.26a.46.46,0,0,0-.16.45C7,98.24,7.32,98.52,7.46,98.42Z"/><path d="M5.37,89.23A.58.58,0,0,0,5,90a.72.72,0,0,0,.87.31.6.6,0,0,0,.32-.82A.69.69,0,0,0,5.37,89.23Z"/><path d="M14.07,71.5c.12-.06.12-.31.09-.45s-.25-.29-.43-.21-.08.42,0,.54A.35.35,0,0,0,14.07,71.5Z"/><path d="M9.58,79.29a.69.69,0,0,0,.77-.49.53.53,0,0,0-.19-.71c-.44-.29-.79-.07-1.17.24C9.09,78.77,9.06,79.23,9.58,79.29Z"/><path d="M13.75,84.88c.18-.16.58-.66.44-.88s-.74-.13-1-.07-.33.52-.15.78S13.51,85.1,13.75,84.88Z"/><path d="M14.22,100.07c-.35.17-.46.45-.23.73s.47.69.84.49.18-.73.14-1S14.54,99.92,14.22,100.07Z"/><path d="M10.09,82.05c0,.06.27.2.33.16s.37-.21.31-.43-.4-.18-.45-.14A.63.63,0,0,0,10.09,82.05Z"/><path d="M10.41,87.39a.75.75,0,0,0,.92.37.75.75,0,0,0,.29-.87.85.85,0,0,0-.94-.36A.66.66,0,0,0,10.41,87.39Z"/><path d="M13.61,91.83a1.06,1.06,0,0,0,.23-1.25,1,1,0,0,0-1.23.18.69.69,0,0,0,.1.92A.68.68,0,0,0,13.61,91.83Z"/><path d="M26.34,123.77c-.47.11-1,.09-1.37.56,0,.21,0,.45.05.67-.47.42-.71,1-.5,1.29a.62.62,0,0,0,.75.25c.55-.17.67-.38.64-1.07a9.49,9.49,0,0,0,.86-1A.44.44,0,0,0,26.34,123.77Z"/><path d="M21.13,120.93c-.11.09-.3.2-.21.4a.25.25,0,0,0,.36.13c.12-.06.4-.25.32-.44S21.19,120.88,21.13,120.93Z"/><path d="M21.3,117.69a.63.63,0,0,0-.7.41c-.09.34.09.49.8.64A.61.61,0,0,0,21.3,117.69Z"/><path d="M19.51,108.37a.59.59,0,0,0-.28.33.36.36,0,0,0,0,.15,1.63,1.63,0,0,0-1.25.05.69.69,0,0,0-.18.95,1,1,0,0,0,1.27.51,1.12,1.12,0,0,0,.55-.77l.12,0A7.25,7.25,0,0,1,19.51,108.37Z"/><path d="M21.72,113.35a8.65,8.65,0,0,1-.8-1,.59.59,0,0,0-.36.42.8.8,0,0,0,.15.7C21.06,113.74,21.4,113.61,21.72,113.35Z"/><path d="M9.18,106.5c-.4-.16-.76-.43-1.12,0a.59.59,0,0,0,0,.83.79.79,0,0,0,.6.27C9.17,107.47,9.25,107,9.18,106.5Z"/><path d="M13.18,95.45a1.38,1.38,0,0,0-.38,1.63,1.21,1.21,0,0,0,1.75.29A1,1,0,0,0,15,95.93,1.36,1.36,0,0,0,13.18,95.45Z"/><path d="M24.7,118.55c-.18.06-.29.28-.15.74a.71.71,0,0,0,.88.59,1,1,0,0,0,.79-1.24c-.11-.58-.45-.61-.49-1s-.26-.48-.66-.54-1-.12-1.07.44.3.67.47.67S24.88,118.49,24.7,118.55Z"/><path d="M14.35,106a1.19,1.19,0,0,0-1.73-.42,1.21,1.21,0,0,0-.36,1.53,1.33,1.33,0,0,0,1.79.24A.93.93,0,0,0,14.35,106Z"/><path d="M18,111.87a1.21,1.21,0,0,0-.58,1.47,1.24,1.24,0,0,0,1.6.42.85.85,0,0,0,.3-1.17C19.12,112.09,18.4,111.7,18,111.87Z"/><path d="M9.72,111.57a1,1,0,0,0-.53,1.12,1.1,1.1,0,0,0,1.21.59c.39-.16.51-.79.26-1.37A.79.79,0,0,0,9.72,111.57Z"/><path d="M12.87,102c0-.54-.32-.75-.85-.76-.28-1.25-1-1.41-2-.5a.75.75,0,0,1-.25-.09c-.32-.2-.57-.07-.81.17a.64.64,0,0,0-.13.74c.22.71.53.86,1.23.59.52-.21,1-.39,1.56-.58C12.05,102.54,12.16,102.57,12.87,102Z"/><path d="M16.46,119.77a.64.64,0,0,0-.71.41.59.59,0,0,0,.8.64A.61.61,0,0,0,16.46,119.77Z"/><path d="M15.2,110.81a1.2,1.2,0,0,0-1.41-.51,1.09,1.09,0,0,0-.4,1.35q.33.7,1.23.27A1.05,1.05,0,0,0,15.2,110.81Z"/><path d="M19.36,80.46a.91.91,0,0,0,.11.16V79.46A1,1,0,0,0,19.36,80.46Z"/><path d="M51.13,117.23c-.52.12-.82.47-.75.89a1.6,1.6,0,0,0,1.32,1c.58-.11.85-.62.71-1.31C52.3,117.3,51.81,117.07,51.13,117.23Z"/><path d="M52.73,116.67a.86.86,0,0,0,.67.56,1,1,0,0,0,1.07.2,1.19,1.19,0,0,0,.5-1.23H52.76A.68.68,0,0,0,52.73,116.67Z"/><path d="M75,119.55a1.81,1.81,0,0,0-.26-.52l-.92,1.55C74.55,120.57,75.22,120.15,75,119.55Z"/><path d="M15.57,93.38a.72.72,0,0,0,1.23-.73.77.77,0,0,0-1-.2A.68.68,0,0,0,15.57,93.38Z"/><path d="M38.07,117.76c-.25.43.18.88.43.95s.74-.3.65-.78a.61.61,0,0,0-.43-.41A.79.79,0,0,0,38.07,117.76Z"/><path d="M28.67,116.34c.06.2.19.25.38.17a.24.24,0,0,0,.17-.31h-.56S28.64,116.29,28.67,116.34Z"/><path d="M33.61,117.36a1.2,1.2,0,0,0-.17,1.27.81.81,0,0,0,1,.23c.59-.38.84-.87.61-1.25A1.21,1.21,0,0,0,33.61,117.36Z"/><path d="M55.13,118.8a.59.59,0,0,0,.25.08s.1-.17.08-.18-.15-.17-.25-.14S55.16,118.71,55.13,118.8Z"/><path d="M88.23,116.39a.93.93,0,0,0,.37-.19H87.51A1,1,0,0,0,88.23,116.39Z"/><path d="M88.63,117.3c-.28.08-.3.75-.24,1s.41.27.63.25a.37.37,0,0,0,.34-.55C89.24,117.76,88.91,117.23,88.63,117.3Z"/><path d="M94.65,124.75c0,.25.35.31.42.28a.65.65,0,0,0,.32-.37c0-.06-.21-.29-.29-.28S94.65,124.49,94.65,124.75Z"/><path d="M77.89,120.19a1.63,1.63,0,0,0-1.3-.71c-.42.07-.59.44-.46,1s.44.9.91.8C77.67,121.17,78,120.7,77.89,120.19Z"/><path d="M79.44,116.43c.11.76.57,1.28,1.07,1.2a1.25,1.25,0,0,0,.88-1.28.47.47,0,0,0-.06-.15H79.47A.63.63,0,0,0,79.44,116.43Z"/><path d="M76.47,123.83c-.18,0-.57.47-.51.67s.67.38.76.31.49-.52.39-.69A.75.75,0,0,0,76.47,123.83Z"/><path d="M17.09,101.85c.17.32,1.17.44,1.57.19a.94.94,0,0,0-1-1.57A1.15,1.15,0,0,0,17.09,101.85Z"/><path d="M19.2,73c.15-.08.15-.45.09-.55a.41.41,0,0,0-.44-.18.4.4,0,0,0-.13.44C18.76,72.82,19.05,73.07,19.2,73Z"/><path d="M60.17,119.38h0l-.65-1.11a.72.72,0,0,0,0,.5C59.68,119.09,59.81,119.46,60.17,119.38Z"/><path d="M45.89,116.37a.52.52,0,0,0,.19-.17h-1A.64.64,0,0,0,45.89,116.37Z"/><path d="M42.55,116.2h-.66A.54.54,0,0,0,42.55,116.2Z"/><path d="M17.12,86.36c.15.15.58.53.8.39s.07-.73,0-.9-.44-.14-.62-.07A.34.34,0,0,0,17.12,86.36Z"/><path d="M18.09,88.9a1,1,0,0,0,1.28.22l.1-.06v-1.5a1.05,1.05,0,0,0-1-.11A1.24,1.24,0,0,0,18.09,88.9Z"/><path d="M19.47,85.16V82.78s-.09,0-.13,0a1.27,1.27,0,0,0-.61,1.61A1.58,1.58,0,0,0,19.47,85.16Z"/><path d="M16.74,80.66A1.15,1.15,0,0,0,17,79.18,1,1,0,0,0,15.58,79a.93.93,0,0,0-.36,1.39A1.09,1.09,0,0,0,16.74,80.66Z"/><path d="M16.93,91.14a2,2,0,0,0,.05-.79c-.11-.37-.65-.45-1-.22a.61.61,0,0,0-.15.87A.82.82,0,0,0,16.93,91.14Z"/><path d="M17.73,97c.42-.24.48-.7.17-1.27s-.69-.66-1-.46a1.78,1.78,0,0,0-.55,1.43A1,1,0,0,0,17.73,97Z"/><path d="M18.59,106.4a1.21,1.21,0,0,0,.59-1.82,1.35,1.35,0,0,0-1.83-.47A1.61,1.61,0,0,0,17,106,1.1,1.1,0,0,0,18.59,106.4Z"/><path d="M26.81,128c-.15.38.64.92,1,.74s.66-.75.44-1S27,127.62,26.81,128Z"/><path d="M19.47,94.38a.83.83,0,0,0-.46.73c0,.86.08,1.31.46,1.59Z"/><path d="M19.42,92.47a.41.41,0,0,0,0,.09v-.49A.74.74,0,0,0,19.42,92.47Z"/><path d="M17.05,116.19l-.31.33c-.21-.2-.39-.4-.6-.57a.66.66,0,0,0-1,0,1,1,0,0,0-.28,1.16.92.92,0,0,0,.95.57,4.91,4.91,0,0,0,.9-.17l.32.29a1.39,1.39,0,0,0,1.53.12,1.59,1.59,0,0,0,.6-1.44.8.8,0,0,0-.3-.52A1.26,1.26,0,0,0,17.05,116.19Z"/><path d="M66.56,130.17a1,1,0,0,0-.13.79c.08.32.28.45.58.36l.19-.07Z"/><path d="M70.93,129.83c-.11,0-.44.1-.42.4s.4.24.56.24.27-.26.24-.32S71.07,129.83,70.93,129.83Z"/><path d="M69.59,137.71c-.2.07-.5.31-.49.48s.35.41.53.42.65-.33.61-.53S69.71,137.67,69.59,137.71Z"/><path d="M70.9,125.59l-1.39,2.35a1.39,1.39,0,0,0,1,.21,1.65,1.65,0,0,0,1.09-1.69A1.1,1.1,0,0,0,70.9,125.59Z"/><path d="M77.5,134.54c-.23.08-.74.46-.68.66s.61.41.86.44.52-.29.47-.7A.46.46,0,0,0,77.5,134.54Z"/><path d="M76.43,116.2l-.29.49a.69.69,0,0,0,.44-.09c.4-.38.69-.1,1.06-.07a2.3,2.3,0,0,0,1-.24,1.1,1.1,0,0,0,.14-.09Z"/><path d="M77.47,126.35a1.29,1.29,0,0,0-1.52-.6c-.58.15-.79.63-.59,1.35a1.06,1.06,0,0,0,1.08.66C76.91,127.65,77.58,126.72,77.47,126.35Z"/><path d="M75.34,121.53a.77.77,0,0,0-1,.27.59.59,0,0,0,0,.81c.37.44.8.32,1.29.11C75.7,122.23,75.87,121.75,75.34,121.53Z"/><path d="M65.81,134.83a.74.74,0,0,0-.59.89.59.59,0,0,0,.76.56.73.73,0,0,0,.62-.86A.77.77,0,0,0,65.81,134.83Z"/><path d="M61.33,121.64a1.16,1.16,0,0,0-.9.08c-.47.34-.11.75.07,1.19.58,0,1-.08,1.14-.65A.7.7,0,0,0,61.33,121.64Z"/><path d="M60.57,130.93a1.22,1.22,0,0,0-1.1-.71.77.77,0,0,0-.49.95.73.73,0,0,0,1,.48C60.41,131.54,60.67,131.25,60.57,130.93Z"/><path d="M60.85,134c-.11,0-.45.27-.43.4s.41.24.56.24.27-.26.24-.32S61,134,60.85,134Z"/><path d="M63.39,125.66c-.37.08-.59.41-.42.71s.27.48.51.5.66-.58.54-.93S63.66,125.61,63.39,125.66Z"/><path d="M61.77,130.24a.48.48,0,0,0-.23.48c.05.15.17.46.34.4a.49.49,0,0,0,.3-.42C62.18,130.56,62,130.18,61.77,130.24Z"/><path d="M88,134.5c-.14,0-.23.29-.24.44s.18.39.39.35.22-.4.2-.55A.38.38,0,0,0,88,134.5Z"/><path d="M92.44,120.56c-.25.12-.82.52-.75.78s.74.37,1,.39.5-.45.39-.78S92.75,120.4,92.44,120.56Z"/><path d="M88,124.07a1.25,1.25,0,0,0-.74,1.46,1.17,1.17,0,0,0,2.24-.67A1.2,1.2,0,0,0,88,124.07Z"/><path d="M59.3,132.67a.25.25,0,0,0-.14.27c0,.07.2.14.26.12s.17-.12.15-.22A.22.22,0,0,0,59.3,132.67Z"/><path d="M95.08,127.71a.78.78,0,0,0-1,.28.58.58,0,0,0,0,.8c.37.45.8.32,1.3.12C95.43,128.41,95.6,127.93,95.08,127.71Z"/><path d="M95.86,118.29a.8.8,0,0,0-.57.81,1,1,0,0,0,.87.68.73.73,0,0,0,.55-.83A.8.8,0,0,0,95.86,118.29Z"/><path d="M28.17,126.06c-.22.09-.1.43,0,.48s.26.21.44.11a.24.24,0,0,0,.09-.36C28.57,126.18,28.39,126,28.17,126.06Z"/><path d="M80,128.23c-.24.11-.79.51-.73.8s.78.32,1,.28.48-.31.34-.67S80.3,128.07,80,128.23Z"/><path d="M83.36,119.76a.78.78,0,0,0-.31-1,.52.52,0,0,0-.46-.08,8.74,8.74,0,0,0-.93.68c-.9-.21-1.6,0-1.73.54a1.53,1.53,0,0,0,1,1.53c.62.16.87-.1,1.24-1.33C82.67,120.23,83.17,120.4,83.36,119.76Z"/><path d="M79.78,126.59a.76.76,0,0,0,.66-.93.84.84,0,0,0-.9-.59.88.88,0,0,0-.59,1A.7.7,0,0,0,79.78,126.59Z"/><path d="M85.68,118.2a1.85,1.85,0,0,0-1.33,1.74A1.44,1.44,0,0,0,85.93,121a1.41,1.41,0,0,0,1.14-1.51A1.45,1.45,0,0,0,85.68,118.2Z"/><path d="M82.46,126.21a.27.27,0,0,0-.14.28c0,.07.2.13.26.11s.17-.11.15-.21A.23.23,0,0,0,82.46,126.21Z"/><path d="M83,131.35c-.18,0-.3.43-.27.55s.22.35.41.32.28-.29.27-.42S83.22,131.31,83,131.35Z"/><path d="M84.39,122.73a1.25,1.25,0,0,0-1,1.23.86.86,0,0,0,.94.7,1.09,1.09,0,0,0,.81-1.2C85.1,123,84.79,122.69,84.39,122.73Z"/><path d="M37.71,129.91c-.06.19.29.52.48.77a.27.27,0,0,0,.4.08.82.82,0,0,0,.12-1A.61.61,0,0,0,37.71,129.91Z"/><path d="M46.24,122.17a1,1,0,0,0-1.21-.46,1.39,1.39,0,0,0-.45,1.69,1,1,0,0,0,1.22.22A1,1,0,0,0,46.24,122.17Z"/><path d="M38.26,123.58c-.37.19-.45.83-.15,1.37a.52.52,0,0,0,.76.21c.45-.22.72-.78.55-1.11A1.09,1.09,0,0,0,38.26,123.58Z"/><path d="M45.61,127.66c-.17.08-.08.41,0,.54a.37.37,0,0,0,.37.12c.11-.06.12-.32.09-.46S45.78,127.57,45.61,127.66Z"/><path d="M36.43,122.1a5.92,5.92,0,0,0-1,.44c-.27.15-.29.37-.11.65.08,0,.22.12.3.08a1.5,1.5,0,0,1,1,0c.15,0,.44-.22.5-.41a.8.8,0,0,0-.12-.65C36.91,122.07,36.61,122.05,36.43,122.1Z"/><path d="M45.43,118.58a1.51,1.51,0,0,0-1.86-.71,1.56,1.56,0,0,0-.67,1.52,1,1,0,0,0-.29,0,.82.82,0,0,0-.58,1,.76.76,0,0,0,1,.58.78.78,0,0,0,.54-.77,1.67,1.67,0,0,0,1.35-.1A1.15,1.15,0,0,0,45.43,118.58Z"/><path d="M40.53,119.78a1.1,1.1,0,0,0-.49,1.61,1.18,1.18,0,0,0,1.47.56,1.37,1.37,0,0,0,.33-1.79A.9.9,0,0,0,40.53,119.78Z"/><path d="M38.22,119a1,1,0,0,0-1-.44.52.52,0,0,0-.32.72c.19.54.48.83.75.76A1.15,1.15,0,0,0,38.22,119Z"/><path d="M35.59,124.92a1,1,0,0,0-.39,1,1,1,0,0,0,1.13.27.68.68,0,0,0,.19-.95A.76.76,0,0,0,35.59,124.92Z"/><path d="M31.31,117.18c-.12.12,0,.38.12.47a.35.35,0,0,0,.47-.06.33.33,0,0,0,0-.44A.5.5,0,0,0,31.31,117.18Z"/><path d="M29.29,119.37a1.08,1.08,0,0,0-1.12.16.9.9,0,0,0-.28.88,1.11,1.11,0,0,0,.61.83c.37.11.73.39,1,.24a.69.69,0,0,0,.39-.47,1.09,1.09,0,0,0,.13-.64A1.43,1.43,0,0,0,29.29,119.37Z"/><path d="M34,121.54c.47-.27.52-.75.16-1.33a.93.93,0,0,0-1.11-.3c-.38.22-.74,1.2-.54,1.5A1.17,1.17,0,0,0,34,121.54Z"/><path d="M34.39,127.26a.61.61,0,0,0-.3.82.54.54,0,0,0,.78.2.49.49,0,0,0,.23-.68A.53.53,0,0,0,34.39,127.26Z"/><path d="M34.23,124c-.26-.45-.69-.52-1.23-.19a.69.69,0,0,0-.38.89,1.44,1.44,0,0,0,1.39.54C34.47,125,34.55,124.51,34.23,124Z"/><path d="M46.9,129a.41.41,0,0,0-.13.45c0,.11.33.36.48.28s.15-.45.09-.55A.41.41,0,0,0,46.9,129Z"/><path d="M54.59,132.35a.54.54,0,0,0-.28.53.49.49,0,0,0,.4.28.48.48,0,0,0,.29-.37C55,132.65,54.8,132.28,54.59,132.35Z"/><path d="M52.67,126.43c-.33,0-.65.77-.5,1s.48.22.75.2a.45.45,0,0,0,.43-.62C53.25,126.66,53.09,126.37,52.67,126.43Z"/><path d="M54.23,123.7a.87.87,0,0,0-.58,1s0,.05,0,.08a1.22,1.22,0,0,0,0,.9.64.64,0,0,0,.93.23.59.59,0,0,0,.28-.83l0,0a.69.69,0,0,0,.29-.75A.83.83,0,0,0,54.23,123.7Z"/><path d="M52.13,120.8a.92.92,0,0,0-.53,1.13,1,1,0,0,0,1.24.85c.54-.13,1-.64.87-1A1.49,1.49,0,0,0,52.13,120.8Z"/><path d="M56.27,116.2a1.25,1.25,0,0,0,1.15.56,1.44,1.44,0,0,0,.8-.56Z"/><path d="M55.92,119a1,1,0,0,0-.58.49c-.19.26-.71.53-.58.87a.56.56,0,0,0,.46.29,1.45,1.45,0,0,0,1.16.49,1,1,0,0,0,.71-.94C56.93,119.36,56.42,118.83,55.92,119Z"/><path d="M59.55,126.68c.37-.09.68-.89.55-1.47a.9.9,0,0,0-1-.56c-.54.18-.91.69-.8,1.1A1.36,1.36,0,0,0,59.55,126.68Z"/><path d="M50,120.61a.83.83,0,0,0-.17.62.56.56,0,0,0,.85.16,1.25,1.25,0,0,0,.17-.49C50.57,120.5,50.18,120.39,50,120.61Z"/><path d="M48.4,122.06a.72.72,0,0,0,.82.67.73.73,0,0,0,.61-.77.75.75,0,0,0-.55-.62.32.32,0,0,0-.08-.22c-.26-.3-.72-.16-.94-.07s-.23.45-.09.7a.66.66,0,0,0,.23.21A.34.34,0,0,0,48.4,122.06Z"/><path d="M46.87,124.9a.82.82,0,0,0-.67.94.81.81,0,0,0,.92.55.89.89,0,0,0,.56-.94A.69.69,0,0,0,46.87,124.9Z"/><path d="M48.73,119.06a1.23,1.23,0,0,0,.33-1.39.61.61,0,0,0-.16-.16,1.5,1.5,0,0,0,.5.16c.31,0,.63-.44.47-.7a.76.76,0,0,0-.61-.29c-.19,0-.64.32-.62.57a.28.28,0,0,0,.13.18,1.21,1.21,0,0,0-1,0,.86.86,0,0,0-.32,1C47.75,119,48.33,119.29,48.73,119.06Z"/><path d="M49.08,129.74c-.22,0-.92.56-.84.94s1,.45,1.3.38a.85.85,0,0,0,.54-.83C50,129.86,49.41,129.74,49.08,129.74Z"/><path d="M49.21,123.12a.75.75,0,1,0,.48,1.4c.3-.16.39-.74.11-1.31C49.66,123.19,49.41,123.06,49.21,123.12Z"/><path d="M247.07,214.25a.53.53,0,0,0-.41.6c.06.53.45.65.93.74.28-.36.65-.63.36-1.07A.71.71,0,0,0,247.07,214.25Z"/><path d="M245.57,202.54a1.67,1.67,0,0,0-1.89.65,1.32,1.32,0,0,0,.67,1.6,1.29,1.29,0,0,0,1.22-2.25Z"/><path d="M244.38,208.17a1.15,1.15,0,0,0-1.3.74,1.07,1.07,0,0,0,2,.62A1.1,1.1,0,0,0,244.38,208.17Z"/><path d="M242.31,205.34a1.15,1.15,0,0,0-1.36.45.79.79,0,0,0,.37,1,1,1,0,0,0,1.22-.51A.69.69,0,0,0,242.31,205.34Z"/><path d="M240.07,202.05a1.17,1.17,0,0,0,.24.58c.39.44.71.37,1.61-.38.33.32.63.69,1.1.3a.8.8,0,0,0,.3-.5Z"/><path d="M249.54,207.73c-.25,0-.89,0-1,.23s.37.65.58.8.61-.08.69-.39S249.86,207.78,249.54,207.73Z"/><path d="M248.27,203.33c-.24-.08-.6.42-.66.62s.18.41.35.51a.33.33,0,0,0,.53-.25C248.51,204,248.52,203.42,248.27,203.33Z"/><path d="M250.87,203.2c-.14,0-.23.11-.26.17s.11.21.17.23.21,0,.23-.11A.23.23,0,0,0,250.87,203.2Z"/><path d="M249.11,212c-.13.2.12.42.18.43a.6.6,0,0,0,.43-.12c.05,0,0-.33-.08-.35S249.24,211.85,249.11,212Z"/><path d="M234.35,203.38c-.52-.17-.92.09-1.13.74a1,1,0,0,0,.49,1c.41.15,1.39-.22,1.49-.56S234.92,203.58,234.35,203.38Z"/><path d="M231.1,210.87c-.21-.05-.79,0-.86.16s.27.62.44.78.54,0,.71-.31A.41.41,0,0,0,231.1,210.87Z"/><path d="M230.43,202.05h-.65v0l-1.56-1.12a1.42,1.42,0,0,0,.77,1.57A1.46,1.46,0,0,0,230.43,202.05Z"/><path d="M227.94,204.06c-.14.24.19.39.31.47a.42.42,0,0,0,.34-.13.52.52,0,0,0-.12-.43A.38.38,0,0,0,227.94,204.06Z"/><path d="M236.45,211.52a.39.39,0,0,0,.15.44.38.38,0,0,0,.42-.18c.06-.11.07-.49-.09-.55S236.49,211.41,236.45,211.52Z"/><path d="M237.42,204.68a.79.79,0,0,0-.95.47.63.63,0,0,0,.38.8.69.69,0,0,0,1-.37A.75.75,0,0,0,237.42,204.68Z"/><path d="M239.1,216.11c-.12-.05-.32.11-.41.22s-.05.38.12.46.37-.2.43-.32A.34.34,0,0,0,239.1,216.11Z"/><path d="M225.17,202c-.23-.09-.58.18-.71.55a.38.38,0,0,0,.26.56c.3.09.6.09.76-.26A.72.72,0,0,0,225.17,202Z"/><path d="M236.17,207.3c-.25,0-.87,0-1,.25s.44.63.66.74.51,0,.59-.34S236.49,207.35,236.17,207.3Z"/><path d="M265.34,202.05a.47.47,0,0,0,.31.37c.25.11.6.1.66-.23a.33.33,0,0,0,0-.14Z"/><path d="M265.73,213.71c-.24,0-.87,0-.92.24s.33.65.53.8.59,0,.75-.38A.45.45,0,0,0,265.73,213.71Z"/><path d="M265.09,209.23a.56.56,0,0,0-.13-.43.37.37,0,0,0-.52.09c-.14.24.19.39.3.47A.43.43,0,0,0,265.09,209.23Z"/><path d="M263.49,202.12a1.17,1.17,0,0,0-.48-.07H263a1.23,1.23,0,0,0-1.09.87,1.55,1.55,0,0,0,.93,1.84,1.63,1.63,0,0,0,1.77-.94C264.82,203.14,264.37,202.43,263.49,202.12Z"/><path d="M271,209.44c-.27,0-.94.06-1,.34s.52.66.77.76.56,0,.61-.42S271.3,209.47,271,209.44Z"/><path d="M263.56,206.48a.38.38,0,0,0-.51.29.41.41,0,0,0,.28.45.37.37,0,0,0,.47-.18A.39.39,0,0,0,263.56,206.48Z"/><path d="M270.47,204.49a.76.76,0,0,0-.41-.57c-.17,0-.72.13-.77.33s.39.66.51.65S270.48,204.69,270.47,204.49Z"/><path d="M268.67,205.33c-.57-.15-1,.17-1.16.89a1,1,0,0,0,.6,1.1c.46.13,1.5-.34,1.58-.72S269.3,205.5,268.67,205.33Z"/><path d="M259.21,202.05a.46.46,0,0,0,.35.21.63.63,0,0,0,.41-.21Z"/><path d="M255.43,212.19a1.12,1.12,0,0,0-1.58-.24,1,1,0,0,0-.09,1.19.77.77,0,0,0,1,.39c.33-.1,1.06-.12,1.16-.62S255.58,212.39,255.43,212.19Z"/><path d="M257.32,212.6c-.2,0-.58,0-.66.17s.11.53.26.62.72,0,.79-.16S257.45,212.62,257.32,212.6Z"/><path d="M253.29,207.73a.72.72,0,0,0-.84.33.87.87,0,0,0,.32,1,.68.68,0,0,0,.84-.35A.74.74,0,0,0,253.29,207.73Z"/><path d="M252.88,202.2a.39.39,0,0,0,0-.15h-1.59a.77.77,0,0,0,.6.58,1,1,0,0,0,.42,0h.06a.46.46,0,0,0,.35-.2A.72.72,0,0,0,252.88,202.2Z"/><path d="M261.77,206.56c-.14.28.23.41.37.48a.44.44,0,0,0,.36-.16.55.55,0,0,0-.17-.46A.41.41,0,0,0,261.77,206.56Z"/><path d="M251,205.23c0,.12.23.4.37.48s.36-.1.36-.17a.59.59,0,0,0-.16-.46C251.48,205,251.05,205.1,251,205.23Z"/><path d="M258.61,204.56c-.2-.06-.45.11-.61.37a.67.67,0,0,0-.27.32,1.18,1.18,0,0,0,.44,1.5,1.06,1.06,0,0,0,1.14-.69.89.89,0,0,0-.3-.95A.75.75,0,0,0,258.61,204.56Z"/><path d="M258.77,210.2a.61.61,0,0,0-.84.29.7.7,0,0,0,.33.85.57.57,0,0,0,.83-.28A.71.71,0,0,0,258.77,210.2Z"/><path d="M320.81,202.37c-.1.79.23,1.43.74,1.49a1.3,1.3,0,0,0,1.22-1,.91.91,0,0,0-.31-.77H321A.59.59,0,0,0,320.81,202.37Z"/><path d="M291.79,212.4c.12,0,.37-.17.39-.29s-.07-.55-.3-.54a.55.55,0,0,0-.41.46A.48.48,0,0,0,291.79,212.4Z"/><path d="M301.74,209c-.13.28.24.41.37.48s.36-.09.36-.16a.58.58,0,0,0-.16-.46A.42.42,0,0,0,301.74,209Z"/><path d="M303,207.71c0-.36-.28-.42-.56-.44s-.69.25-.6.6.13.54.37.62S303,208.1,303,207.71Z"/><path d="M292.08,205.92c0-.35-.09-.68-.52-.74s-.86.59-.76.83.41.35.69.4A.46.46,0,0,0,292.08,205.92Z"/><path d="M254.77,204.81a.67.67,0,0,0,.63-.66.67.67,0,0,0-.47-.79,1.06,1.06,0,0,0-1.1.62A1,1,0,0,0,254.77,204.81Z"/><path d="M304.13,209.16c-.07.32.52.91.81.8a.86.86,0,0,0,.5-.6.62.62,0,0,0-.59-.77A.69.69,0,0,0,304.13,209.16Z"/><path d="M283.88,203.22a1.36,1.36,0,0,0,1.45-.77.56.56,0,0,0,0-.4h-2.12A1.24,1.24,0,0,0,283.88,203.22Z"/><path d="M285.28,202.87a.85.85,0,0,0,.78.79.92.92,0,0,0,.8-.78.7.7,0,0,0-.65-.76A.85.85,0,0,0,285.28,202.87Z"/><path d="M324.56,203c.41,0,.87,0,1-.48a.7.7,0,0,0-.19-.49h-.89C324.23,202.34,324.3,202.67,324.56,203Z"/><path d="M335,197.14c0,.6.27,1,.72,1s1.34-.7,1.37-1a1.1,1.1,0,0,0-1.18-1.12C335.33,196,335,196.4,335,197.14Z"/><path d="M333.23,202.06a2.42,2.42,0,0,0-.51.73c-.11.43.36.82.84.81a.7.7,0,0,0,.66-.75A.94.94,0,0,0,333.23,202.06Z"/><path d="M254.33,202.9c.06-.12,0-.56-.14-.59s-.41.19-.43.3-.08.48.1.51A.49.49,0,0,0,254.33,202.9Z"/><path d="M333.64,194.35a.49.49,0,0,0,.67-.43.6.6,0,0,0-.5-.76,1.4,1.4,0,0,0-.72.27c-.06-.43-.28-.67-.65-.69a.79.79,0,0,0-.79,1c.12.52-.18.74-.45,1.09-1-.7-1.67-.51-2,.46a1.71,1.71,0,0,0-.09.3c-.14.69.11,1,.81,1.11s1.16.07,1.49-.82a3.27,3.27,0,0,1,.32.79.73.73,0,0,0,.69.74,1.07,1.07,0,0,0,1.18-.41c.86-1.36.79-1.82-.41-2.86a.29.29,0,0,1-.08-.1h0A1.88,1.88,0,0,0,333.64,194.35Z"/><path d="M223.47,209.31c-.19-.05-.54,0-.62.11a.62.62,0,0,0,.2.59c.12.08.65.07.73-.1S223.58,209.34,223.47,209.31Z"/><path d="M272.08,213.64c-.17,0-.47.23-.5.36a.42.42,0,0,0,.19.47.44.44,0,0,0,.45-.23C272.27,214.12,272.25,213.7,272.08,213.64Z"/><path d="M216.05,192.15c-.29,0-.69.33-.68.51s.26.41.47.54a.41.41,0,0,0,.64-.26.89.89,0,0,0,0-.45Z"/><path d="M218.16,200.27a.22.22,0,0,0-.24.14c0,.06.08.2.13.22s.19,0,.23-.09A.21.21,0,0,0,218.16,200.27Z"/><path d="M214.72,197.66a.37.37,0,0,0-.31.67.43.43,0,0,0,.41-.14C214.87,198.08,214.92,197.71,214.72,197.66Z"/><path d="M218.16,202.14c0,.1.19.38.31.46s.33-.06.34-.13a.52.52,0,0,0-.12-.43C218.61,202,218.2,202,218.16,202.14Z"/><path d="M222,205.2a.67.67,0,0,0-.89.39.54.54,0,0,0,.3.81.67.67,0,0,0,.9-.35A.7.7,0,0,0,222,205.2Z"/><path d="M219.53,198.49a.72.72,0,0,0-.86.48.67.67,0,0,0,.48.85c.43.15.77.06.85-.23A1.13,1.13,0,0,0,219.53,198.49Z"/><path d="M211.84,192.89c-.17-.11-1,0-1.11.29s.52.84.8.94a.77.77,0,0,0,.83-.35C212.49,193.45,212.09,193.05,211.84,192.89Z"/><path d="M254.89,209.59a.72.72,0,0,0,1-.44.78.78,0,0,0-.4-.9.74.74,0,0,0-.94.49A.58.58,0,0,0,254.89,209.59Z"/><path d="M221.35,200.22c.07-.1.08-.51-.09-.55s-.39.15-.41.24-.1.44.06.48A.43.43,0,0,0,221.35,200.22Z"/><path d="M248.43,202.44a1.28,1.28,0,0,0,1.22-.39h-1.6A1,1,0,0,0,248.43,202.44Z"/><path d="M235,202.44c-.06.18.31.63.42.62s.64-.15.65-.33a.72.72,0,0,0-.35-.55C235.56,202.12,235,202.25,235,202.44Z"/><path d="M238.84,207.16c0,.06.08.2.13.22s.19,0,.23-.09a.21.21,0,0,0-.12-.27A.22.22,0,0,0,238.84,207.16Z"/><path d="M269.9,202.57c.12-.18.26-.35.35-.52h-1.34C269.08,202.42,269.45,202.52,269.9,202.57Z"/><path d="M272.39,202.05H272A1.41,1.41,0,0,0,272.39,202.05Z"/><path d="M310.58,203.21a2,2,0,0,0,1.46-1.16h-2.58A1.23,1.23,0,0,0,310.58,203.21Z"/><path d="M283.78,204.21c-.28-.08-.63.5-.68.71s.23.44.42.53.56,0,.56-.31S284.05,204.28,283.78,204.21Z"/><path d="M327.06,196.8a.81.81,0,0,1-.37-.8.62.62,0,0,0-.12-.35v4.4a1.3,1.3,0,0,0,1-.41A1.93,1.93,0,0,0,327.06,196.8Z"/><path d="M225.72,199.1c-.11.27.2.88.47.87a.66.66,0,0,0,.45-.21Z"/><path d="M324.63,210.89a.75.75,0,0,0-.58-.93,1.28,1.28,0,0,0-1.28,1,.87.87,0,0,0,.74.94A1.11,1.11,0,0,0,324.63,210.89Z"/><path d="M327.57,207.45a1.47,1.47,0,0,0-1-1.65,1.9,1.9,0,0,0-1.79,1.37,1.48,1.48,0,0,0,1.29,1.47A1.45,1.45,0,0,0,327.57,207.45Z"/><path d="M325.44,216.71c-.15,0-.3.23-.36.38s.08.43.3.45.32-.35.34-.5A.39.39,0,0,0,325.44,216.71Z"/><path d="M323.82,206.73a.81.81,0,0,0-.05-1c-.11-.11-.32-.24-.44-.2a8,8,0,0,0-1.1.43c-.84-.45-1.6-.43-1.87.08a1.57,1.57,0,0,0,.59,1.78c.58.33.9.14,1.59-1C323,207,323.45,207.31,323.82,206.73Z"/><path d="M330.67,198.29a.62.62,0,0,0-.69.59.81.81,0,0,0,.41,1,.93.93,0,0,0,1.23-.51A1,1,0,0,0,330.67,198.29Z"/><path d="M327.27,212.24a1.29,1.29,0,0,0-1.12,1.25c0,.67.46,1.08,1.23,1.06a1,1,0,0,0,1.16-1.12A1.22,1.22,0,0,0,327.27,212.24Z"/><path d="M329.7,202.57c-.75,0-1.14.22-1.18.79a1.33,1.33,0,0,0,1,1.32,1.42,1.42,0,0,0,1.25-1.15C330.85,203.09,330.28,202.59,329.7,202.57Z"/><path d="M321.21,212.9c-.15,0-.21.16-.22.24s.16.18.23.18.2-.07.2-.18A.22.22,0,0,0,321.21,212.9Z"/><path d="M329.7,205.69c-.29,0-.49.66-.49.89s.34.38.56.43.56-.12.48-.46S330,205.69,329.7,205.69Z"/><path d="M319.22,202.05a2.66,2.66,0,0,0,.63,0Z"/><path d="M314.86,210.7c-.61,0-.95.42-.94,1.18a1.07,1.07,0,0,0,.89,1c.5,0,1.41-.72,1.4-1.12S315.54,210.71,314.86,210.7Z"/><path d="M315.38,206.35a.79.79,0,0,0-1,0,.59.59,0,0,0-.22.79c.24.54.7.53,1.25.46C315.55,207.14,315.84,206.71,315.38,206.35Z"/><path d="M315.89,208.93c-.18,0-.69.32-.69.53s.57.56.68.52.62-.39.57-.59A.79.79,0,0,0,315.89,208.93Z"/><path d="M320.41,218.15c-.19,0-.41.35-.41.48s.12.41.31.43a.45.45,0,0,0,.39-.35C320.73,218.57,320.6,218.16,320.41,218.15Z"/><path d="M314.06,219.85c-.25,0-.85.26-.86.47s.51.57.75.67.59-.15.65-.58A.46.46,0,0,0,314.06,219.85Z"/><path d="M334.16,207.57c0-.34-.2-.64-.56-.57s-1,.29-1,.58.63.56.91.65S334.18,207.92,334.16,207.57Z"/><path d="M318.2,214.23c-.27.05-.93.31-.95.61s.69.52,1,.56.55-.18.51-.58S318.56,214.17,318.2,214.23Z"/><path d="M318.6,211a.89.89,0,0,0-.85.84.71.71,0,0,0,.69.72.77.77,0,0,0,.91-.74A.86.86,0,0,0,318.6,211Z"/><path d="M318.27,205.7a1.69,1.69,0,0,0-1.11-1c-.43-.05-.69.28-.72.89s.19,1,.68,1C317.79,206.61,318.28,206.24,318.27,205.7Z"/><path d="M336.82,203.35c-.62,0-1,.81-.95,1.06a1.1,1.1,0,0,0,1.29.55.77.77,0,0,0,.44-.94A.76.76,0,0,0,336.82,203.35Z"/><path d="M336.62,208.59a.83.83,0,0,0-.78.66,1,1,0,0,0,.69.9.74.74,0,0,0,.76-.67A.83.83,0,0,0,336.62,208.59Z"/><path d="M335,199.9a.86.86,0,0,0-.77.79.88.88,0,0,0,.81.76.76.76,0,0,0,.8-.73A.85.85,0,0,0,335,199.9Z"/><path d="M334.25,214.45c-.16,0-.48,0-.55.24s.27.4.34.39a.69.69,0,0,0,.42-.28C334.5,214.74,334.33,214.45,334.25,214.45Z"/><path d="M272.11,206.5a.87.87,0,0,0-1,.59.68.68,0,0,0,.47.84.75.75,0,0,0,1-.48A.83.83,0,0,0,272.11,206.5Z"/><path d="M331.37,210.88a.78.78,0,0,0-1,0,.6.6,0,0,0-.23.8c.25.54.71.53,1.26.46C331.54,211.67,331.84,211.25,331.37,210.88Z"/><path d="M289.56,208.59a.79.79,0,0,0-.89.43.94.94,0,0,0,.43,1,.74.74,0,0,0,.88-.45A.81.81,0,0,0,289.56,208.59Z"/><path d="M295.7,210.85a.66.66,0,0,0-.89.38.75.75,0,0,0,.42.89.63.63,0,0,0,.88-.36A.77.77,0,0,0,295.7,210.85Z"/><path d="M288.55,202.05h-1.12a.55.55,0,0,0-.13.17c-.21.36.14.85.59.95a.67.67,0,0,0,.8-.55A.72.72,0,0,0,288.55,202.05Z"/><path d="M287.1,207.51c-.21,0-1.05.31-1.08.7s.86.72,1.19.73a.86.86,0,0,0,.76-.68C288,207.88,287.44,207.6,287.1,207.51Z"/><path d="M285.36,213.59c-.13.22.15.44.23.45a.62.62,0,0,0,.46-.16s-.05-.36-.12-.38S285.48,213.37,285.36,213.59Z"/><path d="M296,206.32a1,1,0,0,0-.75-1.2c-.52-.16-.88,0-1,.44a1.29,1.29,0,0,0,.6,1.59A1.14,1.14,0,0,0,296,206.32Z"/><path d="M292.23,213.27a1.21,1.21,0,0,0-1.74-.14,1.1,1.1,0,0,0,0,1.3.85.85,0,0,0,1.13.34c.35-.14,1.14-.21,1.22-.76S292.4,213.47,292.23,213.27Z"/><path d="M294.58,203.71a.86.86,0,0,0-.74-.83.91.91,0,0,0-.85.85.7.7,0,0,0,.69.72A.77.77,0,0,0,294.58,203.71Z"/><path d="M291.58,204.54a.75.75,0,0,0-.57-.82,1.14,1.14,0,0,0-1.15.76,1.08,1.08,0,0,0,1.08.83A.75.75,0,0,0,291.58,204.54Z"/><path d="M276.76,214.85c-.13,0-.33.15-.42.28s0,.42.17.49.38-.25.44-.39A.38.38,0,0,0,276.76,214.85Z"/><path d="M277.46,206.84a1.26,1.26,0,0,0-1.44.59.87.87,0,0,0,.47,1.07,1.09,1.09,0,0,0,1.29-.64A.74.74,0,0,0,277.46,206.84Z"/><path d="M285.87,209.55c.06-.32,0-.65-.38-.67s-1,.05-1,.32.46.68.69.83S285.81,209.89,285.87,209.55Z"/><path d="M274.09,208.92a.24.24,0,0,0-.26.17c0,.06.1.21.16.22s.21,0,.24-.11A.22.22,0,0,0,274.09,208.92Z"/><path d="M277.86,202.48c-.37,0-.74.09-1.14.14a2.12,2.12,0,0,0-1.05-.57h-.39a.65.65,0,0,0-.33.19,1.54,1.54,0,0,0,.13,1.82c.46.44.81.35,1.72-.54.39.32.73.7,1.22.24a.77.77,0,0,0,.2-1C278.15,202.65,278,202.48,277.86,202.48Z"/><path d="M283.32,216.14a.58.58,0,0,0-.41.69c.11.57.54.67,1.07.73.27-.41.65-.74.3-1.19A.75.75,0,0,0,283.32,216.14Z"/><path d="M280.79,203.55a1.81,1.81,0,0,0-2,.86,1.43,1.43,0,0,0,.86,1.68,1.4,1.4,0,0,0,1.72-.75A1.42,1.42,0,0,0,280.79,203.55Z"/><path d="M279.93,209.75a1.26,1.26,0,0,0-1.36.91c-.17.62.18,1.12.9,1.29a1,1,0,0,0,1.36-.77A1.2,1.2,0,0,0,279.93,209.75Z"/><path d="M299.58,211.39c-.19,0-.36.3-.36.41s0,.5.24.49a.5.5,0,0,0,.41-.34C299.9,211.82,299.77,211.38,299.58,211.39Z"/><path d="M306.11,206.58a.82.82,0,0,0-.17.64.87.87,0,0,0,.1.65c.18.22.51.07.65-.24a1.2,1.2,0,0,0,0-.93A.35.35,0,0,0,306.11,206.58Z"/><path d="M296.48,213.14c-.14,0-.2.16-.21.24s.16.18.22.18.21-.07.21-.17A.23.23,0,0,0,296.48,213.14Z"/><path d="M309.07,203.37c.17-.56-.11-.94-1-1a14.35,14.35,0,0,0-1.55.59.69.69,0,0,0-.32,1,.72.72,0,0,0,.95.39,2.55,2.55,0,0,1,.68-.12A1.09,1.09,0,0,0,309.07,203.37Z"/><path d="M307.32,217c-.22,0-.58.17-.62.35s.24.5.42.55.73-.15.75-.36S307.45,217,307.32,217Z"/><path d="M310.47,204.6c-.49.27-.43,1.18-.06,1.89a1.4,1.4,0,0,0,1.77.36,1.43,1.43,0,0,0-1.71-2.25Z"/><path d="M305.22,213.31a.83.83,0,0,0-.64-.8c-.28,0-.55.4-.56.84s.15.51.47.51S305.17,213.74,305.22,213.31Z"/><path d="M308.85,208.81a1.28,1.28,0,0,0-1.43,1.22,1.62,1.62,0,0,0,1.4,1.61,1.7,1.7,0,0,0,1.53-1.39C310.44,209.49,309.81,208.9,308.85,208.81Z"/><path d="M308.79,213.42a.43.43,0,0,0-.53.29c-.06.3.34.34.5.38s.33-.19.32-.25S308.93,213.46,308.79,213.42Z"/><path d="M308.09,206.62c.05.48.24.84.74.8a.66.66,0,0,0,.48-.4.88.88,0,0,0-.2-.7C308.68,206,308.38,206.33,308.09,206.62Z"/><path d="M314.05,205c.72.23,1.58,0,1.55-.69a2.59,2.59,0,0,0-.78-1.61c-.3-.37-.84-.16-.78-.64h-2a.81.81,0,0,0,.41.44c.42.15-.21,1,.36,1.25S313.33,204.75,314.05,205Z"/><path d="M302.71,202.05a3.67,3.67,0,0,0,.48.26,3,3,0,0,0,.31-.26Z"/><path d="M297.31,210.75a.8.8,0,0,0-.74.82.73.73,0,0,0,.81.73c.5,0,.84-.21.82-.55A1.29,1.29,0,0,0,297.31,210.75Z"/><path d="M297.67,214.84c-.11,0-.52.16-.53.29s.34.35.5.39.33-.19.32-.26S297.81,214.88,297.67,214.84Z"/><path d="M298.39,205.12c-.58,0-1.09.44-1.09.88a1.39,1.39,0,0,0,1,1.26c.4,0,.91-.7.94-1.31A.9.9,0,0,0,298.39,205.12Z"/><path d="M300.6,206.44a.42.42,0,0,0-.53.36.45.45,0,0,0,.34.46.4.4,0,0,0,.5-.23A.42.42,0,0,0,300.6,206.44Z"/><path d="M302.37,217a.76.76,0,0,0-.82.73.61.61,0,0,0,.61.76.75.75,0,0,0,.84-.69A.8.8,0,0,0,302.37,217Z"/><path d="M301.43,202.73a1.19,1.19,0,0,0-.91-.16c-.56.21-.31.71-.25,1.2l.12,0,0,0c0,.16-.07.48.11.51a.48.48,0,0,0,.47-.22.65.65,0,0,0,0-.26.67.67,0,0,0,.61-.43A.73.73,0,0,0,301.43,202.73Z"/><rect class="cls-1" x="1.59" y="141.36" width="131.58" height="94.98"/><path class="cls-2" d="M5.72,209.14a.48.48,0,0,0-.27-.44c-.13,0-.57,0-.58.21s.25.39.35.4S5.71,209.32,5.72,209.14Z"/><path class="cls-2" d="M2.34,188.19a1.53,1.53,0,0,0,1.8-.34c.39-.51.25-.85-.75-1.66.28-.42.62-.81.11-1.24a.78.78,0,0,0-1-.08c-.12.08-.27.27-.25.39a10.64,10.64,0,0,0,.27,1.12C2,187.13,1.9,187.86,2.34,188.19Z"/><path class="cls-2" d="M111.64,235.69c.28.47.69.26,1.08.1.13-.47.08-.88-.4-1a.67.67,0,0,0-.6.21A.87.87,0,0,0,111.64,235.69Z"/><path class="cls-2" d="M3.85,210.79a1.48,1.48,0,0,0,0,1.56,1.09,1.09,0,0,0-.86.3,1.49,1.49,0,0,0-.48,2,1.79,1.79,0,0,0,1.46.47.69.69,0,0,0-.05.28,1.07,1.07,0,0,0-1.32.24c-.24.44-.05,1.13.33,1.22s1-.61,1.11-1.08a.7.7,0,0,0,.21.21.81.81,0,0,0,1-.32A.77.77,0,0,0,5,214.63l-.13-.06a1.42,1.42,0,0,0,0-1.5L4.84,213a1.31,1.31,0,0,0,1.25-.77,1.93,1.93,0,0,0,.24-.62.7.7,0,0,0,.52.18,1,1,0,0,0,.77-1.21,1.28,1.28,0,0,0-1-.95,1,1,0,0,0-1,.7A1.42,1.42,0,0,0,3.85,210.79Z"/><path class="cls-2" d="M9.72,200.2a.55.55,0,0,0,.5,0c.08-.09.15-.49,0-.6s-.45.14-.56.26S9.58,200.14,9.72,200.2Z"/><path class="cls-2" d="M9.51,188.31c0-.07,0-.21-.14-.23a.22.22,0,0,0-.26.18c0,.14.13.22.2.24S9.51,188.37,9.51,188.31Z"/><path class="cls-2" d="M8,200.29a.42.42,0,0,0,.21.55c.29.1.38-.29.43-.43s-.13-.34-.2-.34A.59.59,0,0,0,8,200.29Z"/><path class="cls-2" d="M10.47,192.32c.29.06.59-.6.66-.86s-.1-.55-.49-.56-.65.08-.63.43S10.18,192.26,10.47,192.32Z"/><path class="cls-2" d="M79.38,229.11c.49-.06,1,0,1.13-.58a.67.67,0,0,0-.43-.84.92.92,0,0,0-.75.06C78.86,228.14,79,228.6,79.38,229.11Z"/><path class="cls-2" d="M7.82,189.91a.84.84,0,0,0-.89.61.87.87,0,0,0,.7.93.7.7,0,0,0,.79-.57A.76.76,0,0,0,7.82,189.91Z"/><path class="cls-2" d="M80,232.76a1.16,1.16,0,0,0,1.63-.57,1.56,1.56,0,0,0-.81-2,1.61,1.61,0,0,0-1.76.77C78.76,231.63,79.15,232.37,80,232.76Z"/><path class="cls-2" d="M113.9,230.79a1.69,1.69,0,0,0-2,.74c-.36.67,0,1.47.88,1.9a1.28,1.28,0,0,0,1.8-.61A1.62,1.62,0,0,0,113.9,230.79Z"/><path class="cls-2" d="M90.15,230.18a1.14,1.14,0,0,0,.68,1.33c.7.31,1.16.21,1.41-.31a1.34,1.34,0,0,0-.48-1.62A1.43,1.43,0,0,0,90.15,230.18Z"/><path class="cls-2" d="M11.72,212.26a.75.75,0,0,0,.33,1.05c.33.15.5-.05.64-.29a.51.51,0,0,0-.25-.8A2.35,2.35,0,0,0,11.72,212.26Z"/><path class="cls-2" d="M102.78,232.84a1.71,1.71,0,0,0,.64,1.41c.39.2.77,0,1-.58s.2-1-.25-1.23A1,1,0,0,0,102.78,232.84Z"/><path class="cls-2" d="M103.75,214.38c.06-.07.09-.43-.11-.53s-.43.2-.51.34a.4.4,0,0,0,.14.42C103.41,214.67,103.64,214.5,103.75,214.38Z"/><path class="cls-2" d="M97.93,229.8a.8.8,0,0,0-.34,1c.06.14.21.34.34.36a9.6,9.6,0,0,0,1.2,0c.62.74,1.34,1,1.79.63a1.6,1.6,0,0,0,.11-1.9c-.42-.53-.8-.47-1.87.33C98.81,229.83,98.49,229.38,97.93,229.8Z"/><path class="cls-2" d="M100.49,226.24a.89.89,0,0,0-.34-1.17,1.14,1.14,0,0,0-1.43.5.78.78,0,0,0,.2,1.1A1.3,1.3,0,0,0,100.49,226.24Z"/><path class="cls-2" d="M95.63,235.09a9,9,0,0,0-1.87.57,1.91,1.91,0,0,0-2-.6,1.7,1.7,0,0,0-.92,1.28h6A1.06,1.06,0,0,0,95.63,235.09Z"/><path class="cls-2" d="M8.47,207.19c0,.39.73,1.06,1.19,1.08s.88.07,1.06-.51a2,2,0,0,1,.08-.22.94.94,0,0,0,.46.29.59.59,0,0,0,.8-.49.73.73,0,0,0-.56-.9.7.7,0,0,0-.25,0,.63.63,0,0,0-.11-.95.84.84,0,0,0-1.16.17,2.17,2.17,0,0,1-.66.52A1.14,1.14,0,0,0,8.47,207.19Z"/><path class="cls-2" d="M4.44,216.81a.52.52,0,0,0,.41-.27.46.46,0,0,0-.24-.4c-.13,0-.54,0-.55.21S4.31,216.78,4.44,216.81Z"/><path class="cls-2" d="M2.67,220a1.66,1.66,0,0,0-.75-.64,3.43,3.43,0,0,0-.33-.12v4.49a1.34,1.34,0,0,0,.31-.35,1,1,0,0,0-.14-1.35L1.6,222a1.54,1.54,0,0,0,1.06-.78,1.48,1.48,0,0,0,.15-.48,2,2,0,0,0,1.78.67,1.45,1.45,0,0,0,.88-1.55c0-.47-.18-.87.29-1.26s.15-.67-.15-1c-.59,0-.88.29-.84.78a7.76,7.76,0,0,0-1.39.38A1.77,1.77,0,0,0,2.67,220Z"/><path class="cls-2" d="M8.57,216.54c.31-.55.23-1.24-.17-1.44a1.54,1.54,0,0,0-1.53.37.73.73,0,0,0-.46.32c-.37.54-.32.81.19,1.4a12.92,12.92,0,0,0-.08,1.48.51.51,0,0,0,.89.33c.34-.42.84-.79.82-1.46l-.36-.39A1.1,1.1,0,0,0,8.57,216.54Z"/><path class="cls-2" d="M3.4,218a.29.29,0,0,0,.18.39c.15,0,.47.09.6-.15s-.22-.45-.3-.45S3.5,217.79,3.4,218Z"/><path class="cls-2" d="M107.07,230.44c.08-.2-.32-.73-.44-.73s-.73.13-.76.33a.82.82,0,0,0,.36.65C106.4,230.76,107,230.65,107.07,230.44Z"/><path class="cls-2" d="M105.74,233.31a.8.8,0,0,0,1,.37.6.6,0,0,0,.51-.66c0-.61-.47-.77-1-.91C105.88,232.51,105.44,232.8,105.74,233.31Z"/><path class="cls-2" d="M2.16,201.57a1.26,1.26,0,0,0-.57-.15v.81l.08,0a.91.91,0,0,0,.63,0C2.55,202.09,2.44,201.75,2.16,201.57Z"/><path class="cls-2" d="M31.51,228.13c.13-.18-.14-.46-.26-.55a.41.41,0,0,0-.44.08c-.08.12.05.38.16.5S31.38,228.31,31.51,228.13Z"/><path class="cls-2" d="M6.42,211.94a.21.21,0,0,0-.26.18.24.24,0,0,0,.2.23c.07,0,.2-.13.2-.19S6.52,212,6.42,211.94Z"/><path class="cls-2" d="M2.47,227.43A1.66,1.66,0,0,0,3.12,229a1.09,1.09,0,0,0,.54.16,1.25,1.25,0,0,0,.14,1.22,1.44,1.44,0,0,0-1.41.64,1.55,1.55,0,0,0,.5,2,1.48,1.48,0,0,0,.55.18.62.62,0,0,0-.07.19c-.11.64,0,1.09.32,1.17a1.33,1.33,0,0,0,1.13-.72c.06-.25-.22-.67-.54-.87a1.54,1.54,0,0,0,.46-.54,1.27,1.27,0,0,0-.36-1.9,1.4,1.4,0,0,0,1.07-.79,1.34,1.34,0,0,0-.66-1.21,1.44,1.44,0,0,0-.31-2,1.17,1.17,0,0,0-.33-.11,1.7,1.7,0,0,0-.1-.32,1,1,0,0,0,0-.34.81.81,0,0,0-.73-.74c-.58-.06-.74.45-1,.9l0,.05a2,2,0,0,0-.22.37A.85.85,0,0,0,2.47,227.43Z"/><path class="cls-2" d="M2.41,206c.11-.21-.28-.83-.65-.86a.44.44,0,0,0-.17,0v1.09a.32.32,0,0,0,.17,0C2,206.28,2.31,206.25,2.41,206Z"/><path class="cls-2" d="M5.5,222.67a.92.92,0,0,0,.41,1.11.6.6,0,0,0,.23.06.36.36,0,0,0,0,.11c0,.09.05.19.08.28a.68.68,0,0,0-.18-.15c-.7-.41-1.34-.39-1.61.07a1.39,1.39,0,0,0,.35,1.45c.35.21,1.19-.12,1.48-.58a.7.7,0,0,0,.11-.51.5.5,0,0,0,.1.11,1.63,1.63,0,0,0,1.37.36,1.21,1.21,0,0,0,.88-.92,1,1,0,0,0-.37-1,1.25,1.25,0,0,0-1.13-.3l-.26.08a.77.77,0,0,0-.38-.5A.85.85,0,0,0,5.5,222.67Z"/><path class="cls-2" d="M21.88,221.6a1.12,1.12,0,0,0,1.59-.32,1.76,1.76,0,0,0-.42-2.18,1.31,1.31,0,0,0-1.68.5A1.42,1.42,0,0,0,21.88,221.6Z"/><path class="cls-2" d="M21.48,224a1.43,1.43,0,0,0,1.67-.28,1.37,1.37,0,0,0-.52-1.72,1.39,1.39,0,0,0-1.71.74A1,1,0,0,0,21.48,224Z"/><path class="cls-2" d="M19.56,236.34v0a1,1,0,0,0-.81-1.23,1.81,1.81,0,0,1-.42-.28c-.47-.32-.87-.34-1.08,0s-.11.86.47,1.15c.05,0,.14,0,.2,0s.27.25.24.39Z"/><path class="cls-2" d="M29.18,233.5c-.21.32,0,.95.61,1.35.15,0,.48-.06.64-.23a1,1,0,0,0,.21-.49.92.92,0,0,0,.86-.54A1.32,1.32,0,0,0,31,232c-.38-.16-1.36.43-1.53.94a.72.72,0,0,0,0,.36A.67.67,0,0,0,29.18,233.5Z"/><path class="cls-2" d="M14.16,217.07a1,1,0,0,0,1.46-.42c.27-.4.05-1-.53-1.32a.76.76,0,0,0-1.14.17A1.61,1.61,0,0,0,14.16,217.07Z"/><path class="cls-2" d="M14.29,210.64c.33.15.49,0,.63-.29s.1-.73-.25-.8a2.29,2.29,0,0,0-.71,0A.75.75,0,0,0,14.29,210.64Z"/><path class="cls-2" d="M19.9,225.66a.68.68,0,0,0,.38-.94,1,1,0,0,0-.38-.42.74.74,0,0,0,0-.36c-.06-.29-1.39-.2-1.58.08s.12.63.54.82a3.59,3.59,0,0,0-.08.35C19.08,225.53,19.41,225.87,19.9,225.66Z"/><path class="cls-2" d="M12.86,176.17a.65.65,0,0,0-.22-.44c-.05,0-.35.09-.36.16s-.08.47.16.56S12.86,176.25,12.86,176.17Z"/><path class="cls-2" d="M19.24,232.09a1.41,1.41,0,0,0-1.18,1.39,1.47,1.47,0,0,0,1.76,1,1.44,1.44,0,0,0,1.06-1.4C20.87,232.48,20,232.1,19.24,232.09Z"/><path class="cls-2" d="M28.45,233.82a.88.88,0,0,0-.34-1.07,1.24,1.24,0,0,0-1.21.34,1.07,1.07,0,0,0,.45,1.15A.79.79,0,0,0,28.45,233.82Z"/><path class="cls-2" d="M21.56,234.09c-.22.27.15.62.29.7s.47.16.62-.09a.48.48,0,0,0-.15-.6C22.2,234,21.78,233.81,21.56,234.09Z"/><path class="cls-2" d="M22.46,226.75c-.32-.33-1.3.05-1.31.39s.88.9,1.22.61A.77.77,0,0,0,22.46,226.75Z"/><path class="cls-2" d="M124,234.66a1.28,1.28,0,0,0,.47,1.27.81.81,0,0,0,1-.49.76.76,0,0,0-.49-1C124.46,234.24,124.06,234.33,124,234.66Z"/><path class="cls-2" d="M41.87,225.51a.88.88,0,0,0,1.11-.17,1.16,1.16,0,0,0-.17-1.23,1.11,1.11,0,0,0-1.28.35A.78.78,0,0,0,41.87,225.51Z"/><path class="cls-2" d="M48.16,227.14H48a1.34,1.34,0,0,0-1.56.69c-.31.53-.1,1,.57,1.41a1.08,1.08,0,0,0,1.28-.31,2,2,0,0,0,0-1.33l0-.07C48.34,227.46,48.23,227.15,48.16,227.14Z"/><path class="cls-2" d="M39.39,233.5a1,1,0,0,0,1.52-.33,1.27,1.27,0,0,0-.41-1.88,1.34,1.34,0,0,0-1.77.26C38.35,232.06,38.68,233,39.39,233.5Z"/><path class="cls-2" d="M42.89,222.35a.71.71,0,0,0-.16-1,.61.61,0,0,0-.88.23.57.57,0,0,0,.14.81A.61.61,0,0,0,42.89,222.35Z"/><path class="cls-2" d="M39.59,226.9a1.07,1.07,0,0,0,.06,1.4,1.22,1.22,0,0,0,1.41-.16c.27-.4,0-1.08-.6-1.45a.72.72,0,0,0-.29-.1.59.59,0,0,0,.3-.32c.13-.28.13-.68-.23-.76a.89.89,0,0,0-.78.24c-.11.22.07.57.11.77a.94.94,0,0,0,.36.1A.74.74,0,0,0,39.59,226.9Z"/><path class="cls-2" d="M38.13,221.54c-.05-.22-.57-.36-.9-.5a.31.31,0,0,0-.45.14,1,1,0,0,0,.46,1.11A.7.7,0,0,0,38.13,221.54Z"/><path class="cls-2" d="M54.91,234.42a1.06,1.06,0,0,0,.78-.3,1.49,1.49,0,0,0,0-2.1,5.5,5.5,0,0,0-1,.09,1.16,1.16,0,0,0-.88,1.12A1.27,1.27,0,0,0,54.91,234.42Z"/><path class="cls-2" d="M52.81,221.39c.4-.37,1-.65,1-1.31l-.42-.65c.24-.68.16-1.37-.21-1.56a.73.73,0,0,0-.89.17c-.45.47-.45.75,0,1.41a11.4,11.4,0,0,0-.32,1.46A.51.51,0,0,0,52.81,221.39Z"/><path class="cls-2" d="M57.68,231.25a.82.82,0,0,0,.24,1.12,2.56,2.56,0,0,0,.74-.37c.25-.26.13-.59-.17-.78S57.93,230.93,57.68,231.25Z"/><path class="cls-2" d="M57.06,224.85a.81.81,0,0,0-1.2-.1,1.18,1.18,0,0,0-.1,1.67c.42.51.78.35,1,.7s.53.34,1,.17,1.07-.43.82-1-.67-.5-.84-.41-.55,0-.4-.19S57.45,225.23,57.06,224.85Z"/><path class="cls-2" d="M54.61,230.52c.16-.18.16-.33,0-.47a.28.28,0,0,0-.47,0,.28.28,0,0,0,0,.44C54.31,230.68,54.46,230.7,54.61,230.52Z"/><path class="cls-2" d="M34.65,228.84c.38.47.8.44,1.28.08,1.12.91,1.87.54,2.14-1a1.15,1.15,0,0,1,.28-.09c.42-.06.55-.34.6-.72a.71.71,0,0,0-.41-.75c-.69-.47-1.07-.39-1.49.34-.32.55-.67,1.09-1,1.62C35,227.81,34.89,227.87,34.65,228.84Z"/><path class="cls-2" d="M2.81,167.63c-.1.54.1.87.56,1,.67.13,1.44-.27,1.52-.79a1.16,1.16,0,0,0-1-1.08A1.05,1.05,0,0,0,2.81,167.63Z"/><path class="cls-2" d="M5.06,234c-.1.23-.24.65,0,.83a1,1,0,0,0,.92-.16c.27-.17.13-.64-.15-.83A.5.5,0,0,0,5.06,234Z"/><path class="cls-2" d="M125.89,231.32c-.07,0-.38.05-.39.12a.59.59,0,0,0,.11.5c.09.08.55.05.61-.07S126,231.42,125.89,231.32Z"/><path class="cls-2" d="M126.38,233.85c0-.07-.08-.23-.14-.25s-.22,0-.26.08a.22.22,0,0,0,.11.31A.25.25,0,0,0,126.38,233.85Z"/><path class="cls-2" d="M122.45,233.85c-.07.11-.12.57.07.63a.51.51,0,0,0,.49-.25c.06-.16.14-.49,0-.55A.53.53,0,0,0,122.45,233.85Z"/><path class="cls-2" d="M33.55,232.25a1.13,1.13,0,0,0,.36,1.68,1.07,1.07,0,0,0,1.45-.21,1.59,1.59,0,0,0-.48-1.93.59.59,0,0,0-.2,0,.77.77,0,0,0,.14-.21c.19-.39.1-.73-.3-.8s-.9-.29-1.1.14.36.78.58,1h0A1,1,0,0,0,33.55,232.25Z"/><path class="cls-2" d="M27.18,218.23c0-.13-.21-.52-.44-.54s-.45.47-.43.62a.56.56,0,0,0,.47.35A.6.6,0,0,0,27.18,218.23Z"/><path class="cls-2" d="M26.4,222.68a1.37,1.37,0,0,0,1.62-.53,1.25,1.25,0,0,0-.59-1.48c-.52-.27-1-.06-1.29.62A1.21,1.21,0,0,0,26.4,222.68Z"/><path class="cls-2" d="M4.33,162.18a.39.39,0,0,0-.29-.47.42.42,0,0,0-.55.38.41.41,0,0,0,.42.48A.46.46,0,0,0,4.33,162.18Z"/><path class="cls-2" d="M50.78,226.09a1.29,1.29,0,0,0,.22.71,1.63,1.63,0,0,0,1.3.58,1.2,1.2,0,0,0,1-.77,1,1,0,0,0-.2-1,1.27,1.27,0,0,0-1.07-.48c-.43.09-.93,0-1.14.33A.76.76,0,0,0,50.78,226.09Z"/><path class="cls-2" d="M58.71,234.39a1.79,1.79,0,0,0-2.21.1,1.4,1.4,0,0,0,0,1.85h2.12A1.44,1.44,0,0,0,58.71,234.39Z"/><path class="cls-2" d="M50.68,230.59a.4.4,0,0,0,.3.41.59.59,0,0,0,.52-.33c0-.18-.2-.38-.38-.4A.41.41,0,0,0,50.68,230.59Z"/><path class="cls-2" d="M72.58,236a1.83,1.83,0,0,0-.73-2.08,1.25,1.25,0,0,0-1.77.49,1.33,1.33,0,0,0,.19,2h2A1.4,1.4,0,0,0,72.58,236Z"/><path class="cls-2" d="M63.78,222.84A1.79,1.79,0,0,0,64,224.6a.94.94,0,0,0,.59.36,1.44,1.44,0,0,0,1.66-1.16c0-.16.08-.32.12-.5a9,9,0,0,0,.92.24c.58.1.83-.07,1-.62a1.17,1.17,0,0,0-.36-1.31,1.05,1.05,0,0,0-1.26,0,5.32,5.32,0,0,0-.79.66c-.16,0-.32-.09-.49-.11A1.57,1.57,0,0,0,63.78,222.84Z"/><path class="cls-2" d="M64.84,219.92a.72.72,0,0,0,.48-.8.67.67,0,0,0-1.15-.19A.69.69,0,0,0,64.84,219.92Z"/><path class="cls-2" d="M61.17,224.65a.72.72,0,0,0,.47-.79c-.1-.39-.36-.44-1.15-.2A.69.69,0,0,0,61.17,224.65Z"/><path class="cls-2" d="M59.22,232.15a1.59,1.59,0,0,0,.17,1.06,1.71,1.71,0,0,0,1.17.81c.55.14.84.64,1.4.55a2.36,2.36,0,0,0,2-2,1.93,1.93,0,0,0-.53-1.75c-.49-.45-1.22,0-1.87-.26C60.05,230,59.41,231.05,59.22,232.15Z"/><path class="cls-2" d="M74.2,227c.18.06.45-.15.49-.25s.14-.49,0-.55a.55.55,0,0,0-.52.16C74.05,226.49,74,227,74.2,227Z"/><path class="cls-2" d="M74,221.19c.18-.26-.19-.45-.32-.54s-.38,0-.39.12a.6.6,0,0,0,.11.5A.43.43,0,0,0,74,221.19Z"/><path class="cls-2" d="M79.61,224.75a1.08,1.08,0,0,0,.63,1.34.75.75,0,0,0,1.12-.32A1.35,1.35,0,0,0,81,224,1.2,1.2,0,0,0,79.61,224.75Z"/><path class="cls-2" d="M81.71,235.24a1.35,1.35,0,0,1,.29,0,.62.62,0,0,0,.25,0,1.41,1.41,0,0,0,.31.21c.51.22,1,0,1.28-.72a1.64,1.64,0,0,0,.12-.4.57.57,0,0,0,.4-.27c.18-.26.24-.65-.11-.79a.89.89,0,0,0-.81.11s0,0,0,.08a2.44,2.44,0,0,0-1.18.22c-.51-.39-.87-.31-1.34.27s-.84,1-1.25,1.44c-.94-.69-1.07-.66-1.48.26.3.53.73.57,1.26.29a2.35,2.35,0,0,0,.56.48H81A2.39,2.39,0,0,0,81.71,235.24Z"/><path class="cls-2" d="M81.46,219.79a.78.78,0,0,0-.32-1,.65.65,0,0,0-1,.26.82.82,0,0,0,.31,1A.69.69,0,0,0,81.46,219.79Z"/><path class="cls-2" d="M76.05,224.36A1.1,1.1,0,0,0,76,223a1.26,1.26,0,0,0-1.53.09c-.31.37-.08,1.07.49,1.5A.89.89,0,0,0,76.05,224.36Z"/><path class="cls-2" d="M72.22,230.43c-.49.69-.42,1.07.3,1.52.55.33,1.08.69,1.61,1-.56,1-.51,1.16.46,1.44.49-.37.47-.8.12-1.29a2.81,2.81,0,0,0,.32-.47,1.37,1.37,0,0,0,1.45-.72,1.38,1.38,0,0,0-.49-1.73,1.51,1.51,0,0,0-1.91.75s0,0,0,.06l-.28-.07a1.4,1.4,0,0,1-.09-.29c0-.43-.33-.57-.7-.62A.72.72,0,0,0,72.22,230.43Z"/><path class="cls-2" d="M43.82,227a1.76,1.76,0,0,1-.94.54c-.15.05-.28.38-.28.61-.13-.07-.56-.1-.61.08s.16.45.26.48.49.13.55,0v-.07a1.17,1.17,0,0,0,.29.22.73.73,0,0,0,.6-.23,6.25,6.25,0,0,0,.72-1c.19-.29.08-.52-.24-.71C44.07,227,43.88,226.94,43.82,227Z"/><path class="cls-2" d="M49.51,219.62c-.16,0-.38-.08-.51.13a.28.28,0,0,0,.12.41c.14.06.44.17.61,0S49.59,219.64,49.51,219.62Z"/><path class="cls-2" d="M50.76,234.48c.56.38,1.1.35,1.36-.06a1.76,1.76,0,0,0-.31-1.7,1,1,0,0,0-1.4.41C50,233.69,50.12,234.06,50.76,234.48Z"/><path class="cls-2" d="M49,234.33a.68.68,0,0,0,.29.95.78.78,0,0,0,1-.34A.66.66,0,0,0,50,234,.79.79,0,0,0,49,234.33Z"/><path class="cls-2" d="M47.5,230.71c-.39.7-.36,1.33.07,1.57a1.07,1.07,0,1,0,1-1.88A.93.93,0,0,0,47.5,230.71Z"/><path class="cls-2" d="M48.57,217.28c-.3.4-.23,1.12.14,1.27s1.36-.65,1.31-1.11S48.88,216.88,48.57,217.28Z"/><path class="cls-2" d="M44.87,232.6a.58.58,0,0,0-.08-.89c-.48-.43-.93-.56-1.16-.34a1.29,1.29,0,0,0,0,1.34A1.11,1.11,0,0,0,44.87,232.6Z"/><path class="cls-2" d="M47.24,234.62a.59.59,0,0,0-.79.41c-.22.61-.17,1.08.12,1.21a1.3,1.3,0,0,0,1.24-.53C47.94,235.43,47.6,234.79,47.24,234.62Z"/><path class="cls-2" d="M45.82,229.06a.42.42,0,0,0-.19-.54.44.44,0,0,0-.64.26.44.44,0,0,0,.31.59A.49.49,0,0,0,45.82,229.06Z"/><path class="cls-2" d="M43.05,234.23c-.22.52-.1.9.35,1.1a1.34,1.34,0,0,0,1.71-.45,1.2,1.2,0,0,0-.74-1.31A1.08,1.08,0,0,0,43.05,234.23Z"/><path class="cls-2" d="M44.39,224.18c-.31.5-.15,1,.47,1.36s1,.13,1.33-.49a.79.79,0,0,0-.11-1.09A1.67,1.67,0,0,0,44.39,224.18Z"/><path class="cls-2" d="M1.92,172c-.06.6.65,1,.89,1a1.07,1.07,0,0,0,.7-1.17.75.75,0,0,0-.85-.55A.73.73,0,0,0,1.92,172Z"/><path class="cls-2" d="M25,235.7c.15-.26-.12-.95-.45-1.17a.72.72,0,0,0-1.05.28.67.67,0,0,0,.18,1C24.12,236.05,24.85,236,25,235.7Z"/><path class="cls-2" d="M21.11,236.34h0Z"/><path class="cls-2" d="M24.79,225.35a1.09,1.09,0,0,0-1.49.44,1.27,1.27,0,0,0,.06,1.07.73.73,0,0,0-.53.59c-.1.53.33.77.76,1,.41-.28.91-.49.72-1.09a1.09,1.09,0,0,0-.08-.15,1.85,1.85,0,0,0,1.07-.92A.77.77,0,0,0,24.79,225.35Z"/><path class="cls-2" d="M17.56,210.66c-.12-.06-.41-.07-.51.09s0,.41.13.5.53.15.62,0S17.68,210.72,17.56,210.66Z"/><path class="cls-2" d="M26.17,227.17c.19.09.74.24.95-.17s-.26-.67-.42-.74a.74.74,0,0,0-.67.14A.48.48,0,0,0,26.17,227.17Z"/><path class="cls-2" d="M26.6,236.34h.29A.57.57,0,0,0,26.6,236.34Z"/><path class="cls-2" d="M17.73,204.58c-.12.19.16.44.28.53a.37.37,0,0,0,.42-.1c.07-.12-.07-.37-.18-.48S17.84,204.4,17.73,204.58Z"/><path class="cls-2" d="M18.18,214.75c-.22.6.48,1,.82.86a.72.72,0,0,0,.34-.86A.66.66,0,0,0,18.18,214.75Z"/><path class="cls-2" d="M28.16,228.22a1.24,1.24,0,0,0-1.66.76,1.36,1.36,0,0,0,.76,2,1.52,1.52,0,0,0,1.95-.86A1.82,1.82,0,0,0,28.16,228.22Z"/><path class="cls-2" d="M24.53,210.86a2.17,2.17,0,0,0-2.21.59,1.46,1.46,0,0,0,.63,1.91,1.65,1.65,0,0,0,2-.52A1.49,1.49,0,0,0,24.53,210.86Z"/><path class="cls-2" d="M21,216.94a5.71,5.71,0,0,0-.67.78l-.5,0a1.57,1.57,0,0,0-1.44,1,1.76,1.76,0,0,0,.48,1.7.88.88,0,0,0,.63.26A1.42,1.42,0,0,0,21,219.2c0-.16,0-.33,0-.51.33,0,.64.09.94.09.59,0,.81-.2.89-.77a1.17,1.17,0,0,0-.57-1.23A1,1,0,0,0,21,216.94Z"/><path class="cls-2" d="M19.22,186.14a.41.41,0,0,0-.36.23c0,.14.19.33.33.4s.42,0,.47-.23S19.36,186.18,19.22,186.14Z"/><path class="cls-2" d="M24.79,230.28a1.68,1.68,0,0,0-1.95.71,1.54,1.54,0,0,0,.28,1.69.56.56,0,0,0,0,.45c.17.3,1,.47,1.26.14a1.45,1.45,0,0,0,.22-.48,1.82,1.82,0,0,0,1-.72A1.45,1.45,0,0,0,24.79,230.28Z"/><path class="cls-2" d="M38.9,235.08a.7.7,0,0,0,.09-.17,1.56,1.56,0,0,0-.8-1.72c-.67-.29-1.4.11-1.76,1a1.25,1.25,0,0,0,0,1,.08.08,0,0,1,0,0,1.25,1.25,0,0,0-.17,1.1h2.87A1.94,1.94,0,0,0,38.9,235.08Z"/><path class="cls-2" d="M59.11,220.89c-.08.13-.25.48-.07.61s.48-.08.51-.16.19-.36,0-.52A.28.28,0,0,0,59.11,220.89Z"/><path class="cls-2" d="M63.07,229.37c.23.39.5.77,1,.65a.68.68,0,0,0,.53-.87c-.06-.24-.32-.58-.54-.61C63.52,228.44,63.23,228.85,63.07,229.37Z"/><path class="cls-2" d="M69,230.51a1.1,1.1,0,0,0-1.54.19,1.25,1.25,0,0,0-.12,1.07.75.75,0,0,0-.62.5.73.73,0,0,0,.25.83.64.64,0,0,0-.46.51.94.94,0,0,0,.17.74c.45.41.89.19,1.34-.24a1.85,1.85,0,0,0-.34-.87c.32-.15.58-.34.52-.79a.52.52,0,0,0-.06-.16,1.83,1.83,0,0,0,1.21-.74A.76.76,0,0,0,69,230.51Z"/><path class="cls-2" d="M67.63,228.64a1.38,1.38,0,0,0-.24-1.78,1.41,1.41,0,0,0-1.82.46,1,1,0,0,0,.35,1.33A1.43,1.43,0,0,0,67.63,228.64Z"/><path class="cls-2" d="M31.63,223.92A1.49,1.49,0,0,0,29.88,225a1,1,0,0,0,.67,1.4,1.34,1.34,0,1,0,1.08-2.45Z"/><path class="cls-2" d="M29,227.57c.13.07.42.1.53-.07a.42.42,0,0,0-.11-.51c-.1-.09-.53-.18-.63,0S28.84,227.5,29,227.57Z"/><path class="cls-2" d="M30.43,216.79a1.26,1.26,0,0,0-1.49.33c-.24.41.1,1.06.73,1.4a.9.9,0,0,0,1.07-.36A1.09,1.09,0,0,0,30.43,216.79Z"/><path class="cls-2" d="M35.24,220.78a.89.89,0,0,0-.72.18c-.41.45-.18.88.26,1.33.47-.14,1-.16,1-.76A.65.65,0,0,0,35.24,220.78Z"/><path class="cls-2" d="M35.37,236a1,1,0,0,0-1.21.3h1.46A.79.79,0,0,0,35.37,236Z"/><path class="cls-2" d="M32.22,235.41c-.33-.19-.78-.09-.85.23a1.75,1.75,0,0,0-.06.7h1a1,1,0,0,0,.17-.19C32.75,235.87,32.5,235.58,32.22,235.41Z"/><path class="cls-2" d="M14.49,226.71c-.15.32-.16.63.12.83a8.93,8.93,0,0,0,.88.53,3.59,3.59,0,0,0,0,.47,1.62,1.62,0,0,0,.33,1,1.71,1.71,0,0,0,1.29.61c.56.05.93.49,1.46.31a2.34,2.34,0,0,0,1.66-2.29,1.91,1.91,0,0,0-.8-1.63c-.55-.36-1.2.18-1.88.05h0a6.44,6.44,0,0,0-1.42-.69A1.51,1.51,0,0,0,14.49,226.71Z"/><path class="cls-2" d="M4.67,181.43a1.42,1.42,0,0,0-1.72.78,1.85,1.85,0,0,0,1.1,1.9,1.45,1.45,0,0,0,1.58-1.05A1.42,1.42,0,0,0,4.67,181.43Z"/><path class="cls-2" d="M5.61,193c-.07-.24-.3-.65-.49-.63a.77.77,0,0,0-.52.49c0,.17.21.7.42.72S5.63,193.13,5.61,193Z"/><path class="cls-2" d="M1.59,177.92v2a1.18,1.18,0,0,0,.67-.72A1.39,1.39,0,0,0,1.59,177.92Z"/><path class="cls-2" d="M4.53,179.26c.09-.26,0-.57-.38-.53s-.86.13-.9.42.58.56.8.59S4.46,179.46,4.53,179.26Z"/><path class="cls-2" d="M6.13,159.88a.56.56,0,0,0-.44.22.42.42,0,0,0,.21.54c.29.11.38-.28.44-.42S6.2,159.87,6.13,159.88Z"/><path class="cls-2" d="M3.58,199.64a1.24,1.24,0,0,0,1,1.53A1.55,1.55,0,0,0,6.3,200a1.64,1.64,0,0,0-1.15-1.65C4.44,198.2,3.78,198.73,3.58,199.64Z"/><path class="cls-2" d="M115.11,235.38c-.08-.28-.45-.26-.7,0a1.22,1.22,0,0,0-.33.89.15.15,0,0,0,0,.09h.7A2.23,2.23,0,0,0,115,236C115.05,235.82,115.19,235.63,115.11,235.38Z"/><path class="cls-2" d="M118.27,236.34h.79a.61.61,0,0,0-.07-.1C118.86,236.14,118.53,236.2,118.27,236.34Z"/><path class="cls-2" d="M6.17,194.09c-.08.59.28,1,1,1.06a1,1,0,0,0,1-.74c.07-.47-.52-1.45-.91-1.49S6.27,193.44,6.17,194.09Z"/><path class="cls-2" d="M1.59,175.54a.83.83,0,0,0,.14-.38.67.67,0,0,0-.14-.48Z"/><path class="cls-2" d="M119.07,231c.13-.32.05-.55-.26-.66s-.68-.15-.89.24a.85.85,0,0,0,.3,1C118.48,231.67,118.89,231.38,119.07,231Z"/><path class="cls-2" d="M117.39,234.88c.19-.27-.14-1.06-.46-1.06a.86.86,0,0,0-.69.38.62.62,0,0,0,.26.94A.67.67,0,0,0,117.39,234.88Z"/><path class="cls-2" d="M14.89,196c0,.24.13.86.34.89s.61-.41.74-.63-.07-.59-.47-.7A.44.44,0,0,0,14.89,196Z"/><path class="cls-2" d="M14.64,189.5c-.13-.05-.54,0-.58.21s.29.43.42.45.4-.06.44-.25S14.77,189.54,14.64,189.5Z"/><path class="cls-2" d="M16.79,218c.08.45.42.55,1.26.48.14-.42.45-.86-.06-1.24a.73.73,0,0,0-1,.06A1,1,0,0,0,16.79,218Z"/><path class="cls-2" d="M6.64,185.14a1.23,1.23,0,0,0,.76,1.36.85.85,0,0,0,1-.59,1.07,1.07,0,0,0-.79-1.21A.73.73,0,0,0,6.64,185.14Z"/><path class="cls-2" d="M12.77,203a1.56,1.56,0,0,0,.89,1.87,1.44,1.44,0,0,0,1.14-.07c0,.17.12.34.22.38s.52-.17.59-.33a1,1,0,0,0-.08-.55,1.25,1.25,0,0,0,.31-.56c.15-.62-.63-.9-1.06-.74s-.31,0-.66-.26S13.08,202.25,12.77,203Z"/><path class="cls-2" d="M68.18,235.39a1.68,1.68,0,0,0-2.05.39,1.79,1.79,0,0,0-.23.56h2.93A1.57,1.57,0,0,0,68.18,235.39Z"/><path class="cls-2" d="M15.34,177.2a.77.77,0,0,0-.12,1,.58.58,0,0,0,.74.32c.55-.17.6-.61.6-1.15C16.12,177.14,15.75,176.8,15.34,177.2Z"/><path class="cls-2" d="M12,169c-.56,0-.49.49-.67.69a1.21,1.21,0,0,0,.07,1.75,1.09,1.09,0,0,0,1.29-.15.84.84,0,0,0,.21-1.16C12.7,169.74,12.52,169,12,169Z"/><path class="cls-2" d="M7.72,176.88c0,.28.16,1,.44,1s.62-.54.74-.79-.21-.64-.56-.66S7.7,176.53,7.72,176.88Z"/><path class="cls-2" d="M7.88,172.32a.71.71,0,1,0-.4,1.37.92.92,0,0,0,.95-.55A.73.73,0,0,0,7.88,172.32Z"/><path class="cls-2" d="M9.33,165.94a.75.75,0,0,0-.85.52.65.65,0,0,0,.47.84.76.76,0,0,0,.85-.53A.63.63,0,0,0,9.33,165.94Z"/><path class="cls-2" d="M9.25,182.33a1.25,1.25,0,0,0,1.07,1.25c.64.09,1.09-.31,1.18-1.05a1,1,0,0,0-.94-1.27A1.2,1.2,0,0,0,9.25,182.33Z"/><path class="cls-2" d="M86.37,235.33a1.05,1.05,0,0,0-1.25-.05,3,3,0,0,0-1.05,1.06h2.67a.11.11,0,0,1,0-.05A.74.74,0,0,0,86.37,235.33Z"/><path class="cls-2" d="M15.48,223.12a1,1,0,0,0,.15-.9.91.91,0,0,0-.7-.43.91.91,0,0,0-.75,1.16A.79.79,0,0,0,15.48,223.12Z"/><path class="cls-2" d="M16.5,220c-.15-.33-.4-.35-1-.08a.63.63,0,0,0-.24-.29A.81.81,0,0,0,14.4,221a.81.81,0,0,0,1.08-.21s0-.07,0-.1a.69.69,0,0,0,.63.17A.73.73,0,0,0,16.5,220Z"/><path class="cls-2" d="M14.59,227.75c-.28-.12-.6-.19-.8.16a.84.84,0,0,0,.42,1.07,2.35,2.35,0,0,0,.67-.49C15.08,228.19,14.91,227.89,14.59,227.75Z"/><path class="cls-2" d="M10.56,227.23c-.2-.13-.34-.08-.46.12a.28.28,0,0,0,.1.43c.19.12.34.11.46-.09S10.76,227.34,10.56,227.23Z"/><path class="cls-2" d="M10.33,230.48a1.26,1.26,0,0,0,1.26,1,1.1,1.1,0,0,0,.72-.42,1.63,1.63,0,0,0,.25-.66,1.12,1.12,0,0,0,.28-.33,1,1,0,0,0-.47-1.43c-.56-.3-1.12-.2-1.32.23a1.08,1.08,0,0,0-.1.41A1.13,1.13,0,0,0,10.33,230.48Z"/><path class="cls-2" d="M13.53,217.49c-.06.14-.18.51,0,.62s.46-.16.48-.25.13-.38-.1-.5A.27.27,0,0,0,13.53,217.49Z"/><path class="cls-2" d="M8.16,211.74c.13,0,.38-.29.44-.43s-.14-.34-.21-.34a.59.59,0,0,0-.44.22C7.9,211.29,8,211.71,8.16,211.74Z"/><path class="cls-2" d="M7.45,203.72H7.36l0,0a.5.5,0,0,0-.79,0c-.23.29-.2.86.11.95l.32.07a1.31,1.31,0,0,0,.35.12.42.42,0,0,0,.55-.39C7.92,204.14,7.85,203.82,7.45,203.72Z"/><path class="cls-2" d="M5.84,196.94c0,.33-.07.77.25,1s.61-.16.65-.31.15-1-.09-1.19S5.84,196.82,5.84,196.94Z"/><path class="cls-2" d="M7.58,212.42a.83.83,0,0,0,.23,1.15.78.78,0,0,0,1-.38.71.71,0,0,0-.21-1A.69.69,0,0,0,7.58,212.42Z"/><path class="cls-2" d="M13,222.6c-.15.12-.55.06-.43-.12s.07-.45-.38-.76a1.65,1.65,0,0,0-.26-.14c0-.06,0-.12,0-.19a1.12,1.12,0,0,1,.19-.59,1,1,0,0,0-.28-1.63A.44.44,0,0,0,12,219a.87.87,0,0,0-.49-1,.91.91,0,0,0-1.26.25.76.76,0,0,0,.38,1h0a1.64,1.64,0,0,0-.4.65,1.46,1.46,0,0,1-.56.89,1.59,1.59,0,0,0-.57,1.44,1.37,1.37,0,0,0,1,1.19l.14,0a1.35,1.35,0,0,0-.77.58c-.23.43,0,.95.62,1.3a1.11,1.11,0,0,0,1.36-.17,1.43,1.43,0,0,0-.32-1.66.11.11,0,1,1-.09-.15,1.67,1.67,0,0,0,.12.16c.5.43.83.21,1.13.52s.57.24,1,0,1-.6.65-1.14S13.12,222.48,13,222.6Z"/><path class="cls-2" d="M16.74,231a.71.71,0,0,0-.95.29.83.83,0,0,0,0,.15,1.13,1.13,0,0,0-.43-.59,1.78,1.78,0,0,0-2.15.46,1.37,1.37,0,0,0,.3,1.81,1.45,1.45,0,0,0,.63.34l-.21.11c-1,.57-.21,1.44-.94,1.57s-.55-.52-1.42-.36a.75.75,0,0,0-.15-.09c-1.09-.32-1.34-.06-1.86.9a1,1,0,0,0-.06.77h4a.17.17,0,0,1,.09-.11.3.3,0,0,1,.1,0,.83.83,0,0,0,0,.15h2.1a.57.57,0,0,0,0-.12.76.76,0,0,0-.36-.6,1.13,1.13,0,0,0,.38-1.59,1.44,1.44,0,0,0-.84-.66,1.2,1.2,0,0,0,.46-.44,2.09,2.09,0,0,0,.34-1.05.42.42,0,0,0,.27.21,1,1,0,0,0,.76-.07C17,231.88,17,231.15,16.74,231Z"/><path class="cls-2" d="M4.33,205.34a.75.75,0,0,0-1,.38.75.75,0,0,0,.31,1.1.92.92,0,0,0,1.09-.45A.83.83,0,0,0,4.33,205.34Z"/><path class="cls-2" d="M7.13,235.65a1.58,1.58,0,0,0-1.83.69H7.86A1.58,1.58,0,0,0,7.13,235.65Z"/><path class="cls-2" d="M18,231.3a1.17,1.17,0,0,0,.16.88c.18.24.78,0,.89-.29a1.43,1.43,0,0,0-.06-.64C18.53,231,18.08,231,18,231.3Z"/><path class="cls-2" d="M71,226.71a1.22,1.22,0,0,0,0,1.42,1.37,1.37,0,0,0,1.69-.26,1.24,1.24,0,0,0-.35-1.56C71.89,226,71.42,226.1,71,226.71Z"/><path class="cls-2" d="M4.82,235.73c-.42-.23-1.35-.82-2-.39-.45.33-.25.67-.17,1H5.18A.86.86,0,0,0,4.82,235.73Z"/><path class="cls-2" d="M1.59,236.34h.8a.82.82,0,0,0-.11-1.06,1.67,1.67,0,0,0-.69.1Z"/><path class="cls-2" d="M8.27,230.31a1,1,0,0,0-1.31.63c-.3.61-.14,1,.56,1.27s1.14.17,1.32-.28A1.74,1.74,0,0,0,8.27,230.31Z"/><path class="cls-2" d="M1.59,197.81a1.37,1.37,0,0,0,.53-1.63,1.2,1.2,0,0,0-.53-.41Z"/><path class="cls-2" d="M61.91,236.34h.76l-.28-.06A.9.9,0,0,0,61.91,236.34Z"/><path class="cls-2" d="M3.19,199.65c.31-.58.21-1.21-.24-1.42a1.47,1.47,0,0,0-1.36.13v1.72h.09l.06,0A1,1,0,0,0,3.19,199.65Z"/><path class="cls-2" d="M2,193a.78.78,0,0,0-.11,1,.58.58,0,0,0,.74.32c.55-.17.6-.62.6-1.15C2.83,193,2.45,192.63,2,193Z"/><path class="cls-2" d="M2.28,210.3a.8.8,0,0,0-.69-.06v1.41a.64.64,0,0,0,.84-.27A.74.74,0,0,0,2.28,210.3Z"/><path class="cls-2" d="M8.61,232.67c-.34-.19-1,.1-1.26.58a1,1,0,0,0,.16,1.35,1.25,1.25,0,0,0,1.5-.21A1.37,1.37,0,0,0,8.61,232.67Z"/><path class="cls-2" d="M4.12,202.33a.71.71,0,0,0-1.05.2.79.79,0,0,0-.07.65.62.62,0,0,0-.15.29.65.65,0,0,0,.46.76c.29.12.95-.38.88-.67h0a.63.63,0,0,0,.21-.18A.74.74,0,0,0,4.12,202.33Z"/><path class="cls-2" d="M87.81,233.85a1,1,0,0,0,.5,1.33.65.65,0,0,0,.88-.29.83.83,0,0,0,0-1.06A.92.92,0,0,0,87.81,233.85Z"/><path class="cls-2" d="M6.69,229.84a1.26,1.26,0,0,0,1.7-.35,1.67,1.67,0,0,0-.25-2.13,1.71,1.71,0,0,0-2.07.55A1.59,1.59,0,0,0,6.69,229.84Z"/><path class="cls-2" d="M85.71,227.47c.08-.25-.4-1-1-1a.79.79,0,0,0-.77.72.76.76,0,0,0,.49.92A1.17,1.17,0,0,0,85.71,227.47Z"/><path class="cls-2" d="M93.57,214.65c-.34.39-.78.68-.48,1.2a.82.82,0,0,0,1,.37.62.62,0,0,0,.51-.67C94.55,215,94.11,214.79,93.57,214.65Z"/><path class="cls-2" d="M94.75,233.1a.86.86,0,0,0,.09.74.63.63,0,0,0,.58.22c.48-.15.56-.55.42-1.05C95.46,232.86,95,232.65,94.75,233.1Z"/><path class="cls-2" d="M87.58,229.09a.7.7,0,0,0-.9.47.93.93,0,0,0,.64,1.1,2.33,2.33,0,0,0,.76-.49C88.34,229.81,88,229.26,87.58,229.09Z"/><path class="cls-2" d="M77.31,234.31c-.39-.2-.73-.12-.82.29s-.31.89.12,1.1.8-.34,1-.56S77.67,234.49,77.31,234.31Z"/><path class="cls-2" d="M72.16,228.49c-.28-.14-.68-.16-.77.21a.87.87,0,0,0,.22.79c.22.11.58-.06.78-.09C72.64,228.87,72.43,228.62,72.16,228.49Z"/><path class="cls-2" d="M94.67,227.71a1.5,1.5,0,0,0,.35,1.94,1.91,1.91,0,0,0,2.2-.63,1.49,1.49,0,0,0-.66-1.86A1.46,1.46,0,0,0,94.67,227.71Z"/><path class="cls-2" d="M84.83,232a.86.86,0,0,0,1-.45.89.89,0,0,0-.48-1,.77.77,0,0,0-1,.39A.86.86,0,0,0,84.83,232Z"/><path class="cls-2" d="M108.71,227.42A1.82,1.82,0,0,0,107,228c-.18.49.26,1.2.89,1.46s1,0,1.33-.77A1.08,1.08,0,0,0,108.71,227.42Z"/><path class="cls-2" d="M105.85,219.49c-.17-.09-.42.07-.49.18s-.11.56.07.64.51-.18.56-.3S106,219.58,105.85,219.49Z"/><path class="cls-2" d="M1.59,190.2v1.72c.53.05.83-.12.91-.53.11-.65-.19-1.16-.71-1.22A.51.51,0,0,0,1.59,190.2Z"/><path class="cls-2" d="M109,234a1.45,1.45,0,0,0-.76,1.87,1.73,1.73,0,0,0,.3.43h1.77a2.35,2.35,0,0,0,.22-1.29A1.42,1.42,0,0,0,109,234Z"/><path class="cls-2" d="M106.46,223.72c-.29-.16-.59,0-.7.35s-.08.68.28.76,1,.06,1.12-.22S106.7,223.86,106.46,223.72Z"/><path class="cls-2" d="M97.94,235.31a1,1,0,0,0,1.2-.29c.38-.7.32-1.43-.14-1.67a1.31,1.31,0,0,0-1.54.52A1.16,1.16,0,0,0,97.94,235.31Z"/><path class="cls-2" d="M99.71,235.63a1.89,1.89,0,0,0-.71,0,5.59,5.59,0,0,0-.71.15,1.45,1.45,0,0,0-.88.54H101c-.08-.09-.15-.19-.24-.28A2.58,2.58,0,0,0,99.71,235.63Z"/><path class="cls-2" d="M104.05,226.68a.88.88,0,0,0,.39,1.06.93.93,0,0,0,1.12-.48.72.72,0,0,0-.38-.94A.78.78,0,0,0,104.05,226.68Z"/><path class="cls-2" d="M102.59,224.65a.24.24,0,0,0,.12.31.25.25,0,0,0,.28-.14c0-.07-.07-.24-.14-.26A.23.23,0,0,0,102.59,224.65Z"/><path class="cls-2" d="M106.48,235.09c-.59-.49-1.48-.58-1.71.07a2,2,0,0,0,0,1.18H107C106.87,235.94,106.93,235.46,106.48,235.09Z"/><polygon class="cls-3" points="118.49 192.34 167.4 228.35 167.4 156.33 118.49 192.34"/><circle class="cls-4" cx="65.51" cy="185.27" r="27.56"/><polygon class="cls-5" points="81.26 185.21 57.63 171.57 57.63 198.85 81.26 185.21"/><polygon class="cls-6" points="307.31 4.06 96.26 4.06 96.26 141.85 131.76 141.85 131.76 183.5 189.39 141.85 307.31 141.85 307.31 4.06"/><polygon class="cls-7" points="300.88 120.33 102.98 121.77 102.52 57.13 300.83 55.69 300.88 120.33"/><path class="cls-8" d="M131.87,101.28c8.77-3,18-5.79,24.61-12.63,3.46-3.59,9.6-12.06,7-17.62s-8.06.72-9.69,3.73c-5.08,9.45-3.94,21.48-4.26,31.81a1.61,1.61,0,0,0,1.63,1.58,1.57,1.57,0,0,0,.37-.05A88,88,0,0,0,174.08,95l-2.64-1.53a15.07,15.07,0,0,0-.68,9.47,1.62,1.62,0,0,0,2,1.1,2.07,2.07,0,0,0,.34-.15,110.14,110.14,0,0,0,27.74-20.73l-2.66-.69a101.91,101.91,0,0,0,10.08,18.78c2.17,3.14,4.86,8.06,8.95,9,5.25,1.16,9.71-4.26,13.08-7.35l19.44-17.69L247,84.05c-.38,8.23,2.84,19.41,13.41,16.21,1.95-.58,1.12-3.65-.83-3.05-9.7,2.92-9.65-7.93-9.41-13.16a1.62,1.62,0,0,0-1.69-1.54,1.66,1.66,0,0,0-1,.42c-7.24,6.6-14.35,14.73-22.35,20.36-9.13,6.42-12.11-.28-16.2-6.72a96.83,96.83,0,0,1-7.66-14.88,1.63,1.63,0,0,0-2-1.07,1.75,1.75,0,0,0-.63.37,108.13,108.13,0,0,1-27.08,20.23l2.33,1a10.36,10.36,0,0,1,.66-7.8c.64-1.65-1.56-2.4-2.64-1.53a83.59,83.59,0,0,1-21.16,12.26l2,1.53c.19-7.1-.2-14.42,1.12-21.45a29.42,29.42,0,0,1,3.1-9.45c2.52-4.26,4.19-2.27,2.94,1.78-3.9,12.6-17.71,17-28.84,20.78-1.93.65-1.11,3.7.83,3Z"/><path class="cls-9" d="M173.79,42.09h-5.5V33.84H162v8.25h-5.49l-.15-20.24h5.5v7.5h6.36V21.84h5.49Z"/><path class="cls-9" d="M192.44,42l-12,.08-.14-20.23,12-.08v4.38h-6.54v3.18h6.06v4.38h-6.06v3.82h6.54Z"/><path class="cls-9" d="M198.25,42l-.13-20.28h5.47l.1,15.81h7.79V41.9Z"/><path class="cls-9" d="M217,41.77l-.14-20.21h5.46l.11,15.82h7.79v4.41Z"/><path class="cls-9" d="M254.6,31.37a10.84,10.84,0,0,1-2.45,7.75,11.36,11.36,0,0,1-14.63.09,10.91,10.91,0,0,1-2.6-7.75,10.86,10.86,0,0,1,2.49-7.73,11.47,11.47,0,0,1,14.62-.1A11,11,0,0,1,254.6,31.37Zm-13.92.1q0,5.87,4.13,5.83a3.51,3.51,0,0,0,3.07-1.41,7.91,7.91,0,0,0,1-4.44A7.66,7.66,0,0,0,247.79,27a3.46,3.46,0,0,0-3-1.42Q240.69,25.56,240.68,31.47Z"/><rect class="cls-10" x="0.22" y="31.93" width="52.24" height="16.38" rx="7.33"/><circle class="cls-11" cx="191.86" cy="170.36" r="8.12"/><circle class="cls-1" cx="222.59" cy="228.63" r="8.12"/><circle class="cls-12" cx="69.41" cy="39.98" r="7.62"/><circle class="cls-13" cx="69.41" cy="14.98" r="7.62"/><path class="cls-1" d="M307.32,130.28V115.19a15.74,15.74,0,1,0-15.74-15.73H276.49a30.83,30.83,0,1,1,30.83,30.82Z"/><path class="cls-4" d="M307.32,130.28a30.83,30.83,0,1,1,0-61.65V83.72a15.74,15.74,0,1,0,15.73,15.74h15.09A30.86,30.86,0,0,1,307.32,130.28Z"/><circle class="cls-13" cx="116.73" cy="222.55" r="7.85"/><circle class="cls-14" cx="90.06" cy="222.55" r="7.85"/><rect class="cls-10" x="167.26" y="204.2" width="49.2" height="16.24" rx="7.27" transform="translate(404.18 20.45) rotate(90)"/><rect class="cls-12" x="317.36" y="178.66" width="14.65" height="17.67" rx="6.19" transform="translate(512.18 -137.19) rotate(90)"/><rect class="cls-12" x="229.78" y="176.11" width="96.79" height="25.94"/><rect class="cls-15" x="229.78" y="189.04" width="96.79" height="13.01"/><polygon class="cls-13" points="211.77 189.08 229.82 202.05 229.82 176.11 211.77 189.08"/><path class="cls-16" d="M271.22,169h49.36a6,6,0,0,1,6,6v1.1a0,0,0,0,1,0,0H271.22a0,0,0,0,1,0,0V169A0,0,0,0,1,271.22,169Z"/><rect class="cls-16" x="317.04" y="176.11" width="9.53" height="25.94"/><path class="cls-11" d="M106.53,62.13H28.23a8.67,8.67,0,0,0-8.76,8.58v36.91a8.67,8.67,0,0,0,8.76,8.58H58.32l9.06,15.36,9.05-15.36h30.1a8.67,8.67,0,0,0,8.76-8.58V70.71A8.67,8.67,0,0,0,106.53,62.13Z"/><path class="cls-17" d="M84,76.28h0a11.3,11.3,0,0,0-16,0l-.61.61-.61-.61a11.31,11.31,0,0,0-16,16l16.58,16.59,0,0,0,0L84,92.27A11.3,11.3,0,0,0,84,76.28Z"/><path class="cls-18" d="M67.4,108.86,84,92.27a11.3,11.3,0,0,0,0-16h0a11.3,11.3,0,0,0-16,0l-.61.61v31.94Z"/><path class="cls-19" d="M115.12,130.93a1.32,1.32,0,0,0-.93-1.47c-.62-.17-1.35.39-1.57,1.22a1,1,0,0,0,0,.3h0a1.82,1.82,0,0,0-.81,2,1.43,1.43,0,0,0,1.79.59,1.41,1.41,0,0,0,.71-1.67A1.35,1.35,0,0,0,115.12,130.93Z"/><path class="cls-19" d="M110.49,128.18a1.2,1.2,0,0,0-.75-1.36c-.54-.2-.93.06-1.17.75a1.19,1.19,0,0,0,.42,1.32h0c0,.35.18.59.57.75.33-.2.74-.39.57-.87a.33.33,0,0,0-.06-.1A1,1,0,0,0,110.49,128.18Z"/><path class="cls-19" d="M106.11,133.93c0,.53.41.7.85.9a2.36,2.36,0,0,0,.59-.59,1.53,1.53,0,0,0,1.36,1.14c.64,0,.82-.32.84-1.6.49,0,1,0,1-.68a.77.77,0,0,0-.55-.84.62.62,0,0,0-.47,0,8.38,8.38,0,0,0-.7.91,1.58,1.58,0,0,0-1.46.69.74.74,0,0,0-.07-.21.61.61,0,0,0-.1-.14,1.76,1.76,0,0,0,.93-1,.76.76,0,0,0-.61-.88h-.07a1.31,1.31,0,0,0,.3-1.3,1.11,1.11,0,0,0-1.36-.47.93.93,0,0,0-.49,1.07,1.67,1.67,0,0,0,.67.79.77.77,0,0,0-.44.51,1.24,1.24,0,0,0,.19,1A.72.72,0,0,0,106.11,133.93Z"/><path class="cls-19" d="M121,125.05a.72.72,0,0,0-.09-1,.73.73,0,0,0-1-.18,1.13,1.13,0,0,0-.27,1.35A1.06,1.06,0,0,0,121,125.05Z"/><path class="cls-19" d="M119,133.77c1.2.75,1.88.3,2-1.2a2.1,2.1,0,0,1,.26-.13c.41-.1.5-.39.5-.76a.72.72,0,0,0-.49-.68c-.67-.34-1-.26-1.33.35a.55.55,0,0,0-.15.08c-.21.18-.65.72-.51.95a.33.33,0,0,0,.15.1c-.11.23-.22.48-.32.71-1.07-.38-1.19-.31-1.31.66C118.12,134.26,118.53,134.18,119,133.77Z"/><path class="cls-19" d="M99.51,125c.29-.7.6-1.39.9-2.07a.66.66,0,0,0,.57.06s0,0,0,0c1.07.28,1.2.08,1.28-1a1.12,1.12,0,0,0-1.51-.1.6.6,0,0,0-.48.12c-1.63-.79-2.51-.19-2.49,1.67a2,2,0,0,1-.36.16c-.57.13-.68.51-.65,1s.31.68.75.87C98.61,126.09,99.12,125.93,99.51,125Z"/><path class="cls-19" d="M117.53,123.17a.73.73,0,0,0,.3-1,.81.81,0,0,0-1.1-.27.82.82,0,0,0-.25,1A.84.84,0,0,0,117.53,123.17Z"/><path class="cls-19" d="M96.26,137v1.84h0a1.08,1.08,0,0,0,.58-1.3A.61.61,0,0,0,96.26,137Z"/><path class="cls-19" d="M96.26,129.43a1.13,1.13,0,0,1,.09-.2c.23,0,.52.1.67,0a1.37,1.37,0,0,0,.57-.72c.08-.37-.24-.57-.6-.63s-.49-.1-.73-.15Z"/><path class="cls-19" d="M97.82,119.75a1.76,1.76,0,0,0-.78-1.88,2.39,2.39,0,0,0-.78-.24v4.82a1.37,1.37,0,0,0,.56-.53c.24-.53-.31-1-.26-1.16S97.54,120.42,97.82,119.75Z"/><path class="cls-19" d="M108.59,123.23c-.44,0-.53-.21-.7-.48a.89.89,0,0,0-1.24-.15c-.37.29-.29.59-.06.9a2,2,0,0,1,.41.74c.09.62.09,1.24.12,1.9-1.39.65-1.56,1.14-.69,2.19a1,1,0,0,0,1.7-.06,8.69,8.69,0,0,0,.66-1.75c.67-.14,1.43-.37,1.62-1.17A1.87,1.87,0,0,0,108.59,123.23Z"/><path class="cls-19" d="M103.4,125.88c.12.28.93.36,1.25-.12a.7.7,0,0,0,.09-.3.79.79,0,0,0,.25-.67,1.14,1.14,0,0,0-.7-1.12.91.91,0,0,0-.74,0,.51.51,0,0,0-.24-.49,1.15,1.15,0,0,0-.87-.21c-.62.22-.39.79-.39,1.31a2.41,2.41,0,0,0,.73.16l-.23.38a3.93,3.93,0,0,0-.48,0,1.71,1.71,0,0,0-.61.25,4.86,4.86,0,0,0-.46-.23c-.34.2-.6.38-.88.54a1.16,1.16,0,0,0-.48,1.42c.15.34.73.63,1,.43L101,127a2.26,2.26,0,0,0,.46.57.85.85,0,0,0,.64.16,1.38,1.38,0,0,0,1.23-1.53c0-.16,0-.32,0-.49h0A1.08,1.08,0,0,0,103.4,125.88Z"/><path class="cls-19" d="M117.05,127.5c.43-.2.92-.28.89-.85a.66.66,0,0,0-.63-.67.88.88,0,0,0-.68.26C116.29,126.73,116.57,127.12,117.05,127.5Z"/><path class="cls-19" d="M136,161.82c.13,0,.41,0,.47-.21s-.12-.39-.24-.45-.55,0-.6.16S135.87,161.78,136,161.82Z"/><path class="cls-19" d="M135.18,147.27c0,.15-.13.46.1.58s.45-.17.45-.24a.6.6,0,0,0-.17-.46C135.51,147.1,135.2,147.2,135.18,147.27Z"/><path class="cls-19" d="M138.17,160.36a1.52,1.52,0,0,0-.34-2.1l.08,0a.25.25,0,0,0,0-.32c0-.06-.23-.05-.28,0a.23.23,0,0,0-.07.25,2,2,0,0,0-1.9.64,1.24,1.24,0,0,0,.32,1.8A1.37,1.37,0,0,0,138.17,160.36Z"/><path class="cls-19" d="M136.13,146.41a.88.88,0,0,0,0,.81c.19.16.57.08.78.1.36-.46.22-.75,0-.94S136.3,146.08,136.13,146.41Z"/><path class="cls-19" d="M135.54,140.27c-.56-.07-.54.44-.74.62a1.23,1.23,0,0,0-.1,1.77,1.13,1.13,0,0,0,1.32,0,.86.86,0,0,0,.32-1.15C136.2,141.13,136.1,140.33,135.54,140.27Z"/><path class="cls-19" d="M116.25,125.44c.11.4.7.5,1.1.25a.67.67,0,0,0,.17-1,.88.88,0,0,0-1.2-.16A2,2,0,0,0,116.25,125.44Z"/><path class="cls-19" d="M136.09,168.68c.21,0,.66-.35.81-.55s0-.6-.41-.75a.44.44,0,0,0-.65.38C135.8,168,135.89,168.64,136.09,168.68Z"/><path class="cls-19" d="M125,123.64a1.17,1.17,0,0,0,.25-1.43,1,1,0,0,0-1.38-.31c-.48.25-.63.61-.41,1C123.79,123.54,124.58,123.9,125,123.64Z"/><path class="cls-19" d="M122.71,130c-.24,0-.66.14-.72.32s.13.55.19.74c.54.16.75-.07.84-.36S123.07,130,122.71,130Z"/><path class="cls-19" d="M123.35,128.75a.71.71,0,1,0-1.32.53,1,1,0,0,0,1,.41A.73.73,0,0,0,123.35,128.75Z"/><path class="cls-19" d="M140.93,161.3a.87.87,0,0,0,.38-.21.79.79,0,0,0-.13-1.17.86.86,0,0,0-1.12.06,1.42,1.42,0,0,0-1,.16,1.1,1.1,0,0,0-.07,1.47,1,1,0,0,0,1.53.22A1.36,1.36,0,0,0,140.93,161.3Z"/><path class="cls-19" d="M105.77,139.71c.14-.19.33-.63.19-.77a.76.76,0,0,0-.7-.1c-.15.08-.41.6-.3.78A.89.89,0,0,0,105.77,139.71Z"/><path class="cls-19" d="M102,60.52c.18-.26.12-.63-.14-.7s-.64-.22-.78.1.15.65.32.8S101.81,60.73,102,60.52Z"/><path class="cls-19" d="M111.65,124.47a.88.88,0,0,0,.93-.38,1.18,1.18,0,0,0,.27,0,.91.91,0,0,0,.78-1,1,1,0,0,0-1.3-.4.28.28,0,0,0-.08.06l-.08,0a1.23,1.23,0,0,0-1.4.5C110.59,123.63,111,124.22,111.65,124.47Z"/><path class="cls-19" d="M110.91,121.78l.15-.07H110A.76.76,0,0,0,110.91,121.78Z"/><path class="cls-19" d="M100.31,59.47a.7.7,0,0,0,.58-.11c.2-.17.06-.67-.21-.75a1,1,0,0,0-.47,0C100,59,100.05,59.4,100.31,59.47Z"/><path class="cls-19" d="M99.34,117.85c-.76.67-.71.89.22,1.23a3.34,3.34,0,0,0,.47,1.14,2,2,0,0,0,1.06.42c.46.06.77-.41.65-1-.07-.33-.21-.79-.46-.92a3.2,3.2,0,0,0-1.23-.09C100,118.3,99.89,117.87,99.34,117.85Z"/><path class="cls-19" d="M103,54.41a.59.59,0,0,0-.18-.86.55.55,0,0,0-.8.1c-.22.33-.22.91,0,1.07A1,1,0,0,0,103,54.41Z"/><path class="cls-19" d="M98.25,62.13h1.41a.81.81,0,0,0-.13-1,1.12,1.12,0,0,0-1.28.28A.84.84,0,0,0,98.25,62.13Z"/><path class="cls-19" d="M96.49,141.52a.35.35,0,0,0-.23-.05v.38h.54A.9.9,0,0,0,96.49,141.52Z"/><path class="cls-19" d="M96.77,56c0-.1,0-.19,0-.24s-.17,0-.18,0-.08.19,0,.25S96.68,56,96.77,56Z"/><path class="cls-19" d="M98.11,59.42a.48.48,0,0,0-.2-.71.4.4,0,0,0-.62.2c-.08.18-.26.69,0,.81S98,59.58,98.11,59.42Z"/><path class="cls-19" d="M98.17,55.65c.23-.25-.06-.7-.08-1l-.2-.07a.58.58,0,0,0-.58.39.81.81,0,0,0-.12.54C97.48,55.56,97.93,55.9,98.17,55.65Z"/><path class="cls-19" d="M115,127a1.1,1.1,0,0,0-1.4-.26c-.65.35-.84.76-.59,1.25a1.26,1.26,0,0,0,1.5.58A1.37,1.37,0,0,0,115,127Z"/><path class="cls-19" d="M100.28,130.11c.43-.19.55-.9.24-1.5s-.68-.64-1.32-.29a.91.91,0,0,0-.41,1.24A1.77,1.77,0,0,0,100.28,130.11Z"/><path class="cls-19" d="M106,129.86c.29-.69.19-1.17-.31-1.48a1.19,1.19,0,0,0-1.63.38,12.51,12.51,0,0,1-1.38,1.75,1.72,1.72,0,0,0-.45.81,1.1,1.1,0,0,0-.34.91c.32.29.68.58,1.13.32a.68.68,0,0,0,.35-.64l0,0c.28-.47.63-.29,1-.36a2.34,2.34,0,0,0,.91-.5,1.38,1.38,0,0,0,.31-.4.72.72,0,0,0,.32-.33,1.22,1.22,0,0,0,.06-.42Z"/><path class="cls-19" d="M105.67,122.27c-.23-.41-.84-.64-1.16-.39a.94.94,0,0,0-.32,1.21.89.89,0,0,0,1.3.25A.77.77,0,0,0,105.67,122.27Z"/><path class="cls-19" d="M101.39,118.1a1.29,1.29,0,0,0,.67-1.48c-.2-.41-.83-.5-1.51-.22a.91.91,0,0,0-.38,1.09A1.16,1.16,0,0,0,101.39,118.1Z"/><path class="cls-19" d="M98.86,128.36a.73.73,0,0,0,.23-.88c-.2-.33-.46-.3-1.13.14A.67.67,0,0,0,98.86,128.36Z"/><path class="cls-19" d="M102.53,58.58h0v0Z"/><path class="cls-19" d="M105.13,136.28a.94.94,0,0,0,.52-1.3,1.59,1.59,0,0,0-1.43-.34c-.39.18-.45.58-.17,1.11S104.72,136.5,105.13,136.28Z"/><path class="cls-19" d="M138.12,148.88a1.07,1.07,0,0,0-.2.23,2.62,2.62,0,0,1,0-.28c.06-.43-.19-.62-.54-.77a.74.74,0,0,0-.83.21c-.63.55-.65.94,0,1.53.45.45.88.92,1.32,1.37-.77.87-.76,1,.12,1.49.55-.25.63-.66.4-1.22.67-.49.88-1,.7-1.4a1.39,1.39,0,0,0,.31-.88C138.91,148.89,138.57,148.52,138.12,148.88Z"/><path class="cls-19" d="M102.92,138.23c.48.33.85.1,1.28-.23-.1-.49-.07-1-.63-1.06a.77.77,0,0,0-.85.52A.57.57,0,0,0,102.92,138.23Z"/><path class="cls-19" d="M98,136.69a1.9,1.9,0,0,0,.65-1.69.93.93,0,0,0,.43.15,3.48,3.48,0,0,0,0,.72,1.62,1.62,0,0,0,.44.94,1.65,1.65,0,0,0,1.32.43c.55,0,1,.37,1.45.13a2.27,2.27,0,0,0,1.33-2.41,1.83,1.83,0,0,0-1-1.48c-.57-.29-1.14.32-1.81.27a2.11,2.11,0,0,0-.63,0c-.22-.56-.73-1.36-1.57-.95a1.28,1.28,0,0,0-.54,1.44v0a1.39,1.39,0,0,0-1.28.07,1.44,1.44,0,0,0-.39,1.85A1.2,1.2,0,0,0,98,136.69Z"/><path class="cls-19" d="M96.3,132.77l1-.5a3.87,3.87,0,0,0-.17-.69.76.76,0,0,0-.22-.3.54.54,0,0,0,0-.7.75.75,0,0,0-.46-.3,2.49,2.49,0,0,1-.16-.33v2.72l.08.08Z"/><path class="cls-19" d="M96.26,126a.48.48,0,0,0,.18-.24c0-.15.09-.39-.15-.48h0Z"/><path class="cls-19" d="M156.12,149.94c-.09.23-.29.85,0,1s.79-.26.92-.45-.06-.51-.22-.67A.38.38,0,0,0,156.12,149.94Z"/><path class="cls-19" d="M157.23,145.84c.16-.24-.2-.83-.37-1.06s-.69-.11-.88.2-.2.64.13.79S157.07,146.07,157.23,145.84Z"/><path class="cls-19" d="M153.92,152.1a1.13,1.13,0,0,0,.36,1.43c.61.47,1.07.47,1.43,0a1.33,1.33,0,0,0-.09-1.68A1.43,1.43,0,0,0,153.92,152.1Z"/><path class="cls-19" d="M161,152.58a1.48,1.48,0,0,0-.22-2,1.46,1.46,0,0,0-2,.1,1.5,1.5,0,0,0-.1,2A1.91,1.91,0,0,0,161,152.58Z"/><path class="cls-19" d="M161.52,139c.11-.59-.27-.84-.77-1.1-.42.3-.91.49-.73,1a.8.8,0,0,0,.86.58A.6.6,0,0,0,161.52,139Z"/><path class="cls-19" d="M146.59,165.4c.11,0,.35-.37.25-.54s-.47-.08-.62,0-.2.27-.11.39A.51.51,0,0,0,146.59,165.4Z"/><path class="cls-19" d="M150.76,158.25a1.19,1.19,0,0,0-1.69-.19,3.4,3.4,0,0,1,.18-.83.73.73,0,0,0-.14-1,1.07,1.07,0,0,0-1.21-.34c-1.49.63-1.7,1.05-1.31,2.6a.41.41,0,0,1,0,.12h0a1.76,1.76,0,0,0-.29-.55.48.48,0,0,0-.8,0,.6.6,0,0,0,0,.91,1.41,1.41,0,0,0,.75.18.69.69,0,0,0,.13.95.8.8,0,0,0,1.25-.39c.2-.51.57-.52,1-.65.4,1.14,1.08,1.39,1.94.79a1.12,1.12,0,0,0,.24-.19A.8.8,0,0,0,150.76,158.25Z"/><path class="cls-19" d="M147.25,164.24a1.1,1.1,0,0,0-.32-1.1.83.83,0,0,0-1.17.21,1,1,0,0,0,.19,1.21A1.28,1.28,0,0,0,147.25,164.24Z"/><path class="cls-19" d="M148.37,152.68a.84.84,0,0,0,1.08-.21.89.89,0,0,0-.23-1.1.78.78,0,0,0-1.08.15A.85.85,0,0,0,148.37,152.68Z"/><path class="cls-19" d="M139.31,144.78c-.11.1-.25.54-.08.64a.54.54,0,0,0,.53-.14c.09-.14.24-.44.08-.54A.52.52,0,0,0,139.31,144.78Z"/><path class="cls-19" d="M146.45,167.43c.51.27,1,.68,1.71.3a1.34,1.34,0,0,1,1.17-.1,1.25,1.25,0,0,0,1.42-.59,3.07,3.07,0,0,0-.81-2.23c-.64,0-1.48-.06-2.31-.05-.11,0-.27.22-.31.37a1.47,1.47,0,0,1-.75.91C146.06,166.34,146,167.19,146.45,167.43Z"/><path class="cls-19" d="M158,141.23c.2-.17,0-.49-.06-.53a.69.69,0,0,0-.51,0c-.06,0-.09.36,0,.41S157.76,141.4,158,141.23Z"/><path class="cls-19" d="M166,146.87c0,.25.15.68.33.74s.56-.13.76-.19c.17-.55-.07-.77-.36-.87S166.06,146.49,166,146.87Z"/><path class="cls-19" d="M171,145.39c-.09.1-.22.51-.08.63s.54-.05.62-.16.13-.41,0-.53A.43.43,0,0,0,171,145.39Z"/><path class="cls-19" d="M170.09,139.58a.4.4,0,0,0,0,.44c.11.09.38,0,.51-.11s.18-.4,0-.54S170.2,139.47,170.09,139.58Z"/><path class="cls-19" d="M169.28,141.38a.49.49,0,0,0-.36-.48.4.4,0,0,0-.51.25.43.43,0,0,0,.32.61A.44.44,0,0,0,169.28,141.38Z"/><path class="cls-19" d="M198.25,133.25c-.06.12,0,.56.15.61s.48-.24.52-.37,0-.43-.21-.49S198.3,133.12,198.25,133.25Z"/><path class="cls-19" d="M167.51,139.11c.13-.28-.25-.42-.4-.49s-.37.1-.37.17a.59.59,0,0,0,.18.48A.43.43,0,0,0,167.51,139.11Z"/><path class="cls-19" d="M163.1,145a1.06,1.06,0,0,0-1.61.25,1.26,1.26,0,0,0,.36,1.72,1.31,1.31,0,0,0,1.66-.39A1.06,1.06,0,0,0,163.1,145Z"/><path class="cls-19" d="M161.88,152.39a.9.9,0,0,0,.27.7c.5.35.9.07,1.29-.42-.19-.45-.27-.95-.87-.93A.68.68,0,0,0,161.88,152.39Z"/><path class="cls-19" d="M158.13,157c.51,0,.67-.4.65-.92-.33-.23-.69-.53-1.07-.16a.85.85,0,0,0-.09.74A.64.64,0,0,0,158.13,157Z"/><path class="cls-19" d="M168.4,144.19c-.06.13,0,.59.16.62s.42-.21.44-.31.08-.51-.11-.54A.52.52,0,0,0,168.4,144.19Z"/><path class="cls-19" d="M146.81,139.09a.8.8,0,0,0,.07,1,.68.68,0,0,0,1,0,.78.78,0,0,0-.08-1A.66.66,0,0,0,146.81,139.09Z"/><path class="cls-19" d="M148.85,148.79a1.2,1.2,0,0,0,1.4-.32,1.12,1.12,0,0,0-.75-1.2.75.75,0,0,0-.9.52A.76.76,0,0,0,148.85,148.79Z"/><path class="cls-19" d="M133.58,137.87a.65.65,0,0,0-.39-.89.77.77,0,0,0-.91.45.65.65,0,0,0,.4.88A.76.76,0,0,0,133.58,137.87Z"/><path class="cls-19" d="M131.76,152.94v1.37a1.47,1.47,0,0,0,.49.41,1.68,1.68,0,0,0,.73,1.57,1,1,0,0,0,1.53-.29,1.35,1.35,0,0,0-.34-2,1.1,1.1,0,0,0-.42-.17,1,1,0,0,0-.82-1.35A1.17,1.17,0,0,0,131.76,152.94Z"/><path class="cls-19" d="M131.76,163.59c.22.07.49-.29.64-.57a1.26,1.26,0,0,0,.76.06.74.74,0,0,0,.44.66c.49.23.82-.13,1.18-.47-.16-.47-.23-1-.87-1l-.16,0a1.62,1.62,0,0,0,0-.2,1.17,1.17,0,0,0,.52-.34,6.2,6.2,0,0,0,.91-1.34,1.53,1.53,0,0,0-.57-1.7c-.3-.19-1.07-.36-1.31.31.19,1.2-.66,1-.8,1.92v0a.89.89,0,0,0-.4.3,1.45,1.45,0,0,0-.3.87h0Z"/><path class="cls-19" d="M145,144.45a1.09,1.09,0,0,0,.3,1.45.75.75,0,0,0,1.16-.06,1.34,1.34,0,0,0,0-1.77A1.2,1.2,0,0,0,145,144.45Z"/><path class="cls-19" d="M135.44,168.65a2.33,2.33,0,0,0-1.79-2.18,1.93,1.93,0,0,0-1.78.36l-.11.13v3.69a2.83,2.83,0,0,0,1,.5,1.58,1.58,0,0,0,.78,0,.85.85,0,0,0,.05.68.67.67,0,0,0,1,.23.75.75,0,0,0,.34-1,.83.83,0,0,0-.52-.36,2.14,2.14,0,0,0,.36-.67C135,169.46,135.49,169.22,135.44,168.65Z"/><path class="cls-19" d="M131.76,179.1a.86.86,0,0,0,.14-.27.72.72,0,0,0-.14-.71Z"/><path class="cls-19" d="M139.71,139.16a.65.65,0,0,0,0,.51.45.45,0,0,0,.61.07c.23-.22-.08-.48-.19-.6A.45.45,0,0,0,139.71,139.16Z"/><path class="cls-19" d="M140,153a.78.78,0,0,0-.52-.18.68.68,0,0,0-.33,1,.56.56,0,0,0,.25.18.4.4,0,0,0,.15.37c.37.3.85-.15,1.1-.31s.2-.62-.11-.88A.61.61,0,0,0,140,153Z"/><path class="cls-19" d="M133.16,164.67c.08.32,1,.61,1.2.27a.75.75,0,0,0-.13-.92C133.88,163.8,133.07,164.35,133.16,164.67Z"/><path class="cls-19" d="M135.53,152.55a.76.76,0,0,0-1.14-.19.8.8,0,0,0-.17,1.07.78.78,0,0,0,1.13.27A.83.83,0,0,0,135.53,152.55Z"/><path class="cls-19" d="M141.14,142.49a.49.49,0,0,0-.16-.58.41.41,0,0,0-.57.05.45.45,0,1,0,.73.53Z"/><path class="cls-19" d="M132.9,172.46a2.59,2.59,0,0,0-.31-.77c-.24-.27-.57-.18-.79.1,0,0,0,0,0,.05v.76A.84.84,0,0,0,132.9,172.46Z"/><path class="cls-19" d="M146.81,155c.37-.47.38-1,0-1.27a2.06,2.06,0,0,0-1.74.08,1.11,1.11,0,0,0,.33,1.6C145.85,155.72,146.35,155.57,146.81,155Z"/><path class="cls-19" d="M137.18,168.39a1.39,1.39,0,0,0,1,1.48,1.43,1.43,0,0,0,.3-2.82C138,166.91,137.39,167.62,137.18,168.39Z"/><path class="cls-19" d="M143,150.34a1.37,1.37,0,0,0,.5,1.94,1.15,1.15,0,0,0,1.71-.17,1.56,1.56,0,0,0-.34-2.12A1.57,1.57,0,0,0,143,150.34Z"/><path class="cls-19" d="M144.83,164.57a1,1,0,0,0-.25-1.2,1.44,1.44,0,0,0-1.44.11,1.41,1.41,0,0,0,.16,1.69C143.72,165.48,144.35,165.23,144.83,164.57Z"/><path class="cls-19" d="M151.93,156.42a.81.81,0,0,0,.2-1,.92.92,0,0,0-1.3-.29,1,1,0,0,0,.18,1.4A.64.64,0,0,0,151.93,156.42Z"/><path class="cls-19" d="M145,160.48c-.15-.25-.9,0-1,.09-.15.3-.4.67-.22,1s.62.13.72,0S145.17,160.73,145,160.48Z"/><path class="cls-19" d="M139.91,165.72a.74.74,0,0,0,.22-1.06.72.72,0,0,0-1-.29l0,0a2.32,2.32,0,0,0-.3-2.18,1.46,1.46,0,0,0-1.94.34,1.68,1.68,0,0,0,.2,2.07,1.44,1.44,0,0,0,1.79.05.73.73,0,0,0,0,.74A.91.91,0,0,0,139.91,165.72Z"/><path class="cls-19" d="M151.08,151.92a2.22,2.22,0,0,0,.84-.31c.34-.28.17-.88-.23-1.15a.71.71,0,0,0-1,.24A.94.94,0,0,0,151.08,151.92Z"/><path class="cls-19" d="M141.73,156.91a1.3,1.3,0,0,0-1.68.05c-.26.32.07,1.41.51,1.71a.77.77,0,0,0,.38.1l.12.09c.07,0,.42,0,.49-.18,0,0,0,0,0-.05a.68.68,0,0,0,.23-.18A1.06,1.06,0,0,0,141.73,156.91Z"/><path class="cls-19" d="M153.06,144.48a1,1,0,0,0-.05-1.14.76.76,0,0,0-1,.11.86.86,0,0,0,0,1.13A.84.84,0,0,0,153.06,144.48Z"/><path class="cls-19" d="M153.27,138.55a.88.88,0,0,0-1-.75c-.39,0-1.2-.21-1.47.3s.22.68.31.94c.25.68,1.15,1.1,1.65.77A1.14,1.14,0,0,0,153.27,138.55Z"/><path class="cls-19" d="M193.86,139.29a1.12,1.12,0,0,0-1.33.69.75.75,0,0,0,.35,1.05,1.28,1.28,0,0,0,1.48-.63A.89.89,0,0,0,193.86,139.29Z"/><path class="cls-19" d="M199.89,137.08c-.31-.12-.58,0-.64.45s0,.68.39.7,1-.08,1.07-.37S200.15,137.19,199.89,137.08Z"/><path class="cls-19" d="M202.62,140.41a1.83,1.83,0,0,0-1.64.77.91.91,0,0,0,.18.67h2a2.09,2.09,0,0,0,.11-.3A1.09,1.09,0,0,0,202.62,140.41Z"/><path class="cls-19" d="M196.46,138.41c-.07,0-.22,0-.25.12a.23.23,0,0,0,.16.29c.14,0,.24-.11.26-.18S196.52,138.42,196.46,138.41Z"/><path class="cls-19" d="M206,133.45c.06-.21-.35-.68-.56-.83s-.62,0-.78.41a.46.46,0,0,0,.39.68C205.28,133.75,205.93,133.66,206,133.45Z"/><path class="cls-19" d="M195.74,127.75c-.21-.08-.4.26-.45.4a.38.38,0,0,0,.2.39c.14.05.35-.15.43-.29S196,127.82,195.74,127.75Z"/><path class="cls-19" d="M199,139.82a.78.78,0,0,0-1.06.51.87.87,0,0,0,.54,1,.91.91,0,0,0,1-.63A.72.72,0,0,0,199,139.82Z"/><path class="cls-19" d="M216.39,137.86a.75.75,0,0,0-1,.48.8.8,0,0,0,.42.93.77.77,0,0,0,1-.53A.61.61,0,0,0,216.39,137.86Z"/><path class="cls-19" d="M214.22,133.92c-.15-.08-.75,0-.82.18s.28.64.42.66.6,0,.68-.19S214.38,134,214.22,133.92Z"/><path class="cls-19" d="M204.91,141.51c0,.11,0,.23,0,.34h1.56a.64.64,0,0,0-.22-.43C205.81,141,205.38,141.22,204.91,141.51Z"/><path class="cls-19" d="M217,136.16a.45.45,0,0,0-.22.48c0,.14.32.47.5.4s.24-.49.18-.61S217.14,136.1,217,136.16Z"/><path class="cls-19" d="M208.86,140.62c-.08,0-.37.1-.37.17a.58.58,0,0,0,.17.48.43.43,0,0,0,.59-.16C209.39,140.83,209,140.69,208.86,140.62Z"/><path class="cls-19" d="M211.39,133.79c-.21.07-.16.45-.12.6a.41.41,0,0,0,.4.19c.14-.05.19-.34.17-.5S211.6,133.72,211.39,133.79Z"/><path class="cls-19" d="M180.06,146.75a.79.79,0,0,0-1,.53.86.86,0,0,0,.64,1,.83.83,0,0,0,.93-.59A.89.89,0,0,0,180.06,146.75Z"/><path class="cls-19" d="M180.69,137.87a.76.76,0,0,0-.91.47.85.85,0,0,0,.44,1,.84.84,0,0,0,.93-.47A1,1,0,0,0,180.69,137.87Z"/><path class="cls-19" d="M182,145a.71.71,0,0,0-.83.58.94.94,0,0,0,.79,1c.17-.15.52-.32.67-.6S182.51,145.11,182,145Z"/><path class="cls-19" d="M177.07,150.51a.76.76,0,0,0,0,.26l1.32-1C177.88,149.88,177.16,150.24,177.07,150.51Z"/><path class="cls-19" d="M180,143.66a1.13,1.13,0,0,0-1.14-.85.86.86,0,0,0-.05,1.66A1.2,1.2,0,0,0,180,143.66Z"/><path class="cls-19" d="M189.74,141.85h.87A1.52,1.52,0,0,0,189.74,141.85Z"/><path class="cls-19" d="M178.12,148.37c.13-.17-.08-.75-.22-1s-.58-.21-.87.11a.46.46,0,0,0,.11.77C177.36,148.4,178,148.55,178.12,148.37Z"/><path class="cls-19" d="M190.71,135.73a1.06,1.06,0,0,0-1.41.83,1.24,1.24,0,0,0,1,1.47,1.3,1.3,0,0,0,1.4-1C191.83,136.41,191.46,135.9,190.71,135.73Z"/><path class="cls-19" d="M184.8,137.81c-.26-.16-.68.15-.74.51s0,.67.41.69,1-.06,1.07-.34S185.05,138,184.8,137.81Z"/><path class="cls-19" d="M186.57,142.56a.38.38,0,0,0-.58.34c0,.25,0,.9.33,1s.64-.53.69-.76S186.77,142.66,186.57,142.56Z"/><path class="cls-19" d="M184.54,134.1c.13-.24-.17-.47-.24-.47a.66.66,0,0,0-.48.17s.05.38.13.4S184.42,134.33,184.54,134.1Z"/><path class="cls-19" d="M185.93,129.93c-.28.44-.67.79-.3,1.25a.8.8,0,0,0,1,.23.6.6,0,0,0,.41-.73C186.94,130.09,186.48,130,185.93,129.93Z"/><path class="cls-19" d="M221.51,138.82c-.11-.29-.86-.2-1.13-.12s-.43.39-.24.74.43.53.74.33S221.61,139.11,221.51,138.82Z"/><path class="cls-19" d="M224.58,139.69c-.46.19-1,1.24-.83,1.61a1.34,1.34,0,0,0,1.66.38c.57-.24.71-.77.38-1.48A1.07,1.07,0,0,0,224.58,139.69Z"/><path class="cls-19" d="M211.83,137.7c.19-.1.47-.39.43-.57a.71.71,0,0,0-.61-.34c-.17,0-.61.44-.55.64S211.71,137.76,211.83,137.7Z"/><path class="cls-19" d="M221.33,141.42a.89.89,0,0,0-.51.43h1.46a.06.06,0,0,1,0,0A.74.74,0,0,0,221.33,141.42Z"/><path class="cls-19" d="M205.42,137.84a.46.46,0,0,0,.72.31c.22-.12.69-.59.6-.79s-.69-.32-1-.32S205.3,137.43,205.42,137.84Z"/><path class="cls-19" d="M100.18,137.27a1.38,1.38,0,0,0-1.56.63s0,.07,0,.1a1.71,1.71,0,0,0-1.36.8,1.34,1.34,0,0,0,.48,1.69c0,.09,0,.18-.07.27.28.37.61.57,1,.3a.6.6,0,0,0,.19-.3,1.09,1.09,0,0,0,.82-.65,2.29,2.29,0,0,0,.16-.51,1.18,1.18,0,1,0,.37-2.33Z"/><path class="cls-19" d="M125.52,141.85h.86a.89.89,0,0,0-.41-.11A.91.91,0,0,0,125.52,141.85Z"/><path class="cls-19" d="M125.33,132.25c-.13-.06-.57,0-.6.15s.21.42.31.44.49.06.52-.12A.51.51,0,0,0,125.33,132.25Z"/><path class="cls-19" d="M127.67,137.25a1.06,1.06,0,0,0-1.2.8c-.15.53,0,.88.47,1,.66.21,1.48-.12,1.6-.63A1.17,1.17,0,0,0,127.67,137.25Z"/><path class="cls-19" d="M121.65,137.63c-.68-.2-1.34.28-1.58,1.15a1.11,1.11,0,0,0,.77,1.48,1.5,1.5,0,0,0,1.79-1.07A1.52,1.52,0,0,0,121.65,137.63Z"/><path class="cls-19" d="M123.61,134.57c0-.06-.28-.22-.35-.18s-.41.22-.34.46.43.21.49.16A.65.65,0,0,0,123.61,134.57Z"/><path class="cls-19" d="M124.13,137.58a.77.77,0,0,0-.85.52.57.57,0,0,0,.2.77c.48.33.86.1,1.28-.23C124.66,138.15,124.69,137.65,124.13,137.58Z"/><path class="cls-19" d="M128.29,132.23a.44.44,0,1,0-.22.85.47.47,0,0,0,.46-.36A.38.38,0,0,0,128.29,132.23Z"/><path class="cls-19" d="M127.55,129.77c-.7-.06-1.42.56-1.32,1.13a1.07,1.07,0,0,0,.91.92.84.84,0,0,0,1-.55c.15-.34.66-1,.32-1.4S127.81,129.79,127.55,129.77Z"/><path class="cls-19" d="M134.65,179.07a.7.7,0,0,0-.26-.67,1.75,1.75,0,0,0-1.71.15.88.88,0,0,0-.18.61,1.83,1.83,0,0,0-.33,0,.93.93,0,0,0-.41.11v3.54s.07,0,.09-.08a1,1,0,0,0,.1-.72l.14,0a1.48,1.48,0,0,0,1.48-1c.16-.45.23-.86.82-1,.43-.1.43-.55.29-.95Z"/><path class="cls-19" d="M140.9,173.15a1,1,0,0,0-.59-.42.76.76,0,0,0-.72.24,1.12,1.12,0,0,0-.45-.65,1,1,0,0,0-1.22.19,1.52,1.52,0,0,0-1.15-.51,1.41,1.41,0,0,0-1.81-.14,1.84,1.84,0,0,0-.39,1.57h-.06a1.75,1.75,0,0,0-1.19.88,2.08,2.08,0,0,0-1,.32,5.46,5.46,0,0,0,0,1,1.16,1.16,0,0,0,1,1,1.53,1.53,0,0,0,.74-.22.66.66,0,0,0,0,.65.81.81,0,0,0,1.07.17.69.69,0,0,0,.29-.34.58.58,0,0,0,.18-.16c.08-.15,0-.69-.16-.78a1.49,1.49,0,0,0,.52-1.25s0-.06,0-.1a1.31,1.31,0,0,0,1.47-.14A2.09,2.09,0,0,0,138,174a.68.68,0,0,0,.39.39.74.74,0,0,0,.6,0,1.13,1.13,0,0,0,1.17.44,1.33,1.33,0,0,0,.65-.45.82.82,0,0,0,1.17-.13.8.8,0,0,0-.14-1A1,1,0,0,0,140.9,173.15Z"/><path class="cls-19" d="M128.3,125.61a.65.65,0,0,0-.36.89.75.75,0,0,0,.93.33.62.62,0,0,0,.36-.88A.77.77,0,0,0,128.3,125.61Z"/><path class="cls-19" d="M130.56,130.59a.58.58,0,0,0-.46.17.42.42,0,0,0,.16.57c.28.13.4-.24.48-.38S130.63,130.59,130.56,130.59Z"/><path class="cls-19" d="M139.55,176.53a.73.73,0,0,0,.24-1,.69.69,0,0,0-1-.28.86.86,0,0,0-.4.87,1.09,1.09,0,0,0-.67.49,1.55,1.55,0,0,0-.33,1,1.56,1.56,0,0,0-.9.19.89.89,0,0,0-.17,1.32,1,1,0,0,0,.75.52l3-2.16a1.92,1.92,0,0,0-.5-1Z"/><path class="cls-19" d="M105.28,140.82a.82.82,0,0,0-.39,1h1.93a1.18,1.18,0,0,0,.08-.86A1.27,1.27,0,0,0,105.28,140.82Z"/><path class="cls-19" d="M109.35,138.06a1.4,1.4,0,0,0-1-1.63,1.64,1.64,0,0,0-1.8.92,1.39,1.39,0,0,0,.78,1.75A2.22,2.22,0,0,0,109.35,138.06Z"/><path class="cls-19" d="M103.19,138.84a1.37,1.37,0,0,0-1,1.49,1.43,1.43,0,0,0,1.82.73,1.41,1.41,0,0,0,.85-1.48C104.82,139,104,138.76,103.19,138.84Z"/><path class="cls-19" d="M108.54,139.21a.87.87,0,0,0-.3,1.12.7.7,0,0,0,.94.26.75.75,0,0,0,.38-1.06A.83.83,0,0,0,108.54,139.21Z"/><path class="cls-19" d="M102.64,141.59c-.49-.26-.88-.23-1,.09a.55.55,0,0,0,0,.17h1.67l-.13,0A2,2,0,0,1,102.64,141.59Z"/><path class="cls-19" d="M114.58,137.31c-.39-.11-1.26.58-1.37,1.09a1,1,0,0,0,2,.42A1.29,1.29,0,0,0,114.58,137.31Z"/><path class="cls-19" d="M118.11,136.59a.83.83,0,0,0,.09-.16c.13-.4,0-.71-.4-.74-.24,0-.74-.13-1,.13a1.38,1.38,0,0,0-.47.16,1.24,1.24,0,0,0-.32,1.6,1,1,0,0,0,1.55.28A1,1,0,0,0,118.11,136.59Z"/><path class="cls-19" d="M116,129.78c-.17-.17-.63-.59-.87-.45s-.09.8,0,1,.47.15.67.08A.36.36,0,0,0,116,129.78Z"/><path class="cls-19" d="M111.85,138.42a1.19,1.19,0,0,0-1.13.47,1,1,0,0,0,.57,1.05.77.77,0,0,0,1-.53A.86.86,0,0,0,111.85,138.42Z"/><path class="cls-19" d="M119.26,140.73a1.07,1.07,0,0,0-1.32.88.65.65,0,0,0,0,.24h2C119.82,141.39,119.5,140.81,119.26,140.73Z"/><path class="cls-19" d="M113.51,136.16a.75.75,0,0,0-.9-.5,1.83,1.83,0,0,0-1.26-1.63,1.2,1.2,0,0,0-1.51.94,1.42,1.42,0,0,0,2.08,1.7.88.88,0,0,0,0,.43.85.85,0,0,0,1.08.42A1.08,1.08,0,0,0,113.51,136.16Z"/><path class="cls-19" d="M171.62,150.57c.19-.24-.27-.83-.47-1s-.56-.17-.75.18-.24.64.1.8S171.43,150.81,171.62,150.57Z"/><path class="cls-19" d="M168.69,148.75a1.11,1.11,0,0,1-.12-.27c-.1-.42-.41-.51-.78-.52a.74.74,0,0,0-.71.5c-.3.57-.29.93.09,1.21a.19.19,0,0,0,.07.22.24.24,0,0,0,.27,0l.08,0c.59.25,1.16.53,1.73.8a2.23,2.23,0,0,0-.22.94.73.73,0,0,0-.95.21.87.87,0,0,0,.14,1.11.91.91,0,0,0,1.19-.2.69.69,0,0,0,0-.8l.49.09a.82.82,0,0,0-.07-1.29C170.69,149.54,170.23,148.84,168.69,148.75Z"/><path class="cls-19" d="M170,155.38c-.25-.06-.74,0-.81.15a.81.81,0,0,0,.2.7.25.25,0,0,0,.09,0l.74-.54C170.12,155.55,170,155.39,170,155.38Z"/><path class="cls-19" d="M165.53,157.53a1.68,1.68,0,0,0,.22,1.41l1.48-1.08a.65.65,0,0,0-.25-.4A1,1,0,0,0,165.53,157.53Z"/><path class="cls-19" d="M179.19,134.65a1.14,1.14,0,0,0,0-1.36A.89.89,0,0,0,178,133c-.37.15-1.19.24-1.26.81s.45.56.63.77A1.26,1.26,0,0,0,179.19,134.65Z"/><path class="cls-19" d="M167,154.68a1.37,1.37,0,0,0-1.52.94,1.49,1.49,0,0,0,1.24,1.63,1.05,1.05,0,0,0,1.32-.84A1.35,1.35,0,0,0,167,154.68Z"/><path class="cls-19" d="M174.71,136.69a.79.79,0,0,0-.45-.93.67.67,0,0,0-.92.39.81.81,0,0,0,.45.94A.68.68,0,0,0,174.71,136.69Z"/><path class="cls-19" d="M170.68,153.76a1.22,1.22,0,0,0,.32,1.38l1.7-1.23a.88.88,0,0,0-.22-.28A1.81,1.81,0,0,0,170.68,153.76Z"/><path class="cls-19" d="M175.52,147a1.58,1.58,0,0,0-1.62,1c-.21.7.28,1.38,1.18,1.64a1.16,1.16,0,0,0,1.53-.79A1.55,1.55,0,0,0,175.52,147Z"/><path class="cls-19" d="M174.38,143.07c.54.16.91,0,1.06-.48a1.35,1.35,0,0,0-.64-1.65,1.22,1.22,0,0,0-1.23.89A1.09,1.09,0,0,0,174.38,143.07Z"/><path class="cls-19" d="M163.26,149.58a.77.77,0,0,0-.06,1.11,1.28,1.28,0,0,0,1.61-.06.89.89,0,0,0-.07-1.21A1.12,1.12,0,0,0,163.26,149.58Z"/><path class="cls-19" d="M172.64,151.57c-.41-.14-.73,0-.77.4s-.18.92.28,1.07.73-.45.91-.69S173,151.7,172.64,151.57Z"/><path class="cls-19" d="M154.58,162.7a.82.82,0,0,0-1.1.29.92.92,0,0,0,.13,1.27,1,1,0,0,0,1.29-.22A.94.94,0,0,0,154.58,162.7Z"/><path class="cls-19" d="M146.13,173c-.64-.95-1.36-1.18-2.22-.76.24-.23.48-.44.72-.66a.64.64,0,0,0,.41-1,.83.83,0,0,0-1.11-.36l-.09,0a2.09,2.09,0,0,0-.65-1.39,5.17,5.17,0,0,0,.58-.77c.42-.84,0-1.44-.94-1.37a1.26,1.26,0,0,0-.68.24.47.47,0,0,0-.46,0c-.34.16-.56.68-.32.9a2,2,0,0,0,.46.34c.07.21.19.41.37.82-.37,0-.65.17-.85.08a1,1,0,0,0-1.39.47,1.74,1.74,0,0,1-.38.33c-.43.37-.55.76-.31,1s.8.32,1.23-.16c0-.05,0-.14.08-.19.24-.23.47-.26.64.08.06.12.06.27.13.39a1.34,1.34,0,0,0,.58.55,1.5,1.5,0,0,0,.55.81,1.08,1.08,0,0,0,.86.23,1.5,1.5,0,0,0,.11,1.36,5.52,5.52,0,0,0-.57,1.19.79.79,0,0,0,0,.22l4.08-2.95C146.58,172.41,146.32,172.61,146.13,173Z"/><path class="cls-19" d="M152.71,167.84c-.29.22-.65.54-.67.84a.76.76,0,0,0,0,.15l1.56-1.12A.87.87,0,0,0,152.71,167.84Z"/><path class="cls-19" d="M152.51,165.18a.69.69,0,0,0-.36-1,1,1,0,0,0-.84,0c-.54.39-.32.89-.05,1.39C151.75,165.64,152.27,165.7,152.51,165.18Z"/><path class="cls-19" d="M149.69,168.85c-.28.35-.12.93.36,1.43l1.5-1.08a.67.67,0,0,0-.17-.36A1.35,1.35,0,0,0,149.69,168.85Z"/><path class="cls-19" d="M148.94,169.48a1,1,0,0,0-.64-.59,1.45,1.45,0,0,0-.33-.16.77.77,0,0,0-1,.3,1.71,1.71,0,0,0,.35,1.74,3,3,0,0,0,.24.43,1.14,1.14,0,0,0,.67.38l1.73-1.25a.92.92,0,0,0-.56-.32C149,170,149.13,169.92,148.94,169.48Z"/><path class="cls-19" d="M162.62,154.17c-.25-.45-.45-.95-1.09-.68a.8.8,0,0,0-.55.88c0,.15.12.38.24.42a9.38,9.38,0,0,0,1.16.28c.44.85,1.07,1.27,1.59,1a1.59,1.59,0,0,0,.53-1.82C164.22,153.67,163.84,153.64,162.62,154.17Z"/><path class="cls-19" d="M164.08,159.42a1.22,1.22,0,0,0-1.35.68,2.76,2.76,0,0,0-.81-.57,1.74,1.74,0,0,0-.69-.14,4.21,4.21,0,0,0-.71,0c-.79,0-1.2.31-1.27.93a1.22,1.22,0,0,0,1.06,1.37l1.28.26,3-2.14A1,1,0,0,0,164.08,159.42Z"/><path class="cls-19" d="M160.09,158.53a1.42,1.42,0,0,0,.2.28,1,1,0,0,0,1.22,0c.53-.59.64-1.31.24-1.65a1.31,1.31,0,0,0-1.6.16.53.53,0,0,0-.06.1.65.65,0,0,0-.3-.25,1.11,1.11,0,0,0-1.33.47,1.08,1.08,0,0,0,0,.54.92.92,0,0,0-.32-.1,9.13,9.13,0,0,0-1.94.13c-.42-.57-1-1.2-1.81-1a2,2,0,0,0-1.22,2.64.79.79,0,0,1-.16.87.94.94,0,0,0,.39,1.23c.44.23.69,0,.89-.32a2.06,2.06,0,0,1,.52-.72c.54-.35,1.13-.61,1.74-.93,1.22,1,1.75,1,2.38-.29a1.27,1.27,0,0,0,.13-.56A1,1,0,0,0,160.09,158.53Z"/><path class="cls-19" d="M156.13,164.34a.64.64,0,0,0-.77.5,1.25,1.25,0,0,0,.18.91.62.62,0,0,0,.48.22l.9-.65C156.84,164.8,156.71,164.4,156.13,164.34Z"/><path class="cls-19" d="M154.6,166.36a1.67,1.67,0,0,0,0,.66l1.13-.82C155.48,166.08,155.15,166.16,154.6,166.36Z"/><path class="cls-19" d="M157.22,162.45a.9.9,0,0,0-.68.29.75.75,0,0,0,.12,1,.92.92,0,0,0,1.22-.18C158.1,163.35,157.83,162.55,157.22,162.45Z"/></g></svg>