<svg width="150px" height="196px" viewBox="55 33 150 196" version="1.1" xmlns="http://www.w3.org/2000/svg" xmlns:xlink="http://www.w3.org/1999/xlink">
    <g id="K-Logo-20160301" stroke="none" stroke-width="1" fill="none" fill-rule="evenodd" transform="translate(55.000000, 33.000000)">
        <path d="M98.7543346,108.503514 L26.674144,195.57448 L149.797125,195.57448 C143.303063,160.811913 124.77562,130.330613 98.7543346,108.503514" id="Fill-10" fill-opacity="0.7" fill="#FFFFFF"></path>
        <path d="M95.756948,106.017854 C95.1384659,105.530971 94.4449252,104.992995 93.6688202,104.397915 C92.1676499,103.246827 90.6499668,102.112269 89.1037615,101.016781 C88.7164595,100.738777 88.3186494,100.456264 87.9163358,100.170746 C83.5419257,97.1322338 79.003888,94.3116166 74.3067263,91.7449601 L0.00030023405,181.325479 L0.00030023405,195.57433 L26.6745944,195.57433 L98.754785,108.503364 C97.7595091,107.66935 96.7732403,106.826321 95.756948,106.017854" id="Fill-18" fill-opacity="0.5" fill="#FFFFFF"></path>
        <path d="M2.81049094,73.520046 C1.86775602,73.520046 0.938531639,73.5741442 0.00030023405,73.5906742 L0.00030023405,181.325629 L74.3067263,91.7451104 C53.0666685,80.141058 28.7176871,73.520046 2.81049094,73.520046" id="Fill-20" fill="#FFFFFF"></path>
        <path d="M74.3071767,91.7865105 L149.994679,0.543976119 L0.000750585124,0.543976119 L0.000750585124,73.6320743 C0.93898199,73.6155443 1.86820637,73.5614461 2.81094129,73.5614461 C28.7181374,73.5614461 53.0656177,80.1824581 74.3071767,91.7865105" id="Fill-1" fill-opacity="0.7" fill="#FFFFFF"></path>
    </g>
</svg>
