<?xml version="1.0" encoding="UTF-8"?>
<svg width="1572px" height="1168px" viewBox="0 0 1572 1168" version="1.1" xmlns="http://www.w3.org/2000/svg" xmlns:xlink="http://www.w3.org/1999/xlink">
    <!-- Generator: Sketch 49.3 (51167) - http://www.bohemiancoding.com/sketch -->
    <title>Browser</title>
    <desc>Created with Sketch.</desc>
    <defs>
        <rect id="path-1" x="0" y="0" width="1560" height="1150.82692" rx="22.3599977"></rect>
        <rect id="path-2" x="0.344086022" y="0.0865384615" width="749.659973" height="162.009615" rx="11.1799988"></rect>
    </defs>
    <g id="Page-1" stroke="none" stroke-width="1" fill="none" fill-rule="evenodd">
        <g id="Browser" transform="translate(6.000000, 6.000000)">
            <g id="BG-+-Bar">
                <g id="Bar">
                    <use fill="#FFFFFF" fill-rule="evenodd" xlink:href="#path-1"></use>
                    <rect stroke="#EAEAEA" stroke-width="5.58999942" x="-2.79499971" y="-2.79499971" width="1565.59" height="1156.41692" rx="22.3599977"></rect>
                </g>
            </g>
            <g id="Window" transform="translate(0.000000, 100.557692)" fill="#F5F5F5">
                <path d="M1560,33.5330746 L1560,1039.08231 C1560,1051.4314 1549.98909,1061.44231 1537.64,1061.44231 L22.3599977,1061.44231 C10.010912,1061.44231 1.51232683e-15,1051.4314 0,1039.08231 L0,33.5330746 L0,0 L1560,0 L1560,33.5330746 Z"></path>
            </g>
            <g id="Block-5" transform="translate(942.258065, 916.190002)">
                <path d="M0,0 L0,245.75 L486.451613,245.75 L486.451613,11.1799988 C486.451613,5.00545598 481.446157,3.70993997e-14 475.271614,5.32907052e-15 L0,0 Z" id="Rectangle-12" fill="#FFFFFF"></path>
                <rect id="Rectangle-12" fill="#DDDDDD" x="296.344086" y="55.8653846" width="162.150538" height="162.009615" rx="11.1799988"></rect>
                <path d="M296.344086,67.0453835 L296.344086,190.900681 C296.344086,197.075223 301.349542,202.080679 307.524085,202.080679 C310.487521,202.080679 313.329724,200.904124 315.4261,198.809569 L439.389132,74.9542725 C443.75709,70.5901098 443.760168,63.5113267 439.396005,59.143368 C437.29907,57.0446087 434.45392,55.8653846 431.487116,55.8653846 L307.524085,55.8653846 C301.349542,55.8653846 296.344086,60.8708406 296.344086,67.0453835 Z" id="Rectangle-12" fill="#E4E4E4"></path>
                <rect id="Rectangle-14" fill="#BABABA" x="33.5483871" y="55.8653846" width="156.55914" height="22.3461538"></rect>
                <rect id="Rectangle-14" fill="#DCDCDC" x="33.5483871" y="106.144231" width="234.83871" height="11.1730769"></rect>
                <rect id="Rectangle-14" fill="#DCDCDC" x="33.5483871" y="139.663462" width="234.83871" height="11.1730769"></rect>
                <rect id="Rectangle-14" fill="#DCDCDC" x="33.5483871" y="173.182692" width="234.83871" height="11.1730769"></rect>
                <rect id="Rectangle-14" fill="#DCDCDC" x="33.5483871" y="206.701923" width="234.83871" height="11.1730769"></rect>
                <g id="Scatter-Chart" transform="translate(312.000000, 96.000000)" stroke="#E25A96" stroke-linecap="square" stroke-width="11">
                    <path d="M2.24193548,101.365385 L1.74193548,101.365385" id="Line"></path>
                    <path d="M11.2419355,82.3653846 L10.7419355,82.3653846" id="Line"></path>
                    <path d="M32.2419355,92.3653846 L31.7419355,92.3653846" id="Line"></path>
                    <path d="M32.2419355,72.3653846 L31.7419355,72.3653846" id="Line"></path>
                    <path d="M42.2419355,52.3653846 L41.7419355,52.3653846" id="Line"></path>
                    <path d="M62.2419355,32.3653846 L61.7419355,32.3653846" id="Line"></path>
                    <path d="M62.2419355,52.3653846 L61.7419355,52.3653846" id="Line"></path>
                    <path d="M62.2419355,72.3653846 L61.7419355,72.3653846" id="Line"></path>
                    <path d="M82.2419355,52.3653846 L81.7419355,52.3653846" id="Line"></path>
                    <path d="M102.241935,62.3653846 L101.741935,62.3653846" id="Line"></path>
                    <path d="M102.241935,42.3653846 L101.741935,42.3653846" id="Line"></path>
                    <path d="M102.241935,22.3653846 L101.741935,22.3653846" id="Line"></path>
                    <path d="M122.241935,42.3653846 L121.741935,42.3653846" id="Line"></path>
                    <path d="M122.241935,21.3653846 L121.741935,21.3653846" id="Line"></path>
                    <path d="M132.241935,1.36538462 L131.741935,1.36538462" id="Line"></path>
                </g>
            </g>
            <g id="Block-4" transform="translate(352.258065, 916.190002)">
                <path d="M0,11.1799988 L0,245.75 L486.451613,245.75 L486.451613,11.1799988 C486.451613,5.00545598 481.446157,3.70993997e-14 475.271614,5.32907052e-15 L11.1799988,1.77635684e-15 C5.00545598,2.91060196e-15 2.79655026e-15,5.00545598 3.55271368e-15,11.1799988 Z" id="Rectangle-12" fill="#FFFFFF"></path>
                <rect id="Rectangle-12" fill="#DDDDDD" x="296.344086" y="55.8653846" width="162.150538" height="162.009615" rx="11.1799988"></rect>
                <path d="M296.344086,67.0453835 L296.344086,190.900681 C296.344086,197.075223 301.349542,202.080679 307.524085,202.080679 C310.487521,202.080679 313.329724,200.904124 315.4261,198.809569 L439.389132,74.9542725 C443.75709,70.5901098 443.760168,63.5113267 439.396005,59.143368 C437.29907,57.0446087 434.45392,55.8653846 431.487116,55.8653846 L307.524085,55.8653846 C301.349542,55.8653846 296.344086,60.8708406 296.344086,67.0453835 Z" id="Rectangle-12" fill="#E4E4E4"></path>
                <rect id="Rectangle-14" fill="#BABABA" x="33.5483871" y="55.8653846" width="156.55914" height="22.3461538"></rect>
                <rect id="Rectangle-14" fill="#DCDCDC" x="33.5483871" y="106.144231" width="234.83871" height="11.1730769"></rect>
                <rect id="Rectangle-14" fill="#DCDCDC" x="33.5483871" y="139.663462" width="234.83871" height="11.1730769"></rect>
                <rect id="Rectangle-14" fill="#DCDCDC" x="33.5483871" y="173.182692" width="234.83871" height="11.1730769"></rect>
                <rect id="Rectangle-14" fill="#DCDCDC" x="33.5483871" y="206.701923" width="234.83871" height="11.1730769"></rect>
                <path d="M307.241935,83.3653846 L334.741935,83.3653846" id="Line" stroke="#B0B0B0" stroke-width="20" stroke-linecap="square"></path>
                <path d="M359.741935,120.809998 L306.630116,120.809998" id="Line" stroke="#B0B0B0" stroke-width="20" stroke-linecap="square"></path>
                <path d="M307.541935,198.309998 L395.741935,198.309998" id="Line" stroke="#B0B0B0" stroke-width="20" stroke-linecap="square"></path>
                <path d="M306.559771,159.309998 L405.741935,159.309998" id="Line" stroke="#B0B0B0" stroke-width="20" stroke-linecap="square"></path>
            </g>
            <g id="Block-3" transform="translate(352.258065, 575.413462)">
                <rect id="Rectangle-12" fill="#FFFFFF" x="0" y="0" width="1071" height="268.153846" rx="11.1799988"></rect>
                <rect id="Rectangle-14" fill="#BABABA" x="33.5483871" y="55.8653846" width="156.55914" height="22.3461538"></rect>
                <g id="Line-3" transform="translate(296.000000, 57.000000)">
                    <mask id="mask-3" fill="white">
                        <use xlink:href="#path-2"></use>
                    </mask>
                    <use id="Mask" fill="#DDDDDD" xlink:href="#path-2"></use>
                    <path d="M0.344086022,10.2665373 L0.344086022,146.505804 C0.344086022,152.680346 5.349542,157.685802 11.5240849,157.685802 C12.5061499,157.685802 13.4839343,157.556406 14.4321938,157.300954 L520.164067,21.0616879 C526.126064,19.4555837 529.657212,13.3204254 528.051108,7.35842834 C526.736334,2.47787515 522.310503,-0.913461538 517.255958,-0.913461538 L11.5240849,-0.913461538 C5.349542,-0.913461538 0.344086022,4.09199444 0.344086022,10.2665373 Z" id="Rectangle-12" fill="#E4E4E4" mask="url(#mask-3)"></path>
                    <polygon stroke="#C1C1C1" stroke-width="6" fill="#C9C9C9" stroke-linecap="square" mask="url(#mask-3)" points="0.241935484 159.086538 90.1720923 136.115362 148.028227 111.289742 192.845207 136.115362 245.471044 64.3074615 312.367199 39.3354797 348.036539 87.2906388 413.959816 136.115362 467.041959 81.6513875 520.80856 115.822667 558.953144 46.3427443 644.140275 64.3074615 748.03829 46.3427443 748.03829 159.086538"></polygon>
                </g>
                <rect id="Rectangle-14" fill="#DCDCDC" x="33.5483871" y="106.144231" width="234.83871" height="11.1730769"></rect>
                <rect id="Rectangle-14" fill="#DCDCDC" x="33.5483871" y="139.663462" width="234.83871" height="11.1730769"></rect>
                <rect id="Rectangle-14" fill="#DCDCDC" x="33.5483871" y="173.182692" width="234.83871" height="11.1730769"></rect>
                <rect id="Rectangle-14" fill="#BABABA" x="33.5483871" y="55.8653846" width="156.55914" height="22.3461538"></rect>
                <rect id="Rectangle-14" fill="#DCDCDC" x="33.5483871" y="106.144231" width="234.83871" height="11.1730769"></rect>
                <rect id="Rectangle-14" fill="#DCDCDC" x="33.5483871" y="139.663462" width="234.83871" height="11.1730769"></rect>
                <rect id="Rectangle-14" fill="#DCDCDC" x="33.5483871" y="173.182692" width="234.83871" height="11.1730769"></rect>
                <rect id="Rectangle-14" fill="#DCDCDC" x="33.5483871" y="206.701923" width="234.83871" height="11.1730769"></rect>
            </g>
            <g id="Block-2" transform="translate(939.354839, 234.634615)">
                <rect id="Rectangle-12" fill="#FFFFFF" x="0" y="0" width="486.451613" height="268.153846" rx="11.1799988"></rect>
                <rect id="Rectangle-12" fill="#DDDDDD" x="295.247312" y="55.8653846" width="162.150538" height="162.009615" rx="11.1799988"></rect>
                <path d="M295.247312,67.0453835 L295.247312,190.900681 C295.247312,197.075223 300.252768,202.080679 306.427311,202.080679 C309.390747,202.080679 312.23295,200.904124 314.329326,198.809569 L438.292357,74.9542725 C442.660316,70.5901098 442.663394,63.5113267 438.299231,59.143368 C436.202296,57.0446087 433.357146,55.8653846 430.390342,55.8653846 L306.427311,55.8653846 C300.252768,55.8653846 295.247312,60.8708406 295.247312,67.0453835 Z" id="Rectangle-12" fill="#E4E4E4"></path>
                <rect id="Rectangle-14" fill="#BABABA" x="33.5483871" y="55.8653846" width="156.55914" height="22.3461538"></rect>
                <rect id="Rectangle-14" fill="#DCDCDC" x="33.5483871" y="106.144231" width="234.83871" height="11.1730769"></rect>
                <rect id="Rectangle-14" fill="#DCDCDC" x="33.5483871" y="139.663462" width="234.83871" height="11.1730769"></rect>
                <rect id="Rectangle-14" fill="#DCDCDC" x="33.5483871" y="173.182692" width="234.83871" height="11.1730769"></rect>
                <rect id="Rectangle-14" fill="#DCDCDC" x="33.5483871" y="206.701923" width="234.83871" height="11.1730769"></rect>
                <path d="M373.145161,187.365385 C403.796965,187.365385 428.645161,162.517188 428.645161,131.865385 C428.645161,101.213581 403.796965,76.3653846 373.145161,76.3653846 C342.493358,76.3653846 317.645161,101.213581 317.645161,131.865385 C317.645161,162.517188 342.493358,187.365385 373.145161,187.365385 Z" id="Oval" fill="#36E0D2"></path>
                <path d="M344.748716,186.934011 C330.755717,176.857762 321.645161,160.425516 321.645161,141.865385 C321.645161,111.213581 346.493358,86.3653846 377.145161,86.3653846 C407.796965,86.3653846 432.645161,111.213581 432.645161,141.865385 C432.645161,160.425516 423.534605,176.857762 409.541607,186.934011 L377.145161,141.365385 L344.748716,186.934011 Z" id="Combined-Shape" fill="#2DBBB0" transform="translate(377.145161, 136.649698) rotate(140.000000) translate(-377.145161, -136.649698) "></path>
            </g>
            <g id="Block-1" transform="translate(352.258065, 234.634615)">
                <rect id="Rectangle-12" fill="#FFFFFF" x="0" y="0" width="486.451613" height="268.153846" rx="11.1799988"></rect>
                <rect id="Rectangle-12" fill="#DDDDDD" x="296.344086" y="55.8653846" width="162.150538" height="162.009615" rx="11.1799988"></rect>
                <path d="M296.344086,67.0453835 L296.344086,190.900681 C296.344086,197.075223 301.349542,202.080679 307.524085,202.080679 C310.487521,202.080679 313.329724,200.904124 315.4261,198.809569 L439.389132,74.9542725 C443.75709,70.5901098 443.760168,63.5113267 439.396005,59.143368 C437.29907,57.0446087 434.45392,55.8653846 431.487116,55.8653846 L307.524085,55.8653846 C301.349542,55.8653846 296.344086,60.8708406 296.344086,67.0453835 Z" id="Rectangle-12" fill="#E4E4E4"></path>
                <rect id="Rectangle-14" fill="#BABABA" x="33.5483871" y="55.8653846" width="156.55914" height="22.3461538"></rect>
                <rect id="Rectangle-14" fill="#DCDCDC" x="33.5483871" y="106.144231" width="234.83871" height="11.1730769"></rect>
                <rect id="Rectangle-14" fill="#DCDCDC" x="33.5483871" y="139.663462" width="234.83871" height="11.1730769"></rect>
                <rect id="Rectangle-14" fill="#DCDCDC" x="33.5483871" y="173.182692" width="234.83871" height="11.1730769"></rect>
                <rect id="Rectangle-14" fill="#DCDCDC" x="33.5483871" y="206.701923" width="234.83871" height="11.1730769"></rect>
                <path d="M323.241935,163.365385 L323.241935,204.865385" id="Line" stroke="#E25A96" stroke-width="20" stroke-linecap="square"></path>
                <path d="M359.741935,153.365385 L359.741935,204.865385" id="Line" stroke="#E25A96" stroke-width="20" stroke-linecap="square"></path>
                <path d="M395.741935,133.365385 L395.741935,204.865385" id="Line" stroke="#E25A96" stroke-width="20" stroke-linecap="square"></path>
                <path d="M431.741935,133.365385 L431.741935,204.865385" id="Line" stroke="#E25A96" stroke-width="20" stroke-linecap="square"></path>
            </g>
            <g id="Sidebar" transform="translate(0.000000, 100.557692)">
                <path d="M22.3599977,3.55271368e-15 L251.618497,3.55271368e-15 L273.978495,0 L273.978495,1061.44231 L251.618497,1061.44231 L22.3599977,1061.44231 C10.010912,1061.44231 -1.24621875e-13,1051.4314 0,1039.08231 L0,22.3599977 L0,0 L22.3599977,0 Z" fill="#024F6A"></path>
                <g id="Nav-1" transform="translate(89.000000, 44.000000)">
                    <rect id="nav-item" fill="#E25A96" x="0.462365591" y="0.692307692" width="100.645161" height="100.557692" rx="22.3599977"></rect>
                    <path d="M0.462365591,23.0523054 L0.462365591,50.9711538 C0.462365591,62.4802075 9.79229702,71.8101389 21.3013507,71.8101389 C26.825054,71.8101389 32.1227854,69.6170957 36.0303311,65.712946 L65.508623,36.2602732 C73.6473584,28.128611 73.6530924,14.9388477 65.5214303,6.80011235 C61.6142503,2.88953378 56.3129368,0.692307692 50.7849462,0.692307692 L22.8223633,0.692307692 C10.4732776,0.692307692 0.462365591,10.7032197 0.462365591,23.0523054 Z" id="nav-item" fill="#FF66A8"></path>
                </g>
                <g id="Nav-2" transform="translate(89.000000, 178.000000)">
                    <rect id="nav-item" fill="#76848E" x="0.462365591" y="0.769230769" width="100.645161" height="100.557692" rx="22.3599977"></rect>
                    <path d="M0.462365591,23.1292285 L0.462365591,51.0480769 C0.462365591,62.5571306 9.79229702,71.887062 21.3013507,71.887062 C26.825054,71.887062 32.1227854,69.6940188 36.0303311,65.7898691 L65.508623,36.3371962 C73.6473584,28.2055341 73.6530924,15.0157708 65.5214303,6.87703543 C61.6142503,2.96645686 56.3129368,0.769230769 50.7849462,0.769230769 L22.8223633,0.769230769 C10.4732776,0.769230769 0.462365591,10.7801427 0.462365591,23.1292285 Z" id="nav-item" fill="#90A0AC"></path>
                </g>
                <g id="Nav-3" transform="translate(89.000000, 324.000000)">
                    <rect id="nav-item" fill="#76848E" x="0.462365591" y="0.0192307692" width="100.645161" height="100.557692" rx="22.3599977"></rect>
                    <path d="M0.462365591,22.3792285 L0.462365591,50.2980769 C0.462365591,61.8071306 9.79229702,71.137062 21.3013507,71.137062 C26.825054,71.137062 32.1227854,68.9440188 36.0303311,65.0398691 L65.508623,35.5871962 C73.6473584,27.4555341 73.6530924,14.2657708 65.5214303,6.12703543 C61.6142503,2.21645686 56.3129368,0.0192307692 50.7849462,0.0192307692 L22.8223633,0.0192307692 C10.4732776,0.0192307692 0.462365591,10.0301427 0.462365591,22.3792285 Z" id="nav-item" fill="#90A0AC"></path>
                </g>
                <g id="Nav-4" transform="translate(89.000000, 458.000000)">
                    <rect id="nav-item" fill="#76848E" x="0.462365591" y="0.0961538462" width="100.645161" height="100.557692" rx="22.3599977"></rect>
                    <path d="M0.462365591,22.4561515 L0.462365591,50.375 C0.462365591,61.8840537 9.79229702,71.2139851 21.3013507,71.2139851 C26.825054,71.2139851 32.1227854,69.0209419 36.0303311,65.1167922 L65.508623,35.6641193 C73.6473584,27.5324572 73.6530924,14.3426939 65.5214303,6.2039585 C61.6142503,2.29337994 56.3129368,0.0961538462 50.7849462,0.0961538462 L22.8223633,0.0961538462 C10.4732776,0.0961538462 0.462365591,10.1070658 0.462365591,22.4561515 Z" id="nav-item" fill="#90A0AC"></path>
                </g>
            </g>
            <g id="Heading" transform="translate(352.258065, 150.836538)">
                <rect id="Rectangle-54" fill="#BABABA" x="0" y="5.58653846" width="273.978495" height="27.9326923"></rect>
                <rect id="Rectangle-54" fill="#BABABA" x="1034.4086" y="0" width="39.1397849" height="33.5192308"></rect>
                <rect id="Rectangle-54" fill="#DCDCDC" x="972.903226" y="0" width="39.1397849" height="33.5192308"></rect>
            </g>
            <g id="Max-+-Min-+-Close" transform="translate(39.139785, 33.519231)" fill="#D8D8D8">
                <path d="M16.7741935,33.5192308 C26.0383253,33.5192308 33.5483871,26.0156958 33.5483871,16.7596154 C33.5483871,7.50353494 26.0383253,0 16.7741935,0 C7.5100618,0 0,7.50353494 0,16.7596154 C0,26.0156958 7.5100618,33.5192308 16.7741935,33.5192308 Z" id="Max"></path>
                <path d="M67.0967742,33.5192308 C76.3609059,33.5192308 83.8709677,26.0156958 83.8709677,16.7596154 C83.8709677,7.50353494 76.3609059,0 67.0967742,0 C57.8326424,0 50.3225806,7.50353494 50.3225806,16.7596154 C50.3225806,26.0156958 57.8326424,33.5192308 67.0967742,33.5192308 Z" id="Min"></path>
                <path d="M117.419355,33.5192308 C126.683487,33.5192308 134.193548,26.0156958 134.193548,16.7596154 C134.193548,7.50353494 126.683487,0 117.419355,0 C108.155223,0 100.645161,7.50353494 100.645161,16.7596154 C100.645161,26.0156958 108.155223,33.5192308 117.419355,33.5192308 Z" id="Close"></path>
            </g>
        </g>
    </g>
</svg>
