<svg width="152" height="56" viewBox="0 0 152 56" fill="none" xmlns="http://www.w3.org/2000/svg">
<path d="M36.2134 45.4778L29.0267 45.4767C29.6848 45.4767 30.2595 45.1252 30.567 44.6029L40.3216 28L34.1611 17.5133L41.3467 17.5137C41.9608 17.5142 42.5578 17.8277 42.8869 18.3878L47.5085 26.2527C48.1214 27.2984 48.1661 28.628 47.508 29.7482L39.294 43.7305C38.679 44.775 37.5297 45.4778 36.2134 45.4778ZM35.3243 41.9825C35.3243 42.465 35.7225 42.8564 36.2134 42.8564C36.7045 42.8564 37.1026 42.465 37.1026 41.9825C37.1026 41.4999 36.7045 41.1087 36.2134 41.1087C35.7225 41.1087 35.3243 41.4999 35.3243 41.9825ZM43.9835 28.7572C44.4087 28.9984 44.9524 28.8552 45.198 28.4374C45.4434 28.0195 45.2977 27.4853 44.8725 27.244C44.4472 27.0028 43.9036 27.1458 43.6581 27.5638C43.4127 27.9816 43.5583 28.516 43.9835 28.7572Z" fill="#DB4437"/>
<path d="M39.2946 12.2704L42.8869 18.3878C42.5578 17.8276 41.9609 17.5142 41.3469 17.5137L21.8392 17.5128L15.6787 27.9994L12.0862 21.8834C11.7796 21.3605 11.7573 20.6957 12.0863 20.1354L16.7059 12.2695C17.321 11.2249 18.4703 10.5221 19.7866 10.5221L36.2145 10.5222C37.4425 10.5233 38.6364 11.15 39.2946 12.2704ZM20.6756 14.0175C20.6756 13.5349 20.2776 13.1436 19.7865 13.1436C19.2955 13.1436 18.8973 13.5349 18.8973 14.0175C18.8973 14.5001 19.2955 14.8914 19.7865 14.8914C20.2776 14.8914 20.6756 14.5001 20.6756 14.0175ZM36.6591 14.7748H36.659C37.0841 14.5335 37.2298 13.9992 36.9843 13.5813C36.7388 13.1634 36.1951 13.0203 35.7699 13.2616C35.3447 13.5028 35.1991 14.0372 35.4445 14.455C35.6901 14.8728 36.2337 15.016 36.6591 14.7748Z" fill="#4285F4"/>
<path d="M8.49202 26.2517H8.49189L12.0863 20.1355C11.7572 20.6957 11.7795 21.3605 12.0861 21.8834L21.8392 38.4871H34.1601L30.5671 44.6028C30.2595 45.1252 29.6849 45.4767 29.0267 45.4767L19.7854 45.4777C18.5576 45.4767 17.3636 44.8498 16.7054 43.7295L8.49137 29.7472C7.87847 28.7015 7.83383 27.372 8.49202 26.2517ZM12.0165 27.2428C11.5912 27.0015 11.0476 27.1447 10.8021 27.5625C10.5567 27.9805 10.7023 28.5147 11.1275 28.7561C11.5527 28.9974 12.0964 28.8542 12.3418 28.4362C12.5874 28.0184 12.4417 27.484 12.0165 27.2428ZM19.341 41.2253C18.9159 41.4665 18.7701 42.0009 19.0156 42.4187C19.2611 42.8367 19.8048 42.9799 20.2301 42.7386C20.6552 42.4974 20.8009 41.963 20.5554 41.5451C20.31 41.1273 19.7662 40.9841 19.341 41.2253Z" fill="#F4B400"/>
<path opacity="0.1" fill-rule="evenodd" clip-rule="evenodd" d="M30.5676 44.603L34.1608 38.4874H30.4499L29.0272 45.4769C29.6854 45.4769 30.2601 45.1253 30.5676 44.603Z" fill="black"/>
<path opacity="0.1" fill-rule="evenodd" clip-rule="evenodd" d="M41.3472 17.5141L34.1616 17.5138L36.0169 20.6721L42.8874 18.3882C42.5582 17.828 41.9613 17.5146 41.3472 17.5141Z" fill="black"/>
<g opacity="0.1">
<mask id="mask0" style="mask-type:alpha" maskUnits="userSpaceOnUse" x="11" y="20" width="7" height="8">
<g opacity="0.1">
<path opacity="0.1" d="M17.535 20.1362H11.8488V28H17.535V20.1362Z" fill="white"/>
</g>
</mask>
<g mask="url(#mask0)">
<path opacity="0.1" fill-rule="evenodd" clip-rule="evenodd" d="M12.0868 21.8838L15.6792 27.9998L17.5347 24.8416L12.0868 20.136C11.7579 20.6961 11.7802 21.361 12.0868 21.8838Z" fill="black"/>
</g>
</g>
<path d="M21.8392 38.4872L15.6783 28L21.8392 17.5128H34.1608L40.3216 28L34.1608 38.4872H21.8392ZM33.3349 28C33.3349 25.1043 30.9463 22.757 28 22.757C25.0537 22.757 22.6652 25.1043 22.6652 28C22.6652 30.8956 25.0537 33.243 28 33.243C30.9463 33.243 33.3349 30.8956 33.3349 28Z" fill="#CCCCCC"/>
<g opacity="0.25">
<path d="M60 30C61.1046 30 62 29.1046 62 28C62 26.8954 61.1046 26 60 26C58.8954 26 58 26.8954 58 28C58 29.1046 58.8954 30 60 30Z" fill="#56CCF2"/>
</g>
<g opacity="0.5">
<path d="M76 30C77.1046 30 78 29.1046 78 28C78 26.8954 77.1046 26 76 26C74.8954 26 74 26.8954 74 28C74 29.1046 74.8954 30 76 30Z" fill="#56CCF2"/>
</g>
<path d="M92 30C93.1046 30 94 29.1046 94 28C94 26.8954 93.1046 26 92 26C90.8954 26 90 26.8954 90 28C90 29.1046 90.8954 30 92 30Z" fill="#56CCF2"/>
<g clip-path="url(#clip0)">
<path d="M144 28.9626C144.004 27.3342 143.507 25.7443 142.576 24.4105C141.645 23.0768 140.326 22.0644 138.8 21.5119C139.295 18.974 138.91 16.3427 137.709 14.0545C136.508 11.7663 134.564 9.9589 132.199 8.93203C129.835 7.90516 127.191 7.72059 124.707 8.40894C122.223 9.09728 120.049 10.6172 118.544 12.7165C117.513 11.9159 116.25 11.4743 114.946 11.4583C113.643 11.4423 112.369 11.8528 111.319 12.6278C110.269 13.4027 109.498 14.5 109.125 15.7534C108.751 17.0069 108.794 18.3484 109.248 19.575C107.717 20.1343 106.393 21.1509 105.455 22.4879C104.517 23.825 104.009 25.4184 104 27.0537C103.995 28.6892 104.495 30.2862 105.431 31.6245C106.368 32.9629 107.695 33.9768 109.23 34.5265C109.097 35.2372 109.03 35.9589 109.03 36.6822C109.028 39.0775 109.783 41.4117 111.188 43.3482C112.593 45.2847 114.574 46.7234 116.846 47.4569C119.119 48.1903 121.564 48.1806 123.83 47.4292C126.097 46.6777 128.067 45.2234 129.456 43.2758C130.486 44.0737 131.746 44.5141 133.046 44.5309C134.347 44.5476 135.618 44.1396 136.667 43.3685C137.717 42.5973 138.488 41.5047 138.866 40.2553C139.243 39.0059 139.205 37.6673 138.758 36.4413C140.288 35.881 141.611 34.864 142.548 33.527C143.485 32.1901 143.992 30.5972 144 28.9626Z" fill="white"/>
<path d="M119.726 25.2332L128.478 29.2476L137.31 21.4818C137.438 20.8408 137.502 20.1886 137.5 19.5348C137.501 17.419 136.827 15.3585 135.576 13.6551C134.326 11.9518 132.564 10.695 130.55 10.069C128.537 9.44292 126.376 9.48048 124.385 10.1761C122.394 10.8718 120.677 12.189 119.486 13.9348L118.018 21.5822L119.726 25.2332Z" fill="#FEC514"/>
<path d="M110.666 34.5345C110.535 35.1853 110.468 35.8475 110.466 36.5116C110.466 38.6357 111.144 40.704 112.401 42.4128C113.658 44.1216 115.428 45.381 117.45 46.006C119.473 46.6309 121.642 46.5886 123.639 45.8851C125.636 45.1817 127.356 43.8542 128.546 42.0976L130.004 34.4703L128.06 30.7389L119.272 26.7246L110.666 34.5345Z" fill="#00BFB3"/>
<path d="M110.61 19.3341L116.61 20.7552L117.926 13.9107C117.11 13.2931 116.117 12.9567 115.095 12.9515C114.073 12.9463 113.077 13.2726 112.254 13.8819C111.432 14.4911 110.828 15.3506 110.532 16.3324C110.236 17.3142 110.264 18.3656 110.612 19.3301" fill="#F04E98"/>
<path d="M110.09 20.7672C108.793 21.1964 107.659 22.0181 106.846 23.1196C106.032 24.221 105.578 25.5482 105.547 26.9189C105.515 28.2896 105.907 29.6365 106.668 30.7748C107.43 31.913 108.524 32.7867 109.8 33.276L118.216 25.6487L116.672 22.3368L110.09 20.7672Z" fill="#1BA9F5"/>
<path d="M130.092 42.0955C130.91 42.7302 131.914 43.0753 132.948 43.077C133.71 43.0748 134.46 42.8885 135.134 42.5338C135.809 42.1791 136.389 41.6665 136.825 41.0393C137.26 40.4122 137.539 39.689 137.637 38.9309C137.735 38.1728 137.65 37.4022 137.388 36.6842L131.388 35.2791L130.092 42.0955Z" fill="#93C90E"/>
<path d="M131.31 33.7035L137.91 35.251C139.227 34.8059 140.373 33.9591 141.188 32.8289C142.002 31.6986 142.445 30.3414 142.454 28.9465C142.453 27.602 142.045 26.2895 141.284 25.1835C140.522 24.0774 139.443 23.2302 138.19 22.7543L129.56 30.3415L131.31 33.7035Z" fill="#0077CC"/>
</g>
<defs>
<clipPath id="clip0">
<rect width="40" height="40" fill="white" transform="translate(104 8)"/>
</clipPath>
</defs>
</svg>
