<svg width="107" height="165" viewBox="0 0 107 165" fill="none" xmlns="http://www.w3.org/2000/svg">
<path d="M106.281 139.333C106.281 125.342 94.8644 114 80.7811 114C66.6979 114 55.2811 125.342 55.2811 139.333C55.2811 153.325 66.6979 164.667 80.7811 164.667C94.8644 164.667 106.281 153.325 106.281 139.333ZM95.2811 139.333C95.2811 147.289 88.7893 153.739 80.7811 153.739C72.773 153.739 66.2811 147.289 66.2811 139.333C66.2811 131.378 72.773 124.928 80.7811 124.928C88.7893 124.928 95.2811 131.378 95.2811 139.333Z" fill="#D3DAE6"/>
<path d="M70.5283 129.147C64.9402 134.699 64.8667 143.654 70.3077 149.295L70.5283 149.519L62.75 157.247C52.8913 147.452 52.7927 131.633 62.4544 121.718L62.7501 121.42L70.5283 129.147Z" fill="white"/>
<path d="M0 11L0 18H29V11L0 11Z" fill="#D3DAE6"/>
<path fill-rule="evenodd" clip-rule="evenodd" d="M11 0H18V29H11V0Z" fill="#D3DAE6"/>
</svg>
