<svg width="174" height="300" viewBox="0 0 174 300" fill="none" xmlns="http://www.w3.org/2000/svg">
<mask id="mask0" mask-type="alpha" maskUnits="userSpaceOnUse" x="0" y="0" width="174" height="300">
<path d="M0 300H174L174 0H0L0 300Z" fill="white"/>
</mask>
<g mask="url(#mask0)">
<path fill-rule="evenodd" clip-rule="evenodd" d="M202.8 110.4C90.7967 110.4 0 201.197 0 313.2C0 425.203 90.7967 516 202.8 516C314.803 516 405.6 425.203 405.6 313.2C405.6 201.197 314.803 110.4 202.8 110.4Z" fill="#7DE2D1"/>
<path fill-rule="evenodd" clip-rule="evenodd" d="M70.7999 223.2H49.2V244.8H70.7999V223.2Z" fill="#F990C6"/>
<path fill-rule="evenodd" clip-rule="evenodd" d="M70.7999 168H49.2V189.6H70.7999V168Z" fill="#F04E98"/>
<path fill-rule="evenodd" clip-rule="evenodd" d="M70.7999 112.8H49.2V134.4H70.7999V112.8Z" fill="#F990C6"/>
<path fill-rule="evenodd" clip-rule="evenodd" d="M70.7999 57.6001H49.2V79.2001H70.7999V57.6001Z" fill="#F04E98"/>
<path fill-rule="evenodd" clip-rule="evenodd" d="M70.7999 278.4H49.2V300H70.7999V278.4Z" fill="#F990C6"/>
<path fill-rule="evenodd" clip-rule="evenodd" d="M126 223.2H104.4V244.8H126V223.2Z" fill="#F04E98"/>
<path fill-rule="evenodd" clip-rule="evenodd" d="M126 168H104.4V189.6H126V168Z" fill="#F04E98"/>
<path fill-rule="evenodd" clip-rule="evenodd" d="M126 112.8H104.4V134.4H126V112.8Z" fill="#F04E98"/>
<path fill-rule="evenodd" clip-rule="evenodd" d="M126 57.6001H104.4V79.2001H126V57.6001Z" fill="#F990C6"/>
<path fill-rule="evenodd" clip-rule="evenodd" d="M126 2.40002H104.4V24H126V2.40002Z" fill="#F04E98"/>
</g>
</svg>
