<svg width="191" height="329" viewBox="0 0 191 329" fill="none" xmlns="http://www.w3.org/2000/svg">
<mask id="mask0" mask-type="alpha" maskUnits="userSpaceOnUse" x="0" y="0" width="191" height="329">
<path d="M0 329H191L191 0H0L0 329Z" fill="white"/>
</mask>
<g mask="url(#mask0)">
<path fill-rule="evenodd" clip-rule="evenodd" d="M-557.193 -79.3877C-557.193 -97.8976 -547.463 -115.047 -531.565 -124.554L-210.948 -316.291C-193.87 -326.505 -172.49 -326.232 -155.68 -315.587L166.516 -111.571C181.762 -101.918 191 -85.1407 191 -67.1089V63.1609C191 81.1928 181.762 97.9698 166.516 107.623L-155.68 311.639C-172.49 322.284 -193.87 322.557 -210.948 312.345L-531.565 120.606C-547.463 111.099 -557.193 93.9496 -557.193 75.4397V-79.3877Z" fill="#4EA8F1"/>
<path fill-rule="evenodd" clip-rule="evenodd" d="M50.1686 46.0601H73.7655V176.344L50.0552 191.741L50.1686 46.0601Z" fill="#3177C6"/>
<path fill-rule="evenodd" clip-rule="evenodd" d="M50.0552 180.95L73.7655 166.474L73.7614 328.342H50.0552V180.95Z" fill="#FEC514"/>
<path fill-rule="evenodd" clip-rule="evenodd" d="M110.762 -22.3721H134.359V137.325L110.648 152.656L110.762 -22.3721Z" fill="#3177C6"/>
<path fill-rule="evenodd" clip-rule="evenodd" d="M110.648 142.128L134.359 128.31L134.355 265.174H110.648V142.128Z" fill="#FEC514"/>
</g>
</svg>
