<svg width="32px" height="32px" viewBox="0 0 32 32" version="1.1" xmlns="http://www.w3.org/2000/svg" xmlns:xlink="http://www.w3.org/1999/xlink">
    <g stroke="none" stroke-width="1" fill="none" fill-rule="evenodd">
        <g id="MFA" transform="translate(6.000000, 0.000000)">
            <path d="M2.5,0 L17.5,0 C18.8807119,0 20,1.790861 20,4 L20,28 C20,30.209139 18.8807119,32 17.5,32 L2.5,32 C1.11928813,32 0,30.209139 0,28 L0,4 C0,1.790861 1.11928813,0 2.5,0 Z M3.14285714,2 C2.51167457,2 2,2.8954305 2,4 L2,28 C2,29.1045695 2.51167457,30 3.14285714,30 L16.8571429,30 C17.4883254,30 18,29.1045695 18,28 L18,4 C18,2.8954305 17.4883254,2 16.8571429,2 L3.14285714,2 Z M18,4 L18,6 L2,6 L2,4 L18,4 Z M18,26 L18,28 L2,28 L2,26 L18,26 Z" id="↳🌈-Color" fill="#343741"></path>
            <path d="M4,10 L8,10 L8,14 L4,14 L4,10 Z M14,15 L16,15 L16,17 L14,17 L14,15 Z M9,17 L11,17 L11,19 L9,19 L9,17 Z M9,13 L11,13 L11,15 L9,15 L9,13 Z M4,15 L6,15 L6,17 L4,17 L4,15 Z M7,15 L9,15 L9,17 L7,17 L7,15 Z M11,15 L13,15 L13,17 L11,17 L11,15 Z M9,20 L11,20 L11,22 L9,22 L9,20 Z M9,10 L11,10 L11,12 L9,12 L9,10 Z M4,18 L8,18 L8,22 L4,22 L4,18 Z M12,10 L16,10 L16,14 L12,14 L12,10 Z M12,18 L16,18 L16,22 L12,22 L12,18 Z" id="Accent" fill="#017F75" fill-rule="nonzero"></path>
        </g>
    </g>
</svg>