<svg width="32px" height="32px" viewBox="0 0 32 32" version="1.1" xmlns="http://www.w3.org/2000/svg" xmlns:xlink="http://www.w3.org/1999/xlink">
    <g stroke="none" stroke-width="1" fill="none" fill-rule="evenodd">
        <g id="SMS" transform="translate(6.000000, 0.000000)">
            <path d="M20,9 L18,9 L18,4 C18,2.8954305 17.4883254,2 16.8571429,2 L3.14285714,2 C2.51167457,2 2,2.8954305 2,4 L2,28 C2,29.1045695 2.51167457,30 3.14285714,30 L16.8571429,30 C17.4883254,30 18,29.1045695 18,28 L18,21 L20,21 L20,28 C20,30.209139 18.8807119,32 17.5,32 L2.5,32 C1.11928813,32 0,30.209139 0,28 L0,4 C0,1.790861 1.11928813,0 2.5,0 L17.5,0 C18.8807119,0 20,1.790861 20,4 L20,9 Z M18,4 L18,6 L2,6 L2,4 L18,4 Z M18,26 L18,28 L2,28 L2,26 L18,26 Z M9.375,10 L23.625,10 C24.9366763,10 26,10.5469709 26,11.2216937 L26,18.5518562 C26,19.226579 24.9366763,19.7735499 23.625,19.7735499 L15.9660136,19.7735499 L10.1666667,23.6019254 L10.1666667,19.7735499 L9.06235895,19.7735499 C7.75068267,19.7735499 7,19.226579 7,18.5518562 L7,11.2216937 C7,10.5469709 8.06332372,10 9.375,10 Z M10.0714286,12 C9.47969491,12 9,12.1954958 9,12.4366522 L9,17.676478 C9,17.9176343 9.47969491,18.1131301 10.0714286,18.1131301 L11.4852782,18.1131301 L11.4852782,20.0176023 L14.3252495,18.1131301 L22.9285714,18.1131301 C23.5203051,18.1131301 24,17.9176343 24,17.676478 L24,12.4366522 C24,12.1954958 23.5203051,12 22.9285714,12 L10.0714286,12 Z" id="↳🌈-Color" fill="#343741"></path>
            <path d="M12,16 C11.4477153,16 11,15.5522847 11,15 C11,14.4477153 11.4477153,14 12,14 C12.5522847,14 13,14.4477153 13,15 C13,15.5522847 12.5522847,16 12,16 Z M15,16 C14.4477153,16 14,15.5522847 14,15 C14,14.4477153 14.4477153,14 15,14 C15.5522847,14 16,14.4477153 16,15 C16,15.5522847 15.5522847,16 15,16 Z M18,16 C17.4477153,16 17,15.5522847 17,15 C17,14.4477153 17.4477153,14 18,14 C18.5522847,14 19,14.4477153 19,15 C19,15.5522847 18.5522847,16 18,16 Z M21,16 C21.5522847,16 22,15.5522847 22,15 C22,14.4477153 21.5522847,14 21,14 C20.4477153,14 20,14.4477153 20,15 C20,15.5522847 20.4477153,16 21,16 Z" id="Accent-passcode" fill="#017F75" fill-rule="nonzero"></path>
        </g>
    </g>
</svg>