<svg xmlns="http://www.w3.org/2000/svg" viewBox="0 0 360 330"><defs><style>.cls-1{fill:#7de2d1;}.cls-2{fill:#ecf0f6;}.cls-3{fill:#e6ebf2;}.cls-4{fill:#07c;}.cls-5{fill:#fa744e;}.cls-6{fill:#343741;}.cls-7{fill:#00bfb3;}.cls-8{fill:#01ada1;}.cls-9{fill:#f9b110;}.cls-10{fill:#1ba9f5;}.cls-11{fill:#fec514;}.cls-12{fill:#0066b1;}</style></defs><title>illustration-cloud-ui-create-password-360x330</title><g id="Layer_2" data-name="Layer 2"><path class="cls-1" d="M221.13,205.52v45.53H235V239a9.08,9.08,0,0,1,9.07-9.08h0a9.08,9.08,0,0,1,9.07,9.08v12h14.44V205.52Z"/><path class="cls-2" d="M236.34,74.24A1.31,1.31,0,0,0,238,74c.3-.36.22-.79-.2-1.16a1.87,1.87,0,0,0-.9-.5.27.27,0,0,0,0-.2c-.11-.19-.61-.18-.74-.09s-.32.38-.21.58a.31.31,0,0,0,.2.15A1.59,1.59,0,0,0,236.34,74.24Z"/><path class="cls-2" d="M251.18,98.15a1.62,1.62,0,0,0-1.72-.93c.39,1.08.76,2.16,1.11,3.25l.13,0A1.52,1.52,0,0,0,251.18,98.15Z"/><path class="cls-2" d="M217.21,59.47l-.08,0,.09,0Z"/><path class="cls-2" d="M222,53.23c.59,0,.82-.4.86-1-.37-.3-.75-.7-1.24-.3a1,1,0,0,0-.18.85A.74.74,0,0,0,222,53.23Z"/><path class="cls-2" d="M249.24,58.5a.51.51,0,0,0,0-.82c-.33-.26-.7-.41-1.07-.06a1,1,0,0,0,0,1.21C248.34,59.06,248.89,58.89,249.24,58.5Z"/><path class="cls-2" d="M256.8,81a.83.83,0,0,0,0,1.18.92.92,0,1,0,1.31-1.28A1.1,1.1,0,0,0,256.8,81Z"/><path class="cls-2" d="M255.32,80.48c.05-.21-.26-.43-.43-.46s-.58.14-.62.4.41.45.55.43A.59.59,0,0,0,255.32,80.48Z"/><path class="cls-2" d="M254.3,90.27a1,1,0,0,0,1.39-.11.92.92,0,0,0-.1-1.37,1,1,0,0,0-1.29.1A.93.93,0,0,0,254.3,90.27Z"/><path class="cls-2" d="M222.92,57.17a1.45,1.45,0,0,0,1.1,1.72,15.77,15.77,0,0,1,2.56.88c.65.34,1.66.25,1.86-.21a1.08,1.08,0,0,0-.56-1.17c-.65-.13-.58-.62-.81-1a3,3,0,0,0-.94-.84,2.27,2.27,0,0,0-.79-.23,6,6,0,0,0-.84-.1C223.58,56.15,223.07,56.46,222.92,57.17Z"/><path class="cls-2" d="M236.93,58.17A1.71,1.71,0,0,0,235.4,60a1.68,1.68,0,0,0,1.36,1.55c.65.13,1.29-.75,1.49-1.66A1.66,1.66,0,0,0,236.93,58.17Z"/><path class="cls-2" d="M241.34,79.32a1.53,1.53,0,0,0,0-2,1.51,1.51,0,0,0-2-.1.83.83,0,0,0-.14.22.9.9,0,0,0-.37.74c.38.49.74,1,1.11,1.49A1.47,1.47,0,0,0,241.34,79.32Z"/><path class="cls-2" d="M223.8,63.69a.38.38,0,0,0-.13-.19,6.21,6.21,0,0,0-1-.6Z"/><path class="cls-2" d="M230.08,65.8a1,1,0,0,0-.32.9,1.23,1.23,0,0,0-.86.4c-.12.11-.22.22-.33.33.58.49,1.16,1,1.72,1.5h0a.91.91,0,0,0,.64-1.39.51.51,0,0,0-.09-.18.86.86,0,0,0,.4-.21,3.73,3.73,0,0,0,.49-.93l0,0-1-.92A5,5,0,0,0,230.08,65.8Z"/><path class="cls-2" d="M239,67.46c-.75-.64-1.31-.7-1.79-.17a1.49,1.49,0,0,0,.18,1.75,1.66,1.66,0,0,0,1.78-.32A.84.84,0,0,0,239,67.46Z"/><path class="cls-2" d="M257.77,83.69a1.41,1.41,0,0,0,1,.36c.36,0,.52-.79.23-1.1a1.66,1.66,0,0,0-.7-.32C257.7,83,257.49,83.45,257.77,83.69Z"/><path class="cls-2" d="M224.29,53.77a1.36,1.36,0,0,0,0,1.76,1.14,1.14,0,0,0,1.43.13c.68-.63.88-1.46.46-1.9A1.53,1.53,0,0,0,224.29,53.77Z"/><path class="cls-2" d="M227.51,50.35c-.25-.55-.43-1.16-1.2-.91a.94.94,0,0,0-.74,1c0,.19.1.46.24.52a10.73,10.73,0,0,0,1.32.45c.43,1,1.12,1.6,1.75,1.35a1.86,1.86,0,0,0,.82-2.06C229.43,49.93,229,49.86,227.51,50.35Z"/><path class="cls-2" d="M253.44,88.34a1.16,1.16,0,0,0-1.76-.37c-.64.41-.86,1-.54,1.51a1.84,1.84,0,0,0,2.17.52A1.35,1.35,0,0,0,253.44,88.34Z"/><path class="cls-2" d="M254.63,65.77a.86.86,0,0,0-.18-1.27c-.44-.4-.92-.46-1.16-.14a1.51,1.51,0,0,0,.05,1.59A.92.92,0,0,0,254.63,65.77Z"/><path class="cls-2" d="M254.82,56.4a.72.72,0,0,0,0-1.15.89.89,0,0,0-1.29,0,.93.93,0,0,0,0,1.2A.91.91,0,0,0,254.82,56.4Z"/><path class="cls-2" d="M251.83,81.3a.85.85,0,0,0-.26.82c-.18.13-.36.26-.53.41a1.81,1.81,0,0,0-.11,2.12c.25.35.57.53.93.35a5.14,5.14,0,0,0,2.38-1.89,1.46,1.46,0,0,0,.13-.47c0-1-.62-1.5-1.41-1.31A.87.87,0,0,0,251.83,81.3Z"/><path class="cls-2" d="M254.59,50.82a.85.85,0,0,0,0-.82c-.12-.16-.78-.41-1-.24s0,.81.1.9S254.42,51,254.59,50.82Z"/><path class="cls-2" d="M250.49,75.7a1.07,1.07,0,0,0,1.41-.11.85.85,0,0,0-.07-1.18.91.91,0,0,0-1.38,0A1,1,0,0,0,250.49,75.7Z"/><path class="cls-2" d="M252.4,63.55c.12-.16.34-.49.16-.63a.62.62,0,0,0-.63,0c-.13.1-.35.59-.16.73A.6.6,0,0,0,252.4,63.55Z"/><path class="cls-2" d="M249.19,67.45a.69.69,0,0,0,.64-.28.72.72,0,0,0-.21-.67.78.78,0,0,0-.82.14C248.65,66.86,249,67.38,249.19,67.45Z"/><path class="cls-2" d="M254.38,74.29c-.25.33-.43.69-.08,1.07a1.08,1.08,0,0,0,1.32-.18c.1-.29-.11-.63-.32-.89A.55.55,0,0,0,254.38,74.29Z"/><path class="cls-2" d="M258.29,72.81c.21-.15.68-.63.38-1.08s-.84-.13-1,0a.86.86,0,0,0-.24.77A.58.58,0,0,0,258.29,72.81Z"/><path class="cls-2" d="M255.3,78c.34.22,1.45-.39,1.35-.92a.91.91,0,0,0-1-.67C255.13,76.55,255,77.79,255.3,78Z"/><path class="cls-2" d="M253.8,99.14c.35-.19.39-.7.37-1s-.58-.51-.94-.33-.54.64-.32.93S253.44,99.34,253.8,99.14Z"/><path class="cls-2" d="M259.58,69.24a.59.59,0,0,0,0-.59.55.55,0,0,0-.57,0c-.12.11-.36.55-.14.71A.65.65,0,0,0,259.58,69.24Z"/><path class="cls-2" d="M261.25,93.08c.38-1.42-1-1.43-1-1.88s.48-1.23.51-1.9c0-1-.45-1.82-1.45-1.75a1.6,1.6,0,0,0-1.65,1.75c0,1.33,1.37,1.06,1.07,1.89s-.92.2-1.26,1.39.49,2.19,1.32,1.94.95-1,1.16-1S261.07,93.75,261.25,93.08Z"/><path class="cls-2" d="M256.43,86a.65.65,0,0,0,1,.19,1.18,1.18,0,0,0,.37-.83c0-.26-.78-.73-1.14-.52A.85.85,0,0,0,256.43,86Z"/><path class="cls-2" d="M256.27,64.36c.06-.06,0-.28-.06-.33s-.24-.09-.32,0a.26.26,0,0,0,0,.39A.29.29,0,0,0,256.27,64.36Z"/><path class="cls-2" d="M256.81,62.12c.11-.12,0-.57-.15-.73a.54.54,0,0,0-.48,0,.72.72,0,0,0-.07.6C256.19,62.09,256.71,62.23,256.81,62.12Z"/><path class="cls-2" d="M253.51,95.9a1.15,1.15,0,0,0,1.49.62,1.47,1.47,0,0,0,.57-.66.63.63,0,0,0,.25.07c.6-.05.76-.79.65-1.09a.81.81,0,0,0-1-.26,1.67,1.67,0,0,0-1.82-.33C253.25,94.49,253.18,95.3,253.51,95.9Z"/><path class="cls-2" d="M215.12,50.68a1.1,1.1,0,0,0-1.49-.48,1.16,1.16,0,0,0,.07,1.66.75.75,0,0,0,1.08,0A1,1,0,0,0,215.12,50.68Z"/><path class="cls-2" d="M263.21,80.88c-.18.07-.62.4-.47.78s.74.21.9.11.45-.39.28-.69A.57.57,0,0,0,263.21,80.88Z"/><path class="cls-2" d="M261.61,76.82c.32-.33-.23-1.3-.52-1.56a1,1,0,0,0-1.2,0c-.32.33,0,1,.21,1.34S261.29,77.15,261.61,76.82Z"/><path class="cls-2" d="M263.42,87.88c-.46.24-.6,1.24-.27,1.86a1.12,1.12,0,0,0,1.51.54,1.51,1.51,0,0,0,.69-1.85A1.6,1.6,0,0,0,263.42,87.88Z"/><path class="cls-2" d="M262.65,79.51c.41,0,1.09-.79.89-1.22-.29-.6-.68-.89-1.33-.35S262.23,79.51,262.65,79.51Z"/><path class="cls-2" d="M202.7,53.16a1.25,1.25,0,0,0,.11-1.81,1.54,1.54,0,0,0-2-.13,1.7,1.7,0,0,0,0,1.45l1.8.51Z"/><path class="cls-2" d="M258.19,103.2a2,2,0,0,0-.44,2.39,1.26,1.26,0,0,0,1.72.08c.73-.49.83-1,.33-1.83A1.31,1.31,0,0,0,258.19,103.2Z"/><path class="cls-2" d="M260,99.61c-.67-.38-1.06-.1-1.15-.36s.05-.92-.42-1.13-1.62.83-1.71,1.07,0,1-.57,1-1-.45-1.54-.16-1.65.92-1.56,1.8.83.6,1.24.89a1.17,1.17,0,0,0,1.55-.16c.44-.5.61-1.2.91-1.35s.71-.22.89.25.92.85,1.88.4S260.66,100,260,99.61Z"/><path class="cls-2" d="M266.87,92.89a.7.7,0,0,0,.14-1.06.57.57,0,0,0-.93-.1c-.22.2-.76.76-.5,1.08S266.6,93,266.87,92.89Z"/><path class="cls-2" d="M267.13,87.49c.05-.13.12-.24.1-.33s-.23-.12-.25-.1-.22.21-.17.33S267,87.45,267.13,87.49Z"/><path class="cls-2" d="M269.29,101a1.52,1.52,0,0,0-2.05-.65,2,2,0,0,0-.85,2.49,2,2,0,0,0,2.45.71C269.65,103.2,269.84,102.11,269.29,101Z"/><path class="cls-2" d="M270.46,95.28c-.38.34-.18,1,0,1.24s.6.29.93.09.52-.76.21-1S270.84,94.93,270.46,95.28Z"/><path class="cls-2" d="M274.5,95.83a1.11,1.11,0,0,0,.45-1.36c-.22-.38-1-.48-1.73-.08,0,.18-.19.53-.1.78A1.1,1.1,0,0,0,274.5,95.83Z"/><path class="cls-2" d="M269.15,87.92c.46-.19.34-1,.48-1.37l-.21-.2a.85.85,0,0,0-1,.17,1.22,1.22,0,0,0-.47.64C268.3,87.39,268.7,88.11,269.15,87.92Z"/><path class="cls-2" d="M269.75,94.25a1.07,1.07,0,0,0,.84.2c.37-.11.48-.85.17-1.12a1.55,1.55,0,0,0-.66-.22C269.58,93.47,269.45,94,269.75,94.25Z"/><path class="cls-2" d="M268.83,78.09a.56.56,0,0,0,.07-.56.63.63,0,0,0-.59-.14.51.51,0,0,0-.2.7C268.33,78.4,268.68,78.19,268.83,78.09Z"/><path class="cls-2" d="M247.54,89.34a1.52,1.52,0,0,1-1.69-.24c.46.89.91,1.79,1.33,2.7a2,2,0,0,0,1.08-1C248.4,90.37,248.39,89.43,247.54,89.34Z"/><path class="cls-2" d="M245,87.15a1.15,1.15,0,0,0,0,.26c.22.4.42.81.63,1.21a1.51,1.51,0,0,0,1.26-.21,1.3,1.3,0,0,0,.62-1.51,1.71,1.71,0,0,0-1.91-.64.68.68,0,0,0-.21.17,1.66,1.66,0,0,0-.11-.77,2.93,2.93,0,0,0-1.35-1.47,1.32,1.32,0,0,1-.5-.55c-.28-.67-.71-1-1.27-.88,1,1.47,1.9,3,2.76,4.51Z"/><path class="cls-2" d="M243.39,82.2a.76.76,0,0,0,1.15-.12,1,1,0,0,0,.19-.64.62.62,0,0,0,.23-.07.94.94,0,0,0,.42-1.23,1.06,1.06,0,0,0-1.34-.46.88.88,0,0,0-.39,1,.83.83,0,0,0-.26,1.55Z"/><path class="cls-2" d="M241.88,73.85c.24-.36.51-.75.18-1.06-.6-.51-1.18-.54-1.51-.19a1,1,0,0,0,.08,1.48A.85.85,0,0,0,241.88,73.85Z"/><path class="cls-2" d="M241.71,70.73c.45-.57.13-1.11-.11-1.62-1.07-.06-1.47.1-1.61.67a.9.9,0,0,0,.41,1A1,1,0,0,0,241.71,70.73Z"/><path class="cls-2" d="M242.48,61.64a1.4,1.4,0,0,0-.69.86.43.43,0,0,0,.42.53c.28,0,.46-.22.64-.44s.39-.37.4-.66S242.84,61.47,242.48,61.64Z"/><path class="cls-2" d="M245,75.32a2.36,2.36,0,0,0-.51.76c-.34-.39-.62-.94-1.3-.65a.87.87,0,0,0-.53,1.08,1.12,1.12,0,0,0,.61.62c.47.16.77-.08,1.14-.83a1,1,0,0,0,.2,1,1.71,1.71,0,0,0,2-.18,1.58,1.58,0,0,0-.18-1.77A1.16,1.16,0,0,0,245,75.32Z"/><path class="cls-2" d="M247.8,81.51a1.27,1.27,0,0,0-.85-.69,1,1,0,0,0-.85.47.7.7,0,0,0-.08.23l-.11.09c-.44.47-.33,1.11.3,1.68a1,1,0,0,0,1.4.13,2,2,0,0,0,.19-1.88Z"/><path class="cls-2" d="M215.88,58.44c.49.31.8.1,1.07-.29a2.28,2.28,0,0,1,.69-.78c.67-.35,1.39-.6,2.13-.9,1.31,1.34,1.94,1.34,2.81-.09a1.25,1.25,0,0,0-.76-1.94,11.15,11.15,0,0,0-2.28,0c-.43-.71-1-1.5-2-1.4a2.29,2.29,0,0,0-1.71,3,1,1,0,0,1-.27,1A1.08,1.08,0,0,0,215.88,58.44Z"/><path class="cls-2" d="M246.83,84.73a.94.94,0,0,0,.14.81c.16.16.76.41,1,.22s0-.83-.1-1.05A.64.64,0,0,0,246.83,84.73Z"/><path class="cls-2" d="M233.48,71.49c.51.25,1.27,0,1.3-.47a1.56,1.56,0,0,1,1-1.38,1.46,1.46,0,0,0,.34-1.64,1.91,1.91,0,0,0-1.91-.37c-.38.2-.92.44-.75,1a2.18,2.18,0,0,1-.32,1.8A.72.72,0,0,0,233.48,71.49Z"/><path class="cls-2" d="M239.53,64.24a2.74,2.74,0,0,1-.7-.41,1.31,1.31,0,0,0-1.74-.14c-.58.38-.62.93.13,1.61a14.26,14.26,0,0,0,1.85.64.84.84,0,0,0,.75-.18,2.33,2.33,0,0,0-.09,1.78,1.74,1.74,0,0,0,2.35.47,2,2,0,0,0,.62-2.34,1.76,1.76,0,0,0-2.28-.76,1.34,1.34,0,0,0-.33.34A.83.83,0,0,0,239.53,64.24Z"/><path class="cls-2" d="M217.36,38a1.13,1.13,0,0,0,.06-1.34.89.89,0,0,0-1.2,0,1,1,0,0,0-.07,1.31A1,1,0,0,0,217.36,38Z"/><path class="cls-2" d="M227.09,64.69a2.26,2.26,0,0,0,0-1.95c-.4-.42-1.26-.26-1.83.33s-.47,1,.2,1.65A1.13,1.13,0,0,0,227.09,64.69Z"/><path class="cls-2" d="M221,60.86c.28-.25,0-1.21-.65-1.4a1,1,0,0,0-.83.27.85.85,0,0,0-.08,1.05l.65.41A1.41,1.41,0,0,0,221,60.86Z"/><path class="cls-2" d="M250.57,79.55a2.2,2.2,0,0,0,.18-.28,1.4,1.4,0,0,0,1.13-.56c.41-.57-.28-1.21-.62-1.32-.15,0-.37.22-.55.55a1.66,1.66,0,0,0-.16-.21,1.25,1.25,0,0,0-1.64-.14,1.8,1.8,0,0,0,.16,2.22A1.12,1.12,0,0,0,250.57,79.55Z"/><path class="cls-2" d="M247.87,91.61a1.53,1.53,0,0,0-.52.55q.59,1.29,1.14,2.61a1.71,1.71,0,0,0,1.1-.2l.18-.13s0,0,0,0a.31.31,0,0,0,.37,0c.06-.07,0-.29-.06-.34a1.4,1.4,0,0,0,.12-1.48A2,2,0,0,0,247.87,91.61Z"/><path class="cls-2" d="M237.1,46.93c.28.16,1.06.43,1.31.17s-.23-1-.44-1.24-.64-.26-.91.13S236.72,46.71,237.1,46.93Z"/><path class="cls-2" d="M253.11,111.87c.08.58.16,1.16.23,1.74a.9.9,0,0,0,.36-.14.91.91,0,0,0,.31-1.24A1,1,0,0,0,253.11,111.87Z"/><path class="cls-2" d="M255.75,115.48a1.9,1.9,0,0,0-.24,2.49,1.28,1.28,0,0,0,1.88.34c1.06-.8,1-1.22.46-2.38A1.49,1.49,0,0,0,255.75,115.48Z"/><path class="cls-2" d="M255.35,108.53a.93.93,0,0,0,.65-.91c0-.56-.41-.87-.88-1.12a.93.93,0,0,0-.79-.07,1.22,1.22,0,0,0-.07-1.21.72.72,0,0,0-1.06-.22,1.45,1.45,0,0,0-.59.94,1,1,0,0,0,1.25.9,2.74,2.74,0,0,1-.83.62,1.07,1.07,0,0,0-.39.81c0,.17,0,.32,0,.48.12.65.25,1.3.35,2a1,1,0,0,0,.34.14c.78.16,1.22,0,1.39-.78a6.26,6.26,0,0,0,0-1.3Z"/><path class="cls-2" d="M185.45,47.37a1.05,1.05,0,0,0,0-1.33,1.28,1.28,0,0,0-1.63-.2,1.49,1.49,0,0,0-.23,1.78C184,48.05,184.83,47.93,185.45,47.37Z"/><path class="cls-2" d="M258.33,110.47a1.78,1.78,0,0,0-2.15-.53,1.75,1.75,0,0,0-.71,2.48,1.39,1.39,0,0,0,1.67.65.76.76,0,0,0,.09.18,1.75,1.75,0,0,0,2.2.37,1.71,1.71,0,0,0-1.1-3.15Z"/><path class="cls-2" d="M262.65,98.11c.52-.1.62-1.3.07-1.93a.9.9,0,0,0-1.19-.22c-.57.28-1,1-.81,1.47C261.12,98.33,262.13,98.2,262.65,98.11Z"/><path class="cls-2" d="M264.06,105.37a.71.71,0,0,0,.14-1.07A.87.87,0,0,0,263,104a.8.8,0,0,0-.19,1.16A1,1,0,0,0,264.06,105.37Z"/><path class="cls-2" d="M259.49,106.93a.77.77,0,0,0-.36,1.1.93.93,0,0,0,1.21.46.88.88,0,0,0,.28-1.25A.81.81,0,0,0,259.49,106.93Z"/><path class="cls-2" d="M191.64,43.23c0-.58.21-1.15-.42-1.43a.78.78,0,0,0-1.06.32,1,1,0,0,0-.09.87C190.41,43.62,191,43.54,191.64,43.23Z"/><path class="cls-2" d="M203,31.13c.29-.23,0-.57-.15-.72a.53.53,0,0,0-.49,0,.72.72,0,0,0-.06.6A.51.51,0,0,0,203,31.13Z"/><path class="cls-2" d="M200.58,48.14c.4.39,1-.08,1.31-.24s.3-.71,0-1-.76-.4-1,0S200.17,47.75,200.58,48.14Z"/><path class="cls-2" d="M202.87,34.54a.5.5,0,0,0,.77-.11.55.55,0,0,0-.13-.69.49.49,0,0,0-.67,0A.51.51,0,0,0,202.87,34.54Z"/><path class="cls-2" d="M201.73,37.55c.12-.16.33-.49.16-.62a.61.61,0,0,0-.64,0c-.12.1-.34.6-.16.73A.59.59,0,0,0,201.73,37.55Z"/><path class="cls-2" d="M194.47,49.52a1.57,1.57,0,1,0-2.28-2.17,1.77,1.77,0,0,0,.46,2.36A1.24,1.24,0,0,0,194.47,49.52Z"/><path class="cls-2" d="M207.41,46.11a1.81,1.81,0,0,0-.17-2.51,1.86,1.86,0,0,0-2.22.2,1.62,1.62,0,0,0,.38,2.33A1.34,1.34,0,0,0,207.41,46.11Z"/><path class="cls-2" d="M198.22,39.63c.47-.49.33-.84.08-1.1s-.69-.42-.93,0a1,1,0,0,0,0,.95C197.52,39.64,198,39.59,198.22,39.63Z"/><path class="cls-2" d="M198.83,44.22c-1,.94-1,1.1,0,1.76.68-.23.81-.71.6-1.38,1.46-.88,1.35-1.86-.23-2.75a2.08,2.08,0,0,1,0-.35c.12-.49-.15-.75-.54-1a.87.87,0,0,0-1,.15c-.79.58-.86,1-.22,1.79C197.91,43.06,198.37,43.65,198.83,44.22Z"/><path class="cls-2" d="M272.09,116.77a.71.71,0,0,0-.42,1,.82.82,0,0,0,1.11.36.72.72,0,0,0,.23-1A.67.67,0,0,0,272.09,116.77Z"/><path class="cls-2" d="M272,99.16a1.25,1.25,0,0,0-.56,1.62,1.87,1.87,0,0,0,2.26.54,1.38,1.38,0,0,0-1.7-2.16Z"/><path class="cls-2" d="M267.76,106.14a1.45,1.45,0,0,0-.58,1.55c.27.49,1.13.56,1.82.15a.68.68,0,0,0,.25-1C269,106.23,268.19,105.89,267.76,106.14Z"/><path class="cls-2" d="M270.18,112.93a1.05,1.05,0,0,0-.41,1.26,1.34,1.34,0,0,0,1.37.47,1.31,1.31,0,0,0,.32-1.52A.93.93,0,0,0,270.18,112.93Z"/><path class="cls-2" d="M271.37,103.48a.53.53,0,0,0-.22.58.54.54,0,0,0,.6.16c.14-.06.47-.46.36-.65S271.5,103.39,271.37,103.48Z"/><path class="cls-2" d="M262,108.22c0,.71.35,1.08,1.16,1.09.34-.45.66-.93.14-1.36S262.36,107.81,262,108.22Z"/><path class="cls-2" d="M272.15,107.82c-.08-.15-.42-.15-.6-.1s-.38.35-.26.58.56.09.72,0A.47.47,0,0,0,272.15,107.82Z"/><path class="cls-2" d="M268.05,109.94c-.36.1-.67.89-.54,1.34a.68.68,0,0,0,1,.38c.7-.27,1.08-.67,1-1A1.54,1.54,0,0,0,268.05,109.94Z"/><path class="cls-2" d="M262.82,111.09a1.55,1.55,0,0,0-.12,1.57,1.3,1.3,0,0,0,1.44,0,.68.68,0,0,0,0-1C263.62,111.06,263.1,110.86,262.82,111.09Z"/><path class="cls-2" d="M266.4,114.25a1.6,1.6,0,0,0-.28,1.88,1.58,1.58,0,0,0,1.69.18,1.08,1.08,0,0,0,.26-1.3C267.55,114.23,266.89,113.93,266.4,114.25Z"/><path class="cls-2" d="M263,99.53a.88.88,0,0,0-.23,1.18.78.78,0,0,0,1.12.37.87.87,0,0,0,.38-1.22A1,1,0,0,0,263,99.53Z"/><path class="cls-2" d="M262.41,116.39c-.7.38-1,1-.66,1.45a2,2,0,0,0,1.93.58,1.16,1.16,0,0,0,.32-1.67C263.63,116,263.19,116,262.41,116.39Z"/><path class="cls-2" d="M264.71,122c-.24.1-.34.24-.24.5s.26.34.51.22.31-.26.21-.51A.33.33,0,0,0,264.71,122Z"/><path class="cls-2" d="M265.91,118.48a.66.66,0,0,0,.07.72c.16.14.5,0,.62-.18s.11-.52-.1-.63A.46.46,0,0,0,265.91,118.48Z"/><path class="cls-2" d="M266.9,97.73c.79-.44,1.17-1.23.85-1.75a1.65,1.65,0,0,0-1.87-.38,1.49,1.49,0,0,0-.27,1.75A1.14,1.14,0,0,0,266.9,97.73Z"/><path class="cls-2" d="M235,52.63a.92.92,0,0,0,.16.85c.16.14.86.23,1,0s-.09-.94-.22-1C235.68,52.45,235.1,52.41,235,52.63Z"/><path class="cls-2" d="M240.45,61.49c.32-.47.42-.93-.06-1.29a.78.78,0,0,0-.74,0,1,1,0,0,0-.35.78C239.43,61.62,240,61.53,240.45,61.49Z"/><path class="cls-2" d="M249.73,70.25a1.64,1.64,0,0,0,0-1.91c-.35-.32-1.36-.06-1.85.47a1.07,1.07,0,0,0,.16,1.41A1.26,1.26,0,0,0,249.73,70.25Z"/><path class="cls-2" d="M239.18,52.3a1.26,1.26,0,0,0-.09-1.53,2.12,2.12,0,0,0-2.12-.05,1.57,1.57,0,0,0,.46,1.94C238,53.13,238.6,53,239.18,52.3Z"/><path class="cls-2" d="M238.23,41c-.12.1-.31.57-.16.72s.64,0,.74-.12.2-.46,0-.62S238.36,40.88,238.23,41Z"/><path class="cls-2" d="M238.4,34.54c.09,0,.25-.45.07-.63s-.55.07-.69.19a.45.45,0,0,0,0,.51C237.91,34.73,238.24,34.63,238.4,34.54Z"/><path class="cls-2" d="M233.73,45.79c.06-.06,0-.28-.06-.33a.27.27,0,0,0-.32,0,.28.28,0,0,0,0,.39A.29.29,0,0,0,233.73,45.79Z"/><path class="cls-2" d="M233.65,56.2a.93.93,0,0,0,.95.76.7.7,0,0,0,.8-.54c.19-.68-.23-1-.78-1.38C234.1,55.36,233.51,55.52,233.65,56.2Z"/><path class="cls-2" d="M231.38,59.94c0,.58.7.79.16,1.22s-1.54,1.44-.62,2.34a1.56,1.56,0,0,0,1.87,0v0a1.79,1.79,0,0,0,.6,1.45,1.76,1.76,0,0,0,2.29-.31,1.46,1.46,0,0,0-.09-2,2.33,2.33,0,0,0-2.21-.07.87.87,0,0,0,0-.71c-.26-.47,1-.74.64-1.41s.31-1.3-.17-2.06-1.43-1.2-1.93-.56A3.14,3.14,0,0,0,231.38,59.94Z"/><path class="cls-2" d="M209.46,38.91a1.57,1.57,0,0,0,.19-2.07,1.41,1.41,0,0,0-1.74.29,1.25,1.25,0,0,0,.2,1.72A.87.87,0,0,0,209.46,38.91Z"/><path class="cls-2" d="M246.08,65.22a.6.6,0,0,0,1-.08c.13-.28.29-.6.14-.85a1.08,1.08,0,0,0-1.31.11C245.65,64.74,245.84,65,246.08,65.22Z"/><path class="cls-2" d="M245.1,45c.24.17,1,.42,1.14.23s0-.9-.16-1.17-.66-.31-1,0A.54.54,0,0,0,245.1,45Z"/><path class="cls-2" d="M243.65,58.91a1.89,1.89,0,0,0-.05-2.51,2,2,0,0,0-2.44.1,1.65,1.65,0,0,0,.27,2.43A1.51,1.51,0,0,0,243.65,58.91Z"/><path class="cls-2" d="M250,74a1.35,1.35,0,0,0,.6-1.84,2.08,2.08,0,0,0-2.5-.84,1.55,1.55,0,0,0-.47,2A1.67,1.67,0,0,0,250,74Z"/><path class="cls-2" d="M243.51,70.07a1.41,1.41,0,0,0,.7.84c.67.23.83-.41,1.14-.9-.41-.57-.82-1-1.45-.68A.87.87,0,0,0,243.51,70.07Z"/><path class="cls-2" d="M245,54.22a.7.7,0,0,0-.06.59.5.5,0,0,0,.7.14c.29-.23-.05-.57-.16-.72A.54.54,0,0,0,245,54.22Z"/><path class="cls-2" d="M246,62.2c.31-.23.22-1.22-.12-1.34a1,1,0,0,0-.91.17.72.72,0,0,0-.05,1.14A.79.79,0,0,0,246,62.2Z"/><path class="cls-2" d="M235.67,49.44a.85.85,0,0,0-.07-1.18.91.91,0,0,0-1.38,0,1,1,0,0,0,0,1.31A1.07,1.07,0,0,0,235.67,49.44Z"/><path class="cls-2" d="M215.28,46.23c.42-.29.29-1-.15-1.36a.81.81,0,0,0-1.17.18,1.08,1.08,0,0,0,.3,1.45A2.68,2.68,0,0,0,215.28,46.23Z"/><path class="cls-2" d="M217.83,48.73c.66.6,1.2.66,1.67.18a1.57,1.57,0,0,0,.07-2,1.7,1.7,0,0,0-2,.08A1.33,1.33,0,0,0,217.83,48.73Z"/><path class="cls-2" d="M212,42.61a1.38,1.38,0,0,0,1.66-.23,1.31,1.31,0,0,0-.74-1.48,1,1,0,0,0-.92,1.71Z"/><path class="cls-2" d="M217.54,32.53a1.34,1.34,0,0,0,.69-1.42,1,1,0,0,0-1.06-1c-.45,0-1.37-.37-1.74.2s.18.82.27,1.13C215.92,32.29,216.92,32.87,217.54,32.53Z"/><path class="cls-2" d="M210.86,45.73a1,1,0,0,0,.15,1.38,1,1,0,0,0,1.28-.13,1,1,0,0,0-.14-1.31A.91.91,0,0,0,210.86,45.73Z"/><path class="cls-2" d="M211.77,32.34a.91.91,0,0,0,0-1.21.77.77,0,0,0-1.16-.07.94.94,0,0,0,0,1.22A.8.8,0,0,0,211.77,32.34Z"/><path class="cls-2" d="M209,49.64c.48-.52.54-1.14.14-1.49a2.39,2.39,0,0,0-2-.1,1.3,1.3,0,0,0,.21,1.91C207.75,50.39,208.35,50.27,209,49.64Z"/><path class="cls-2" d="M208.33,53.69s0,.08,0,.15h0a2.58,2.58,0,0,0-.28-.68.58.58,0,0,0-.94-.12.7.7,0,0,0-.12,1.06,1.67,1.67,0,0,0,.86.3,1.23,1.23,0,0,0-.19.52c.5.2,1,.38,1.5.58a1.13,1.13,0,0,0,.25-.31c.28-.56.72-.54,1.23-.64.35,1.37,1.12,1.74,2.19,1.13l.3-.21a.94.94,0,0,0,.11-1.61,1.39,1.39,0,0,0-2-.4,3.93,3.93,0,0,1,.3-.95.87.87,0,0,0-.06-1.2,1.24,1.24,0,0,0-1.37-.52C208.32,51.37,208,51.84,208.33,53.69Z"/><path class="cls-2" d="M227.38,41.83a1.51,1.51,0,0,0,2-.28,1.42,1.42,0,0,0-2.22-1.76A1.46,1.46,0,0,0,227.38,41.83Z"/><path class="cls-2" d="M230.75,56.38c.35.37.84.27,1.33-.26s.6-1.07.18-1.46a1.14,1.14,0,0,0-1.71-.07A2,2,0,0,0,230.75,56.38Z"/><path class="cls-2" d="M228.74,45.06a.9.9,0,0,0-.19,1.29,1.52,1.52,0,0,0,1.89.1,1,1,0,0,0,.05-1.42A1.3,1.3,0,0,0,228.74,45.06Z"/><path class="cls-2" d="M227,33a.7.7,0,0,0,.81-.54c.19-.68-.23-1-.78-1.37-.52.31-1.11.47-1,1.15A.93.93,0,0,0,227,33Z"/><path class="cls-2" d="M221.33,45.47c.11-.13,0-.6-.18-.8a.45.45,0,0,0-.79,0c-.13.26-.42,1-.16,1.18S221.15,45.68,221.33,45.47Z"/><path class="cls-2" d="M220.79,39.85c.29.16,1.09.46,1.3.2s-.14-1-.32-1.28-.8-.2-1.05.14S220.42,39.64,220.79,39.85Z"/><path class="cls-2" d="M223.15,48.21a2.23,2.23,0,0,0,2.66.12,1.76,1.76,0,0,0-.05-2.31,1.71,1.71,0,0,0-2.29-.08A1.73,1.73,0,0,0,223.15,48.21Z"/><path class="cls-2" d="M223.43,34.74c.25-.18.06-.58,0-.62a.81.81,0,0,0-.59-.07c-.07,0-.14.42-.07.48S223.17,34.92,223.43,34.74Z"/><path class="cls-3" d="M178.38,76.62h0a48.11,48.11,0,0,0-48.1,48.1V156.5h25.78V126.71a22.32,22.32,0,0,1,22.32-22.32h0a22.32,22.32,0,0,1,22.33,22.32V156.5h25.77V124.72A48.1,48.1,0,0,0,178.38,76.62Z"/><path class="cls-4" d="M200.53,123.94l26,.13a47.61,47.61,0,0,0-47.61-47.61V104.4A22.32,22.32,0,0,1,200.53,123.94Z"/><path class="cls-2" d="M50.08,269.66a.32.32,0,0,0,0,.5c.14.11.52.37.7.17s0-.56-.12-.61S50.29,269.44,50.08,269.66Z"/><path class="cls-2" d="M48.41,276.14l-.81.4c-.75-.38-1.57-.39-1.84,0a.85.85,0,0,0,.07,1.05c.49.6.81.63,1.64.25a12.87,12.87,0,0,0,1.64.57.6.6,0,0,0,.67-.89C49.42,277,49.17,276.34,48.41,276.14Z"/><path class="cls-2" d="M48.32,289.24a.72.72,0,0,0,.15,1.06.65.65,0,0,0,1-.06.7.7,0,0,0,.07-1A.82.82,0,0,0,48.32,289.24Z"/><path class="cls-2" d="M52.61,297.56a2,2,0,0,0,.23,2.41,1.77,1.77,0,0,0,2.4-.07,2.58,2.58,0,0,0-.26-2.71A1.74,1.74,0,0,0,52.61,297.56Z"/><path class="cls-2" d="M53,290.83a1,1,0,0,0,0-1.32,1.33,1.33,0,0,0-1.45,0,1.3,1.3,0,0,0,.22,1.53A.92.92,0,0,0,53,290.83Z"/><path class="cls-2" d="M53,305.54c-.12.11-.29.59-.12.73s.63,0,.73-.17a.42.42,0,1,0-.61-.56Z"/><path class="cls-2" d="M47.84,281.66c.08-.16.25-.5,0-.73s-.58.1-.61.2-.14.42.08.6A.34.34,0,0,0,47.84,281.66Z"/><path class="cls-2" d="M47.88,294.61c-.27,0-.5.61-.71,1a.36.36,0,0,0,.09.54,1.11,1.11,0,0,0,1.36-.37A.81.81,0,0,0,47.88,294.61Z"/><path class="cls-2" d="M54.76,268.31a.85.85,0,0,0-.86-.66c-.46.06-.55.36-.39,1.3A.81.81,0,0,0,54.76,268.31Z"/><path class="cls-2" d="M53.47,287.36c.43-.54.3-1.1-.37-1.61a.93.93,0,0,0-1.29,0,1.94,1.94,0,0,0,0,2C52.36,288.15,53,288,53.47,287.36Z"/><path class="cls-2" d="M52.62,262.54a5.14,5.14,0,0,0-.2.55A1.83,1.83,0,0,0,53,265a2.12,2.12,0,0,0,2.07,0,1.07,1.07,0,0,0,.49-.63,1.66,1.66,0,0,0-1.1-2.09l-.56-.21c.14-.36.3-.69.4-1a.89.89,0,0,0-.57-1.26,1.38,1.38,0,0,0-1.57.24,1.22,1.22,0,0,0-.23,1.45A5.52,5.52,0,0,0,52.62,262.54Z"/><path class="cls-2" d="M44.81,280.23c-.53,0-.81,1.24-.39,1.65s1.26.43,1.49,0S45.34,280.23,44.81,280.23Z"/><path class="cls-2" d="M49.79,263.38a.84.84,0,0,0-.86-.67.78.78,0,0,0-.39,1.31A.82.82,0,0,0,49.79,263.38Z"/><path class="cls-2" d="M64,303.19c-.3-.31-.66-.06-.9.24s-.22.89.15,1,.9.4,1.14-.06S64.25,303.42,64,303.19Z"/><path class="cls-2" d="M65.44,305.1a1.07,1.07,0,0,0-.86.1c-.31.23-.15,1,.24,1.11a1.56,1.56,0,0,0,.69,0C65.87,305.77,65.81,305.22,65.44,305.1Z"/><path class="cls-2" d="M54.19,280.32a.89.89,0,0,0,.76.25,1.38,1.38,0,0,0,.85-.15,1.93,1.93,0,0,0,.87-1.43,1.46,1.46,0,0,0-.75-1.3,1.25,1.25,0,0,0-1.24.09A1.45,1.45,0,0,0,54,279C54,279.46,53.85,280,54.19,280.32Z"/><path class="cls-2" d="M62.76,296.55a1.47,1.47,0,0,0,0,.78Z"/><path class="cls-2" d="M68.26,300.75a1.17,1.17,0,0,0-1.35.09c-.58.69-.67,1.57-.19,1.94a1.66,1.66,0,0,0,1.89-.28A1.52,1.52,0,0,0,68.26,300.75Z"/><path class="cls-2" d="M61,312.18a.85.85,0,0,0,.18,1.26.78.78,0,0,0,1.16-.07c.36-.45.41-1.3.08-1.55S61.33,311.83,61,312.18Z"/><path class="cls-2" d="M68.19,310.83c-.37.34,0,1,0,1.45l.27.12a.85.85,0,0,0,.89-.51,1.28,1.28,0,0,0,.22-.77C69.17,311,68.55,310.49,68.19,310.83Z"/><path class="cls-2" d="M60.07,263.37a1.68,1.68,0,0,0,.24-2,1.62,1.62,0,0,0-2.11,0,1.65,1.65,0,0,0,.27,2.18A1.14,1.14,0,0,0,60.07,263.37Z"/><path class="cls-2" d="M55.77,284a1.57,1.57,0,0,0,.57,1.91c.58.43,1.19.27,1.73-.47a1.26,1.26,0,0,0-.18-1.52A2.14,2.14,0,0,0,55.77,284Z"/><path class="cls-2" d="M55.83,288.18c-.31-.26-.59-.17-.85.18,0,.12,0,.34.06.42a2,2,0,0,1,.49,1.17c0,.2.5.43.76.42a1.13,1.13,0,0,0,.75-.48.88.88,0,0,0-.18-.74A7.88,7.88,0,0,0,55.83,288.18Z"/><path class="cls-2" d="M54.19,292.62a.68.68,0,0,0,.12,1.05,1.24,1.24,0,0,0,1.63.12,1.43,1.43,0,0,0,0-1.65C55.53,291.77,54.7,292,54.19,292.62Z"/><path class="cls-2" d="M61.93,294.84a1.21,1.21,0,0,0-.17-1.81,1.47,1.47,0,0,0-2.23.2,1.57,1.57,0,0,0,0,2.09A1.79,1.79,0,0,0,61.93,294.84Z"/><path class="cls-2" d="M69.85,305c-.36-.2-1,.14-1.23.36a.71.71,0,0,0,.22,1.05.57.57,0,0,0,.91-.23C69.89,305.93,70.21,305.22,69.85,305Z"/><path class="cls-2" d="M61.65,301.26a1.27,1.27,0,0,0,0-1.72,1.88,1.88,0,0,0-2.31.28,1.38,1.38,0,0,0,2.34,1.44Z"/><path class="cls-2" d="M62,305.39a1,1,0,1,0-1.48,1.29c.35.29,1.1.11,1.66-.52C62.1,306,62.14,305.6,62,305.39Z"/><path class="cls-2" d="M84.25,297.83a1.51,1.51,0,0,0,.09,2.07,2,2,0,0,0,2.55.12,2.06,2.06,0,0,0-.16-2.46H84.54A1.5,1.5,0,0,0,84.25,297.83Z"/><path class="cls-2" d="M90,298.31a.76.76,0,0,0,1.15-.07,2.56,2.56,0,0,0,.4-.68h-2A1.6,1.6,0,0,0,90,298.31Z"/><path class="cls-2" d="M78.49,297.87a1.5,1.5,0,0,0,0,1.8,1.62,1.62,0,0,0,2.1-.13c.29-.36.07-1.15-.44-1.6A1.17,1.17,0,0,0,78.49,297.87Z"/><path class="cls-2" d="M60.58,277.3a.38.38,0,1,0-.5-.58.34.34,0,0,0,0,.55A.32.32,0,0,0,60.58,277.3Z"/><path class="cls-2" d="M60.16,281.32a.46.46,0,0,0,.52-.29.68.68,0,0,0-.32-.65c-.19-.08-.46.18-.52.39S59.92,281.29,60.16,281.32Z"/><path class="cls-2" d="M61.62,289.78a1.27,1.27,0,0,0,0-1.43.68.68,0,0,0-1,0c-.57.49-.79,1-.56,1.3A1.53,1.53,0,0,0,61.62,289.78Z"/><path class="cls-2" d="M91.53,298.09a.93.93,0,0,0,.17,1.28,1,1,0,0,0,1.22-1.54A1.09,1.09,0,0,0,91.53,298.09Z"/><path class="cls-2" d="M59.65,283.72a1.07,1.07,0,0,0,.19,1.31c.76.56,1.49.61,1.84.14a1.25,1.25,0,1,0-2-1.45Z"/><path class="cls-2" d="M96.25,298.34c.57,0,1.06,0,1.42.59.27.46.77.31,1.18,0,.1-.65-.15-1-.67-1.11l0,0a.28.28,0,0,0,0-.25H94.82A1.91,1.91,0,0,0,96.25,298.34Z"/><path class="cls-2" d="M130.71,298.44a.76.76,0,0,0,.33,1.11,1,1,0,0,0,1.26-.34,1,1,0,0,0-.39-1.23A.89.89,0,0,0,130.71,298.44Z"/><path class="cls-2" d="M139.46,307.88a1.1,1.1,0,0,0,.42,1.27c.31,0,.6-.23.81-.48a.54.54,0,0,0-.17-.9C140.15,307.58,139.77,307.47,139.46,307.88Z"/><path class="cls-2" d="M120,307.36c.07.05.28-.05.31-.12a.26.26,0,0,0-.06-.32.27.27,0,0,0-.37.09A.28.28,0,0,0,120,307.36Z"/><path class="cls-2" d="M110.12,298.27c-.22.4.23.85.43,1.05a.59.59,0,0,0,.94,0c.29-.33.28-1-.09-1.14S110.34,297.88,110.12,298.27Z"/><path class="cls-2" d="M99.53,302.64a1.28,1.28,0,0,0,1.73.07,1.89,1.89,0,0,0-.39-2.18,1.07,1.07,0,0,0-1.56.26A1.15,1.15,0,0,0,99.53,302.64Z"/><path class="cls-2" d="M115.58,300.91a.89.89,0,0,0-.23-1.26,1.09,1.09,0,0,0-1.31.2.89.89,0,0,0,.28,1.25A.86.86,0,0,0,115.58,300.91Z"/><path class="cls-2" d="M114.89,297.56h-.48A.72.72,0,0,0,114.89,297.56Z"/><path class="cls-2" d="M55.66,272.48c.09.21-.11.64-.27.45s-.48-.22-1,.18a1,1,0,0,0-.3,1.38,1.4,1.4,0,0,0,1.93.35c.65-.42.52-.85,1-1.09s.46-.56.33-1.08-.35-1.3-1.07-1.1S55.58,272.27,55.66,272.48Z"/><path class="cls-2" d="M62.76,262v-2l-.09.09a1.29,1.29,0,0,0,0,1.82Z"/><path class="cls-2" d="M117.11,300.17a.85.85,0,0,0,0-1.27.89.89,0,0,0-1.28.06,1.09,1.09,0,0,0,0,1.33A.89.89,0,0,0,117.11,300.17Z"/><path class="cls-2" d="M62.76,271.49v-5.25a2.14,2.14,0,0,0-.51.3c-.59.5-.2,1.41-.57,2.13A1.83,1.83,0,0,0,62.76,271.49Z"/><path class="cls-2" d="M59.68,265.48c-.19.64.24,1,.82,1.29.49-.21,1-.46.9-1.09a.81.81,0,0,0-.93-.74A1.09,1.09,0,0,0,59.68,265.48Z"/><path class="cls-2" d="M114.87,303.68a.6.6,0,0,0,.11-.93c-.3-.33-1-.41-1.14-.05s-.43,1-.06,1.28S114.64,303.86,114.87,303.68Z"/><path class="cls-2" d="M63.53,298.56a1.5,1.5,0,0,0,2.14-.09,1.66,1.66,0,0,0,.44-.91H62.83A2.51,2.51,0,0,0,63.53,298.56Z"/><path class="cls-2" d="M62.76,273.46v-1.32a.6.6,0,0,0-.76.21c-.23.28-.41.61-.08.95A.84.84,0,0,0,62.76,273.46Z"/><path class="cls-2" d="M62.76,277.49v-1.88l-.23.11a7.33,7.33,0,0,0,0,1.15A1.51,1.51,0,0,0,62.76,277.49Z"/><path class="cls-2" d="M62.76,280.37a1.06,1.06,0,0,0,0,1.27Z"/><path class="cls-2" d="M69.93,297.82a.85.85,0,0,0,.11-.26H68.38a.72.72,0,0,0,.25.39A1,1,0,0,0,69.93,297.82Z"/><path class="cls-2" d="M113.53,299.82a.89.89,0,0,0-.25-1.26.91.91,0,0,0-1.36.15,1.11,1.11,0,0,0,.32,1.38A1,1,0,0,0,113.53,299.82Z"/><path class="cls-2" d="M53.9,303.45a.46.46,0,0,0,0,.51c.13.11.45,0,.6-.11s.23-.46,0-.63S54,303.32,53.9,303.45Z"/><path class="cls-2" d="M128.87,302.29a.89.89,0,0,0-.77.29c-.14.18-.27.82,0,1s.82-.13,1-.3A.64.64,0,0,0,128.87,302.29Z"/><path class="cls-2" d="M124.39,297.56a1.27,1.27,0,0,0,.42,1.25,1.77,1.77,0,0,0,1.94-.52,1.61,1.61,0,0,0,.22-.73Z"/><path class="cls-2" d="M131.76,300.8c-.55-.34-1.15-.12-1.6.61a1,1,0,0,0,.14,1.4,1.89,1.89,0,0,0,2-.28A1.19,1.19,0,0,0,131.76,300.8Z"/><path class="cls-2" d="M133.22,311.62a.92.92,0,1,0,1.5,1.05,1.1,1.1,0,0,0-.35-1.28A.81.81,0,0,0,133.22,311.62Z"/><path class="cls-2" d="M134.11,303.58a1.11,1.11,0,0,0,.53,1.42,1.22,1.22,0,0,0,1.79-.36,1.26,1.26,0,0,0-.16-1.64A1.81,1.81,0,0,0,134.11,303.58Z"/><path class="cls-2" d="M133.17,306.56a.91.91,0,0,0-1.28.19.7.7,0,0,0,.15,1.13.87.87,0,0,0,1.28-.14A.89.89,0,0,0,133.17,306.56Z"/><path class="cls-2" d="M126.17,310.4a.92.92,0,0,0-1.35.26,1,1,0,0,0,.36,1.34.92.92,0,0,0,1.33-.35A1,1,0,0,0,126.17,310.4Z"/><path class="cls-2" d="M124.41,301.37a1.88,1.88,0,0,0-.24-.42,1.16,1.16,0,0,0-2.07.4,7.23,7.23,0,0,0-.34,1.9.83.83,0,0,0,0,.27.63.63,0,0,0,.33.64h0a1.87,1.87,0,0,0,1,.64c.42.07,1.33-.12,1.27-1C123.68,302.63,124.68,302.41,124.41,301.37Z"/><path class="cls-2" d="M118.52,307.17a.6.6,0,0,0,0,.59c.08.11.54.28.71.1s-.08-.56-.2-.71A.38.38,0,0,0,118.52,307.17Z"/><path class="cls-2" d="M112.05,306.41a2.5,2.5,0,0,1-.48-.87,1.35,1.35,0,0,0-1-1.2c-.45-.1-1.39.65-1.51,1.18s-.25,1,.39,1.35c.48.23.92.53,1.37.8a1.2,1.2,0,0,0,.12.11.43.43,0,0,0,.13.22.31.31,0,0,0,.27,0,.79.79,0,0,0,.71-.22A1,1,0,0,0,112.05,306.41Z"/><path class="cls-2" d="M114.61,310.2a1.85,1.85,0,0,0-2.37.69,2.17,2.17,0,0,0,.9,2.78c.7.29,1.18-.56,1.09-1.1s0-.37.43-.73A.94.94,0,0,0,114.61,310.2Z"/><path class="cls-2" d="M122,297.56h-1.6a1.84,1.84,0,0,0-.25.23,1.21,1.21,0,0,0,.28,1.81,1.17,1.17,0,0,0,1.71,0A1.77,1.77,0,0,0,122,297.56Z"/><path class="cls-2" d="M119.88,312.44a1,1,0,0,0-.34.77.85.85,0,0,0,1.18.43.82.82,0,0,0-.12-1.23A.76.76,0,0,0,119.88,312.44Z"/><path class="cls-2" d="M135.72,298.71a1.7,1.7,0,0,0,.54,1.92,1.58,1.58,0,0,0,1.71-.51,1.17,1.17,0,0,0-.21-1.41C136.94,298.18,136.05,298.17,135.72,298.71Z"/><path class="cls-2" d="M117.06,303.84a1.2,1.2,0,0,0-1.75.5,1.18,1.18,0,0,0,.23,1.7,1.79,1.79,0,0,0,2.16-.57C118,305,117.67,304.17,117.06,303.84Z"/><path class="cls-2" d="M150.51,307.41a.3.3,0,0,0,.12.36c.07.05.28-.06.31-.12a.28.28,0,0,0-.05-.32A.27.27,0,0,0,150.51,307.41Z"/><path class="cls-2" d="M139.94,305.28a.92.92,0,0,0-.25-1.36,1,1,0,0,0-1.28.29,1.07,1.07,0,0,0,.38,1.36A.85.85,0,0,0,139.94,305.28Z"/><path class="cls-2" d="M150.5,303.21a.6.6,0,0,0,.21.61c.18.09.55.24.65,0a.61.61,0,0,0-.12-.62C151.12,303.13,150.59,303,150.5,303.21Z"/><path class="cls-2" d="M153,307.17c-.1.09-.14.63,0,.71s.55-.15.68-.28a.53.53,0,0,0-.08-.48A.7.7,0,0,0,153,307.17Z"/><path class="cls-2" d="M163.63,302.76c-.11.23-.16.69,0,.83a.85.85,0,0,0,.82-.11c.14-.14.26-.84.05-1S163.69,302.62,163.63,302.76Z"/><path class="cls-2" d="M157.91,303.6a.9.9,0,0,0,.28,1.26.71.71,0,0,0,1.13-.19.88.88,0,0,0-.23-1.26A.93.93,0,0,0,157.91,303.6Z"/><path class="cls-2" d="M154.55,298.71c-.18.28.08.79.53,1.06a.51.51,0,0,0,.8-.19c.2-.37.27-.77-.14-1.06A1,1,0,0,0,154.55,298.71Z"/><path class="cls-2" d="M150.08,304.84a1.51,1.51,0,0,0-1.55.35.92.92,0,0,0,.41,1.23.87.87,0,0,0,1.22-.41C150.47,305.49,150.44,305,150.08,304.84Z"/><path class="cls-2" d="M144.71,300.39a1.08,1.08,0,0,0-1.36.42,1.26,1.26,0,0,0,.28,1.63,1.64,1.64,0,0,0,1.88-.32C145.76,301.72,145.32,300.77,144.71,300.39Z"/><path class="cls-2" d="M139.29,313.82c-.18.19-.29,1.26.1,1.52s1.23-.48,1.43-.81a1,1,0,0,0-.25-1.17C140.19,313.11,139.57,313.53,139.29,313.82Z"/><path class="cls-2" d="M142,297.56c.17.31.63.37,1,.53a2.78,2.78,0,0,0,.42-.53Z"/><path class="cls-2" d="M146.23,311.25a.67.67,0,0,0,.23.68.62.62,0,0,0,.58-.11.54.54,0,0,0-.08-.56C146.83,311.16,146.35,311,146.23,311.25Z"/><path class="cls-2" d="M149,298.86c.22-.19.06-1.06-.34-1.26,0,0-.08,0-.12,0h-.28a.85.85,0,0,0-.37.36.59.59,0,0,0,.26,1C148.45,299,148.8,299.06,149,298.86Z"/><path class="cls-2" d="M96.22,312c-.54,0-.73.39-.8,1.4.46.24.91.69,1.46.17a.88.88,0,0,0,.13-1.2A1.12,1.12,0,0,0,96.22,312Z"/><path class="cls-2" d="M87.58,313.51c-.19.67.68,1,1,1s.52-1.6.23-1.88S87.77,312.83,87.58,313.51Z"/><path class="cls-2" d="M84.57,304.75c.45-.61.45-1.28,0-1.6a1.82,1.82,0,0,0-2.21.26,1.34,1.34,0,0,0,.45,1.6A1.15,1.15,0,0,0,84.57,304.75Z"/><path class="cls-2" d="M79.78,308.43a1.13,1.13,0,0,0-.06.91c.12.23,1,.41,1.24.09a.85.85,0,0,0-.16-1.17A.64.64,0,0,0,79.78,308.43Z"/><path class="cls-2" d="M83.6,321.26c-.14.21-.42.82,0,1.15s.84-.17,1-.35a.88.88,0,0,0,0-.82A.58.58,0,0,0,83.6,321.26Z"/><path class="cls-2" d="M88,304.86a.72.72,0,0,0-1,0,5.14,5.14,0,0,0-1.58,2.6,1.65,1.65,0,0,0,0,.49,1.16,1.16,0,0,0,2,.52,7.27,7.27,0,0,0,1.12-1.56A1.82,1.82,0,0,0,88,304.86Z"/><path class="cls-2" d="M84.61,315.35c-.39-.08-1.23.87-1,1.33a.93.93,0,0,0,1.16.3C85.27,316.66,85,315.44,84.61,315.35Z"/><path class="cls-2" d="M80.33,310.87a1.46,1.46,0,0,0-1.07,0c-.32.17-.2.92.18,1.11a1.71,1.71,0,0,0,.76.06C80.65,311.54,80.68,311,80.33,310.87Z"/><path class="cls-2" d="M84.07,312.52a.58.58,0,0,0-.33.52c0,.21.39.31.57.28s.49-.33.44-.59S84.2,312.45,84.07,312.52Z"/><path class="cls-2" d="M71.89,319.94a.55.55,0,0,0,.12.55.63.63,0,0,0,.6-.07.49.49,0,0,0,0-.72C72.24,319.48,72,319.8,71.89,319.94Z"/><path class="cls-2" d="M111.13,316a.44.44,0,0,0,0,.51c.13.11.45,0,.6-.11s.23-.46,0-.63S111.26,315.83,111.13,316Z"/><path class="cls-2" d="M76.83,304.17c0-.88.8-.51.7-1.74s-1.21-1.89-1.91-1.37-.54,1.28-.73,1.36-1.13.15-1.07.84c.14,1.46,1.41,1,1.59,1.42s0,1.33.17,2c.28.9,1,1.54,2,1.14a1.61,1.61,0,0,0,.95-2.22C78,304.33,76.83,305,76.83,304.17Z"/><path class="cls-2" d="M71.59,307.07a1.5,1.5,0,0,0,0,2,1.59,1.59,0,0,0,2-.15c.35-.39.14-1.37-.39-1.84A1.11,1.11,0,0,0,71.59,307.07Z"/><path class="cls-2" d="M75.48,314.7c-.12.16-.28.52,0,.74a.57.57,0,0,0,.74-.05c.15-.13.44-.59.17-.9S75.6,314.55,75.48,314.7Z"/><path class="cls-2" d="M77.2,316.47c-.39.14-.75,1.12-.42,1.46.48.46,1,.6,1.37-.13S77.58,316.33,77.2,316.47Z"/><path class="cls-2" d="M72.56,300.65c.44-.46.59-1.31.25-1.66-.67-.7-1.58-.23-2,0s-.13,1.43.6,1.83A.9.9,0,0,0,72.56,300.65Z"/><path class="cls-2" d="M102.65,307.35c-.24.36,0,.6.21.81a.61.61,0,0,0,1-.14,2.59,2.59,0,0,0,.08-.85A.89.89,0,0,0,102.65,307.35Z"/><path class="cls-2" d="M104.08,313.79c-.12.11-.28.59-.12.73s.64,0,.73-.17a.42.42,0,1,0-.61-.56Z"/><path class="cls-2" d="M105.35,310.5c-.23.36,0,.6.22.81a.61.61,0,0,0,1-.14,2.9,2.9,0,0,0,.08-.85A.9.9,0,0,0,105.35,310.5Z"/><path class="cls-2" d="M103.17,302.32a.92.92,0,0,0,.25,1.27.85.85,0,0,0,1.18-.06.82.82,0,0,0,0-1.26A1,1,0,0,0,103.17,302.32Z"/><path class="cls-2" d="M107.43,300.35a1.71,1.71,0,0,0-.22-2.15,1.76,1.76,0,0,0-1.83-.32,1.65,1.65,0,0,0,0-.32h-4.33l-.09.08a.76.76,0,0,0-.16.56,1.49,1.49,0,0,0-.42.67c-.2.73.71,1.1,1.23.94s.37-.05.78.33a.93.93,0,0,0,1.62-.25,1.36,1.36,0,0,0,.09-.86l.19,0,.11-.05a1.57,1.57,0,0,0,.67,1.62,2.2,2.2,0,0,0,.68.4.83.83,0,0,0-.32.57c-.07.62.64,1.18,1.28,1.15a1.54,1.54,0,0,0,1.32-1A1.23,1.23,0,0,0,107.43,300.35Z"/><path class="cls-2" d="M107,303.43c-.1.09-.2.57,0,.71s.55-.15.68-.28.09-.39-.08-.48A.61.61,0,0,0,107,303.43Z"/><path class="cls-2" d="M90.9,308a.94.94,0,0,0-.46,1.49,1.24,1.24,0,0,0,1,.35,1,1,0,0,0,.64-.73A1.08,1.08,0,0,0,90.9,308Z"/><path class="cls-2" d="M96.21,304.49a1,1,0,0,0,1.28-.39,1.06,1.06,0,0,0-.06-1.52.9.9,0,0,0-1.27.24h0a1.75,1.75,0,0,0-.68-.6,1.69,1.69,0,0,1-.94-.84c-.29-.67-1-.82-1.59-.95a1.63,1.63,0,0,0-1.57.89l-.08.16a1.54,1.54,0,0,0-.53-1c-.46-.35-1.12-.16-1.64.48a1.31,1.31,0,0,0-.07,1.63,1.71,1.71,0,0,0,2-.06,1,1,0,0,0,.14-.23,1.56,1.56,0,0,0,.37.69,2.88,2.88,0,0,0,1.77.91,1.35,1.35,0,0,1,.66.34,1.17,1.17,0,0,0,2,0A.75.75,0,0,0,96.21,304.49Z"/><path class="cls-2" d="M100.47,310.21a1.25,1.25,0,0,0,.2,1.81c.43.39,1.13.24,1.67-.37a.9.9,0,0,0,0-1.37A1.89,1.89,0,0,0,100.47,310.21Z"/><path class="cls-2" d="M94,323.15c-.18,0-.49.3-.5.48a.7.7,0,0,0,.43.56.8.8,0,0,0,.72-.42C94.7,323.51,94.17,323.15,94,323.15Z"/><path class="cls-2" d="M93.15,308.62a1,1,0,0,0,0,1.31,1.08,1.08,0,0,0,1.42,0,1,1,0,0,0-1.45-1.28Z"/><path class="cls-2" d="M100.27,306.11a1.67,1.67,0,0,0-2.44.22,1.34,1.34,0,0,0,.06,1.93,2.09,2.09,0,0,0,2.64-.07A1.55,1.55,0,0,0,100.27,306.11Z"/><path class="cls-2" d="M70.23,310.53a1.19,1.19,0,0,0,0,.35.36.36,0,0,0,.27,0c0-.11.14-.28,0-.37S70.36,310.53,70.23,310.53Z"/><path class="cls-5" d="M141.3,210.57l38.8-.2v-38.6A38.8,38.8,0,0,0,141.3,210.57Z"/><circle class="cls-6" cx="180.36" cy="212.06" r="20.85"/><rect class="cls-6" x="170.98" y="210.79" width="19.15" height="41.95"/><path class="cls-2" d="M151.94,177.58c.1-.16.3-.51.12-.63a.61.61,0,0,0-.64,0c-.12.11-.31.62-.11.74A.6.6,0,0,0,151.94,177.58Z"/><path class="cls-2" d="M152.77,171.1c.28-.25-.07-.57-.19-.72a.53.53,0,0,0-.48,0,.67.67,0,0,0,0,.6A.51.51,0,0,0,152.77,171.1Z"/><path class="cls-2" d="M148.56,179.87c.44-.52.28-.86,0-1.1s-.72-.38-.93,0a1,1,0,0,0,0,.95C147.87,179.93,148.32,179.85,148.56,179.87Z"/><path class="cls-2" d="M157.3,216a2.26,2.26,0,0,0-2.66.27,1.29,1.29,0,0,0-.21.91,1,1,0,0,0-.87.42.91.91,0,0,0,.14,1.27,1.06,1.06,0,0,0,1.38-.28.6.6,0,0,0,.08-.16A1.63,1.63,0,0,0,157.3,216Z"/><path class="cls-2" d="M168.24,231.91a1.45,1.45,0,0,0,.27-.65.91.91,0,0,0,.72.32,1,1,0,0,0,1-.71.76.76,0,0,0-.09-.67c-.33-.18-.66-.38-1-.58a1.85,1.85,0,0,0-.73.6,1.36,1.36,0,0,0-.41-.63,1.93,1.93,0,0,0-2.41.25,1.42,1.42,0,0,0,.15,2A1.73,1.73,0,0,0,168.24,231.91Z"/><path class="cls-2" d="M149.44,184.42c-.93,1-.91,1.15.1,1.75.66-.27.76-.75.51-1.41,1.4-1,1.23-1.94-.39-2.73a1.37,1.37,0,0,1,0-.35c.08-.5-.2-.74-.61-.92a.85.85,0,0,0-1,.21c-.76.63-.79,1.09-.11,1.8C148.46,183.31,149,183.88,149.44,184.42Z"/><path class="cls-2" d="M160.16,177.29a1.13,1.13,0,0,0-.36-.9,1.41,1.41,0,0,0-1.72.4,1.25,1.25,0,0,0,.26,1.66C158.93,178,159.54,177.66,160.16,177.29Z"/><path class="cls-2" d="M133,218.17c-.06.18-.14.43.08.6a.33.33,0,0,0,.49-.07c.09-.16.26-.49,0-.72S133,218.08,133,218.17Z"/><path class="cls-2" d="M161.64,171.77a.92.92,0,0,0-.06-1.21.76.76,0,0,0-1.16,0,.93.93,0,0,0,.05,1.21A.8.8,0,0,0,161.64,171.77Z"/><path class="cls-2" d="M152.89,174.51a.5.5,0,0,0,.76-.16.55.55,0,0,0-.17-.68.47.47,0,0,0-.66,0A.51.51,0,0,0,152.89,174.51Z"/><path class="cls-2" d="M128.63,198.75a.78.78,0,0,0-.39,1.31.8.8,0,0,0,1.24-.64A.84.84,0,0,0,128.63,198.75Z"/><path class="cls-2" d="M143.61,190.26a1.22,1.22,0,0,0,1.8-.29,1.57,1.57,0,1,0-2.4-2A1.75,1.75,0,0,0,143.61,190.26Z"/><path class="cls-2" d="M130.51,217.27c-.54,0-.82,1.24-.4,1.65s1.26.44,1.49,0S131,217.27,130.51,217.27Z"/><path class="cls-2" d="M136.28,188.37a1.06,1.06,0,0,0-.05-1.33,1.31,1.31,0,0,0-1.65-.1,1.5,1.5,0,0,0-.12,1.79C134.85,189.13,135.69,189,136.28,188.37Z"/><path class="cls-2" d="M130.5,206.38c.18-.2,0-.57-.12-.62s-.39-.28-.6-.06a.33.33,0,0,0,0,.5C129.93,206.32,130.31,206.57,130.5,206.38Z"/><path class="cls-2" d="M139.77,199.41a1.66,1.66,0,0,0,.23-2,1.61,1.61,0,0,0-2.1,0,1.65,1.65,0,0,0,.27,2.18A1.14,1.14,0,0,0,139.77,199.41Z"/><path class="cls-2" d="M142.36,197.94a1.6,1.6,0,0,0,.95.32c.21-.64.44-1.28.69-1.91a1.35,1.35,0,0,0-.38-.48.9.9,0,0,0-1.26.25A1.28,1.28,0,0,0,142.36,197.94Z"/><path class="cls-2" d="M142.21,183.86c0-.58.14-1.15-.51-1.4a.78.78,0,0,0-1,.38,1.08,1.08,0,0,0,0,.88C141,184.32,141.57,184.21,142.21,183.86Z"/><path class="cls-2" d="M139.89,193.42a1.61,1.61,0,0,0-.07-2,1.45,1.45,0,0,0-1.86.18c-.47.5-.38,1.06.28,1.66A1.41,1.41,0,0,0,139.89,193.42Z"/><path class="cls-2" d="M162.6,227.21c.47,0,.94,0,1.41-.09s1-.07,1.3-.65a20.34,20.34,0,0,1-2.15-2.66,1.94,1.94,0,0,0-.84,1.19,3.46,3.46,0,0,1-.23.55c-.59.39-.64.79-.49,1.18S162.17,227.24,162.6,227.21Z"/><path class="cls-2" d="M150.45,221.73a1.75,1.75,0,0,0-.19-2.58,1.37,1.37,0,0,0-1.78,0,1,1,0,0,0-.15-.14,1.77,1.77,0,0,0-2.2.41,1.71,1.71,0,0,0,2.12,2.58A1.78,1.78,0,0,0,150.45,221.73Z"/><path class="cls-2" d="M147.16,234.06a1.31,1.31,0,0,0,2-.18,1.26,1.26,0,0,0,0-1.71,1.86,1.86,0,0,0-2.31.28A1.29,1.29,0,0,0,147.16,234.06Z"/><path class="cls-2" d="M159.21,213.69c.15.27.29.54.45.79a21.54,21.54,0,0,1-.15-2.42c0-.53,0-1.06.08-1.58l-4.55,0a3.26,3.26,0,0,0,.23,1,6.59,6.59,0,0,0-.7,1.37,1,1,0,0,0,.7,1.27c.67.13,1.35.16,2.06.24.41.82.47.84,1.42.42C159,214.43,158.46,213.77,159.21,213.69Z"/><path class="cls-2" d="M144.38,217.83c.52-.6.57-1.23.12-1.59a2,2,0,0,0-2,.12,1.16,1.16,0,0,0,.27,1.68C143.35,218.57,143.8,218.51,144.38,217.83Z"/><path class="cls-2" d="M144.41,222.91c.68.34,1.23.35,1.42,0a1.53,1.53,0,0,0-.44-1.51,1.28,1.28,0,0,0-1.34.5A.68.68,0,0,0,144.41,222.91Z"/><path class="cls-2" d="M153.43,223.84a1.32,1.32,0,0,0,1.21.75.89.89,0,0,0,.76-.21,1.26,1.26,0,0,0,.48,1.12.73.73,0,0,0,1.08-.17,1.4,1.4,0,0,0,.22-1.08,1,1,0,0,0-1.48-.41,2.85,2.85,0,0,1,.57-.87,1.1,1.1,0,0,0,.08-.9,7.11,7.11,0,0,1-.3-1.29,1.09,1.09,0,0,0-1.21-.9c-.79.12-1.13.47-1,1.21a5.92,5.92,0,0,0,.45,1.22l-.54.45A.92.92,0,0,0,153.43,223.84Z"/><path class="cls-2" d="M164,245.35c-.39.14-.75,1.12-.41,1.46s.95.6,1.37-.13S164.42,245.21,164,245.35Z"/><path class="cls-2" d="M167,236.47a1.81,1.81,0,0,0-.63-2,.72.72,0,0,0-1,0,5.1,5.1,0,0,0-1.58,2.6,1.65,1.65,0,0,0,0,.49,1.16,1.16,0,0,0,2,.52A7.59,7.59,0,0,0,167,236.47Z"/><path class="cls-2" d="M160.25,223.85a2.16,2.16,0,0,0,1.78-1.63,1.93,1.93,0,0,0,0-.24,21.22,21.22,0,0,1-2-5.21,1.65,1.65,0,0,0-.51.46c-.47.75.26,1.57.16,1.8s-1.55.31-2.1,1.26a2.66,2.66,0,0,0,.8,3A2.69,2.69,0,0,0,160.25,223.85Z"/><path class="cls-2" d="M158.42,231c-.26.3-.12.79,0,1.11s.72.28,1,0a.59.59,0,0,0,0-1C159.16,231,158.68,230.74,158.42,231Z"/><path class="cls-2" d="M147.93,228.53a.94.94,0,0,0-1.29.21.72.72,0,0,0,.23,1,.88.88,0,0,0,1.29-.11A.79.79,0,0,0,147.93,228.53Z"/><path class="cls-2" d="M148.82,216.68a1.48,1.48,0,0,0,2.13-.3,1.92,1.92,0,0,0-.64-2.42,1.28,1.28,0,0,0-1.88.33C147.7,215.41,147.92,215.78,148.82,216.68Z"/><path class="cls-2" d="M147.35,211.42a1.77,1.77,0,0,0,.74-.89l-3.18,0a1.25,1.25,0,0,0,.3.61A1.62,1.62,0,0,0,147.35,211.42Z"/><path class="cls-2" d="M153.5,210.51h-3.21a.89.89,0,0,0-.36.78,1.19,1.19,0,0,0,1.46.9,1.52,1.52,0,0,0,.78-.5,1,1,0,0,0,1.38-.12A.93.93,0,0,0,153.5,210.51Z"/><path class="cls-2" d="M139.54,221.08c.76.55,1.49.6,1.84.13a1.25,1.25,0,1,0-2-1.44A1.07,1.07,0,0,0,139.54,221.08Z"/><path class="cls-2" d="M151.16,228.71a1.32,1.32,0,0,0,1.73,0,2,2,0,0,0-.41-2.39,1.25,1.25,0,0,0-1.64.51C150.32,227.59,150.42,228.13,151.16,228.71Z"/><path class="cls-2" d="M140.16,201a1.11,1.11,0,0,0-.79.55c-.19.64.24,1,.83,1.29.48-.22,1-.47.89-1.09A.81.81,0,0,0,140.16,201Z"/><path class="cls-2" d="M141.37,204.72a1.75,1.75,0,0,0,.11,2.15,37.66,37.66,0,0,1,.68-4.42,1,1,0,0,0-.21.14C141.35,203.08,141.75,204,141.37,204.72Z"/><path class="cls-2" d="M140.33,212.79a.33.33,0,0,0-.55,0,.33.33,0,0,0,0,.55.32.32,0,0,0,.52,0A.34.34,0,0,0,140.33,212.79Z"/><path class="cls-2" d="M140.06,216.43c-.2-.09-.46.18-.52.38a.5.5,0,0,0,.31.56.47.47,0,0,0,.52-.29A.64.64,0,0,0,140.06,216.43Z"/><path class="cls-2" d="M170.84,234.28c.06-.07.09-.14.14-.21v-1.76a1.72,1.72,0,0,0-1.68.19,1.7,1.7,0,0,0,.4,1.86A.74.74,0,0,0,170.84,234.28Z"/><path class="cls-2" d="M160,246.91a1.46,1.46,0,0,0-1.07,0c-.32.17-.21.92.17,1.12a1.9,1.9,0,0,0,.77.05C160.35,247.58,160.38,247,160,246.91Z"/><path class="cls-2" d="M163.3,257.31c-.15.2-.43.82,0,1.14s.84-.17,1-.35a.89.89,0,0,0,0-.81A.57.57,0,0,0,163.3,257.31Z"/><path class="cls-2" d="M164.26,240.79c.46-.61.45-1.28,0-1.6a1.83,1.83,0,0,0-2.21.26,1.36,1.36,0,0,0,.46,1.61A1.15,1.15,0,0,0,164.26,240.79Z"/><path class="cls-2" d="M159.38,241a.62.62,0,0,0-.34.53c0,.21.39.3.57.28s.49-.33.44-.59S159.51,240.89,159.38,241Z"/><path class="cls-2" d="M163.55,231a1.8,1.8,0,0,0-.17-2.4,1.83,1.83,0,0,0-2.49.18,1.52,1.52,0,0,0,.33,2.3A1.54,1.54,0,0,0,163.55,231Z"/><path class="cls-2" d="M159.48,244.48a1.07,1.07,0,0,0-.06.9c.12.23,1,.41,1.23.1a.86.86,0,0,0-.15-1.18A.64.64,0,0,0,159.48,244.48Z"/><path class="cls-2" d="M155.68,232c0-.25-.3-.93.2-1.09s1.15.06,1.51-.38,1.23-1.42.84-2.22-1-.28-1.48-.41a1.16,1.16,0,0,0-1.39.69c-.24.62-.16,1.33-.39,1.58s-.58.45-.93.07-1.15-.48-1.9.27-.45,2.1.31,2.23,1-.27,1.21,0,.27.87.78.91S155.68,232.25,155.68,232Z"/><path class="cls-2" d="M155.13,242.55a1.5,1.5,0,0,0,0,2,1.59,1.59,0,0,0,2-.16c.35-.38.14-1.37-.38-1.83A1.11,1.11,0,0,0,155.13,242.55Z"/><path class="cls-2" d="M160.25,235.58c.29-.36.07-1.15-.44-1.6a1.18,1.18,0,0,0-1.62-.07,1.52,1.52,0,0,0,0,1.81A1.64,1.64,0,0,0,160.25,235.58Z"/><path class="cls-2" d="M154.76,237.15c-.62.65-.42,1.74.47,2.55a1.51,1.51,0,0,0,2.14-.09,2,2,0,0,0-.06-2.64A2.07,2.07,0,0,0,154.76,237.15Z"/><path class="cls-2" d="M155.18,250.74c-.12.16-.28.52,0,.75a.58.58,0,0,0,.74-.06c.14-.13.44-.59.16-.9S155.3,250.59,155.18,250.74Z"/><path class="cls-2" d="M173.68,259.19a.72.72,0,0,0-.5.49.74.74,0,0,0,.43.55c.15,0,.66-.15.72-.41S173.87,259.2,173.68,259.19Z"/><path class="cls-2" d="M173.13,253.13a1.83,1.83,0,0,0-.85-.39h-.58a1.57,1.57,0,0,0-1,.61,1.34,1.34,0,0,0,.06,1.93,2.1,2.1,0,0,0,2.64-.07A1.56,1.56,0,0,0,173.13,253.13Z"/><path class="cls-2" d="M171,245.87v-1.82a.74.74,0,0,0-.39,0,.93.93,0,0,0-.45,1.48A1.17,1.17,0,0,0,171,245.87Z"/><path class="cls-2" d="M179,252.74h-1.63a1.68,1.68,0,0,0-.59.47,2,2,0,0,0,.23,2.41,1.77,1.77,0,0,0,2.4-.07,2.59,2.59,0,0,0-.26-2.72A1.19,1.19,0,0,0,179,252.74Z"/><path class="cls-2" d="M167.49,243.78c.43-.55.3-1.11-.37-1.61a.93.93,0,0,0-1.29,0,1.94,1.94,0,0,0,0,2C166.39,244.56,167,244.44,167.49,243.78Z"/><path class="cls-2" d="M170.73,240.06a1.55,1.55,0,0,0,.25.52V239s-.07.09-.09.13l-.08.16a1.54,1.54,0,0,0-.53-1c-.45-.35-1.12-.15-1.64.48a1.33,1.33,0,0,0-.07,1.64,1.72,1.72,0,0,0,2-.06A1.76,1.76,0,0,0,170.73,240.06Z"/><path class="cls-2" d="M164.73,250.11c-.4-.09-1.23.87-.95,1.33a.92.92,0,0,0,1.15.29C165.38,251.41,165.12,250.19,164.73,250.11Z"/><path class="cls-2" d="M166.45,254.12c-.28.35-.22.9.14,1s.91.39,1.14-.07-.16-1-.38-1.18S166.68,253.82,166.45,254.12Z"/><path class="cls-2" d="M167.28,249.55c-.2.68.67,1,1,1s.51-1.6.22-1.88S167.47,248.87,167.28,249.55Z"/><path class="cls-2" d="M148,236.8a1.15,1.15,0,0,0-1.34.08c-.59.7-.67,1.57-.19,1.94a1.62,1.62,0,0,0,1.88-.28A1.49,1.49,0,0,0,148,236.8Z"/><path class="cls-2" d="M137.49,207.26c-.72.2-.67.7-.59.92s-.12.64-.28.44-.48-.22-1,.18a1,1,0,0,0-.3,1.38,1.4,1.4,0,0,0,1.93.36c.65-.43.52-.86,1-1.1s.46-.56.33-1.08S138.21,207.06,137.49,207.26Z"/><path class="cls-2" d="M138.83,227.94A.71.71,0,0,0,139,229a.65.65,0,0,0,1-.05.71.71,0,0,0,.07-1.05A.81.81,0,0,0,138.83,227.94Z"/><path class="cls-2" d="M137.71,213.8a1.27,1.27,0,0,0-1.24.09,1.47,1.47,0,0,0-.71,1.18c0,.5-.12,1.08.22,1.37a.91.91,0,0,0,.76.24,1.38,1.38,0,0,0,.85-.15,1.93,1.93,0,0,0,.87-1.43A1.46,1.46,0,0,0,137.71,213.8Z"/><path class="cls-2" d="M140.69,223.31c-.31-.26-.59-.17-.85.19,0,.12,0,.34.06.42a2,2,0,0,1,.49,1.17c0,.19.5.42.76.41a1.05,1.05,0,0,0,.74-.48c.1-.16,0-.55-.17-.74A8.62,8.62,0,0,0,140.69,223.31Z"/><path class="cls-2" d="M143.37,214.09A1.46,1.46,0,0,0,144.9,213a1.23,1.23,0,0,0-.24-.95,1.73,1.73,0,0,0-2.43-.29,5.46,5.46,0,0,0,0,1.15A1.35,1.35,0,0,0,143.37,214.09Z"/><path class="cls-2" d="M153.5,242a1.05,1.05,0,0,0-.85.1c-.31.23-.16,1,.23,1.11a1.6,1.6,0,0,0,.7,0C153.94,242.65,153.88,242.1,153.5,242Z"/><path class="cls-2" d="M134.19,198.37l-.57-.21a10.49,10.49,0,0,0,.41-1,.87.87,0,0,0-.57-1.25,1.38,1.38,0,0,0-1.58.23,1.23,1.23,0,0,0-.23,1.46,6.71,6.71,0,0,0,.66,1c-.06.18-.15.36-.2.55a1.85,1.85,0,0,0,.61,1.94,2.12,2.12,0,0,0,2.07,0,1.06,1.06,0,0,0,.5-.63A1.69,1.69,0,0,0,134.19,198.37Z"/><path class="cls-2" d="M135.19,224.25a1.32,1.32,0,0,0,.23,1.54.94.94,0,0,0,1.27-.24,1,1,0,0,0-.05-1.32A1.35,1.35,0,0,0,135.19,224.25Z"/><path class="cls-2" d="M135.46,220a1.57,1.57,0,0,0,.58,1.9c.57.44,1.19.27,1.72-.46a1.26,1.26,0,0,0-.18-1.53A2.12,2.12,0,0,0,135.46,220Z"/><path class="cls-2" d="M133.6,203.69c-.46.06-.56.36-.39,1.31a.81.81,0,0,0,1.24-.64A.83.83,0,0,0,133.6,203.69Z"/><path class="cls-2" d="M149.93,246.58c0,.14,0,.26,0,.34s.26,0,.27,0,.13-.27,0-.37S150.06,246.57,149.93,246.58Z"/><path class="cls-2" d="M152.51,235c-.68-.7-1.59-.23-2,0s-.13,1.43.6,1.83a.9.9,0,0,0,1.19-.21A1.37,1.37,0,0,0,152.51,235Z"/><path class="cls-2" d="M150.35,224.54a.93.93,0,0,0-1.3,0,.88.88,0,0,0,.17,1.27.81.81,0,0,0,1.16-.1A.76.76,0,0,0,150.35,224.54Z"/><path class="cls-2" d="M153.19,239.3a1,1,0,1,0-1.48,1.29c.35.28,1.1.1,1.66-.52C153.33,239.89,153.37,239.5,153.19,239.3Z"/><path class="cls-2" d="M149.55,241.06c-.36-.21-1,.13-1.24.36a.69.69,0,0,0,.23,1,.57.57,0,0,0,.91-.23C149.59,242,149.9,241.26,149.55,241.06Z"/><path class="cls-2" d="M132.29,211l-.8.4c-.76-.37-1.57-.38-1.84,0a.83.83,0,0,0,.06,1.05c.49.59.81.63,1.64.24a12.58,12.58,0,0,0,1.65.58.59.59,0,0,0,.66-.89C133.3,211.88,133.05,211.2,132.29,211Z"/><path class="cls-2" d="M142.39,229.09a.69.69,0,0,0,.12,1,1.25,1.25,0,0,0,1.64.12,1.44,1.44,0,0,0,0-1.65C143.73,228.23,142.91,228.46,142.39,229.09Z"/><path class="cls-2" d="M146.24,225a.68.68,0,0,0-1,0c-.57.49-.79,1-.56,1.3a1.53,1.53,0,0,0,1.56.16A1.27,1.27,0,0,0,146.24,225Z"/><path class="cls-2" d="M147.88,246.87c-.36.34,0,1,0,1.46l.27.11a.83.83,0,0,0,.88-.51,1.14,1.14,0,0,0,.22-.77C148.87,247.08,148.24,246.54,147.88,246.87Z"/><path class="cls-7" d="M216.13,201H300.5a0,0,0,0,1,0,0v21.22a0,0,0,0,1,0,0H216.13a10.61,10.61,0,0,1-10.61-10.61v0A10.61,10.61,0,0,1,216.13,201Z"/><path class="cls-8" d="M282.31,207.68a.9.9,0,0,0-.33,1.25.8.8,0,0,0,1.17.17,1,1,0,0,0,.23-1.29l0,0c.13,0,.38,0,.41-.07s.27-.5,0-.71-.57.08-.6.16a.76.76,0,0,0,.06.53A.74.74,0,0,0,282.31,207.68Z"/><path class="cls-8" d="M274,218.48a1.18,1.18,0,0,0,.61-1.5,1.5,1.5,0,0,0-1.69-.64,1.62,1.62,0,0,0-.57,2C272.63,218.75,273.45,218.81,274,218.48Z"/><path class="cls-8" d="M281.23,213a1.05,1.05,0,0,0-.48,1.13c.07.46,0,1.42.59,1.65s.76-.36,1.05-.52a1.67,1.67,0,0,0,.76-1,1.45,1.45,0,0,0,.53-.19,1.25,1.25,0,0,0,.06-1.72c-.5-.73-1.05-.82-1.84-.31A1.57,1.57,0,0,0,281.23,213Z"/><path class="cls-8" d="M272.2,202.25a1.09,1.09,0,0,0,.19-.83.76.76,0,0,0-1.13-.16,1.7,1.7,0,0,0-.21.67C271.42,202.44,272,202.56,272.2,202.25Z"/><path class="cls-8" d="M283.35,217.61a.72.72,0,0,0-.2,1.07,1.19,1.19,0,0,0,.19.2,1,1,0,0,0-.37.29.77.77,0,0,0,.2,1.15,1,1,0,0,0,1.19-.27.77.77,0,0,0,0-.87A1,1,0,0,0,285,218a2.79,2.79,0,0,1,.64.83,1.06,1.06,0,0,0,.81.37,8.21,8.21,0,0,1,1.32.15,1.1,1.1,0,0,0,1.26-.83c.14-.79-.07-1.23-.81-1.38a5.59,5.59,0,0,0-1.29,0l-.25-.66a.92.92,0,0,0-.92-.63c-.56,0-.87.42-1.11.89a.93.93,0,0,0-.06.79A1.25,1.25,0,0,0,283.35,217.61Z"/><path class="cls-8" d="M270.8,206.44c.32-.27.22-1,.07-1.28a.71.71,0,0,0-1.06-.14.58.58,0,0,0-.09.94C269.92,206.18,270.49,206.71,270.8,206.44Z"/><path class="cls-8" d="M294.72,206.57c-.16-.07-.58.16-.74.36a.45.45,0,0,0,.23.76,3,3,0,0,0,.52.07c-.66.37-.75.81-.31,1.57s1,.94,1.46.64a1.9,1.9,0,0,0,.59-1.12,1.58,1.58,0,0,0,.62,1,1.15,1.15,0,0,0,1.18-.18,1.43,1.43,0,0,0,.52,1.73,1.24,1.24,0,0,0,1,.09,1.88,1.88,0,0,0,.73-.51v-1.84a2.7,2.7,0,0,0-.72-.26,1.41,1.41,0,0,0-1,.2c.36-.72.28-1.23-.27-1.56a1.57,1.57,0,0,0-1.93.4,1.34,1.34,0,0,0-.07.18.25.25,0,0,0,0-.09,1,1,0,0,0-1-.5C295.52,207.22,295,206.69,294.72,206.57Z"/><path class="cls-8" d="M297.38,216.7a1,1,0,0,0,.89-1.69,1,1,0,0,0-1.24.45A.92.92,0,0,0,297.38,216.7Z"/><path class="cls-8" d="M289.26,207.08c-.3-.14-.93.37-1.17.61s0,.82.39,1a.89.89,0,0,0,.55.07.38.38,0,0,0,.09.25,1.55,1.55,0,0,0,1.57.09,1.28,1.28,0,0,0,0-1.44.69.69,0,0,0-1,0l-.16.18C289.48,207.52,289.45,207.17,289.26,207.08Z"/><path class="cls-8" d="M297.18,205.73c.15-.16,0-.5-.18-.62a.47.47,0,0,0-.63.11.46.46,0,0,0,.1.58A.66.66,0,0,0,297.18,205.73Z"/><path class="cls-8" d="M267.76,208.91a1.1,1.1,0,0,0,.52-1.51,1.5,1.5,0,0,0-1.85-.67,1.61,1.61,0,0,0-.53,1.94A1.56,1.56,0,0,0,267.76,208.91Z"/><path class="cls-8" d="M291.87,222.13a2.26,2.26,0,0,0,.63-2.6,1.32,1.32,0,0,0-.78-.5,1,1,0,0,0-.11-1,.92.92,0,0,0-1.25-.29,1.08,1.08,0,0,0-.19,1.4l.12.13-.09.08a1.27,1.27,0,0,0-1.18.54,1.41,1.41,0,0,0,.68,1.63,2.1,2.1,0,0,0,.24.06,1.93,1.93,0,0,0,1,.61h.65A.87.87,0,0,0,291.87,222.13Z"/><path class="cls-8" d="M266.48,218.64a1.15,1.15,0,0,0-.34,1.76c.42.64,1.05.85,1.51.52a1.81,1.81,0,0,0,.49-2.17A1.35,1.35,0,0,0,266.48,218.64Z"/><path class="cls-8" d="M269.27,213.3c.83.29.21.93,1.4,1.25s2.19-.52,1.93-1.35-1-.94-1-1.14.23-1.12-.44-1.29c-1.42-.36-1.42,1-1.87,1s-1.24-.47-1.91-.5c-.94,0-1.81.48-1.73,1.48a1.61,1.61,0,0,0,1.77,1.63C268.72,214.36,268.44,213,269.27,213.3Z"/><path class="cls-8" d="M264.09,215.68a.64.64,0,0,0,.17-1,1.12,1.12,0,0,0-.83-.36c-.26,0-.72.79-.5,1.14A.85.85,0,0,0,264.09,215.68Z"/><path class="cls-8" d="M287.85,202.23a1.41,1.41,0,0,0,.71.14,1.54,1.54,0,0,0-.66,1.4,1.31,1.31,0,0,0,1.35.52.68.68,0,0,0,.37-1c-.25-.64-.61-1-.94-1a1.63,1.63,0,0,0,1.11-.83,1.2,1.2,0,0,0,.11-.47h-2.78A1.17,1.17,0,0,0,287.85,202.23Z"/><path class="cls-8" d="M273.21,201.54c.35.38,1,.16,1.25,0a.42.42,0,0,0,.24-.51h-1.58A.46.46,0,0,0,273.21,201.54Z"/><path class="cls-8" d="M265.87,202.93c-.2-.45-1-.33-1.37-.46a2.09,2.09,0,0,0-.2.22.83.83,0,0,0,.18,1,1.23,1.23,0,0,0,.65.47C265.35,203.79,266.07,203.39,265.87,202.93Z"/><path class="cls-8" d="M250.31,221.68a1.92,1.92,0,0,0-.55.55h2.37A1.34,1.34,0,0,0,250.31,221.68Z"/><path class="cls-8" d="M297.36,213.21a2.84,2.84,0,0,0-.5-.93c-.39-.34-1.05-.05-1.3.47a.82.82,0,0,0,.45,1.09A1.1,1.1,0,0,0,297.36,213.21Z"/><path class="cls-8" d="M261.79,214.37a1.53,1.53,0,0,0,.34-1c-.05-.36-.8-.51-1.11-.21a1.84,1.84,0,0,0-.31.7C261,214.44,261.54,214.65,261.79,214.37Z"/><path class="cls-8" d="M260.7,221.1a1.81,1.81,0,0,0,2.13.09.73.73,0,0,0,.34-.93,5.24,5.24,0,0,0-1.93-2.36,1.61,1.61,0,0,0-.47-.12,1.15,1.15,0,0,0-1.17,1.75A6.83,6.83,0,0,0,260.7,221.1Z"/><path class="cls-8" d="M258.6,216.85c-.21,0-.42.27-.46.44s.15.58.41.62.44-.42.43-.56A.62.62,0,0,0,258.6,216.85Z"/><path class="cls-8" d="M265,205.11c.09.08.21.22.34.17s.05-.2.09-.32c-.14,0-.24-.12-.33-.09S265,205.09,265,205.11Z"/><path class="cls-8" d="M259.69,209.42c.39-.16.2-.74.1-.9s-.39-.44-.69-.27a.58.58,0,0,0-.2.72C259,209.14,259.31,209.58,259.69,209.42Z"/><path class="cls-8" d="M298.55,201.3l.11,0a.47.47,0,0,0,0,.16,1.93,1.93,0,0,0,1.05,1.29,1.59,1.59,0,0,0,.77.06v-1.71h-2.87A.88.88,0,0,0,298.55,201.3Z"/><path class="cls-8" d="M278.59,221.23a1.51,1.51,0,0,0-2.27-.45,1.72,1.72,0,0,0-.94,1.45h3.42A1.61,1.61,0,0,0,278.59,221.23Z"/><path class="cls-8" d="M274,204.24a1.64,1.64,0,0,0-.36,1.87,1.49,1.49,0,0,0,1.76.25,1.13,1.13,0,0,0,.36-1.29C275.26,204.28,274.46,203.91,274,204.24Z"/><path class="cls-8" d="M283,202.38a1.21,1.21,0,0,0,1.76.44,1.43,1.43,0,0,0,.73-1.76h-2.77A2.23,2.23,0,0,0,283,202.38Z"/><path class="cls-8" d="M254.52,216.56c.15.53,1.39.69,1.6.34s-.4-1.44-.93-1.33A.92.92,0,0,0,254.52,216.56Z"/><path class="cls-8" d="M276.23,217.79c-.38,0-.5.59-.32,1s.65.53.94.3.63-.54.43-.89S276.57,217.77,276.23,217.79Z"/><path class="cls-8" d="M274.21,209.26a.9.9,0,0,0-.2,1.19c.28.58,1,1,1.48.8.89-.41.75-1.42.65-1.94S274.83,208.71,274.21,209.26Z"/><path class="cls-8" d="M296.15,220.71a1.18,1.18,0,0,0-.07.2,2,2,0,0,0-.35-.31,1,1,0,0,0-1.44.24c-.26.44-.47.91-.7,1.39h5.24l.21-.31a1.35,1.35,0,0,0-.37-1.87,1.18,1.18,0,0,0,.19-.73,1.28,1.28,0,0,0,.71-.47c.28-.44.09-.82-.1-1.21s-.24-.76-.75-.9-1.26.44-1.34,1.07a1.63,1.63,0,0,0,.22.91,1,1,0,0,0-.43,1.15A1.71,1.71,0,0,0,296.15,220.71Z"/><path class="cls-8" d="M250.6,214.86a.57.57,0,0,0,.29-.88c-.14-.21-.63-.67-1.08-.37s-.12.85,0,1A.88.88,0,0,0,250.6,214.86Z"/><path class="cls-8" d="M270.78,221.81a2.23,2.23,0,0,0-.5.42h2.34A1.46,1.46,0,0,0,270.78,221.81Z"/><path class="cls-8" d="M257.26,221.79c.37-.18.19-1.06-.38-1.47s-1.22.29-1.32.63S256.9,222,257.26,221.79Z"/><path class="cls-8" d="M256.05,204.09c.32-.22.09-.57,0-.71a.57.57,0,0,0-.56-.07.62.62,0,0,0-.13.59A.49.49,0,0,0,256.05,204.09Z"/><path class="cls-8" d="M256.32,208.67c-.6.29-.89.69-.35,1.33s1.58-.05,1.58-.46S256.74,208.46,256.32,208.67Z"/><path class="cls-8" d="M277.32,213.12c-.26.08-.91,0-1.11.43s.84,1.61,1.09,1.7,1,0,.95.56-.43,1.06-.14,1.54.93,1.64,1.82,1.53.59-.83.88-1.25a1.17,1.17,0,0,0-.19-1.54c-.51-.43-1.2-.6-1.36-.9s-.23-.7.25-.89.83-.93.37-1.89-1.83-1.13-2.2-.45S277.59,213,277.32,213.12Z"/><path class="cls-8" d="M284.61,220.73a2.62,2.62,0,0,0-1.14,1.5h4.64a2,2,0,0,0-.42-1.26A2.67,2.67,0,0,0,284.61,220.73Z"/><path class="cls-8" d="M300.22,206.48a.33.33,0,0,0-.2.48c.09.24.23.33.48.24v-.76A.49.49,0,0,0,300.22,206.48Z"/><path class="cls-8" d="M293.39,214.74a1.38,1.38,0,0,0-1.18,1.08.9.9,0,0,0,.76,1,.89.89,0,0,0,1.07-.39,2.18,2.18,0,0,0,2-.18,1.28,1.28,0,0,0,.32-1.89c-.81-1-1.22-1-2.38-.42A1.18,1.18,0,0,0,293.39,214.74Z"/><path class="cls-8" d="M299.47,214.27a1.72,1.72,0,0,0,1,1.24v-3.19h-.07A1.64,1.64,0,0,0,299.47,214.27Z"/><path class="cls-8" d="M300.15,217.86a2.41,2.41,0,0,0,.35,2v-2.28A.71.71,0,0,0,300.15,217.86Z"/><path class="cls-8" d="M299.56,221.91a2,2,0,0,0,0,.32h1V220.8A1.64,1.64,0,0,0,299.56,221.91Z"/><path class="cls-8" d="M277.56,208.92a.87.87,0,0,0,1.18.22.79.79,0,0,0,.36-1.12.88.88,0,0,0-1.23-.37A1,1,0,0,0,277.56,208.92Z"/><path class="cls-8" d="M279,202.64a1.51,1.51,0,0,0-.63,2.05,2,2,0,0,0,2.51.83,2.07,2.07,0,0,0,.67-2.47C281.14,202.25,280.05,202.07,279,202.64Z"/><path class="cls-8" d="M294.15,202.32a1.77,1.77,0,0,0,.08,1.57,1.09,1.09,0,0,0-1.26-.21c-.77.53-1.06,1.2-.74,1.69a1.24,1.24,0,0,0,2.11-1.31,1.29,1.29,0,0,0,.34.32,1.75,1.75,0,0,0,2.29-.21,2.24,2.24,0,0,0-.5-2.62,1.76,1.76,0,0,0-1.26-.12,2.65,2.65,0,0,0,.12-.37h-2.46a1.78,1.78,0,0,0,.32.81A1.26,1.26,0,0,0,294.15,202.32Z"/><path class="cls-8" d="M285.3,211.23a.79.79,0,0,0-.3,1.13.77.77,0,0,0,1.11.35.93.93,0,0,0,.44-1.22A.88.88,0,0,0,285.3,211.23Z"/><path class="cls-8" d="M286,208.54c-.41.49-.13.94.28,1.29.72-.05,1.08-.37,1.08-1.18C286.88,208.32,286.4,208,286,208.54Z"/><path class="cls-8" d="M287.37,213.56a1,1,0,0,0,1.18-.12v0a1.78,1.78,0,0,0-.5,2.16,1.74,1.74,0,0,0,2.49.67,1.36,1.36,0,0,0,.62-1.67.51.51,0,0,0,.18-.09,1.75,1.75,0,0,0,.35-2.21,1.85,1.85,0,0,0-2.25-.59,1.87,1.87,0,0,0-.74.86.82.82,0,0,0-.32-.46,1.12,1.12,0,0,0-1.31.25A.89.89,0,0,0,287.37,213.56Z"/><path class="cls-1" d="M325,244.61a26,26,0,0,1-26-26v-11a26,26,0,0,1,51.94,0v11A26,26,0,0,1,325,244.61Zm0-48a11,11,0,0,0-11,11v11a11,11,0,1,0,22,0v-11A11,11,0,0,0,325,196.63Z"/><path class="cls-3" d="M196.17,279.13l.37.1s.28.06.1,0,.4.1.51.11.46,0,.68,0c1.31.08,2.61.15,3.92.17,4.4.06,8.87.33,13.27.08,1.3-.07,2.56-.36,3.87-.39s2.72,0,4.09,0c2.68.06,5.36.14,8,.18,4.63.06,9.25.11,13.88.1,2.3,0,4.6.06,6.91.13a1.36,1.36,0,0,0,1.34-1.34c.09-3.27.1-6.54.13-9.81,0-2.2,0-4.39-.13-6.58,0-.74-.05-1.49-.13-2.22,0-.27-.08-.54-.13-.8-.09-.49,0-.5,0,0a1.08,1.08,0,0,0-2.15,0c0-.53.08-.52,0,0,0,.26-.1.53-.13.8-.08.73-.09,1.48-.14,2.22-.13,2.19-.14,4.38-.12,6.58,0,3.27,0,6.54.13,9.81l1.34-1.34c-6.29.17-12.58.11-18.86.19-2.66,0-5.32.09-8,.15a42.64,42.64,0,0,1-8-.07,44,44,0,0,0-7.53-.26c-2.11,0-4.21,0-6.32.06-1.65,0-3.29.05-4.93.16l-.77.05c-.11,0-.23,0-.34,0s-.61.14-.43.09l-.49.13a.83.83,0,0,0,0,1.59Z"/><path class="cls-3" d="M252.22,198.82c.81-.42.8-1.74.83-2.52s.07-1.52.07-2.29a12.71,12.71,0,0,0,0-1.38,2.33,2.33,0,0,0-.29-.89c-.07-.11-.24-.51-.16-.2s0-.31,0-.3c.14-2.15.34-4.3.33-6.46,0-1.93.2-3.84.25-5.76,0-1.05.09-2.71-.71-3.55l.31.76h0a1.08,1.08,0,0,0-2.15,0h0l.32-.76a4.68,4.68,0,0,0-.72,3c0,1.91.27,3.83.26,5.74,0,2.24.27,4.45.32,6.68a3.38,3.38,0,0,1,0,.71c.06-.34.07-.2,0,0a1.68,1.68,0,0,0-.15.3,4.27,4.27,0,0,0-.19,1.78c0,.81,0,1.61.07,2.42s.17,3.42,1.66,2.65Z"/><path class="cls-3" d="M99.46,156.43l-.12.49c0-.22-.09.48-.1.77s0,.56,0,.84c-.09,1.71-.09,3.41-.09,5.13,0,2.6,0,5.21.06,7.81a35.49,35.49,0,0,0,.21,4.61,28.92,28.92,0,0,1,.34,4.74c-.06,7-.13,14,0,21,.1,6.12,0,12.24,0,18.36,0,2.28,0,4.55.23,6.82l.15,2c0,.09.08.64,0,.12a3.54,3.54,0,0,0,.07.47c0,.08,0,.17,0,.25a1.2,1.2,0,0,0,.55.88l-.53-.93v.07a1.08,1.08,0,0,0,2.15,0v-.07l-.53.93c.91-.51.69-2.34.73-3.2.09-1.82.13-3.64.09-5.46-.12-5.86-.44-11.71-.52-17.57-.09-7-.29-14-.56-21-.06-1.7-.13-3.39-.11-5.09s.34-3.17.32-4.8c0-2.71-.07-5.42-.15-8.13-.06-2.15-.08-4.31-.26-6.46a13,13,0,0,0-.27-2.16c.08.32,0-.24-.09-.39a.83.83,0,0,0-1.59,0Z"/><path class="cls-3" d="M234.11,155.5c-5.56-.84-11.43-.44-17.05-.48-4.05,0-8.11,0-12.16,0-4.52,0-9,.5-13.51.45q-15.1-.16-30.22-.25c-5,0-9.94.05-14.91,0s-9.7-.17-14.55-.18l-14.59,0a116.23,116.23,0,0,0-12.38.45,1.08,1.08,0,0,0,0,2.15c7.81.79,15.82.35,23.66.3,9.7-.07,19.39-.28,29.09-.29,10.14,0,20.28-.2,30.42-.35,2.35,0,4.7-.07,7.05,0s4.5.33,6.76.39c4.2.12,8.42,0,12.62,0,3.83,0,7.66-.08,11.48-.11a60.27,60.27,0,0,0,8.29-.44.83.83,0,0,0,0-1.59Z"/><polygon class="cls-3" points="277 274.49 277 294.11 296.62 294.11 277 274.49"/><rect class="cls-9" x="239.6" y="155.07" width="12.13" height="12.13" transform="translate(491.32 322.28) rotate(180)"/><rect class="cls-10" x="100.37" y="261.91" width="90.93" height="36.36"/><circle class="cls-1" cx="83.88" cy="281.07" r="6.67"/><circle class="cls-4" cx="115.24" cy="281.07" r="6.67"/><circle class="cls-4" cx="144.59" cy="281.07" r="6.67"/><circle class="cls-4" cx="173.94" cy="281.07" r="6.67"/><path class="cls-3" d="M253.08,119.25c.73-3.84.29-8-.25-11.81a57.44,57.44,0,0,0-2.63-10.89,37.24,37.24,0,0,0-2.11-5.2c-.87-1.65-1.86-3.24-2.79-4.85a80.17,80.17,0,0,0-5.89-8.94A74.36,74.36,0,0,0,204.34,53c-7.27-2.4-15.42-4.11-23.09-3.06-1.12.15-.74,1.78.25,1.86,6.7.53,13.24,1,19.75,2.89A71.27,71.27,0,0,1,220.12,63,75.65,75.65,0,0,1,236,76.36a65.84,65.84,0,0,1,6.39,8.39A55.91,55.91,0,0,1,247,94.51a63.91,63.91,0,0,1,3.38,11.65c.81,4.29.77,8.6,1.3,12.9.09.73,1.25,1.07,1.42.19Z"/><path class="cls-3" d="M93.88,297.32c-3.42-.7-7.13-.44-10.61-.48-5.61-.06-11.3-.34-16.87.29a37.34,37.34,0,0,1-3.82.09l.89.89c-.08-4,.13-8,.21-12,.11-6.29.13-12.58.12-18.87,0-1.48,0-3,0-4.44a1.25,1.25,0,0,0-.6-1.05,1.22,1.22,0,0,1,.24,1.87s-.69.44-.35.25c.16-.1.18,0-.11,0l.36,0c.35,0,.7,0,1.06-.06,4.31-.16,8.65,0,13,.07,5.39.07,10.93.51,16.29-.11,1.09-.13,1.6-1.91.29-2.12-5.33-.85-10.89-.65-16.28-.67-3.1,0-6.19,0-9.29.12-1.49.05-3,.1-4.47.25a7.1,7.1,0,0,0-1.59.23c-.94.34-1.42,1.76-.35,2.3l-.6-1.05c.09,4,0,8,0,12q.09,9.43.25,18.87c0,1.48.1,3,.07,4.44a.89.89,0,0,0,.88.88c3.56.07,7.07.43,10.63.43,5.56,0,11.16.12,16.71-.16a24.92,24.92,0,0,0,4-.36.83.83,0,0,0,0-1.58Z"/><rect class="cls-11" x="251.72" y="132.98" width="22.09" height="22.09"/><path class="cls-5" d="M92.76,106.67A10.65,10.65,0,1,1,103.41,96a10.66,10.66,0,0,1-10.65,10.65m0-16.3A5.66,5.66,0,1,0,98.42,96a5.65,5.65,0,0,0-5.66-5.65"/><path class="cls-3" d="M116.05,34.47h-5.56v-4h5.57V25h4v5.49h5.57v4h-5.58v5.4h-4Z"/><path class="cls-12" d="M186.26,105.46a2.28,2.28,0,0,0-1.51-.63c-.48,0-.72.08-.85.27a23.28,23.28,0,0,1,2.53.8A.49.49,0,0,0,186.26,105.46Z"/><path class="cls-12" d="M185,102.35a1.26,1.26,0,0,0,1.31,1.22,15.34,15.34,0,0,1,2.36.19c.63.15,1.46-.14,1.53-.57s-.51-.89-.72-.88c-.59,0-.63-.4-.91-.68a2.48,2.48,0,0,0-1-.51,2.21,2.21,0,0,0-.73,0,6.45,6.45,0,0,0-.73.11C185.33,101.34,185,101.72,185,102.35Z"/><path class="cls-12" d="M183.33,101.92a.89.89,0,0,0-.72.24.74.74,0,0,0,0,1.06c.4.42,1,.14,1.26-.08S183.94,102.08,183.33,101.92Z"/><path class="cls-12" d="M188.06,97.13c.6-.56.77-1.29.4-1.67a1.34,1.34,0,0,0-1.66,0,1.19,1.19,0,0,0,0,1.54A1,1,0,0,0,188.06,97.13Z"/><path class="cls-12" d="M205.75,121.33c-.39.42-.29,1,.26,1.47a.87.87,0,0,0,1.23.12,1.69,1.69,0,0,0,.09-1.77A1,1,0,0,0,205.75,121.33Z"/><path class="cls-12" d="M192.71,109.63a.92.92,0,0,0-.07-.64.8.8,0,0,0-.08-.16.78.78,0,0,0,.35-.18,3.47,3.47,0,0,0,.43-.81l0,0-.84-.8a4.29,4.29,0,0,0-.65.41.85.85,0,0,0-.28.78,1,1,0,0,0-.47.15C191.67,108.79,192.2,109.2,192.71,109.63Z"/><path class="cls-12" d="M208.38,117.81a1.54,1.54,0,0,0,0,1.7c-.1.34-.08.74.09.85s1.06-.23,1.17-.65c.07-.06.15-.11.22-.18a1.07,1.07,0,0,0,0-1.6A1.1,1.1,0,0,0,208.38,117.81Z"/><path class="cls-12" d="M208.08,122.12c-.12,0-.5.13-.54.35s.36.4.49.39a.54.54,0,0,0,.44-.33C208.51,122.34,208.23,122.16,208.08,122.12Z"/><path class="cls-12" d="M199.66,108.93c-.66-.56-1.15-.61-1.57-.15a1.31,1.31,0,0,0,.16,1.54,1.48,1.48,0,0,0,1.56-.28A.75.75,0,0,0,199.66,108.93Z"/><path class="cls-12" d="M206.33,117.43a1.37,1.37,0,0,0-.15-1.56,1,1,0,0,0-1.25-.05c-.6.62-.74,1.39-.34,1.76A1.52,1.52,0,0,0,206.33,117.43Z"/><path class="cls-12" d="M200.11,119.45a1.26,1.26,0,0,0,1.64-.12,1.34,1.34,0,0,0,0-1.72,1.32,1.32,0,0,0-1.72-.09A1.8,1.8,0,0,0,200.11,119.45Z"/><path class="cls-12" d="M211.44,105.5c.11-.14.3-.43.14-.55a.54.54,0,0,0-.55,0c-.12.09-.31.52-.14.64A.5.5,0,0,0,211.44,105.5Z"/><path class="cls-12" d="M195.58,112.51a.54.54,0,0,0,.42-.46,1.43,1.43,0,0,1,0-.22,1.5,1.5,0,0,0,.82-.23,1.7,1.7,0,0,0,.54-2,1.53,1.53,0,0,0-2-.66,1.25,1.25,0,0,0-.4.47.5.5,0,0,0-.21.5,2.1,2.1,0,0,0-.06,1.18c0,.11-.1.23-.15.34C194.93,111.74,195.26,112.12,195.58,112.51Z"/><path class="cls-12" d="M200.16,106.11a2.65,2.65,0,0,1-.61-.36,1.16,1.16,0,0,0-1.53-.13c-.5.34-.54.82.12,1.42a14,14,0,0,0,1.62.56.71.71,0,0,0,.89-.56A.74.74,0,0,0,200.16,106.11Z"/><path class="cls-12" d="M202.75,103.83a1.28,1.28,0,0,0-.61.75.37.37,0,0,0,.36.47.83.83,0,0,0,.57-.39c.15-.18.34-.32.35-.58S203.06,103.68,202.75,103.83Z"/><path class="cls-12" d="M203.09,111.11a.61.61,0,0,0,.56-.24.64.64,0,0,0-.18-.59.7.7,0,0,0-.72.12C202.61,110.6,203,111.05,203.09,111.11Z"/><path class="cls-12" d="M201.05,113.44a.86.86,0,0,0,.08,1.29.71.71,0,0,0,.64.12,1.35,1.35,0,0,0-.06,1.41,1.48,1.48,0,0,0,2.08.57,1.18,1.18,0,0,0,.53-1.61,1.91,1.91,0,0,0-2-.82c.18-.28.33-.57.08-.8C201.85,113.16,201.34,113.13,201.05,113.44Z"/><path class="cls-12" d="M197.3,113.3a1.32,1.32,0,0,0,.07,1.57c.28.29,1.08.15,1.41-.24a.7.7,0,0,0-.18-1C198.05,113.13,197.59,113,197.3,113.3Z"/><path class="cls-12" d="M199.53,86.25a.48.48,0,0,0,0-.55.46.46,0,0,0-.54,0c-.11.09-.28.5-.14.64S199.44,86.35,199.53,86.25Z"/><path class="cls-12" d="M198,90.11c-.2.3-.3.64,0,.82s.93.38,1.15.15-.2-.87-.39-1.08S198.23,89.77,198,90.11Z"/><path class="cls-12" d="M198.32,96c.48.41,1,.3,1.53-.32a1.09,1.09,0,0,0-.07-1.34,1.87,1.87,0,0,0-1.86,0A1.38,1.38,0,0,0,198.32,96Z"/><path class="cls-12" d="M207.65,111.35a1.12,1.12,0,0,0,1.45,0,1.44,1.44,0,0,0,0-1.68c-.31-.28-1.19,0-1.62.41A.94.94,0,0,0,207.65,111.35Z"/><path class="cls-12" d="M181.14,92.52c.58.52,1.06.58,1.47.15a1.37,1.37,0,0,0,0-1.73,1.47,1.47,0,0,0-1.75.07A1.17,1.17,0,0,0,181.14,92.52Z"/><path class="cls-12" d="M180.88,78.32a1.15,1.15,0,0,0,.61-1.25.85.85,0,0,0-.24-.55q-1.12-.06-2.25-.06c-.23.44.2.66.27.92C179.46,78.1,180.35,78.62,180.88,78.32Z"/><path class="cls-12" d="M209.73,115a.89.89,0,0,0,0,1.15.93.93,0,0,0,1.23-.11.65.65,0,0,0,.16-.32c.19-.17.47-.53.24-.87s-.6-.18-.8-.06A.75.75,0,0,0,209.73,115Z"/><path class="cls-12" d="M179.73,82a.76.76,0,1,0,1,1.15,1,1,0,0,0,.06-1.17A.78.78,0,0,0,179.73,82Z"/><path class="cls-12" d="M208.67,101.08a.44.44,0,0,0,0-.72c-.28-.23-.61-.36-.93,0a.84.84,0,0,0,0,1.06C207.88,101.56,208.37,101.42,208.67,101.08Z"/><path class="cls-12" d="M212.26,107.61a.82.82,0,0,0,1.13-.16.76.76,0,0,0-.15-1.12c-.39-.35-.81-.39-1-.11A1.31,1.31,0,0,0,212.26,107.61Z"/><path class="cls-12" d="M214.49,105.92a.25.25,0,0,0,0,.34.26.26,0,0,0,.33,0,.28.28,0,0,0-.06-.29A.22.22,0,0,0,214.49,105.92Z"/><path class="cls-12" d="M210.94,121.06a.79.79,0,0,0-.05,1.13.62.62,0,0,0,1,.06.76.76,0,1,0-.95-1.19Z"/><path class="cls-12" d="M213.18,114.92c-.22.29-.38.6-.07.93s1.07.1,1.15-.15-.1-.55-.28-.78A.48.48,0,0,0,213.18,114.92Z"/><path class="cls-12" d="M203,106.52a.81.81,0,0,0,0,1,.79.79,0,0,0,1.13,0,.63.63,0,0,0,0-1A.77.77,0,0,0,203,106.52Z"/><path class="cls-12" d="M215.37,122.88c-.15.06-.54.35-.4.69s.64.18.79.09.39-.34.24-.6A.5.5,0,0,0,215.37,122.88Z"/><path class="cls-12" d="M215.31,104.25c.09-.1,0-.5-.14-.64s-.39-.07-.42,0a.65.65,0,0,0-.06.52C214.76,104.22,215.21,104.35,215.31,104.25Z"/><path class="cls-12" d="M214.89,121.69a.59.59,0,0,0,.25-.09.63.63,0,0,0,.16.24.87.87,0,0,0,1.23,0,.86.86,0,0,0-.08-1.14.93.93,0,0,0-.79-.11c-.25-.52-.59-.78-1.16-.31S214.52,121.68,214.89,121.69Z"/><path class="cls-12" d="M179.44,101c.42.28.7.09.93-.25a2.1,2.1,0,0,1,.6-.68c.59-.31,1.22-.53,1.88-.8,1.14,1.18,1.7,1.18,2.46-.07a1.1,1.1,0,0,0-.67-1.7,9.24,9.24,0,0,0-2,0c-.38-.63-.88-1.32-1.76-1.23a2,2,0,0,0-1.49,2.59.82.82,0,0,1-.24.88A1,1,0,0,0,179.44,101Z"/><path class="cls-12" d="M179.45,102.13a.93.93,0,0,0,0,1.31,1,1,0,0,0,1.33-.1,1,1,0,0,0-.2-1.41A.83.83,0,0,0,179.45,102.13Z"/><path class="cls-12" d="M184.43,95.32a.88.88,0,0,0-.16.74.66.66,0,0,0,.49.4c.52,0,.72-.35.75-.87C185.19,95.32,184.86,95,184.43,95.32Z"/><path class="cls-12" d="M185.52,79.65c-.07,0-.13.37-.07.42s.37.34.6.18,0-.5,0-.54A.69.69,0,0,0,185.52,79.65Z"/><path class="cls-12" d="M183.22,90c.23.2.83-.2,1-.38s0-.53-.16-.7a.39.39,0,0,0-.69,0C183.24,89.23,183,89.84,183.22,90Z"/><path class="cls-12" d="M183.68,83.91c-.21.29-.27.64.06.82s.95.4,1.13.17-.12-.86-.28-1.12S183.9,83.61,183.68,83.91Z"/><path class="cls-12" d="M189.43,98.77a1.28,1.28,0,0,0,.22,1.79,1.33,1.33,0,0,0,1.73-.24,1.25,1.25,0,0,0-1.95-1.55Z"/><path class="cls-12" d="M186.08,90.07a1.52,1.52,0,0,0-.28,2,1.94,1.94,0,0,0,2.33.1,1.52,1.52,0,0,0,0-2A1.5,1.5,0,0,0,186.08,90.07Z"/><path class="cls-12" d="M190.7,89.3a.79.79,0,0,0-.16,1.13,1.32,1.32,0,0,0,1.66.09.93.93,0,0,0,0-1.25A1.16,1.16,0,0,0,190.7,89.3Z"/><path class="cls-12" d="M190.32,92.44a.82.82,0,0,0-.65.85.63.63,0,0,0,.21.46,8.29,8.29,0,0,0,1.16.39c.37.92,1,1.4,1.53,1.19a1.64,1.64,0,0,0,.72-1.82c-.24-.64-.62-.7-1.92-.27C191.15,92.75,191,92.22,190.32,92.44Z"/><path class="cls-12" d="M188.37,78.07a.82.82,0,0,0,.83.67.63.63,0,0,0,.71-.48.87.87,0,0,0,0-.51c-.44-.1-.87-.21-1.32-.3A.6.6,0,0,0,188.37,78.07Z"/><path class="cls-12" d="M219.85,119.82c-.11.07-.37.34-.18.61s.5.09.63,0a.51.51,0,0,0,.07-.49A.57.57,0,0,0,219.85,119.82Z"/><path class="cls-12" d="M182,103.75a.66.66,0,0,0-.84.45c0,.11,0,.24,0,.37.54.07,1.07.16,1.6.26C182.73,104.29,182.62,103.87,182,103.75Z"/><path class="cls-12" d="M178.88,90.34h0a.74.74,0,0,0,0-1.08Z"/><path class="cls-12" d="M212.64,94.21c.18.13.57.25.71.14s.15-.56,0-.72-.68-.36-.83-.21S212.53,94.13,212.64,94.21Z"/><path class="cls-12" d="M219.51,117.13c.28-.29-.21-1.13-.46-1.36a.89.89,0,0,0-1.05,0c-.28.28,0,.88.19,1.17S219.23,117.43,219.51,117.13Z"/><path class="cls-12" d="M206.11,123.37a6.07,6.07,0,0,0-.93.59h2.39A1,1,0,0,0,206.11,123.37Z"/><path class="cls-12" d="M217.74,110.49a.54.54,0,0,0,0-.52.5.5,0,0,0-.5,0c-.1.09-.32.48-.12.62A.58.58,0,0,0,217.74,110.49Z"/><path class="cls-12" d="M195.5,92.09a.89.89,0,0,0,0,1.15.94.94,0,0,0,1.24-.11.74.74,0,0,0-.07-1A.8.8,0,0,0,195.5,92.09Z"/><path class="cls-12" d="M201.59,99.32a1.45,1.45,0,0,0,.23,2.13,1.33,1.33,0,0,0,2,0,1.66,1.66,0,0,0-.05-2.2A1.73,1.73,0,0,0,201.59,99.32Z"/><path class="cls-12" d="M204.84,104.29a.7.7,0,0,0,.95,0c.27-.2.2-1.07-.1-1.17a.87.87,0,0,0-.8.15A.63.63,0,0,0,204.84,104.29Z"/><path class="cls-12" d="M204,110.57a.74.74,0,0,0-.34.64,1.2,1.2,0,0,0,.61.74c.59.2.72-.36,1-.78C204.9,110.67,204.54,110.3,204,110.57Z"/><path class="cls-12" d="M205,88.44a.47.47,0,0,0,0,.8c.21.15.85.37,1,.2s0-.79-.14-1S205.32,88.14,205,88.44Z"/><path class="cls-12" d="M205,97.33a.64.64,0,0,0-.06.52.46.46,0,0,0,.62.12c.25-.2,0-.5-.14-.63S205,97.26,205,97.33Z"/><path class="cls-12" d="M205.75,106.25c-.23.3-.06.52.15.71a.53.53,0,0,0,.87-.06c.12-.24.26-.53.13-.74A.93.93,0,0,0,205.75,106.25Z"/><path class="cls-12" d="M201.87,123.44a1.09,1.09,0,0,0-.74-.61.9.9,0,0,0-.72.38c0,.24.09.48.12.73h1.34A.78.78,0,0,0,201.87,123.44Z"/><path class="cls-12" d="M204.91,119.83c-.17,0-.42.31-.6.69a.85.85,0,0,0-1,.22.79.79,0,0,0,.2,1.11.68.68,0,0,0,1-.1.86.86,0,0,0,.14-.29,1.26,1.26,0,0,0,.76-.48C205.81,120.48,205.21,119.92,204.91,119.83Z"/><path class="cls-12" d="M195,99.06a.8.8,0,0,0,.82.67.62.62,0,0,0,.71-.48c.17-.59-.2-.89-.69-1.2C195.4,98.32,194.88,98.46,195,99.06Z"/><path class="cls-12" d="M189.25,106.5a1.92,1.92,0,0,0,0-1.7c-.35-.37-1.1-.24-1.6.28s-.41.91.16,1.43c.19.09.39.17.58.27A.91.91,0,0,0,189.25,106.5Z"/><path class="cls-12" d="M194.74,89.65a.24.24,0,0,0,0,.34.25.25,0,0,0,.32,0s0-.25-.06-.29A.24.24,0,0,0,194.74,89.65Z"/><path class="cls-12" d="M192.29,97.65a1.71,1.71,0,0,0,.17,1.57c.31.32.74.24,1.17-.23s.53-.94.15-1.28A1,1,0,0,0,192.29,97.65Z"/><path class="cls-12" d="M193.47,100.53a2.67,2.67,0,0,0-.45,1.81c0,.51.61.69.14,1.06s-1.35,1.27-.55,2.06a1.36,1.36,0,0,0,1.64,0h0a1.55,1.55,0,0,0,.53,1.27,1.57,1.57,0,0,0,2-.27,1.29,1.29,0,0,0-.08-1.73,2,2,0,0,0-1.94-.06.9.9,0,0,0,0-.63c-.23-.4.83-.65.55-1.23s.27-1.14-.15-1.81S193.9,100,193.47,100.53Z"/><path class="cls-12" d="M196.54,102.36a1.47,1.47,0,0,0,1.19,1.35c.57.12,1.13-.65,1.31-1.45a1.44,1.44,0,0,0-1.16-1.47A1.5,1.5,0,0,0,196.54,102.36Z"/><path class="cls-12" d="M200.27,102.57a.86.86,0,0,0-.31.69c.11.55.58.48,1,.44.28-.42.36-.82-.06-1.13A.66.66,0,0,0,200.27,102.57Z"/><path class="cls-12" d="M200.56,111a.8.8,0,0,0,.36.91.9.9,0,0,0,1.15-.07c.39-.5.12-1-.09-1.42C201,110.32,200.68,110.46,200.56,111Z"/><path class="cls-12" d="M197,95.85c-.25-.08-.75-.11-.84.08a.81.81,0,0,0,.14.74c.14.13.75.21.89,0S197.15,95.89,197,95.85Z"/></g></svg>