<svg width="107" height="205" fill="none" xmlns="http://www.w3.org/2000/svg"><path d="m19.917 266-5.941-7.954c-5.942-7.954-17.826-23.863-11.884-39.771 5.942-15.908 29.709-31.816 45.566-47.725 15.708-15.908 23.878-31.816 21.761-47.725-1.968-15.908-13.851-31.816-25.735-47.725-11.883-15.908-23.767-31.816-19.793-47.724C27.716 11.467 47.769-4.441 59.54-20.35 71.536-36.258 75.25-52.166 71.425-68.074 67.45-83.982 55.568-99.891 51.595-115.8c-3.826-15.908-.112-31.817-5.942-47.725-6.054-15.908-21.65-31.816-29.71-39.771l-7.91-7.954h83.185V266h-71.3Z" fill="#07C"/><path d="m49.79 266-4.822-7.954c-4.822-7.954-14.467-23.863-9.645-39.771 4.823-15.908 24.111-31.816 36.98-47.725 12.75-15.908 19.38-31.816 17.662-47.725C88.368 106.917 78.723 91.009 69.08 75.1 59.435 59.192 49.79 43.284 53.015 27.377c3.104-15.909 19.38-31.817 28.933-47.725 9.735-15.909 12.749-31.817 9.645-47.725-3.225-15.908-12.87-31.817-16.094-47.725-3.105-15.908-.09-31.817-4.823-47.725-4.912-15.908-17.57-31.816-24.11-39.771l-6.42-7.954h67.511V266H49.79Z" fill="#20377D"/></svg>
