<svg width="226" height="144" viewBox="0 0 226 144" fill="none" xmlns="http://www.w3.org/2000/svg">
<g clip-path="url(#clip0)">
<path d="M187.269 68.911C186.486 69.434 186.747 69.9581 186.747 70.6131C186.616 71.1371 186.225 71.661 185.964 72.185C185.704 72.447 185.443 72.709 185.051 72.84C185.051 72.84 185.052 72.84 184.921 72.84C185.704 70.875 186.486 68.911 187.269 66.946C187.399 66.946 187.399 67.077 187.399 67.077C187.79 67.601 187.529 68.78 187.269 68.911Z" fill="#1BA9F5"/>
<path d="M194.963 52.8001C194.311 52.4071 193.919 51.0971 194.311 50.4421C194.702 49.9181 196.136 49.6561 196.788 50.0491C197.44 50.4421 197.571 51.0971 197.18 51.7521C196.528 52.9311 195.745 53.1931 194.963 52.8001Z" fill="#1BA9F5"/>
<path d="M196.006 55.2891C196.528 54.8961 197.18 54.1101 198.092 53.5861C198.614 53.1931 199.397 53.3241 199.788 53.9791C200.179 54.5031 200.179 55.1581 199.527 55.6811C199.266 55.9431 199.005 56.2051 198.875 56.5981C198.353 57.5151 197.701 57.908 196.658 57.646C195.615 57.253 195.354 56.5981 196.006 55.2891Z" fill="#1BA9F5"/>
<path d="M184.139 90.391C183.878 90.13 183.096 89.344 183.356 88.951C183.617 88.558 184.66 88.82 185.052 88.951C185.313 89.082 185.313 89.737 185.182 90.13C185.052 90.522 184.53 90.784 184.139 90.391Z" fill="#1BA9F5"/>
<path d="M182.183 80.437C181.922 80.306 181.791 80.044 181.661 79.782C181.922 79.389 182.052 78.996 182.313 78.603C182.965 78.472 183.356 78.865 183.748 79.52C183.356 80.044 182.965 80.699 182.183 80.437Z" fill="#1BA9F5"/>
<path d="M174.358 91.963C174.358 92.094 174.358 92.094 174.358 91.963C174.488 91.701 174.749 91.439 174.879 91.177C174.749 91.57 174.488 91.963 174.358 91.963Z" fill="#1BA9F5"/>
<path d="M195.745 68.911C195.615 68.256 196.006 67.7321 196.658 67.4701C197.179 67.2081 197.571 67.339 197.962 67.732C198.484 68.518 198.092 69.173 197.571 69.958C196.788 69.827 195.875 69.958 195.745 68.911Z" fill="#1BA9F5"/>
<path d="M184.791 76.638C184.269 76.507 183.878 75.721 183.878 75.066C184.008 74.674 184.269 74.15 184.4 73.757C184.791 73.495 185.313 73.233 185.704 73.495C186.877 74.019 187.529 74.936 187.269 75.721C186.877 76.507 185.704 77.031 184.791 76.638Z" fill="#1BA9F5"/>
<path d="M198.744 -0.902225C199.918 -0.378325 200.57 1.19347 200.048 2.37227C199.657 3.42017 197.962 3.94408 196.919 3.55108C195.745 3.15818 195.354 1.71738 195.875 0.276577C196.397 -0.902223 197.571 -1.29512 198.744 -0.902225Z" fill="#1BA9F5"/>
<path d="M199.266 72.9709C199.005 72.7089 198.875 72.0539 199.005 71.7919C199.136 71.5299 200.048 71.0059 200.309 71.2679C200.57 71.3989 200.7 72.5779 200.44 72.7089C200.179 72.8399 199.527 73.2329 199.266 72.9709Z" fill="#1BA9F5"/>
<path d="M196.136 63.1469C195.876 61.8369 196.397 60.9209 197.18 60.5279C197.962 60.0039 199.266 60.9209 199.918 61.9679C200.44 62.7539 199.918 64.457 199.005 64.85C198.223 65.112 196.528 64.4569 196.136 63.1469Z" fill="#1BA9F5"/>
<path d="M201.744 29.223C201.353 30.14 200.31 30.402 199.266 29.878C198.484 29.485 198.353 28.568 198.875 27.521C199.266 26.735 200.049 26.342 200.701 26.604C201.353 26.997 202.005 28.568 201.744 29.223Z" fill="#1BA9F5"/>
<path d="M201.744 46.1201C201.744 45.5961 201.874 44.9411 202.265 44.6791C203.048 44.0241 203.569 44.8101 204.221 45.3341C203.961 46.2511 203.7 47.0371 202.657 46.9061C202.396 46.7751 201.874 46.3821 201.744 46.1201Z" fill="#1BA9F5"/>
<path d="M201.614 60.7899C201.222 60.6589 200.831 60.266 200.831 60.004C200.701 59.087 201.483 58.956 202.135 58.825C202.787 59.349 203.179 59.873 202.657 60.528C202.396 60.659 201.874 60.9209 201.614 60.7899Z" fill="#1BA9F5"/>
<path d="M203.178 4.337C202.917 4.206 202.787 3.8131 202.787 3.5511C202.787 3.4201 203.048 2.8962 203.57 3.0272C204.091 3.1582 203.83 3.8131 203.83 4.075C203.7 4.206 203.178 4.468 203.178 4.337Z" fill="#1BA9F5"/>
<path d="M205.004 8.13502C204.743 8.00402 204.483 7.48052 204.483 7.21862C204.483 6.82562 204.874 6.30171 205.135 6.30171C205.917 6.03971 206.439 6.95662 206.569 7.34962C206.699 7.74252 205.787 8.52802 205.004 8.13502Z" fill="#1BA9F5"/>
<path d="M204.613 57.515C204.222 57.515 203.439 57.122 203.309 56.729C203.048 56.205 203.439 55.944 203.57 55.813C203.961 55.682 204.222 55.944 204.613 56.075C204.874 56.205 205.265 56.336 205.395 56.729C205.656 57.253 205.134 57.646 204.613 57.515Z" fill="#1BA9F5"/>
<path d="M199.136 46.1199C200.049 46.6439 199.918 47.4299 199.788 48.2159C198.484 48.8699 197.832 48.8699 197.31 48.0849C196.919 47.5609 196.919 47.0369 197.31 46.5129C197.832 45.9889 198.614 45.7269 199.136 46.1199Z" fill="#1BA9F5"/>
<path d="M199.657 36.0339C200.048 35.3789 201.483 34.8549 202.265 35.2479C202.917 35.5099 203.178 36.9509 202.917 37.6059C202.657 38.2609 201.613 38.6539 201.092 38.3919C199.918 37.8679 199.266 36.8199 199.657 36.0339Z" fill="#1BA9F5"/>
<path d="M193.007 45.3339C192.876 45.7269 192.615 45.8579 192.485 46.1199C192.746 44.5479 192.876 42.9759 193.137 41.5359C193.267 41.5359 193.267 41.6669 193.398 41.7979C194.05 42.5829 193.659 43.2379 193.137 44.0239H193.007C193.267 44.1549 193.267 44.6789 193.007 45.3339Z" fill="#1BA9F5"/>
<path d="M196.136 42.19C196.528 41.666 197.31 41.404 197.832 41.928C198.353 42.321 198.875 42.714 198.614 43.238C198.093 44.155 197.31 44.548 196.789 44.155C196.006 43.762 195.745 42.845 196.136 42.19Z" fill="#1BA9F5"/>
<path d="M193.789 69.8271C194.832 70.3511 195.093 70.8751 194.702 71.6611C194.18 72.5781 193.267 73.1021 192.485 72.5781C191.963 72.3161 191.572 70.7441 191.833 70.0891C192.224 69.4341 192.876 69.3041 193.789 69.8271Z" fill="#1BA9F5"/>
<path d="M209.307 56.86C208.916 57.122 208.525 57.122 208.003 57.122C207.351 56.991 207.09 56.205 207.351 55.681C207.612 55.157 208.134 54.895 208.786 55.157C209.307 55.288 209.699 56.598 209.307 56.86Z" fill="#1BA9F5"/>
<path d="M207.612 52.2759C207.091 52.0139 207.221 51.4899 207.482 51.0969C207.743 50.5729 208.395 50.3109 208.786 50.7039C209.047 50.9659 209.438 51.3589 209.438 51.7519C209.438 52.1449 208.264 52.6689 207.612 52.2759Z" fill="#1BA9F5"/>
<path d="M190.659 63.5399C190.137 63.4089 189.225 63.0169 188.833 62.3619C189.094 61.5759 189.225 60.7899 189.485 60.1349C190.007 59.8729 190.659 59.7419 191.181 59.8729C190.92 59.2179 190.92 58.4319 191.311 57.6459C191.833 56.7289 193.398 56.3359 194.441 56.8599C195.354 57.3839 195.745 58.6939 195.223 59.4799C194.832 60.2659 193.398 60.7899 192.354 60.6589C192.615 60.9209 192.746 61.3139 192.615 61.5759C192.485 62.3619 194.18 62.0999 194.18 63.1469C194.05 64.0639 195.223 64.7189 194.963 65.8979C194.702 67.0769 193.659 68.1249 192.746 67.6009C191.833 67.0769 191.442 66.1599 191.05 65.1119C190.659 64.4569 191.572 63.8019 190.659 63.5399Z" fill="#1BA9F5"/>
<path d="M207.09 27.39C206.438 27.128 206.178 26.342 206.438 25.687C206.699 25.032 207.221 24.77 207.873 25.032C208.655 25.294 208.916 25.949 208.655 26.604C208.394 27.259 207.742 27.521 207.09 27.39Z" fill="#1BA9F5"/>
<path d="M206.048 33.6771C206.048 33.8081 206.048 33.8081 206.048 33.9391C205.917 34.3311 205.265 34.2001 205.004 34.0701C204.874 34.0701 204.613 33.6771 204.744 33.4151C204.091 32.7601 203.831 31.5811 204.222 30.6641C204.483 30.0091 205.526 29.8781 206.308 30.2711C207.352 30.7951 207.613 31.7121 207.221 32.6291C206.96 33.1531 206.439 33.5461 206.048 33.6771Z" fill="#1BA9F5"/>
<path d="M209.96 34.7251C210.481 34.9871 210.742 35.6411 210.481 36.2961C210.09 37.0821 209.308 37.3441 208.656 36.9511C208.134 36.6891 207.743 35.7721 208.134 35.2491C208.395 34.7251 209.438 34.4631 209.96 34.7251Z" fill="#1BA9F5"/>
<path d="M207.873 13.898C208.525 14.291 208.786 14.946 208.395 15.732C208.134 16.256 207.221 16.518 206.7 16.256C205.917 15.863 205.656 15.077 206.047 14.422C206.308 13.767 207.091 13.637 207.873 13.898Z" fill="#1BA9F5"/>
<path d="M197.571 19.269C197.44 19.138 197.31 19.138 197.179 19.007C195.745 19.138 196.006 20.317 194.702 20.71C194.441 20.841 194.18 20.71 194.05 20.71C193.789 20.579 193.528 20.579 193.267 20.448C193.137 18.876 193.006 17.304 192.745 15.732C193.137 15.601 193.528 15.601 193.919 15.732C194.31 15.863 194.571 16.256 194.571 16.649C194.702 16.518 194.832 16.387 195.093 16.256C195.875 15.732 197.31 16.125 197.962 16.78C198.092 16.911 198.092 17.042 198.223 17.173C198.353 17.042 198.614 17.042 198.744 17.042C199.266 17.173 199.005 18.483 198.875 18.876C198.614 19.4 198.092 19.662 197.571 19.269Z" fill="#1BA9F5"/>
<path d="M190.92 53.8479C191.181 52.6689 191.442 51.6209 191.572 50.4419C191.702 50.4419 191.702 50.4419 191.833 50.4419C192.615 50.8349 193.267 51.7519 193.007 52.4069C193.007 53.0619 191.833 53.8479 190.92 53.8479Z" fill="#1BA9F5"/>
<path d="M193.267 38.785C193.397 37.475 193.528 36.165 193.528 34.855C193.789 34.855 194.18 34.855 194.441 34.986C195.354 35.379 195.875 36.689 195.484 37.475C195.093 38.392 194.05 38.916 193.267 38.785Z" fill="#1BA9F5"/>
<path d="M192.876 0.0146255C193.267 0.145626 193.137 1.45543 192.876 1.58643C192.485 1.84843 192.094 2.24133 191.572 2.24133C191.442 2.89623 191.05 3.55113 190.659 3.81313C190.659 3.81313 190.659 3.81313 190.529 3.81313C190.138 2.37233 189.746 0.931523 189.355 -0.509277C190.007 -0.378277 190.79 0.145622 191.311 0.800522C191.702 0.407622 192.485 -0.116274 192.876 0.0146255Z" fill="#1BA9F5"/>
<path d="M195.745 30.271C196.136 29.616 196.658 29.485 197.31 29.878C197.832 30.271 198.093 31.057 197.832 31.581C197.571 32.105 196.658 32.367 196.136 31.974C195.484 31.712 195.354 30.926 195.745 30.271Z" fill="#1BA9F5"/>
<path d="M198.223 11.6721C198.093 11.5411 197.962 11.4101 198.093 11.1481C198.223 10.8861 198.484 11.0171 198.614 11.0171C198.745 11.0171 198.745 11.4101 198.745 11.5411C198.614 11.6721 198.353 11.8031 198.223 11.6721Z" fill="#1BA9F5"/>
<path d="M192.224 10.1001C192.485 10.2311 192.615 11.2791 192.485 11.4101C192.354 11.5411 192.224 11.5411 192.094 11.6721C191.963 11.1481 191.963 10.6241 191.833 10.1001C192.094 10.1001 192.224 10.1001 192.224 10.1001Z" fill="#1BA9F5"/>
<path d="M199.918 23.46C200.309 23.591 200.309 24.508 200.309 24.901C200.179 25.425 199.266 25.687 199.005 25.425C198.744 25.163 198.614 24.639 198.744 24.246C198.875 23.853 199.527 23.329 199.918 23.46Z" fill="#1BA9F5"/>
<path d="M193.398 21.365C193.528 21.365 193.528 21.757 193.528 21.757L193.398 21.888C193.398 21.757 193.268 21.495 193.398 21.365Z" fill="#1BA9F5"/>
<path d="M193.789 6.82569C194.702 7.34959 195.093 8.78999 194.702 9.83799C194.441 10.493 193.137 10.755 192.355 10.231C192.094 10.1 191.963 9.96899 191.833 9.83799C191.702 9.31399 191.702 8.65899 191.572 8.13499C191.572 8.00399 191.572 7.87349 191.702 7.87349C192.094 6.82569 193.137 6.30169 193.789 6.82569Z" fill="#1BA9F5"/>
<path d="M197.44 12.0651C197.049 12.8511 195.354 13.6371 194.832 13.2441C194.05 12.8511 193.919 11.5411 194.311 10.4931C194.702 9.57608 195.615 9.44508 196.788 9.96908C197.44 10.3621 197.832 11.4101 197.44 12.0651Z" fill="#1BA9F5"/>
<path d="M198.484 102.442C199.005 102.18 199.396 102.311 199.788 102.704C200.309 103.49 199.918 104.144 199.396 104.93C198.614 104.799 197.701 104.799 197.571 103.883C197.44 103.228 197.832 102.704 198.484 102.442Z" fill="#1BA9F5"/>
<path d="M190.659 79.52C190.659 80.306 190.659 81.223 189.486 81.354C188.834 81.354 188.312 81.092 188.051 80.437C187.921 80.175 187.921 79.782 188.051 79.651C188.442 79.258 188.964 78.865 189.616 78.472C189.616 76.9 190.268 75.853 191.181 75.853C192.094 75.853 193.268 77.162 193.268 78.21C193.398 79.127 192.746 79.52 190.659 79.52Z" fill="#1BA9F5"/>
<path d="M196.397 83.1881C197.049 83.4491 197.44 84.3661 197.179 85.0211C196.918 85.8071 195.745 86.2001 194.832 85.8071C194.049 85.4141 193.789 84.8901 193.919 84.2351C194.31 83.4491 195.484 82.9261 196.397 83.1881Z" fill="#1BA9F5"/>
<path d="M178.922 86.4619C179.444 85.4139 180.226 85.0209 181.009 85.4139C181.922 85.8069 182.443 87.1169 182.052 87.9029C181.661 88.6889 180.226 89.2129 179.444 88.8199C178.661 88.4269 178.401 87.2479 178.922 86.4619Z" fill="#1BA9F5"/>
<path d="M193.006 101.918C193.398 102.049 193.398 102.573 193.267 102.704C193.137 102.966 192.746 103.096 192.485 103.096C192.354 103.096 192.094 102.573 192.094 102.573C192.224 102.311 192.485 101.787 193.006 101.918Z" fill="#1BA9F5"/>
<path d="M186.356 107.681C187.269 107.812 187.79 108.336 187.921 109.253C188.181 110.17 187.79 110.693 187.008 111.086C186.486 111.348 185.443 112.265 184.66 111.741C183.878 111.217 184.53 110.562 184.4 110.17C184.4 108.729 185.443 107.55 186.356 107.681Z" fill="#1BA9F5"/>
<path d="M183.487 100.608C184.008 100.87 184.4 101.787 184.269 102.311C184.008 102.835 183.226 103.097 182.704 102.835C182.052 102.573 181.661 101.656 181.922 101.132C182.183 100.739 182.965 100.346 183.487 100.608Z" fill="#1BA9F5"/>
<path d="M187.529 87.2479C186.356 86.7239 185.573 85.4139 185.964 84.4969C186.356 83.4489 188.442 82.5329 189.355 83.0559C190.398 83.5799 190.92 85.0209 190.398 86.0689C190.007 87.1169 188.572 87.7719 187.529 87.2479Z" fill="#1BA9F5"/>
<path d="M187.399 97.8569C186.877 97.5949 186.616 97.0709 187.008 96.5469C187.268 96.1539 188.181 95.369 188.573 95.63C188.964 95.892 188.833 96.94 188.833 97.464C188.703 97.988 187.92 98.1189 187.399 97.8569Z" fill="#1BA9F5"/>
<path d="M197.31 90.129C198.223 90.653 198.484 91.701 197.832 92.749C197.18 93.797 196.267 94.059 195.354 93.535C194.441 93.011 194.18 91.832 194.702 90.784C194.963 89.998 196.397 89.606 197.31 90.129Z" fill="#1BA9F5"/>
<path d="M209.569 85.4141C209.83 85.5451 210.09 85.9381 209.96 86.2001C209.83 86.4621 209.308 86.5931 209.178 86.4621C208.917 86.3311 208.525 85.9381 208.656 85.5451C208.656 85.4141 209.438 85.4141 209.569 85.4141Z" fill="#1BA9F5"/>
<path d="M208.134 45.5961C207.482 45.3341 207.221 44.2861 207.612 43.6311C208.134 42.8451 209.047 42.4521 209.699 42.8451C210.481 43.2381 211.003 44.6791 210.612 45.3341C210.481 45.8581 209.047 45.9891 208.134 45.5961Z" fill="#1BA9F5"/>
<path d="M199.788 77.2931C200.048 76.6381 201.092 76.3761 201.613 76.7691C202.135 77.0311 202.396 77.6861 202.135 78.3411C201.744 79.1271 200.961 79.3891 200.309 78.9961C199.788 78.7341 199.527 77.8171 199.788 77.2931Z" fill="#1BA9F5"/>
<path d="M205.395 64.85C204.221 64.326 203.961 63.016 204.613 61.576C205.134 60.397 206.308 60.004 207.482 60.528C208.655 61.052 209.177 62.754 208.655 63.802C208.003 64.85 206.438 65.374 205.395 64.85Z" fill="#1BA9F5"/>
<path d="M206.309 78.4721C206.7 78.7341 206.439 79.9131 206.309 80.3061C206.048 80.8301 205.657 80.9611 205.135 80.5681C204.744 80.3061 204.352 79.7821 204.744 79.3891C205.004 78.9961 205.917 78.2101 206.309 78.4721Z" fill="#1BA9F5"/>
<path d="M200.961 82.4021C201.092 82.4021 201.092 82.7951 201.092 82.9261C201.092 83.0571 200.831 83.1871 200.701 83.0571C200.57 82.9261 200.44 82.7951 200.57 82.5331C200.57 82.4021 200.831 82.4021 200.961 82.4021Z" fill="#1BA9F5"/>
<path d="M202.396 71.661C202.917 70.744 203.7 70.613 204.874 71.268C205.526 71.661 205.786 72.709 205.526 73.364C205.134 74.019 203.309 74.805 202.787 74.412C202.005 74.019 201.874 72.709 202.396 71.661Z" fill="#1BA9F5"/>
<path d="M136.669 129.948C137.321 129.948 137.843 130.34 137.974 131.126C138.104 131.912 137.713 132.305 136.93 132.305C136.148 132.305 135.626 131.912 135.626 131.126C135.496 130.602 136.017 129.948 136.669 129.948Z" fill="#1BA9F5"/>
<path d="M145.929 120.255C146.059 120.517 146.189 120.779 146.189 121.041C146.189 121.696 145.668 122.22 144.885 122.22C144.364 122.22 143.842 122.089 143.712 121.827C144.494 121.303 145.146 120.779 145.929 120.255Z" fill="#1BA9F5"/>
<path d="M153.884 121.172C154.275 121.172 154.536 121.696 154.536 121.958C154.536 122.22 154.275 122.482 154.014 122.613C153.884 122.613 153.362 122.351 153.362 122.089C153.362 121.827 153.492 121.172 153.884 121.172Z" fill="#1BA9F5"/>
<path d="M146.32 123.661C146.581 123.661 146.711 123.923 146.711 124.054C146.711 124.185 146.45 124.316 146.32 124.316C146.189 124.316 145.929 124.185 145.929 124.054C145.929 123.923 146.059 123.661 146.32 123.661Z" fill="#1BA9F5"/>
<path d="M144.364 126.411C144.494 126.411 145.277 126.673 145.277 126.935C145.277 127.197 144.755 127.459 144.494 127.59C144.364 127.59 143.973 127.328 143.973 127.197C143.973 126.804 144.103 126.542 144.364 126.411Z" fill="#1BA9F5"/>
<path d="M100.416 138.723C100.677 138.723 100.938 139.116 100.938 139.378C100.938 139.509 100.807 140.033 100.416 140.164C100.025 140.164 99.894 139.64 99.894 139.378C99.894 139.116 100.155 138.723 100.416 138.723Z" fill="#1BA9F5"/>
<path d="M131.714 136.235C132.105 136.235 132.627 136.497 132.758 136.759C132.758 137.021 132.366 137.544 132.105 137.675C131.845 137.806 130.932 137.413 130.932 137.021C130.671 136.759 131.453 136.235 131.714 136.235Z" fill="#1BA9F5"/>
<path d="M117.499 134.401C117.891 134.401 118.934 134.794 118.934 135.187C118.934 135.58 118.151 136.104 117.76 136.235C117.239 136.497 116.847 135.973 116.717 135.318C116.456 134.663 116.978 134.401 117.499 134.401Z" fill="#1BA9F5"/>
<path d="M162.23 106.895C162.23 106.764 162.23 106.633 162.23 106.633C162.491 106.371 162.752 106.109 163.012 105.716C163.143 105.716 163.143 105.716 163.273 105.716C164.056 105.716 164.708 106.24 164.708 106.895C164.708 107.55 164.056 108.205 163.404 108.205C162.882 108.205 162.23 107.55 162.23 106.895Z" fill="#1BA9F5"/>
<path d="M174.228 97.2019C174.749 96.2859 176.184 96.4169 176.445 96.6789C176.836 96.9409 176.966 98.3809 176.184 99.0359C175.662 99.4289 175.01 99.4289 174.488 98.9049C174.097 98.3809 173.967 97.8569 174.228 97.2019Z" fill="#1BA9F5"/>
<path d="M172.793 103.358C173.836 103.882 174.488 105.192 174.097 105.978C173.706 106.633 172.532 106.895 171.75 106.502C170.967 106.109 170.706 105.061 171.228 104.144C171.489 103.227 172.141 102.966 172.793 103.358Z" fill="#1BA9F5"/>
<path d="M175.662 93.1421C175.14 92.7491 174.879 91.8321 175.401 91.0461C175.792 91.0461 176.314 90.7841 176.836 90.9151C177.488 91.0461 177.748 92.0941 177.357 92.7491C176.966 93.2731 176.184 93.4041 175.662 93.1421Z" fill="#1BA9F5"/>
<path d="M161.709 114.492C162.1 114.361 163.404 115.016 163.404 115.671C163.404 116.326 161.969 116.85 161.448 116.85C161.056 116.85 160.274 116.326 160.274 115.671C160.274 115.147 161.187 114.623 161.709 114.492Z" fill="#1BA9F5"/>
<path d="M168.098 116.587C168.62 116.718 168.359 117.373 168.229 117.635C168.229 117.766 167.707 117.897 167.577 117.897C167.316 117.766 167.185 117.373 167.185 117.111C167.316 116.98 167.707 116.457 168.098 116.587Z" fill="#1BA9F5"/>
<path d="M163.143 109.908C162.882 109.777 162.36 109.253 162.621 108.991C162.752 108.729 163.404 108.729 163.534 108.86C163.795 108.991 164.186 109.384 164.056 109.646C163.925 109.908 163.273 110.039 163.143 109.908Z" fill="#1BA9F5"/>
<path d="M179.053 110.693C179.574 110.955 179.835 111.61 179.705 112.265C179.444 112.92 178.662 113.313 178.27 112.92C177.749 112.527 177.488 112.003 177.618 111.348C177.749 110.824 178.401 110.432 179.053 110.693Z" fill="#1BA9F5"/>
<path d="M167.446 112.003C167.837 112.265 167.707 112.789 167.577 112.92C167.446 113.182 167.185 113.444 166.664 113.313C166.273 113.182 166.012 112.658 166.273 112.265C166.664 111.741 167.055 111.741 167.446 112.003Z" fill="#1BA9F5"/>
<path d="M210.09 16.78C210.09 17.304 209.438 17.566 208.786 17.304C208.134 17.042 208.134 16.518 208.395 16.125C208.656 15.732 209.438 15.077 209.699 15.208C209.96 15.339 210.09 16.387 210.09 16.78Z" fill="#1BA9F5"/>
<path d="M201.744 25.032C201.483 25.032 200.961 24.508 201.092 24.246C201.222 23.984 201.874 23.853 202.135 23.984C202.396 24.115 202.657 24.508 202.526 24.77C202.526 25.032 202.005 25.032 201.744 25.032Z" fill="#1BA9F5"/>
<path d="M217.263 48.739C216.741 48.346 216.35 47.168 216.611 46.644C216.872 46.12 217.785 45.858 218.306 46.251C218.958 46.644 219.089 47.299 218.697 47.953C218.306 48.739 217.785 49.001 217.263 48.739Z" fill="#1BA9F5"/>
<path d="M216.48 50.18C216.741 50.311 217.132 50.704 217.002 50.966C216.872 51.228 216.35 51.359 216.219 51.228C215.959 51.097 215.437 50.573 215.698 50.311C215.828 50.18 216.35 50.049 216.48 50.18Z" fill="#1BA9F5"/>
<path d="M214.915 58.301C215.437 58.563 215.567 58.956 215.306 59.349C215.045 59.873 214.654 60.266 214.002 60.004C213.48 59.742 213.089 58.956 213.35 58.432C213.48 58.039 214.263 58.039 214.915 58.301Z" fill="#1BA9F5"/>
<path d="M211.916 64.7189C212.438 64.8499 212.177 65.5049 212.046 65.7669C212.046 65.8979 211.525 66.0289 211.394 66.0289C211.133 65.8979 211.003 65.5049 211.003 65.2429C211.133 64.9809 211.525 64.5879 211.916 64.7189Z" fill="#1BA9F5"/>
<path d="M221.957 28.437C222.479 28.699 222.349 30.271 222.088 30.664C221.957 31.057 221.044 31.45 220.523 31.188C220.001 30.926 220.001 29.878 220.132 29.354C220.262 29.092 221.436 28.175 221.957 28.437Z" fill="#1BA9F5"/>
<path d="M215.046 33.415C215.307 33.808 215.176 34.332 215.046 34.725C214.915 35.249 214.394 35.51 213.872 35.118C213.35 34.856 212.959 34.463 213.22 33.808C213.481 33.415 214.785 33.153 215.046 33.415Z" fill="#1BA9F5"/>
<path d="M212.438 94.845C212.568 94.845 212.959 95.238 212.829 95.631C212.698 96.024 212.046 95.762 211.786 95.762C211.655 95.762 211.394 95.238 211.525 95.107C211.655 94.976 212.177 94.845 212.438 94.845Z" fill="#1BA9F5"/>
<path d="M214.916 23.067C215.568 23.329 215.828 24.246 215.437 24.77C215.176 25.294 214.264 25.556 213.611 25.294C212.959 25.032 212.829 24.377 213.09 23.722C213.481 23.067 214.394 22.674 214.916 23.067Z" fill="#1BA9F5"/>
<path d="M217.393 77.1619C217.654 77.2929 217.784 78.3409 217.784 78.7339C217.654 79.2579 217.132 79.5199 216.48 79.2579C215.828 78.9959 215.828 78.4719 216.089 78.0789C216.35 77.5549 217.132 76.8999 217.393 77.1619Z" fill="#1BA9F5"/>
<path d="M222.61 40.357C222.349 40.226 221.827 39.833 222.088 39.44C222.349 39.178 222.87 39.178 223.001 39.178C223.262 39.44 223.392 39.833 223.392 40.095C223.262 40.226 222.74 40.488 222.61 40.357Z" fill="#1BA9F5"/>
<path d="M216.611 5.2538C216.35 5.1228 216.089 4.206 216.219 4.075C216.35 3.813 216.871 3.2891 217.132 3.4201C217.393 3.5511 217.654 4.206 217.654 4.4679C217.654 4.7299 216.871 5.3848 216.611 5.2538Z" fill="#1BA9F5"/>
<path d="M225.478 65.7669C225.739 65.8979 226 66.5529 225.87 66.8149C225.739 67.0769 225.087 67.7319 224.696 67.6009C224.435 67.4699 224.305 66.5529 224.435 66.4219C224.696 66.0289 225.218 65.6359 225.478 65.7669Z" fill="#1BA9F5"/>
<path d="M222.87 49.9181C223.001 50.0491 223.131 50.7041 223.001 50.9661C223.001 51.0971 222.479 51.2281 222.349 51.2281C222.218 50.9661 222.088 50.7041 222.088 50.4421C222.088 50.3111 222.74 49.7871 222.87 49.9181Z" fill="#1BA9F5"/>
<path d="M223.131 58.301C223.783 58.563 224.044 59.087 223.783 59.742C223.522 60.397 222.74 60.659 222.088 60.397C221.566 60.135 221.175 59.349 221.435 58.825C221.696 58.301 222.348 58.039 223.131 58.301Z" fill="#1BA9F5"/>
<path d="M221.175 47.2989C221.305 47.2989 221.305 47.6919 221.305 47.8229C221.305 47.9539 221.044 48.0849 220.914 47.9539C220.784 47.8229 220.653 47.6919 220.784 47.4299C220.784 47.1679 221.044 47.1679 221.175 47.2989Z" fill="#1BA9F5"/>
<path d="M84.506 111.61C39.491 111.61 3.00002 74.959 3.00002 29.747C3.00002 -15.4644 39.491 -52.1157 84.506 -52.1157C129.52 -52.1157 166.012 -15.4644 166.012 29.747C166.012 74.959 129.52 111.61 84.506 111.61Z" fill="#36B9FF"/>
<path d="M159.491 10.755C160.013 10.624 160.665 11.803 160.665 12.065C160.535 12.589 160.404 13.506 159.752 13.637C159.1 13.899 158.709 13.113 158.709 12.72C158.709 12.327 158.97 11.017 159.491 10.755Z" fill="#1BA9F5"/>
<path d="M156.622 7.21863C157.796 6.95673 158.839 7.74263 159.23 9.05203C159.491 9.96903 158.578 11.279 157.405 11.541C156.231 11.803 155.318 11.148 155.057 9.70703C154.796 8.39703 155.449 7.48063 156.622 7.21863Z" fill="#1BA9F5"/>
<path d="M162.882 42.1899C163.143 42.1899 163.664 42.3209 163.664 42.5829C163.795 42.7139 163.925 43.3689 163.403 43.6309C162.882 43.8929 162.621 43.1069 162.491 42.8449C162.491 42.7139 162.751 42.1899 162.882 42.1899Z" fill="#1BA9F5"/>
<path d="M146.189 56.5979C146.972 56.4669 147.885 56.9909 148.015 57.7769C148.146 58.5629 147.494 59.4799 146.711 59.4799C145.929 59.6109 145.146 59.0869 145.016 58.4319C144.885 57.5149 145.407 56.7289 146.189 56.5979Z" fill="#1BA9F5"/>
<path d="M154.536 23.3291C155.057 23.0671 155.579 23.0671 155.84 23.8531C156.101 24.5081 155.709 25.4251 155.188 25.4251C154.666 25.4251 153.492 25.2941 153.362 24.6391C153.232 23.8531 154.144 23.4601 154.536 23.3291Z" fill="#1BA9F5"/>
<path d="M165.882 33.1531C165.882 33.8081 165.882 34.3321 165.751 34.9871C165.49 34.7251 165.229 34.2011 165.229 33.9391C165.36 33.4151 165.621 33.1531 165.882 33.1531Z" fill="#1BA9F5"/>
<path d="M156.753 58.825C156.622 58.825 156.492 58.825 156.362 58.825C157.014 59.218 157.666 59.742 157.927 60.528C158.187 61.314 157.405 62.231 156.362 62.493C155.188 62.754 154.275 62.231 153.884 60.921C153.623 60.004 154.145 58.825 154.797 58.563C154.927 58.563 155.058 58.563 155.058 58.563C154.406 58.17 153.753 57.515 153.623 56.598C153.623 56.336 153.493 55.943 153.623 55.681C152.71 56.336 151.015 56.467 150.102 55.943C149.189 55.42 148.798 53.979 149.32 52.8C149.711 52.014 150.102 51.359 149.45 50.442C149.059 49.787 149.58 49.132 150.232 48.74C151.276 49.001 151.667 49.656 151.276 50.573C152.189 51.097 152.971 51.49 153.493 52.014C154.014 52.538 154.275 53.717 154.145 54.634C154.536 54.241 155.058 53.979 155.84 53.848C157.275 53.586 158.057 53.848 158.579 54.634C158.97 54.765 159.361 55.027 159.491 55.42C159.622 56.074 159.361 56.598 158.839 56.991C158.709 57.777 157.927 58.563 156.753 58.825Z" fill="#1BA9F5"/>
<path d="M164.447 37.999C164.577 37.475 164.968 36.82 165.62 36.427C165.49 37.606 165.359 38.654 165.229 39.833C164.838 39.44 164.316 38.654 164.447 37.999Z" fill="#1BA9F5"/>
<path d="M156.883 26.4729C156.622 25.9489 157.013 25.4249 157.665 25.2939C158.317 25.2939 158.839 25.4249 158.969 26.0799C158.969 26.6039 158.709 27.7829 158.187 28.0449C157.665 28.0449 157.013 26.8659 156.883 26.4729Z" fill="#1BA9F5"/>
<path d="M148.928 25.4249C149.189 25.8179 149.45 26.3419 149.841 26.7349C150.623 27.2589 151.015 28.0449 150.754 28.9619C150.623 29.6159 148.928 30.4019 148.146 30.2709C147.363 30.1399 146.581 29.8779 146.581 28.8309C146.581 28.0449 146.45 27.2589 146.32 26.3419C145.929 25.4249 146.189 24.7699 146.972 24.5079C147.754 24.1149 148.406 24.5079 148.928 25.4249Z" fill="#1BA9F5"/>
<path d="M118.282 80.0439C118.151 80.5679 117.108 81.3539 116.456 81.2229C115.804 81.0919 115.413 80.5679 115.543 79.9129C115.804 78.7339 116.195 78.0789 116.847 78.0789C117.369 78.0789 118.021 78.9959 118.282 79.6509C118.282 78.6029 118.934 77.5549 119.847 77.2929C120.629 77.0309 121.803 78.0789 122.194 79.1269C122.455 80.1749 121.933 81.0919 121.151 81.3539C119.847 81.4849 118.543 80.8299 118.282 80.0439Z" fill="#1BA9F5"/>
<path d="M150.102 23.1979C150.363 23.0669 151.145 23.1979 151.145 23.4599C151.276 23.8529 150.624 24.3769 150.493 24.3769C150.232 24.3769 149.711 24.2459 149.58 23.9839C149.45 23.7219 149.841 23.3289 150.102 23.1979Z" fill="#1BA9F5"/>
<path d="M159.752 19.9241C159.882 19.9241 160.274 19.9241 160.274 20.1861C160.274 20.4481 160.013 20.5791 159.882 20.7101C159.752 20.7101 159.491 20.4481 159.491 20.3171C159.491 20.1861 159.491 19.9241 159.752 19.9241Z" fill="#1BA9F5"/>
<path d="M160.013 37.606C160.795 37.344 161.578 37.868 161.839 38.523C161.969 39.309 161.578 40.095 160.795 40.226C160.013 40.488 159.491 40.095 159.23 39.309C158.97 38.523 159.23 37.737 160.013 37.606Z" fill="#1BA9F5"/>
<path d="M157.796 29.355C157.666 28.569 158.318 27.914 158.97 27.783C159.752 27.652 160.404 28.176 160.535 28.962C160.795 29.878 160.274 30.664 159.361 30.795C158.709 30.795 157.796 30.14 157.796 29.355Z" fill="#1BA9F5"/>
<path d="M160.926 54.5031C160.535 54.2411 159.883 53.5861 159.883 53.1931C159.883 52.6691 160.143 52.2761 160.535 52.1451C159.752 51.4901 159.491 50.3111 159.491 49.1331C159.491 48.4781 159.752 47.8231 160.013 47.2991C160.535 46.6441 161.317 46.2511 162.36 46.1201C163.143 45.9891 163.795 45.4651 164.577 45.4651C164.056 47.9541 163.534 50.3111 162.882 52.6691H162.752C162.752 52.8001 162.752 52.8001 162.882 52.9311C162.752 53.4551 162.621 53.8481 162.491 54.3721C161.839 54.6341 161.448 54.8961 160.926 54.5031Z" fill="#1BA9F5"/>
<path d="M130.54 60.1351C130.149 60.0041 130.279 59.3491 130.279 59.0871C130.279 58.9561 130.801 58.6941 130.931 58.6941C131.192 58.8251 131.323 59.3491 131.192 59.6111C131.323 59.7421 130.931 60.2661 130.54 60.1351Z" fill="#1BA9F5"/>
<path d="M132.757 56.9911C132.366 56.8601 132.366 56.3361 132.366 56.0741C132.366 55.8131 132.888 55.2891 133.279 55.2891C133.54 55.4201 133.67 56.2051 133.67 56.3361C133.409 56.7291 133.018 57.1221 132.757 56.9911Z" fill="#1BA9F5"/>
<path d="M123.237 68.3869C122.976 68.1249 123.368 66.6839 123.889 66.5529C124.541 66.4219 125.193 66.8149 125.454 67.6009C125.585 68.2559 125.193 68.9109 124.541 68.9109C124.02 68.9109 123.498 68.7799 123.237 68.3869Z" fill="#1BA9F5"/>
<path d="M133.409 71.0059C133.018 72.0539 131.844 72.7089 131.062 72.3159C129.888 71.7919 129.236 70.2199 129.627 69.0419C129.888 68.3869 130.931 67.9939 131.844 68.1249C131.584 67.8629 131.323 67.4699 131.192 66.9459C130.931 65.7669 131.453 64.8499 132.757 64.5879C133.931 64.3259 134.844 64.8499 134.974 65.6359C135.105 66.8149 134.192 68.3869 133.148 68.5179C133.018 68.5179 133.018 68.5179 132.888 68.5179C133.67 69.3029 133.8 70.0889 133.409 71.0059Z" fill="#1BA9F5"/>
<path d="M121.281 86.4621C120.629 86.5931 120.108 86.2001 119.977 85.4141C119.847 84.6281 120.369 84.3661 120.89 84.2351C121.281 84.2351 122.585 84.2351 122.585 84.8901C122.716 85.6761 121.673 86.3311 121.281 86.4621Z" fill="#1BA9F5"/>
<path d="M121.933 59.0869C122.194 59.3489 121.933 60.0039 121.803 60.1349C121.542 60.2659 121.151 60.3969 120.89 60.2659C120.629 60.1349 120.76 59.4799 120.89 59.3489C120.89 59.2179 121.542 58.8249 121.933 59.0869Z" fill="#1BA9F5"/>
<path d="M150.493 76.114C150.884 75.46 151.145 74.805 151.536 74.15C151.667 73.888 151.927 73.495 152.058 73.364C151.536 72.971 151.015 72.709 151.145 72.185C151.275 71.399 152.58 71.399 153.101 71.137C153.232 71.268 153.362 71.268 153.492 71.399C153.884 72.054 153.753 72.316 153.623 72.84C153.753 72.84 153.753 72.709 153.884 72.709C152.84 74.412 151.667 76.114 150.493 77.817C150.102 77.293 150.232 76.638 150.493 76.114Z" fill="#1BA9F5"/>
<path d="M121.542 66.553C121.542 67.077 121.151 67.732 120.76 67.994C120.369 68.387 119.325 67.732 119.325 66.946C119.325 66.553 119.717 66.029 119.717 65.898C120.76 65.636 121.542 65.898 121.542 66.553Z" fill="#1BA9F5"/>
<path d="M127.802 84.2349C128.584 84.4969 128.975 85.2829 128.714 86.0689C128.454 86.7239 127.671 86.9859 127.019 86.7239C126.367 86.3309 125.976 85.5449 126.237 84.8899C126.628 84.1039 127.149 83.9729 127.802 84.2349Z" fill="#1BA9F5"/>
<path d="M149.971 78.4719C149.58 78.9959 149.189 79.3889 148.928 79.9129V79.7819C149.058 79.1269 149.58 78.7339 149.971 78.4719Z" fill="#1BA9F5"/>
<path d="M133.279 41.928C133.018 41.012 133.67 40.226 134.844 39.833C135.757 39.571 136.539 39.964 136.8 40.75C136.931 41.536 136.279 43.238 135.626 43.369C134.583 43.631 133.67 43.107 133.279 41.928Z" fill="#1BA9F5"/>
<path d="M135.757 76.639C135.366 75.591 136.279 74.019 137.322 73.757C137.974 73.626 139.017 74.412 139.278 75.46C139.408 75.853 139.408 76.246 139.278 76.508H139.408C140.191 76.77 140.843 78.341 140.452 79.258C140.191 80.044 138.626 80.568 137.843 80.175C137.191 79.913 136.67 78.865 136.931 78.341C137.061 78.079 137.061 77.948 137.191 77.817C136.539 77.686 135.887 77.162 135.757 76.639Z" fill="#1BA9F5"/>
<path d="M134.974 20.1859C134.844 20.1859 134.322 20.0549 134.322 19.7929C134.322 19.5309 134.583 19.1379 134.844 19.0069C134.974 18.8759 135.626 19.0069 135.757 19.3999C135.887 19.7929 135.235 20.1859 134.974 20.1859Z" fill="#1BA9F5"/>
<path d="M122.585 77.686C121.151 77.162 120.629 75.984 121.151 74.543C121.542 73.495 122.585 72.84 123.498 72.84C123.629 72.709 123.759 72.578 123.89 72.447C125.194 71.268 126.628 71.53 127.541 72.578C128.975 74.019 127.15 75.198 128.323 75.853C128.975 75.329 130.149 75.329 131.192 75.591C132.496 75.984 133.149 77.162 132.757 78.472C132.366 79.913 130.54 80.83 129.236 80.437C129.106 80.437 128.975 80.306 128.845 80.306C128.454 80.568 128.063 80.83 127.541 80.568C125.585 79.389 127.15 77.948 126.628 77.424C126.367 77.031 125.585 76.769 124.933 76.508C124.672 77.555 123.759 78.079 122.585 77.686Z" fill="#1BA9F5"/>
<path d="M112.153 83.7111C111.762 84.4971 110.197 85.0211 109.414 84.6281C108.762 84.3661 108.371 82.7951 108.632 82.1401C108.893 81.4851 109.936 81.0921 110.458 81.3541C110.849 81.4851 111.11 81.7471 111.37 81.8781C111.762 81.2231 112.022 81.0921 112.674 81.0921C113.327 80.9611 113.718 81.2231 113.848 81.3541C113.718 82.0091 113.979 83.1881 113.327 83.4501C112.935 83.5801 112.544 83.3191 112.153 83.0571C112.283 83.3191 112.283 83.4501 112.153 83.7111Z" fill="#1BA9F5"/>
<path d="M147.233 0.2767C147.754 0.8006 147.885 1.45549 147.624 2.11039C147.363 2.63429 146.972 2.89629 146.32 2.76529C145.277 2.50339 145.146 1.7175 145.016 0.669599C145.798 0.276699 146.45 -0.5092 147.233 0.2767Z" fill="#1BA9F5"/>
<path d="M141.234 86.0689C141.103 86.4619 140.973 86.7239 140.712 86.9859C140.582 87.5099 140.06 88.1649 139.017 88.4269C137.452 88.9509 135.757 87.6409 136.148 86.4619C136.539 85.2829 137.191 85.1519 137.061 84.7589C136.93 84.3659 136.017 83.8419 136.278 83.0569C136.539 82.2709 139.017 82.2709 139.278 82.4019C139.669 82.5329 140.321 83.4489 140.973 82.7949C141.495 82.1399 141.625 81.2229 142.538 80.9609C143.451 80.6989 145.276 80.1749 146.189 81.2229C146.972 82.1399 146.059 82.6639 145.798 83.4489C145.276 83.9729 144.885 84.4969 144.364 85.0209C144.233 85.0209 143.972 85.0209 143.842 85.0209C142.799 84.8899 141.886 84.3659 141.364 84.4969C141.234 84.4969 141.234 84.4969 141.103 84.6279C141.234 85.2829 141.364 85.5449 141.234 86.0689Z" fill="#1BA9F5"/>
<path d="M131.584 87.7719C130.932 88.1649 129.497 86.9859 129.497 85.6759C129.497 84.8899 129.888 84.3659 130.541 84.1039C131.323 83.8429 132.497 84.105 132.888 84.628C132.757 84.366 132.757 84.104 132.888 83.712C133.149 82.926 133.931 82.5329 134.583 82.7949C135.235 83.0569 135.757 83.974 135.366 84.628C135.105 85.283 134.322 85.5449 133.67 85.2829C133.279 85.1519 133.018 84.8899 132.888 84.7589C132.888 84.7589 132.888 84.7589 132.888 84.8899C133.41 86.3309 132.236 87.2479 131.584 87.7719Z" fill="#1BA9F5"/>
<path d="M150.102 62.4929C149.841 63.2779 148.667 64.0639 148.146 63.8019C148.015 63.6709 147.885 63.5399 147.754 63.2779C146.972 63.4089 145.798 62.4929 145.538 61.4449C145.277 60.6589 145.668 60.1349 146.45 59.8729C147.885 59.4799 148.928 59.8729 149.189 60.7899C149.319 60.7899 149.319 60.7899 149.45 60.7899C149.971 61.1829 150.363 61.8379 150.102 62.4929Z" fill="#1BA9F5"/>
<path d="M161.187 15.7321C160.926 14.8161 161.578 13.6371 162.491 13.3751C163.404 13.1131 164.056 13.3751 164.316 14.0301C164.708 14.9471 163.925 16.3871 163.012 16.6491C162.491 16.9111 161.578 16.5181 161.187 15.7321Z" fill="#1BA9F5"/>
<path d="M164.577 24.1151C164.707 24.9011 164.186 25.8181 163.403 25.9491C162.751 26.0801 162.099 25.6871 161.838 25.0321C161.838 25.0321 161.708 25.0321 161.708 25.1631C161.056 25.2941 160.143 24.9011 159.882 24.2461C159.621 23.5911 160.143 22.8051 160.925 22.5431C161.708 22.2821 162.36 22.6741 162.621 23.3291C162.751 23.3291 162.751 23.1981 162.882 23.1981C163.534 22.9361 164.446 23.4601 164.577 24.1151Z" fill="#1BA9F5"/>
<path d="M84.5059 96.548C85.1579 95.762 86.0709 96.024 86.8529 96.679C86.9839 97.465 86.9839 98.381 86.0709 98.774C85.4189 99.036 84.636 98.774 84.376 98.119C84.245 97.596 84.2449 96.81 84.5059 96.548Z" fill="#1BA9F5"/>
<path d="M156.622 67.6009C156.622 67.3389 156.883 67.2079 157.013 67.0769C156.883 67.3389 156.753 67.6009 156.622 67.9939C156.622 67.7319 156.622 67.6009 156.622 67.6009Z" fill="#1BA9F5"/>
<path d="M164.708 32.8909C163.925 33.0219 162.882 32.3669 162.751 31.5809C162.491 30.6639 163.534 28.8299 164.316 28.6989C164.968 28.5679 165.751 29.0919 166.142 29.7469C166.142 30.5329 166.142 31.4499 166.142 32.2359C165.62 32.4979 165.229 32.7599 164.708 32.8909Z" fill="#1BA9F5"/>
<path d="M86.5921 110.17C87.3751 109.384 88.6791 108.86 89.4611 109.122C90.5051 109.515 91.1571 110.301 91.2871 111.218C89.2011 111.349 86.9841 111.48 84.7671 111.48C84.7671 111.218 84.7671 111.087 84.7671 110.825C85.1581 110.301 85.9401 109.908 86.5921 110.17Z" fill="#1BA9F5"/>
<path d="M100.025 108.86C100.155 108.598 100.155 108.205 100.155 107.943C100.286 106.895 100.807 106.371 101.459 106.502C102.372 106.633 102.763 107.419 102.372 108.598C102.372 108.729 102.242 108.729 102.111 108.86C101.981 109.253 102.111 109.515 102.242 109.646C101.329 109.777 100.546 110.039 99.634 110.17C99.634 109.646 99.764 109.253 100.025 108.86Z" fill="#1BA9F5"/>
<path d="M63.1189 108.598C62.8579 108.598 62.5969 108.467 62.3359 108.467C62.5969 108.336 62.8579 108.467 63.1189 108.598Z" fill="#1BA9F5"/>
<path d="M143.06 18.0901C143.842 17.6971 145.146 17.6971 145.277 19.2691C145.407 20.8411 144.103 21.8881 142.799 22.1501C141.495 22.4121 139.408 20.5791 139.539 19.0071C139.539 18.4831 139.93 18.0901 140.452 17.9591C140.582 17.6971 140.973 17.5661 141.104 17.4351C141.234 17.4351 141.756 17.5661 141.756 17.8281C141.756 17.9591 141.756 17.9591 141.625 18.0901C142.408 18.7451 142.277 18.4831 143.06 18.0901Z" fill="#1BA9F5"/>
<path d="M83.072 81.2231C82.811 81.0921 82.419 80.9611 82.55 80.4371C82.68 79.9131 83.072 80.0441 83.202 80.0441C83.463 80.1751 84.115 80.4371 83.984 80.8301C83.854 81.2231 83.202 81.3541 83.072 81.2231Z" fill="#1BA9F5"/>
<path d="M83.854 99.5601C83.593 99.4291 83.332 99.0361 83.462 98.7741C83.462 98.5121 83.984 97.9881 84.375 98.1191C84.767 98.2501 84.636 98.9051 84.636 99.2981C84.375 99.4291 84.114 99.6911 83.854 99.5601Z" fill="#1BA9F5"/>
<path d="M84.3751 87.7719C83.8541 88.0339 83.0711 87.6409 82.8101 87.1169C82.5501 86.4619 82.8111 86.0689 84.2451 85.5449C85.4191 86.0689 85.0271 87.5099 84.3751 87.7719Z" fill="#1BA9F5"/>
<path d="M128.845 95.2379C129.888 94.8449 131.193 95.3689 131.975 96.1549C130.541 97.2029 129.106 98.1189 127.672 99.0359C127.541 98.7739 127.411 98.5119 127.28 98.1189C127.02 96.9409 127.672 95.6309 128.845 95.2379Z" fill="#1BA9F5"/>
<path d="M145.929 72.316C147.363 72.054 148.928 72.971 149.189 74.15C149.45 75.722 148.667 77.163 147.233 77.555C146.972 77.555 146.711 77.686 146.45 77.686C146.45 77.817 146.32 77.948 146.32 78.079C146.059 78.472 145.407 79.389 144.886 79.127C144.364 78.865 144.233 77.686 144.364 77.163C144.494 76.901 144.625 76.77 144.755 76.639C144.494 76.377 144.364 75.984 144.233 75.46C143.842 73.888 144.494 72.578 145.929 72.316Z" fill="#1BA9F5"/>
<path d="M142.408 79.3891C141.756 79.5201 141.234 78.9961 140.843 78.6031C140.451 78.2101 140.973 77.4241 141.495 77.1621C142.277 76.9011 142.799 77.2931 142.799 77.8171C142.929 78.4721 143.06 79.2581 142.408 79.3891Z" fill="#1BA9F5"/>
<path d="M148.667 40.4881C148.015 40.6191 147.233 40.0951 147.102 39.3091C146.972 38.6541 147.363 37.8681 148.015 37.7371C148.798 37.4751 149.45 37.8681 149.711 38.6541C149.841 39.4401 149.319 40.2261 148.667 40.4881Z" fill="#1BA9F5"/>
<path d="M148.928 70.22C147.754 70.482 146.45 69.828 146.19 68.649C145.798 66.946 146.45 65.374 147.754 65.112C148.146 64.981 148.537 65.112 148.798 65.112C148.667 64.719 148.667 64.326 148.798 63.933C149.189 63.148 149.711 62.886 150.493 63.017C151.536 63.148 151.536 64.195 151.797 65.112C151.276 65.505 150.754 65.898 150.232 65.898C150.493 66.16 150.754 66.553 150.884 66.946C151.145 68.256 150.102 69.828 148.928 70.22Z" fill="#1BA9F5"/>
<path d="M144.233 66.6839C144.494 67.8629 143.451 69.5649 142.147 69.8269C140.843 70.0889 139.539 69.4339 139.278 68.2559V68.1249H139.147C138.234 67.9939 137.582 66.9459 137.713 66.1599C137.974 65.3739 139.017 64.8499 139.669 65.1119C139.799 65.1119 139.799 65.2429 139.93 65.2429C140.191 64.8499 140.451 64.5879 140.843 64.5879C142.147 64.3259 143.972 65.5049 144.233 66.6839Z" fill="#1BA9F5"/>
<path d="M148.145 46.9061C146.841 47.2991 146.059 46.7751 145.668 45.3341C145.407 44.1551 145.928 42.9761 146.711 42.8451C147.754 42.7141 149.189 43.7621 149.449 44.8101C149.71 45.8581 149.189 46.6441 148.145 46.9061Z" fill="#1BA9F5"/>
<path d="M141.495 73.102C141.234 72.84 140.973 72.316 140.973 71.923C140.973 71.268 142.147 71.006 142.668 71.399C142.929 71.661 143.06 72.185 143.19 72.316C142.668 73.102 142.016 73.495 141.495 73.102Z" fill="#1BA9F5"/>
<path d="M154.144 35.904C155.449 35.773 156.753 36.558 157.013 37.606C157.274 38.785 157.013 39.702 156.231 40.357C156.753 40.488 157.274 40.75 157.665 41.274C158.709 42.846 158.448 44.4171 157.405 45.0721C156.753 45.5961 155.579 45.596 154.666 45.203C154.666 45.858 154.275 46.382 153.753 46.644C153.101 46.775 152.319 46.251 152.058 45.596C151.797 44.81 152.319 44.0241 152.971 43.8931C153.101 43.8931 153.101 43.8931 153.232 43.8931C152.84 42.7151 153.492 41.798 154.014 41.274L154.144 41.1431C153.232 41.0121 152.71 40.357 152.319 39.178C152.188 38.785 152.188 38.392 152.188 37.999C151.927 38.13 151.536 38.13 151.145 37.999C150.623 37.868 150.363 37.213 150.232 36.689C150.102 37.082 149.971 37.344 149.841 37.344C149.45 37.475 148.667 36.689 148.406 36.297C148.015 35.773 148.537 35.118 149.189 34.987C149.971 34.725 150.363 35.118 150.363 35.773C150.363 35.642 150.363 35.642 150.493 35.511C150.884 34.856 151.927 34.201 152.71 34.332C153.884 34.332 154.144 35.511 154.144 35.904Z" fill="#1BA9F5"/>
<path d="M152.449 15.2089C152.58 15.3399 152.319 15.8629 152.058 15.8629C151.797 15.8629 151.276 15.7319 151.276 15.4699C151.145 15.3399 151.276 14.5539 151.667 14.4229C151.928 14.2919 152.319 14.9469 152.449 15.2089Z" fill="#1BA9F5"/>
<path d="M141.886 47.4301C142.016 48.2161 141.495 48.8701 140.712 49.0011C140.973 49.3941 141.104 49.7871 141.104 50.3111C141.104 50.9661 141.104 51.6211 141.625 52.1451C142.408 52.9311 142.147 53.9791 141.886 55.0271C141.625 55.9431 140.582 56.5981 139.539 56.5981C139.408 56.5981 139.408 56.5981 139.278 56.5981C139.799 56.9911 140.191 57.5151 140.321 58.0391C140.451 58.9561 139.799 59.7421 138.495 60.0041C137.582 60.2661 136.409 59.7421 136.148 58.9561C135.887 57.9081 136.67 56.4671 137.582 56.2051C137.713 56.2051 137.843 56.2051 137.974 56.2051C137.713 55.9431 137.452 55.6821 137.322 55.2891C136.8 54.2411 136.93 53.1931 137.191 52.2761C137.322 51.8831 137.322 51.4901 137.191 51.0971C136.67 49.6561 137.061 48.7401 138.495 48.3471C138.365 48.2161 138.234 48.0851 138.234 47.8231C138.104 47.1681 138.756 46.5131 139.669 46.2511C140.843 46.1201 141.756 46.5131 141.886 47.4301Z" fill="#1BA9F5"/>
<path d="M139.017 70.744C139.408 71.006 140.19 71.661 139.799 72.316C139.408 72.971 138.365 72.84 137.973 72.709C137.321 72.578 137.321 71.923 137.582 71.268C137.713 70.613 138.495 70.351 139.017 70.744Z" fill="#1BA9F5"/>
<path d="M138.756 31.9739C138.104 32.1049 137.973 31.5809 137.843 31.1879C137.713 30.5329 138.104 29.8779 138.756 29.8779C139.278 29.8779 139.669 30.2709 139.93 30.2709C140.06 31.1879 139.408 31.8429 138.756 31.9739Z" fill="#1BA9F5"/>
<path d="M141.103 35.6421C141.625 35.6421 142.016 36.0351 142.277 36.0351C142.538 37.0821 142.016 37.7371 141.234 37.8681C140.582 37.9991 140.451 37.4751 140.321 37.0821C140.191 36.2971 140.451 35.6421 141.103 35.6421Z" fill="#1BA9F5"/>
<path d="M134.061 93.5349C133.67 93.4039 133.149 93.1419 133.018 92.4869C132.366 92.4869 131.844 92.0939 131.714 91.5699C131.584 90.7839 132.105 89.9989 132.757 89.8679C133.018 89.8679 133.279 89.8679 133.54 89.9989C134.322 89.0819 135.626 88.8199 136.278 89.4749C137.061 90.3909 136.67 91.0459 137.191 91.1769C137.583 91.1769 138.104 91.0459 138.626 91.1769C137.452 92.2249 136.148 93.2729 134.974 94.3209C134.713 93.7969 134.453 93.5349 134.061 93.5349Z" fill="#1BA9F5"/>
<path d="M94.156 102.835C92.983 103.489 90.766 103.882 89.07 102.18C88.027 101.132 87.766 100.084 87.897 99.0359C88.157 97.8569 89.592 97.7259 90.244 96.5469C91.809 94.0589 93.895 94.8449 95.33 96.1549C95.852 96.6779 96.112 97.2019 96.243 97.8569C96.373 98.7739 96.112 99.5599 95.46 100.346C94.939 101.263 95.069 102.311 94.156 102.835Z" fill="#1BA9F5"/>
<path d="M159.231 -0.771057C158.97 -1.16406 159.361 -1.68795 159.752 -1.94995C160.143 -1.16405 160.404 -0.247158 160.795 0.538742C160.143 0.669742 159.491 -0.378157 159.231 -0.771057Z" fill="#1BA9F5"/>
<path d="M163.925 18.221C163.664 17.173 164.056 16.256 164.838 15.863C165.099 17.173 165.229 18.483 165.36 19.793C164.577 19.662 164.056 19.138 163.925 18.221Z" fill="#1BA9F5"/>
<path d="M116.978 104.275C116.717 103.882 116.586 103.358 116.847 102.835C117.108 102.049 118.021 101.787 118.673 102.049C119.195 102.311 119.586 103.097 119.455 103.751C118.282 104.275 117.108 104.799 115.934 105.323C116.195 104.799 116.586 104.537 116.978 104.275Z" fill="#1BA9F5"/>
<path d="M158.448 63.933C158.317 63.409 158.578 62.885 159.1 62.624C158.969 63.016 158.709 63.54 158.448 63.933Z" fill="#1BA9F5"/>
<path d="M120.89 102.704C120.76 102.311 120.629 101.918 120.76 101.656C120.499 100.346 121.151 99.298 122.325 99.036C122.846 98.905 123.368 99.036 123.759 99.167C123.759 99.036 123.759 99.036 123.759 98.905C123.889 98.25 124.281 97.727 124.933 97.727C125.846 97.596 126.367 98.119 126.889 98.774C127.019 99.036 127.15 99.167 127.15 99.429C125.063 100.739 122.977 101.918 120.89 102.966C121.02 102.835 121.02 102.704 120.89 102.704Z" fill="#1BA9F5"/>
<path d="M101.198 101.787C99.372 101.394 98.46 100.215 98.59 99.0359C98.72 97.8569 100.546 96.4169 101.85 96.8099C103.415 97.2029 103.806 98.5119 103.806 99.4289C103.937 100.346 103.024 102.18 101.198 101.787Z" fill="#1BA9F5"/>
<path d="M96.8951 80.175C96.8951 79.651 97.1561 78.603 97.9381 78.341C98.5901 77.948 99.2421 77.293 99.8941 77.555C100.416 77.817 100.677 78.079 100.807 78.341C100.938 78.734 101.329 78.996 101.329 79.651C101.329 80.306 100.938 81.4851 100.155 81.8781C99.3731 82.4021 98.5901 82.2711 97.8081 81.8781C97.0251 81.4851 96.8951 80.699 96.8951 80.175Z" fill="#1BA9F5"/>
<path d="M116.978 70.6131C116.195 70.3511 115.804 69.0421 116.195 67.8631C116.456 67.0771 116.978 66.9461 117.63 67.2081C118.543 67.4701 119.325 68.5181 119.064 69.3031C118.804 70.0891 117.63 70.8751 116.978 70.6131Z" fill="#1BA9F5"/>
<path d="M96.373 67.339C96.764 67.47 96.764 67.863 96.634 67.994C96.504 68.256 96.243 68.78 95.721 68.649C95.199 68.518 95.46 67.863 95.46 67.732C95.721 67.47 95.982 67.208 96.373 67.339Z" fill="#1BA9F5"/>
<path d="M96.1121 95.5001C95.4601 95.3691 95.3301 94.8451 95.4601 94.1901C95.5911 93.6661 95.9821 93.142 96.6341 93.273C97.2861 93.404 97.8081 94.19 97.5471 95.107C97.1561 95.369 96.5041 95.6311 96.1121 95.5001Z" fill="#1BA9F5"/>
<path d="M94.286 63.2779C95.199 63.5399 95.851 64.5879 95.46 65.2429C95.069 65.8979 92.852 65.7669 92.33 65.1119C92.069 64.4569 93.374 63.1469 94.286 63.2779Z" fill="#1BA9F5"/>
<path d="M91.0261 84.89C90.6351 84.89 90.3741 84.366 90.5051 83.45C90.6351 82.533 91.1571 82.009 92.0701 82.009C93.1131 82.009 94.1561 83.057 94.0261 84.235C94.0261 85.414 93.2431 85.545 93.3741 86.331C93.3741 87.117 92.9831 87.379 92.2001 87.641C91.4181 87.903 90.2441 88.165 89.8531 87.117C89.4611 86.069 90.2441 85.676 90.6351 85.545C91.0261 85.676 91.4181 85.021 91.0261 84.89Z" fill="#1BA9F5"/>
<path d="M89.7219 71.7921C88.6789 71.1371 88.0269 69.9581 88.2879 69.3031C88.5489 68.7801 89.0699 68.5181 89.7219 68.5181C90.8959 68.6491 91.1569 69.0421 91.2869 70.4821C92.0699 71.1371 92.7219 71.5301 93.3739 72.1851C93.8949 72.8401 93.5039 73.8881 92.7219 73.7571C91.8089 73.6261 90.6349 73.8881 89.8529 72.9711C89.8529 72.7091 89.7219 72.1851 89.7219 71.7921Z" fill="#1BA9F5"/>
<path d="M82.0281 98.6429C81.7671 99.6909 80.3331 100.739 79.5501 100.477C78.5071 100.215 77.5941 98.7739 77.9851 97.7259C78.2461 96.6779 79.8111 96.0239 81.1151 96.4169C81.8981 96.6779 82.2891 97.5949 82.0281 98.6429Z" fill="#1BA9F5"/>
<path d="M63.379 104.145C63.118 104.014 63.118 103.883 62.988 103.752H62.858C61.945 103.49 61.162 102.442 61.423 101.656C61.684 100.739 62.858 99.9529 63.64 100.084C64.423 100.215 64.814 101.394 64.683 102.573C64.944 102.835 65.075 103.359 65.335 103.621C64.944 104.276 64.031 104.537 63.379 104.145Z" fill="#1BA9F5"/>
<path d="M91.6781 108.598C92.2001 107.55 93.2431 107.026 94.0251 107.419C94.1561 107.419 94.2861 107.55 94.2861 107.681C94.4171 107.026 94.8081 106.371 95.3301 105.716C95.9821 104.93 97.9381 105.061 98.5901 105.847C99.2421 106.633 98.9811 108.729 97.6771 109.384C96.7641 109.908 95.8511 109.908 95.1991 109.515C95.1991 109.908 95.1991 110.301 95.0691 110.694C95.0691 110.694 95.0691 110.824 94.9381 110.824C94.0251 110.955 93.1131 111.086 92.2001 111.217C91.4171 110.563 91.2871 109.646 91.6781 108.598Z" fill="#1BA9F5"/>
<path d="M82.4189 111.479C81.8979 111.479 81.2459 111.479 80.7239 111.479C81.1149 111.217 81.7669 111.217 82.4189 111.479Z" fill="#1BA9F5"/>
<path d="M39.515 93.404C39.776 93.666 39.254 94.583 38.993 94.714C38.732 94.845 38.08 94.583 37.95 94.452C37.82 94.19 37.95 93.666 38.211 93.404C38.341 93.142 39.254 93.011 39.515 93.404Z" fill="#1BA9F5"/>
<path d="M81.246 106.895C81.767 107.026 82.289 107.419 82.028 108.074C81.898 108.729 80.985 109.253 80.463 108.991C80.072 108.729 79.159 107.943 79.55 107.288C79.811 106.633 80.724 106.764 81.246 106.895Z" fill="#1BA9F5"/>
<path d="M49.9471 94.1901C48.7741 93.6661 48.1221 91.8321 48.6431 90.6531C49.2951 89.3441 50.8601 88.5581 52.0341 89.0821C53.0771 89.6061 53.9901 91.9631 53.5991 93.0111C53.0771 94.3211 51.2521 94.8451 49.9471 94.1901Z" fill="#1BA9F5"/>
<path d="M59.337 100.477C59.076 100.346 58.554 99.822 58.685 99.56C58.815 99.298 59.597 99.167 59.858 99.298C60.119 99.429 60.38 99.822 60.249 100.215C60.119 100.477 59.597 100.608 59.337 100.477Z" fill="#1BA9F5"/>
<path d="M67.5529 92.6181C67.4219 92.6181 67.1609 92.0941 67.2919 91.8321C67.4219 91.5701 67.9439 91.5701 68.2049 91.5701C68.3349 91.5701 68.8569 92.0941 68.7259 92.3561C68.4649 92.8801 67.8129 92.7491 67.5529 92.6181Z" fill="#1BA9F5"/>
<path d="M75.638 88.689C76.42 87.903 77.855 87.51 78.637 88.034C79.68 88.558 80.202 89.605 80.333 90.784C80.333 91.177 80.202 91.701 79.941 91.963C78.898 93.011 77.464 93.011 76.29 92.094C76.029 91.963 75.768 91.701 75.507 91.57C75.116 92.094 74.855 92.487 74.464 92.88C73.682 93.666 73.16 93.666 72.378 93.142C71.595 92.618 71.334 91.832 71.465 90.915C71.595 89.998 72.378 89.605 73.16 89.475C73.812 89.344 74.334 89.475 74.986 89.606C75.247 89.213 75.507 88.951 75.638 88.689Z" fill="#1BA9F5"/>
<path d="M100.155 88.951C99.7641 88.82 99.6331 88.689 99.6331 88.296C99.7641 87.903 99.8941 87.772 100.285 87.772C100.677 87.903 100.807 88.034 100.677 88.427C100.807 88.82 100.677 88.951 100.155 88.951Z" fill="#1BA9F5"/>
<path d="M82.9409 106.633C82.9409 106.502 82.8109 106.502 82.8109 106.371C82.1589 106.764 80.9849 106.895 80.3329 106.633C79.6809 106.371 79.4199 105.585 79.6809 104.799C80.2019 103.621 81.2459 102.966 82.0279 103.359C82.6799 103.621 83.2019 104.144 83.3319 104.799C83.7229 104.537 84.3749 104.537 84.7669 104.799C85.5489 105.323 85.4189 106.24 85.1579 107.026C84.3749 107.157 83.5929 107.681 82.9409 106.633Z" fill="#1BA9F5"/>
<path d="M72.508 84.3659C72.247 83.7119 72.769 82.5329 73.943 82.7949C74.986 83.3189 74.595 84.6279 74.073 84.8899C73.551 85.2829 72.638 84.8899 72.508 84.3659Z" fill="#1BA9F5"/>
<path d="M71.4649 105.061C70.5519 104.799 69.8999 103.489 70.2909 102.442C70.5519 101.394 71.3339 101.132 72.6379 101.525C73.4209 101.787 74.0729 102.573 74.2029 103.228C74.3339 103.228 74.3339 103.228 74.4639 103.228C75.2469 103.489 75.6379 104.144 75.5069 105.192C75.3769 105.716 75.3769 106.24 75.5069 106.764C75.7679 107.681 75.6379 108.467 74.9859 109.122C74.4639 109.646 72.6379 109.253 72.1169 108.598C71.5949 107.943 71.0729 107.419 71.7249 106.502C71.9859 106.109 72.2469 105.716 72.5079 105.192C72.1169 105.061 71.7249 105.192 71.4649 105.061Z" fill="#1BA9F5"/>
<path d="M74.203 95.107C74.464 95.893 74.464 95.631 75.247 95.762C76.029 95.893 77.072 96.81 76.29 97.988C75.508 99.298 73.682 99.298 72.508 98.643C71.334 98.119 70.813 95.369 71.856 94.19C72.639 93.404 73.943 94.321 74.203 95.107Z" fill="#1BA9F5"/>
<path d="M106.545 108.336C106.284 108.205 105.893 107.681 106.024 107.419C106.024 107.288 106.154 107.026 106.284 106.764C105.763 106.764 105.372 106.502 105.111 106.24C104.589 105.716 104.719 105.061 104.85 104.406C104.98 103.751 104.98 103.228 105.763 102.835C106.676 102.442 107.849 103.097 108.11 104.013C108.241 104.406 108.241 104.93 108.11 105.454C108.893 105.847 109.414 106.633 109.023 107.419C108.893 107.55 108.762 107.681 108.632 107.812C107.98 107.943 107.328 108.205 106.806 108.336C106.676 108.467 106.676 108.467 106.545 108.336Z" fill="#1BA9F5"/>
<path d="M113.196 37.999C113.587 38.13 113.718 39.047 113.587 39.309C113.457 39.571 112.805 39.833 112.544 39.702C112.283 39.571 112.022 39.047 112.022 38.785C112.153 38.392 112.805 37.868 113.196 37.999Z" fill="#1BA9F5"/>
<path d="M103.284 72.185C103.024 72.185 102.632 71.792 102.632 71.661C102.632 71.399 102.893 70.875 103.154 70.875C103.415 70.875 104.067 70.875 104.067 71.399C104.197 72.054 103.545 72.185 103.284 72.185Z" fill="#1BA9F5"/>
<path d="M108.892 53.062C109.283 53.062 109.805 53.324 109.936 53.717C110.196 54.241 109.805 54.896 109.283 55.027C108.892 55.027 107.849 55.027 107.719 54.241C107.588 53.324 108.501 53.193 108.892 53.062Z" fill="#1BA9F5"/>
<path d="M111.631 65.7671C111.761 65.7671 112.022 65.7671 112.152 65.8981C112.804 66.1601 113.196 67.0771 112.804 67.7321C112.544 68.3871 111.631 68.9111 110.979 68.6491C110.457 68.5181 109.935 67.7321 109.935 67.2081C109.675 67.0771 109.414 66.9461 109.283 66.6841C108.892 65.7671 109.022 64.9811 110.327 64.8501C111.109 64.8501 111.5 65.2431 111.631 65.7671Z" fill="#1BA9F5"/>
<path d="M120.629 26.9969C121.803 26.7349 123.889 28.0449 124.15 29.2229C124.541 30.4019 123.498 31.9739 122.064 32.2359C120.89 32.4979 119.195 31.4499 118.934 30.2709C118.543 28.8299 119.456 27.2589 120.629 26.9969Z" fill="#1BA9F5"/>
<path d="M115.413 55.9441C115.543 56.0751 115.674 56.2061 115.804 56.3371C115.804 56.2061 115.935 56.2061 116.065 56.0751C116.847 55.6821 118.282 56.8601 118.152 57.5151C118.021 58.0391 116.456 58.5631 115.804 58.1701C115.283 58.6941 114.239 58.6941 113.848 57.9081C113.718 57.5151 114.239 56.7291 114.631 56.2061C114.631 56.0751 114.891 55.6821 115.413 55.9441Z" fill="#1BA9F5"/>
<path d="M118.934 42.3209C120.107 42.0599 121.281 42.8449 121.672 44.0239C122.064 45.5959 121.151 47.0369 119.716 47.2989C118.412 47.5609 117.369 47.0369 117.108 45.8579C116.717 44.5479 117.76 42.5829 118.934 42.3209Z" fill="#1BA9F5"/>
<path d="M112.935 70.7439C112.674 70.8749 112.022 70.7439 111.892 70.2199C111.761 69.6969 112.152 69.3039 112.413 69.1729C112.674 69.0419 113.587 68.9109 113.717 69.5659C114.109 70.2199 113.196 70.6129 112.935 70.7439Z" fill="#1BA9F5"/>
<path d="M108.632 62.0999C109.153 62.2309 109.414 62.7549 109.284 63.4089C109.153 64.0639 108.501 64.4569 107.98 64.3259C107.328 64.0639 106.936 63.4089 107.067 62.7549C107.458 62.0999 107.98 61.8379 108.632 62.0999Z" fill="#1BA9F5"/>
<path d="M114.891 80.175C115.021 80.175 115.413 80.175 115.413 80.306C115.543 80.437 115.282 80.5681 115.152 80.6991C115.021 80.5681 114.761 80.568 114.63 80.437C114.761 80.437 114.891 80.175 114.891 80.175Z" fill="#1BA9F5"/>
<path d="M118.803 92.225C118.282 92.487 117.369 91.832 117.369 91.177C117.369 90.784 117.76 90.391 117.891 90.26C118.803 90.129 119.586 90.522 119.455 91.177C119.455 91.57 119.195 92.094 118.803 92.225Z" fill="#1BA9F5"/>
<path d="M115.543 88.9509C115.021 88.6889 114.761 87.3789 115.152 86.7239C115.413 86.1999 116.065 86.0689 116.717 86.4619C117.63 87.1169 118.151 87.7719 117.89 88.2959C117.63 88.8199 116.195 89.2129 115.543 88.9509Z" fill="#1BA9F5"/>
<path d="M105.111 70.0891C105.371 69.3031 107.067 68.2561 107.719 68.5181C108.762 68.9111 109.023 69.6961 108.501 71.0061C108.11 72.0541 107.327 72.3161 106.023 71.7921C105.371 71.5301 104.98 70.8751 105.111 70.0891Z" fill="#1BA9F5"/>
<path d="M113.717 74.1499C113.065 74.0189 112.283 73.7569 111.631 73.4949C110.979 73.2329 110.979 72.84 111.24 72.185C111.37 72.054 111.631 71.923 111.892 71.923C112.544 72.185 113.196 71.9229 113.848 71.6609C114.109 71.5299 114.761 71.9229 115.022 72.3159C115.152 72.7089 115.152 73.364 115.022 73.626C114.63 74.019 113.978 74.2809 113.717 74.1499Z" fill="#1BA9F5"/>
<path d="M107.588 79.6509C106.806 79.2579 105.763 77.4239 106.023 76.7689C106.415 75.9839 107.849 75.5909 109.023 75.9829C110.066 76.3759 110.327 77.2929 109.805 78.6029C109.414 79.3889 108.24 79.9129 107.588 79.6509Z" fill="#1BA9F5"/>
<path d="M124.672 53.4551C124.802 54.1101 123.759 54.7651 122.586 54.6341C121.412 54.5031 121.542 52.9311 121.803 52.5381C122.194 52.0141 124.542 52.9311 124.672 53.4551Z" fill="#1BA9F5"/>
<path d="M110.196 106.895C110.327 106.895 110.718 106.895 110.848 107.026C110.457 107.157 109.936 107.288 109.544 107.419C109.675 107.288 110.066 107.026 110.196 106.895Z" fill="#1BA9F5"/>
<path d="M121.542 97.9879C120.89 99.5599 119.455 100.346 118.021 99.6909C116.978 99.2979 116.456 98.5119 116.586 97.4639C116.456 97.5949 116.326 97.7259 116.065 97.8569C115.413 98.1189 114.239 97.5949 114.109 96.8089C113.978 96.2859 114.369 95.7619 115.022 95.2379C115.022 94.8449 115.022 94.3209 115.152 93.9279C115.543 92.7489 117.238 91.9629 118.412 92.3559C118.803 92.4869 119.195 92.7489 119.455 93.1419C119.586 93.0109 119.716 92.8799 119.977 92.8799C120.76 92.8799 121.151 93.7969 121.412 94.1899C121.542 94.7139 121.281 94.9759 120.89 95.1069C121.412 96.0239 121.803 97.2019 121.542 97.9879Z" fill="#1BA9F5"/>
<path d="M127.671 58.0391C128.714 58.0391 129.888 59.2181 130.019 60.2661C130.149 60.9211 130.019 61.4451 129.367 61.7071C127.802 62.2311 126.367 62.6241 124.672 62.1001C124.411 61.9691 124.15 61.8381 124.02 61.7071C122.846 60.5281 123.107 58.9561 124.672 58.5631C125.715 58.1701 126.758 58.0391 127.671 58.0391Z" fill="#1BA9F5"/>
<path d="M104.849 84.759C104.98 84.497 105.632 84.497 105.893 84.759C106.154 85.021 106.154 85.414 105.893 85.676C105.632 85.938 105.11 85.938 104.849 85.807C104.589 85.676 104.719 85.021 104.849 84.759Z" fill="#1BA9F5"/>
<path d="M102.633 95.2379C101.198 94.9759 100.416 94.0589 100.285 92.2249C100.807 91.9629 101.198 91.4389 101.72 91.3079C102.633 90.9149 103.807 91.3079 104.198 91.9629C104.719 92.8799 104.719 94.1899 103.937 94.8449C103.676 95.1069 103.024 95.3689 102.633 95.2379Z" fill="#1BA9F5"/>
<path d="M107.849 91.7009C107.588 92.0939 107.197 92.4869 106.806 92.4869C106.024 92.7489 105.371 92.2249 105.241 91.4389C105.111 90.6539 105.371 89.9989 106.154 89.8679C106.284 89.8679 106.545 89.8679 106.806 89.8679C106.676 89.6059 106.676 89.2129 106.806 89.0819C107.197 88.1649 108.11 87.7719 109.284 88.1649C110.457 88.5579 110.718 89.2129 110.327 90.5229C109.936 91.7009 109.153 92.2249 108.371 91.9629C107.98 91.7009 107.98 91.7009 107.849 91.7009Z" fill="#1BA9F5"/>
<path d="M120.499 87.2479C121.151 86.5929 121.672 85.9379 122.585 86.7239C123.368 87.3789 123.107 88.165 122.585 88.82C121.412 88.82 120.76 88.4269 120.499 87.2479Z" fill="#1BA9F5"/>
<path d="M108.501 98.5119C109.414 96.6789 110.066 96.6789 112.022 97.2029C113.196 97.4649 113.717 99.0359 113.326 100.215C112.935 101.263 111.109 101.787 109.675 101.263C108.501 100.87 107.979 99.6909 108.501 98.5119Z" fill="#1BA9F5"/>
<path d="M125.194 91.9631V92.0941C124.933 92.8801 124.411 93.1421 123.629 93.0111C122.846 92.7491 122.455 91.9631 122.585 91.3081C122.716 90.7851 123.107 90.5231 123.629 90.5231C123.759 89.7371 124.542 88.6891 125.324 88.4271C126.106 88.2961 127.411 89.2131 127.541 90.1301C127.671 90.7851 127.15 91.8321 126.498 91.9631C125.976 92.0941 125.585 92.0941 125.194 91.9631Z" fill="#1BA9F5"/>
<path d="M132.366 47.299C133.018 47.168 133.8 47.561 134.061 48.347C134.322 49.132 133.931 49.918 133.148 50.18C132.366 50.442 131.583 49.918 131.323 49.263C131.192 48.478 131.714 47.561 132.366 47.299Z" fill="#1BA9F5"/>
<path d="M128.845 41.6671C129.497 41.4051 130.28 41.6671 130.54 42.3211C130.671 42.7141 130.671 43.2381 130.54 43.6311C130.149 44.4171 129.497 44.4171 128.063 43.7621C128.063 42.9761 127.671 42.0591 128.845 41.6671Z" fill="#1BA9F5"/>
<path d="M131.844 51.3589C132.888 51.7519 133.018 53.193 132.627 53.848C132.105 54.503 130.801 54.5029 130.279 53.4549C130.018 53.0619 130.149 52.1449 130.54 51.7519C130.671 51.3589 131.453 51.2279 131.844 51.3589Z" fill="#1BA9F5"/>
<path d="M127.019 91.8321C127.541 90.5231 128.323 90.2611 129.758 90.7841C130.801 91.1771 131.453 92.2251 131.192 93.0111C130.801 94.0591 128.845 94.8451 127.671 94.3211C126.889 94.0591 126.628 92.8801 127.019 91.8321Z" fill="#1BA9F5"/>
<path d="M132.888 30.271C133.149 30.271 133.67 30.402 133.801 30.664C133.931 31.057 133.54 31.319 133.279 31.45C133.018 31.581 132.236 31.45 132.236 31.057C132.105 30.795 132.757 30.271 132.888 30.271Z" fill="#1BA9F5"/>
</g>
<defs>
<clipPath id="clip0">
<rect width="226" height="144" fill="white" transform="matrix(-1 0 0 1 226 0)"/>
</clipPath>
</defs>
</svg>
