<svg width="407" height="355" viewBox="0 0 407 355" fill="none" xmlns="http://www.w3.org/2000/svg">
<g clip-path="url(#clip0_658:56354)">
<path d="M298.665 66.6656C298.866 66.7663 299.467 66.5654 299.467 66.3645C299.467 66.1636 299.066 65.7617 298.866 65.7617C298.665 65.7617 298.264 65.862 298.264 66.1636C298.264 66.4647 298.465 66.6656 298.665 66.6656Z" fill="#E6EBF2"/>
<path d="M302.771 87.76C302.771 87.8607 302.771 88.1618 302.971 88.3627C302.971 88.4634 302.971 88.5636 302.871 88.6643C302.871 89.1664 302.971 89.5682 303.472 89.6688C304.674 89.97 305.877 90.1709 307.078 89.7691C307.279 89.6688 307.48 89.4679 307.58 89.4679C308.381 88.4634 308.081 87.3582 306.878 87.057C306.177 86.8561 305.375 86.8561 304.574 86.8561C304.173 86.8561 303.772 87.1573 303.472 87.4589H303.372C303.171 87.3582 302.771 87.5591 302.771 87.76Z" fill="#E6EBF2"/>
<path d="M300.568 83.7418C300.969 84.2439 301.971 84.1436 302.372 83.34C302.472 83.0384 302.372 82.3355 302.171 82.0339C301.971 81.833 301.37 81.7324 301.069 81.833C300.168 82.2348 300.168 83.34 300.568 83.7418Z" fill="#E6EBF2"/>
<path d="M299.865 81.0282C300.466 81.1289 301.067 80.7271 301.168 80.2246C301.268 79.6219 300.867 78.9189 300.266 78.8183C299.665 78.718 299.164 79.1198 299.064 79.7225C298.964 80.4255 299.364 80.928 299.865 81.0282Z" fill="#E6EBF2"/>
<path d="M303.474 75.9092C303.474 75.3065 303.674 74.5029 302.773 74.302C302.171 74.1011 301.67 74.302 301.47 74.9047C301.37 75.2058 301.37 75.7083 301.57 75.9092C301.871 76.4113 302.372 76.4113 303.474 75.9092Z" fill="#E6EBF2"/>
<path d="M231.536 19.0514C231.836 19.2523 232.237 19.4532 232.538 19.6541C232.538 19.5537 232.438 19.4532 232.338 19.3528C232.237 19.1519 231.836 19.0514 231.536 19.0514Z" fill="#E6EBF2"/>
<path d="M286.439 86.755C286.74 86.6548 286.94 86.6548 287.141 86.4539C287.742 85.9514 287.942 84.8466 287.541 83.9423C287.241 83.3396 286.84 82.8375 287.341 82.1342C287.642 81.6321 287.241 81.1296 286.64 80.9287C285.838 81.2303 285.638 81.7324 285.938 82.4357C285.638 82.6366 285.337 82.8375 285.137 82.9378C285.438 84.2439 285.938 85.5496 286.439 86.755Z" fill="#E6EBF2"/>
<path d="M300.969 92.1812C300.368 92.0809 299.867 92.2818 299.567 92.583C298.765 92.3821 298.264 92.4827 298.164 93.4873C298.064 94.3911 299.166 94.6927 299.667 94.4918C299.967 94.9939 300.469 95.2954 300.869 95.2954C301.07 95.2954 301.27 95.1948 301.47 95.0945C301.37 95.3957 301.37 95.8981 301.771 95.9984C302.272 96.1993 302.572 95.4963 302.572 95.2954C302.572 95.0945 302.572 94.592 302.172 94.4918C302.072 94.4918 301.971 94.4918 301.871 94.4918C301.971 94.2909 302.072 94.09 302.072 93.8891C302.472 92.8845 301.971 92.2818 300.969 92.1812Z" fill="#E6EBF2"/>
<path d="M277.724 62.6472C277.824 62.0445 277.423 61.5424 276.822 61.4418C276.121 61.3415 275.619 61.6427 275.519 62.2454C275.419 62.8481 275.82 63.4508 276.321 63.5515C276.922 63.5515 277.623 63.1497 277.724 62.6472Z" fill="#E6EBF2"/>
<path d="M291.148 90.3711C291.248 89.7684 290.948 89.3666 290.347 89.2663C289.245 89.0654 288.343 89.4672 288.243 90.1702C288.243 90.4718 288.343 90.8736 288.543 91.1747C289.145 91.3756 289.846 91.6772 290.447 91.8781C290.447 91.7775 290.347 91.6772 290.247 91.5765C290.748 91.2754 291.048 90.7729 291.148 90.3711Z" fill="#E6EBF2"/>
<path d="M290.246 86.7549C289.645 86.6546 288.943 87.1567 288.943 87.7594C288.943 88.3621 289.444 88.9649 290.045 89.0655C290.646 89.0655 291.248 88.6637 291.248 88.1612C291.248 87.4583 290.847 86.8555 290.246 86.7549Z" fill="#E6EBF2"/>
<path d="M288.945 76.2082C288.143 76.1075 287.041 77.0118 286.941 77.9157C286.841 78.6191 287.241 79.2218 288.143 79.322C289.145 79.5229 289.746 79.0209 289.947 78.0163C290.047 77.2127 289.546 76.3085 288.945 76.2082Z" fill="#E6EBF2"/>
<path d="M294.757 92.5816C294.256 92.4814 293.755 92.6823 293.354 92.9835C294.256 93.3853 295.258 93.7871 296.159 94.1889C295.859 93.3853 295.358 92.6823 294.757 92.5816Z" fill="#E6EBF2"/>
<path d="M258.389 23.6716C258.79 23.5711 258.69 23.0688 258.589 22.9684C258.489 22.7675 258.188 22.667 257.988 22.667C257.888 22.667 257.688 23.0688 257.688 23.1693C257.788 23.2697 257.988 23.6716 258.389 23.6716Z" fill="#E6EBF2"/>
<path d="M202.18 6.09139C202.881 6.2923 203.482 6.49317 204.183 6.69407C204.183 6.59362 204.083 6.39271 203.983 6.29226C203.582 5.78999 202.78 5.79003 202.18 6.09139Z" fill="#E6EBF2"/>
<path d="M237.147 10.8125C237.548 10.712 237.348 10.1093 237.247 9.9084C237.247 9.80795 236.746 9.60704 236.746 9.70749C236.546 9.80795 236.346 10.1093 236.446 10.3102C236.446 10.5111 236.746 11.0134 237.147 10.8125Z" fill="#E6EBF2"/>
<path d="M200.176 -0.137436C199.575 0.565738 199.675 1.57026 200.377 2.27344C200.878 2.7757 202.08 2.67525 202.781 2.07253C203.382 1.36936 203.282 0.465277 202.481 -0.237895C201.679 -0.840616 200.778 -0.840608 200.176 -0.137436Z" fill="#E6EBF2"/>
<path d="M181.842 1.0693C181.742 1.27021 181.642 1.47111 181.642 1.67202C182.443 1.77247 183.245 1.87293 184.046 1.97339C184.046 1.47111 183.746 0.767942 183.145 0.466582C182.744 0.366126 182.143 0.567031 181.842 1.0693Z" fill="#E6EBF2"/>
<path d="M207.793 7.2993C207.894 7.19884 207.793 6.99794 207.693 6.89748C207.593 6.79703 207.393 6.79703 207.293 6.89748C207.192 6.99794 207.092 7.19884 207.293 7.39975C207.493 7.5002 207.693 7.39975 207.793 7.2993Z" fill="#E6EBF2"/>
<path d="M232.34 17.3433C232.44 17.5442 232.941 17.5442 233.041 17.5442C233.242 17.4438 233.643 17.1424 233.442 16.9415C233.342 16.7406 232.941 16.6401 232.741 16.6401C232.641 16.6401 232.14 17.1424 232.34 17.3433Z" fill="#E6EBF2"/>
<path d="M232.339 14.1269C232.539 14.0265 232.539 13.3233 232.439 13.1224C232.339 12.9215 231.537 12.6201 231.337 12.821C231.136 13.022 231.237 13.8256 231.437 13.926C231.537 14.1269 232.138 14.3278 232.339 14.1269Z" fill="#E6EBF2"/>
<path d="M236.546 14.832C236.846 14.6311 236.846 14.1288 236.646 14.0284C236.546 13.8275 236.345 13.5261 235.945 13.727C235.544 13.9279 235.443 14.2293 235.644 14.6311C235.844 15.0329 236.245 15.0329 236.546 14.832Z" fill="#E6EBF2"/>
<path d="M228.932 17.5421C228.932 17.4417 228.932 17.2408 228.832 17.1403C228.631 16.7385 228.231 16.3367 227.83 16.7385L227.73 16.8389C228.13 17.0398 228.531 17.2408 228.932 17.5421Z" fill="#E6EBF2"/>
<path d="M213.303 1.77242C213.102 1.87287 212.902 2.47558 213.102 2.67648C213.303 2.87739 213.904 2.67648 214.004 2.57603C214.104 2.47558 214.305 2.07378 214.104 1.87287C213.904 1.57152 213.503 1.67196 213.303 1.77242Z" fill="#E6EBF2"/>
<path d="M213.2 9.00454C213.501 8.70318 213 7.7991 212.699 7.49774C212.399 7.09592 211.998 7.19638 211.598 7.59819C211.297 8 211.197 8.40182 211.598 8.70318C211.998 8.90408 212.9 9.3059 213.2 9.00454Z" fill="#E6EBF2"/>
<path d="M222.62 7.19696C222.82 6.99606 222.62 6.09198 222.519 5.79062C222.319 5.3888 221.718 5.3888 221.317 5.79062C220.816 6.19243 221.017 6.59424 221.317 6.8956C221.618 7.09651 222.419 7.39787 222.62 7.19696Z" fill="#E6EBF2"/>
<path d="M194.165 -0.0360521C194.466 -0.337412 194.065 -1.24149 193.864 -1.54285C193.664 -1.94466 192.963 -1.84421 192.662 -1.4424C192.361 -1.04058 192.261 -0.538322 192.662 -0.337415C192.963 -0.136509 193.864 0.265308 194.165 -0.0360521Z" fill="#E6EBF2"/>
<path d="M165.112 0.566613C165.713 0.566613 166.314 0.566613 166.815 0.566613C166.915 -0.0361081 166.615 -0.337468 166.214 -0.538377C165.813 -0.739284 165.412 -0.63883 165.012 -0.437924C164.51 -0.136562 164.21 0.1648 164.21 0.566613C164.51 0.566613 164.811 0.566613 165.112 0.566613Z" fill="#E6EBF2"/>
<path d="M157.597 0.868505C157.497 0.768052 157.497 0.768044 157.397 0.667591C156.996 0.466684 156.495 0.567142 156.194 0.968955C156.695 0.868501 157.096 0.868505 157.597 0.868505Z" fill="#E6EBF2"/>
<path d="M266.301 49.4877C266.702 50.2914 267.503 50.392 268.405 49.7893C268.906 49.4877 269.206 48.5839 269.006 48.0814C268.706 47.4787 267.203 46.8759 266.702 47.0769C266 47.5793 265.8 48.6841 266.301 49.4877Z" fill="#E6EBF2"/>
<path d="M281.932 69.9795C281.831 70.0801 281.631 70.281 281.731 70.3813C281.831 70.482 282.032 70.4819 282.132 70.4819C282.232 70.4819 282.232 70.1804 282.232 70.0801C282.232 70.0801 282.032 69.9795 281.932 69.9795Z" fill="#E6EBF2"/>
<path d="M281.431 63.2492C281.832 63.2492 282.734 63.0483 282.834 62.5459C282.934 62.0438 282.233 61.7422 281.832 61.642C281.431 61.4411 281.031 61.5413 280.83 62.0438C280.63 62.5459 280.931 63.3495 281.431 63.2492Z" fill="#E6EBF2"/>
<path d="M284.036 61.0406C284.637 60.8397 284.838 60.3372 284.537 59.7345C284.236 59.1318 283.635 58.9313 283.134 59.1322C282.633 59.3331 282.433 60.036 282.633 60.4379C282.734 61.1408 283.335 61.3417 284.036 61.0406Z" fill="#E6EBF2"/>
<path d="M283.535 79.4245C283.635 79.5248 283.735 79.5248 283.835 79.5248C284.336 79.6254 284.938 79.123 285.038 78.6209C285.138 78.0182 284.737 77.4155 284.236 77.3148C284.136 77.3148 284.136 77.3148 284.036 77.3148C284.236 76.4109 283.735 75.7076 283.234 75.3058L283.134 75.2055C283.835 75.0046 284.236 74.5021 284.436 73.4976C284.537 73.1964 284.537 72.7946 284.436 72.5937C284.637 72.694 284.938 72.694 285.238 72.5937C285.939 72.2922 286.039 71.1874 285.639 70.5846C285.338 70.0822 284.436 69.6804 283.835 69.781C282.934 70.0822 282.833 70.8858 282.833 71.1874C281.832 71.1874 280.93 71.7901 280.73 72.694C280.73 72.7946 280.73 72.8949 280.73 72.9955C281.732 75.2055 282.633 77.3148 283.535 79.4245Z" fill="#E6EBF2"/>
<path d="M283.337 67.1678C283.136 67.268 282.936 67.5696 283.036 67.7705C283.036 67.9714 283.537 68.2726 283.737 68.2726C283.938 68.1723 283.938 67.5696 283.837 67.3687C283.837 67.268 283.437 67.1678 283.337 67.1678Z" fill="#E6EBF2"/>
<path d="M279.228 45.0682C279.528 44.9679 279.629 44.0636 279.528 43.6618C279.428 43.1597 278.927 43.0591 278.426 43.26C277.825 43.4609 277.825 43.9634 278.126 44.2645C278.226 44.5661 278.927 45.1688 279.228 45.0682Z" fill="#E6EBF2"/>
<path d="M277.224 54.6109C277.725 54.7112 277.925 54.1085 277.925 53.9076C277.925 53.5057 277.625 52.5012 277.224 52.401C276.824 52.3003 276.322 53.3048 276.423 53.5057C276.623 53.8073 276.723 54.41 277.224 54.6109Z" fill="#E6EBF2"/>
<path d="M278.627 65.3585C278.026 65.2579 277.625 65.6597 277.525 66.3631C277.525 66.6642 277.525 66.8651 277.625 67.066V67.1667C277.625 67.2669 277.725 67.2669 277.725 67.2669C277.826 67.4679 278.026 67.7694 278.126 67.9703H278.226C278.327 67.8697 278.527 67.7694 278.627 67.5685C279.128 67.4679 279.629 66.9658 279.629 66.4633C279.729 65.9612 279.228 65.3585 278.627 65.3585Z" fill="#E6EBF2"/>
<path d="M278.928 69.2762C278.828 69.2762 278.828 69.2762 278.928 69.2762C279.229 69.9795 279.53 70.6825 279.93 71.3859C280.331 71.0843 280.431 70.5823 280.231 69.9795C279.83 69.2762 279.329 69.0753 278.928 69.2762Z" fill="#E6EBF2"/>
<path d="M291.951 70.7829C291.851 71.4859 292.352 71.9884 292.953 71.9884C293.454 71.9884 293.554 71.6868 293.655 71.285C293.755 70.7829 293.454 70.2805 292.953 70.3811C292.452 70.4814 292.152 70.6823 291.951 70.7829Z" fill="#E6EBF2"/>
<path d="M292.952 79.422C292.852 80.0248 293.353 80.5272 293.954 80.6275C293.854 80.929 293.754 81.2302 293.754 81.7327C293.754 82.2347 293.754 82.7372 293.453 83.2393C292.952 83.9426 293.153 84.7463 293.453 85.4492C293.653 86.1526 294.555 86.5544 295.357 86.5544C295.457 86.5544 295.457 86.5544 295.557 86.5544C295.156 86.8556 294.856 87.2574 294.856 87.7599C294.756 88.4628 295.357 88.9653 296.359 89.1662C297.06 89.2665 297.962 88.7644 298.062 88.2619C298.162 87.4583 297.461 86.3535 296.759 86.2529C296.659 86.2529 296.559 86.2529 296.459 86.2529C296.659 86.052 296.86 85.8511 296.96 85.4492C297.261 84.6456 297.06 83.842 296.86 83.0384C296.759 82.7372 296.759 82.4356 296.86 82.1345C297.16 81.0293 296.759 80.3263 295.658 80.1254C295.758 80.0248 295.758 79.8239 295.858 79.7236C295.858 79.2211 295.357 78.7191 294.656 78.6184C293.754 78.3173 293.053 78.8193 292.952 79.422Z" fill="#E6EBF2"/>
<path d="M283.234 55.8167C283.434 55.8167 283.735 55.6158 283.835 55.5155C283.935 55.4149 283.835 54.8122 283.535 54.7119C283.234 54.6113 283.033 55.1137 282.933 55.3146C282.833 55.4149 283.033 55.7164 283.234 55.8167Z" fill="#E6EBF2"/>
<path d="M294.556 67.3674C295.057 67.3674 295.157 67.0662 295.257 66.6644C295.357 66.1619 295.057 65.6599 294.556 65.7601C294.155 65.8608 293.855 66.0617 293.654 66.1619C293.454 66.8653 293.955 67.3674 294.556 67.3674Z" fill="#E6EBF2"/>
<path d="M296.659 58.1277C296.759 58.1277 297.16 58.0274 297.16 57.8265C297.16 57.6256 296.86 57.3245 296.659 57.2238C296.559 57.1235 296.058 57.2238 295.958 57.5254C295.958 57.8265 296.459 58.0274 296.659 58.1277Z" fill="#E6EBF2"/>
<path d="M275.518 60.9403C275.719 61.3421 276.42 61.3421 276.921 61.0406C277.322 60.8397 277.422 60.5385 277.221 60.1367C276.921 59.7349 276.62 59.3331 276.019 59.6343C275.619 59.7349 275.318 60.5385 275.518 60.9403Z" fill="#E6EBF2"/>
<path d="M286.141 54.7099C286.341 54.6097 286.642 54.1072 286.542 53.806C286.442 53.6051 285.84 53.0024 285.54 53.1027C285.239 53.2033 285.139 54.0069 285.239 54.1072C285.44 54.509 285.84 54.8106 286.141 54.7099Z" fill="#E6EBF2"/>
<path d="M287.142 66.5633C287.743 66.3624 288.345 66.2622 288.244 65.3579C288.244 64.7552 288.244 64.0522 288.244 63.4495C288.545 62.7461 288.244 62.244 287.643 62.1434C287.042 61.9425 286.541 62.244 286.14 62.947C285.94 63.3488 285.84 63.7506 285.539 63.9515C284.938 64.454 284.738 65.0567 284.938 65.7597C285.239 66.2622 286.541 66.7642 287.142 66.5633Z" fill="#E6EBF2"/>
<path d="M287.741 72.2914C287.14 72.1912 286.639 72.4923 286.439 73.0951C286.339 73.7984 286.739 74.4011 287.34 74.5014C287.842 74.6021 288.442 74.0996 288.543 73.4969C288.643 72.8942 288.342 72.3921 287.741 72.2914Z" fill="#E6EBF2"/>
<path d="M290.851 60.0359C291.852 60.1361 293.355 58.6295 293.155 57.4241C293.055 56.5198 291.852 56.5198 291.351 56.9216C290.851 57.3235 290.951 57.1225 290.349 56.9216C289.748 56.7207 288.747 56.7207 288.646 57.9262C288.646 59.1316 289.748 59.9352 290.851 60.0359Z" fill="#E6EBF2"/>
<path d="M275.017 29.7997C275.117 29.7997 275.518 29.3979 275.418 29.0965C275.318 28.7951 274.817 28.8956 274.617 28.9961C274.516 28.9961 274.316 29.3979 274.416 29.5988C274.416 29.7997 274.817 29.7997 275.017 29.7997Z" fill="#E6EBF2"/>
<path d="M253.58 27.0874C253.179 27.3888 252.878 27.7906 253.279 28.1924C253.58 28.4938 254.281 29.1969 254.681 28.996C254.982 28.7951 254.982 27.7906 254.882 27.3888C254.681 26.987 253.98 26.8865 253.58 27.0874Z" fill="#E6EBF2"/>
<path d="M253.779 36.1259C254.58 36.9295 255.382 37.7331 256.283 38.5368C256.383 38.135 256.383 37.6327 256.183 37.2309C255.682 36.2263 254.58 35.8245 253.779 36.1259Z" fill="#E6EBF2"/>
<path d="M261.995 33.7161C262.797 33.3142 262.997 32.4102 262.496 31.506C261.995 30.602 261.194 30.3006 260.292 30.8029C259.49 31.3051 259.19 32.3097 259.691 33.2138C260.091 33.917 261.194 34.1179 261.995 33.7161Z" fill="#E6EBF2"/>
<path d="M241.054 22.2649C241.956 21.8631 242.457 20.7581 242.156 20.0549C241.856 19.4522 240.754 19.2513 240.052 19.6531C239.451 19.9545 239.151 20.8586 239.551 21.6622C239.952 22.3654 240.453 22.5663 241.054 22.2649Z" fill="#E6EBF2"/>
<path d="M261.192 39.6433C261.793 39.4424 262.094 38.6387 261.893 38.036C261.593 37.3328 260.691 37.0314 259.89 37.3328C259.188 37.6341 258.888 38.1364 259.088 38.7391C259.389 39.4424 260.491 39.9445 261.192 39.6433Z" fill="#E6EBF2"/>
<path d="M251.577 34.1182C251.577 33.9173 251.577 33.8168 251.577 33.7164C251.477 33.415 251.076 33.2141 250.776 33.415C251.076 33.6159 251.377 33.9173 251.577 34.1182Z" fill="#E6EBF2"/>
<path d="M244.26 27.8913C244.561 27.5899 244.661 26.4849 244.06 25.9827C243.659 25.6813 243.058 25.6813 242.657 26.0831C242.557 26.1836 242.457 26.284 242.357 26.3845C242.958 26.8867 243.659 27.389 244.26 27.8913Z" fill="#E6EBF2"/>
<path d="M246.465 15.9371C246.966 15.7362 247.166 15.1334 246.966 14.6312C246.765 14.1289 246.164 13.8275 245.663 14.0284C245.162 14.3298 244.962 14.8321 245.162 15.3343C245.263 15.9371 245.964 16.138 246.465 15.9371Z" fill="#E6EBF2"/>
<path d="M250.172 24.6767C250.673 24.4758 250.973 23.6721 250.773 23.1699C250.573 22.6676 249.872 22.4667 249.471 22.6676C248.97 22.8685 248.569 23.6721 248.87 24.0739C249.07 24.5762 249.771 24.8776 250.172 24.6767Z" fill="#E6EBF2"/>
<path d="M252.779 18.6504C253.58 18.55 253.981 18.0477 254.181 17.3446C254.382 16.6414 253.981 16.1391 253.38 15.8378C252.879 15.6368 251.977 14.8332 251.376 15.3355C250.674 15.8378 251.276 16.34 251.175 16.7418C251.075 17.6459 251.877 18.7509 252.779 18.6504Z" fill="#E6EBF2"/>
<path d="M272.516 37.8341C272.717 37.7337 272.917 37.4323 272.817 37.1309C272.717 36.8296 272.316 36.8296 272.115 36.93C271.915 37.0305 271.514 37.4323 271.615 37.6332C271.715 37.8341 272.316 37.9346 272.516 37.8341Z" fill="#E6EBF2"/>
<path d="M263.098 23.2693C263.599 23.4702 263.9 23.3697 264.2 22.9679C264.701 22.2648 264.401 21.7625 263.9 21.0594C263.199 21.1598 262.497 21.1598 262.297 21.9634C262.297 22.5662 262.497 22.9679 263.098 23.2693Z" fill="#E6EBF2"/>
<path d="M273.214 59.6322C273.815 59.5316 274.216 59.0295 274.316 58.3262C274.416 57.4223 274.015 56.6186 273.314 56.518C272.713 56.518 272.212 56.7189 271.711 57.1207C271.711 56.8196 271.711 56.518 271.511 56.2168C271.31 55.815 270.809 55.4132 270.309 55.3126C271.31 56.7189 272.312 58.2259 273.214 59.6322Z" fill="#E6EBF2"/>
<path d="M274.416 55.5148C274.817 55.4145 274.616 54.8118 274.516 54.6109C274.516 54.5103 274.015 54.3094 274.015 54.41C273.815 54.5103 273.615 54.8118 273.715 55.0127C273.715 55.2136 274.015 55.7157 274.416 55.5148Z" fill="#E6EBF2"/>
<path d="M269.711 43.7616C270.111 43.5607 269.911 42.5562 269.711 42.1544C269.51 41.7526 269.109 41.5516 268.608 41.9535C268.208 42.2546 267.907 42.6568 268.208 43.0586C268.608 43.3598 269.31 43.9625 269.711 43.7616Z" fill="#E6EBF2"/>
<path d="M264.099 44.7663C264.399 45.2684 265.201 45.5699 265.702 45.2684C266.203 44.9672 266.403 44.4647 266.103 43.9627C265.802 43.2593 265.201 43.0584 264.6 43.3599C264.099 43.5609 263.798 44.2638 264.099 44.7663Z" fill="#E6EBF2"/>
<path d="M265.101 40.3469C265.201 40.3469 265.201 40.0454 265.201 39.9451C265.101 39.8445 265.001 39.7442 264.8 39.8445C264.7 39.9451 264.5 40.146 264.6 40.2463C264.8 40.4472 265.001 40.3469 265.101 40.3469Z" fill="#E6EBF2"/>
<path d="M296.559 73.9977C296.459 74.701 297.059 75.9065 297.661 76.0067C298.462 76.2076 299.164 75.6049 299.364 74.701C299.564 73.9977 298.963 73.395 297.961 73.194C297.16 72.9931 296.559 73.395 296.559 73.9977Z" fill="#E6EBF2"/>
<path d="M256.784 110.262C217.611 110.262 110.308 110.262 71.2346 110.262C31.8601 110.262 0 142.106 0 181.484C0 220.862 31.8601 252.705 71.2346 252.705C92.0738 252.705 235.945 252.705 256.784 252.705C296.159 252.705 328.019 220.862 328.019 181.484C328.019 142.106 296.159 110.262 256.784 110.262Z" fill="#E6EBF2"/>
<path d="M165.113 230.104C220.918 230.104 266.204 184.799 266.204 128.947C266.204 73.0951 220.918 27.7908 165.113 27.7908C109.308 27.7908 64.0223 73.0951 64.0223 128.947C64.0223 184.799 109.308 230.104 165.113 230.104Z" fill="#E6EBF2"/>
<path d="M126.037 135.375C125.937 135.475 125.937 135.576 125.837 135.676C126.438 136.379 127.039 137.083 127.54 137.786C127.74 137.786 127.941 137.685 128.041 137.585C128.542 137.083 128.542 135.576 128.141 135.174C127.54 134.571 126.639 134.672 126.037 135.375Z" fill="#D3DAE0"/>
<path d="M122.83 132.362C123.732 133.266 124.533 134.27 125.435 135.175C126.236 134.873 127.038 133.768 126.938 132.864C126.838 131.759 125.736 131.056 124.333 131.157C123.632 131.257 123.03 131.659 122.83 132.362Z" fill="#D3DAE0"/>
<path d="M131.548 130.956C131.548 130.956 131.548 130.856 131.548 130.956C131.448 130.856 131.448 130.856 131.348 130.856L131.248 130.755C130.647 130.353 129.845 130.353 129.545 130.755C129.445 130.856 129.344 131.057 129.244 131.257C128.943 131.76 128.743 132.362 128.843 132.965C128.944 133.869 129.645 134.371 130.547 134.271C131.649 134.17 132.35 133.367 132.15 132.161C132.15 131.559 131.949 131.257 131.548 130.956Z" fill="#D3DAE0"/>
<path d="M103.995 98.3076C103.695 97.6046 103.494 96.9012 102.593 97.2028C101.992 97.4037 101.691 97.8055 101.691 98.4082C101.691 98.6091 101.791 98.9103 101.992 99.0109C102.492 99.2118 102.994 99.3121 103.595 99.513C104.096 100.718 104.897 101.422 105.699 101.12C106.4 100.819 107.001 99.513 106.7 98.6091C106.3 97.8055 105.799 97.7048 103.995 98.3076Z" fill="#D3DAE0"/>
<path d="M121.828 111.669C121.527 111.87 121.027 112.372 121.027 112.674C120.927 113.176 121.327 113.276 121.527 113.276C121.828 113.276 122.028 112.975 122.329 112.774C122.53 112.573 122.83 112.372 122.83 111.97C122.83 111.669 122.329 111.468 121.828 111.669Z" fill="#D3DAE0"/>
<path d="M118.322 114.782C118.022 114.681 117.721 114.48 117.521 114.279C116.819 113.677 116.218 113.677 115.417 114.078C114.716 114.581 114.716 115.184 115.617 115.987C116.118 116.188 116.92 116.59 117.821 116.791C118.322 116.891 118.923 116.69 119.023 115.987C119.124 115.585 119.023 115.083 118.322 114.782Z" fill="#D3DAE0"/>
<path d="M103.597 115.385C103.998 114.984 103.998 113.477 103.597 113.075C103.096 112.573 102.094 112.774 101.393 113.477C100.792 114.18 100.792 114.683 101.593 115.486C102.194 115.988 103.096 115.888 103.597 115.385Z" fill="#D3DAE0"/>
<path d="M115.217 107.55C114.415 107.55 113.213 108.555 113.413 109.66C113.614 110.764 114.215 111.367 115.016 111.468C115.818 111.669 116.519 110.564 116.82 109.459C117.02 108.755 116.018 107.651 115.217 107.55Z" fill="#D3DAE0"/>
<path d="M118.922 121.411C118.822 121.813 118.922 122.115 119.123 122.416C118.922 122.717 118.722 123.32 118.822 123.822C119.023 123.923 119.323 124.324 119.624 124.324C120.325 124.324 121.026 123.722 121.026 123.119C121.026 122.918 120.926 122.817 120.826 122.617L120.926 122.516C121.427 121.813 121.127 121.21 120.826 120.608C119.524 120.507 119.123 120.708 118.922 121.411Z" fill="#D3DAE0"/>
<path d="M130.547 141.806C130.347 141.404 130.147 141.103 129.746 141.002C129.946 141.304 130.247 141.705 130.447 142.007C130.547 141.806 130.547 141.806 130.547 141.806Z" fill="#D3DAE0"/>
<path d="M139.364 141.705C139.864 141.604 140.466 140.499 140.366 139.897C140.266 139.395 139.564 138.892 139.063 138.993C137.961 139.194 137.36 139.796 137.46 140.499C137.56 141.203 138.663 141.805 139.364 141.705Z" fill="#D3DAE0"/>
<path d="M137.959 145.923C138.059 146.827 138.56 147.43 139.261 147.33C139.862 147.229 140.864 146.023 140.764 145.521C140.664 144.718 139.962 144.316 139.061 144.416C138.159 144.416 137.859 144.818 137.959 145.923Z" fill="#D3DAE0"/>
<path d="M118.523 127.339C118.723 127.942 119.525 127.942 119.826 127.942C120.326 127.942 120.427 127.44 120.326 126.937C120.326 126.837 120.326 126.736 120.226 126.636C120.527 126.636 120.828 126.435 121.028 126.134C121.328 125.732 121.629 125.23 121.228 124.828C120.527 124.225 119.826 124.225 119.425 124.627C119.024 125.029 119.024 125.632 119.325 126.134C119.124 126.435 118.323 126.736 118.523 127.339Z" fill="#D3DAE0"/>
<path d="M103.996 117.997C103.695 117.696 103.094 117.495 102.693 117.596C102.693 117.596 102.693 117.596 102.593 117.596C103.094 117.897 103.595 118.098 104.096 118.399C104.096 118.198 104.096 117.997 103.996 117.997Z" fill="#D3DAE0"/>
<path d="M136.958 154.059C137.459 153.758 137.859 153.155 137.759 152.552C138.461 152.452 138.661 151.648 138.561 151.246C138.461 150.945 137.659 150.644 137.158 151.045C136.858 150.744 136.356 150.644 135.455 150.744C136.056 151.748 136.557 152.854 136.958 154.059Z" fill="#D3DAE0"/>
<path d="M137.761 155.969C138.162 156.873 138.463 157.878 138.763 158.782C138.863 158.782 138.964 158.681 139.064 158.681C139.565 158.38 139.565 157.878 139.565 157.275C139.565 156.773 139.665 156.371 139.164 155.969C138.763 155.768 138.162 155.768 137.761 155.969Z" fill="#D3DAE0"/>
<path d="M135.956 144.114C135.455 144.616 135.455 145.319 135.956 145.721C136.457 146.123 137.159 146.123 137.559 145.621C138.06 145.118 137.96 144.415 137.459 144.013C137.159 143.612 136.357 143.612 135.956 144.114Z" fill="#D3DAE0"/>
<path d="M114.515 124.628C114.415 124.728 114.415 124.728 114.415 124.829C115.517 125.632 116.519 126.436 117.521 127.34C117.621 127.139 117.721 127.039 117.822 126.838C117.822 126.436 117.22 126.034 116.82 126.134C116.92 125.833 116.719 125.431 116.419 125.13C115.517 124.427 114.916 124.226 114.515 124.628Z" fill="#D3DAE0"/>
<path d="M115.518 118.5C115.118 119.003 115.218 120.208 115.719 120.61C116.22 120.911 117.422 120.71 117.823 120.208C118.224 119.706 118.124 119.103 117.623 118.701C116.821 117.898 116.12 117.797 115.518 118.5Z" fill="#D3DAE0"/>
<path d="M139.766 131.76C139.165 131.76 138.764 131.459 138.364 131.258C138.163 131.157 137.562 131.358 137.362 131.559C137.161 131.76 137.061 132.262 137.161 132.563C137.261 132.764 137.662 132.965 137.963 132.965C138.564 132.965 139.065 132.965 139.666 132.865C140.167 132.764 140.267 132.463 140.167 131.961C140.067 131.961 139.867 131.76 139.766 131.76Z" fill="#D3DAE0"/>
<path d="M136.258 98.8111C136.459 98.6102 136.459 98.0075 136.258 97.8066C136.158 97.6057 135.357 97.3045 135.156 97.5054C134.956 97.7063 135.156 98.51 135.257 98.6102C135.557 98.8111 136.058 98.9118 136.258 98.8111Z" fill="#D3DAE0"/>
<path d="M100.191 102.325C99.6894 102.727 99.6894 103.832 100.191 104.435C100.591 104.837 101.493 104.937 101.894 104.535C102.695 103.732 102.895 102.828 102.395 102.225C101.994 101.823 100.792 101.823 100.191 102.325Z" fill="#D3DAE0"/>
<path d="M144.672 129.749C145.073 129.347 144.372 128.242 144.071 127.841C143.771 127.64 143.069 127.539 142.669 127.841C142.268 128.142 142.669 129.046 142.969 129.448C143.069 129.85 144.272 130.151 144.672 129.749Z" fill="#D3DAE0"/>
<path d="M139.566 128.446C139.666 129.049 140.267 129.551 140.768 129.451C141.269 129.35 141.97 128.546 141.97 128.144C141.87 127.542 140.968 126.939 140.467 127.04C139.866 127.241 139.465 127.843 139.566 128.446Z" fill="#D3DAE0"/>
<path d="M138.262 114.882C138.362 114.781 138.262 114.58 138.161 114.48C138.061 114.379 137.861 114.379 137.76 114.48C137.66 114.58 137.66 114.781 137.76 114.982C137.961 115.082 138.161 114.982 138.262 114.882Z" fill="#D3DAE0"/>
<path d="M143.872 126.735C144.373 126.735 144.874 126.233 144.774 125.731C144.674 125.128 144.273 124.927 143.772 125.028C143.271 125.028 143.071 125.429 143.071 125.931C143.071 126.333 143.371 126.735 143.872 126.735Z" fill="#D3DAE0"/>
<path d="M136.056 126.738C135.956 126.938 135.856 127.039 135.755 127.24C135.054 127.441 134.553 128.044 134.653 128.546C134.753 129.249 135.555 129.952 136.056 129.952C136.657 129.852 137.158 129.048 137.058 128.144C137.258 128.044 137.459 127.943 137.459 127.843C137.559 127.541 137.358 127.139 137.058 126.738C136.857 126.436 136.356 126.336 136.056 126.738Z" fill="#D3DAE0"/>
<path d="M138.863 120.608C139.064 121.211 139.965 121.412 140.466 120.91C140.667 120.709 140.366 120.006 140.165 119.503C140.165 119.403 140.065 119.101 139.665 119.101C139.264 119.202 138.663 120.006 138.863 120.608Z" fill="#D3DAE0"/>
<path d="M138.964 112.271C139.064 112.171 138.863 111.568 138.763 111.367C138.663 111.266 138.262 111.266 138.162 111.367C138.062 111.568 137.962 111.869 138.062 112.07C138.162 112.171 138.763 112.372 138.964 112.271Z" fill="#D3DAE0"/>
<path d="M142.267 120.71C142.367 120.609 142.367 120.207 142.267 120.007C142.166 119.906 141.765 119.906 141.565 120.007C141.465 120.107 141.164 120.71 141.365 120.81C141.665 121.011 142.066 120.911 142.267 120.71Z" fill="#D3DAE0"/>
<path d="M97.4836 113.074C96.2816 113.175 96.1814 113.275 96.0809 114.581C96.1814 114.682 96.181 114.682 96.2816 114.782C97.1831 115.084 98.0849 115.485 98.8863 115.787C99.0866 115.686 99.2873 115.586 99.3875 115.485C99.7881 115.084 99.8883 114.18 99.4876 113.878C98.8862 113.577 98.2853 113.074 97.4836 113.074Z" fill="#D3DAE0"/>
<path d="M143.068 152.051C141.765 152.051 141.264 152.955 141.064 153.758C140.863 154.562 141.264 155.968 142.667 156.069C144.17 156.069 144.971 155.265 145.071 154.361C145.272 153.357 144.069 152.051 143.068 152.051Z" fill="#D3DAE0"/>
<path d="M87.4663 98.1063C87.0656 98.4079 86.8653 99.4124 87.5665 100.115C87.9675 100.517 88.4683 100.417 88.869 100.115C89.3702 99.7136 89.4704 99.2115 89.27 98.709C88.9692 97.9054 87.9675 97.8051 87.4663 98.1063Z" fill="#D3DAE0"/>
<path d="M98.5871 106.447C98.3864 107.35 98.8876 108.154 99.8892 108.456C100.891 108.757 101.993 109.058 102.895 109.46C103.697 109.862 104.899 109.761 105.099 109.259C105.3 108.757 104.698 107.953 104.398 107.853C103.596 107.652 103.697 107.15 103.396 106.647C103.195 106.246 102.695 105.944 102.294 105.643C101.993 105.442 101.693 105.442 101.392 105.341C101.092 105.241 100.691 105.241 100.39 105.241C99.3884 105.241 98.7874 105.542 98.5871 106.447Z" fill="#D3DAE0"/>
<path d="M97.4838 101.724C98.1849 101.724 98.4858 101.221 98.4858 100.518C98.0848 100.116 97.5839 99.7146 96.983 100.116C96.7826 100.317 96.6821 100.819 96.7826 101.121C96.7826 101.422 97.1833 101.724 97.4838 101.724Z" fill="#D3DAE0"/>
<path d="M83.8596 111.368C84.2602 111.467 84.7614 111.467 85.1621 111.567C85.1621 111.567 85.1621 111.467 85.0619 111.467C84.6613 111.467 84.2602 111.467 83.8596 111.368Z" fill="#D3DAE0"/>
<path d="M145.677 146.426C145.977 146.426 146.178 146.326 146.178 145.924C146.178 145.623 146.078 145.422 145.677 145.422C145.376 145.422 145.276 145.522 145.176 145.823C145.176 146.225 145.276 146.426 145.677 146.426Z" fill="#D3DAE0"/>
<path d="M144.072 172.242C144.673 172.142 145.475 171.238 145.375 170.736C145.275 170.032 144.273 169.129 143.571 169.229C142.87 169.329 142.469 170.233 142.67 171.338C142.77 171.841 143.571 172.343 144.072 172.242Z" fill="#D3DAE0"/>
<path d="M142.97 173.346C142.87 172.844 142.369 172.442 141.868 172.341C141.968 173.145 142.069 173.848 142.169 174.652C142.77 174.451 143.071 173.848 142.97 173.346Z" fill="#D3DAE0"/>
<path d="M142.269 131.559C142.369 132.362 142.97 132.764 143.972 132.563C144.674 132.463 145.074 131.96 145.074 131.458C144.974 130.855 143.872 129.75 143.371 129.851C142.469 130.052 142.069 130.654 142.269 131.559Z" fill="#D3DAE0"/>
<path d="M150.984 167.62C151.886 167.52 152.688 166.415 152.587 165.41C152.487 164.406 151.285 163.502 150.383 163.602C149.281 163.702 148.379 164.707 148.58 165.611C148.58 166.415 150.083 167.62 150.984 167.62Z" fill="#D3DAE0"/>
<path d="M151.487 183.894C152.088 183.794 153.19 182.588 153.09 182.086C152.989 181.182 152.188 180.68 151.186 180.881C150.384 180.981 150.084 181.584 150.184 182.689C150.384 183.492 150.885 183.995 151.487 183.894Z" fill="#D3DAE0"/>
<path d="M150.883 172.242C151.484 172.142 151.985 171.539 151.885 171.037C151.785 170.534 151.083 169.731 150.583 169.831C150.082 169.932 149.48 170.635 149.48 171.137C149.681 171.941 150.182 172.343 150.883 172.242Z" fill="#D3DAE0"/>
<path d="M148.38 151.248C148.279 150.846 148.179 150.344 147.578 150.444C147.077 150.444 146.576 150.946 146.576 151.75C146.877 151.851 147.277 152.152 147.678 152.152C148.179 152.152 148.38 151.75 148.38 151.248Z" fill="#D3DAE0"/>
<path d="M155.793 170.535C156.695 170.334 157.496 169.028 157.396 167.923C157.296 166.919 156.394 166.316 155.292 166.416C153.889 166.617 153.288 167.421 153.389 168.827C153.489 169.932 154.691 170.736 155.793 170.535Z" fill="#D3DAE0"/>
<path d="M147.881 157.979C148.683 158.682 150.286 159.386 151.788 158.381C152.69 157.778 153.091 157.075 153.191 156.271C153.191 155.368 152.089 154.966 151.788 154.061C150.987 151.952 149.384 152.153 147.981 152.957C147.481 153.258 147.18 153.66 146.979 154.061C146.679 154.664 146.779 155.368 147.18 156.07C147.581 156.673 147.28 157.377 147.881 157.979Z" fill="#D3DAE0"/>
<path d="M153.489 135.075C152.988 135.476 153.088 136.28 153.689 136.381C154.391 136.481 155.192 136.783 155.994 136.28C156.094 135.979 156.194 135.577 156.294 135.276C157.196 134.974 157.897 134.271 157.797 133.668C157.697 133.166 157.296 132.865 156.795 132.865C155.894 132.764 155.593 133.066 155.292 134.07C154.691 134.472 154.09 134.673 153.489 135.075Z" fill="#D3DAE0"/>
<path d="M155.996 155.969C156.196 155.668 156.296 155.065 156.196 154.864C155.795 154.161 155.094 154.261 154.393 154.562C154.192 155.165 153.992 155.768 154.593 156.27C155.094 156.471 155.695 156.371 155.996 155.969Z" fill="#D3DAE0"/>
<path d="M158.5 161.794C158.3 160.79 157.599 160.187 156.897 160.287C156.296 160.388 155.895 160.689 155.695 161.091C155.394 160.79 154.993 160.79 154.593 160.89C153.892 161.091 153.892 161.794 153.892 162.497C154.493 162.799 155.094 163.301 155.695 162.598C155.695 162.497 155.795 162.497 155.795 162.397C156.296 162.799 157.098 163.1 157.699 163C158.2 163 158.6 162.497 158.5 161.794Z" fill="#D3DAE0"/>
<path d="M96.2817 110.866C96.5822 110.564 96.3819 109.459 95.48 109.158C95.1796 109.057 94.6787 109.258 94.4784 109.459C94.0778 109.861 94.0778 110.464 94.4784 110.866C95.0794 111.468 95.9813 111.167 96.2817 110.866Z" fill="#D3DAE0"/>
<path d="M160.405 152.151C161.006 153.155 162.008 153.356 163.11 152.854C163.31 152.753 163.511 152.653 163.711 152.552C163.911 152.954 164.011 153.356 164.312 153.758C164.713 154.461 165.114 154.561 165.915 154.26C166.616 153.959 167.017 153.457 167.017 152.653C167.017 151.95 166.516 151.548 165.915 151.247C165.514 151.046 165.013 151.046 164.512 150.945C164.412 150.744 164.312 150.543 164.212 150.342C163.711 149.639 162.809 149.037 162.008 149.338C161.106 149.639 160.605 150.242 160.305 151.146C160.204 151.448 160.305 151.849 160.405 152.151Z" fill="#D3DAE0"/>
<path d="M155.493 129.952C155.893 129.45 155.091 128.244 154.39 128.244C153.689 128.244 152.988 128.947 153.188 129.55C153.288 130.052 154.991 130.353 155.493 129.952Z" fill="#D3DAE0"/>
<path d="M171.324 163.905C172.026 163.905 172.827 163.202 172.727 162.599C172.627 161.796 171.925 160.992 171.224 160.992C170.523 160.992 170.022 161.896 170.022 162.901C170.122 163.403 170.824 163.905 171.324 163.905Z" fill="#D3DAE0"/>
<path d="M165.913 161.693C165.812 160.89 165.311 160.488 164.209 160.589C163.508 160.689 162.707 161.392 162.707 161.894C162.707 162.698 163.708 163.502 164.51 163.502C165.311 163.401 166.013 162.497 165.913 161.693Z" fill="#D3DAE0"/>
<path d="M162.508 167.721C161.607 167.821 161.205 168.525 161.306 169.529C161.506 170.634 162.508 171.337 163.61 171.136C164.512 170.935 165.113 169.931 165.013 169.027C164.913 168.123 163.71 167.52 162.508 167.721Z" fill="#D3DAE0"/>
<path d="M153.29 192.432C153.39 192.733 154.492 193.336 155.193 192.833C155.594 192.532 155.795 192.03 155.594 191.427C155.394 190.824 154.893 190.523 154.392 190.724C153.49 190.925 153.189 192.131 153.29 192.432Z" fill="#D3DAE0"/>
<path d="M152.69 172.743C152.189 172.844 151.688 173.648 151.688 174.15C151.788 175.054 152.49 175.757 153.291 175.657C154.193 175.557 154.994 174.652 154.894 173.949C154.894 173.347 153.491 172.643 152.69 172.743Z" fill="#D3DAE0"/>
<path d="M157.699 148.233C158 148.535 158.701 148.434 159.002 148.033C159.302 147.631 159.102 147.229 158.2 146.626C157.299 146.727 157.299 147.932 157.699 148.233Z" fill="#D3DAE0"/>
<path d="M159.802 143.511C160.002 143.411 160.403 143.411 160.303 143.009C160.303 142.607 160.002 142.607 159.902 142.607C159.702 142.607 159.201 142.808 159.201 143.109C159.201 143.411 159.702 143.511 159.802 143.511Z" fill="#D3DAE0"/>
<path d="M167.318 147.731C167.618 147.33 167.418 146.325 166.516 146.325C165.615 146.526 165.615 147.631 166.015 147.932C166.416 148.133 167.118 148.033 167.318 147.731Z" fill="#D3DAE0"/>
<path d="M142.671 143.211C142.871 143.11 142.871 142.708 142.771 142.407C142.671 142.206 142.27 142.005 142.07 142.206C141.869 142.407 141.769 142.708 141.869 142.909C141.97 143.211 142.471 143.311 142.671 143.211Z" fill="#D3DAE0"/>
<path d="M141.767 150.243C141.967 150.544 142.468 150.745 142.768 150.846C143.87 150.846 144.672 150.344 144.973 148.937C144.672 148.636 144.371 148.234 143.971 147.933C143.269 147.531 142.368 147.531 141.967 148.033C141.466 148.636 141.265 149.641 141.767 150.243Z" fill="#D3DAE0"/>
<path d="M134.052 143.814C134.453 143.713 134.854 142.809 134.754 142.207C134.654 141.704 134.153 141.504 133.652 141.704C132.85 142.006 132.349 142.508 132.449 142.91C132.449 143.412 133.552 144.015 134.052 143.814Z" fill="#D3DAE0"/>
<path d="M126.639 126.637C126.538 126.034 125.637 125.532 124.935 125.632C123.833 125.833 123.332 126.536 123.433 127.541C123.533 128.144 123.833 128.545 124.234 128.746C123.833 129.449 123.833 130.052 124.234 130.454C124.735 130.956 126.138 130.755 126.639 130.253C127.039 129.851 126.939 128.646 126.438 128.144C126.338 128.043 126.238 128.043 126.138 127.943C126.538 127.541 126.739 127.038 126.639 126.637Z" fill="#D3DAE0"/>
<path d="M94.7794 113.478C94.7794 112.574 94.6793 111.871 93.7778 111.67C93.2766 111.57 92.7758 111.77 92.6756 112.273C92.5754 112.675 92.5754 113.277 92.7758 113.579C93.0763 113.679 93.3767 113.78 93.6776 113.88C93.9781 113.78 94.3788 113.579 94.7794 113.478Z" fill="#D3DAE0"/>
<path d="M92.0727 111.067C92.5735 110.564 92.4734 109.661 91.7722 109.158C91.3712 108.756 90.67 108.957 90.1692 109.46C89.668 109.962 89.668 110.966 90.1692 111.268C90.8703 111.569 91.4713 111.67 92.0727 111.067Z" fill="#D3DAE0"/>
<path d="M110.711 122.215C111.313 122.617 111.814 123.019 112.415 123.421C112.615 123.321 112.716 123.12 112.716 122.919C112.816 122.015 113.317 121.513 113.918 121.312C114.519 120.709 114.619 119.805 114.319 119.403L114.218 119.303C114.419 119.001 114.619 118.499 114.619 118.097C114.519 117.494 114.018 117.093 113.417 117.193C112.816 117.293 112.415 117.695 112.515 118.298C112.515 118.499 112.615 118.599 112.716 118.8C112.515 118.8 112.315 118.901 112.114 118.901C111.714 119.102 111.012 119.403 111.213 120.006C111.413 120.809 111.113 121.513 110.711 122.215Z" fill="#D3DAE0"/>
<path d="M141.764 159.384C141.063 159.284 140.662 159.886 140.763 160.79C140.763 160.891 140.863 160.991 140.863 161.092C140.863 161.594 140.662 161.795 140.161 161.695C139.961 161.594 139.861 161.494 139.661 161.393C140.262 163.503 140.763 165.612 141.264 167.822C141.664 167.923 142.165 167.722 142.566 167.219C143.267 166.315 143.167 165.411 142.165 164.808C141.865 164.608 141.564 164.608 140.963 164.306C141.264 163.905 141.464 163.503 141.764 163.402C142.666 163 142.867 162.398 142.666 161.594C142.666 161.393 142.666 161.092 142.666 160.891C142.566 159.987 142.265 159.485 141.764 159.384Z" fill="#D3DAE0"/>
<path d="M141.164 135.273C141.064 135.273 140.964 135.374 140.864 135.374C140.864 135.073 140.764 134.771 140.563 134.57C140.162 134.269 139.361 134.269 138.96 134.671C138.559 135.073 138.559 135.675 138.96 136.077C139.261 136.379 139.762 136.479 140.162 136.379C140.162 136.58 140.162 136.881 140.162 137.082C140.263 137.685 141.064 138.287 141.665 138.187C142.367 138.087 143.469 136.78 143.268 136.278C143.168 135.575 142.066 135.073 141.164 135.273Z" fill="#D3DAE0"/>
<path d="M143.87 159.484C143.269 159.986 143.069 161.593 143.971 162.296C144.872 162.999 145.774 162.999 146.375 162.597C147.076 162.196 146.876 160.89 146.375 159.986C146.075 159.182 144.572 158.981 143.87 159.484Z" fill="#D3DAE0"/>
<path d="M78.0482 110.563C78.1483 110.463 78.2485 110.262 78.2485 109.96C78.2485 109.96 78.3487 109.96 78.3487 109.86C78.7493 109.257 78.7493 107.951 78.2485 107.55C77.8478 107.248 76.6455 107.65 76.1447 108.253C76.0441 108.353 76.0441 108.555 75.9439 108.655C75.6434 108.956 75.5433 109.659 75.5433 110.161C76.2448 110.463 77.1463 110.463 78.0482 110.563Z" fill="#D3DAE0"/>
<path d="M152.387 131.96C152.788 131.96 152.788 131.357 152.688 131.257C152.588 131.056 152.387 130.755 152.087 130.855C151.786 130.955 151.686 131.257 151.786 131.357C151.786 131.558 151.987 131.96 152.387 131.96Z" fill="#D3DAE0"/>
<path d="M74.639 104.135C74.7392 103.834 74.9395 103.432 74.7392 103.131C74.5389 102.829 73.5368 102.93 73.2363 103.332V103.432C72.8357 103.231 72.3345 103.332 72.034 103.633C71.7335 104.035 71.6333 105.14 71.9338 105.341C72.3345 105.743 73.2363 105.642 73.637 105.341C73.8373 105.14 74.038 104.838 74.038 104.537C74.2384 104.537 74.5389 104.437 74.639 104.135Z" fill="#D3DAE0"/>
<path d="M151.184 145.721C150.983 146.324 151.284 146.625 151.885 146.927C152.486 147.228 153.288 147.73 153.688 146.927C154.089 146.123 153.588 145.721 153.388 145.621C153.188 145.52 152.887 145.018 153.188 145.018C153.488 145.018 153.789 144.817 153.789 144.014C153.889 143.21 153.588 142.808 152.787 142.607C151.985 142.406 151.084 143.109 150.883 144.014C150.683 144.918 151.384 145.118 151.184 145.721Z" fill="#D3DAE0"/>
<path d="M91.9724 83.6425C92.3731 83.2407 92.3731 82.4371 92.0726 82.0353C91.7721 81.6335 90.9704 81.7337 90.6699 82.0353C90.2693 82.4371 90.1691 83.2407 90.5698 83.6425C90.8702 84.0444 91.5718 84.0444 91.9724 83.6425Z" fill="#D3DAE0"/>
<path d="M81.4549 110.464C81.6552 110.163 81.555 109.259 81.1544 108.857C80.6532 108.455 79.8519 108.455 79.5514 108.957C79.1503 109.459 79.2505 110.263 79.6515 110.665L79.7517 110.766C79.952 110.766 80.1524 110.766 80.3527 110.866C80.7533 110.866 81.2545 110.665 81.4549 110.464Z" fill="#D3DAE0"/>
<path d="M89.0682 107.149C88.968 107.25 88.6675 107.852 88.968 108.053C89.2689 108.254 89.6696 108.053 89.7697 107.852C89.7697 107.852 89.7697 107.752 89.8699 107.651C89.97 107.752 90.0702 107.852 90.1704 107.953C90.7717 108.355 91.0722 108.053 91.4729 107.651C91.6732 107.35 91.9737 106.948 92.2742 106.748C93.0759 106.346 93.8776 106.044 94.7791 105.642C96.3821 107.25 97.0836 107.25 98.0853 105.542C98.6866 104.638 98.2856 103.533 97.1838 103.231C96.3821 103.031 95.5808 103.231 94.4786 103.131C93.9778 102.328 93.2762 101.323 92.0739 101.423C90.571 101.624 89.5694 103.332 90.0702 104.939C90.2705 105.542 90.0702 105.743 89.7697 106.145C89.5694 106.346 89.5694 106.748 89.5694 107.049C89.4692 107.049 89.1687 107.049 89.0682 107.149Z" fill="#D3DAE0"/>
<path d="M105.098 118.8C105.999 119.302 106.801 119.805 107.703 120.307C108.304 120.005 108.504 119.403 108.203 118.7C108.203 118.599 108.103 118.599 108.103 118.499C108.304 118.499 108.404 118.398 108.604 118.298C108.905 117.996 109.005 117.595 109.205 117.193C108.805 116.791 108.504 116.49 108.003 116.088C107.703 116.289 107.402 116.389 107.101 116.691C106.801 116.992 106.6 117.394 106.701 117.795C106.3 117.795 105.999 117.996 105.699 118.298C105.498 118.499 105.298 118.7 105.098 118.8Z" fill="#D3DAE0"/>
<path d="M88.5678 112.371C88.8683 111.869 88.7681 111.266 88.1667 110.964C87.8662 110.763 87.2652 110.663 86.9648 110.864C86.4635 111.165 86.3634 111.467 86.4635 111.869C87.2653 112.069 87.8662 112.27 88.5678 112.371Z" fill="#D3DAE0"/>
<path d="M148.679 141.602C149.281 141.401 149.481 140.899 149.581 140.497C149.681 140.096 149.581 139.292 149.181 138.89C148.679 138.488 148.379 137.886 147.778 137.986C147.277 138.086 147.177 138.187 146.976 138.488C146.776 138.789 146.475 138.89 146.375 139.392C146.275 139.895 146.375 140.798 146.876 141.301C147.377 141.803 148.078 141.803 148.679 141.602Z" fill="#D3DAE0"/>
<path d="M135.455 215.337C135.155 215.337 134.955 215.939 135.055 216.14C135.055 216.341 135.355 216.643 135.556 216.643C135.856 216.643 135.957 216.241 135.957 216.04C135.957 215.839 135.656 215.236 135.455 215.337Z" fill="#D3DAE0"/>
<path d="M139.062 203.382C138.761 204.186 138.561 205.09 138.26 205.894C138.962 205.793 139.462 204.99 139.462 204.286C139.362 203.884 139.262 203.583 139.062 203.382Z" fill="#D3DAE0"/>
<path d="M66.6256 110.262C66.6256 110.363 66.6256 110.363 66.6256 110.363C67.4273 110.363 68.1285 110.262 68.9302 110.262C69.3308 110.162 69.6313 110.061 69.8316 109.76C70.433 109.057 70.433 107.148 69.8316 106.445C69.2307 105.741 67.828 105.943 67.1268 106.646C66.5255 107.349 66.5254 108.755 67.0267 109.458C66.8259 109.76 66.7258 109.961 66.6256 110.262Z" fill="#D3DAE0"/>
<path d="M142.568 198.762C142.468 197.658 141.667 196.753 140.765 196.753C140.465 198.059 140.164 199.365 139.763 200.671C140.064 200.771 140.364 200.872 140.665 200.872C141.867 200.671 142.669 199.767 142.568 198.762Z" fill="#D3DAE0"/>
<path d="M69.231 103.933C69.832 103.331 69.832 102.226 69.4313 101.422C69.6316 101.221 69.832 101.02 69.832 100.619C69.832 100.217 69.3312 100.116 68.9301 100.317C68.8299 100.418 68.7298 100.518 68.6296 100.619C68.5295 100.619 68.3291 100.619 68.229 100.619C67.8283 101.924 67.5274 103.23 67.2269 104.536C67.8283 104.838 68.5295 104.637 69.231 103.933Z" fill="#D3DAE0"/>
<path d="M144.672 194.441C145.374 194.341 146.175 193.336 146.075 192.532C145.975 191.93 145.073 191.327 144.271 191.428C143.169 191.528 142.769 192.03 142.869 192.834C142.969 193.638 143.971 194.541 144.672 194.441Z" fill="#D3DAE0"/>
<path d="M145.075 195.748C144.674 195.848 144.574 196.753 144.574 197.154C144.574 197.355 145.176 197.556 145.476 197.556C145.877 197.556 146.277 197.255 146.077 196.752C145.977 196.551 145.476 195.748 145.075 195.748Z" fill="#D3DAE0"/>
<path d="M70.1332 94.4907C69.7325 95.4952 69.4317 96.6 69.031 97.7052C69.4317 97.6045 69.7325 97.4036 70.033 97.1025C70.5339 96.2988 70.5338 95.1937 70.1332 94.4907Z" fill="#D3DAE0"/>
<path d="M143.372 205.49C142.571 205.591 141.969 206.595 142.17 207.499C142.37 208.403 143.071 208.905 144.174 208.705C145.175 208.504 145.677 207.801 145.476 206.896C145.275 205.892 144.374 205.289 143.372 205.49Z" fill="#D3DAE0"/>
<path d="M142.17 220.459C141.97 220.459 141.769 220.861 141.769 221.062C141.769 221.162 141.97 221.664 142.27 221.564C142.571 221.564 142.671 220.961 142.671 220.76C142.571 220.66 142.37 220.358 142.17 220.459Z" fill="#D3DAE0"/>
<path d="M81.4514 91.678C81.1509 92.0799 81.1509 92.7832 81.5515 93.0844C81.9526 93.4862 82.6537 93.3859 83.0544 92.8835C83.4554 92.3814 83.4554 91.879 82.9542 91.4771C82.4534 91.176 81.852 91.2762 81.4514 91.678Z" fill="#D3DAE0"/>
<path d="M80.1531 93.2849C80.8543 92.4813 80.7541 90.9747 79.9528 90.2713C79.3514 89.7693 77.9487 89.8695 77.3478 90.4722C76.6462 91.1756 76.8469 92.381 77.8486 93.2849C78.45 93.9883 79.4516 93.9883 80.1531 93.2849Z" fill="#D3DAE0"/>
<path d="M82.5555 84.7465C83.257 84.0436 83.3572 82.7375 82.7562 82.2354C82.255 81.8336 81.1532 82.0345 80.652 82.5366C80.1511 83.039 80.2513 84.0436 80.8523 84.5456C81.4537 85.249 82.0546 85.249 82.5555 84.7465Z" fill="#D3DAE0"/>
<path d="M82.2545 86.4566C82.4553 86.2557 82.3551 85.653 82.2545 85.4521C82.1544 85.2512 81.2529 85.0503 81.1527 85.2512C80.9524 85.4521 81.1527 86.2557 81.3531 86.356C81.4532 86.5569 82.0542 86.6575 82.2545 86.4566Z" fill="#D3DAE0"/>
<path d="M144.573 185.3C143.972 185.4 143.771 185.702 143.771 186.305C143.771 186.907 144.072 187.409 144.573 187.51C145.374 187.711 146.075 187.008 146.176 186.506C146.176 186.003 145.474 185.099 144.573 185.3Z" fill="#D3DAE0"/>
<path d="M72.739 99.1102C72.3384 99.01 72.0375 99.2109 71.737 99.4118C71.3364 99.7129 71.3364 100.416 71.737 100.818C71.9373 100.918 72.1377 101.019 72.2382 101.019C72.3384 101.421 72.5387 101.722 72.739 101.923C73.1397 102.224 74.0416 102.124 74.4422 101.722C75.1434 101.019 75.1434 100.115 74.5424 99.512C74.1417 99.01 73.2399 98.9093 72.739 99.1102Z" fill="#D3DAE0"/>
<path d="M76.5436 95.9966C76.8441 95.5948 76.7439 95.2936 76.4434 94.9921C76.0424 94.6909 75.5415 94.5903 75.1409 94.9921C74.8404 95.3939 74.8404 96.1975 75.2411 96.3984C75.5415 96.8003 76.2431 96.4991 76.5436 95.9966Z" fill="#D3DAE0"/>
<path d="M72.0373 92.0784C72.3378 91.7773 71.9372 91.3755 71.837 91.2748C71.7368 91.1746 71.5365 91.1746 71.3362 91.2748C71.236 91.4757 71.236 91.5764 71.1359 91.7773C71.1359 91.8775 71.1359 91.9782 71.236 92.0784C71.3362 92.1791 71.7368 92.38 72.0373 92.0784Z" fill="#D3DAE0"/>
<path d="M71.9366 95.6972C72.4378 96.1997 73.139 95.5969 73.5396 95.396C73.9407 95.1951 73.9407 94.5924 73.5396 94.1906C73.139 93.7888 72.6381 93.6882 72.3376 94.1906C72.1373 94.5924 71.5359 95.1951 71.9366 95.6972Z" fill="#D3DAE0"/>
<path d="M71.237 110.26C71.838 110.26 72.3388 110.26 72.9402 110.26C72.9402 110.16 73.0404 110.059 73.0404 110.059C72.5392 109.457 71.9382 108.954 71.237 109.356C71.0363 109.457 70.7358 110.059 70.836 110.26C71.0363 110.26 71.1365 110.26 71.237 110.26Z" fill="#D3DAE0"/>
<path d="M152.387 187.31C152.287 186.708 151.586 186.306 150.985 186.406C150.484 186.507 149.983 187.109 150.083 187.712C150.183 188.215 150.885 188.616 151.386 188.616C151.987 188.516 152.488 187.913 152.387 187.31Z" fill="#D3DAE0"/>
<path d="M167.214 184.497C166.914 184.598 166.813 185 166.813 185.2C166.914 185.401 167.014 185.904 167.314 185.803C167.615 185.703 167.815 185.401 167.815 185.2C167.715 185 167.414 184.397 167.214 184.497Z" fill="#D3DAE0"/>
<path d="M159.703 191.229C159.804 192.233 160.705 193.137 161.407 192.936C162.008 192.836 162.609 191.931 162.509 191.128C162.409 190.425 161.607 189.922 160.806 190.023C160.004 190.123 159.603 190.525 159.703 191.229Z" fill="#D3DAE0"/>
<path d="M165.514 177.465C164.612 177.465 163.711 177.465 162.909 177.465C162.809 175.858 162.608 175.758 161.306 176.159C161.005 176.963 161.306 177.465 162.108 177.767C161.807 179.776 162.809 180.378 164.813 179.675C164.913 179.776 165.013 179.876 165.113 179.977C165.514 180.479 165.915 180.378 166.416 180.178C166.917 179.977 167.017 179.675 167.017 179.173C167.017 177.867 166.716 177.465 165.514 177.465Z" fill="#D3DAE0"/>
<path d="M161.804 202.579C160.902 202.177 159.599 202.68 159.399 203.483C159.299 204.287 159.599 204.789 160.201 205.191C160.802 205.593 161.403 205.392 161.904 204.99C162.305 204.588 163.307 203.985 163.006 203.282C162.805 202.479 162.104 202.78 161.804 202.579Z" fill="#D3DAE0"/>
<path d="M164.912 197.356C164.411 197.356 163.909 197.858 164.01 198.36C164.01 198.862 164.611 199.264 165.112 199.264C165.713 199.264 166.214 198.761 166.014 198.259C165.813 197.757 165.512 197.356 164.912 197.356Z" fill="#D3DAE0"/>
<path d="M170.621 170.433C169.82 170.232 169.419 170.835 169.219 171.739C169.72 172.241 170.12 172.844 170.822 172.442C171.323 172.241 171.523 171.739 171.323 171.237C171.222 170.835 170.922 170.433 170.621 170.433Z" fill="#D3DAE0"/>
<path d="M172.425 190.624C172.224 190.624 171.824 190.725 171.723 191.127C171.723 191.528 172.324 191.528 172.525 191.528C172.625 191.528 172.925 191.227 172.925 191.127C172.825 190.926 172.625 190.624 172.425 190.624Z" fill="#D3DAE0"/>
<path d="M168.718 188.515C168.317 188.616 168.116 188.917 168.217 189.319C168.317 189.721 168.718 189.721 168.918 189.721C169.118 189.721 169.419 189.52 169.419 189.118C169.419 188.616 169.118 188.415 168.718 188.515Z" fill="#D3DAE0"/>
<path d="M168.519 181.282C168.92 181.282 169.421 180.981 169.221 180.479C169.121 180.177 168.62 179.675 168.419 179.675C168.119 179.675 167.818 180.177 167.517 180.378C167.618 181.182 168.019 181.282 168.519 181.282Z" fill="#D3DAE0"/>
<path d="M149.882 191.931C150.383 191.831 150.683 191.329 150.583 190.726C150.483 190.224 149.782 189.721 148.98 189.922C148.88 190.224 148.479 190.626 148.479 191.027C148.479 191.63 149.281 192.032 149.882 191.931Z" fill="#D3DAE0"/>
<path d="M150.184 200.969C149.783 201.07 148.982 201.673 148.982 201.974C148.982 202.276 149.984 202.577 150.384 202.677C150.785 202.778 151.186 202.075 151.086 201.572C150.985 201.07 150.685 200.769 150.184 200.969Z" fill="#D3DAE0"/>
<path d="M81.9553 97.5047C82.5562 96.902 82.5562 96.0984 82.1556 95.6966C81.6548 95.2948 80.0518 95.1941 79.7509 95.5959C79.1499 96.1986 79.2501 97.2032 80.0518 97.9065C80.5526 98.4086 81.2537 98.2077 81.9553 97.5047Z" fill="#D3DAE0"/>
<path d="M146.978 178.972L146.878 178.871C147.178 178.972 147.479 179.072 147.679 179.172C148.08 179.273 148.481 178.972 148.481 178.369C148.481 177.766 148.08 177.364 147.579 177.465C147.379 177.465 146.978 177.766 146.678 178.068C146.477 177.465 146.076 177.163 145.575 177.264C144.874 177.364 144.373 178.068 144.774 178.871C145.075 179.574 144.674 179.976 144.473 180.479C143.572 180.077 142.97 180.077 142.47 180.378C142.47 180.78 142.47 181.182 142.47 181.583C142.47 182.186 142.47 182.789 142.47 183.392C142.67 183.392 142.87 183.492 143.171 183.392C143.972 183.291 144.774 183.191 144.974 181.885C145.275 182.387 145.575 182.588 145.575 182.889C145.776 183.492 146.076 183.793 146.678 183.793C147.279 183.793 147.88 183.592 148.18 182.889C149.082 180.679 148.882 180.077 146.978 178.972Z" fill="#D3DAE0"/>
<path d="M153.19 211.62C152.689 211.319 152.187 211.42 151.787 211.922C151.486 212.324 151.386 212.625 151.687 213.127C152.187 213.83 152.789 213.73 153.49 213.429C153.59 212.625 153.891 211.922 153.19 211.62Z" fill="#D3DAE0"/>
<path d="M155.392 198.06C154.891 198.16 154.39 198.662 154.491 199.165C154.491 199.667 155.192 200.27 155.693 200.27C156.194 200.27 156.595 199.667 156.595 199.165C156.494 198.562 155.893 197.959 155.392 198.06Z" fill="#D3DAE0"/>
<path d="M157.998 176.059C157.297 176.16 157.297 177.064 157.197 177.465C157.097 177.968 157.597 178.269 158.198 178.269C158.8 178.169 159.1 177.867 158.9 177.365C158.8 176.863 158.599 175.959 157.998 176.059Z" fill="#D3DAE0"/>
<path d="M153.588 206.799C153.388 206.799 152.887 206.899 152.887 207.301C152.887 207.703 153.388 207.804 153.488 207.804C153.688 207.703 153.889 207.502 153.989 207.301C153.989 207.1 153.688 206.799 153.588 206.799Z" fill="#D3DAE0"/>
<path d="M156.094 181.984C155.092 182.085 154.491 182.889 154.591 183.893C154.692 184.998 155.894 185.802 156.996 185.601C157.797 185.4 158.599 184.295 158.499 183.391C158.398 182.386 157.397 181.783 156.094 181.984Z" fill="#D3DAE0"/>
<path d="M160.905 156.873C160.905 156.069 159.803 155.265 158.801 155.366C158.1 155.366 157.599 156.069 157.699 156.973C157.699 157.877 158.601 158.781 159.202 158.781C160.103 158.681 161.005 157.777 160.905 156.873Z" fill="#D3DAE0"/>
<path d="M81.2519 102.327C81.2519 102.327 81.2519 102.427 81.2519 102.528C81.1517 102.227 81.0515 101.925 80.9514 101.724C81.0515 101.523 81.2519 101.121 81.0515 101.021C80.8512 100.92 80.4505 100.92 80.3504 101.121C80.2502 101.222 80.2502 101.322 80.1501 101.523C80.0499 101.523 79.9497 101.624 79.8492 101.724C79.4485 102.126 79.3484 102.628 79.749 103.03C79.9497 103.231 80.3504 103.331 80.751 103.432C80.4506 103.934 80.4505 104.436 80.8512 104.738C81.2519 105.139 81.8532 105.139 82.3541 104.738C82.7547 105.039 83.4563 104.939 83.8569 104.436C84.0572 104.135 84.0572 103.934 84.0572 103.633H84.1574C84.5581 105.24 85.4599 105.742 86.7625 104.939C86.8626 104.838 86.9628 104.738 87.1631 104.738C87.9648 104.135 87.9648 103.532 87.2633 102.829C86.6623 102.227 86.0609 101.724 84.9591 102.327C85.1594 101.724 85.1594 101.423 85.3598 101.222C85.7604 100.72 85.6603 100.217 85.2596 99.8156C84.8589 99.3132 84.3577 99.012 83.6566 99.2129C81.1517 99.5141 80.8512 100.117 81.2519 102.327Z" fill="#D3DAE0"/>
<path d="M123.232 108.455C123.933 107.651 123.933 106.145 123.132 105.441C122.431 104.839 120.928 104.839 120.227 105.542C119.425 106.245 119.625 107.451 120.527 108.455C121.329 109.259 122.531 109.259 123.232 108.455Z" fill="#D3DAE0"/>
<path d="M123.131 121.714C123.232 122.116 123.633 122.618 123.933 122.718C124.734 123.02 124.935 122.216 125.336 121.613C124.835 120.91 124.334 120.408 123.633 120.81C123.332 121.011 123.031 121.513 123.131 121.714Z" fill="#D3DAE0"/>
<path d="M126.039 112.371C126.44 112.069 126.34 110.964 125.939 110.763C125.538 110.663 125.238 110.763 124.837 110.964C124.336 111.266 124.336 111.969 124.737 112.371C125.138 112.672 125.538 112.672 126.039 112.371Z" fill="#D3DAE0"/>
<path d="M124.936 102.829C124.836 103.03 124.735 103.331 124.836 103.532C124.936 103.633 125.336 103.934 125.637 103.733C125.938 103.432 125.537 103.03 125.437 102.829C125.437 102.729 124.936 102.729 124.936 102.829Z" fill="#D3DAE0"/>
<path d="M112.913 101.022C112.813 101.323 112.913 101.825 113.113 102.026C113.313 102.227 114.115 102.328 114.315 102.026C114.516 101.825 114.215 100.922 114.015 100.821C113.714 100.721 113.013 100.721 112.913 101.022Z" fill="#D3DAE0"/>
<path d="M115.418 94.1892C115.718 94.3901 116.72 94.6912 117.021 94.3901C117.321 94.0885 116.72 93.1846 116.52 92.8831C116.219 92.5819 115.718 92.5819 115.418 93.084C115.117 93.4858 115.017 93.8876 115.418 94.1892Z" fill="#D3DAE0"/>
<path d="M136.558 105.441C137.059 105.039 137.059 104.536 136.558 104.034C136.157 103.633 135.456 103.633 135.055 104.034C134.654 104.436 134.654 105.139 135.055 105.441C135.456 105.943 136.057 105.842 136.558 105.441Z" fill="#D3DAE0"/>
<path d="M116.723 87.1585C116.623 87.2587 116.322 87.8615 116.522 88.0624C116.723 88.2633 117.324 88.0624 117.424 87.8615C117.524 87.7612 117.624 87.3594 117.424 87.1585C117.223 86.9576 116.923 87.0582 116.723 87.1585Z" fill="#D3DAE0"/>
<path d="M116.919 79.5239C117.019 79.4232 117.22 79.0214 117.019 78.8205C116.819 78.6196 116.318 78.9211 116.218 79.0214C116.118 79.122 116.118 79.5239 116.218 79.6241C116.318 79.7248 116.719 79.6241 116.919 79.5239Z" fill="#D3DAE0"/>
<path d="M119.427 111.567C119.828 110.964 119.928 110.462 119.326 110.06C119.126 109.96 118.625 109.96 118.425 110.06C118.225 110.261 117.924 110.763 118.024 110.964C118.225 111.667 118.826 111.567 119.427 111.567Z" fill="#D3DAE0"/>
<path d="M133.051 135.074C132.65 135.475 132.55 136.179 132.951 136.581C133.151 136.781 133.352 136.882 133.552 136.882C133.652 137.284 134.253 137.786 134.754 137.886C135.255 137.987 135.656 137.585 135.656 136.982C135.656 136.078 135.455 135.475 134.955 135.475C134.854 135.475 134.754 135.475 134.754 135.475C134.754 135.375 134.654 135.174 134.554 135.074C134.053 134.772 133.452 134.672 133.051 135.074Z" fill="#D3DAE0"/>
<path d="M133.652 113.979C133.753 113.778 134.053 113.376 133.853 113.275C133.652 113.175 133.252 113.175 133.051 113.275C132.851 113.376 132.65 113.979 132.851 114.18C133.151 114.28 133.552 114.079 133.652 113.979Z" fill="#D3DAE0"/>
<path d="M133.15 128.344C133.551 127.942 133.451 127.339 133.05 126.937C132.549 126.435 131.848 126.435 131.447 126.937C131.047 127.339 131.147 128.143 131.547 128.545C131.848 128.846 132.75 128.745 133.15 128.344Z" fill="#D3DAE0"/>
<path d="M136.359 116.591C136.759 116.089 136.659 115.486 136.158 115.085C135.657 114.582 135.056 114.582 134.756 114.884C134.455 115.386 134.455 116.39 134.856 116.792C135.156 117.194 135.958 117.094 136.359 116.591Z" fill="#D3DAE0"/>
<path d="M127.04 119.202C127.04 119.303 127.24 119.805 127.541 119.705C127.841 119.604 127.942 119.102 127.942 118.901C127.942 118.8 127.641 118.499 127.44 118.499C127.24 118.599 127.04 118.901 127.04 119.202Z" fill="#D3DAE0"/>
<path d="M124.936 91.8783C125.237 92.0792 126.138 92.3804 126.238 92.1794C126.439 91.9785 126.238 91.0747 126.038 90.7731C125.838 90.3713 125.237 90.3713 124.836 90.7731C124.435 91.1749 124.635 91.5767 124.936 91.8783Z" fill="#D3DAE0"/>
<path d="M126.036 115.887C125.936 116.088 125.836 116.39 125.836 116.49C125.836 116.691 126.137 116.992 126.337 116.992C126.538 116.992 126.738 116.59 126.738 116.39C126.738 116.39 126.738 116.289 126.738 116.189C126.938 116.189 127.139 116.088 127.239 115.787C127.439 115.486 127.539 115.084 127.439 114.782C127.239 114.481 126.237 114.481 125.836 114.883C125.636 115.385 125.836 115.687 126.036 115.887Z" fill="#D3DAE0"/>
<path d="M130.545 122.015C131.046 121.412 131.046 120.206 130.545 119.704C130.145 119.302 128.942 119.604 128.341 120.307C127.94 120.709 128.041 121.613 128.542 122.015C129.143 122.416 130.145 122.416 130.545 122.015Z" fill="#D3DAE0"/>
<path d="M129.944 107.951C130.244 107.549 130.244 107.248 129.843 106.946C129.443 106.645 129.042 106.444 128.541 106.846C128.24 107.147 128.14 107.951 128.541 108.252C128.841 108.654 129.443 108.453 129.944 107.951Z" fill="#D3DAE0"/>
<path d="M117.924 100.619C118.325 100.116 118.225 99.2123 117.824 98.8105C117.323 98.308 115.62 98.308 115.319 98.8105C114.919 99.4132 115.119 100.518 115.821 101.121C116.522 101.523 117.223 101.422 117.924 100.619Z" fill="#D3DAE0"/>
<path d="M92.4732 96.4009C93.2749 97.1039 93.8759 97.2045 94.4769 96.6018C95.0783 95.9991 95.0783 94.7937 94.577 94.2912C94.0762 93.7891 92.7737 93.7891 92.1727 94.3918C91.772 94.7937 91.8722 95.7982 92.4732 96.4009Z" fill="#D3DAE0"/>
<path d="M92.0738 77.1118C92.7753 76.71 92.9757 76.1073 92.8755 75.4039C92.7753 74.6003 92.2741 74.2991 91.573 74.1985C91.0722 74.1985 89.97 73.7967 89.4691 74.3994C89.0681 75.1028 89.6695 75.4039 89.7696 75.7055C90.1703 76.8103 91.3726 77.5137 92.0738 77.1118Z" fill="#D3DAE0"/>
<path d="M96.6844 92.4818C96.7846 92.2809 96.6844 91.7784 96.4841 91.4772C96.2838 91.1757 95.783 91.0754 95.5826 91.5775C95.3823 91.8791 95.0814 92.6827 95.3823 92.9839C95.6828 93.2854 96.4841 92.6827 96.6844 92.4818Z" fill="#D3DAE0"/>
<path d="M89.4673 93.3856C89.9681 92.9838 89.7677 92.1802 89.2669 91.7783C88.8659 91.4772 88.2649 91.5774 87.8642 91.9793C87.5634 92.3811 87.5634 93.1847 88.2649 93.6872C88.5654 93.6872 89.0662 93.6872 89.4673 93.3856Z" fill="#D3DAE0"/>
<path d="M85.2604 76.9115C85.661 76.6104 85.661 75.907 85.2604 75.5052C84.8593 75.1034 84.1582 75.0031 83.8577 75.4049C83.5568 75.907 83.4566 76.4095 83.8577 76.8113C84.1582 77.3133 84.8593 77.3133 85.2604 76.9115Z" fill="#D3DAE0"/>
<path d="M85.0613 98.8101C84.9611 99.011 84.9611 99.4128 85.0613 99.5135C85.1618 99.6137 85.7628 99.7144 85.863 99.6137C85.9631 99.5135 85.7628 98.9107 85.6626 98.8101C85.5625 98.7098 85.1618 98.7098 85.0613 98.8101Z" fill="#D3DAE0"/>
<path d="M85.5632 89.1665C86.2644 89.669 87.3666 89.1665 87.5669 88.8653C87.7672 88.5638 87.4667 87.3583 86.665 87.0572C86.1642 86.8563 85.6634 87.0572 85.3625 87.6599C85.062 88.2626 85.062 88.8653 85.5632 89.1665Z" fill="#D3DAE0"/>
<path d="M95.9833 85.8518C96.2842 86.0527 97.2859 86.3539 97.4862 86.0527C97.6869 85.7512 97.2859 84.8473 97.0855 84.5457C96.8852 84.1439 96.1837 84.3448 95.8832 84.7466C95.6828 85.1485 95.5827 85.6509 95.9833 85.8518Z" fill="#D3DAE0"/>
<path d="M85.7619 92.6815C85.3613 92.2797 84.5596 92.2801 84.2591 92.7821C83.8584 93.2846 83.9586 94.0878 84.4594 94.3894C84.8604 94.6905 85.6618 94.6909 85.9622 94.1885C86.2627 93.8869 86.1626 93.0833 85.7619 92.6815Z" fill="#D3DAE0"/>
<path d="M111.311 105.239C111.411 105.841 111.812 106.143 112.413 106.143C112.914 106.143 113.215 105.942 113.415 105.44C113.615 104.636 113.114 104.234 112.513 103.832C111.912 104.234 111.211 104.435 111.311 105.239Z" fill="#D3DAE0"/>
<path d="M107.903 105.44C108.303 105.841 108.905 105.741 109.506 105.138C110.107 104.435 110.207 103.832 109.706 103.43C109.005 102.828 108.103 102.727 107.703 103.33C107.301 103.732 107.502 105.038 107.903 105.44Z" fill="#D3DAE0"/>
<path d="M99.0856 79.7242C99.3865 79.5233 99.1858 79.0209 99.0856 79.0209C98.8853 78.9206 98.5848 78.9206 98.3845 78.9206C98.2843 78.9206 98.1841 79.4227 98.2843 79.5233C98.4846 79.6236 98.7851 79.9251 99.0856 79.7242Z" fill="#D3DAE0"/>
<path d="M108.604 109.661C108.604 110.364 109.406 110.565 108.805 111.067C108.204 111.57 107.001 112.775 108.104 113.88C108.604 114.382 109.707 114.382 110.308 113.88C110.207 114.483 110.508 115.186 111.009 115.588C111.71 116.19 113.113 115.99 113.714 115.186C114.315 114.483 114.215 113.378 113.614 112.875C113.013 112.373 111.71 112.373 111.009 112.775C111.109 112.473 111.109 112.172 111.009 111.971C110.709 111.369 112.111 111.067 111.71 110.263C111.31 109.56 112.111 108.757 111.51 107.853C110.909 106.949 109.807 106.446 109.206 107.15C108.705 108.053 108.705 108.757 108.604 109.661Z" fill="#D3DAE0"/>
<path d="M113.713 97.2032C114.113 96.8013 114.013 96.1986 113.613 95.7968C113.112 95.2947 112.41 95.2947 112.01 95.7968C111.609 96.1986 111.709 97.0023 112.11 97.4041C112.51 97.7056 113.312 97.605 113.713 97.2032Z" fill="#D3DAE0"/>
<path d="M111.409 92.7814C111.509 92.6812 111.409 92.4803 111.309 92.3796C111.209 92.2793 111.009 92.2793 110.908 92.3796C110.808 92.4803 110.808 92.6812 110.908 92.8821C111.109 92.9823 111.309 92.8821 111.409 92.7814Z" fill="#D3DAE0"/>
<path d="M98.7863 95.6976C99.4879 96.401 101.291 96.5012 101.992 95.7982C102.694 95.0949 102.594 93.6885 101.892 93.0858C101.091 92.3828 99.8885 92.2822 99.187 92.9855C98.3857 93.7892 98.1853 95.0949 98.7863 95.6976Z" fill="#D3DAE0"/>
<path d="M103.394 77.7148C103.895 77.7148 104.196 77.5139 104.396 77.0118C104.596 76.2082 104.095 75.8064 103.494 75.4045C102.893 75.8064 102.191 76.0073 102.392 76.8109C102.392 77.313 102.793 77.6145 103.394 77.7148Z" fill="#D3DAE0"/>
<path d="M105.5 91.9774C104.999 92.4799 104.898 93.0826 105.299 93.4844C105.8 94.0871 107.003 94.0871 107.503 93.5847C108.004 93.1829 108.004 92.3792 107.604 91.8772C107.103 91.3747 106.001 91.3747 105.5 91.9774Z" fill="#D3DAE0"/>
<path d="M103.596 85.7522C102.995 86.4556 103.095 87.4601 103.897 88.1631C104.498 88.6655 105.7 88.4646 106.201 87.8619C106.802 87.1585 106.702 86.2546 105.8 85.6519C104.999 84.9486 104.197 85.0492 103.596 85.7522Z" fill="#D3DAE0"/>
<path d="M350.461 218.05C342.145 215.237 333.529 214.734 325.414 216.241C320.004 187.009 299.364 161.394 269.107 151.349C224.924 136.481 177.034 160.389 162.206 204.689C160.903 208.506 160.001 212.324 159.3 216.141C135.556 212.424 111.81 226.287 103.996 249.793C95.1793 276.112 109.406 304.64 135.656 313.38C140.565 314.987 145.574 315.891 150.484 315.991C150.684 315.991 150.984 315.991 151.185 315.991H240.453C240.854 315.991 241.255 315.991 241.655 315.991H333.429C333.629 315.991 333.93 315.991 334.13 315.991H335.934C356.372 315.389 375.308 302.229 382.221 281.737C390.936 255.318 376.811 226.889 350.461 218.05Z" fill="#41A3DB"/>
<path d="M277.523 312.778C277.724 312.878 278.024 312.979 278.224 312.878C278.625 312.577 279.026 312.175 279.427 311.773C280.729 311.974 281.731 311.572 281.831 310.769C281.931 309.965 281.03 308.86 280.228 308.659C279.327 308.458 279.026 308.86 278.625 310.769C277.924 310.668 277.122 310.568 276.922 311.472C276.822 311.974 277.022 312.476 277.523 312.778Z" fill="#0D90E0"/>
<path d="M292.951 294.894C293.051 295.095 293.352 295.296 293.552 295.296C293.753 295.296 294.153 295.095 294.153 294.693C294.053 294.291 293.552 294.392 293.352 294.392C293.152 294.492 292.951 294.894 292.951 294.894Z" fill="#0D90E0"/>
<path d="M292.251 305.542C291.85 306.245 292.151 307.752 293.153 308.154C294.255 308.556 295.057 308.254 295.557 307.651C296.058 307.049 295.557 305.843 294.756 305.14C294.155 304.638 292.652 304.839 292.251 305.542Z" fill="#0D90E0"/>
<path d="M294.356 282.54C294.155 282.54 293.454 283.142 293.554 283.343C293.655 283.644 294.356 283.845 294.556 283.745C294.857 283.644 295.258 283.243 295.157 283.042C295.057 282.841 294.556 282.54 294.356 282.54Z" fill="#0D90E0"/>
<path d="M296.459 303.234C296.258 303.334 295.957 303.736 296.058 304.037C296.158 304.338 296.358 304.74 296.659 304.841C297.36 305.042 297.661 304.439 297.861 303.936C297.46 303.334 297.06 302.932 296.459 303.234Z" fill="#0D90E0"/>
<path d="M294.354 297.608C293.453 297.91 292.751 299.215 293.052 300.22C293.353 301.224 294.455 301.727 295.757 301.425C296.759 301.124 297.36 300.12 297.059 299.115C296.759 298.01 295.356 297.307 294.354 297.608Z" fill="#0D90E0"/>
<path d="M288.945 310.565C289.345 311.468 289.946 311.87 290.748 312.272C291.349 312.674 291.95 311.971 292.151 312.875C292.251 313.678 292.752 315.286 294.154 314.884C294.855 314.683 295.457 313.678 295.256 312.975C295.757 313.277 296.458 313.478 297.06 313.176C297.961 312.875 298.462 311.569 298.061 310.665C297.661 309.761 296.759 309.259 295.958 309.56C295.256 309.861 294.655 310.966 294.555 311.77C294.355 311.569 294.054 311.368 293.754 311.368C293.152 311.368 293.553 309.962 292.651 309.861C291.85 309.761 291.449 308.756 290.447 308.857C289.646 308.957 288.644 309.761 288.945 310.565Z" fill="#0D90E0"/>
<path d="M302.27 296.802C301.569 296.601 300.968 296.702 300.467 297.305C300.266 297.606 300.166 297.907 300.166 298.209C299.966 298.41 299.966 298.711 299.966 299.012C299.966 299.515 300.467 299.816 300.867 299.816C300.968 299.917 301.068 300.117 301.268 300.218C301.168 300.419 301.168 300.619 301.068 300.921C300.968 301.825 301.368 302.829 301.97 303.131C302.771 303.533 303.673 303.432 304.474 302.93C304.675 302.729 304.975 302.428 304.975 302.127C305.075 301.423 304.875 300.82 304.474 300.419C304.574 300.419 304.775 300.419 304.875 300.318C305.376 300.117 305.676 299.615 305.376 299.213C305.176 298.912 304.975 298.51 304.574 298.61C304.274 298.61 303.673 299.515 303.873 300.017C303.673 299.917 303.573 299.816 303.272 299.816C303.072 299.716 302.771 299.716 302.571 299.615C302.671 299.213 302.871 298.811 302.971 298.309C303.272 297.506 303.072 297.104 302.27 296.802Z" fill="#0D90E0"/>
<path d="M296.959 300.823C296.457 300.923 295.957 301.827 296.658 302.43C297.459 302.932 298.161 302.028 298.061 301.526C297.961 301.124 297.359 300.722 296.959 300.823Z" fill="#0D90E0"/>
<path d="M262.097 307.252C261.495 308.055 262.698 309.06 263.098 308.859C263.6 308.759 264.1 307.553 263.7 307.151C263.198 306.549 262.698 306.348 262.097 307.252Z" fill="#0D90E0"/>
<path d="M277.423 301.926C277.624 301.826 277.624 301.625 277.624 301.524C277.624 301.424 277.323 301.324 277.223 301.424C277.123 301.424 277.022 301.625 277.022 301.725C277.123 301.826 277.223 302.027 277.423 301.926Z" fill="#0D90E0"/>
<path d="M260.49 300.922C260.791 300.521 260.791 300.119 260.39 299.717C259.789 299.114 259.188 299.315 258.486 299.717C258.486 300.42 258.286 301.123 259.088 301.424C259.588 301.625 260.089 301.424 260.49 300.922Z" fill="#0D90E0"/>
<path d="M259.489 305.343C259.288 305.444 259.088 305.745 259.088 305.946C259.088 306.046 259.389 306.348 259.489 306.348C259.689 306.247 260.09 306.147 260.09 305.745C260.09 305.243 259.589 305.243 259.489 305.343Z" fill="#0D90E0"/>
<path d="M262.796 310.969C262.996 311.371 263.397 311.672 263.798 311.471C263.898 311.471 263.898 311.37 263.998 311.37C264.299 311.772 264.9 311.371 265.1 311.17C265.301 310.969 265.501 310.567 265.201 310.265C265.1 310.165 264.9 310.064 264.699 310.064C264.399 309.763 263.598 309.763 263.297 309.763C262.796 309.763 262.596 310.466 262.796 310.969Z" fill="#0D90E0"/>
<path d="M257.888 314.281C257.989 314.784 258.489 315.085 258.89 315.186C258.89 315.286 258.99 315.286 259.09 315.387C259.491 315.588 259.992 315.588 260.393 315.487C260.794 315.286 260.693 314.382 260.293 314.181C260.193 314.081 260.092 314.081 259.992 314.081C259.992 314.081 259.992 314.081 259.992 313.98C259.892 313.478 259.09 312.976 258.69 313.076C258.089 313.076 257.688 313.779 257.888 314.281Z" fill="#0D90E0"/>
<path d="M269.71 315.589C270.11 315.489 270.01 314.484 269.91 314.183C269.81 313.982 269.309 313.882 269.008 313.882C268.607 313.982 268.307 314.283 268.607 314.685C268.808 314.987 269.309 315.79 269.71 315.589Z" fill="#0D90E0"/>
<path d="M275.922 294.695C276.223 294.594 276.323 293.992 276.223 293.891C276.122 293.69 275.822 293.389 275.622 293.489C275.421 293.59 275.221 293.992 275.321 294.092C275.321 294.293 275.722 294.795 275.922 294.695Z" fill="#0D90E0"/>
<path d="M273.916 306.247C274.116 306.95 274.617 307.352 275.118 307.151C275.819 307.051 276.52 306.046 276.32 305.242C276.22 304.64 275.519 304.238 274.917 304.338C274.216 304.64 273.715 305.544 273.916 306.247Z" fill="#0D90E0"/>
<path d="M296.658 315.989H297.76C297.66 315.889 297.66 315.79 297.56 315.691H297.66C297.259 315.79 296.959 315.889 296.658 315.989Z" fill="#0D90E0"/>
<path d="M283.034 315.688C282.934 315.085 282.633 314.683 282.332 314.381C282.332 314.08 282.232 313.779 281.932 313.578C281.431 313.176 280.93 313.176 280.529 313.578C280.128 314.08 280.028 314.984 280.228 315.386C280.128 315.587 280.128 315.788 280.228 315.989H283.034C283.034 315.888 283.034 315.788 283.034 315.688Z" fill="#0D90E0"/>
<path d="M273.515 314.483C273.415 314.382 273.315 314.382 273.215 314.282C272.513 314.282 272.413 314.382 272.112 314.784C271.812 315.186 271.812 315.488 271.812 315.688C271.912 315.688 272.112 315.789 272.313 315.889H273.615C273.816 315.588 273.515 314.885 273.515 314.483Z" fill="#0D90E0"/>
<path d="M273.114 309.963C272.112 310.265 271.41 311.37 271.711 312.274C272.011 313.379 273.013 314.183 273.915 313.981C274.917 313.78 275.918 312.173 275.618 311.269C275.217 310.265 274.015 309.662 273.114 309.963Z" fill="#0D90E0"/>
<path d="M280.127 297.206C279.626 297.306 279.526 297.708 279.726 298.21C279.927 298.612 280.227 299.014 280.728 298.713C281.029 298.512 281.83 297.909 281.73 297.407C281.63 297.106 280.528 297.106 280.127 297.206Z" fill="#0D90E0"/>
<path d="M281.23 301.023C280.529 301.224 280.228 301.826 280.429 302.429C280.629 302.931 281.331 303.333 281.831 303.132C282.433 302.931 282.733 302.127 282.533 301.625C282.333 301.123 281.831 300.922 281.23 301.023Z" fill="#0D90E0"/>
<path d="M253.277 308.859C252.576 308.557 251.975 308.859 251.674 309.361C251.374 309.863 250.472 310.566 250.873 311.27C251.274 311.973 251.875 311.571 252.175 311.671C253.177 311.973 254.379 311.27 254.379 310.365C254.379 309.662 253.979 309.16 253.277 308.859Z" fill="#0D90E0"/>
<path d="M283.133 287.862C282.632 287.862 282.432 288.365 282.532 288.967C282.632 289.57 283.133 289.67 283.534 289.469C283.835 289.369 284.536 288.666 284.436 288.465C284.335 288.264 283.434 287.862 283.133 287.862Z" fill="#0D90E0"/>
<path d="M254.179 307.753C253.578 308.054 253.879 309.561 254.28 309.661C254.78 309.762 255.782 308.757 255.482 308.155C255.282 307.753 254.58 307.451 254.179 307.753Z" fill="#0D90E0"/>
<path d="M254.782 315.889C254.882 315.688 254.782 315.387 254.782 315.287C254.481 314.081 253.279 313.679 252.378 314.483C251.876 314.885 251.476 315.387 251.175 315.99H254.782C254.782 315.889 254.782 315.889 254.782 315.889Z" fill="#0D90E0"/>
<path d="M254.479 312.072C254.279 312.072 253.878 312.474 253.878 312.775C253.878 313.077 254.479 313.177 254.679 313.077C254.88 312.976 255.18 312.775 255.08 312.474C255.08 312.173 254.679 312.072 254.479 312.072Z" fill="#0D90E0"/>
<path d="M254.782 301.727C254.581 301.928 254.581 302.43 254.782 302.732C255.082 303.134 255.583 303.134 255.883 302.732C256.084 302.531 256.485 301.828 255.983 301.326C255.483 300.924 254.982 301.426 254.782 301.727Z" fill="#0D90E0"/>
<path d="M299.867 301.226C299.567 301.025 299.166 301.427 299.166 301.828C299.166 302.23 299.367 302.833 299.667 303.034C300.068 303.335 300.368 303.034 300.468 302.933C300.669 302.632 300.468 302.331 300.368 302.029C300.268 301.728 300.168 301.427 299.867 301.226Z" fill="#0D90E0"/>
<path d="M299.865 285.353C299.264 285.554 298.963 286.056 299.063 286.659C299.164 287.161 299.765 287.563 300.266 287.362C300.867 287.262 301.167 286.659 300.967 285.956C300.867 285.454 300.466 285.253 299.865 285.353Z" fill="#0D90E0"/>
<path d="M298.363 293.792C298.463 294.294 299.165 294.696 299.566 294.495C299.966 294.394 300.066 293.691 299.866 293.089C299.766 292.687 299.365 292.486 298.965 292.687C298.563 292.888 298.163 293.189 298.363 293.792Z" fill="#0D90E0"/>
<path d="M304.573 312.574C304.073 313.076 303.972 313.579 304.373 314.282C304.874 314.985 305.876 315.085 306.577 314.583C306.577 314.684 306.577 314.784 306.577 314.885C306.777 315.487 307.779 316.09 308.48 315.889C308.982 315.788 309.382 314.684 309.182 314.081C308.982 313.579 308.48 313.378 307.88 313.579C307.679 313.679 307.479 313.78 307.279 313.78C307.379 313.478 307.479 313.277 307.679 313.177C308.18 312.875 308.18 312.474 307.98 311.871C307.779 311.268 307.379 310.364 306.577 310.666C305.776 310.967 305.876 311.57 305.976 311.771C306.076 311.972 305.876 312.574 305.676 312.373C305.475 311.972 305.174 311.972 304.573 312.574Z" fill="#0D90E0"/>
<path d="M283.938 315.991H288.748C288.848 315.69 288.848 315.388 288.647 315.187C288.246 314.685 287.345 314.886 287.144 315.087C286.643 315.69 286.142 315.288 285.642 315.288C285.14 315.288 284.64 315.589 284.239 315.79C284.139 315.79 284.038 315.89 283.938 315.991Z" fill="#0D90E0"/>
<path d="M286.341 304.639C286.542 304.539 287.143 303.936 286.942 303.635C286.742 303.334 285.94 303.133 285.84 303.233C285.54 303.434 285.239 304.037 285.339 304.238C285.54 304.539 286.141 304.74 286.341 304.639Z" fill="#0D90E0"/>
<path d="M284.836 310.063C285.037 310.565 286.239 311.067 286.84 310.967C287.441 310.866 287.641 310.264 287.341 309.46C287.04 308.556 286.64 308.255 285.938 308.456C285.037 308.656 284.535 309.36 284.836 310.063Z" fill="#0D90E0"/>
<path d="M287.641 306.147C287.641 306.85 287.441 307.553 288.242 307.855C288.743 308.056 289.244 307.855 289.544 307.352C289.845 306.951 289.845 306.549 289.444 306.147C288.943 305.545 288.342 305.746 287.641 306.147Z" fill="#0D90E0"/>
<path d="M285.938 298.913C285.237 299.114 284.435 300.52 284.636 301.123C284.936 301.826 286.038 302.128 286.94 301.826C287.741 301.525 287.942 300.822 287.641 299.817C287.34 299.215 286.439 298.712 285.938 298.913Z" fill="#0D90E0"/>
<path d="M298.062 308.656C298.062 309.359 298.463 309.761 299.265 309.56C299.465 309.661 299.766 309.761 299.966 309.56C300.066 309.46 300.066 309.359 299.966 309.259C300.367 308.958 300.968 308.455 301.469 307.953C301.87 307.551 301.87 306.948 301.369 306.547C300.968 306.145 300.467 306.044 299.966 306.446C299.766 306.647 299.465 306.848 299.165 306.949C298.363 307.35 297.962 307.852 298.062 308.656Z" fill="#0D90E0"/>
<path d="M243.76 304.438C243.159 305.141 243.259 306.246 243.96 306.949C244.862 307.753 246.164 307.753 246.866 306.849C247.567 306.045 247.567 305.141 246.966 304.538C246.064 303.835 244.361 303.734 243.76 304.438Z" fill="#0D90E0"/>
<path d="M249.472 310.365C249.071 310.365 248.77 312.274 249.071 312.575C249.372 312.977 250.373 312.475 250.574 311.672C250.874 310.868 249.872 310.365 249.472 310.365Z" fill="#0D90E0"/>
<path d="M243.86 298.51C243.659 298.409 243.058 298.61 242.958 298.912C242.857 299.213 243.459 299.715 243.659 299.715C243.86 299.715 244.26 299.414 244.26 299.213C244.36 298.912 244.06 298.61 243.86 298.51Z" fill="#0D90E0"/>
<path d="M302.673 288.366C303.174 288.767 304.175 288.466 304.777 287.763C305.077 287.361 304.977 286.557 304.576 286.156C303.975 285.754 302.973 285.754 302.572 286.256C302.172 286.859 302.172 287.964 302.673 288.366Z" fill="#0D90E0"/>
<path d="M267.505 304.839C267.805 305.743 268.807 306.145 269.709 305.843C270.41 305.643 270.911 304.437 270.611 303.633C270.31 302.729 269.508 302.428 268.506 302.83C267.505 303.131 267.104 303.935 267.505 304.839Z" fill="#0D90E0"/>
<path d="M232.838 299.818C232.237 300.521 232.337 302.43 232.938 303.033C233.64 303.736 235.042 303.635 235.743 302.731C236.345 302.028 236.345 300.421 235.643 299.818C234.842 299.115 233.439 299.115 232.838 299.818Z" fill="#0D90E0"/>
<path d="M230.335 309.461C230.234 309.561 230.134 309.963 230.335 310.164C230.535 310.365 230.936 310.265 231.036 310.164C231.136 310.064 231.437 309.461 231.236 309.26C231.036 309.059 230.435 309.26 230.335 309.461Z" fill="#0D90E0"/>
<path d="M238.049 313.982C237.548 313.48 236.747 313.58 236.045 314.284C235.545 314.786 235.444 315.489 235.945 315.891H238.35C238.751 315.388 238.65 314.585 238.049 313.982Z" fill="#0D90E0"/>
<path d="M218.313 313.679C219.315 314.383 220.518 313.78 221.219 313.077C221.92 312.273 221.419 310.264 220.317 309.662C219.516 309.26 218.915 310.264 218.915 310.867C219.015 311.469 218.915 311.269 218.313 311.671C217.812 312.072 217.312 312.976 218.313 313.679Z" fill="#0D90E0"/>
<path d="M227.93 313.076C227.73 313.378 227.83 313.78 227.73 314.081C228.331 314.483 228.932 314.383 229.333 313.981C229.633 313.578 229.433 313.277 229.133 312.976C228.731 312.574 228.13 312.675 227.93 313.076Z" fill="#0D90E0"/>
<path d="M222.119 306.546C222.019 306.646 221.818 307.048 222.019 307.249C222.219 307.45 222.72 307.149 222.82 307.048C222.92 306.948 222.92 306.546 222.82 306.445C222.62 306.345 222.319 306.445 222.119 306.546Z" fill="#0D90E0"/>
<path d="M268.106 289.672C267.806 289.773 267.806 290.275 267.906 290.476C267.906 290.576 268.206 290.877 268.407 290.777C268.607 290.677 268.708 290.375 268.708 290.074C268.708 289.974 268.407 289.572 268.106 289.672Z" fill="#0D90E0"/>
<path d="M242.058 315.489C241.958 315.59 241.858 315.791 241.858 315.991H243.962C243.962 315.791 243.862 315.69 243.762 315.59C243.261 315.088 242.459 315.088 242.058 315.489Z" fill="#0D90E0"/>
<path d="M245.363 315.989H246.565C246.265 315.89 245.964 315.79 245.764 315.79C245.664 315.79 245.464 315.89 245.363 315.989Z" fill="#0D90E0"/>
<path d="M239.552 310.868C239.151 311.27 238.951 311.772 239.351 312.275C239.552 312.576 239.952 312.777 240.253 312.777C240.854 312.777 241.155 312.375 241.355 311.169C240.754 310.868 240.253 310.366 239.552 310.868Z" fill="#0D90E0"/>
<path d="M250.572 315.99C250.372 315.689 249.871 315.488 249.47 315.588C249.169 315.588 248.969 315.789 248.869 315.99H250.572Z" fill="#0D90E0"/>
<path d="M304.274 315.388C303.472 314.885 303.372 314.182 303.372 313.58C303.172 312.776 302.47 312.173 301.869 312.274C301.268 312.274 300.366 313.379 300.366 313.981C300.366 314.484 300.266 315.187 300.967 315.287C301.468 315.388 301.769 315.589 302.07 315.89H304.574C304.574 315.79 304.474 315.589 304.274 315.388Z" fill="#0D90E0"/>
<path d="M301.87 310.766C302.07 311.368 303.173 311.871 303.774 311.67C304.275 311.469 304.675 310.264 304.475 309.661C304.275 309.058 303.673 308.857 303.072 309.058C301.97 309.359 301.57 309.962 301.87 310.766Z" fill="#0D90E0"/>
<path d="M304.476 306.851C304.375 306.449 303.774 306.047 303.373 306.148C302.873 306.248 302.772 306.65 303.073 307.755C303.875 308.157 304.576 307.354 304.476 306.851Z" fill="#0D90E0"/>
<path d="M256.782 252.806C287.039 252.806 312.888 233.82 323.207 207.3C315.593 181.986 296.156 160.489 269.105 151.448C224.922 136.581 177.031 160.489 162.203 204.789C160.901 208.606 159.999 212.423 159.298 216.241C135.553 212.524 111.808 226.387 103.993 249.893C103.693 250.897 103.392 251.902 103.092 252.906C152.886 252.806 240.852 252.806 256.782 252.806Z" fill="#294492"/>
</g>
<defs>
<clipPath id="clip0_658:56354">
<rect width="407" height="355" fill="white"/>
</clipPath>
</defs>
</svg>
