<svg width="78" height="91" viewBox="0 0 78 91" fill="none" xmlns="http://www.w3.org/2000/svg">
<g clip-path="url(#clip0)">
<path d="M76.6311 17.0884C76.6826 17.1142 76.8368 17.0627 76.8368 17.0112C76.8368 16.9597 76.734 16.8567 76.6826 16.8567C76.6311 16.8567 76.5283 16.8824 76.5283 16.9597C76.5283 17.0369 76.5797 17.0884 76.6311 17.0884Z" fill="#E6EBF2"/>
<path d="M77.6846 22.4959C77.6846 22.5217 77.6846 22.5989 77.736 22.6504C77.736 22.6762 77.736 22.7019 77.7103 22.7277C77.7103 22.8564 77.736 22.9594 77.8645 22.9852C78.173 23.0624 78.4815 23.1139 78.7899 23.0109C78.8414 22.9852 78.8928 22.9337 78.9185 22.9337C79.1241 22.6762 79.047 22.3929 78.7385 22.3157C78.5586 22.2642 78.3529 22.2642 78.1473 22.2642C78.0445 22.2642 77.9416 22.3414 77.8645 22.4187H77.8388C77.7874 22.3929 77.6846 22.4444 77.6846 22.4959Z" fill="#E6EBF2"/>
<path d="M77.1195 21.4662C77.2223 21.5949 77.4794 21.5692 77.5822 21.3632C77.6079 21.2859 77.5822 21.1057 77.5308 21.0284C77.4794 20.9769 77.3252 20.9511 77.248 20.9769C77.0167 21.0799 77.0167 21.3632 77.1195 21.4662Z" fill="#E6EBF2"/>
<path d="M76.9391 20.7706C77.0933 20.7964 77.2476 20.6934 77.2733 20.5646C77.299 20.4101 77.1962 20.2299 77.0419 20.2041C76.8877 20.1784 76.7592 20.2814 76.7335 20.4359C76.7078 20.6161 76.8106 20.7449 76.9391 20.7706Z" fill="#E6EBF2"/>
<path d="M77.865 19.4577C77.865 19.3032 77.9164 19.0972 77.6851 19.0457C77.5308 18.9942 77.4023 19.0457 77.3509 19.2002C77.3252 19.2774 77.3252 19.4062 77.3766 19.4577C77.4537 19.5864 77.5822 19.5864 77.865 19.4577Z" fill="#E6EBF2"/>
<path d="M59.4072 4.88306C59.4843 4.93456 59.5872 4.98606 59.6643 5.03756C59.6643 5.01181 59.6386 4.98606 59.6129 4.96031C59.5872 4.90881 59.4843 4.88306 59.4072 4.88306Z" fill="#E6EBF2"/>
<path d="M73.4943 22.2386C73.5715 22.2129 73.6229 22.2129 73.6743 22.1614C73.8285 22.0326 73.8799 21.7494 73.7771 21.5176C73.7 21.3631 73.5972 21.2344 73.7257 21.0541C73.8028 20.9254 73.7 20.7966 73.5458 20.7451C73.3401 20.8224 73.2887 20.9511 73.3658 21.1314C73.2887 21.1829 73.2116 21.2344 73.1602 21.2601C73.2373 21.5949 73.3658 21.9296 73.4943 22.2386Z" fill="#E6EBF2"/>
<path d="M77.2224 23.629C77.0682 23.6033 76.9396 23.6548 76.8625 23.732C76.6569 23.6805 76.5283 23.7063 76.5026 23.9638C76.4769 24.1955 76.7597 24.2728 76.8882 24.2213C76.9653 24.35 77.0939 24.4273 77.1967 24.4273C77.2481 24.4273 77.2995 24.4015 77.3509 24.3758C77.3252 24.453 77.3252 24.5818 77.4281 24.6075C77.5566 24.659 77.6337 24.4788 77.6337 24.4273C77.6337 24.3758 77.6337 24.247 77.5309 24.2213C77.5052 24.2213 77.4795 24.2213 77.4538 24.2213C77.4795 24.1698 77.5052 24.1183 77.5052 24.0668C77.608 23.8093 77.4795 23.6548 77.2224 23.629Z" fill="#E6EBF2"/>
<path d="M71.258 16.0585C71.2837 15.904 71.1809 15.7753 71.0266 15.7495C70.8467 15.7238 70.7181 15.801 70.6924 15.9555C70.6667 16.11 70.7696 16.2645 70.8981 16.2903C71.0523 16.2903 71.2323 16.1873 71.258 16.0585Z" fill="#E6EBF2"/>
<path d="M74.7025 23.1654C74.7282 23.0109 74.6511 22.9079 74.4969 22.8822C74.2141 22.8307 73.9827 22.9337 73.957 23.1139C73.957 23.1912 73.9827 23.2942 74.0341 23.3714C74.1884 23.4229 74.3683 23.5002 74.5226 23.5517C74.5226 23.5259 74.4969 23.5002 74.4712 23.4744C74.5997 23.3972 74.6768 23.2684 74.7025 23.1654Z" fill="#E6EBF2"/>
<path d="M74.4709 22.2384C74.3167 22.2127 74.1367 22.3414 74.1367 22.4959C74.1367 22.6504 74.2653 22.8049 74.4195 22.8307C74.5737 22.8307 74.728 22.7277 74.728 22.5989C74.728 22.4187 74.6251 22.2642 74.4709 22.2384Z" fill="#E6EBF2"/>
<path d="M74.1371 19.5347C73.9315 19.5089 73.6487 19.7407 73.623 19.9724C73.5973 20.1527 73.7001 20.3072 73.9315 20.3329C74.1885 20.3844 74.3428 20.2557 74.3942 19.9982C74.4199 19.7922 74.2914 19.5604 74.1371 19.5347Z" fill="#E6EBF2"/>
<path d="M75.6285 23.732C75.4999 23.7063 75.3714 23.7578 75.2686 23.835C75.4999 23.938 75.757 24.041 75.9883 24.144C75.9112 23.938 75.7827 23.7578 75.6285 23.732Z" fill="#E6EBF2"/>
<path d="M66.2971 6.06757C66.4 6.04182 66.3743 5.91306 66.3485 5.88731C66.3228 5.83581 66.2457 5.81006 66.1943 5.81006C66.1686 5.81006 66.1172 5.91306 66.1172 5.93881C66.1429 5.96456 66.1943 6.06757 66.2971 6.06757Z" fill="#E6EBF2"/>
<path d="M51.875 1.56127C52.0549 1.61277 52.2092 1.66426 52.3891 1.71576C52.3891 1.69001 52.3634 1.63851 52.3377 1.61276C52.2349 1.48401 52.0292 1.48402 51.875 1.56127Z" fill="#E6EBF2"/>
<path d="M60.8469 2.77147C60.9498 2.74572 60.8984 2.59122 60.8727 2.53972C60.8727 2.51397 60.7441 2.46247 60.7441 2.48822C60.6927 2.51397 60.6413 2.59122 60.667 2.64272C60.667 2.69422 60.7441 2.82297 60.8469 2.77147Z" fill="#E6EBF2"/>
<path d="M51.361 -0.0352352C51.2068 0.145015 51.2325 0.402513 51.4125 0.582763C51.541 0.711513 51.8495 0.685764 52.0294 0.531264C52.1836 0.351014 52.1579 0.119263 51.9523 -0.0609867C51.7466 -0.215487 51.5153 -0.215485 51.361 -0.0352352Z" fill="#E6EBF2"/>
<path d="M46.6569 0.273731C46.6312 0.325231 46.6055 0.376731 46.6055 0.428231C46.8111 0.453981 47.0168 0.479732 47.2224 0.505482C47.2224 0.376731 47.1453 0.196481 46.9911 0.119231C46.8882 0.0934804 46.734 0.14498 46.6569 0.273731Z" fill="#E6EBF2"/>
<path d="M53.3154 1.87036C53.3411 1.84461 53.3154 1.79311 53.2897 1.76736C53.264 1.74161 53.2126 1.74161 53.1869 1.76736C53.1612 1.79311 53.1355 1.84461 53.1869 1.89611C53.2383 1.92186 53.2897 1.89611 53.3154 1.87036Z" fill="#E6EBF2"/>
<path d="M59.6136 4.44539C59.6393 4.49689 59.7678 4.49689 59.7935 4.49689C59.8449 4.47114 59.9478 4.39389 59.8963 4.34239C59.8706 4.29089 59.7678 4.26514 59.7164 4.26514C59.6907 4.26514 59.5622 4.39389 59.6136 4.44539Z" fill="#E6EBF2"/>
<path d="M59.6132 3.62127C59.6646 3.59552 59.6646 3.41527 59.6389 3.36377C59.6132 3.31227 59.4076 3.23501 59.3561 3.28651C59.3047 3.33802 59.3304 3.54402 59.3819 3.56977C59.4076 3.62127 59.5618 3.67277 59.6132 3.62127Z" fill="#E6EBF2"/>
<path d="M60.6926 3.80146C60.7697 3.74996 60.7697 3.62121 60.7183 3.59546C60.6926 3.54396 60.6412 3.4667 60.5384 3.5182C60.4355 3.5697 60.4098 3.64696 60.4613 3.74996C60.5127 3.85296 60.6155 3.85296 60.6926 3.80146Z" fill="#E6EBF2"/>
<path d="M58.7391 4.49671C58.7391 4.47096 58.7391 4.41946 58.7134 4.39371C58.662 4.29071 58.5592 4.18771 58.4564 4.29071L58.4307 4.31646C58.5335 4.36796 58.6363 4.41946 58.7391 4.49671Z" fill="#E6EBF2"/>
<path d="M54.729 0.453972C54.6775 0.479721 54.6261 0.634219 54.6775 0.685719C54.729 0.737218 54.8832 0.685719 54.9089 0.659969C54.9346 0.63422 54.986 0.531222 54.9346 0.479723C54.8832 0.402474 54.7804 0.428222 54.729 0.453972Z" fill="#E6EBF2"/>
<path d="M54.7027 2.30802C54.7799 2.23077 54.6513 1.99902 54.5742 1.92177C54.4971 1.81877 54.3943 1.84452 54.2915 1.94752C54.2143 2.05052 54.1886 2.15352 54.2915 2.23077C54.3943 2.28227 54.6256 2.38527 54.7027 2.30802Z" fill="#E6EBF2"/>
<path d="M57.1195 1.84449C57.1709 1.79299 57.1195 1.56124 57.0938 1.48399C57.0424 1.38099 56.8881 1.38099 56.7853 1.48399C56.6568 1.58699 56.7082 1.68999 56.7853 1.76724C56.8624 1.81874 57.0681 1.89599 57.1195 1.84449Z" fill="#E6EBF2"/>
<path d="M49.8187 -0.00960618C49.8958 -0.0868561 49.7929 -0.318606 49.7415 -0.395856C49.6901 -0.498856 49.5102 -0.473106 49.4331 -0.370106C49.3559 -0.267106 49.3302 -0.138357 49.4331 -0.0868569C49.5102 -0.035357 49.7415 0.0676438 49.8187 -0.00960618Z" fill="#E6EBF2"/>
<path d="M42.3642 0.145063C42.5184 0.145063 42.6726 0.145063 42.8012 0.145063C42.8269 -0.00943738 42.7498 -0.0866874 42.6469 -0.138188C42.5441 -0.189688 42.4413 -0.163938 42.3385 -0.112438C42.2099 -0.0351875 42.1328 0.0420629 42.1328 0.145063C42.2099 0.145063 42.2871 0.145063 42.3642 0.145063Z" fill="#E6EBF2"/>
<path d="M40.4361 0.222271C40.4104 0.196521 40.4104 0.196519 40.3847 0.170769C40.2818 0.119269 40.1533 0.14502 40.0762 0.24802C40.2047 0.22227 40.3075 0.222271 40.4361 0.222271Z" fill="#E6EBF2"/>
<path d="M68.3273 12.6852C68.4301 12.8912 68.6357 12.917 68.8671 12.7625C68.9956 12.6852 69.0727 12.4535 69.0213 12.3247C68.9442 12.1702 68.5586 12.0157 68.4301 12.0672C68.2501 12.196 68.1987 12.4792 68.3273 12.6852Z" fill="#E6EBF2"/>
<path d="M72.3377 17.9382C72.312 17.964 72.2606 18.0155 72.2863 18.0412C72.312 18.067 72.3634 18.067 72.3891 18.067C72.4148 18.067 72.4148 17.9897 72.4148 17.964C72.4148 17.964 72.3634 17.9382 72.3377 17.9382Z" fill="#E6EBF2"/>
<path d="M72.2094 16.213C72.3122 16.213 72.5436 16.1615 72.5693 16.0327C72.595 15.904 72.4151 15.8267 72.3122 15.801C72.2094 15.7495 72.1066 15.7752 72.0552 15.904C72.0038 16.0327 72.0809 16.2387 72.2094 16.213Z" fill="#E6EBF2"/>
<path d="M72.8776 15.6465C73.0319 15.595 73.0833 15.4662 73.0062 15.3117C72.929 15.1572 72.7748 15.1058 72.6463 15.1573C72.5177 15.2088 72.4663 15.389 72.5177 15.492C72.5435 15.6722 72.6977 15.7237 72.8776 15.6465Z" fill="#E6EBF2"/>
<path d="M72.7491 20.3588C72.7748 20.3845 72.8005 20.3845 72.8262 20.3845C72.9547 20.4103 73.109 20.2815 73.1347 20.1528C73.1604 19.9983 73.0576 19.8438 72.929 19.818C72.9033 19.818 72.9033 19.818 72.8776 19.818C72.929 19.5863 72.8005 19.406 72.672 19.303L72.6462 19.2773C72.8262 19.2258 72.929 19.097 72.9804 18.8395C73.0061 18.7623 73.0061 18.6593 72.9804 18.6078C73.0318 18.6335 73.109 18.6335 73.1861 18.6078C73.366 18.5305 73.3917 18.2473 73.2889 18.0928C73.2118 17.964 72.9804 17.861 72.8262 17.8868C72.5948 17.964 72.5691 18.17 72.5691 18.2473C72.3121 18.2473 72.0807 18.4018 72.0293 18.6335C72.0293 18.6593 72.0293 18.685 72.0293 18.7108C72.2864 19.2773 72.5177 19.818 72.7491 20.3588Z" fill="#E6EBF2"/>
<path d="M72.6982 17.2173C72.6468 17.243 72.5954 17.3203 72.6211 17.3718C72.6211 17.4233 72.7496 17.5005 72.801 17.5005C72.8525 17.4748 72.8525 17.3203 72.8267 17.2688C72.8267 17.243 72.7239 17.2173 72.6982 17.2173Z" fill="#E6EBF2"/>
<path d="M71.644 11.5523C71.7211 11.5266 71.7468 11.2948 71.7211 11.1918C71.6954 11.0631 71.5668 11.0373 71.4383 11.0888C71.2841 11.1403 71.2841 11.2691 71.3612 11.3463C71.3869 11.4236 71.5669 11.5781 71.644 11.5523Z" fill="#E6EBF2"/>
<path d="M71.1299 13.9985C71.2584 14.0242 71.3098 13.8697 71.3098 13.8182C71.3098 13.7152 71.2327 13.4577 71.1299 13.432C71.0271 13.4062 70.8985 13.6637 70.9242 13.7152C70.9756 13.7925 71.0013 13.947 71.1299 13.9985Z" fill="#E6EBF2"/>
<path d="M71.4898 16.7537C71.3356 16.7279 71.2327 16.8309 71.207 17.0112C71.207 17.0884 71.207 17.1399 71.2327 17.1914V17.2172C71.2327 17.2429 71.2584 17.2429 71.2584 17.2429C71.2842 17.2944 71.3356 17.3717 71.3613 17.4232H71.387C71.4127 17.3974 71.4641 17.3717 71.4898 17.3202C71.6183 17.2944 71.7469 17.1657 71.7469 17.0369C71.7726 16.9082 71.644 16.7537 71.4898 16.7537Z" fill="#E6EBF2"/>
<path d="M71.5671 17.7579C71.5414 17.7579 71.5414 17.7579 71.5671 17.7579C71.6443 17.9382 71.7214 18.1184 71.8242 18.2987C71.927 18.2214 71.9527 18.0927 71.9013 17.9382C71.7985 17.7579 71.67 17.7064 71.5671 17.7579Z" fill="#E6EBF2"/>
<path d="M74.9086 18.1442C74.8829 18.3244 75.0114 18.4532 75.1656 18.4532C75.2941 18.4532 75.3199 18.3759 75.3456 18.2729C75.3713 18.1442 75.2941 18.0154 75.1656 18.0412C75.0371 18.0669 74.96 18.1184 74.9086 18.1442Z" fill="#E6EBF2"/>
<path d="M75.1654 20.3587C75.1397 20.5132 75.2682 20.642 75.4225 20.6677C75.3968 20.745 75.3711 20.8222 75.3711 20.951C75.3711 21.0797 75.3711 21.2085 75.2939 21.3372C75.1654 21.5175 75.2168 21.7235 75.2939 21.9037C75.3453 22.084 75.5767 22.187 75.7824 22.187C75.8081 22.187 75.8081 22.187 75.8338 22.187C75.7309 22.2642 75.6538 22.3672 75.6538 22.496C75.6281 22.6762 75.7824 22.805 76.0394 22.8565C76.2194 22.8822 76.4507 22.7535 76.4764 22.6247C76.5021 22.4187 76.3222 22.1355 76.1422 22.1097C76.1165 22.1097 76.0908 22.1097 76.0651 22.1097C76.1165 22.0582 76.1679 22.0067 76.1937 21.9037C76.2708 21.6977 76.2194 21.4917 76.1679 21.2857C76.1422 21.2085 76.1422 21.1312 76.1679 21.054C76.2451 20.7707 76.1422 20.5905 75.8595 20.539C75.8852 20.5132 75.8852 20.4617 75.9109 20.436C75.9109 20.3072 75.7824 20.1785 75.6024 20.1527C75.3711 20.0755 75.1911 20.2042 75.1654 20.3587Z" fill="#E6EBF2"/>
<path d="M72.6719 14.3076C72.7233 14.3076 72.8004 14.2561 72.8261 14.2304C72.8518 14.2046 72.8261 14.0501 72.749 14.0244C72.6719 13.9986 72.6204 14.1274 72.5947 14.1789C72.569 14.2046 72.6204 14.2819 72.6719 14.3076Z" fill="#E6EBF2"/>
<path d="M75.5768 17.2688C75.7054 17.2688 75.7311 17.1916 75.7568 17.0886C75.7825 16.9598 75.7054 16.8311 75.5768 16.8568C75.474 16.8826 75.3969 16.9341 75.3455 16.9598C75.2941 17.1401 75.4226 17.2688 75.5768 17.2688Z" fill="#E6EBF2"/>
<path d="M76.1165 14.8998C76.1422 14.8998 76.245 14.8741 76.245 14.8226C76.245 14.7711 76.1679 14.6939 76.1165 14.6681C76.0908 14.6424 75.9622 14.6681 75.9365 14.7454C75.9365 14.8226 76.0651 14.8741 76.1165 14.8998Z" fill="#E6EBF2"/>
<path d="M70.6921 15.6208C70.7436 15.7238 70.9235 15.7238 71.052 15.6465C71.1549 15.595 71.1806 15.5178 71.1291 15.4148C71.052 15.3118 70.9749 15.2088 70.8207 15.286C70.7179 15.3118 70.6407 15.5178 70.6921 15.6208Z" fill="#E6EBF2"/>
<path d="M73.4178 14.0242C73.4692 13.9985 73.5463 13.8697 73.5206 13.7925C73.4949 13.741 73.3406 13.5865 73.2635 13.6122C73.1864 13.638 73.1607 13.844 73.1864 13.8697C73.2378 13.9727 73.3406 14.05 73.4178 14.0242Z" fill="#E6EBF2"/>
<path d="M73.6747 17.0627C73.8289 17.0112 73.9832 16.9855 73.9574 16.7537C73.9574 16.5992 73.9574 16.419 73.9574 16.2645C74.0346 16.0842 73.9574 15.9555 73.8032 15.9297C73.649 15.8782 73.5204 15.9555 73.4176 16.1357C73.3662 16.2387 73.3405 16.3417 73.2634 16.3932C73.1091 16.522 73.0577 16.6765 73.1091 16.8567C73.1862 16.9855 73.5204 17.1142 73.6747 17.0627Z" fill="#E6EBF2"/>
<path d="M73.8284 18.5305C73.6741 18.5048 73.5456 18.582 73.4942 18.7365C73.4685 18.9168 73.5713 19.0713 73.7255 19.097C73.8541 19.1228 74.0083 18.994 74.034 18.8395C74.0597 18.685 73.9826 18.5563 73.8284 18.5305Z" fill="#E6EBF2"/>
<path d="M74.6261 15.3891C74.8831 15.4148 75.2687 15.0286 75.2173 14.7196C75.1916 14.4878 74.8831 14.4878 74.7546 14.5908C74.6261 14.6938 74.6518 14.6423 74.4975 14.5908C74.3433 14.5393 74.0863 14.5393 74.0605 14.8483C74.0605 15.1573 74.3433 15.3633 74.6261 15.3891Z" fill="#E6EBF2"/>
<path d="M70.5636 7.63825C70.5893 7.63825 70.6921 7.53525 70.6664 7.45799C70.6407 7.38074 70.5122 7.40649 70.4608 7.43224C70.4351 7.43224 70.3836 7.53525 70.4093 7.58675C70.4093 7.63825 70.5122 7.63825 70.5636 7.63825Z" fill="#E6EBF2"/>
<path d="M65.0632 6.94299C64.9604 7.02024 64.8832 7.12324 64.9861 7.22624C65.0632 7.30349 65.2431 7.48374 65.3459 7.43224C65.4231 7.38074 65.4231 7.12324 65.3974 7.02024C65.3459 6.91724 65.166 6.89149 65.0632 6.94299Z" fill="#E6EBF2"/>
<path d="M65.1143 9.26044C65.3199 9.46644 65.5256 9.67244 65.7569 9.87844C65.7826 9.77544 65.7826 9.64669 65.7312 9.54369C65.6027 9.28619 65.3199 9.18319 65.1143 9.26044Z" fill="#E6EBF2"/>
<path d="M67.2224 8.64252C67.4281 8.53952 67.4795 8.30777 67.351 8.07601C67.2224 7.84426 67.0168 7.76701 66.7854 7.89576C66.5798 8.02451 66.5027 8.28201 66.6312 8.51376C66.734 8.69402 67.0168 8.74552 67.2224 8.64252Z" fill="#E6EBF2"/>
<path d="M61.8494 5.70698C62.0808 5.60398 62.2093 5.32073 62.1322 5.14047C62.0551 4.98597 61.7723 4.93447 61.5923 5.03747C61.4381 5.11472 61.361 5.34648 61.4638 5.55248C61.5666 5.73273 61.6952 5.78423 61.8494 5.70698Z" fill="#E6EBF2"/>
<path d="M67.0164 10.1619C67.1706 10.1104 67.2478 9.90438 67.1963 9.74988C67.1192 9.56962 66.8879 9.49237 66.6822 9.56962C66.5023 9.64687 66.4252 9.77562 66.4766 9.93013C66.5537 10.1104 66.8365 10.2391 67.0164 10.1619Z" fill="#E6EBF2"/>
<path d="M64.5494 8.74542C64.5494 8.69392 64.5494 8.66817 64.5494 8.64242C64.5237 8.56516 64.4209 8.51366 64.3438 8.56516C64.4209 8.61667 64.498 8.69392 64.5494 8.74542Z" fill="#E6EBF2"/>
<path d="M62.672 7.14906C62.7491 7.0718 62.7748 6.78855 62.6206 6.6598C62.5178 6.58255 62.3635 6.58255 62.2607 6.68555C62.235 6.7113 62.2093 6.73705 62.1836 6.7628C62.3378 6.89155 62.5178 7.0203 62.672 7.14906Z" fill="#E6EBF2"/>
<path d="M63.2377 4.08473C63.3662 4.03323 63.4176 3.87873 63.3662 3.74998C63.3148 3.62123 63.1606 3.54398 63.032 3.59548C62.9035 3.67273 62.8521 3.80148 62.9035 3.93023C62.9292 4.08473 63.1091 4.13623 63.2377 4.08473Z" fill="#E6EBF2"/>
<path d="M64.1889 6.32502C64.3174 6.27352 64.3945 6.06752 64.3431 5.93877C64.2917 5.81002 64.1118 5.75852 64.0089 5.81002C63.8804 5.86152 63.7776 6.06752 63.8547 6.17052C63.9061 6.29927 64.086 6.37652 64.1889 6.32502Z" fill="#E6EBF2"/>
<path d="M64.8577 4.78009C65.0633 4.75434 65.1661 4.62559 65.2175 4.44534C65.269 4.26509 65.1661 4.13634 65.0119 4.05909C64.8834 4.00759 64.652 3.80159 64.4978 3.93034C64.3178 4.05909 64.4721 4.18784 64.4463 4.29084C64.4206 4.52259 64.6263 4.80584 64.8577 4.78009Z" fill="#E6EBF2"/>
<path d="M69.9219 9.69832C69.9734 9.67257 70.0248 9.59532 69.9991 9.51807C69.9734 9.44082 69.8705 9.44082 69.8191 9.46657C69.7677 9.49232 69.6649 9.59532 69.6906 9.64682C69.7163 9.69832 69.8705 9.72407 69.9219 9.69832Z" fill="#E6EBF2"/>
<path d="M67.5055 5.96444C67.634 6.01594 67.7111 5.99019 67.7882 5.88719C67.9168 5.70695 67.8396 5.5782 67.7111 5.39795C67.5312 5.4237 67.3512 5.4237 67.2998 5.6297C67.2998 5.7842 67.3512 5.88719 67.5055 5.96444Z" fill="#E6EBF2"/>
<path d="M70.101 15.286C70.2552 15.2602 70.358 15.1315 70.3837 14.9512C70.4094 14.7195 70.3066 14.5135 70.1267 14.4877C69.9724 14.4877 69.8439 14.5392 69.7154 14.6422C69.7154 14.565 69.7154 14.4877 69.6639 14.4105C69.6125 14.3075 69.484 14.2045 69.3555 14.1787C69.6125 14.5392 69.8696 14.9255 70.101 15.286Z" fill="#E6EBF2"/>
<path d="M70.4094 14.2302C70.5122 14.2045 70.4608 14.05 70.4351 13.9985C70.4351 13.9727 70.3066 13.9212 70.3066 13.947C70.2552 13.9727 70.2038 14.05 70.2295 14.1015C70.2295 14.153 70.3066 14.2817 70.4094 14.2302Z" fill="#E6EBF2"/>
<path d="M69.2021 11.2174C69.3049 11.1659 69.2535 10.9084 69.2021 10.8054C69.1507 10.7024 69.0478 10.6509 68.9193 10.7539C68.8165 10.8311 68.7394 10.9342 68.8165 11.0372C68.9193 11.1144 69.0993 11.2689 69.2021 11.2174Z" fill="#E6EBF2"/>
<path d="M67.7622 11.4751C67.8393 11.6038 68.045 11.6811 68.1735 11.6038C68.302 11.5266 68.3535 11.3978 68.2763 11.2691C68.1992 11.0888 68.045 11.0373 67.8907 11.1146C67.7622 11.1661 67.6851 11.3463 67.7622 11.4751Z" fill="#E6EBF2"/>
<path d="M68.0193 10.3421C68.045 10.3421 68.045 10.2648 68.045 10.2391C68.0193 10.2133 67.9936 10.1876 67.9422 10.2133C67.9165 10.2391 67.8651 10.2906 67.8908 10.3163C67.9422 10.3678 67.9936 10.3421 68.0193 10.3421Z" fill="#E6EBF2"/>
<path d="M76.0907 18.9684C76.065 19.1487 76.2192 19.4577 76.3735 19.4834C76.5791 19.5349 76.7591 19.3804 76.8105 19.1487C76.8619 18.9684 76.7077 18.8139 76.4506 18.7624C76.245 18.7109 76.0907 18.8139 76.0907 18.9684Z" fill="#E6EBF2"/>
<path d="M65.8855 28.2639C55.8343 28.2639 28.3028 28.2639 18.2773 28.2639C8.17464 28.2639 0 36.4267 0 46.5207C0 56.6147 8.17464 64.7774 18.2773 64.7774C23.6242 64.7774 60.5386 64.7774 65.8855 64.7774C75.9881 64.7774 84.1628 56.6147 84.1628 46.5207C84.1628 36.4267 75.9881 28.2639 65.8855 28.2639Z" fill="#E6EBF2"/>
<path d="M42.3645 58.9838C56.683 58.9838 68.3023 47.3705 68.3023 33.0535C68.3023 18.7365 56.683 7.12329 42.3645 7.12329C28.0461 7.12329 16.4268 18.7365 16.4268 33.0535C16.4268 47.3705 28.0461 58.9838 42.3645 58.9838Z" fill="#E6EBF2"/>
<path d="M32.3385 34.7015C32.3128 34.7273 32.3128 34.753 32.2871 34.7788C32.4413 34.959 32.5956 35.1393 32.7241 35.3195C32.7755 35.3195 32.8269 35.2938 32.8526 35.268C32.9812 35.1393 32.9812 34.753 32.8784 34.65C32.7241 34.4955 32.4928 34.5213 32.3385 34.7015Z" fill="#D3DAE0"/>
<path d="M31.5156 33.9289C31.747 34.1606 31.9526 34.4181 32.184 34.6499C32.3896 34.5726 32.5953 34.2894 32.5696 34.0576C32.5439 33.7744 32.2611 33.5941 31.9012 33.6199C31.7213 33.6456 31.567 33.7486 31.5156 33.9289Z" fill="#D3DAE0"/>
<path d="M33.7525 33.5684C33.7525 33.5684 33.7525 33.5427 33.7525 33.5684C33.7268 33.5427 33.7268 33.5427 33.7011 33.5427L33.6754 33.5169C33.5212 33.4139 33.3155 33.4139 33.2384 33.5169C33.2127 33.5427 33.187 33.5942 33.1613 33.6457C33.0841 33.7744 33.0327 33.9289 33.0584 34.0834C33.0842 34.3152 33.2641 34.4439 33.4955 34.4182C33.7782 34.3924 33.9582 34.1864 33.9068 33.8774C33.9068 33.7229 33.8553 33.6457 33.7525 33.5684Z" fill="#D3DAE0"/>
<path d="M26.683 25.1998C26.6059 25.0196 26.5545 24.8393 26.3232 24.9166C26.1689 24.9681 26.0918 25.0711 26.0918 25.2256C26.0918 25.2771 26.1175 25.3543 26.1689 25.3801C26.2974 25.4316 26.426 25.4573 26.5802 25.5088C26.7088 25.8178 26.9144 25.9981 27.1201 25.9208C27.3 25.8436 27.4542 25.5088 27.3771 25.2771C27.2743 25.0711 27.1458 25.0453 26.683 25.1998Z" fill="#D3DAE0"/>
<path d="M31.2585 28.6245C31.1814 28.676 31.0529 28.8047 31.0529 28.882C31.0272 29.0107 31.13 29.0365 31.1814 29.0365C31.2585 29.0365 31.3099 28.9592 31.3871 28.9077C31.4385 28.8562 31.5156 28.8047 31.5156 28.7017C31.5156 28.6245 31.3871 28.573 31.2585 28.6245Z" fill="#D3DAE0"/>
<path d="M30.359 29.4227C30.2819 29.3969 30.2048 29.3454 30.1533 29.2939C29.9734 29.1394 29.8192 29.1394 29.6135 29.2424C29.4336 29.3712 29.4336 29.5257 29.6649 29.7317C29.7935 29.7832 29.9991 29.8862 30.2305 29.9377C30.359 29.9634 30.5132 29.9119 30.5389 29.7317C30.5646 29.6287 30.5389 29.4999 30.359 29.4227Z" fill="#D3DAE0"/>
<path d="M26.5808 29.5773C26.6836 29.4743 26.6836 29.0881 26.5808 28.9851C26.4522 28.8563 26.1952 28.9078 26.0152 29.0881C25.861 29.2683 25.861 29.3971 26.0666 29.6031C26.2209 29.7318 26.4522 29.7061 26.5808 29.5773Z" fill="#D3DAE0"/>
<path d="M29.5622 27.5686C29.3565 27.5686 29.048 27.8261 29.0994 28.1094C29.1509 28.3926 29.3051 28.5471 29.5107 28.5729C29.7164 28.6244 29.8963 28.3411 29.9735 28.0579C30.0249 27.8776 29.7678 27.5944 29.5622 27.5686Z" fill="#D3DAE0"/>
<path d="M30.513 31.1221C30.4873 31.2251 30.513 31.3024 30.5644 31.3796C30.513 31.4569 30.4616 31.6114 30.4873 31.7401C30.5387 31.7659 30.6158 31.8689 30.693 31.8689C30.8729 31.8689 31.0528 31.7144 31.0528 31.5599C31.0528 31.5084 31.0271 31.4826 31.0014 31.4311L31.0271 31.4054C31.1557 31.2251 31.0786 31.0706 31.0014 30.9161C30.6673 30.8904 30.5644 30.9419 30.513 31.1221Z" fill="#D3DAE0"/>
<path d="M33.4957 36.3496C33.4443 36.2466 33.3929 36.1693 33.29 36.1436C33.3415 36.2208 33.4186 36.3238 33.47 36.4011C33.4957 36.3496 33.4957 36.3496 33.4957 36.3496Z" fill="#D3DAE0"/>
<path d="M35.7578 36.3238C35.8863 36.2981 36.0406 36.0148 36.0149 35.8603C35.9892 35.7316 35.8092 35.6028 35.6807 35.6286C35.3979 35.6801 35.2437 35.8346 35.2694 36.0148C35.2951 36.1951 35.5779 36.3496 35.7578 36.3238Z" fill="#D3DAE0"/>
<path d="M35.3973 37.4053C35.423 37.637 35.5515 37.7915 35.7315 37.7658C35.8857 37.74 36.1428 37.431 36.1171 37.3023C36.0914 37.0963 35.9114 36.9933 35.6801 37.019C35.4487 37.019 35.3716 37.122 35.3973 37.4053Z" fill="#D3DAE0"/>
<path d="M30.4105 32.6415C30.4619 32.796 30.6676 32.796 30.7447 32.796C30.8732 32.796 30.8989 32.6673 30.8732 32.5385C30.8732 32.5128 30.8732 32.487 30.8475 32.4613C30.9247 32.4613 31.0018 32.4098 31.0532 32.3325C31.1303 32.2295 31.2074 32.1008 31.1046 31.9978C30.9247 31.8433 30.7447 31.8433 30.6419 31.9463C30.5391 32.0493 30.5391 32.2038 30.6162 32.3325C30.5648 32.4098 30.3591 32.487 30.4105 32.6415Z" fill="#D3DAE0"/>
<path d="M26.6831 30.2467C26.606 30.1694 26.4518 30.1179 26.3489 30.1437C26.3489 30.1437 26.3489 30.1437 26.3232 30.1437C26.4518 30.2209 26.5803 30.2724 26.7088 30.3497C26.7088 30.2982 26.7088 30.2467 26.6831 30.2467Z" fill="#D3DAE0"/>
<path d="M35.1405 39.491C35.269 39.4138 35.3718 39.2593 35.3461 39.1048C35.5261 39.079 35.5775 38.873 35.5518 38.77C35.5261 38.6927 35.3204 38.6155 35.1919 38.7185C35.1148 38.6412 34.9862 38.6155 34.7549 38.6412C34.9091 38.8987 35.0377 39.182 35.1405 39.491Z" fill="#D3DAE0"/>
<path d="M35.3467 39.9803C35.4495 40.212 35.5266 40.4695 35.6037 40.7013C35.6294 40.7013 35.6552 40.6755 35.6809 40.6755C35.8094 40.5983 35.8094 40.4695 35.8094 40.315C35.8094 40.1863 35.8351 40.0833 35.7066 39.9803C35.6037 39.9288 35.4495 39.9288 35.3467 39.9803Z" fill="#D3DAE0"/>
<path d="M34.8835 36.9418C34.755 37.0706 34.755 37.2508 34.8835 37.3538C35.012 37.4568 35.192 37.4568 35.2948 37.3281C35.4233 37.1993 35.3976 37.0191 35.2691 36.9161C35.192 36.8131 34.9863 36.8131 34.8835 36.9418Z" fill="#D3DAE0"/>
<path d="M29.3822 31.9463C29.3564 31.972 29.3564 31.972 29.3564 31.9978C29.6392 32.2038 29.8963 32.4098 30.1533 32.6416C30.179 32.5901 30.2048 32.5643 30.2305 32.5128C30.2305 32.4098 30.0762 32.3068 29.9734 32.3325C29.9991 32.2553 29.9477 32.1523 29.8706 32.075C29.6392 31.8948 29.485 31.8433 29.3822 31.9463Z" fill="#D3DAE0"/>
<path d="M29.6396 30.3754C29.5368 30.5042 29.5625 30.8132 29.691 30.9162C29.8196 30.9934 30.128 30.9419 30.2309 30.8132C30.3337 30.6844 30.308 30.5299 30.1795 30.4269C29.9738 30.2209 29.7939 30.1952 29.6396 30.3754Z" fill="#D3DAE0"/>
<path d="M35.8611 33.7745C35.7068 33.7745 35.604 33.6973 35.5012 33.6458C35.4498 33.62 35.2955 33.6715 35.2441 33.723C35.1927 33.7745 35.167 33.9033 35.1927 33.9805C35.2184 34.032 35.3212 34.0835 35.3984 34.0835C35.5526 34.0835 35.6811 34.0835 35.8354 34.0578C35.9639 34.032 35.9896 33.9548 35.9639 33.826C35.9382 33.826 35.8868 33.7745 35.8611 33.7745Z" fill="#D3DAE0"/>
<path d="M34.961 25.3285C35.0124 25.277 35.0124 25.1225 34.961 25.071C34.9353 25.0195 34.7297 24.9423 34.6782 24.9938C34.6268 25.0453 34.6782 25.2513 34.704 25.277C34.7811 25.3285 34.9096 25.3543 34.961 25.3285Z" fill="#D3DAE0"/>
<path d="M25.7068 26.2297C25.5782 26.3327 25.5782 26.6159 25.7068 26.7704C25.8096 26.8734 26.0409 26.8992 26.1438 26.7962C26.3494 26.5902 26.4008 26.3584 26.2723 26.2039C26.1695 26.1009 25.861 26.1009 25.7068 26.2297Z" fill="#D3DAE0"/>
<path d="M37.1199 33.2594C37.2227 33.1564 37.0428 32.8732 36.9657 32.7702C36.8885 32.7187 36.7086 32.6929 36.6058 32.7702C36.5029 32.8474 36.6058 33.0792 36.6829 33.1822C36.7086 33.2852 37.0171 33.3624 37.1199 33.2594Z" fill="#D3DAE0"/>
<path d="M35.8096 32.9249C35.8353 33.0794 35.9895 33.2081 36.1181 33.1824C36.2466 33.1566 36.4265 32.9506 36.4265 32.8476C36.4008 32.6931 36.1695 32.5386 36.041 32.5644C35.8867 32.6159 35.7839 32.7704 35.8096 32.9249Z" fill="#D3DAE0"/>
<path d="M35.475 29.4485C35.5007 29.4227 35.475 29.3712 35.4492 29.3455C35.4235 29.3197 35.3721 29.3197 35.3464 29.3455C35.3207 29.3712 35.3207 29.4227 35.3464 29.4742C35.3978 29.5 35.4493 29.4742 35.475 29.4485Z" fill="#D3DAE0"/>
<path d="M36.9146 32.487C37.0432 32.487 37.1717 32.3583 37.146 32.2295C37.1203 32.075 37.0175 32.0235 36.8889 32.0493C36.7604 32.0493 36.709 32.1523 36.709 32.281C36.709 32.384 36.7861 32.487 36.9146 32.487Z" fill="#D3DAE0"/>
<path d="M34.9091 32.4871C34.8834 32.5386 34.8577 32.5644 34.8319 32.6159C34.652 32.6674 34.5235 32.8219 34.5492 32.9506C34.5749 33.1309 34.7805 33.3111 34.9091 33.3111C35.0633 33.2854 35.1918 33.0794 35.1661 32.8476C35.2175 32.8219 35.269 32.7961 35.269 32.7704C35.2947 32.6931 35.2433 32.5901 35.1661 32.4871C35.1147 32.4099 34.9862 32.3841 34.9091 32.4871Z" fill="#D3DAE0"/>
<path d="M35.6294 30.9163C35.6808 31.0708 35.9121 31.1223 36.0407 30.9935C36.0921 30.942 36.0149 30.7618 35.9635 30.633C35.9635 30.6073 35.9378 30.53 35.835 30.53C35.7322 30.5558 35.5779 30.7618 35.6294 30.9163Z" fill="#D3DAE0"/>
<path d="M35.6551 28.7791C35.6808 28.7534 35.6294 28.5989 35.6037 28.5474C35.578 28.5216 35.4751 28.5216 35.4494 28.5474C35.4237 28.5989 35.398 28.6761 35.4237 28.7276C35.4494 28.7534 35.6037 28.8049 35.6551 28.7791Z" fill="#D3DAE0"/>
<path d="M36.5026 30.942C36.5283 30.9162 36.5283 30.8132 36.5026 30.7617C36.4769 30.736 36.374 30.736 36.3226 30.7617C36.2969 30.7875 36.2198 30.942 36.2712 30.9677C36.3483 31.0192 36.4511 30.9935 36.5026 30.942Z" fill="#D3DAE0"/>
<path d="M25.0122 28.9851C24.7038 29.0109 24.6781 29.0366 24.6523 29.3714C24.6781 29.3971 24.678 29.3971 24.7038 29.4229C24.9351 29.5001 25.1665 29.6031 25.3721 29.6803C25.4235 29.6546 25.475 29.6288 25.5007 29.6031C25.6035 29.5001 25.6292 29.2684 25.5264 29.1911C25.3721 29.1139 25.2179 28.9851 25.0122 28.9851Z" fill="#D3DAE0"/>
<path d="M36.7082 38.9761C36.374 38.9761 36.2455 39.2078 36.1941 39.4138C36.1426 39.6198 36.2455 39.9803 36.6054 40.0061C36.9909 40.0061 37.1966 39.8001 37.2223 39.5683C37.2737 39.3108 36.9652 38.9761 36.7082 38.9761Z" fill="#D3DAE0"/>
<path d="M22.442 25.1482C22.3392 25.2255 22.2878 25.483 22.4677 25.6632C22.5706 25.7662 22.6991 25.7405 22.8019 25.6632C22.9305 25.5602 22.9562 25.4315 22.9048 25.3027C22.8276 25.0967 22.5706 25.071 22.442 25.1482Z" fill="#D3DAE0"/>
<path d="M25.2954 27.2856C25.2439 27.5173 25.3725 27.7233 25.6295 27.8006C25.8866 27.8778 26.1694 27.9551 26.4007 28.0581C26.6064 28.1611 26.9149 28.1353 26.9663 28.0066C27.0177 27.8778 26.8634 27.6718 26.7863 27.6461C26.5807 27.5946 26.6064 27.4658 26.5293 27.3371C26.4778 27.2341 26.3493 27.1568 26.2465 27.0796C26.1694 27.0281 26.0922 27.0281 26.0151 27.0023C25.938 26.9766 25.8352 26.9766 25.7581 26.9766C25.501 26.9766 25.3468 27.0538 25.2954 27.2856Z" fill="#D3DAE0"/>
<path d="M25.0123 26.0753C25.1922 26.0753 25.2694 25.9465 25.2694 25.7663C25.1665 25.6633 25.038 25.5603 24.8838 25.6633C24.8324 25.7148 24.8066 25.8435 24.8324 25.9208C24.8324 25.998 24.9352 26.0753 25.0123 26.0753Z" fill="#D3DAE0"/>
<path d="M21.5166 28.5474C21.6194 28.5729 21.748 28.5729 21.8508 28.5984C21.8508 28.5984 21.8508 28.5729 21.8251 28.5729C21.7223 28.5729 21.6194 28.5729 21.5166 28.5474Z" fill="#D3DAE0"/>
<path d="M37.3776 37.5339C37.4547 37.5339 37.5061 37.5081 37.5061 37.4051C37.5061 37.3279 37.4804 37.2764 37.3776 37.2764C37.3004 37.2764 37.2747 37.3021 37.249 37.3794C37.249 37.4824 37.2747 37.5339 37.3776 37.5339Z" fill="#D3DAE0"/>
<path d="M36.9659 44.1519C37.1201 44.1262 37.3258 43.8944 37.3001 43.7657C37.2744 43.5854 37.0173 43.3537 36.8374 43.3794C36.6574 43.4052 36.5546 43.6369 36.606 43.9202C36.6317 44.0489 36.8374 44.1777 36.9659 44.1519Z" fill="#D3DAE0"/>
<path d="M36.6832 44.435C36.6575 44.3062 36.5289 44.2032 36.4004 44.1775C36.4261 44.3835 36.4518 44.5637 36.4775 44.7697C36.6317 44.7182 36.7089 44.5637 36.6832 44.435Z" fill="#D3DAE0"/>
<path d="M36.5032 33.7231C36.5289 33.9291 36.6832 34.0321 36.9402 33.9806C37.1202 33.9548 37.223 33.8261 37.223 33.6973C37.1973 33.5428 36.9145 33.2596 36.786 33.2853C36.5546 33.3368 36.4518 33.4913 36.5032 33.7231Z" fill="#D3DAE0"/>
<path d="M38.7394 42.9673C38.9707 42.9415 39.1764 42.6583 39.1507 42.4008C39.125 42.1433 38.8165 41.9115 38.5851 41.9373C38.3024 41.963 38.071 42.2205 38.1224 42.4523C38.1224 42.6583 38.508 42.9673 38.7394 42.9673Z" fill="#D3DAE0"/>
<path d="M38.8683 47.1387C39.0225 47.113 39.3053 46.804 39.2796 46.6753C39.2539 46.4435 39.0482 46.3148 38.7911 46.3663C38.5855 46.392 38.5084 46.5465 38.5341 46.8297C38.5855 47.0357 38.714 47.1645 38.8683 47.1387Z" fill="#D3DAE0"/>
<path d="M38.7134 44.1517C38.8676 44.126 38.9962 43.9715 38.9705 43.8427C38.9448 43.7139 38.7648 43.5079 38.6363 43.5337C38.5078 43.5594 38.3535 43.7397 38.3535 43.8685C38.4049 44.0745 38.5335 44.1775 38.7134 44.1517Z" fill="#D3DAE0"/>
<path d="M38.0711 38.7699C38.0454 38.6669 38.0197 38.5381 37.8655 38.5639C37.7369 38.5639 37.6084 38.6926 37.6084 38.8986C37.6855 38.9244 37.7883 39.0016 37.8912 39.0016C38.0197 39.0016 38.0711 38.8986 38.0711 38.7699Z" fill="#D3DAE0"/>
<path d="M39.9732 43.7141C40.2046 43.6626 40.4102 43.3278 40.3845 43.0446C40.3588 42.7871 40.1275 42.6326 39.8447 42.6583C39.4848 42.7098 39.3306 42.9158 39.3563 43.2763C39.382 43.5596 39.6904 43.7656 39.9732 43.7141Z" fill="#D3DAE0"/>
<path d="M37.9432 40.4954C38.1488 40.6756 38.5601 40.8559 38.9457 40.5984C39.1771 40.4439 39.2799 40.2636 39.3056 40.0576C39.3056 39.8259 39.0229 39.7229 38.9457 39.4911C38.7401 38.9504 38.3288 39.0019 37.9689 39.2079C37.8404 39.2851 37.7632 39.3881 37.7118 39.4911C37.6347 39.6456 37.6604 39.8259 37.7632 40.0061C37.8661 40.1606 37.789 40.3409 37.9432 40.4954Z" fill="#D3DAE0"/>
<path d="M39.3821 34.6244C39.2536 34.7274 39.2793 34.9334 39.4335 34.9592C39.6135 34.9849 39.8191 35.0622 40.0248 34.9334C40.0505 34.8562 40.0762 34.7532 40.1019 34.6759C40.3332 34.5987 40.5132 34.4184 40.4875 34.2639C40.4618 34.1352 40.3589 34.0579 40.2304 34.0579C39.9991 34.0322 39.9219 34.1094 39.8448 34.3669C39.6906 34.4699 39.5363 34.5214 39.3821 34.6244Z" fill="#D3DAE0"/>
<path d="M40.0252 39.9802C40.0766 39.903 40.1023 39.7485 40.0766 39.697C39.9738 39.5167 39.7939 39.5425 39.6139 39.6197C39.5625 39.7742 39.5111 39.9287 39.6653 40.0575C39.7939 40.109 39.9481 40.0832 40.0252 39.9802Z" fill="#D3DAE0"/>
<path d="M40.6678 41.4738C40.6164 41.2163 40.4365 41.0618 40.2565 41.0875C40.1023 41.1133 39.9995 41.1905 39.9481 41.2935C39.8709 41.2163 39.7681 41.2163 39.6653 41.242C39.4854 41.2935 39.4854 41.4738 39.4854 41.654C39.6396 41.7313 39.7938 41.86 39.9481 41.6798C39.9481 41.654 39.9738 41.654 39.9738 41.6283C40.1023 41.7313 40.308 41.8085 40.4622 41.7828C40.5907 41.7828 40.6935 41.654 40.6678 41.4738Z" fill="#D3DAE0"/>
<path d="M24.7039 28.4185C24.781 28.3412 24.7296 28.058 24.4982 27.9807C24.4211 27.955 24.2926 28.0065 24.2412 28.058C24.1384 28.161 24.1384 28.3155 24.2412 28.4185C24.3954 28.573 24.6268 28.4957 24.7039 28.4185Z" fill="#D3DAE0"/>
<path d="M41.1565 39.0016C41.3107 39.2591 41.5678 39.3106 41.8505 39.1819C41.902 39.1561 41.9534 39.1304 42.0048 39.1046C42.0562 39.2076 42.0819 39.3106 42.159 39.4136C42.2618 39.5939 42.3647 39.6196 42.5703 39.5424C42.7503 39.4651 42.8531 39.3364 42.8531 39.1304C42.8531 38.9501 42.7246 38.8471 42.5703 38.7699C42.4675 38.7184 42.339 38.7184 42.2104 38.6926C42.1847 38.6411 42.159 38.5896 42.1333 38.5381C42.0048 38.3579 41.7734 38.2034 41.5678 38.2806C41.3364 38.3579 41.2079 38.5124 41.1308 38.7441C41.1051 38.8214 41.1308 38.9244 41.1565 39.0016Z" fill="#D3DAE0"/>
<path d="M39.8961 33.311C39.9989 33.1823 39.7932 32.8733 39.6133 32.8733C39.4334 32.8733 39.2534 33.0535 39.3048 33.208C39.3305 33.3368 39.7675 33.414 39.8961 33.311Z" fill="#D3DAE0"/>
<path d="M43.9582 42.0146C44.1382 42.0146 44.3438 41.8343 44.3181 41.6798C44.2924 41.4738 44.1124 41.2678 43.9325 41.2678C43.7526 41.2678 43.624 41.4996 43.624 41.7571C43.6497 41.8858 43.8297 42.0146 43.9582 42.0146Z" fill="#D3DAE0"/>
<path d="M42.5697 41.448C42.544 41.242 42.4154 41.139 42.1327 41.1648C41.9527 41.1905 41.7471 41.3708 41.7471 41.4995C41.7471 41.7055 42.0041 41.9115 42.2098 41.9115C42.4154 41.8858 42.5954 41.654 42.5697 41.448Z" fill="#D3DAE0"/>
<path d="M41.6961 42.9931C41.4648 43.0188 41.3619 43.1991 41.3876 43.4566C41.4391 43.7398 41.6961 43.9201 41.9789 43.8686C42.2102 43.8171 42.3645 43.5596 42.3388 43.3278C42.3131 43.0961 42.0046 42.9416 41.6961 42.9931Z" fill="#D3DAE0"/>
<path d="M39.3309 49.3274C39.3566 49.4047 39.6394 49.5592 39.8193 49.4304C39.9221 49.3532 39.9736 49.2244 39.9221 49.0699C39.8707 48.9154 39.7422 48.8382 39.6137 48.8897C39.3823 48.9412 39.3052 49.2502 39.3309 49.3274Z" fill="#D3DAE0"/>
<path d="M39.177 44.2805C39.0485 44.3063 38.9199 44.5123 38.9199 44.641C38.9456 44.8728 39.1256 45.0531 39.3312 45.0273C39.5626 45.0016 39.7682 44.7698 39.7425 44.5896C39.7425 44.4351 39.3826 44.2548 39.177 44.2805Z" fill="#D3DAE0"/>
<path d="M40.4623 37.9974C40.5394 38.0747 40.7194 38.0489 40.7965 37.946C40.8736 37.843 40.8222 37.7399 40.5908 37.5854C40.3595 37.6112 40.3595 37.9202 40.4623 37.9974Z" fill="#D3DAE0"/>
<path d="M41.0019 36.7872C41.0533 36.7614 41.1561 36.7614 41.1304 36.6584C41.1304 36.5554 41.0533 36.5554 41.0276 36.5554C40.9762 36.5554 40.8477 36.6069 40.8477 36.6842C40.8477 36.7614 40.9762 36.7872 41.0019 36.7872Z" fill="#D3DAE0"/>
<path d="M42.9303 37.8688C43.0074 37.7658 42.956 37.5083 42.7246 37.5083C42.4933 37.5598 42.4933 37.843 42.5961 37.9203C42.6989 37.9718 42.8789 37.946 42.9303 37.8688Z" fill="#D3DAE0"/>
<path d="M36.6064 36.71C36.6578 36.6842 36.6578 36.5812 36.6321 36.504C36.6064 36.4525 36.5035 36.401 36.4521 36.4525C36.4007 36.504 36.375 36.5812 36.4007 36.6327C36.4264 36.71 36.555 36.7357 36.6064 36.71Z" fill="#D3DAE0"/>
<path d="M36.3743 38.5125C36.4257 38.5897 36.5542 38.6412 36.6313 38.667C36.9141 38.667 37.1197 38.5382 37.1969 38.1777C37.1197 38.1005 37.0426 37.9975 36.9398 37.9202C36.7599 37.8172 36.5285 37.8172 36.4257 37.946C36.2971 38.1005 36.2457 38.358 36.3743 38.5125Z" fill="#D3DAE0"/>
<path d="M34.395 36.8644C34.4979 36.8387 34.6007 36.6069 34.575 36.4524C34.5493 36.3237 34.4207 36.2722 34.2922 36.3237C34.0866 36.4009 33.958 36.5297 33.9837 36.6327C33.9837 36.7614 34.2665 36.916 34.395 36.8644Z" fill="#D3DAE0"/>
<path d="M32.4928 32.4612C32.4671 32.3067 32.2357 32.178 32.0558 32.2037C31.773 32.2552 31.6445 32.4355 31.6702 32.693C31.6959 32.8475 31.773 32.9505 31.8759 33.002C31.773 33.1822 31.773 33.3367 31.8759 33.4397C32.0044 33.5685 32.3643 33.517 32.4928 33.3882C32.5956 33.2852 32.5699 32.9762 32.4414 32.8475C32.4157 32.8217 32.39 32.8217 32.3643 32.796C32.4671 32.693 32.5185 32.5642 32.4928 32.4612Z" fill="#D3DAE0"/>
<path d="M24.3184 29.0881C24.3184 28.8564 24.2927 28.6761 24.0614 28.6246C23.9328 28.5989 23.8043 28.6503 23.7786 28.7791C23.7529 28.8821 23.7529 29.0366 23.8043 29.1139C23.8814 29.1396 23.9585 29.1654 24.0357 29.1911C24.1128 29.1654 24.2156 29.1139 24.3184 29.0881Z" fill="#D3DAE0"/>
<path d="M23.6239 28.4701C23.7524 28.3413 23.7267 28.1096 23.5468 27.9808C23.4439 27.8778 23.264 27.9293 23.1355 28.0581C23.0069 28.1868 23.0069 28.4443 23.1355 28.5216C23.3154 28.5988 23.4696 28.6246 23.6239 28.4701Z" fill="#D3DAE0"/>
<path d="M28.4062 31.3283C28.5605 31.4313 28.689 31.5343 28.8433 31.6373C28.8947 31.6116 28.9204 31.5601 28.9204 31.5086C28.9461 31.2768 29.0746 31.1481 29.2288 31.0966C29.3831 30.9421 29.4088 30.7103 29.3317 30.6073L29.306 30.5816C29.3574 30.5043 29.4088 30.3756 29.4088 30.2726C29.3831 30.1181 29.2546 30.0151 29.1003 30.0408C28.9461 30.0666 28.8433 30.1696 28.869 30.3241C28.869 30.3756 28.8947 30.4013 28.9204 30.4528C28.869 30.4528 28.8175 30.4786 28.7661 30.4786C28.6633 30.5301 28.4834 30.6073 28.5348 30.7618C28.5862 30.9678 28.5091 31.1481 28.4062 31.3283Z" fill="#D3DAE0"/>
<path d="M36.3738 40.8558C36.1939 40.8301 36.091 40.9846 36.1168 41.2163C36.1168 41.2421 36.1425 41.2678 36.1425 41.2936C36.1425 41.4223 36.091 41.4738 35.9625 41.4481C35.9111 41.4223 35.8854 41.3966 35.834 41.3708C35.9882 41.9116 36.1168 42.4523 36.2453 43.0188C36.3481 43.0446 36.4766 42.9931 36.5795 42.8643C36.7594 42.6326 36.7337 42.4008 36.4766 42.2463C36.3995 42.1948 36.3224 42.1948 36.1682 42.1176C36.2453 42.0146 36.2967 41.9116 36.3738 41.8858C36.6052 41.7828 36.6566 41.6283 36.6052 41.4223C36.6052 41.3708 36.6052 41.2936 36.6052 41.2421C36.5795 41.0103 36.5023 40.8816 36.3738 40.8558Z" fill="#D3DAE0"/>
<path d="M36.2198 34.6757C36.1941 34.6757 36.1684 34.7015 36.1427 34.7015C36.1427 34.6242 36.117 34.547 36.0656 34.4955C35.9627 34.4182 35.7571 34.4182 35.6543 34.5212C35.5514 34.6242 35.5514 34.7787 35.6543 34.8817C35.7314 34.959 35.8599 34.9847 35.9627 34.959C35.9627 35.0105 35.9627 35.0877 35.9627 35.1392C35.9884 35.2938 36.1941 35.4483 36.3483 35.4225C36.5283 35.3968 36.811 35.062 36.7596 34.9333C36.7339 34.753 36.4512 34.6242 36.2198 34.6757Z" fill="#D3DAE0"/>
<path d="M36.9141 40.8815C36.7599 41.0102 36.7085 41.4222 36.9398 41.6025C37.1712 41.7827 37.4026 41.7827 37.5568 41.6797C37.7367 41.5767 37.6853 41.242 37.5568 41.0102C37.4797 40.8042 37.0941 40.7527 36.9141 40.8815Z" fill="#D3DAE0"/>
<path d="M20.0255 28.3412C20.0512 28.3155 20.0769 28.264 20.0769 28.1867C20.0769 28.1867 20.1026 28.1867 20.1026 28.161C20.2054 28.0065 20.2054 27.6717 20.0769 27.5688C19.9741 27.4915 19.6656 27.5945 19.5371 27.749C19.5113 27.7747 19.5113 27.8263 19.4856 27.852C19.4085 27.9293 19.3828 28.1095 19.3828 28.2382C19.5628 28.3155 19.7941 28.3155 20.0255 28.3412Z" fill="#D3DAE0"/>
<path d="M39.0994 33.826C39.2022 33.826 39.2022 33.6715 39.1765 33.6457C39.1508 33.5942 39.0994 33.517 39.0223 33.5427C38.9452 33.5685 38.9195 33.6457 38.9452 33.6715C38.9452 33.723 38.9966 33.826 39.0994 33.826Z" fill="#D3DAE0"/>
<path d="M19.1508 26.6933C19.1765 26.616 19.2279 26.513 19.1765 26.4358C19.1251 26.3585 18.868 26.3843 18.7909 26.4873V26.513C18.6881 26.4615 18.5595 26.4873 18.4824 26.5645C18.4053 26.6675 18.3796 26.9508 18.4567 27.0023C18.5595 27.1053 18.7909 27.0795 18.8937 27.0023C18.9451 26.9508 18.9966 26.8735 18.9966 26.7963C19.048 26.7963 19.1251 26.7705 19.1508 26.6933Z" fill="#D3DAE0"/>
<path d="M38.7906 37.3537C38.7391 37.5082 38.8163 37.5855 38.9705 37.6627C39.1247 37.74 39.3304 37.8687 39.4332 37.6627C39.536 37.4567 39.4075 37.3537 39.3561 37.328C39.3047 37.3022 39.2276 37.1735 39.3047 37.1735C39.3818 37.1735 39.4589 37.122 39.4589 36.916C39.4846 36.71 39.4075 36.607 39.2019 36.5555C38.9962 36.504 38.7649 36.6842 38.7134 36.916C38.662 37.1477 38.842 37.1992 38.7906 37.3537Z" fill="#D3DAE0"/>
<path d="M23.5982 21.4404C23.701 21.3374 23.701 21.1314 23.6239 21.0284C23.5468 20.9254 23.3411 20.9511 23.264 21.0284C23.1612 21.1314 23.1355 21.3374 23.2383 21.4404C23.3154 21.5434 23.4954 21.5434 23.5982 21.4404Z" fill="#D3DAE0"/>
<path d="M20.8996 28.3154C20.951 28.2382 20.9253 28.0064 20.8225 27.9034C20.6939 27.8004 20.4883 27.8004 20.4112 27.9292C20.3083 28.0579 20.334 28.2639 20.4369 28.3669L20.4626 28.3927C20.514 28.3927 20.5654 28.3927 20.6168 28.4184C20.7196 28.4184 20.8482 28.3669 20.8996 28.3154Z" fill="#D3DAE0"/>
<path d="M22.853 27.4659C22.8273 27.4916 22.7502 27.6461 22.8273 27.6976C22.9045 27.7491 23.0073 27.6976 23.033 27.6461C23.033 27.6461 23.033 27.6204 23.0587 27.5946C23.0844 27.6204 23.1101 27.6461 23.1358 27.6719C23.2901 27.7749 23.3672 27.6976 23.47 27.5946C23.5214 27.5174 23.5985 27.4144 23.6756 27.3629C23.8813 27.2599 24.087 27.1826 24.3183 27.0796C24.7296 27.4916 24.9096 27.4916 25.1666 27.0539C25.3209 26.8221 25.218 26.5389 24.9353 26.4616C24.7296 26.4101 24.524 26.4616 24.2412 26.4359C24.1127 26.2299 23.9327 25.9724 23.6242 25.9981C23.2386 26.0496 22.9816 26.4874 23.1101 26.8994C23.1615 27.0539 23.1101 27.1054 23.033 27.2084C22.9816 27.2599 22.9816 27.3629 22.9816 27.4401C22.9559 27.4401 22.8788 27.4401 22.853 27.4659Z" fill="#D3DAE0"/>
<path d="M26.9658 30.4528C27.1972 30.5816 27.4028 30.7103 27.6342 30.8391C27.7884 30.7618 27.8398 30.6073 27.7627 30.4271C27.7627 30.4013 27.737 30.4013 27.737 30.3756C27.7884 30.3756 27.8141 30.3498 27.8655 30.3241C27.9427 30.2468 27.9684 30.1438 28.0198 30.0408C27.917 29.9378 27.8398 29.8606 27.7113 29.7576C27.6342 29.8091 27.5571 29.8348 27.4799 29.9121C27.4028 29.9893 27.3514 30.0923 27.3771 30.1953C27.2743 30.1953 27.1972 30.2468 27.1201 30.3241C27.0686 30.3756 27.0172 30.4271 26.9658 30.4528Z" fill="#D3DAE0"/>
<path d="M22.7246 28.8047C22.8017 28.676 22.776 28.5215 22.6217 28.4442C22.5446 28.3927 22.3904 28.367 22.3133 28.4185C22.1847 28.4957 22.159 28.573 22.1847 28.676C22.3904 28.7275 22.5446 28.779 22.7246 28.8047Z" fill="#D3DAE0"/>
<path d="M38.148 36.298C38.3023 36.2465 38.3537 36.1178 38.3794 36.0148C38.4051 35.9118 38.3794 35.7058 38.2766 35.6028C38.148 35.4998 38.0709 35.3453 37.9167 35.371C37.7882 35.3968 37.7625 35.4225 37.711 35.4998C37.6596 35.577 37.5825 35.6028 37.5568 35.7315C37.5311 35.8603 37.5568 36.092 37.6853 36.2208C37.8139 36.3495 37.9938 36.3495 38.148 36.298Z" fill="#D3DAE0"/>
<path d="M34.755 55.1984C34.6779 55.1984 34.6265 55.3529 34.6522 55.4044C34.6522 55.4559 34.7293 55.5332 34.7807 55.5332C34.8579 55.5332 34.8836 55.4302 34.8836 55.3787C34.8836 55.3272 34.8064 55.1727 34.755 55.1984Z" fill="#D3DAE0"/>
<path d="M35.6803 52.1343C35.6031 52.3403 35.5517 52.572 35.4746 52.778C35.6546 52.7523 35.7831 52.5463 35.7831 52.366C35.7574 52.263 35.7317 52.1858 35.6803 52.1343Z" fill="#D3DAE0"/>
<path d="M17.0947 28.264C17.0947 28.2898 17.0947 28.2898 17.0947 28.2898C17.3004 28.2898 17.4803 28.264 17.686 28.264C17.7888 28.2383 17.8659 28.2125 17.9173 28.1353C18.0716 27.955 18.0716 27.4657 17.9173 27.2855C17.7631 27.1052 17.4032 27.1568 17.2233 27.337C17.069 27.5173 17.069 27.8777 17.1976 28.058C17.1461 28.1353 17.1204 28.1868 17.0947 28.264Z" fill="#D3DAE0"/>
<path d="M36.5801 50.9498C36.5544 50.6666 36.3488 50.4348 36.1174 50.4348C36.0403 50.7696 35.9632 51.1043 35.8604 51.4391C35.9375 51.4648 36.0146 51.4906 36.0917 51.4906C36.4002 51.4391 36.6058 51.2073 36.5801 50.9498Z" fill="#D3DAE0"/>
<path d="M17.7632 26.6417C17.9174 26.4872 17.9174 26.204 17.8146 25.998C17.866 25.9465 17.9174 25.895 17.9174 25.792C17.9174 25.689 17.7889 25.6632 17.686 25.7147C17.6603 25.7405 17.6346 25.7662 17.6089 25.792C17.5832 25.792 17.5318 25.792 17.5061 25.792C17.4033 26.1267 17.3261 26.4615 17.249 26.7962C17.4033 26.8735 17.5832 26.822 17.7632 26.6417Z" fill="#D3DAE0"/>
<path d="M37.1198 49.8425C37.2998 49.8167 37.5054 49.5592 37.4797 49.3532C37.454 49.1987 37.2227 49.0442 37.017 49.07C36.7342 49.0957 36.6314 49.2245 36.6571 49.4305C36.6828 49.6365 36.9399 49.8682 37.1198 49.8425Z" fill="#D3DAE0"/>
<path d="M37.2233 50.1772C37.1204 50.203 37.0947 50.4348 37.0947 50.5377C37.0947 50.5892 37.249 50.6407 37.3261 50.6407C37.4289 50.6407 37.5317 50.5635 37.4803 50.4347C37.4546 50.3832 37.3261 50.1772 37.2233 50.1772Z" fill="#D3DAE0"/>
<path d="M17.9947 24.2212C17.8919 24.4787 17.8147 24.7619 17.7119 25.0452C17.8147 25.0194 17.8919 24.9679 17.969 24.8907C18.0975 24.6847 18.0975 24.4014 17.9947 24.2212Z" fill="#D3DAE0"/>
<path d="M36.7862 52.6749C36.5806 52.7007 36.4263 52.9582 36.4777 53.1899C36.5292 53.4217 36.7091 53.5504 36.9919 53.4989C37.2489 53.4474 37.3775 53.2672 37.3261 53.0354C37.2746 52.7779 37.0433 52.6234 36.7862 52.6749Z" fill="#D3DAE0"/>
<path d="M36.4778 56.5118C36.4264 56.5118 36.375 56.6148 36.375 56.6663C36.375 56.692 36.4264 56.8208 36.5035 56.795C36.5807 56.795 36.6064 56.6405 36.6064 56.589C36.5807 56.5633 36.5292 56.486 36.4778 56.5118Z" fill="#D3DAE0"/>
<path d="M20.8987 23.5002C20.8216 23.6032 20.8216 23.7835 20.9244 23.8607C21.0273 23.9637 21.2072 23.938 21.31 23.8092C21.4129 23.6805 21.4129 23.5517 21.2843 23.4487C21.1558 23.3715 21.0015 23.3972 20.8987 23.5002Z" fill="#D3DAE0"/>
<path d="M20.5656 23.9123C20.7455 23.7063 20.7198 23.3201 20.5142 23.1398C20.3599 23.0111 20 23.0368 19.8458 23.1913C19.6658 23.3716 19.7173 23.6806 19.9743 23.9123C20.1286 24.0926 20.3856 24.0926 20.5656 23.9123Z" fill="#D3DAE0"/>
<path d="M21.182 21.7234C21.362 21.5432 21.3877 21.2084 21.2335 21.0797C21.1049 20.9767 20.8222 21.0282 20.6936 21.1569C20.5651 21.2857 20.5908 21.5432 20.745 21.6719C20.8993 21.8522 21.0535 21.8522 21.182 21.7234Z" fill="#D3DAE0"/>
<path d="M21.1048 22.1614C21.1563 22.1099 21.1306 21.9554 21.1048 21.9039C21.0791 21.8524 20.8478 21.8009 20.8221 21.8524C20.7707 21.9039 20.8221 22.1099 20.8735 22.1356C20.8992 22.1871 21.0534 22.2129 21.1048 22.1614Z" fill="#D3DAE0"/>
<path d="M37.0943 47.4993C36.9401 47.525 36.8887 47.6023 36.8887 47.7568C36.8887 47.9113 36.9658 48.04 37.0943 48.0658C37.3 48.1173 37.4799 47.937 37.5056 47.8083C37.5056 47.6795 37.3257 47.4478 37.0943 47.4993Z" fill="#D3DAE0"/>
<path d="M18.6633 25.4057C18.5605 25.38 18.4833 25.4315 18.4062 25.483C18.3034 25.5602 18.3034 25.7405 18.4062 25.8435C18.4576 25.8692 18.509 25.895 18.5348 25.895C18.5605 25.998 18.6119 26.0752 18.6633 26.1267C18.7661 26.204 18.9975 26.1782 19.1003 26.0752C19.2802 25.895 19.2802 25.6632 19.126 25.5087C19.0232 25.38 18.7918 25.3542 18.6633 25.4057Z" fill="#D3DAE0"/>
<path d="M19.6395 24.6074C19.7166 24.5044 19.6909 24.4272 19.6138 24.3499C19.5109 24.2727 19.3824 24.2469 19.2796 24.3499C19.2025 24.4529 19.2025 24.6589 19.3053 24.7104C19.3824 24.8134 19.5624 24.7362 19.6395 24.6074Z" fill="#D3DAE0"/>
<path d="M18.4833 23.6032C18.5604 23.526 18.4576 23.423 18.4319 23.3972C18.4062 23.3715 18.3548 23.3715 18.3034 23.3972C18.2777 23.4487 18.2777 23.4745 18.252 23.526C18.252 23.5517 18.252 23.5775 18.2777 23.6032C18.3034 23.629 18.4062 23.6805 18.4833 23.6032Z" fill="#D3DAE0"/>
<path d="M18.4574 24.5303C18.586 24.6591 18.7659 24.5046 18.8687 24.4531C18.9716 24.4016 18.9716 24.2471 18.8687 24.1441C18.7659 24.0411 18.6374 24.0153 18.5603 24.1441C18.5089 24.2471 18.3546 24.4016 18.4574 24.5303Z" fill="#D3DAE0"/>
<path d="M18.2779 28.2639C18.4321 28.2639 18.5606 28.2639 18.7149 28.2639C18.7149 28.2381 18.7406 28.2124 18.7406 28.2124C18.612 28.0579 18.4578 27.9291 18.2779 28.0321C18.2264 28.0579 18.1493 28.2124 18.175 28.2639C18.2264 28.2639 18.2521 28.2639 18.2779 28.2639Z" fill="#D3DAE0"/>
<path d="M39.0994 48.0142C39.0737 47.8598 38.8938 47.7568 38.7395 47.7825C38.611 47.8083 38.4825 47.9627 38.5082 48.1172C38.5339 48.246 38.7138 48.349 38.8424 48.349C38.9966 48.3232 39.1251 48.1687 39.0994 48.0142Z" fill="#D3DAE0"/>
<path d="M42.9036 47.2932C42.8265 47.3189 42.8008 47.4219 42.8008 47.4734C42.8265 47.5249 42.8522 47.6537 42.9293 47.6279C43.0064 47.6022 43.0578 47.5249 43.0578 47.4734C43.0321 47.4219 42.955 47.2674 42.9036 47.2932Z" fill="#D3DAE0"/>
<path d="M40.9765 49.0186C41.0022 49.2761 41.2336 49.5078 41.4135 49.4563C41.5678 49.4306 41.722 49.1988 41.6963 48.9928C41.6706 48.8126 41.465 48.6838 41.2593 48.7096C41.0537 48.7353 40.9508 48.8383 40.9765 49.0186Z" fill="#D3DAE0"/>
<path d="M42.4674 45.4907C42.236 45.4907 42.0047 45.4907 41.799 45.4907C41.7733 45.0787 41.7219 45.053 41.3877 45.156C41.3106 45.362 41.3877 45.4907 41.5934 45.568C41.5163 46.083 41.7733 46.2375 42.2875 46.0572C42.3132 46.083 42.3389 46.1087 42.3646 46.1345C42.4674 46.2632 42.5702 46.2375 42.6988 46.186C42.8273 46.1345 42.853 46.0572 42.853 45.9285C42.853 45.5937 42.7759 45.4907 42.4674 45.4907Z" fill="#D3DAE0"/>
<path d="M41.5154 51.9283C41.284 51.8253 40.9498 51.9541 40.8984 52.1601C40.8727 52.3661 40.9498 52.4949 41.1041 52.5979C41.2583 52.7009 41.4126 52.6494 41.5411 52.5464C41.6439 52.4434 41.901 52.2888 41.8239 52.1086C41.7724 51.9026 41.5925 51.9798 41.5154 51.9283Z" fill="#D3DAE0"/>
<path d="M42.3128 50.5894C42.1843 50.5894 42.0557 50.7181 42.0814 50.8469C42.0814 50.9756 42.2357 51.0786 42.3642 51.0786C42.5184 51.0786 42.647 50.9498 42.5956 50.8211C42.5442 50.6924 42.467 50.5894 42.3128 50.5894Z" fill="#D3DAE0"/>
<path d="M43.7779 43.6881C43.5722 43.6366 43.4694 43.7911 43.418 44.0229C43.5465 44.1516 43.6493 44.3062 43.8293 44.2031C43.9578 44.1516 44.0092 44.0229 43.9578 43.8941C43.9321 43.7911 43.855 43.6881 43.7779 43.6881Z" fill="#D3DAE0"/>
<path d="M44.2405 48.864C44.1891 48.864 44.0863 48.8898 44.0605 48.9928C44.0605 49.0958 44.2148 49.0958 44.2662 49.0958C44.2919 49.0958 44.369 49.0185 44.369 48.9928C44.3433 48.9413 44.2919 48.864 44.2405 48.864Z" fill="#D3DAE0"/>
<path d="M43.2894 48.3233C43.1866 48.3491 43.1351 48.4263 43.1608 48.5293C43.1866 48.6323 43.2894 48.6323 43.3408 48.6323C43.3922 48.6323 43.4693 48.5808 43.4693 48.4778C43.4693 48.3491 43.3922 48.2976 43.2894 48.3233Z" fill="#D3DAE0"/>
<path d="M43.2385 46.4694C43.3413 46.4694 43.4699 46.3921 43.4185 46.2634C43.3928 46.1861 43.2642 46.0574 43.2128 46.0574C43.1357 46.0574 43.0586 46.1861 42.9814 46.2376C43.0072 46.4436 43.11 46.4694 43.2385 46.4694Z" fill="#D3DAE0"/>
<path d="M38.4566 49.1987C38.5851 49.173 38.6622 49.0442 38.6365 48.8897C38.6108 48.761 38.4309 48.6322 38.2252 48.6837C38.1995 48.761 38.0967 48.864 38.0967 48.967C38.0967 49.1215 38.3023 49.2245 38.4566 49.1987Z" fill="#D3DAE0"/>
<path d="M38.5341 51.5161C38.4312 51.5419 38.2256 51.6964 38.2256 51.7736C38.2256 51.8509 38.4827 51.9281 38.5855 51.9539C38.6883 51.9796 38.7911 51.7994 38.7654 51.6706C38.7397 51.5419 38.6626 51.4646 38.5341 51.5161Z" fill="#D3DAE0"/>
<path d="M21.028 24.9938C21.1822 24.8393 21.1822 24.6333 21.0794 24.5303C20.9509 24.4273 20.5396 24.4015 20.4624 24.5045C20.3082 24.659 20.3339 24.9165 20.5396 25.0968C20.6681 25.2255 20.848 25.174 21.028 24.9938Z" fill="#D3DAE0"/>
<path d="M37.7115 45.8772L37.6858 45.8515C37.7629 45.8772 37.84 45.9029 37.8914 45.9287C37.9942 45.9544 38.0971 45.8772 38.0971 45.7227C38.0971 45.5682 37.9942 45.4652 37.8657 45.491C37.8143 45.491 37.7115 45.5682 37.6344 45.6455C37.5829 45.491 37.4801 45.4137 37.3516 45.4394C37.1716 45.4652 37.0431 45.6455 37.1459 45.8515C37.2231 46.0317 37.1202 46.1347 37.0688 46.2635C36.8375 46.1605 36.6832 46.1605 36.5547 46.2377C36.5547 46.3407 36.5547 46.4437 36.5547 46.5467C36.5547 46.7012 36.5547 46.8557 36.5547 47.0102C36.6061 47.0102 36.6575 47.036 36.7346 47.0102C36.9403 46.9845 37.1459 46.9587 37.1973 46.624C37.2745 46.7527 37.3516 46.8042 37.3516 46.8815C37.403 47.036 37.4801 47.1132 37.6344 47.1132C37.7886 47.1132 37.9428 47.0617 38.0199 46.8815C38.2513 46.315 38.1999 46.1605 37.7115 45.8772Z" fill="#D3DAE0"/>
<path d="M39.3052 54.2458C39.1767 54.1686 39.0481 54.1943 38.9453 54.3231C38.8682 54.4261 38.8425 54.5033 38.9196 54.6321C39.0481 54.8123 39.2024 54.7866 39.3823 54.7093C39.408 54.5033 39.4852 54.3231 39.3052 54.2458Z" fill="#D3DAE0"/>
<path d="M39.8704 50.7697C39.7419 50.7954 39.6133 50.9242 39.6391 51.0529C39.6391 51.1817 39.819 51.3362 39.9475 51.3362C40.0761 51.3362 40.1789 51.1817 40.1789 51.0529C40.1532 50.8984 39.9989 50.7439 39.8704 50.7697Z" fill="#D3DAE0"/>
<path d="M40.539 45.1302C40.3591 45.1559 40.3591 45.3876 40.3334 45.4906C40.3077 45.6194 40.4362 45.6966 40.5904 45.6966C40.7447 45.6709 40.8218 45.5936 40.7704 45.4649C40.7447 45.3361 40.6933 45.1044 40.539 45.1302Z" fill="#D3DAE0"/>
<path d="M39.4075 53.0098C39.3561 53.0098 39.2275 53.0355 39.2275 53.1385C39.2275 53.2415 39.3561 53.2673 39.3818 53.2673C39.4332 53.2415 39.4846 53.19 39.5103 53.1385C39.5103 53.087 39.4332 53.0098 39.4075 53.0098Z" fill="#D3DAE0"/>
<path d="M40.0505 46.6495C39.7934 46.6753 39.6392 46.8813 39.6649 47.1388C39.6906 47.422 39.9991 47.628 40.2818 47.5765C40.4875 47.525 40.6932 47.2418 40.6674 47.01C40.6417 46.7525 40.3847 46.598 40.0505 46.6495Z" fill="#D3DAE0"/>
<path d="M41.2849 40.2119C41.2849 40.0059 41.0021 39.7999 40.745 39.8257C40.5651 39.8257 40.4366 40.0059 40.4623 40.2377C40.4623 40.4694 40.6936 40.7012 40.8479 40.7012C41.0792 40.6754 41.3106 40.4437 41.2849 40.2119Z" fill="#D3DAE0"/>
<path d="M20.8475 26.2299C20.8475 26.2299 20.8475 26.2557 20.8475 26.2814C20.8218 26.2042 20.7961 26.1269 20.7704 26.0754C20.7961 26.0239 20.8475 25.9209 20.7961 25.8952C20.7447 25.8694 20.6419 25.8694 20.6162 25.9209C20.5905 25.9467 20.5905 25.9724 20.5648 26.0239C20.5391 26.0239 20.5134 26.0497 20.4876 26.0754C20.3848 26.1784 20.3591 26.3072 20.4619 26.4102C20.5134 26.4617 20.6162 26.4874 20.719 26.5132C20.6419 26.6419 20.6419 26.7707 20.7447 26.8479C20.8475 26.9509 21.0018 26.9509 21.1303 26.8479C21.2331 26.9252 21.4131 26.8994 21.5159 26.7707C21.5673 26.6934 21.5673 26.6419 21.5673 26.5647H21.593C21.6958 26.9767 21.9272 27.1054 22.2614 26.8994C22.2871 26.8737 22.3128 26.8479 22.3642 26.8479C22.5699 26.6934 22.5699 26.5389 22.3899 26.3587C22.2357 26.2042 22.0814 26.0754 21.7987 26.2299C21.8501 26.0754 21.8501 25.9982 21.9015 25.9467C22.0043 25.8179 21.9786 25.6892 21.8758 25.5862C21.773 25.4574 21.6444 25.3802 21.4645 25.4317C20.8218 25.5089 20.7447 25.6634 20.8475 26.2299Z" fill="#D3DAE0"/>
<path d="M31.6188 27.8006C31.7987 27.5946 31.7987 27.2084 31.5931 27.0281C31.4131 26.8736 31.0275 26.8736 30.8476 27.0539C30.6419 27.2341 30.6933 27.5431 30.9247 27.8006C31.1304 28.0066 31.4388 28.0066 31.6188 27.8006Z" fill="#D3DAE0"/>
<path d="M31.5929 31.1995C31.6186 31.3025 31.7215 31.4313 31.7986 31.457C32.0042 31.5343 32.0556 31.3283 32.1585 31.1738C32.0299 30.9935 31.9014 30.8648 31.7215 30.9678C31.6443 31.0193 31.5672 31.148 31.5929 31.1995Z" fill="#D3DAE0"/>
<path d="M32.339 28.8047C32.4419 28.7274 32.4161 28.4442 32.3133 28.3927C32.2105 28.3669 32.1334 28.3927 32.0305 28.4442C31.902 28.5214 31.902 28.7017 32.0048 28.8047C32.1077 28.8819 32.2105 28.8819 32.339 28.8047Z" fill="#D3DAE0"/>
<path d="M32.0559 26.3587C32.0302 26.4102 32.0045 26.4874 32.0302 26.5389C32.0559 26.5647 32.1587 26.6419 32.2358 26.5904C32.313 26.5132 32.2101 26.4102 32.1844 26.3587C32.1844 26.3329 32.0559 26.3329 32.0559 26.3587Z" fill="#D3DAE0"/>
<path d="M28.971 25.895C28.9453 25.9723 28.971 26.101 29.0224 26.1525C29.0738 26.204 29.2795 26.2298 29.3309 26.1525C29.3823 26.101 29.3052 25.8693 29.2538 25.8435C29.1767 25.8178 28.9967 25.8178 28.971 25.895Z" fill="#D3DAE0"/>
<path d="M29.6137 24.1441C29.6908 24.1956 29.9479 24.2728 30.025 24.1956C30.1021 24.1183 29.9479 23.8866 29.8965 23.8093C29.8194 23.7321 29.6908 23.7321 29.6137 23.8608C29.5366 23.9638 29.5109 24.0668 29.6137 24.1441Z" fill="#D3DAE0"/>
<path d="M35.0379 27.0281C35.1664 26.9251 35.1664 26.7963 35.0379 26.6676C34.9351 26.5646 34.7551 26.5646 34.6523 26.6676C34.5495 26.7706 34.5495 26.9508 34.6523 27.0281C34.7551 27.1568 34.9094 27.1311 35.0379 27.0281Z" fill="#D3DAE0"/>
<path d="M29.9486 22.3415C29.9229 22.3672 29.8458 22.5217 29.8972 22.5732C29.9486 22.6247 30.1028 22.5732 30.1285 22.5217C30.1542 22.496 30.1799 22.393 30.1285 22.3415C30.0771 22.29 30 22.3158 29.9486 22.3415Z" fill="#D3DAE0"/>
<path d="M29.999 20.3846C30.0247 20.3588 30.0762 20.2558 30.0247 20.2043C29.9733 20.1528 29.8448 20.2301 29.8191 20.2558C29.7934 20.2816 29.7934 20.3846 29.8191 20.4103C29.8448 20.4361 29.9476 20.4103 29.999 20.3846Z" fill="#D3DAE0"/>
<path d="M30.6423 28.5987C30.7452 28.4442 30.7709 28.3154 30.6166 28.2124C30.5652 28.1867 30.4367 28.1867 30.3853 28.2124C30.3339 28.2639 30.2567 28.3927 30.2824 28.4442C30.3339 28.6244 30.4881 28.5987 30.6423 28.5987Z" fill="#D3DAE0"/>
<path d="M34.138 34.6243C34.0352 34.7273 34.0095 34.9076 34.1123 35.0106C34.1637 35.0621 34.2152 35.0878 34.2666 35.0878C34.2923 35.1908 34.4465 35.3196 34.5751 35.3453C34.7036 35.3711 34.8064 35.2681 34.8064 35.1136C34.8064 34.8818 34.755 34.7273 34.6265 34.7273C34.6008 34.7273 34.5751 34.7273 34.5751 34.7273C34.5751 34.7016 34.5493 34.6501 34.5236 34.6243C34.3951 34.5471 34.2409 34.5213 34.138 34.6243Z" fill="#D3DAE0"/>
<path d="M34.2924 29.2169C34.3181 29.1654 34.3952 29.0624 34.3438 29.0366C34.2924 29.0109 34.1896 29.0109 34.1381 29.0366C34.0867 29.0624 34.0353 29.2169 34.0867 29.2684C34.1638 29.2941 34.2667 29.2426 34.2924 29.2169Z" fill="#D3DAE0"/>
<path d="M34.1636 32.899C34.2664 32.796 34.2407 32.6415 34.1379 32.5385C34.0094 32.4097 33.8294 32.4097 33.7266 32.5385C33.6238 32.6415 33.6495 32.8475 33.7523 32.9505C33.8294 33.0277 34.0608 33.002 34.1636 32.899Z" fill="#D3DAE0"/>
<path d="M34.9868 29.8862C35.0896 29.7575 35.0639 29.603 34.9354 29.5C34.8068 29.3712 34.6526 29.3712 34.5755 29.4485C34.4984 29.5772 34.4984 29.8347 34.6012 29.9377C34.6783 30.0407 34.884 30.015 34.9868 29.8862Z" fill="#D3DAE0"/>
<path d="M32.5957 30.5557C32.5957 30.5815 32.6471 30.7102 32.7242 30.6845C32.8014 30.6587 32.8271 30.53 32.8271 30.4785C32.8271 30.4527 32.7499 30.3755 32.6985 30.3755C32.6471 30.4012 32.5957 30.4785 32.5957 30.5557Z" fill="#D3DAE0"/>
<path d="M32.0559 23.5517C32.1331 23.6032 32.3644 23.6804 32.3901 23.6289C32.4415 23.5774 32.3901 23.3457 32.3387 23.2684C32.2873 23.1654 32.1331 23.1654 32.0302 23.2684C31.9274 23.3714 31.9788 23.4744 32.0559 23.5517Z" fill="#D3DAE0"/>
<path d="M32.3383 29.706C32.3126 29.7575 32.2869 29.8347 32.2869 29.8605C32.2869 29.912 32.364 29.9892 32.4155 29.9892C32.4669 29.9892 32.5183 29.8862 32.5183 29.8347C32.5183 29.8347 32.5183 29.809 32.5183 29.7832C32.5697 29.7832 32.6211 29.7575 32.6468 29.6802C32.6982 29.603 32.7239 29.5 32.6982 29.4227C32.6468 29.3455 32.3897 29.3455 32.2869 29.4485C32.2355 29.5772 32.2869 29.6545 32.3383 29.706Z" fill="#D3DAE0"/>
<path d="M33.4952 31.2768C33.6237 31.1223 33.6237 30.8133 33.4952 30.6846C33.3924 30.5816 33.0839 30.6588 32.9297 30.8391C32.8268 30.9421 32.8525 31.1738 32.9811 31.2768C33.1353 31.3798 33.3924 31.3798 33.4952 31.2768Z" fill="#D3DAE0"/>
<path d="M33.3408 27.6717C33.4179 27.5687 33.4179 27.4915 33.3151 27.4142C33.2123 27.337 33.1094 27.2855 32.9809 27.3885C32.9038 27.4657 32.8781 27.6717 32.9809 27.749C33.058 27.852 33.2123 27.8005 33.3408 27.6717Z" fill="#D3DAE0"/>
<path d="M30.2569 25.792C30.3597 25.6632 30.334 25.4315 30.2312 25.3285C30.1027 25.1997 29.6657 25.1997 29.5885 25.3285C29.4857 25.483 29.5371 25.7662 29.7171 25.9207C29.897 26.0237 30.077 25.998 30.2569 25.792Z" fill="#D3DAE0"/>
<path d="M23.7267 24.7105C23.9324 24.8907 24.0866 24.9165 24.2408 24.762C24.3951 24.6075 24.3951 24.2985 24.2665 24.1697C24.138 24.041 23.8038 24.041 23.6496 24.1955C23.5468 24.2985 23.5725 24.556 23.7267 24.7105Z" fill="#D3DAE0"/>
<path d="M23.6242 19.7665C23.8042 19.6635 23.8556 19.509 23.8299 19.3287C23.8042 19.1227 23.6756 19.0455 23.4957 19.0197C23.3672 19.0197 23.0844 18.9167 22.9559 19.0712C22.853 19.2515 23.0073 19.3287 23.033 19.406C23.1358 19.6892 23.4443 19.8695 23.6242 19.7665Z" fill="#D3DAE0"/>
<path d="M24.8072 23.7064C24.8329 23.6549 24.8072 23.5261 24.7558 23.4489C24.7044 23.3716 24.5759 23.3459 24.5245 23.4746C24.4731 23.5519 24.3959 23.7579 24.4731 23.8351C24.5502 23.9124 24.7558 23.7579 24.8072 23.7064Z" fill="#D3DAE0"/>
<path d="M22.9554 23.9381C23.0839 23.8351 23.0325 23.6291 22.904 23.5261C22.8011 23.4489 22.6469 23.4746 22.5441 23.5776C22.4669 23.6806 22.4669 23.8866 22.6469 24.0154C22.724 24.0154 22.8525 24.0154 22.9554 23.9381Z" fill="#D3DAE0"/>
<path d="M21.876 19.715C21.9788 19.6378 21.9788 19.4575 21.876 19.3545C21.7731 19.2515 21.5932 19.2258 21.5161 19.3288C21.4389 19.4575 21.4132 19.5863 21.5161 19.6893C21.5932 19.818 21.7731 19.818 21.876 19.715Z" fill="#D3DAE0"/>
<path d="M21.8249 25.3286C21.7992 25.3801 21.7992 25.4831 21.8249 25.5089C21.8507 25.5346 22.0049 25.5604 22.0306 25.5346C22.0563 25.5089 22.0049 25.3544 21.9792 25.3286C21.9535 25.3029 21.8507 25.3029 21.8249 25.3286Z" fill="#D3DAE0"/>
<path d="M21.9537 22.8564C22.1336 22.9852 22.4164 22.8564 22.4678 22.7792C22.5192 22.7019 22.4421 22.3929 22.2364 22.3157C22.1079 22.2642 21.9794 22.3157 21.9022 22.4702C21.8251 22.6247 21.8251 22.7792 21.9537 22.8564Z" fill="#D3DAE0"/>
<path d="M24.6273 22.0069C24.7045 22.0584 24.9615 22.1356 25.0129 22.0584C25.0644 21.9811 24.9615 21.7494 24.9101 21.6721C24.8587 21.5691 24.6787 21.6206 24.6016 21.7236C24.5502 21.8266 24.5245 21.9554 24.6273 22.0069Z" fill="#D3DAE0"/>
<path d="M22.0047 23.7576C21.9019 23.6546 21.6962 23.6547 21.6191 23.7834C21.5163 23.9122 21.542 24.1181 21.6705 24.1954C21.7734 24.2726 21.979 24.2727 22.0561 24.1439C22.1332 24.0666 22.1075 23.8606 22.0047 23.7576Z" fill="#D3DAE0"/>
<path d="M28.5601 26.9765C28.5858 27.131 28.6886 27.2082 28.8429 27.2082C28.9714 27.2082 29.0485 27.1567 29.0999 27.028C29.1513 26.822 29.0228 26.719 28.8686 26.616C28.7143 26.719 28.5344 26.7705 28.5601 26.9765Z" fill="#D3DAE0"/>
<path d="M27.6856 27.0278C27.7884 27.1308 27.9427 27.1051 28.0969 26.9506C28.2511 26.7704 28.2768 26.6158 28.1483 26.5128C27.9684 26.3584 27.737 26.3326 27.6342 26.4871C27.5313 26.5901 27.5828 26.9248 27.6856 27.0278Z" fill="#D3DAE0"/>
<path d="M25.4233 20.436C25.5005 20.3845 25.449 20.2557 25.4233 20.2557C25.3719 20.23 25.2948 20.23 25.2434 20.23C25.2177 20.23 25.192 20.3587 25.2177 20.3845C25.2691 20.4102 25.3462 20.4875 25.4233 20.436Z" fill="#D3DAE0"/>
<path d="M27.8656 28.1095C27.8656 28.2898 28.0713 28.3413 27.917 28.47C27.7628 28.5988 27.4543 28.9078 27.7371 29.191C27.8656 29.3198 28.1484 29.3198 28.3026 29.191C28.2769 29.3455 28.3541 29.5258 28.4826 29.6288C28.6625 29.7833 29.0224 29.7318 29.1767 29.5258C29.3309 29.3455 29.3052 29.0623 29.151 28.9335C28.9967 28.8048 28.6625 28.8048 28.4826 28.9078C28.5083 28.8305 28.5083 28.7533 28.4826 28.7018C28.4055 28.5473 28.7654 28.47 28.6625 28.264C28.5597 28.0838 28.7654 27.8778 28.6111 27.646C28.4569 27.4143 28.1741 27.2855 28.0199 27.4658C27.8913 27.6975 27.8913 27.8778 27.8656 28.1095Z" fill="#D3DAE0"/>
<path d="M29.1763 24.9165C29.2791 24.8135 29.2534 24.659 29.1506 24.556C29.0221 24.4273 28.8421 24.4273 28.7393 24.556C28.6365 24.659 28.6622 24.865 28.765 24.968C28.8678 25.0453 29.0735 25.0195 29.1763 24.9165Z" fill="#D3DAE0"/>
<path d="M28.5853 23.7834C28.611 23.7577 28.5853 23.7062 28.5596 23.6804C28.5339 23.6547 28.4825 23.6547 28.4568 23.6804C28.4311 23.7062 28.4311 23.7577 28.4568 23.8092C28.5082 23.8349 28.5596 23.8092 28.5853 23.7834Z" fill="#D3DAE0"/>
<path d="M25.3465 24.5304C25.5265 24.7107 25.9892 24.7364 26.1691 24.5562C26.3491 24.3759 26.3234 24.0154 26.1434 23.8609C25.9378 23.6807 25.6293 23.6549 25.4493 23.8352C25.2437 24.0412 25.1923 24.3759 25.3465 24.5304Z" fill="#D3DAE0"/>
<path d="M26.5287 19.9211C26.6573 19.9211 26.7344 19.8696 26.7858 19.7409C26.8372 19.5349 26.7087 19.4319 26.5544 19.3289C26.4002 19.4319 26.2202 19.4834 26.2717 19.6894C26.2717 19.8181 26.3745 19.8954 26.5287 19.9211Z" fill="#D3DAE0"/>
<path d="M27.069 23.5773C26.9404 23.7061 26.9147 23.8606 27.0175 23.9636C27.1461 24.1181 27.4546 24.1181 27.5831 23.9893C27.7116 23.8863 27.7116 23.6803 27.6088 23.5516C27.4803 23.4228 27.1975 23.4228 27.069 23.5773Z" fill="#D3DAE0"/>
<path d="M26.5806 21.981C26.4264 22.1613 26.4521 22.4188 26.6577 22.599C26.812 22.7278 27.1204 22.6763 27.249 22.5218C27.4032 22.3415 27.3775 22.1098 27.1461 21.9553C26.9405 21.775 26.7348 21.8008 26.5806 21.981Z" fill="#D3DAE0"/>
<path d="M89.9209 55.8937C87.7873 55.1727 85.5765 55.0439 83.4943 55.4302C82.1062 47.9369 76.8106 41.3707 69.0473 38.7957C57.7108 34.9847 45.4231 41.1132 41.6186 52.4689C41.2844 53.4474 41.053 54.4259 40.8731 55.4044C34.7807 54.4517 28.6882 58.0052 26.6831 64.0307C24.421 70.7772 28.0713 78.0902 34.8064 80.3304C36.066 80.7424 37.3513 80.9742 38.6109 80.9999C38.6623 80.9999 38.7394 80.9999 38.7909 80.9999H61.6953C61.7981 80.9999 61.9009 80.9999 62.0037 80.9999H85.5508C85.6022 80.9999 85.6793 80.9999 85.7308 80.9999H86.1935C91.4376 80.8454 96.2961 77.4722 98.0698 72.2192C100.306 65.4469 96.6817 58.1597 89.9209 55.8937Z" fill="#41A3DB"/>
<path d="M71.2066 80.1761C71.258 80.2019 71.3351 80.2276 71.3865 80.2019C71.4893 80.1246 71.5922 80.0216 71.695 79.9186C72.0292 79.9701 72.2862 79.8671 72.3119 79.6611C72.3376 79.4551 72.1063 79.1719 71.9006 79.1204C71.6693 79.0689 71.5922 79.1719 71.4893 79.6611C71.3094 79.6354 71.1037 79.6096 71.0523 79.8414C71.0266 79.9701 71.078 80.0989 71.2066 80.1761Z" fill="#0D90E0"/>
<path d="M75.165 75.5926C75.1907 75.6441 75.2679 75.6956 75.3193 75.6956C75.3707 75.6956 75.4735 75.6441 75.4735 75.541C75.4478 75.438 75.3193 75.4638 75.2679 75.4638C75.2165 75.4896 75.165 75.5926 75.165 75.5926Z" fill="#0D90E0"/>
<path d="M74.9855 78.322C74.8826 78.5022 74.9598 78.8885 75.2168 78.9915C75.4996 79.0945 75.7053 79.0172 75.8338 78.8627C75.9623 78.7082 75.8338 78.3992 75.6281 78.219C75.4739 78.0902 75.0883 78.1417 74.9855 78.322Z" fill="#0D90E0"/>
<path d="M75.5255 72.4253C75.4741 72.4253 75.2942 72.5798 75.3199 72.6313C75.3456 72.7085 75.5255 72.76 75.5769 72.7343C75.6541 72.7085 75.7569 72.6055 75.7312 72.554C75.7055 72.5025 75.5769 72.4253 75.5255 72.4253Z" fill="#0D90E0"/>
<path d="M76.065 77.7299C76.0135 77.7556 75.9364 77.8586 75.9621 77.9359C75.9878 78.0131 76.0393 78.1161 76.1164 78.1419C76.2963 78.1934 76.3734 78.0389 76.4249 77.9101C76.322 77.7556 76.2192 77.6526 76.065 77.7299Z" fill="#0D90E0"/>
<path d="M75.5251 76.2877C75.2938 76.365 75.1138 76.6997 75.191 76.9572C75.2681 77.2147 75.5509 77.3435 75.885 77.2662C76.1421 77.189 76.2963 76.9315 76.2192 76.674C76.1421 76.3907 75.7822 76.2105 75.5251 76.2877Z" fill="#0D90E0"/>
<path d="M74.1371 79.6095C74.2399 79.8412 74.3941 79.9442 74.5998 80.0472C74.754 80.1502 74.9083 79.97 74.9597 80.2017C74.9854 80.4077 75.1139 80.8197 75.4738 80.7167C75.6537 80.6652 75.808 80.4077 75.7566 80.2275C75.8851 80.3047 76.065 80.3562 76.2193 80.279C76.4506 80.2017 76.5792 79.867 76.4763 79.6352C76.3735 79.4035 76.1422 79.2747 75.9365 79.352C75.7566 79.4292 75.6023 79.7125 75.5766 79.9185C75.5252 79.867 75.4481 79.8155 75.371 79.8155C75.2167 79.8155 75.3196 79.455 75.0882 79.4292C74.8825 79.4035 74.7797 79.146 74.5227 79.1717C74.317 79.1975 74.0599 79.4035 74.1371 79.6095Z" fill="#0D90E0"/>
<path d="M77.5561 76.0817C77.3762 76.0302 77.2219 76.056 77.0934 76.2105C77.042 76.2877 77.0163 76.365 77.0163 76.4422C76.9648 76.4937 76.9648 76.571 76.9648 76.6482C76.9648 76.777 77.0934 76.8542 77.1962 76.8542C77.2219 76.88 77.2476 76.9315 77.299 76.9572C77.2733 77.0087 77.2733 77.0602 77.2476 77.1375C77.2219 77.3692 77.3247 77.6267 77.479 77.704C77.6846 77.807 77.916 77.7812 78.1216 77.6525C78.1731 77.601 78.2502 77.5237 78.2502 77.4465C78.2759 77.2662 78.2245 77.1117 78.1216 77.0087C78.1473 77.0087 78.1988 77.0087 78.2245 76.983C78.353 76.9315 78.4301 76.8027 78.353 76.6997C78.3016 76.6225 78.2502 76.5195 78.1473 76.5452C78.0702 76.5452 77.916 76.777 77.9674 76.9057C77.916 76.88 77.8903 76.8542 77.8132 76.8542C77.7618 76.8285 77.6846 76.8285 77.6332 76.8027C77.6589 76.6997 77.7103 76.5967 77.736 76.468C77.8132 76.262 77.7618 76.159 77.5561 76.0817Z" fill="#0D90E0"/>
<path d="M76.1933 77.1119C76.0647 77.1377 75.9362 77.3694 76.1162 77.5239C76.3218 77.6527 76.5018 77.4209 76.4761 77.2922C76.4504 77.1892 76.2961 77.0862 76.1933 77.1119Z" fill="#0D90E0"/>
<path d="M67.2485 78.7599C67.0942 78.9659 67.4027 79.2234 67.5055 79.1719C67.6341 79.1462 67.7626 78.8372 67.6598 78.7342C67.5312 78.5797 67.4027 78.5282 67.2485 78.7599Z" fill="#0D90E0"/>
<path d="M71.181 77.395C71.2324 77.3693 71.2324 77.3178 71.2324 77.292C71.2324 77.2663 71.1552 77.2405 71.1295 77.2663C71.1038 77.2663 71.0781 77.3178 71.0781 77.3435C71.1038 77.3693 71.1295 77.4208 71.181 77.395Z" fill="#0D90E0"/>
<path d="M66.8363 77.1375C66.9134 77.0345 66.9134 76.9315 66.8105 76.8285C66.6563 76.674 66.5021 76.7255 66.3221 76.8285C66.3221 77.0087 66.2707 77.189 66.4764 77.2662C66.6049 77.3177 66.7334 77.2662 66.8363 77.1375Z" fill="#0D90E0"/>
<path d="M66.5794 78.2705C66.528 78.2963 66.4766 78.3735 66.4766 78.425C66.4766 78.4508 66.5537 78.528 66.5794 78.528C66.6308 78.5023 66.7336 78.4765 66.7336 78.3735C66.7336 78.2448 66.6051 78.2448 66.5794 78.2705Z" fill="#0D90E0"/>
<path d="M67.4279 79.7126C67.4793 79.8156 67.5821 79.8928 67.685 79.8413C67.7107 79.8413 67.7107 79.8155 67.7364 79.8155C67.8135 79.9185 67.9678 79.8156 68.0192 79.7641C68.0706 79.7126 68.122 79.6096 68.0449 79.5323C68.0192 79.5066 67.9678 79.4808 67.9163 79.4808C67.8392 79.4036 67.6336 79.4036 67.5564 79.4036C67.4279 79.4036 67.3765 79.5838 67.4279 79.7126Z" fill="#0D90E0"/>
<path d="M66.1686 80.5623C66.1944 80.6911 66.3229 80.7683 66.4257 80.7941C66.4257 80.8198 66.4514 80.8198 66.4771 80.8456C66.58 80.8971 66.7085 80.8971 66.8113 80.8713C66.9141 80.8198 66.8884 80.5881 66.7856 80.5366C66.7599 80.5108 66.7342 80.5108 66.7085 80.5108C66.7085 80.5108 66.7085 80.5108 66.7085 80.4851C66.6828 80.3563 66.4771 80.2276 66.3743 80.2533C66.2201 80.2533 66.1172 80.4336 66.1686 80.5623Z" fill="#0D90E0"/>
<path d="M69.2018 80.897C69.3046 80.8712 69.2789 80.6137 69.2532 80.5365C69.2275 80.485 69.099 80.4592 69.0218 80.4592C68.919 80.485 68.8419 80.5622 68.919 80.6652C68.9704 80.7425 69.099 80.9485 69.2018 80.897Z" fill="#0D90E0"/>
<path d="M70.7958 75.5409C70.8729 75.5152 70.8987 75.3607 70.873 75.3349C70.8472 75.2834 70.7701 75.2062 70.7187 75.2319C70.6673 75.2577 70.6159 75.3607 70.6416 75.3864C70.6416 75.4379 70.7444 75.5667 70.7958 75.5409Z" fill="#0D90E0"/>
<path d="M70.281 78.5022C70.3324 78.6825 70.4609 78.7855 70.5894 78.734C70.7694 78.7083 70.9493 78.4507 70.8979 78.2447C70.8722 78.0902 70.6923 77.9872 70.538 78.013C70.3581 78.0902 70.2295 78.322 70.281 78.5022Z" fill="#0D90E0"/>
<path d="M76.1162 80.9993H76.399C76.3733 80.9738 76.3733 80.9484 76.3476 80.9229H76.3733C76.2705 80.9484 76.1933 80.9738 76.1162 80.9993Z" fill="#0D90E0"/>
<path d="M72.6205 80.9227C72.5948 80.7682 72.5176 80.6652 72.4405 80.5879C72.4405 80.5107 72.4148 80.4334 72.3377 80.3819C72.2092 80.2789 72.0806 80.2789 71.9778 80.3819C71.875 80.5107 71.8493 80.7424 71.9007 80.8454C71.875 80.8969 71.875 80.9484 71.9007 80.9999H72.6205C72.6205 80.9742 72.6205 80.9484 72.6205 80.9227Z" fill="#0D90E0"/>
<path d="M70.1782 80.6138C70.1525 80.588 70.1268 80.588 70.1011 80.5623C69.9212 80.5623 69.8955 80.588 69.8183 80.691C69.7412 80.794 69.7412 80.8713 69.7412 80.9228C69.7669 80.9228 69.8183 80.9485 69.8697 80.9743H70.2039C70.2553 80.897 70.1782 80.7168 70.1782 80.6138Z" fill="#0D90E0"/>
<path d="M70.0752 79.455C69.8181 79.5323 69.6382 79.8155 69.7153 80.0473C69.7924 80.3305 70.0495 80.5366 70.2808 80.485C70.5379 80.4335 70.7949 80.0215 70.7178 79.7898C70.615 79.5323 70.3065 79.3778 70.0752 79.455Z" fill="#0D90E0"/>
<path d="M71.8747 76.1848C71.7462 76.2106 71.7205 76.3136 71.7719 76.4423C71.8233 76.5453 71.9004 76.6483 72.029 76.5711C72.1061 76.5196 72.3117 76.3651 72.286 76.2363C72.2603 76.1591 71.9775 76.1591 71.8747 76.1848Z" fill="#0D90E0"/>
<path d="M72.1578 77.1632C71.9779 77.2147 71.9007 77.3692 71.9522 77.5237C72.0036 77.6524 72.1835 77.7554 72.312 77.7039C72.4663 77.6524 72.5434 77.4464 72.492 77.3177C72.4406 77.1889 72.312 77.1374 72.1578 77.1632Z" fill="#0D90E0"/>
<path d="M64.9856 79.1717C64.8057 79.0944 64.6514 79.1717 64.5743 79.3004C64.4972 79.4292 64.2658 79.6094 64.3687 79.7897C64.4715 79.97 64.6257 79.867 64.7029 79.8927C64.9599 79.97 65.2684 79.7897 65.2684 79.5579C65.2684 79.3777 65.1656 79.2489 64.9856 79.1717Z" fill="#0D90E0"/>
<path d="M72.646 73.79C72.5175 73.79 72.4661 73.9188 72.4918 74.0733C72.5175 74.2278 72.646 74.2535 72.7488 74.202C72.826 74.1763 73.0059 73.996 72.9802 73.9445C72.9545 73.893 72.7231 73.79 72.646 73.79Z" fill="#0D90E0"/>
<path d="M65.2171 78.8886C65.0629 78.9658 65.14 79.3521 65.2428 79.3778C65.3713 79.4036 65.6284 79.1461 65.5513 78.9916C65.4999 78.8886 65.3199 78.8113 65.2171 78.8886Z" fill="#0D90E0"/>
<path d="M65.3717 80.9742C65.3974 80.9228 65.3717 80.8455 65.3717 80.8198C65.2946 80.5108 64.9861 80.4078 64.7548 80.6138C64.6262 80.7168 64.5234 80.8455 64.4463 81H65.3717C65.3717 80.9743 65.3717 80.9742 65.3717 80.9742Z" fill="#0D90E0"/>
<path d="M65.2939 79.9956C65.2425 79.9956 65.1396 80.0986 65.1396 80.1758C65.1396 80.2531 65.2939 80.2788 65.3453 80.2531C65.3967 80.2273 65.4738 80.1758 65.4481 80.0986C65.4481 80.0214 65.3453 79.9956 65.2939 79.9956Z" fill="#0D90E0"/>
<path d="M65.3716 77.3435C65.3202 77.395 65.3202 77.5237 65.3716 77.601C65.4487 77.704 65.5772 77.704 65.6543 77.601C65.7057 77.5495 65.8086 77.3692 65.68 77.2405C65.5515 77.1375 65.423 77.2662 65.3716 77.3435Z" fill="#0D90E0"/>
<path d="M76.9397 77.2149C76.8626 77.1634 76.7598 77.2664 76.7598 77.3694C76.7598 77.4724 76.8112 77.6269 76.8883 77.6784C76.9911 77.7556 77.0682 77.6784 77.0939 77.6526C77.1454 77.5754 77.0939 77.4981 77.0682 77.4209C77.0425 77.3436 77.0168 77.2664 76.9397 77.2149Z" fill="#0D90E0"/>
<path d="M76.939 73.1463C76.7848 73.1978 76.7077 73.3266 76.7334 73.4811C76.7591 73.6098 76.9133 73.7128 77.0419 73.6613C77.1961 73.6356 77.2732 73.4811 77.2218 73.3008C77.1961 73.1721 77.0933 73.1206 76.939 73.1463Z" fill="#0D90E0"/>
<path d="M76.5537 75.3093C76.5794 75.4381 76.7594 75.5411 76.8622 75.4896C76.965 75.4638 76.9907 75.2836 76.9393 75.1291C76.9136 75.0261 76.8108 74.9746 76.708 75.0261C76.6051 75.0776 76.5023 75.1548 76.5537 75.3093Z" fill="#0D90E0"/>
<path d="M78.1471 80.1245C78.0186 80.2532 77.9928 80.382 78.0957 80.5622C78.2242 80.7424 78.4813 80.7682 78.6612 80.6395C78.6612 80.6652 78.6612 80.691 78.6612 80.7167C78.7126 80.8712 78.9697 81.0257 79.1496 80.9742C79.2782 80.9484 79.381 80.6652 79.3296 80.5107C79.2782 80.382 79.1496 80.3305 78.9954 80.382C78.944 80.4077 78.8926 80.4335 78.8412 80.4335C78.8669 80.3562 78.8926 80.3047 78.944 80.279C79.0725 80.2017 79.0725 80.0987 79.0211 79.9442C78.9697 79.7897 78.8669 79.558 78.6612 79.6352C78.4556 79.7125 78.4813 79.867 78.507 79.9185C78.5327 79.97 78.4813 80.1245 78.4299 80.073C78.3784 79.97 78.3013 79.97 78.1471 80.1245Z" fill="#0D90E0"/>
<path d="M72.8525 80.9999H74.0865C74.1122 80.9227 74.1122 80.8454 74.0608 80.7939C73.9579 80.6652 73.7266 80.7167 73.6752 80.7682C73.5466 80.9227 73.4181 80.8197 73.2896 80.8197C73.161 80.8197 73.0325 80.8969 72.9297 80.9484C72.904 80.9484 72.8782 80.9742 72.8525 80.9999Z" fill="#0D90E0"/>
<path d="M73.4691 78.0903C73.5206 78.0646 73.6748 77.9101 73.6234 77.8328C73.572 77.7556 73.3663 77.7041 73.3406 77.7298C73.2635 77.7813 73.1864 77.9358 73.2121 77.9873C73.2635 78.0646 73.4177 78.1161 73.4691 78.0903Z" fill="#0D90E0"/>
<path d="M73.083 79.4807C73.1344 79.6095 73.4429 79.7382 73.5971 79.7125C73.7513 79.6867 73.8027 79.5322 73.7256 79.3262C73.6485 79.0945 73.5457 79.0172 73.3657 79.0687C73.1344 79.1202 73.0058 79.3005 73.083 79.4807Z" fill="#0D90E0"/>
<path d="M73.8026 78.4767C73.8026 78.6569 73.7512 78.8371 73.9568 78.9144C74.0854 78.9659 74.2139 78.9144 74.291 78.7856C74.3681 78.6826 74.3681 78.5797 74.2653 78.4767C74.1368 78.3222 73.9825 78.3737 73.8026 78.4767Z" fill="#0D90E0"/>
<path d="M73.3656 76.6226C73.1857 76.6741 72.98 77.0346 73.0315 77.1891C73.1086 77.3694 73.3914 77.4466 73.6227 77.3694C73.8284 77.2921 73.8798 77.1119 73.8027 76.8544C73.7255 76.6999 73.4942 76.5711 73.3656 76.6226Z" fill="#0D90E0"/>
<path d="M76.4765 79.1201C76.4765 79.3004 76.5794 79.4034 76.785 79.3519C76.8364 79.3776 76.9135 79.4034 76.965 79.3519C76.9907 79.3261 76.9907 79.3004 76.965 79.2746C77.0678 79.1974 77.222 79.0686 77.3505 78.9399C77.4534 78.8369 77.4534 78.6824 77.3248 78.5794C77.222 78.4764 77.0935 78.4506 76.965 78.5536C76.9135 78.6051 76.8364 78.6566 76.7593 78.6824C76.5537 78.7854 76.4508 78.9141 76.4765 79.1201Z" fill="#0D90E0"/>
<path d="M62.5437 78.0388C62.3894 78.219 62.4151 78.5023 62.5951 78.6825C62.8264 78.8885 63.1606 78.8885 63.3406 78.6568C63.5205 78.4508 63.5205 78.219 63.3663 78.0645C63.1349 77.8843 62.6979 77.8585 62.5437 78.0388Z" fill="#0D90E0"/>
<path d="M64.0092 79.5581C63.9063 79.5581 63.8292 80.0473 63.9063 80.1246C63.9835 80.2276 64.2405 80.0988 64.2919 79.8929C64.3691 79.6869 64.112 79.5581 64.0092 79.5581Z" fill="#0D90E0"/>
<path d="M62.5692 76.5194C62.5178 76.4936 62.3635 76.5451 62.3378 76.6224C62.3121 76.6996 62.4664 76.8284 62.5178 76.8284C62.5692 76.8284 62.672 76.7511 62.672 76.6996C62.6977 76.6224 62.6206 76.5451 62.5692 76.5194Z" fill="#0D90E0"/>
<path d="M77.6594 73.9189C77.788 74.0219 78.045 73.9446 78.1993 73.7644C78.2764 73.6614 78.2507 73.4554 78.1479 73.3524C77.9936 73.2494 77.7366 73.2494 77.6337 73.3781C77.5309 73.5326 77.5309 73.8159 77.6594 73.9189Z" fill="#0D90E0"/>
<path d="M68.6361 78.1418C68.7132 78.3736 68.9703 78.4766 69.2016 78.3993C69.3816 78.3478 69.5101 78.0388 69.433 77.8328C69.3559 77.601 69.1502 77.5238 68.8931 77.6268C68.6361 77.704 68.5333 77.91 68.6361 78.1418Z" fill="#0D90E0"/>
<path d="M59.7413 76.8542C59.5871 77.0344 59.6128 77.5237 59.767 77.6782C59.947 77.8584 60.3069 77.8327 60.4868 77.6009C60.6411 77.4207 60.6411 77.0087 60.4611 76.8542C60.2555 76.6739 59.8956 76.6739 59.7413 76.8542Z" fill="#0D90E0"/>
<path d="M59.099 79.3263C59.0733 79.352 59.0476 79.455 59.099 79.5065C59.1504 79.558 59.2533 79.5323 59.279 79.5065C59.3047 79.4808 59.3818 79.3262 59.3304 79.2747C59.279 79.2232 59.1247 79.2748 59.099 79.3263Z" fill="#0D90E0"/>
<path d="M61.0784 80.485C60.9499 80.3563 60.7443 80.382 60.5643 80.5623C60.4358 80.691 60.4101 80.8713 60.5386 80.9743H61.1555C61.2584 80.8455 61.2327 80.6395 61.0784 80.485Z" fill="#0D90E0"/>
<path d="M56.0146 80.4076C56.2717 80.5879 56.5802 80.4334 56.7601 80.2531C56.9401 80.0471 56.8115 79.5322 56.5288 79.3777C56.3231 79.2747 56.1689 79.5322 56.1689 79.6866C56.1946 79.8411 56.1689 79.7897 56.0146 79.8927C55.8861 79.9956 55.7576 80.2274 56.0146 80.4076Z" fill="#0D90E0"/>
<path d="M58.4821 80.2532C58.4307 80.3304 58.4564 80.4335 58.4307 80.5107C58.5849 80.6137 58.7391 80.588 58.842 80.485C58.9191 80.3819 58.8677 80.3047 58.7906 80.2274C58.6877 80.1244 58.5335 80.1502 58.4821 80.2532Z" fill="#0D90E0"/>
<path d="M56.9911 78.5794C56.9654 78.6051 56.9139 78.7081 56.9654 78.7596C57.0168 78.8111 57.1453 78.7339 57.171 78.7081C57.1967 78.6824 57.1967 78.5794 57.171 78.5536C57.1196 78.5279 57.0425 78.5536 56.9911 78.5794Z" fill="#0D90E0"/>
<path d="M68.7904 74.2536C68.7133 74.2794 68.7133 74.4081 68.739 74.4596C68.739 74.4854 68.8161 74.5626 68.8675 74.5369C68.919 74.5111 68.9447 74.4339 68.9447 74.3566C68.9447 74.3309 68.8675 74.2279 68.7904 74.2536Z" fill="#0D90E0"/>
<path d="M62.1071 80.8712C62.0814 80.8969 62.0557 80.9484 62.0557 80.9999H62.5955C62.5955 80.9484 62.5698 80.9227 62.5441 80.8969C62.4156 80.7682 62.2099 80.7682 62.1071 80.8712Z" fill="#0D90E0"/>
<path d="M62.9551 80.9995H63.2635C63.1864 80.974 63.1093 80.9485 63.0579 80.9485C63.0322 80.9485 62.9808 80.974 62.9551 80.9995Z" fill="#0D90E0"/>
<path d="M61.4639 79.6868C61.3611 79.7898 61.3097 79.9185 61.4125 80.0473C61.4639 80.1245 61.5667 80.176 61.6439 80.176C61.7981 80.176 61.8752 80.073 61.9266 79.764C61.7724 79.6868 61.6439 79.558 61.4639 79.6868Z" fill="#0D90E0"/>
<path d="M64.2915 81.0001C64.2401 80.9228 64.1116 80.8713 64.0087 80.8971C63.9316 80.8971 63.8802 80.9486 63.8545 81.0001H64.2915Z" fill="#0D90E0"/>
<path d="M78.0702 80.8455C77.8646 80.7167 77.8389 80.5365 77.8389 80.382C77.7875 80.176 77.6075 80.0215 77.4533 80.0472C77.299 80.0472 77.0677 80.3305 77.0677 80.485C77.0677 80.6137 77.042 80.794 77.2219 80.8197C77.3504 80.8455 77.4276 80.897 77.5047 80.9742H78.1474C78.1474 80.9485 78.1217 80.897 78.0702 80.8455Z" fill="#0D90E0"/>
<path d="M77.4535 79.6609C77.5049 79.8154 77.7877 79.9442 77.9419 79.8927C78.0705 79.8412 78.1733 79.5322 78.1219 79.3777C78.0705 79.2232 77.9162 79.1717 77.762 79.2232C77.4792 79.3004 77.3764 79.4549 77.4535 79.6609Z" fill="#0D90E0"/>
<path d="M78.122 78.6569C78.0963 78.5539 77.9421 78.4509 77.8392 78.4767C77.7107 78.5024 77.685 78.6054 77.7621 78.8887C77.9678 78.9917 78.1477 78.7857 78.122 78.6569Z" fill="#0D90E0"/>
<path d="M65.8848 64.8033C73.6481 64.8033 80.2804 59.9366 82.9281 53.1386C80.9745 46.6495 75.9874 41.139 69.0467 38.8215C57.7102 35.0105 45.4225 41.139 41.6179 52.4948C41.2838 53.4733 41.0524 54.4518 40.8725 55.4303C34.78 54.4776 28.6876 58.0311 26.6825 64.0566C26.6054 64.3141 26.5283 64.5716 26.4512 64.8291C39.2273 64.8033 61.7975 64.8033 65.8848 64.8033Z" fill="#294492"/>
</g>
<defs>
<clipPath id="clip0">
<rect width="78" height="91" fill="white"/>
</clipPath>
</defs>
</svg>
