<svg width="270" height="93" viewBox="0 0 270 93" fill="none" xmlns="http://www.w3.org/2000/svg">
<g clip-path="url(#clip0)">
<path d="M267.197 -4.19617C267.197 -55.4401 225.578 -96.9814 174.239 -96.9814C122.899 -96.9814 81.2803 -55.4401 81.2803 -4.19617C81.2803 47.0477 122.899 88.5891 174.239 88.5891C225.578 88.5891 267.197 47.0477 267.197 -4.19617Z" fill="#7DE2D1"/>
<path fill-rule="evenodd" clip-rule="evenodd" d="M39.2387 22.8467V15.3866H31.7646V22.8467H39.2387Z" fill="#F990C6"/>
<path fill-rule="evenodd" clip-rule="evenodd" d="M57.9238 22.8467V15.3866H50.4497V22.8467H57.9238Z" fill="#F04E98"/>
<path fill-rule="evenodd" clip-rule="evenodd" d="M76.6091 22.8467V15.3866H69.135V22.8467H76.6091Z" fill="#F990C6"/>
<path fill-rule="evenodd" clip-rule="evenodd" d="M95.2941 22.8467V15.3866H87.8201V22.8467H95.2941Z" fill="#F04E98"/>
<path fill-rule="evenodd" clip-rule="evenodd" d="M113.979 22.8467V15.3866H106.505V22.8467H113.979Z" fill="#F04E98"/>
<path fill-rule="evenodd" clip-rule="evenodd" d="M20.5536 22.8467V15.3866H13.0796V22.8467H20.5536Z" fill="#F990C6"/>
<path fill-rule="evenodd" clip-rule="evenodd" d="M39.2387 41.4968V34.0367H31.7646V41.4968H39.2387Z" fill="#F04E98"/>
<path fill-rule="evenodd" clip-rule="evenodd" d="M57.9238 41.4968V34.0367H50.4497V41.4968H57.9238Z" fill="#F04E98"/>
<path fill-rule="evenodd" clip-rule="evenodd" d="M76.6091 41.4968V34.0367H69.135V41.4968H76.6091Z" fill="#F04E98"/>
<path fill-rule="evenodd" clip-rule="evenodd" d="M95.2941 41.4968V34.0367H87.8201V41.4968H95.2941Z" fill="#F990C6"/>
<path fill-rule="evenodd" clip-rule="evenodd" d="M113.979 41.4968V34.0367H106.505V41.4968H113.979Z" fill="#F04E98"/>
<path fill-rule="evenodd" clip-rule="evenodd" d="M132.664 41.4968V34.0367H125.19V41.4968H132.664Z" fill="#F990C6"/>
<path fill-rule="evenodd" clip-rule="evenodd" d="M57.9238 60.1472V52.6871H50.4497V60.1472H57.9238Z" fill="#F990C6"/>
<path fill-rule="evenodd" clip-rule="evenodd" d="M76.6088 60.1472V52.6871H69.1348V60.1472H76.6088Z" fill="#F04E98"/>
<path fill-rule="evenodd" clip-rule="evenodd" d="M95.2941 60.1472V52.6871H87.8201V60.1472H95.2941Z" fill="#F04E98"/>
<path fill-rule="evenodd" clip-rule="evenodd" d="M113.979 60.1472V52.6871H106.505V60.1472H113.979Z" fill="#F04E98"/>
<path fill-rule="evenodd" clip-rule="evenodd" d="M132.664 60.1472V52.6871H125.19V60.1472H132.664Z" fill="#F990C6"/>
<path fill-rule="evenodd" clip-rule="evenodd" d="M151.349 60.1472V52.6871H143.875V60.1472H151.349Z" fill="#F04E98"/>
</g>
<defs>
<clipPath id="clip0">
<rect width="93" height="270" fill="white" transform="translate(0 93) rotate(-90)"/>
</clipPath>
</defs>
</svg>
