<svg width="198" height="125" viewBox="0 0 198 125" fill="none" xmlns="http://www.w3.org/2000/svg">
<g clip-path="url(#clip0)">
<path d="M96 -23C60.101 -23 31 6.101 31 42C31 77.899 60.101 107 96 107C131.898 107 161 77.899 161 42C161 6.101 131.898 -23 96 -23Z" fill="#7DE2D1"/>
<path d="M140.512 14.1279C140.72 13.2959 139.888 12.1519 139.056 11.9439C138.12 11.7359 137.184 12.2559 137.08 12.9839V13.0879H136.976C136.352 13.1919 135.832 13.9199 135.936 14.4399C136.04 14.9599 136.872 15.3759 137.288 15.1679C137.392 15.1679 137.392 15.0639 137.496 15.0639C137.704 15.2719 137.912 15.4799 138.224 15.5839C139.056 15.7919 140.408 14.9599 140.512 14.1279Z" fill="#42D4C6"/>
<path d="M120.96 11.3201C120.336 11.5281 120.128 12.4641 120.44 13.2961C120.648 13.8161 121.064 13.9201 121.48 13.8161C122.208 13.6081 122.728 12.8801 122.52 12.3601C122.312 11.6321 121.376 11.1121 120.96 11.3201Z" fill="#42D4C6"/>
<path d="M155.384 29.2079C156.32 28.8959 157.568 27.9599 157.568 26.2959C157.568 25.2559 157.152 24.6319 156.528 24.2159C155.8 23.6959 154.968 24.4239 154.136 24.2159C153.928 24.2159 153.824 24.1119 153.72 24.1119C153.824 23.7999 153.928 23.4879 153.616 23.1759C153.304 22.7599 152.888 22.4479 152.472 22.7599C152.16 22.9679 151.744 23.3839 151.744 23.6959C151.744 24.1119 151.952 24.3199 152.16 24.4239C151.64 24.9439 151.432 25.7759 151.328 26.5039C151.328 27.0239 151.432 27.4399 151.744 27.8559C152.056 28.3759 152.68 28.5839 153.408 28.6879C154.24 28.8959 154.656 29.4159 155.384 29.2079Z" fill="#42D4C6"/>
<path d="M153.096 34.2C153.2 33.68 152.888 33.056 152.368 32.952C151.848 32.848 151.432 33.056 151.224 33.576C151.016 34.2 151.328 34.72 151.848 34.824C152.368 35.032 152.992 34.72 153.096 34.2Z" fill="#42D4C6"/>
<path d="M151.64 47.512C151.744 47.512 151.952 47.512 152.056 47.304C152.056 47.096 151.952 46.992 151.848 46.992C151.744 46.992 151.536 47.096 151.536 47.2C151.432 47.304 151.536 47.512 151.64 47.512Z" fill="#42D4C6"/>
<path d="M152.264 41.0641C152.368 40.4401 152.056 39.9201 151.432 39.8161C150.912 39.7121 150.288 40.2321 150.184 40.7521C150.08 41.2721 150.496 41.7921 151.016 41.8961C151.64 42.0001 152.056 41.6881 152.264 41.0641Z" fill="#42D4C6"/>
<path d="M153.72 31.0801C153.72 31.1841 153.824 31.6001 153.928 31.6001C154.136 31.6001 154.448 31.4961 154.552 31.3921C154.656 31.2881 154.656 30.7681 154.344 30.6641C153.928 30.4561 153.824 30.8721 153.72 31.0801Z" fill="#42D4C6"/>
<path d="M133.96 14.7521C134.064 13.9201 133.336 12.776 132.608 12.672H132.504C133.024 12.256 133.128 11.632 132.816 11.008C132.504 10.28 131.672 9.86406 131.152 10.0721C130.32 10.4881 129.8 11.6321 130.112 12.4641C130.32 12.9841 131.048 13.192 131.672 13.088C131.464 13.296 131.256 13.6081 131.256 13.9201C131.048 14.7521 131.464 15.3761 132.4 15.5841C133.128 15.6881 133.856 15.3761 133.96 14.7521Z" fill="#42D4C6"/>
<path d="M132.296 21.0959C132.088 21.1999 131.984 21.5119 131.984 21.7199C131.984 21.9279 132.4 22.3439 132.608 22.2399C132.816 22.1359 132.92 21.6159 132.816 21.4079C132.816 21.1999 132.504 20.9919 132.296 21.0959Z" fill="#42D4C6"/>
<path d="M137.704 35.344C137.6 35.864 137.808 36.28 138.328 36.28C138.64 36.28 138.952 36.072 139.264 35.968C139.368 35.344 138.952 34.824 138.432 34.72C137.912 34.616 137.808 34.928 137.704 35.344Z" fill="#42D4C6"/>
<path d="M130.632 18.8081C130.32 18.9121 130.424 19.4321 130.424 19.5361C130.424 19.6401 130.736 19.8481 130.944 19.7441C131.152 19.6401 131.152 19.3281 131.152 19.1201C131.256 19.1201 130.944 18.7041 130.632 18.8081Z" fill="#42D4C6"/>
<path d="M125.432 12.88C125.224 13.088 125.536 14.024 125.952 14.128C126.472 14.232 126.888 13.92 127.096 13.4C127.2 12.984 126.888 12.464 126.472 12.464C125.952 12.568 125.64 12.672 125.432 12.88Z" fill="#42D4C6"/>
<path d="M129.176 7.57605C129.176 7.47205 129.176 7.47205 129.176 7.57605C129.696 7.88805 130.424 7.99205 131.256 7.78405C132.192 7.47205 132.608 6.64004 132.4 5.70404C132.088 4.66404 130.84 3.93605 129.904 4.24805C129.8 4.24805 129.696 4.35205 129.592 4.35205C129.384 4.14405 129.072 3.93605 128.656 4.14405C127.304 4.97605 128.344 6.01606 128.032 6.43206C127.824 6.64006 127.304 6.84805 126.784 7.05605C126.472 6.32805 125.848 6.01605 125.016 6.32805C123.976 6.64005 123.56 7.47205 123.976 8.61605C124.184 9.34405 124.912 9.86404 125.64 9.76004C125.744 9.86404 125.848 9.96805 125.952 10.0721C126.888 10.9041 127.928 10.6961 128.656 9.96805C129.592 8.82405 128.344 7.99205 129.176 7.57605Z" fill="#42D4C6"/>
<path d="M149.976 10.2801C150.392 9.96806 150.6 9.44806 150.184 9.03206C149.768 8.61606 149.664 8.20007 149.56 7.57607C149.352 6.32807 148.312 5.70407 147.168 6.01607C146.856 6.01607 146.544 6.01607 146.544 6.01607C146.336 5.91207 146.232 5.80806 146.024 5.80806C146.648 5.39206 147.064 4.56007 146.856 3.93607C146.648 3.41607 145.608 3.00006 144.88 3.31206C144.152 3.52006 143.736 4.24806 144.048 4.87206C144.256 5.49606 144.88 5.91207 145.4 6.01607C145.296 6.01607 145.296 6.12006 145.192 6.12006C144.776 6.53606 144.984 6.95206 145.192 7.36806C145.4 7.78406 145.712 8.30406 145.92 8.72006C146.024 8.92806 146.232 9.13606 146.336 9.34406C146.024 9.55206 145.608 9.86406 145.712 10.1761C145.816 10.6961 146.648 10.6961 147.064 11.0081C147.168 10.9041 147.272 10.9041 147.376 10.8001C147.688 10.2801 147.584 10.0721 147.48 9.76006C147.584 9.86406 147.688 9.86406 147.792 9.96806C148.52 11.1121 148.936 11.1121 149.976 10.2801Z" fill="#42D4C6"/>
<path d="M124.6 5.28795C124.808 4.55995 124.496 3.83195 123.768 3.72795C122.936 3.51995 122 3.93595 121.792 4.55995C121.792 4.14395 120.96 3.62395 120.44 3.72795C120.024 3.72795 119.712 4.14396 119.816 4.66396C119.92 5.49596 120.336 6.01596 120.752 5.91196C121.064 5.91196 121.584 5.28795 121.688 4.87195C121.688 5.59995 122.208 6.32795 122.832 6.53595C123.456 6.74395 124.392 6.01595 124.6 5.28795Z" fill="#42D4C6"/>
<path d="M149.04 4.45605C148.312 3.52005 147.688 2.58406 146.96 1.64806C146.856 2.37606 146.96 2.89606 147.272 3.41606C147.584 3.93606 148.312 4.35205 149.04 4.45605Z" fill="#42D4C6"/>
<path d="M155.072 14.752C154.968 14.856 154.968 14.856 154.864 14.96C154.552 15.48 154.448 16.104 154.656 16.624C153.824 16.728 152.784 17.456 152.576 18.184C152.368 18.912 153.2 20.264 154.032 20.576C154.864 20.888 155.696 20.368 155.904 19.432C156.112 18.704 156.112 18.08 156.008 17.664C156.112 17.664 156.112 17.664 156.216 17.664C155.8 16.624 155.488 15.688 155.072 14.752Z" fill="#42D4C6"/>
<path d="M124.08 -0.0170288C123.664 -0.121029 123.248 0.190968 123.144 0.710968C123.04 1.23097 123.456 1.43897 123.768 1.54297C124.08 1.54297 124.912 1.54296 125.016 1.02296C125.016 0.502964 124.392 -0.0170288 124.08 -0.0170288Z" fill="#42D4C6"/>
<path d="M141.864 3.52011C142.488 2.79211 141.656 2.37611 141.552 1.85611C141.448 1.33611 140.928 0.712099 140.2 0.816099C139.472 0.920099 138.744 1.3361 138.432 1.2321C138.328 1.2321 138.328 1.23211 138.224 1.12811C138.328 0.920111 138.328 0.60811 138.224 0.29611C138.12 0.0881101 138.016 -0.223902 137.808 -0.431902C137.704 -0.847902 137.288 -1.2639 136.56 -1.4719C135.416 -1.8879 134.272 -0.95189 134.48 -0.11989C134.688 0.71211 135.208 0.816107 135.104 1.02411C135 1.33611 134.376 1.75211 134.584 2.27211C134.792 2.79211 136.456 2.89611 136.768 2.68811C137.08 2.48011 137.6 1.96011 137.912 2.37611C138.328 2.79211 138.432 3.5201 139.056 3.7281C139.888 3.8321 141.24 4.24811 141.864 3.52011Z" fill="#42D4C6"/>
<path d="M139.368 10.8C139.576 10.592 139.68 10.28 139.784 10.176C139.472 9.552 138.952 9.34401 138.64 9.55201C138.432 9.76001 138.224 10.176 138.224 10.384C138.224 10.8 139.056 11.112 139.368 10.8Z" fill="#42D4C6"/>
<path d="M139.576 6.01609C139.576 5.70409 139.68 5.08008 139.16 4.97608C138.744 4.87208 138.328 5.18409 138.016 5.49609C137.704 5.80809 138.12 6.32809 138.536 6.43209C139.16 6.74409 139.576 6.43209 139.576 6.01609Z" fill="#42D4C6"/>
<path d="M128.136 -0.223961C127.616 0.088039 127.408 0.608044 127.616 1.12804C127.824 1.64804 128.24 1.64804 128.76 1.54404C129.28 1.33604 129.592 0.712043 129.384 0.296043C129.176 -0.223957 128.656 -0.431961 128.136 -0.223961Z" fill="#42D4C6"/>
<path d="M123.56 -0.535945C123.976 -0.119945 124.392 0.400055 125.016 -0.119945C125.536 -0.535945 125.328 -1.15995 125.016 -1.57595C124.184 -1.67995 123.664 -1.47194 123.56 -0.535945Z" fill="#42D4C6"/>
<path d="M143.84 15.9999C144.048 16.5199 144.568 16.7279 144.984 16.6239C145.712 16.5199 145.712 15.7919 145.92 15.0639C145.504 14.7519 145.088 14.5439 144.776 14.4399C144.984 14.2319 145.192 14.0239 145.192 13.7119C145.4 12.8799 144.672 11.6319 143.84 11.4239C143.008 11.2159 142.072 11.7359 141.864 12.5679C141.552 13.8159 142.072 14.8559 143.008 15.0639C143.216 15.0639 143.528 15.0639 143.84 15.0639C143.736 15.3759 143.736 15.6879 143.84 15.9999Z" fill="#42D4C6"/>
<path d="M146.648 63.6321C146.648 63.4241 146.752 63.0081 146.44 62.9041C146.128 62.8001 145.816 63.1121 145.816 63.2161C145.816 63.4241 145.92 63.6321 146.024 63.8401C146.232 63.8401 146.648 63.7361 146.648 63.6321Z" fill="#42D4C6"/>
<path d="M96.5201 -0.536087C96.3121 -0.0160871 96.5201 0.19191 97.5601 0.60791C98.2881 0.29591 98.0801 -0.744087 97.6641 -0.952087C97.2481 -1.16009 96.6241 -0.848087 96.5201 -0.536087Z" fill="#42D4C6"/>
<path d="M89.0321 1.43998C88.8241 1.95998 89.2401 2.68797 90.0721 2.58397C90.8001 2.27197 90.5921 1.23198 90.1761 1.02398C89.7601 0.815976 89.1361 1.02398 89.0321 1.43998Z" fill="#42D4C6"/>
<path d="M111.184 10.1761C111.08 10.1761 110.664 10.3841 110.664 10.5921C110.664 10.8001 110.872 11.1121 110.976 11.1121C111.184 11.1121 111.6 11.1121 111.704 10.6961C111.808 10.2801 111.288 10.1761 111.184 10.1761Z" fill="#42D4C6"/>
<path d="M158.4 53.336C157.464 53.128 156.424 53.752 156.216 54.584C156.008 55.52 156.528 56.56 157.36 56.872C158.088 57.08 158.92 56.872 159.44 56.456C159.544 56.04 159.648 55.52 159.752 55.104C159.544 54.272 159.024 53.44 158.4 53.336Z" fill="#42D4C6"/>
<path d="M139.68 48.8631C140.2 49.0711 141.136 49.0711 141.24 48.0311C141.344 46.9911 140.304 46.159 139.472 45.951C138.536 45.743 137.08 46.991 137.184 48.135C137.184 48.551 137.496 48.7591 137.808 48.8631C137.912 49.0711 138.224 49.175 138.328 49.175C138.432 49.175 138.744 49.0711 138.848 48.8631C138.848 48.7591 138.848 48.759 138.744 48.655C139.264 48.343 139.16 48.5511 139.68 48.8631Z" fill="#42D4C6"/>
<path d="M149.976 53.44C149.144 53.232 148.52 53.752 148.312 54.688C148.104 55.624 148.52 56.352 149.456 56.456C150.288 56.664 151.12 56.04 151.328 55.104C151.432 54.584 150.808 53.648 149.976 53.44Z" fill="#42D4C6"/>
<path d="M144.984 26.9199C145.712 26.7119 146.024 26.1919 145.712 25.6719C146.336 25.2559 146.96 25.0479 147.376 24.6319C147.792 24.3199 147.896 23.3839 147.792 22.7599C148.104 23.0719 148.416 23.1759 148.936 23.2799C149.976 23.3839 150.496 23.2799 150.912 22.7599C151.224 22.6559 151.536 22.4479 151.64 22.1359C151.744 21.7199 151.536 21.3039 151.224 21.0959C151.016 20.4719 150.496 19.9519 149.56 19.7439C149.456 19.7439 149.352 19.7439 149.352 19.7439C149.872 19.5359 150.288 19.0159 150.496 18.5999C150.6 18.0799 150.08 17.3519 149.456 17.1439C148.624 16.9359 148 17.3519 147.688 18.2879C147.48 19.0159 147.792 19.8479 148.416 19.9519C148.52 19.9519 148.52 19.9519 148.624 19.9519C148.104 20.2639 147.688 20.6799 147.584 21.3039C147.584 21.5119 147.584 21.7199 147.584 21.9279C146.96 21.5119 145.712 21.4079 145.088 21.7199C144.464 22.1359 144.152 23.1759 144.568 24.0079C144.776 24.6319 145.088 25.0479 144.672 25.6719C144.048 26.1919 144.464 26.6079 144.984 26.9199Z" fill="#42D4C6"/>
<path d="M135.208 32.64C135.312 32.016 134.792 30.872 134.376 30.768C133.648 30.56 132.92 30.976 132.712 31.808C132.504 32.432 133.024 33.056 133.856 33.264C134.48 33.472 135.104 33.264 135.208 32.64Z" fill="#42D4C6"/>
<path d="M133.96 47.304C133.856 47.304 133.544 47.408 133.44 47.616C133.44 47.824 133.648 48.032 133.856 48.136C133.96 48.24 134.376 48.1361 134.48 47.8241C134.584 47.5121 134.064 47.304 133.96 47.304Z" fill="#42D4C6"/>
<path d="M136.56 27.2311C136.456 27.3351 136.456 27.4391 136.352 27.5431C136.248 27.9591 136.768 28.4791 137.392 28.5831C138.12 28.6871 138.744 28.3751 138.848 27.7511C138.952 27.2311 138.536 26.7111 138.016 26.6071C138.12 26.3991 138.224 26.0871 138.328 25.6711C138.328 25.1511 138.328 24.7351 138.744 24.3191C139.264 23.6951 139.056 22.9671 138.952 22.2391C138.848 21.6151 138.016 21.0951 137.288 21.0951C137.184 21.0951 137.184 21.0951 137.08 21.0951C137.496 20.8871 137.808 20.4711 137.808 20.0551C137.912 19.4311 137.392 18.9111 136.56 18.5991C135.936 18.3911 135 18.8071 134.896 19.3271C134.688 20.0551 135.312 21.0951 135.936 21.3031C136.04 21.3031 136.144 21.3031 136.248 21.3031C136.04 21.5111 135.832 21.7191 135.728 22.0311C135.416 22.7591 135.52 23.4871 135.624 24.2151C135.728 24.4231 135.728 24.8391 135.624 25.0471C135.208 26.2951 135.52 26.9191 136.56 27.2311Z" fill="#42D4C6"/>
<path d="M150.288 75.384C149.872 75.28 149.248 75.488 149.144 76.008C148.936 76.528 149.248 77.152 149.664 77.152C150.184 77.256 150.6 77.048 150.808 76.528C151.12 76.112 150.808 75.488 150.288 75.384Z" fill="#42D4C6"/>
<path d="M158.608 48.344C158.088 48.968 158.192 49.488 159.44 50.632C159.024 51.152 158.504 51.672 159.232 52.296C159.544 52.608 159.856 52.712 160.168 52.608C160.376 51.048 160.584 49.488 160.792 47.824C160.064 47.616 159.024 47.824 158.608 48.344Z" fill="#42D4C6"/>
<path d="M153.824 12.36C153.304 11.424 152.888 10.488 152.368 9.55204C152.264 9.65604 152.056 9.86405 151.952 10.384C151.64 11.528 152.784 12.776 153.824 12.36Z" fill="#42D4C6"/>
<path d="M147.688 36.1759C148.624 36.2799 149.56 35.7599 149.768 34.9279C149.976 34.0959 149.768 33.3679 149.248 32.9519C149.664 32.8479 149.976 32.6399 150.288 32.2239C151.016 31.0799 150.808 30.0399 150.184 29.5199C149.768 29.2079 148.832 29.2079 148.208 29.4159C148.208 28.8959 148 28.5839 147.48 28.3759C146.96 28.2719 146.44 28.5839 146.336 29.2079C146.232 29.7279 146.544 30.3519 147.064 30.4559C147.168 30.4559 147.168 30.4559 147.272 30.4559C147.064 31.2879 147.376 31.9119 147.896 32.3279L148 32.4319C147.376 32.5359 146.96 33.0559 146.752 33.8879C146.648 34.1999 146.648 34.5119 146.648 34.7199C146.44 34.6159 146.232 34.6159 145.92 34.7199C145.504 34.8239 145.296 35.2399 145.296 35.6559C145.192 35.4479 145.088 35.1359 144.984 35.1359C144.672 35.0319 144.152 35.6559 143.944 35.8639C143.736 36.2799 143.944 36.6959 144.464 36.7999C144.984 37.0079 145.296 36.6959 145.296 36.2799C145.296 36.2799 145.296 36.3839 145.4 36.3839C145.712 36.9039 146.44 37.3199 147.064 37.2159C147.48 37.2159 147.688 36.3839 147.688 36.1759Z" fill="#42D4C6"/>
<path d="M146.44 50.8401C146.44 50.7361 146.44 50.4241 146.232 50.3201C146.024 50.3201 145.712 50.4241 145.608 50.5281C145.504 50.6321 145.608 51.1521 145.816 51.2561C146.024 51.4641 146.336 51.0481 146.44 50.8401Z" fill="#42D4C6"/>
<path d="M114.928 17.352C115.344 17.248 115.552 16.832 115.448 16.416C115.344 15.896 114.928 15.688 114.512 15.792C113.992 15.896 113.68 16.52 113.888 16.936C114.096 17.456 114.512 17.56 114.928 17.352Z" fill="#42D4C6"/>
<path d="M122.312 31.4961C123.144 31.6001 124.08 31.0801 124.288 30.2481C124.6 29.2081 123.976 28.1681 122.936 27.9601C122 27.7521 121.272 28.1681 121.064 29.0001C120.752 29.9361 121.48 31.2881 122.312 31.4961Z" fill="#42D4C6"/>
<path d="M118.256 34.6149C118.568 34.5109 118.672 33.8869 118.568 33.6789C118.464 33.4709 118.048 33.3669 117.84 33.3669C117.632 33.4709 117.424 33.8869 117.528 34.0949C117.528 34.3029 117.944 34.7189 118.256 34.6149Z" fill="#42D4C6"/>
<path d="M118.048 11.2149C117.84 11.2149 117.424 11.2149 117.32 11.5269C117.216 11.9429 117.528 12.1509 117.736 12.2549C117.944 12.3589 118.568 12.4629 118.672 11.9429C118.776 11.4229 118.256 11.3189 118.048 11.2149Z" fill="#42D4C6"/>
<path d="M123.56 42.415C124.392 42.623 125.952 41.687 126.16 40.855C126.368 40.023 125.64 38.879 124.6 38.671C123.664 38.463 122.52 39.191 122.312 40.023C122.104 41.167 122.728 42.311 123.56 42.415Z" fill="#42D4C6"/>
<path d="M119.816 21.824C119.92 21.824 120.024 21.6159 120.128 21.5119C120.128 21.6159 120.232 21.6159 120.232 21.6159C120.752 21.9279 121.896 21.0959 121.792 20.6799C121.688 20.2639 120.648 19.952 120.128 20.264C119.816 19.848 118.984 19.8479 118.672 20.3679C118.568 20.6799 118.984 21.1999 119.192 21.6159C119.296 21.7199 119.4 21.928 119.816 21.824Z" fill="#42D4C6"/>
<path d="M101.408 12.776C102.24 12.672 102.448 12.36 102.552 11.32C103.072 10.904 103.592 10.488 104.008 10.072C104.424 9.65599 104.112 8.92798 103.488 8.92798C102.76 9.03198 102.032 8.82398 101.408 9.44798C101.408 9.75998 101.408 10.072 101.304 10.488C100.472 11.008 100.056 11.736 100.264 12.256C100.576 12.672 100.992 12.88 101.408 12.776Z" fill="#42D4C6"/>
<path d="M131.672 25.0479C132.4 24.8399 132.504 23.7999 132.192 23.2799C131.88 22.7599 130.944 22.7599 130.528 23.4879C130.32 23.7999 130.424 24.4239 130.632 24.6319C130.736 25.0479 131.36 25.1519 131.672 25.0479Z" fill="#42D4C6"/>
<path d="M129.488 32.0161C130.008 32.2241 130.528 32.0161 130.736 31.6001C130.84 31.3921 130.84 30.8721 130.736 30.6641C130.424 30.1441 130.008 30.144 128.968 30.56C128.864 30.976 128.656 31.7041 129.488 32.0161Z" fill="#42D4C6"/>
<path d="M157.464 20.9919C157.36 20.5759 157.256 20.2639 157.048 19.8479C157.048 20.3679 157.256 20.6799 157.464 20.9919Z" fill="#42D4C6"/>
<path d="M107.232 5.80802C107.752 6.01602 108.168 6.53603 108.688 6.32803C109.104 6.22403 109.208 6.01602 109.312 5.70402C109.416 5.49602 109.624 5.28803 109.624 4.76803C109.624 4.35203 109.312 3.52003 108.792 3.10403C108.168 2.79203 107.648 2.79203 107.128 3.10403C106.608 3.41603 106.504 3.93603 106.504 4.35203C106.608 4.87203 106.816 5.49602 107.232 5.80802Z" fill="#42D4C6"/>
<path d="M131.984 27.9601C132.504 28.0641 133.024 27.752 133.232 27.232C133.336 26.608 133.128 26.088 132.608 25.984C132.088 25.88 131.464 26.088 131.36 26.608C131.152 27.128 131.464 27.7521 131.984 27.9601Z" fill="#42D4C6"/>
<path d="M117.112 14.751C117.216 14.751 117.424 14.751 117.528 14.647C118.048 14.439 118.256 13.815 118.048 13.295C117.84 12.775 117.216 12.463 116.8 12.567C116.488 12.671 116.072 13.191 115.968 13.607C115.76 13.711 115.552 13.815 115.552 14.023C115.344 14.751 115.448 15.271 116.28 15.375C116.696 15.375 117.008 15.063 117.112 14.751Z" fill="#42D4C6"/>
<path d="M104.736 16.5201C105.36 16.3121 105.88 15.5841 105.568 15.1681C105.36 14.7521 103.696 14.7521 103.384 15.2721C103.072 15.6881 104.112 16.6241 104.736 16.5201Z" fill="#42D4C6"/>
<path d="M106.192 13.6079C106.504 13.5039 106.504 13.1919 106.4 13.0879C106.296 12.8799 106.088 12.5679 105.776 12.6719C105.464 12.7759 105.568 13.2959 105.568 13.3999C105.672 13.5039 105.88 13.7119 106.192 13.6079Z" fill="#42D4C6"/>
<path d="M115.136 23.8C115.344 23.8 115.76 23.592 115.968 23.384C116.176 22.968 115.864 22.552 115.552 22.448C115.24 22.448 114.512 22.448 114.408 22.968C114.2 23.592 114.928 23.8 115.136 23.8Z" fill="#42D4C6"/>
<path d="M112.952 1.23196C113.16 1.02396 113.16 0.711969 112.952 0.607969C112.848 0.399969 112.328 0.399965 112.12 0.503965C111.912 0.607965 112.016 1.02396 112.224 1.23196C112.432 1.33596 112.848 1.43996 112.952 1.23196Z" fill="#42D4C6"/>
<path d="M114.408 12.6721C115.136 12.3601 115.344 11.8401 115.032 10.9041C114.72 10.1761 114.096 9.96808 113.264 10.3841C112.64 10.5921 112.328 11.1121 112.536 11.6321C112.64 12.1521 113.888 12.8801 114.408 12.6721Z" fill="#42D4C6"/>
<path d="M126.472 23.488C126.576 23.072 125.744 22.552 125.016 22.656C124.288 22.76 124.288 23.8 124.496 24.216C124.704 24.528 126.368 23.904 126.472 23.488Z" fill="#42D4C6"/>
<path d="M157.568 49.072C157.776 48.448 157.048 47.72 156.32 47.616C155.488 47.512 154.864 47.928 154.656 48.76C154.448 49.592 154.864 50.32 155.488 50.424C156.32 50.528 157.36 49.904 157.568 49.072Z" fill="#42D4C6"/>
<path d="M155.072 51.672C155.28 51.048 154.76 50.112 154.136 49.8C153.616 49.592 152.888 49.904 152.784 50.528C152.576 51.152 152.992 51.984 153.72 52.192C154.344 52.4 154.864 52.192 155.072 51.672Z" fill="#42D4C6"/>
<path d="M157.984 59.16C157.776 59.16 157.36 59.472 157.256 59.784C157.152 60.096 157.256 60.512 157.672 60.512C157.776 60.512 157.984 60.512 158.192 60.408C158.296 60.096 158.4 59.784 158.504 59.472C158.4 59.368 158.088 59.16 157.984 59.16Z" fill="#42D4C6"/>
<path d="M152.16 68.7279C152.68 68.8319 153.304 68.5199 153.512 68.1039C153.616 67.6879 153.304 67.0639 152.888 66.9599C152.472 66.8559 151.744 67.1679 151.536 67.5839C151.432 67.9999 151.744 68.6239 152.16 68.7279Z" fill="#42D4C6"/>
<path d="M96.728 4.56002C96.936 4.45602 97.352 4.24801 97.248 4.04001C97.144 3.72801 96.728 3.72802 96.624 3.83202C96.416 3.93602 96.104 4.04002 96.208 4.35202C96.312 4.66402 96.624 4.56002 96.728 4.56002Z" fill="#42D4C6"/>
<path d="M142.696 61.5519C143.112 61.2399 143.216 60.7199 142.904 60.1999C142.696 59.7839 142.384 59.5759 141.968 59.6799C141.24 59.8879 141.136 60.4079 141.032 61.1359C141.656 61.5519 142.072 62.0719 142.696 61.5519Z" fill="#42D4C6"/>
<path d="M141.968 21.304C142.488 21.408 143.216 20.992 143.216 20.472C143.32 19.952 142.8 19.328 142.28 19.224C141.76 19.12 141.136 19.536 141.032 19.952C141.032 20.576 141.344 21.2 141.968 21.304Z" fill="#42D4C6"/>
<path d="M132.4 40.1279C132.608 40.1279 132.92 40.0239 133.024 39.8159C133.128 39.6079 132.816 39.2959 132.712 39.1919C132.504 39.0879 131.984 39.1919 131.88 39.3999C131.88 39.7119 132.296 40.1279 132.4 40.1279Z" fill="#42D4C6"/>
<path d="M142.384 31.0789C143.112 31.1829 144.152 30.4549 144.36 29.6229C144.568 28.9989 144.152 28.3749 143.32 28.1669C142.384 27.9589 141.76 28.2709 141.552 29.3109C141.448 30.1429 141.76 30.9749 142.384 31.0789Z" fill="#42D4C6"/>
<path d="M136.456 40.4399C136.768 40.4399 137.08 40.2319 137.392 40.1279C137.496 39.5039 137.08 38.9839 136.56 38.8799C136.04 38.7759 135.936 39.0879 135.832 39.5039C135.728 40.0239 136.04 40.4399 136.456 40.4399Z" fill="#42D4C6"/>
<path d="M142.488 44.288C143.008 44.496 143.528 44.288 143.84 43.664C144.048 43.352 144.152 42.936 144.464 42.728C144.984 42.312 145.296 41.792 145.192 41.168C145.088 40.648 143.84 40.128 143.32 40.232C142.8 40.336 142.176 40.44 142.176 41.272C142.176 41.896 142.072 42.416 142.072 43.04C141.656 43.56 141.968 44.08 142.488 44.288Z" fill="#42D4C6"/>
<path d="M151.952 63.2159C152.368 63.3199 152.784 63.1119 152.784 62.6959C152.784 62.2799 152.68 61.4479 152.264 61.3439C151.848 61.2399 151.328 61.9679 151.224 62.2799C151.12 62.6959 151.536 63.2159 151.952 63.2159Z" fill="#42D4C6"/>
<path d="M144.672 45.2241C144.88 45.3281 145.4 45.2241 145.504 45.0161C145.608 44.8081 145.192 44.3921 144.984 44.3921C144.776 44.3921 144.464 44.3921 144.36 44.7041C144.256 44.8081 144.568 45.1201 144.672 45.2241Z" fill="#42D4C6"/>
<path d="M148.936 44.8081C149.144 44.3921 148.832 43.6641 148.416 43.6641C148.104 43.6641 147.168 43.7681 147.064 44.1841C146.96 44.7041 147.584 45.0161 147.896 45.1201C148.208 45.3281 148.728 45.2241 148.936 44.8081Z" fill="#42D4C6"/>
<path d="M146.44 72.8869C147.168 72.9909 147.168 72.2629 147.376 72.0549C148.104 71.4309 148.104 70.0789 147.48 69.6629C146.856 69.2469 146.336 69.3509 145.712 69.7669C145.088 70.1829 145.088 70.7029 145.296 71.3269C145.504 71.7429 145.712 72.8869 146.44 72.8869Z" fill="#42D4C6"/>
<path d="M128.656 20.2639C129.384 20.2639 130.216 19.4319 130.424 18.7039C130.528 18.2879 130.424 17.8719 130.008 17.6639C128.968 17.2479 127.824 17.0399 126.68 17.3519C126.472 17.4559 126.264 17.5599 126.264 17.6639C125.432 18.4959 125.64 19.5359 126.68 19.9519C127.2 20.1599 127.928 20.2639 128.656 20.2639Z" fill="#42D4C6"/>
<path d="M120.856 -0.0158859C121.584 -0.431886 121.896 -0.951876 121.688 -1.36788C121.48 -1.78388 120.44 -1.99188 120.024 -1.78388C119.712 -1.57588 119.504 -0.639878 119.712 -0.223878C119.92 0.192122 120.44 0.296114 120.856 -0.0158859Z" fill="#42D4C6"/>
<path d="M113.056 6.84691C113.368 7.47091 114.408 7.67891 115.24 7.36691C115.968 7.05491 116.176 6.4309 115.76 5.4949C115.552 4.9749 114.72 4.66291 114.2 4.76691C113.576 5.07891 112.848 6.43091 113.056 6.84691Z" fill="#42D4C6"/>
<path d="M119.712 4.04005C119.608 4.14405 119.4 4.14406 119.4 4.24806L119.504 4.56006C119.608 4.56006 119.816 4.56005 119.92 4.45605C119.92 4.24805 119.816 4.14405 119.712 4.04005Z" fill="#42D4C6"/>
<path d="M116.384 3.62396C116.696 3.51996 116.904 3.41596 117.112 3.20796C117.424 3.72796 117.528 3.72796 118.048 3.83196C118.464 3.93596 118.776 3.72796 118.88 3.72796C118.776 3.31196 118.984 2.37596 118.464 2.16796C118.152 2.06396 117.84 2.27196 117.632 2.47996C117.632 2.27196 117.632 2.16797 117.632 1.95997C117.424 1.43997 116.28 1.02396 115.656 1.33596C115.24 1.54396 114.928 2.68797 115.136 3.10397C115.24 3.51997 115.864 3.83196 116.384 3.62396Z" fill="#42D4C6"/>
<path d="M117.216 10.2799C117.736 10.1759 118.152 10.2799 118.568 10.4879C118.776 10.5919 119.296 10.2799 119.4 9.9679C119.504 9.7599 119.504 9.23989 119.4 9.03189C119.296 8.82389 118.88 8.7199 118.568 8.8239C118.048 8.9279 117.528 9.1359 117.112 9.2399C116.696 9.3439 116.592 9.65589 116.8 10.1759C116.904 10.1759 117.112 10.2799 117.216 10.2799Z" fill="#42D4C6"/>
<path d="M150.808 13.816C151.12 13.296 150.704 12.568 149.976 12.464C149.664 12.464 149.248 12.984 149.352 13.504C149.456 14.024 150.496 14.336 150.808 13.816Z" fill="#42D4C6"/>
<path d="M143.528 -0.120071C143.528 0.295929 143.736 0.711918 144.152 0.815918C144.464 0.815918 144.984 0.815925 145.192 0.607925C145.296 0.711925 145.504 0.711918 145.608 0.815918C145.816 0.815918 146.024 0.919922 146.128 0.919922C144.88 -0.640078 143.528 -2.09608 142.072 -3.55208C141.656 -3.65608 141.136 -3.55207 140.824 -3.34407C140.72 -3.86407 140.2 -4.28008 139.576 -4.38408C138.64 -4.59208 138.12 -4.17608 137.912 -3.13608C137.704 -2.30408 138.12 -1.47207 138.744 -1.36807C139.264 -1.26407 139.888 -1.57608 140.408 -1.99208C140.616 -1.16008 141.24 -0.95208 141.24 -0.74408C141.24 -0.53608 140.72 0.399929 141.448 0.711929C142.696 1.12793 143.112 0.191929 143.528 -0.120071Z" fill="#42D4C6"/>
<path d="M161 42.3121C160.792 42.5201 160.688 42.8321 160.688 43.2481C160.688 43.7681 160.792 44.3921 160.896 44.9121C161 44.0801 161 43.1441 161 42.3121Z" fill="#42D4C6"/>
<path d="M160.896 39.816C160.376 40.024 160.272 40.544 160.168 41.272C160.48 41.376 160.688 41.584 160.896 41.688C161 41.064 161 40.44 160.896 39.816Z" fill="#42D4C6"/>
<path d="M151.536 17.1441C152.056 17.2481 152.576 16.9361 152.68 16.3121C152.784 15.7921 152.576 15.2721 152.056 15.1681C151.536 15.0641 150.808 15.5841 150.808 16.1041C150.704 16.5201 151.016 17.0401 151.536 17.1441Z" fill="#42D4C6"/>
<path d="M157.256 35.8641C157.88 35.6561 158.192 35.344 158.4 34.928C158.504 34.928 158.608 35.0321 158.608 35.0321C159.44 35.2401 159.96 34.9281 160.376 34.3041C160.168 32.5361 159.856 30.8721 159.544 29.1041C159.44 29.0001 159.232 29.0001 159.024 29.0001C158.504 29.1041 158.192 29.728 158.192 30.456C157.568 30.664 156.944 31.1841 156.736 31.8081C156.632 32.1201 156.736 32.4321 156.84 32.8481C156.736 32.8481 156.632 32.8481 156.528 32.8481C155.8 32.8481 154.864 33.8881 154.968 34.6161C155.176 35.2401 156.32 36.1761 157.256 35.8641Z" fill="#42D4C6"/>
<path d="M141.76 10.072C142.696 10.28 143.944 9.65598 144.048 8.71998C144.256 7.67998 143.632 6.53598 142.696 6.32798C142.488 6.32798 142.384 6.22397 142.176 6.22397C142.176 6.11997 142.072 6.01598 142.072 5.91198C141.864 5.59998 141.448 4.97598 141.032 5.18398C140.616 5.39198 140.616 6.22397 140.72 6.53597C140.72 6.63997 140.824 6.74398 141.032 6.84798C140.928 7.05598 140.72 7.36797 140.72 7.67997C140.304 9.03197 140.72 9.86398 141.76 10.072Z" fill="#42D4C6"/>
<path d="M156.424 39.816C156.632 39.088 156.112 38.464 155.176 38.36C154.656 38.256 153.824 38.776 153.72 39.296C153.616 39.92 154.24 41.272 154.76 41.376C155.488 41.376 156.216 40.648 156.424 39.816Z" fill="#42D4C6"/>
<path d="M153.72 45.12C153.824 45.12 153.824 45.224 153.928 45.224C154.448 45.328 155.072 44.912 155.176 44.496C155.28 43.976 154.864 43.352 154.344 43.144C153.824 43.04 153.408 43.352 153.304 43.768C153.304 43.768 153.2 43.768 153.2 43.664C152.68 43.56 152.056 43.872 151.848 44.288C151.64 44.808 152.056 45.328 152.576 45.536C152.992 45.848 153.512 45.64 153.72 45.12Z" fill="#42D4C6"/>
<path d="M151.432 54.064C151.848 54.168 152.264 53.232 152.264 53.128C152.16 52.712 152.056 52.088 151.536 51.984C151.016 51.88 150.808 52.4 150.808 52.608C150.912 52.92 151.12 53.96 151.432 54.064Z" fill="#42D4C6"/>
<path d="M156.944 36.8001C156.736 36.5921 156.32 36.5921 156.216 36.6961C156.008 36.9041 155.696 37.3201 155.696 37.6321C155.8 38.2561 156.32 38.2561 156.84 38.2561C157.256 37.7361 157.36 37.2161 156.944 36.8001Z" fill="#42D4C6"/>
<path d="M150.184 43.6641C150.6 43.6641 151.016 43.6641 151.12 43.1441C151.12 42.8321 151.016 41.8961 150.6 41.7921C150.184 41.6881 149.768 42.5201 149.664 42.8321C149.456 43.2481 149.664 43.5601 150.184 43.6641Z" fill="#42D4C6"/>
<path d="M157.672 42.1039C157.984 42.1039 158.296 41.7919 158.4 41.4799C158.4 41.3759 158.4 41.0639 158.296 40.8559C158.4 40.9599 158.608 40.9599 158.712 40.9599C159.232 40.8559 159.544 39.6079 159.128 39.3999C158.712 39.1919 157.672 39.6079 157.776 40.2319C157.776 40.3359 157.88 40.4399 157.88 40.5439C157.568 40.5439 157.048 41.1679 157.048 41.2719C157.152 41.5839 157.464 42.2079 157.672 42.1039Z" fill="#42D4C6"/>
<path d="M141.968 18.912C143.008 19.12 143.736 18.912 143.944 18.288C144.048 18.288 144.048 18.288 144.152 18.288C144.672 18.08 144.88 17.664 144.776 17.144C144.568 16.52 143.736 16 143.32 16.208C143.216 16.208 143.112 16.416 143.008 16.624C142.488 16.52 141.552 17.248 141.344 17.872C141.136 18.392 141.448 18.808 141.968 18.912Z" fill="#42D4C6"/>
<path d="M135.624 9.03208C136.144 9.13608 136.768 8.51207 136.976 7.78407C137.08 7.47207 137.08 7.26408 136.976 7.05608H137.08C137.704 6.84808 138.12 5.70408 137.912 5.08008C137.704 4.56008 136.664 4.14407 136.04 4.45607C135.624 4.66407 135.208 5.39208 135.416 5.80808C135.52 5.91208 135.52 6.12008 135.624 6.22408C135.104 6.32808 134.688 6.64008 134.48 7.05608C134.168 7.68008 134.792 8.82408 135.624 9.03208Z" fill="#42D4C6"/>
<path d="M134.168 1.232C133.96 0.815999 133.44 0.60801 132.92 0.71201C132.712 0.81601 132.504 0.92001 132.4 1.12801C132.4 1.12801 132.4 1.12801 132.4 1.02401C132.816 -0.015994 131.88 -0.639992 131.36 -0.951992C130.84 -1.26399 129.904 -0.431998 129.8 0.504002C129.8 1.128 130.112 1.44001 130.528 1.54401C131.152 1.75201 131.984 1.54401 132.192 1.12801C132.088 1.33601 132.088 1.544 132.192 1.752C132.4 2.272 132.92 2.58401 133.44 2.37601C134.064 2.27201 134.376 1.648 134.168 1.232Z" fill="#42D4C6"/>
<path d="M124.496 19.5361C124.704 19.3281 124.496 18.9121 124.392 18.8081C124.288 18.7041 123.872 18.6001 123.664 18.7041C123.456 18.8081 123.56 19.2241 123.664 19.4321C123.768 19.4321 124.288 19.6401 124.496 19.5361Z" fill="#42D4C6"/>
<path d="M101.928 2.064C102.032 2.792 102.344 3.104 103.072 3.104C103.904 3.104 104.528 2.376 104.528 1.44C104.528 0.504002 104.008 0.504005 104.008 -0.119995C104.008 -0.639995 103.696 -0.848 103.176 -1.056C102.656 -1.264 101.72 -1.472 101.512 -0.639999C101.304 0.192001 101.824 0.399994 102.032 0.399994C102.24 0.399994 102.552 0.815998 102.344 0.919998C102.136 1.024 101.824 1.336 101.928 2.064Z" fill="#42D4C6"/>
<path d="M124.184 14.2321C124.184 13.8161 123.976 13.4001 123.664 13.1921C123.352 12.9841 122.624 13.4001 122.624 13.9201C122.624 14.2321 122.832 14.5441 122.936 14.7521C123.664 14.8561 124.288 14.6481 124.184 14.2321Z" fill="#42D4C6"/>
<path d="M136.768 11.2161C136.976 11.0081 137.6 10.5921 137.392 10.0721C137.08 9.5521 136.352 9.65609 136.04 9.76009C135.624 9.86409 135.624 10.3841 135.728 10.6961C135.832 11.2161 136.456 11.5281 136.768 11.2161Z" fill="#42D4C6"/>
<path d="M144.36 34.2C144.568 33.576 144.152 32.952 143.632 32.848C143.112 32.744 142.592 33.16 142.488 33.68C142.384 34.2 142.592 34.72 143.112 34.824C143.736 35.032 144.256 34.72 144.36 34.2Z" fill="#42D4C6"/>
<path d="M177 98C172.029 98 168 102.029 168 107C168 111.971 172.029 116 177 116C181.971 116 186 111.971 186 107C186 102.029 181.971 98 177 98Z" fill="#0077CC"/>
</g>
<defs>
<clipPath id="clip0">
<rect width="198" height="125" fill="white" transform="translate(198 125) rotate(-180)"/>
</clipPath>
</defs>
</svg>
