<svg width="108" height="109" viewBox="0 0 108 109" fill="none" xmlns="http://www.w3.org/2000/svg">
<path d="M54 108.164C83.8234 108.164 108 83.9874 108 54.1641C108 24.3407 83.8234 0.164062 54 0.164062C24.1766 0.164062 0 24.3407 0 54.1641C0 83.9874 24.1766 108.164 54 108.164Z" fill="#F990C6"/>
<path d="M17.021 77.3192C16.8482 78.0104 17.5394 78.9608 18.2306 79.1336C19.0082 79.3064 19.7858 78.8744 19.8722 78.2696V78.1832H19.9586C20.477 78.0968 20.909 77.492 20.8226 77.06C20.7362 76.628 20.045 76.2824 19.6994 76.4552C19.613 76.4552 19.613 76.5416 19.5266 76.5416C19.3538 76.3688 19.181 76.196 18.9218 76.1096C18.2306 75.9368 17.1074 76.628 17.021 77.3192Z" fill="#F368AB"/>
<path d="M42.2496 95.1177C41.2992 95.2905 41.04 96.0681 41.04 96.6729C41.04 97.2777 41.5584 98.3145 42.6816 98.1417C43.8048 97.8825 44.3232 97.1913 44.2368 96.5001C44.1504 95.8089 43.0272 95.0313 42.2496 95.1177Z" fill="#F368AB"/>
<path d="M33.2641 79.652C33.7825 79.4792 33.9553 78.7016 33.6961 78.0104C33.5233 77.5784 33.1777 77.492 32.8321 77.5784C32.2273 77.7512 31.7953 78.3561 31.9681 78.7881C32.1409 79.3929 32.9185 79.8248 33.2641 79.652Z" fill="#F368AB"/>
<path d="M4.66547 64.7913C3.88787 65.0505 2.85107 65.8281 2.85107 67.2105C2.85107 68.0745 3.19667 68.5929 3.71507 68.9385C4.31987 69.3705 5.01107 68.7657 5.70227 68.9385C5.87507 68.9385 5.96147 69.0248 6.04787 69.0248C5.96147 69.284 5.87507 69.5433 6.13427 69.8025C6.39347 70.1481 6.73907 70.4073 7.08467 70.1481C7.34387 69.9753 7.68947 69.6297 7.68947 69.3705C7.68947 69.0249 7.51667 68.8521 7.34387 68.7657C7.77588 68.3337 7.94868 67.6425 8.03508 67.0377C8.03508 66.6057 7.94867 66.2601 7.68947 65.9145C7.43027 65.4825 6.91187 65.3097 6.30707 65.2233C5.61587 65.0505 5.27027 64.6185 4.66547 64.7913Z" fill="#F368AB"/>
<path d="M39.4849 90.6249C39.2257 90.0201 38.7073 89.8473 38.0161 90.0201C37.3249 90.2793 37.1521 90.6248 37.4113 91.4024C37.6705 92.0936 38.1025 92.4393 38.6209 92.2665C38.6209 92.2665 38.7073 92.2664 38.7073 92.18C38.8801 92.4392 39.1393 92.6121 39.3985 92.6985C39.8305 92.7849 40.2625 92.5256 40.3489 92.0936C40.4353 91.6616 40.2625 91.2297 39.8305 91.1433C39.7441 91.1433 39.5713 91.1433 39.4849 91.1433C39.4849 90.8841 39.4849 90.7113 39.4849 90.6249Z" fill="#F368AB"/>
<path d="M6.56636 60.6441C6.47996 61.0761 6.73916 61.5945 7.17116 61.6809C7.60316 61.7673 7.94876 61.5945 8.12156 61.1625C8.29436 60.6441 8.03516 60.2121 7.60316 60.1257C7.17116 59.9529 6.65276 60.2121 6.56636 60.6441Z" fill="#F368AB"/>
<path d="M7.77578 49.5847C7.68938 49.5847 7.51658 49.5847 7.43018 49.7575C7.43018 49.9303 7.51658 50.0167 7.60298 50.0167C7.68938 50.0167 7.86218 49.9303 7.86218 49.8439C7.94858 49.7575 7.86218 49.5847 7.77578 49.5847Z" fill="#F368AB"/>
<path d="M7.25758 54.9417C7.17118 55.4601 7.43038 55.8921 7.94878 55.9785C8.38078 56.0649 8.89918 55.6329 8.98558 55.2009C9.07198 54.7689 8.72638 54.3369 8.29438 54.2505C7.77598 54.1641 7.43038 54.4233 7.25758 54.9417Z" fill="#F368AB"/>
<path d="M6.04805 63.236C6.04805 63.1496 5.96165 62.804 5.87525 62.804C5.70245 62.804 5.44325 62.8904 5.35685 62.9768C5.27045 63.0632 5.27045 63.4952 5.52965 63.5816C5.87525 63.7544 5.96165 63.4088 6.04805 63.236Z" fill="#F368AB"/>
<path d="M22.4638 76.8008C22.3774 77.492 22.9822 78.4424 23.587 78.5288H23.6734C23.2414 78.8744 23.155 79.3928 23.4142 79.9112C23.6734 80.516 24.3646 80.8616 24.7966 80.6888C25.4878 80.3432 25.9198 79.3928 25.6606 78.7016C25.4878 78.2696 24.883 78.0968 24.3646 78.1832C24.5374 78.0104 24.7102 77.7512 24.7102 77.492C24.883 76.8008 24.5374 76.2824 23.7598 76.1096C23.155 76.0232 22.5502 76.2824 22.4638 76.8008Z" fill="#F368AB"/>
<path d="M23.8463 71.5304C24.0191 71.444 24.1055 71.1848 24.1055 71.012C24.1055 70.8392 23.7599 70.4936 23.5871 70.58C23.4143 70.6664 23.3279 71.0984 23.4143 71.2712C23.4143 71.444 23.6735 71.6168 23.8463 71.5304Z" fill="#F368AB"/>
<path d="M19.3538 59.6936C19.4402 59.2616 19.2674 58.916 18.8354 58.916C18.5762 58.916 18.317 59.0888 18.0578 59.1752C17.9714 59.6936 18.317 60.1256 18.749 60.212C19.181 60.2984 19.2674 60.0392 19.3538 59.6936Z" fill="#F368AB"/>
<path d="M25.2287 73.4313C25.4879 73.3449 25.4015 72.9129 25.4015 72.8265C25.4015 72.7401 25.1423 72.5673 24.9695 72.6537C24.7967 72.7401 24.7967 72.9993 24.7967 73.1721C24.7103 73.1721 24.9695 73.5177 25.2287 73.4313Z" fill="#F368AB"/>
<path d="M29.5491 78.3561C29.7219 78.1833 29.4627 77.4057 29.1171 77.3193C28.6851 77.2329 28.3394 77.4921 28.1666 77.9241C28.0802 78.2697 28.3394 78.7017 28.6851 78.7017C29.1171 78.6153 29.3763 78.5289 29.5491 78.3561Z" fill="#F368AB"/>
<path d="M26.4383 82.7624C26.4383 82.8488 26.4383 82.8488 26.4383 82.7624C26.0063 82.5032 25.4015 82.4168 24.7103 82.5896C23.9327 82.8488 23.5871 83.54 23.7599 84.3176C24.0191 85.1816 25.0559 85.7864 25.8335 85.5272C25.9199 85.5272 26.0063 85.4408 26.0927 85.4408C26.2655 85.6136 26.5247 85.7864 26.8703 85.6136C27.9935 84.9224 27.1295 84.0584 27.3887 83.7128C27.5615 83.54 27.9935 83.3672 28.4255 83.1944C28.6847 83.7992 29.2031 84.0584 29.8943 83.7992C30.7583 83.54 31.1039 82.8488 30.7583 81.8984C30.5855 81.2936 29.9807 80.8616 29.3759 80.948C29.2895 80.8616 29.2031 80.7752 29.1167 80.6888C28.3391 79.9976 27.4751 80.1704 26.8703 80.7752C26.0927 81.7256 27.1295 82.4168 26.4383 82.7624Z" fill="#F368AB"/>
<path d="M9.15855 80.5159C8.81295 80.7751 8.64014 81.2071 8.98574 81.5527C9.33134 81.8983 9.41774 82.2439 9.50414 82.7623C9.67694 83.7991 10.5409 84.3175 11.4913 84.0583C11.7505 84.0583 12.0097 84.0583 12.0097 84.0583C12.1825 84.1447 12.2689 84.2311 12.4417 84.2311C11.9233 84.5767 11.5777 85.2679 11.7505 85.7863C11.9233 86.2183 12.7873 86.5639 13.3921 86.3047C13.9969 86.1319 14.3425 85.5271 14.0833 85.0087C13.9105 84.4903 13.3921 84.1447 12.9601 84.0583C13.0465 84.0583 13.0465 83.9719 13.1329 83.9719C13.4785 83.6263 13.3057 83.2807 13.1329 82.9351C12.9601 82.5895 12.7009 82.1575 12.5281 81.8119C12.4417 81.6391 12.2689 81.4663 12.1825 81.2935C12.4417 81.1207 12.7873 80.8615 12.7009 80.6023C12.6145 80.1703 11.9233 80.1703 11.5777 79.9111C11.4913 79.9975 11.4049 79.9975 11.3185 80.0839C11.0593 80.5159 11.1457 80.6887 11.2321 80.9479C11.1457 80.8615 11.0593 80.8615 10.9729 80.7751C10.3681 79.8247 10.0225 79.8247 9.15855 80.5159Z" fill="#F368AB"/>
<path d="M30.2401 84.6632C30.0673 85.268 30.3265 85.8728 30.9313 85.9592C31.6225 86.132 32.4001 85.7864 32.5729 85.268C32.5729 85.6136 33.2641 86.0456 33.6961 85.9592C34.0417 85.9592 34.3009 85.6136 34.2145 85.1816C34.1281 84.4904 33.7825 84.0584 33.4369 84.1448C33.1777 84.1448 32.7457 84.6632 32.6593 85.0088C32.6593 84.404 32.2273 83.7992 31.7089 83.6264C31.1905 83.4536 30.4129 84.0584 30.2401 84.6632Z" fill="#F368AB"/>
<path d="M43.5454 90.1065C43.5454 89.8473 43.3726 89.7609 43.1134 89.8473C42.8542 89.9337 42.7678 90.0201 42.8542 90.2793C42.9406 90.5385 43.027 90.6249 43.2862 90.5385C43.5454 90.5385 43.6318 90.3657 43.5454 90.1065Z" fill="#F368AB"/>
<path d="M31.1039 101.425C31.3631 102.116 32.2271 102.634 32.8319 102.462C33.5231 102.289 34.1279 100.906 33.8687 100.215C33.7823 99.956 33.5231 99.7832 33.2639 99.6104C33.4367 99.3512 33.4367 99.0056 33.3503 98.7464C33.1775 98.3144 32.6591 98.0552 32.3135 98.228C31.8815 98.4008 31.7087 99.0056 31.8815 99.4376C31.8815 99.524 31.9679 99.524 31.9679 99.6104C31.2767 99.956 30.8447 100.82 31.1039 101.425Z" fill="#F368AB"/>
<path d="M38.2751 96.2407C37.7567 95.1175 37.3247 95.1175 36.2015 95.4631C35.5104 95.6359 35.1647 96.5863 35.4239 97.2775C35.6831 97.9687 36.7199 98.2279 37.6703 97.8823C38.3615 97.6231 38.6207 96.9319 38.2751 96.2407Z" fill="#F368AB"/>
<path d="M38.7937 104.362C38.8801 103.498 38.4481 103.153 37.4113 102.98C37.1521 102.548 36.9793 102.116 36.6337 101.77C36.2881 101.425 35.6833 101.425 35.4241 101.684C35.3377 101.598 35.2513 101.425 35.0785 101.338C34.9921 101.252 34.6465 101.338 34.5601 101.598C34.4737 101.857 34.9057 102.03 34.9921 102.03C34.9921 102.03 34.9921 102.03 35.0785 102.03C34.7329 102.375 34.4737 102.807 34.1281 103.239C33.3505 103.153 33.2641 103.239 33.1777 103.93C34.7329 104.622 36.3745 105.14 38.0161 105.658C38.4481 105.486 38.7073 104.967 38.7937 104.362Z" fill="#F368AB"/>
<path d="M32.1408 92.5257C32.4864 92.6985 33.0048 92.2665 33.0048 91.9209C33.0048 91.6617 32.7456 91.4889 32.7456 91.3161C32.1408 91.2297 31.7088 91.4889 31.7952 91.8345C31.7952 92.0937 31.968 92.4393 32.1408 92.5257Z" fill="#F368AB"/>
<path d="M30.5856 95.9815C30.9312 96.9319 31.8816 97.3639 32.7456 97.0183C33.3504 96.7591 33.6096 96.3271 33.6096 95.7223C33.696 95.8087 33.7824 95.8951 33.9552 95.9815C34.3872 96.1543 34.992 95.8087 35.0784 95.3767C35.1648 95.1175 34.9056 94.7719 34.56 94.5127C34.56 94.2535 34.56 93.9943 34.4736 93.7351C34.2144 93.0439 33.1776 92.5255 32.5728 92.7847C32.3136 92.8711 32.1408 93.0439 31.968 93.2167C31.8816 93.1303 31.7952 93.0439 31.6224 93.0439C31.1904 93.0439 30.9312 93.5623 30.7584 93.8215C30.672 94.0807 30.8448 94.3399 31.104 94.4263C30.5856 94.7719 30.3264 95.4631 30.5856 95.9815Z" fill="#F368AB"/>
<path d="M9.93604 85.3545C10.5408 86.1321 11.0592 86.9097 11.664 87.6873C11.7504 87.0825 11.664 86.6505 11.4048 86.2185C11.1456 85.7865 10.5408 85.4409 9.93604 85.3545Z" fill="#F368AB"/>
<path d="M37.3249 101.252C37.1521 101.252 36.8929 101.338 36.8065 101.511C36.7201 101.684 36.9793 101.943 37.0657 102.03C37.2385 102.116 37.6705 102.03 37.7569 101.857C37.7569 101.598 37.4113 101.252 37.3249 101.252Z" fill="#F368AB"/>
<path d="M4.92501 76.8007C5.01141 76.7143 5.01141 76.7143 5.09781 76.6279C5.35701 76.1959 5.44341 75.6775 5.27061 75.2455C5.96181 75.1591 6.82581 74.5543 6.99861 73.9495C7.17141 73.3447 6.48021 72.2215 5.78901 71.9623C5.09781 71.7031 4.40661 72.1351 4.23381 72.9127C4.06101 73.5175 4.06101 74.0359 4.14741 74.3815C4.06101 74.3815 4.06101 74.3815 3.97461 74.3815C4.32021 75.2455 4.57941 76.0231 4.92501 76.8007Z" fill="#F368AB"/>
<path d="M28.3392 92.3528V92.4392C28.512 92.8712 28.8576 93.044 29.2896 92.9576C29.7216 92.7848 29.9808 92.3528 29.8944 91.9208C29.808 91.6616 29.5488 91.4888 29.2896 91.4024C29.2032 90.884 28.7712 90.2792 28.3392 90.1928C27.9072 90.1064 27.1296 90.6248 27.0432 91.1432C26.9568 91.5752 27.3024 92.0936 27.648 92.18C27.9072 92.3528 28.1664 92.4392 28.3392 92.3528Z" fill="#F368AB"/>
<path d="M30.6721 89.0697C31.0177 89.1561 31.3633 88.8969 31.4497 88.4649C31.5361 88.0329 31.1905 87.8601 30.9313 87.7737C30.6721 87.7737 29.9809 87.7737 29.8945 88.2057C29.8945 88.6377 30.4129 89.0697 30.6721 89.0697Z" fill="#F368AB"/>
<path d="M24.797 93.0441C25.0562 93.6489 26.1794 94.0809 26.8706 93.8217C27.3026 93.6489 27.4754 92.9577 27.2162 92.2665C26.8706 91.4889 26.4386 91.3161 25.5746 91.6617C25.0562 91.9209 24.6242 92.6121 24.797 93.0441Z" fill="#F368AB"/>
<path d="M15.8976 86.1321C15.3792 86.7369 16.0704 87.0825 16.1568 87.5145C16.2432 87.9465 16.6752 88.4649 17.28 88.3785C17.8848 88.2921 18.4896 87.9465 18.7488 88.0329C18.8352 88.0329 18.8352 88.0329 18.9216 88.1193C18.8352 88.2921 18.8352 88.5513 18.9216 88.8105C19.008 88.9833 19.0944 89.2425 19.2672 89.4153C19.3536 89.7609 19.6992 90.1065 20.304 90.2793C21.2544 90.6249 22.2048 89.8473 22.032 89.1561C21.8592 88.4649 21.4272 88.3785 21.5136 88.2057C21.6 87.9465 22.1184 87.6009 21.9456 87.1689C21.7728 86.7369 20.3904 86.6505 20.1312 86.8233C19.872 86.9961 19.44 87.4281 19.1808 87.0825C18.8352 86.7369 18.7488 86.1321 18.2304 85.9593C17.5392 85.8729 16.416 85.5273 15.8976 86.1321Z" fill="#F368AB"/>
<path d="M17.9711 80.0841C17.7983 80.2569 17.7119 80.5161 17.6255 80.6025C17.8847 81.1209 18.3167 81.2937 18.5759 81.1209C18.7487 80.9481 18.9215 80.6025 18.9215 80.4297C18.9215 80.0841 18.2303 79.8249 17.9711 80.0841Z" fill="#F368AB"/>
<path d="M17.7986 84.0583C17.7986 84.3175 17.7122 84.8359 18.1442 84.9223C18.4898 85.0087 18.8354 84.7495 19.0946 84.4903C19.3538 84.2311 19.0082 83.7991 18.6626 83.7127C18.1442 83.4535 17.7986 83.7127 17.7986 84.0583Z" fill="#F368AB"/>
<path d="M27.3024 89.2425C27.7344 88.9833 27.9072 88.5513 27.7344 88.1193C27.5616 87.6873 27.216 87.6873 26.784 87.7737C26.352 87.9465 26.0928 88.4649 26.2656 88.8105C26.4384 89.2425 26.8704 89.4153 27.3024 89.2425Z" fill="#F368AB"/>
<path d="M31.1041 89.5016C30.7585 89.156 30.4129 88.724 29.8945 89.156C29.4625 89.5016 29.6353 90.02 29.8945 90.3656C30.5857 90.452 31.0177 90.2792 31.1041 89.5016Z" fill="#F368AB"/>
<path d="M14.2558 75.7641C14.083 75.3321 13.651 75.1593 13.3054 75.2457C12.7006 75.3321 12.7006 75.9369 12.5278 76.5417C12.8734 76.8009 13.219 76.9737 13.4782 77.0601C13.3054 77.2329 13.1326 77.4057 13.1326 77.6649C12.9598 78.3561 13.5646 79.3929 14.2558 79.5657C14.947 79.7385 15.7246 79.3065 15.8974 78.6153C16.1566 77.5785 15.7246 76.7145 14.947 76.5417C14.7742 76.5417 14.515 76.5417 14.2558 76.5417C14.3422 76.2825 14.3422 76.0233 14.2558 75.7641Z" fill="#F368AB"/>
<path d="M11.923 36.1928C11.923 36.3656 11.8366 36.7112 12.0958 36.7976C12.355 36.884 12.6142 36.6248 12.6142 36.5384C12.6142 36.3656 12.5278 36.1928 12.4414 36.02C12.2686 36.02 11.923 36.1064 11.923 36.1928Z" fill="#F368AB"/>
<path d="M52.6177 96.6727C52.6177 96.7591 52.8769 96.9319 53.0497 96.8455C53.2225 96.7591 53.3089 96.4999 53.3089 96.3271C53.3089 96.2407 52.9633 95.8951 52.7905 95.9815C52.6177 96.0679 52.6177 96.4999 52.6177 96.6727Z" fill="#F368AB"/>
<path d="M51.2352 95.1177C51.1488 95.6361 51.1488 96.0681 51.6672 96.3273C52.0992 96.5001 52.5312 96.3273 52.704 95.9817C52.7904 95.7225 52.7904 95.2905 52.6176 95.1177C52.1856 94.5993 51.6672 94.7721 51.2352 95.1177Z" fill="#F368AB"/>
<path d="M49.5935 102.548C48.8159 102.807 48.2975 103.671 48.5567 104.362C48.8159 105.054 50.1119 105.658 50.8031 105.486C51.1487 105.399 51.4079 105.054 51.5807 104.708C51.6671 104.708 51.7535 104.708 51.8399 104.622C52.1855 104.449 52.4447 103.93 52.3583 103.498C52.1855 103.066 51.7535 102.894 51.3215 103.066C50.8895 102.634 50.1119 102.375 49.5935 102.548Z" fill="#F368AB"/>
<path d="M53.568 89.5017C53.7408 89.0697 53.568 88.8969 52.704 88.5513C52.0992 88.8105 52.272 89.6745 52.6176 89.8473C52.9632 90.0201 53.4816 89.7609 53.568 89.5017Z" fill="#F368AB"/>
<path d="M59.7887 87.8601C59.9615 87.4281 59.6159 86.8233 58.9247 86.9097C58.3199 87.1689 58.4927 88.0329 58.8383 88.2057C59.1839 88.3785 59.7023 88.2057 59.7887 87.8601Z" fill="#F368AB"/>
<path d="M41.3857 80.6023C41.4721 80.6023 41.8177 80.4295 41.8177 80.2567C41.8177 80.0839 41.6449 79.8247 41.5585 79.8247C41.3857 79.8247 41.0401 79.8247 40.9537 80.1703C40.8673 80.5159 41.2993 80.6023 41.3857 80.6023Z" fill="#F368AB"/>
<path d="M52.8767 106.004C53.1359 106.782 54.1727 107.214 54.9503 106.868C55.5551 106.609 55.9871 105.486 55.7279 104.622C55.4687 103.931 54.6911 103.585 53.9135 103.844C52.8767 104.363 52.5311 104.967 52.8767 106.004Z" fill="#F368AB"/>
<path d="M57.8878 90.452C57.3694 89.9336 56.5918 89.7608 56.0734 90.02C55.4686 90.3656 55.123 90.9704 55.123 91.6616C55.123 91.9208 55.2094 92.18 55.3822 92.3528C55.987 92.9576 56.851 93.044 57.5422 92.4392C57.715 92.3528 57.8014 92.18 57.9742 92.0936C58.2334 92.3528 58.4062 92.612 58.579 92.8712C59.011 93.3032 59.3566 93.3896 59.875 93.044C60.307 92.6984 60.5662 92.2664 60.3934 91.6616C60.307 91.1432 59.875 90.884 59.3566 90.7976C59.011 90.7112 58.6654 90.7976 58.2334 90.884C58.147 90.7112 57.9742 90.5384 57.8878 90.452Z" fill="#F368AB"/>
<path d="M55.037 102.462C55.2962 102.289 55.8146 101.77 55.6418 101.425C55.469 101.079 54.8642 101.166 54.605 101.252C54.2594 101.338 54.0002 101.511 54.0866 101.943C54.173 102.289 54.6914 102.634 55.037 102.462Z" fill="#F368AB"/>
<path d="M2.15982 44.7464C2.93742 44.9192 3.80142 44.4008 3.97422 43.7096C4.14702 42.932 3.71502 42.068 3.02382 41.8088C2.41902 41.636 1.72782 41.8088 1.29582 42.1544C1.20942 42.5 1.12302 42.932 1.03662 43.2776C1.20942 43.9688 1.64142 44.66 2.15982 44.7464Z" fill="#F368AB"/>
<path d="M17.7122 48.4616C17.2802 48.2888 16.5026 48.2888 16.4162 49.1528C16.3298 50.0168 17.1938 50.708 17.885 50.8808C18.6626 51.0536 19.8722 50.0168 19.7858 49.0664C19.7858 48.7208 19.5266 48.548 19.2674 48.4616C19.181 48.2888 18.9218 48.2024 18.8354 48.2024C18.749 48.2024 18.4898 48.2888 18.4034 48.4616C18.4034 48.548 18.4034 48.548 18.4898 48.6344C18.0578 48.8936 18.1442 48.7208 17.7122 48.4616Z" fill="#F368AB"/>
<path d="M9.1585 44.66C9.8497 44.8328 10.3681 44.4008 10.5409 43.6232C10.7137 42.8456 10.3681 42.2408 9.5905 42.1544C8.8993 41.9816 8.2081 42.5 8.0353 43.2776C7.9489 43.7096 8.4673 44.4872 9.1585 44.66Z" fill="#F368AB"/>
<path d="M13.3055 66.6919C12.7007 66.8647 12.4415 67.2967 12.7007 67.7287C12.1823 68.0743 11.6639 68.2471 11.3183 68.5927C10.9727 68.8519 10.8863 69.6295 10.9727 70.1479C10.7135 69.8887 10.4543 69.8023 10.0223 69.7159C9.15829 69.6295 8.72629 69.7159 8.38069 70.1479C8.12149 70.2343 7.86229 70.4071 7.77589 70.6663C7.68949 71.0119 7.86229 71.3575 8.12149 71.5303C8.29429 72.0487 8.72629 72.4807 9.50389 72.6535C9.59029 72.6535 9.67669 72.6535 9.67669 72.6535C9.24469 72.8263 8.89909 73.2583 8.72629 73.6039C8.63989 74.0359 9.07189 74.6407 9.59029 74.8135C10.2815 74.9863 10.7999 74.6407 11.0591 73.8631C11.2319 73.2583 10.9727 72.5671 10.4543 72.4807C10.3679 72.4807 10.3679 72.4807 10.2815 72.4807C10.7135 72.2215 11.0591 71.8759 11.1455 71.3575C11.1455 71.1847 11.1455 71.0119 11.1455 70.8391C11.6639 71.1847 12.7007 71.2711 13.2191 71.0119C13.7375 70.6663 13.9967 69.8023 13.6511 69.1111C13.4783 68.5927 13.2191 68.2471 13.5647 67.7287C14.0831 67.2967 13.7375 66.9511 13.3055 66.6919Z" fill="#F368AB"/>
<path d="M59.7023 96.4137C60.3935 96.0681 60.7391 94.5129 60.1343 93.7353C59.7023 93.2169 58.9247 93.7353 58.7519 94.1673C58.5791 94.5993 58.5791 94.4265 58.0607 94.5993C57.5423 94.6857 56.9375 95.2041 57.4559 95.9817C57.9743 96.7593 59.0111 96.7593 59.7023 96.4137Z" fill="#F368AB"/>
<path d="M21.4272 61.9401C21.3408 62.4585 21.7728 63.4089 22.1184 63.4953C22.7232 63.6681 23.328 63.3225 23.5008 62.6313C23.6736 62.1129 23.2416 61.5945 22.5504 61.4217C22.032 61.2489 21.5136 61.4217 21.4272 61.9401Z" fill="#F368AB"/>
<path d="M22.4639 49.7575C22.5503 49.7575 22.8095 49.6711 22.8959 49.4983C22.8959 49.3255 22.7231 49.1527 22.5503 49.0663C22.4639 48.9799 22.1183 49.0663 22.0319 49.3255C21.9455 49.5847 22.3775 49.7575 22.4639 49.7575Z" fill="#F368AB"/>
<path d="M20.3042 66.4328C20.3906 66.3464 20.3906 66.26 20.477 66.1736C20.5634 65.828 20.1314 65.396 19.613 65.3096C19.0082 65.2232 18.4898 65.4824 18.4034 66.0008C18.317 66.4328 18.6626 66.8648 19.0946 66.9512C19.0082 67.124 18.9218 67.3832 18.8354 67.7288C18.8354 68.1608 18.8354 68.5064 18.4898 68.852C18.0578 69.3704 18.2306 69.9752 18.317 70.58C18.4034 71.0984 19.0946 71.5304 19.6994 71.5304C19.7858 71.5304 19.7858 71.5304 19.8722 71.5304C19.5266 71.7032 19.2674 72.0488 19.2674 72.3944C19.181 72.9128 19.613 73.3448 20.3042 73.604C20.8226 73.7768 21.6002 73.4312 21.6866 72.9992C21.8594 72.3944 21.341 71.5304 20.8226 71.3576C20.7362 71.3576 20.6498 71.3576 20.5634 71.3576C20.7362 71.1848 20.909 71.012 20.9954 70.7528C21.2546 70.148 21.1682 69.5432 21.0818 68.9384C20.9954 68.7656 20.9954 68.42 21.0818 68.2472C21.4274 67.2104 21.1682 66.692 20.3042 66.4328Z" fill="#F368AB"/>
<path d="M40.9534 94.0807C41.1262 94.2535 41.5582 94.3399 41.8174 94.3399C42.6814 94.1671 43.1998 93.6487 43.1998 92.5255C42.9406 92.3527 42.6814 92.0935 42.3358 91.9207C41.731 91.6615 41.1262 91.9207 40.867 92.2663C40.5214 92.9575 40.5214 93.6487 40.9534 94.0807Z" fill="#F368AB"/>
<path d="M8.89918 26.4296C9.24478 26.516 9.76318 26.3432 9.84958 25.9112C10.0224 25.4792 9.76318 24.9608 9.41758 24.9608C8.98558 24.8744 8.63998 25.0472 8.46718 25.4792C8.20799 25.8248 8.46718 26.3432 8.89918 26.4296Z" fill="#F368AB"/>
<path d="M1.98725 48.8936C2.41925 48.3752 2.33285 47.9432 1.29605 46.9928C1.64165 46.5608 2.07365 46.1288 1.46885 45.6104C1.20965 45.3512 0.950452 45.2648 0.691252 45.3512C0.518452 46.6472 0.345652 47.9432 0.172852 49.3256C0.777652 49.4984 1.64165 49.3256 1.98725 48.8936Z" fill="#F368AB"/>
<path d="M78.365 97.3641C77.6738 97.7097 77.4146 98.4873 77.6738 99.1785C78.0194 100.043 78.9698 100.388 79.7474 100.043C80.4386 99.6969 80.7842 99.0057 80.525 98.4009C80.1794 97.5369 78.9698 97.0185 78.365 97.3641Z" fill="#F368AB"/>
<path d="M80.3521 93.7353C80.4385 93.5625 80.3521 93.2169 80.2657 93.1305C80.1793 93.0441 79.6609 92.9577 79.4881 93.1305C79.3153 93.3033 79.5745 93.8217 79.7473 93.9081C79.8337 93.9945 80.2657 93.9081 80.3521 93.7353Z" fill="#F368AB"/>
<path d="M69.8109 101.943C69.2925 102.116 69.0333 102.634 69.2061 103.066C69.3789 103.498 70.3293 104.017 70.7613 103.93C71.3661 103.758 71.6253 103.066 71.3661 102.375C71.1933 101.77 70.5021 101.598 69.8109 101.943Z" fill="#F368AB"/>
<path d="M72.8354 101.511C72.9218 101.77 73.0946 102.03 73.3538 102.116C73.7858 102.289 74.1314 102.116 74.5634 101.338C74.3042 100.906 74.1314 100.388 73.4402 100.561C73.0082 100.734 72.749 101.079 72.8354 101.511Z" fill="#F368AB"/>
<path d="M5.96143 78.788C6.39343 79.5656 6.73903 80.3432 7.17103 81.1208C7.25743 81.0344 7.43023 80.8616 7.51663 80.4296C7.77583 79.4792 6.82543 78.4424 5.96143 78.788Z" fill="#F368AB"/>
<path d="M11.0592 59.0023C10.2816 58.9159 9.50395 59.3479 9.33115 60.0391C9.15835 60.7303 9.33115 61.3351 9.76315 61.6807C9.41755 61.7671 9.15835 61.9399 8.89915 62.2855C8.29435 63.2359 8.46715 64.0999 8.98555 64.5319C9.33115 64.7911 10.1088 64.7911 10.6272 64.6183C10.6272 65.0503 10.8 65.3095 11.232 65.4823C11.664 65.5687 12.096 65.3095 12.1824 64.7911C12.2688 64.3591 12.0096 63.8407 11.5776 63.7543C11.4912 63.7543 11.4912 63.7543 11.4048 63.7543C11.5776 63.0631 11.3184 62.5447 10.8864 62.1991L10.8 62.1127C11.3184 62.0263 11.664 61.5943 11.8368 60.9031C11.9232 60.6439 11.9232 60.3847 11.9232 60.2119C12.096 60.2983 12.2688 60.2983 12.528 60.2119C12.8736 60.1255 13.0464 59.7799 13.0464 59.4343C13.1328 59.6071 13.2192 59.8663 13.3056 59.8663C13.5648 59.9527 13.9968 59.4343 14.1696 59.2615C14.3424 58.9159 14.1696 58.5703 13.7376 58.4839C13.3056 58.3111 13.0464 58.5703 13.0464 58.9159C13.0464 58.9159 13.0464 58.8295 12.96 58.8295C12.7008 58.3975 12.096 58.0519 11.5776 58.1383C11.232 58.1383 11.0592 58.8295 11.0592 59.0023Z" fill="#F368AB"/>
<path d="M12.0962 46.8199C12.0962 46.9063 12.0962 47.1655 12.269 47.2519C12.4418 47.2519 12.701 47.1655 12.7874 47.0791C12.8738 46.9927 12.7874 46.5607 12.6146 46.4743C12.4418 46.3015 12.1826 46.6471 12.0962 46.8199Z" fill="#F368AB"/>
<path d="M62.3808 106.609C62.5536 107.127 63.072 107.3 63.504 107.127C63.8496 106.954 64.0224 106.436 63.8496 106.004C63.6768 105.572 63.2448 105.399 62.8992 105.572C62.4672 105.745 62.208 106.177 62.3808 106.609Z" fill="#F368AB"/>
<path d="M60.3938 100.129C60.9122 99.9559 61.2578 99.1783 61.085 98.5735C60.9122 97.9687 60.3938 97.7959 59.6162 98.0551C59.1842 98.2279 58.7522 98.6599 58.7522 99.0919C58.6658 99.0919 58.6658 99.0919 58.5794 99.0919C58.1474 99.2647 57.8882 99.6967 57.9746 100.215C58.061 100.474 58.061 100.82 57.9746 101.166C57.8018 101.684 57.8882 102.202 58.3202 102.548C58.6658 102.807 59.7026 102.634 60.0482 102.202C60.3074 101.857 60.653 101.425 60.3074 100.906C60.1346 100.647 59.9618 100.388 59.789 100.129C60.0482 100.129 60.221 100.129 60.3938 100.129Z" fill="#F368AB"/>
<path d="M65.2321 99.6104C65.4049 99.524 65.4049 99.4376 65.4913 99.3512H65.5777C66.0961 99.1784 66.5281 98.5736 66.4417 98.0552C66.2689 97.4504 65.5777 97.0184 65.0593 97.1048C64.6273 97.1912 64.3681 97.8824 64.4545 98.5736C64.2817 98.7464 64.1953 99.0056 64.1089 99.1784C64.2817 99.6968 64.8001 99.7832 65.2321 99.6104Z" fill="#F368AB"/>
<path d="M62.3811 92.0935C62.2947 92.0935 62.0355 92.3527 62.1219 92.6119C62.2083 92.8711 62.6403 92.7847 62.8131 92.6983C62.8995 92.6983 63.0723 92.4391 62.9859 92.2663C62.8131 92.1799 62.5539 92.0935 62.3811 92.0935Z" fill="#F368AB"/>
<path d="M72.0574 90.7111C71.4526 91.0567 70.8478 92.3527 71.107 93.0439C71.3662 93.7351 72.403 94.0807 73.1806 93.7351C73.8718 93.3895 74.3038 92.3527 73.9582 91.6615C73.6126 90.7975 72.6622 90.3655 72.0574 90.7111Z" fill="#F368AB"/>
<path d="M60.9119 107.214C61.0847 107.214 61.2575 107.127 61.4303 106.868C61.6031 106.522 61.5167 106.09 61.3439 105.831C61.7759 105.486 61.9487 104.794 61.6895 104.276C61.4303 103.585 60.4799 103.326 59.6159 103.671C59.0111 103.93 58.7519 104.535 59.0111 105.226C59.0975 105.399 59.1839 105.658 59.3567 105.745C59.0111 106.263 59.2703 106.868 59.3567 107.041C59.0111 107.214 58.7519 107.559 58.6655 107.991C59.5295 107.905 60.3935 107.818 61.2575 107.732C61.0847 107.473 60.9983 107.3 60.9119 107.214Z" fill="#F368AB"/>
<path d="M66.6143 105.745C66.9599 105.486 67.0463 105.054 66.7871 104.708C66.6143 104.535 66.3551 104.276 66.0959 104.276C65.4047 104.276 65.2319 104.795 65.2319 105.486C65.6639 105.831 66.0959 106.177 66.6143 105.745Z" fill="#F368AB"/>
<path d="M67.5648 97.4504C67.7376 97.4504 68.0832 97.1048 67.9968 96.932C67.9104 96.7592 67.4784 96.6728 67.3056 96.7592C67.1328 96.8456 66.96 97.1048 67.0464 97.2776C67.1328 97.4504 67.4784 97.4504 67.5648 97.4504Z" fill="#F368AB"/>
<path d="M66.0959 103.326C66.4415 103.153 66.3551 102.894 66.2687 102.548C66.0959 102.116 65.6639 102.03 65.4047 102.289C65.2319 102.462 65.0591 102.807 64.9727 102.98C65.2319 103.412 65.7503 103.498 66.0959 103.326Z" fill="#F368AB"/>
<path d="M38.2753 74.6408C37.9297 74.7272 37.7569 75.0728 37.8433 75.4184C37.9297 75.8504 38.2753 76.0232 38.6209 75.9368C39.0529 75.8504 39.3121 75.332 39.1393 74.9864C38.9665 74.5544 38.6209 74.468 38.2753 74.6408Z" fill="#F368AB"/>
<path d="M32.1407 62.8903C31.4495 62.8039 30.6719 63.236 30.4991 63.9272C30.2399 64.7912 30.7583 65.6552 31.6223 65.828C32.3999 66.0008 33.0047 65.6552 33.1775 64.964C33.4367 64.1864 32.8319 63.0631 32.1407 62.8903Z" fill="#F368AB"/>
<path d="M35.5103 60.2983C35.2511 60.3847 35.1648 60.9031 35.2512 61.0759C35.3375 61.2487 35.6832 61.3351 35.8559 61.3351C36.0287 61.2487 36.2015 60.9031 36.1151 60.7303C36.1151 60.5575 35.7695 60.2119 35.5103 60.2983Z" fill="#F368AB"/>
<path d="M35.683 79.7385C35.8558 79.7385 36.2014 79.7385 36.2878 79.4793C36.3742 79.1337 36.115 78.9609 35.9422 78.8745C35.7694 78.7881 35.251 78.7017 35.1646 79.1337C35.0782 79.5657 35.5102 79.6521 35.683 79.7385Z" fill="#F368AB"/>
<path d="M31.1041 53.8184C30.4129 53.6456 29.1169 54.4232 28.9441 55.1144C28.7713 55.8055 29.3761 56.7559 30.2401 56.9287C31.0177 57.1015 31.9681 56.4968 32.1409 55.8056C32.3137 54.8552 31.7953 53.9048 31.1041 53.8184Z" fill="#F368AB"/>
<path d="M34.2145 70.9256C34.1281 70.9256 34.0417 71.0984 33.9553 71.1848C33.9553 71.0984 33.8689 71.0984 33.8689 71.0984C33.4369 70.8392 32.4865 71.5304 32.5729 71.876C32.6593 72.2216 33.5233 72.4809 33.9553 72.2217C34.2145 72.5673 34.9057 72.5672 35.1649 72.1352C35.2513 71.876 34.9057 71.444 34.7329 71.0984C34.6465 71.012 34.5601 70.8392 34.2145 70.9256Z" fill="#F368AB"/>
<path d="M49.5073 78.4424C48.8161 78.5288 48.6433 78.788 48.5569 79.652C48.1249 79.9976 47.6929 80.3432 47.3473 80.6888C47.0017 81.0344 47.2609 81.6392 47.7793 81.6392C48.3841 81.5528 48.9889 81.7256 49.5073 81.2072C49.5073 80.948 49.5073 80.6888 49.5937 80.3432C50.2849 79.9112 50.6305 79.3064 50.4577 78.8744C50.1985 78.5288 49.8529 78.356 49.5073 78.4424Z" fill="#F368AB"/>
<path d="M24.3647 68.2472C23.7599 68.42 23.6735 69.284 23.9327 69.716C24.1919 70.148 24.9695 70.148 25.3151 69.5432C25.4879 69.284 25.4015 68.7656 25.2287 68.5928C25.1423 68.2472 24.6239 68.1608 24.3647 68.2472Z" fill="#F368AB"/>
<path d="M26.1792 62.4584C25.7472 62.2856 25.3152 62.4584 25.1424 62.804C25.056 62.9768 25.056 63.4088 25.1424 63.5816C25.4016 64.0136 25.7472 64.0136 26.6112 63.668C26.6976 63.3224 26.8704 62.7176 26.1792 62.4584Z" fill="#F368AB"/>
<path d="M2.9375 71.6167C3.0239 71.9623 3.1103 72.2215 3.2831 72.5671C3.2831 72.1351 3.1103 71.8759 2.9375 71.6167Z" fill="#F368AB"/>
<path d="M44.6688 84.2313C44.2368 84.0585 43.8912 83.6265 43.4592 83.7993C43.1136 83.8857 43.0272 84.0585 42.9408 84.3177C42.8544 84.4905 42.6816 84.6633 42.6816 85.0953C42.6816 85.4409 42.9408 86.1321 43.3728 86.4777C43.8912 86.7369 44.3232 86.7369 44.7552 86.4777C45.1872 86.2185 45.2736 85.7865 45.2736 85.4409C45.1872 85.0089 45.0144 84.4905 44.6688 84.2313Z" fill="#F368AB"/>
<path d="M24.1058 65.8281C23.6738 65.7417 23.2418 66.0009 23.069 66.4329C22.9826 66.9513 23.1554 67.3833 23.5874 67.4697C24.0194 67.5561 24.5378 67.3833 24.6242 66.9513C24.797 66.5193 24.5378 66.0009 24.1058 65.8281Z" fill="#F368AB"/>
<path d="M36.461 76.8009C36.3746 76.8009 36.2018 76.8009 36.1154 76.8873C35.6834 77.0601 35.5106 77.5785 35.6834 78.0105C35.8562 78.4425 36.3746 78.7017 36.7202 78.6153C36.9794 78.5289 37.325 78.0969 37.4114 77.7513C37.5842 77.6649 37.757 77.5785 37.757 77.4057C37.9298 76.8009 37.8434 76.3689 37.1522 76.2825C36.8066 76.2825 36.5474 76.5417 36.461 76.8009Z" fill="#F368AB"/>
<path d="M44.8415 94.2537C45.1007 94.3401 45.4463 94.4265 45.7055 94.4265C46.0511 94.3401 46.2238 93.9945 46.051 93.6489C45.9646 93.3033 45.7918 93.0441 45.3599 93.1305C45.0143 93.3033 44.7551 93.7353 44.8415 94.2537Z" fill="#F368AB"/>
<path d="M46.7423 75.3321C46.2239 75.5049 45.7919 76.1097 46.0511 76.4553C46.2239 76.8009 47.6063 76.8009 47.8655 76.3689C48.1247 76.0233 47.2607 75.2457 46.7423 75.3321Z" fill="#F368AB"/>
<path d="M45.5331 77.7513C45.2739 77.8377 45.2739 78.0969 45.3603 78.1833C45.4467 78.3561 45.6195 78.6153 45.8787 78.5289C46.1379 78.4425 46.0515 78.0105 46.0515 77.9241C45.9651 77.8377 45.7923 77.6649 45.5331 77.7513Z" fill="#F368AB"/>
<path d="M38.1026 69.2839C37.9298 69.2839 37.5842 69.4567 37.4114 69.6295C37.2386 69.9751 37.4978 70.3207 37.757 70.4071C38.0162 70.4071 38.621 70.4071 38.7074 69.9751C38.8802 69.4567 38.2754 69.2839 38.1026 69.2839Z" fill="#F368AB"/>
<path d="M39.9167 88.0329C39.7439 88.2057 39.7439 88.4649 39.9167 88.5513C40.0031 88.7241 40.4351 88.7241 40.6079 88.6377C40.7807 88.5513 40.6943 88.2057 40.5215 88.0329C40.3487 87.9465 40.0031 87.8601 39.9167 88.0329Z" fill="#F368AB"/>
<path d="M38.7073 78.5288C38.1025 78.788 37.9297 79.22 38.1889 79.9976C38.4481 80.6024 38.9665 80.7752 39.6577 80.4296C40.1761 80.2568 40.4353 79.8248 40.2625 79.3928C40.1761 78.9608 39.1393 78.356 38.7073 78.5288Z" fill="#F368AB"/>
<path d="M28.6846 69.5433C28.5982 69.8889 29.2894 70.3209 29.8942 70.2345C30.499 70.1481 30.499 69.2841 30.3262 68.9385C30.1534 68.6793 28.771 69.1977 28.6846 69.5433Z" fill="#F368AB"/>
<path d="M55.5553 97.4505C56.2465 97.2777 56.6785 96.4137 56.5057 95.8089C56.3329 95.2041 55.3825 94.7721 54.6913 95.0313C54.1729 95.2041 53.9137 95.7225 54.0865 96.4137C54.2593 97.0185 55.0369 97.6233 55.5553 97.4505Z" fill="#F368AB"/>
<path d="M2.85126 48.2889C2.67846 48.8073 3.28326 49.4121 3.88806 49.4985C4.57926 49.5849 5.09766 49.2393 5.27046 48.5481C5.44326 47.8569 5.09766 47.2521 4.57926 47.1657C3.88806 47.0793 3.02406 47.5977 2.85126 48.2889Z" fill="#F368AB"/>
<path d="M4.92493 46.1288C4.75213 46.6472 5.18413 47.4248 5.70253 47.684C6.13453 47.8568 6.73933 47.5976 6.82573 47.0792C6.99853 46.5608 6.65293 45.8696 6.04813 45.6968C5.52973 45.524 5.09773 45.6968 4.92493 46.1288Z" fill="#F368AB"/>
<path d="M53.2226 99.8697C52.9634 99.6969 52.6178 99.6969 52.3586 99.8697C51.8402 100.215 52.013 100.647 52.0994 101.252C52.6178 101.339 53.1362 101.598 53.4818 100.993C53.4818 100.907 53.5682 100.907 53.5682 100.82C54.0002 101.079 54.6914 101.166 55.037 100.993C55.469 100.82 55.6418 100.388 55.3826 99.8697C55.1234 99.1785 54.4322 98.8329 53.9138 99.0057C53.6546 99.2649 53.3954 99.5241 53.2226 99.8697Z" fill="#F368AB"/>
<path d="M2.50573 39.9081C2.67853 39.9081 3.02413 39.6489 3.11053 39.3897C3.19693 39.1305 3.11053 38.7849 2.76493 38.7849C2.67853 38.7849 2.50573 38.7849 2.33293 38.8713C2.24653 39.1305 2.16013 39.3897 2.07373 39.6489C2.16013 39.7353 2.41933 39.9081 2.50573 39.9081Z" fill="#F368AB"/>
<path d="M7.34405 31.9591C6.91205 31.8727 6.39365 32.1319 6.22085 32.4775C6.13445 32.8231 6.39365 33.3415 6.73925 33.4279C7.08485 33.5143 7.68965 33.2551 7.86245 32.9095C7.94885 32.5639 7.68965 32.0455 7.34405 31.9591Z" fill="#F368AB"/>
<path d="M53.3953 85.268C53.2225 85.3544 52.8769 85.5272 52.9633 85.7C53.0497 85.9592 53.3953 85.9592 53.4817 85.8728C53.6545 85.7864 53.9137 85.7 53.8273 85.4408C53.7409 85.1816 53.4817 85.268 53.3953 85.268Z" fill="#F368AB"/>
<path d="M15.2063 37.9209C14.8607 38.1801 14.7743 38.6121 15.0335 39.0441C15.2063 39.3897 15.4655 39.5625 15.8111 39.4761C16.4159 39.3033 16.5023 38.8713 16.5887 38.2665C16.0703 37.9209 15.7247 37.4889 15.2063 37.9209Z" fill="#F368AB"/>
<path d="M15.8111 71.3576C15.3791 71.2712 14.7743 71.6168 14.7743 72.0488C14.6879 72.4808 15.1199 72.9992 15.5519 73.0856C15.9839 73.172 16.5023 72.8264 16.5887 72.4808C16.5887 71.9624 16.3295 71.444 15.8111 71.3576Z" fill="#F368AB"/>
<path d="M23.7599 55.7192C23.5871 55.7192 23.3279 55.8056 23.2415 55.9784C23.1551 56.1512 23.4143 56.4104 23.5007 56.4968C23.6735 56.5832 24.1055 56.4968 24.1919 56.324C24.1919 56.0648 23.8463 55.7192 23.7599 55.7192Z" fill="#F368AB"/>
<path d="M15.4654 63.236C14.8606 63.1496 13.9966 63.7544 13.8238 64.4456C13.651 64.964 13.9966 65.4824 14.6878 65.6552C15.4654 65.828 15.9838 65.5688 16.1566 64.7048C16.243 64.0136 15.9838 63.3224 15.4654 63.236Z" fill="#F368AB"/>
<path d="M20.3905 55.46C20.1313 55.46 19.8721 55.6328 19.6129 55.7192C19.5265 56.2376 19.8721 56.6696 20.3041 56.756C20.7361 56.8424 20.8225 56.5832 20.9089 56.2376C20.9953 55.8056 20.7361 55.46 20.3905 55.46Z" fill="#F368AB"/>
<path d="M15.3792 52.2633C14.9472 52.0905 14.5152 52.2633 14.256 52.7817C14.0832 53.0409 13.9968 53.3865 13.7376 53.5593C13.3056 53.9049 13.0464 54.3369 13.1328 54.8553C13.2192 55.2873 14.256 55.7193 14.688 55.6329C15.12 55.5465 15.6384 55.4601 15.6384 54.7689C15.6384 54.2505 15.7248 53.8185 15.7248 53.3001C16.0704 52.8681 15.8112 52.4361 15.3792 52.2633Z" fill="#F368AB"/>
<path d="M7.51688 36.5384C7.17128 36.452 6.82568 36.6248 6.82568 36.9704C6.82568 37.316 6.91208 38.0072 7.25768 38.0936C7.60328 38.18 8.03528 37.5752 8.12168 37.316C8.20808 36.9704 7.86248 36.5384 7.51688 36.5384Z" fill="#F368AB"/>
<path d="M13.5647 51.4856C13.3919 51.3992 12.9599 51.4856 12.8735 51.6584C12.7871 51.8312 13.1327 52.1768 13.3055 52.1768C13.4783 52.1768 13.7375 52.1768 13.8239 51.9176C13.9103 51.8312 13.6511 51.572 13.5647 51.4856Z" fill="#F368AB"/>
<path d="M10.0223 51.8312C9.84948 52.1768 10.1087 52.7816 10.4543 52.7816C10.7135 52.7816 11.4911 52.6952 11.5775 52.3496C11.6639 51.9176 11.1455 51.6584 10.8863 51.572C10.6271 51.3992 10.1951 51.4856 10.0223 51.8312Z" fill="#F368AB"/>
<path d="M12.0961 28.5033C11.4913 28.4169 11.4913 29.0217 11.3185 29.1945C10.7137 29.7129 10.7137 30.8361 11.2321 31.1817C11.7505 31.5273 12.1825 31.4409 12.7009 31.0953C13.2193 30.7497 13.2193 30.3177 13.0465 29.7993C12.8737 29.4537 12.7009 28.5033 12.0961 28.5033Z" fill="#F368AB"/>
<path d="M26.8706 72.2217C26.2658 72.2217 25.5746 72.9129 25.4018 73.5177C25.3154 73.8633 25.4018 74.2089 25.7474 74.3817C26.6114 74.7273 27.5618 74.9001 28.5122 74.6409C28.685 74.5545 28.8578 74.4681 28.8578 74.3817C29.549 73.6905 29.3762 72.8265 28.5122 72.4809C28.0802 72.3081 27.4754 72.2217 26.8706 72.2217Z" fill="#F368AB"/>
<path d="M33.3502 89.0697C32.7454 89.4153 32.4862 89.8473 32.659 90.1928C32.8318 90.5384 33.6958 90.7112 34.0414 90.5384C34.3006 90.3656 34.4734 89.5881 34.3006 89.2425C34.1278 88.8969 33.6958 88.8105 33.3502 89.0697Z" fill="#F368AB"/>
<path d="M40.003 98.8328C39.4846 98.5736 38.7934 99.0057 38.6206 99.5241C38.5342 99.7833 38.5342 100.129 38.6206 100.388C38.1022 100.561 37.843 101.079 38.1022 101.511C38.1886 101.77 38.5342 101.943 38.8798 102.03C39.0526 102.116 39.3118 102.202 39.571 102.116C39.7438 102.03 39.9166 101.77 39.9166 101.511C39.9166 101.425 39.8302 101.252 39.7438 101.166C40.0894 101.166 40.3486 100.993 40.435 100.906C40.7806 100.561 40.6942 100.215 40.5214 99.7833C40.3486 99.4377 40.435 99.0056 40.003 98.8328Z" fill="#F368AB"/>
<path d="M46.915 101.511C46.8286 101.511 46.8286 101.598 46.7422 101.598C46.6558 101.252 46.3966 100.82 46.1374 100.474C45.7054 100.042 44.5822 100.042 44.1502 100.561C43.8046 101.079 43.891 102.289 44.6686 102.634C45.2734 102.894 45.7054 102.894 46.1374 102.721C46.1374 102.98 46.1374 103.153 46.2238 103.412C46.3966 103.844 47.2606 104.017 47.779 103.758C48.4702 103.412 48.643 102.807 48.2974 102.202C48.0382 101.598 47.4334 101.252 46.915 101.511Z" fill="#F368AB"/>
<path d="M39.8303 83.3672C39.5711 82.8488 38.7071 82.676 38.0159 82.9352C37.4111 83.1944 37.2383 83.7128 37.5839 84.4904C37.7567 84.9224 38.4479 85.1816 38.8799 85.0952C39.3983 84.836 40.0031 83.7128 39.8303 83.3672Z" fill="#F368AB"/>
<path d="M43.6318 104.19C43.5454 104.19 43.5454 104.449 43.5454 104.449C43.5454 104.535 43.7182 104.622 43.8046 104.535C43.891 104.449 43.9774 104.362 43.9774 104.19C43.891 104.19 43.7182 104.19 43.6318 104.19Z" fill="#F368AB"/>
<path d="M34.3007 85.7001C34.3871 85.6137 34.5599 85.6137 34.5599 85.5273L34.4735 85.2681C34.3871 85.2681 34.2143 85.2681 34.1279 85.3545C34.1279 85.5273 34.2143 85.6137 34.3007 85.7001Z" fill="#F368AB"/>
<path d="M37.0658 86.0456C36.8066 86.132 36.6338 86.2184 36.461 86.3912C36.2018 85.9592 36.1154 85.9592 35.6834 85.8728C35.3378 85.7864 35.0786 85.9592 34.9922 85.9592C35.0786 86.3048 34.9058 87.0824 35.3378 87.2552C35.597 87.3416 35.8562 87.1688 36.029 86.996C36.029 87.1688 36.029 87.2552 36.029 87.428C36.2018 87.86 37.1522 88.2056 37.6706 87.9464C38.0162 87.7736 38.2754 86.8232 38.1026 86.4776C38.0162 86.132 37.4978 85.8728 37.0658 86.0456Z" fill="#F368AB"/>
<path d="M36.3743 80.5159C35.9423 80.6023 35.5967 80.5159 35.2511 80.3431C35.0783 80.2567 34.6463 80.5159 34.5599 80.7751C34.4735 80.9479 34.4735 81.3799 34.5599 81.5527C34.6463 81.7255 34.9919 81.8119 35.2511 81.7255C35.6831 81.6391 36.1151 81.4663 36.4607 81.3799C36.8063 81.2935 36.8927 81.0343 36.7199 80.6023C36.6335 80.6023 36.4607 80.5159 36.3743 80.5159Z" fill="#F368AB"/>
<path d="M39.8305 103.585C39.5713 104.19 39.6577 104.622 40.1761 105.14C40.7809 105.745 41.4721 105.745 42.1633 105.658C42.3361 106.004 42.3361 106.35 42.5089 106.609C42.5953 106.695 42.6817 106.782 42.7681 106.868C43.1137 106.954 43.4593 107.041 43.8049 107.041C43.9777 106.954 44.1505 106.782 44.3233 106.436C44.7553 105.658 44.4097 104.967 43.6321 104.708C43.3729 104.622 43.1137 104.622 42.5953 104.535C42.7681 104.19 42.8545 103.844 43.0273 103.758C43.6321 103.326 43.7185 102.807 43.3729 102.202C43.2865 102.03 43.2865 101.857 43.2865 101.684C43.2001 101.079 42.9409 100.734 42.5089 100.82C41.9905 100.906 41.7313 101.338 41.9905 102.03C41.9905 102.116 42.0769 102.116 42.0769 102.202C42.1633 102.548 42.0769 102.807 41.6449 102.721C41.4721 102.721 41.3857 102.634 41.2129 102.634C40.6081 102.721 40.0897 103.066 39.8305 103.585Z" fill="#F368AB"/>
<path d="M8.46744 77.5785C8.20824 78.0105 8.55384 78.6153 9.15864 78.7017C9.41784 78.7017 9.76344 78.2697 9.67704 77.8377C9.59064 77.4057 8.72664 77.1465 8.46744 77.5785Z" fill="#F368AB"/>
<path d="M19.6992 95.8088C19.9584 95.9816 20.2176 96.2408 20.4768 96.4136V96.3272C20.304 96.068 19.9584 95.8952 19.6992 95.8088Z" fill="#F368AB"/>
<path d="M14.515 89.156C14.515 88.8104 14.3422 88.4648 13.9966 88.3784C13.7374 88.3784 13.3054 88.3784 13.1326 88.5512C13.0462 88.4648 12.8734 88.4648 12.787 88.3784C12.6142 88.3784 12.4414 88.292 12.355 88.292C13.3918 89.588 14.515 90.7976 15.7246 92.0072C16.0702 92.0936 16.5022 92.0072 16.7614 91.8344C16.8478 92.2664 17.2798 92.612 17.7982 92.6984C18.5758 92.8712 19.0078 92.5256 19.1806 91.6616C19.3534 90.9704 19.0078 90.2792 18.4894 90.1928C18.0574 90.1064 17.539 90.3656 17.107 90.7112C16.9342 90.02 16.4158 89.8472 16.4158 89.6744C16.4158 89.5016 16.8478 88.724 16.243 88.4648C15.2062 88.1192 14.8606 88.8968 14.515 89.156Z" fill="#F368AB"/>
<path d="M0 53.9049C0.1728 53.7321 0.2592 53.4729 0.2592 53.1273C0.2592 52.6953 0.1728 52.1769 0.0864 51.7449C0 52.4361 0 53.2137 0 53.9049Z" fill="#F368AB"/>
<path d="M26.611 99.9561C26.4382 100.042 26.2654 100.129 26.0926 100.302C26.0062 99.6969 25.4878 99.0921 24.7102 98.8329C24.3646 98.7465 24.1054 98.7465 23.8462 98.9193C25.6606 100.129 27.5614 101.252 29.4622 102.202C29.5486 101.77 29.635 101.166 29.3758 100.647C28.771 99.7833 27.2158 99.6105 26.611 99.9561Z" fill="#F368AB"/>
<path d="M0.0862844 55.9783C0.518284 55.8055 0.604684 55.3735 0.691084 54.7687C0.431884 54.6823 0.259084 54.5095 0.0862844 54.4231C-0.000115633 54.9415 -0.000115633 55.4599 0.0862844 55.9783Z" fill="#F368AB"/>
<path d="M7.86263 74.8135C7.43063 74.7271 6.99863 74.9863 6.91222 75.5047C6.82582 75.9367 6.99863 76.3687 7.43063 76.4551C7.86263 76.5415 8.46743 76.1095 8.46743 75.6775C8.55383 75.3319 8.29463 74.8999 7.86263 74.8135Z" fill="#F368AB"/>
<path d="M3.11055 59.2617C2.59215 59.4345 2.33295 59.6937 2.16015 60.0393C2.07375 60.0393 1.98735 59.9529 1.98735 59.9529C1.29615 59.7801 0.864155 60.0393 0.518555 60.5577C0.691355 62.0265 0.950555 63.4089 1.20975 64.8777C1.29615 64.9641 1.46895 64.9641 1.64175 64.9641C2.07375 64.8777 2.33295 64.3593 2.33295 63.7545C2.85135 63.5817 3.36975 63.1497 3.54255 62.6313C3.62895 62.3721 3.54255 62.1129 3.45615 61.7673C3.54255 61.7673 3.62895 61.7673 3.71535 61.7673C4.32015 61.7673 5.09775 60.9033 5.01135 60.2985C4.83855 59.7801 3.88815 59.0025 3.11055 59.2617Z" fill="#F368AB"/>
<path d="M15.9839 80.6888C15.2063 80.516 14.1695 81.0344 14.0831 81.812C13.9103 82.676 14.4287 83.6264 15.2063 83.7992C15.3791 83.7992 15.4655 83.8856 15.6383 83.8856C15.6383 83.972 15.7247 84.0584 15.7247 84.1448C15.8975 84.404 16.2431 84.9224 16.5887 84.7496C16.9343 84.5768 16.9343 83.8856 16.8479 83.6264C16.8479 83.54 16.7615 83.4536 16.5887 83.3672C16.6751 83.1944 16.8479 82.9352 16.8479 82.676C17.1935 81.5528 16.8479 80.8616 15.9839 80.6888Z" fill="#F368AB"/>
<path d="M3.80149 55.9784C3.62869 56.5832 4.06069 57.1016 4.83829 57.188C5.27029 57.2744 5.96149 56.8424 6.04789 56.4104C6.13429 55.892 5.61589 54.7688 5.18389 54.6824C4.57909 54.6824 3.97429 55.2872 3.80149 55.9784Z" fill="#F368AB"/>
<path d="M6.04812 51.5721C5.96172 51.5721 5.96172 51.4857 5.87532 51.4857C5.44332 51.3993 4.92492 51.7449 4.83852 52.0905C4.75212 52.5225 5.09772 53.0409 5.52972 53.2137C5.96172 53.3001 6.30732 53.0409 6.39372 52.6953C6.39372 52.6953 6.48012 52.6953 6.48012 52.7817C6.91212 52.8681 7.43052 52.6089 7.60332 52.2633C7.77612 51.8313 7.43052 51.3993 6.99852 51.2265C6.65292 50.9673 6.22092 51.1401 6.04812 51.5721Z" fill="#F368AB"/>
<path d="M7.94901 44.1417C7.60341 44.0553 7.25781 44.8329 7.25781 44.9193C7.34421 45.2649 7.43061 45.7833 7.86261 45.8697C8.29461 45.9561 8.46741 45.5241 8.46741 45.3513C8.38101 45.0921 8.20821 44.2281 7.94901 44.1417Z" fill="#F368AB"/>
<path d="M3.36942 58.484C3.54222 58.6568 3.88782 58.6568 3.97422 58.5704C4.14702 58.3976 4.40622 58.052 4.40622 57.7928C4.31982 57.2744 3.88782 57.2744 3.45582 57.2744C3.11022 57.7064 3.02382 58.1384 3.36942 58.484Z" fill="#F368AB"/>
<path d="M8.98561 52.7815C8.64001 52.7815 8.29441 52.7815 8.20801 53.2135C8.20801 53.4727 8.29441 54.2503 8.64001 54.3367C8.98561 54.4231 9.33121 53.7319 9.41761 53.4727C9.59041 53.1271 9.41761 52.8679 8.98561 52.7815Z" fill="#F368AB"/>
<path d="M49.1616 95.1177C48.2112 93.6489 47.0016 94.0809 46.1376 94.9449C45.792 95.2041 45.6192 95.5497 45.6192 95.9817C45.5328 96.5001 45.7056 96.9321 46.0512 97.4505C46.3968 97.9689 46.3104 98.5737 46.9152 98.8329C47.6064 99.1785 48.9024 99.4377 49.9392 98.4873C50.544 97.8825 50.7168 97.2777 50.6304 96.6729C50.4576 95.8953 49.5936 95.8089 49.1616 95.1177Z" fill="#F368AB"/>
<path d="M2.76477 54.0777C2.50557 54.0777 2.24637 54.3369 2.15997 54.5961C2.15997 54.6825 2.15997 54.9417 2.24637 55.1145C2.15997 55.0281 1.98717 55.0281 1.90077 55.0281C1.46877 55.1145 1.20957 56.1513 1.55517 56.3241C1.90077 56.4969 2.76477 56.1513 2.67837 55.6329C2.67837 55.5465 2.59197 55.4601 2.59197 55.3737C2.85117 55.3737 3.28317 54.8553 3.28317 54.7689C3.19677 54.5097 2.93757 53.9913 2.76477 54.0777Z" fill="#F368AB"/>
<path d="M50.9759 107.3C50.7167 107.386 50.5439 107.732 50.4575 107.991C51.0623 107.991 51.5807 108.078 52.1855 108.078V107.991C52.0127 107.646 51.2351 107.214 50.9759 107.3Z" fill="#F368AB"/>
<path d="M15.8114 73.3448C14.9474 73.172 14.3426 73.3448 14.1698 73.8632C14.0834 73.8632 14.0834 73.8632 13.997 73.8632C13.565 74.036 13.3922 74.3816 13.4786 74.8136C13.6514 75.332 14.3426 75.764 14.6882 75.5912C14.7746 75.5912 14.861 75.4184 14.9474 75.2456C15.3794 75.332 16.157 74.7272 16.3298 74.2088C16.5026 73.7768 16.2434 73.4312 15.8114 73.3448Z" fill="#F368AB"/>
<path d="M21.0815 81.5529C20.6495 81.4665 20.1311 81.9849 19.9583 82.5897C19.8719 82.8489 19.8719 83.0217 19.9583 83.1945H19.8719C19.3535 83.3673 19.0079 84.3177 19.1807 84.8361C19.3535 85.2681 20.2175 85.6137 20.7359 85.3545C21.0815 85.1817 21.4271 84.5769 21.2543 84.2313C21.1679 84.1449 21.1679 83.9721 21.0815 83.8857C21.5135 83.7993 21.8591 83.5401 22.0319 83.1945C22.2911 82.6761 21.7727 81.7257 21.0815 81.5529Z" fill="#F368AB"/>
<path d="M21.3406 91.8344C21.0814 91.8344 20.563 91.6616 20.2174 92.0072C19.9582 92.3528 20.7358 93.6488 20.9086 93.7352C21.0814 93.8216 21.7726 93.908 21.6862 94.4264C21.6862 94.5128 21.6862 94.5128 21.5998 94.5992C21.5134 94.2536 21.3406 93.9944 20.995 93.9944C20.563 93.908 20.2174 94.2536 20.131 94.6856C20.0446 95.1176 20.3902 95.636 20.8222 95.636C20.995 95.636 21.0814 95.636 21.2542 95.5496C21.2542 95.636 21.2542 95.7224 21.2542 95.8088C21.427 96.3272 21.7726 97.4504 22.6366 97.5368C23.4142 97.6232 23.3278 96.932 23.6734 96.5864C23.8462 96.4136 23.9326 96.2408 23.9326 96.068C24.019 96.6728 24.5374 97.364 25.1422 97.5368C25.2286 97.5368 25.4014 97.6232 25.4878 97.6232C25.4878 97.7096 25.4878 97.8824 25.5742 97.9688C25.747 98.228 26.0062 98.5736 26.3518 98.66C26.9566 98.7464 27.3886 98.1416 27.3886 97.7096C27.5614 97.9688 27.7342 98.228 27.8206 98.5736C27.907 98.7464 28.2526 99.0056 28.5118 99.092C28.9438 99.1784 29.2894 99.3512 29.635 99.4376C30.1534 99.6104 30.7582 99.3512 30.931 98.9192C31.0174 98.66 31.0174 98.4872 31.0174 98.228C31.1902 97.4504 30.8446 96.8456 30.067 96.6728C29.7214 96.5864 29.4622 96.6728 29.203 96.7592C29.203 96.6728 29.203 96.6728 29.203 96.5864C29.1166 96.1544 28.8574 95.8952 28.5118 95.8952C27.9934 95.8088 27.6478 96.1544 27.3886 96.5C27.2158 96.7592 27.1294 96.932 27.2158 97.1912C27.1294 97.1048 26.9566 97.0184 26.7838 97.0184C26.9566 96.7592 27.1294 96.5 27.2158 96.1544C27.475 95.3768 27.043 94.6856 26.2654 94.4264C25.4878 94.1672 24.3646 94.6856 24.1054 95.5496V95.636C24.1054 95.4632 24.019 95.3768 23.9326 95.204C23.587 94.6856 22.9822 94.4264 22.8958 94.1672C22.8094 93.908 22.8094 93.476 23.2414 93.3896C23.5006 93.3032 23.7598 93.1304 23.8462 92.7848C24.1918 92.7848 24.5374 92.5256 24.6238 92.18C24.7102 91.748 24.451 91.2296 24.019 91.1432C23.8462 91.1432 23.7598 91.1432 23.587 91.2296C23.155 90.7112 22.291 90.5384 21.9454 90.9704C21.427 91.4024 21.5998 91.748 21.3406 91.8344Z" fill="#F368AB"/>
<path d="M22.2911 88.0328C22.4639 88.3784 22.8959 88.5512 23.3279 88.4648C23.5007 88.3784 23.6735 88.2921 23.7599 88.1193C23.7599 88.1193 23.7599 88.1194 23.7599 88.2058C23.4143 89.0698 24.1919 89.5881 24.6239 89.8473C25.0559 90.1065 25.8335 89.4154 25.9199 88.6378C25.9199 88.1194 25.6607 87.86 25.3151 87.7736C24.7967 87.6008 24.1055 87.7737 23.9327 88.1193C24.0191 87.9465 24.0191 87.7736 23.9327 87.6008C23.7599 87.1688 23.3279 86.9096 22.8959 87.0824C22.3775 87.1688 22.1183 87.6872 22.2911 88.0328Z" fill="#F368AB"/>
<path d="M30.3264 72.8264C30.1536 72.9992 30.3264 73.3448 30.4128 73.4312C30.4992 73.5176 30.8448 73.604 31.0176 73.5176C31.1904 73.4312 31.104 73.0856 31.0176 72.9128C30.9312 72.9128 30.4992 72.74 30.3264 72.8264Z" fill="#F368AB"/>
<path d="M49.075 87.3415C48.9886 86.7367 48.7294 86.4775 48.1246 86.4775C47.4334 86.4775 46.915 87.0823 46.915 87.8599C46.915 88.6375 47.347 88.6375 47.347 89.1559C47.347 89.5879 47.6062 89.7607 48.0382 89.9335C48.4702 90.1063 49.2478 90.2791 49.4206 89.5879C49.5934 88.8967 49.1614 88.7239 48.9886 88.7239C48.8158 88.7239 48.5566 88.3783 48.7294 88.2919C48.9022 88.2055 49.1614 87.9463 49.075 87.3415Z" fill="#F368AB"/>
<path d="M30.5856 77.2328C30.5856 77.5784 30.7584 77.924 31.0176 78.0968C31.2768 78.2696 31.8816 77.924 31.8816 77.492C31.8816 77.2328 31.7088 76.9736 31.6224 76.8008C31.0176 76.7144 30.4992 76.8872 30.5856 77.2328Z" fill="#F368AB"/>
<path d="M20.1313 79.7384C19.9585 79.9112 19.4401 80.2568 19.6129 80.6888C19.8721 81.1208 20.4769 81.0344 20.7361 80.948C21.0817 80.8616 21.0817 80.4296 20.9953 80.1704C20.9089 79.7384 20.3905 79.4792 20.1313 79.7384Z" fill="#F368AB"/>
<path d="M13.8243 60.6441C13.6515 61.1625 13.9971 61.6809 14.4291 61.7673C14.8611 61.8537 15.2931 61.5081 15.3795 61.0761C15.4659 60.6441 15.2931 60.2121 14.8611 60.1257C14.3427 59.9529 13.9107 60.2121 13.8243 60.6441Z" fill="#F368AB"/>
</svg>
