<svg width="289" height="325" viewBox="0 0 289 325" fill="none" xmlns="http://www.w3.org/2000/svg">
<path d="M129.704 248.593C198.578 248.593 254.412 192.944 254.412 124.296C254.412 55.6494 198.578 0 129.704 0C60.8293 0 4.99561 55.6494 4.99561 124.296C4.99561 192.944 60.8293 248.593 129.704 248.593Z" fill="#7DE2D1"/>
<path d="M149.484 289.433C149.57 290.003 150.553 290.728 151.041 290.683C151.692 290.556 151.932 290.025 151.803 289.172C151.676 288.521 151.145 288.281 150.332 288.491C149.763 288.576 149.44 288.945 149.484 289.433Z" fill="#1BA9F5"/>
<path d="M157.515 285.342C157.922 285.34 158.609 284.683 158.565 284.194C158.561 283.788 157.907 283.304 157.499 283.307C157.092 283.311 156.851 283.638 156.895 284.126C156.941 284.817 157.189 285.304 157.515 285.342Z" fill="#1BA9F5"/>
<path d="M155.871 288.733C156.073 288.528 156.071 288.121 155.946 287.878C155.864 287.716 155.497 287.597 155.292 287.598C154.804 287.643 154.357 287.768 153.869 287.812C153.504 287.897 153.343 288.183 153.468 288.63C153.591 288.669 153.673 288.831 153.877 288.83C154.366 288.786 154.652 288.946 155.06 289.146C155.264 289.145 155.67 288.939 155.871 288.733Z" fill="#1BA9F5"/>
<path d="M161.698 289.136C162.47 289.049 162.951 287.987 162.739 286.971C162.571 286.24 161.957 285.837 161.225 286.006C160.29 286.176 159.848 286.912 160.018 287.847C160.147 288.7 160.966 289.304 161.698 289.136Z" fill="#1BA9F5"/>
<path d="M142.018 292.828C142.588 292.743 143.072 292.088 142.946 291.641C142.821 291.194 141.312 291.042 140.95 291.534C140.627 291.902 141.449 292.914 142.018 292.828Z" fill="#1BA9F5"/>
<path d="M143.87 290.046C143.787 289.884 143.622 289.56 143.337 289.603C143.052 289.645 143.097 290.134 143.139 290.214C143.221 290.377 143.426 290.579 143.711 290.536C143.955 290.412 143.911 290.127 143.87 290.046Z" fill="#1BA9F5"/>
<path d="M138.235 293.223C138.604 293.546 138.847 293.422 139.452 292.603C139.365 291.831 138.427 291.797 138.186 292.124C137.944 292.452 138.029 293.021 138.235 293.223Z" fill="#1BA9F5"/>
<path d="M186.442 282.353C186.117 282.519 185.875 282.846 185.838 283.172C185.799 283.497 186.413 283.9 186.819 283.693C187.062 283.57 187.223 283.284 187.343 283.12C187.177 282.592 186.767 282.187 186.442 282.353Z" fill="#1BA9F5"/>
<path d="M190.579 280.042C190.333 279.963 190.01 280.332 189.971 280.454C189.931 280.577 190.015 280.942 190.179 281.063C190.342 281.183 190.626 280.937 190.747 280.773C190.867 280.609 190.865 280.203 190.579 280.042Z" fill="#1BA9F5"/>
<path d="M131.861 290.342C132.066 290.544 132.556 290.703 132.799 290.579C133.367 290.29 133.362 289.679 133.154 289.07C132.664 288.911 132.133 288.671 131.77 289.163C131.448 289.531 131.492 290.019 131.861 290.342Z" fill="#1BA9F5"/>
<path d="M169.229 283.666C169.676 283.539 170.039 283.048 169.913 282.602C169.788 282.155 169.379 281.955 168.891 281.999C168.444 282.124 168.121 282.493 168.246 282.94C168.291 283.428 168.782 283.791 169.229 283.666Z" fill="#1BA9F5"/>
<path d="M175.004 288.179C175.089 288.545 175.497 288.746 175.944 288.62C176.391 288.494 176.469 288.046 176.345 287.803C176.222 287.56 175.849 286.83 175.443 287.037C175.119 287.201 174.962 287.895 175.004 288.179Z" fill="#1BA9F5"/>
<path d="M173.216 283.269C173.703 283.02 173.822 282.653 173.778 282.165C173.651 281.515 173.117 280.868 172.628 280.913C171.652 281.001 171.456 282.02 171.419 282.55C171.343 283.202 172.486 283.64 173.216 283.269Z" fill="#1BA9F5"/>
<path d="M192.968 278.315C193.379 278.922 194.23 278.386 194.39 278.1C194.551 277.814 193.484 276.723 192.996 276.768C192.63 276.852 192.475 277.748 192.968 278.315Z" fill="#1BA9F5"/>
<path d="M185.739 280.975C185.614 280.528 185.165 280.246 184.718 280.371C184.271 280.498 184.07 280.906 184.235 281.231C184.4 281.554 184.647 281.837 184.932 281.795C185.137 281.996 185.866 281.422 185.739 280.975Z" fill="#1BA9F5"/>
<path d="M9.84454 223.183C9.96699 223.223 10.0894 223.263 10.2517 223.18C9.80009 222.695 9.38829 222.088 8.93664 221.603C8.73932 222.419 9.15111 223.026 9.84454 223.183Z" fill="#1BA9F5"/>
<path d="M59.7412 267.939C60.476 268.178 61.0836 267.766 61.3621 266.909C61.5609 266.297 61.1904 265.771 60.3746 265.573C59.6812 265.416 59.1531 265.583 58.994 266.072C58.8349 266.562 59.3739 267.819 59.7412 267.939Z" fill="#1BA9F5"/>
<path d="M64.1214 265.708C64.2852 265.828 64.4888 265.826 64.5699 265.785C64.2837 265.625 64.0388 265.545 63.7524 265.385C63.8352 265.547 63.999 265.667 64.1214 265.708Z" fill="#1BA9F5"/>
<path d="M96.9032 276.893C96.781 276.854 96.5776 276.855 96.4136 276.734C96.5776 276.855 96.6998 276.895 96.9032 276.893Z" fill="#1BA9F5"/>
<path d="M98.4313 284.899C98.6347 284.898 98.8381 284.897 98.9989 284.611C99.0784 284.366 98.8734 284.164 98.7922 284.205C98.5888 284.207 98.2624 284.168 98.1016 284.454C97.8597 284.782 98.3501 284.941 98.4313 284.899Z" fill="#1BA9F5"/>
<path d="M62.9765 265.065C62.2815 264.704 61.464 264.303 60.769 263.942L60.8105 264.024C61.6723 264.912 62.2448 265.234 62.9765 265.065Z" fill="#1BA9F5"/>
<path d="M206.358 261.687C206.97 261.885 207.782 261.676 208.106 261.307C208.227 261.144 208.307 260.898 208.305 260.695C207.614 260.944 207.007 261.357 206.358 261.687Z" fill="#1BA9F5"/>
<path d="M179.768 288.103C180.499 287.934 180.982 287.075 180.855 286.425C180.81 285.937 179.87 285.497 179.219 285.624C178.569 285.751 178.125 286.283 178.252 286.933C178.298 287.625 179.158 288.311 179.768 288.103Z" fill="#1BA9F5"/>
<path d="M103.31 284.048C103.798 284.004 104.12 283.432 104.115 282.821C103.87 282.742 103.582 282.378 103.176 282.381C102.646 282.344 102.324 282.916 102.41 283.485C102.372 283.811 102.822 284.093 103.31 284.048Z" fill="#1BA9F5"/>
<path d="M126.911 282.036C127.2 282.604 128.299 282.555 129.11 282.142C129.516 281.935 129.715 281.323 129.752 280.793C128.734 280.801 127.797 280.768 126.779 280.775C126.578 281.184 126.623 281.672 126.911 282.036Z" fill="#1BA9F5"/>
<path d="M122.459 285.53C122.466 286.344 123.326 287.029 124.221 286.982C125.035 286.975 125.964 285.991 125.877 285.218C125.829 284.323 125.09 283.475 124.317 283.562C123.544 283.649 122.494 284.797 122.459 285.53Z" fill="#1BA9F5"/>
<path d="M118.629 285.233C118.674 285.722 119.125 286.206 119.532 286.203C119.939 286.2 120.626 285.544 120.584 285.259C120.581 284.852 120.006 284.327 119.477 284.291C118.947 284.254 118.543 284.664 118.629 285.233Z" fill="#1BA9F5"/>
<path d="M130.123 286.733C130.537 287.544 131.15 287.946 131.802 288.022C132.577 288.139 132.936 287.24 133.708 286.949C135.496 286.447 135.362 284.983 134.783 283.848C134.577 283.443 134.249 283.201 133.921 282.959C133.391 282.719 132.902 282.763 132.293 282.971C131.684 283.18 131.071 282.981 130.587 283.432C130.022 284.129 129.339 285.396 130.123 286.733Z" fill="#1BA9F5"/>
<path d="M105.026 284.808C105.071 285.296 105.481 285.7 105.969 285.656C106.457 285.612 106.901 285.079 106.815 284.51C106.771 284.022 106.28 283.659 105.791 283.703C105.344 283.83 104.981 284.321 105.026 284.808Z" fill="#1BA9F5"/>
<path d="M102.323 288.126C102.852 287.959 103.094 287.632 103.048 287.143C102.88 286.412 102.023 286.134 101.739 286.177C101.453 286.219 100.891 287.12 101.302 287.727C101.387 288.093 101.876 288.252 102.323 288.126Z" fill="#1BA9F5"/>
<path d="M126.318 289.692C126.359 289.773 126.441 289.732 126.482 289.813C126.159 290.182 125.798 290.877 125.843 291.364C125.887 291.853 126.337 292.134 126.825 292.09C127.598 292.002 128.246 291.468 128.16 290.9C128.115 290.411 127.827 290.047 127.5 289.805C127.702 289.6 127.821 289.233 127.737 288.867C127.529 288.258 126.999 288.222 126.388 288.226C126.188 288.635 125.744 289.167 126.318 289.692Z" fill="#1BA9F5"/>
<path d="M98.5321 287.504C98.7798 287.99 100 287.778 100.24 287.246C100.481 286.715 100.19 285.945 99.741 285.867C99.2112 285.83 98.3255 287.098 98.5321 287.504Z" fill="#1BA9F5"/>
<path d="M3.7589 226.079C3.59356 225.754 3.34711 225.471 2.98127 225.556C2.33076 225.683 2.17165 226.172 2.09521 226.824C2.5866 227.186 2.91576 227.632 3.52336 227.22C3.88758 226.932 3.96558 226.485 3.7589 226.079Z" fill="#1BA9F5"/>
<path d="M12.1183 227.643C11.7923 227.605 11.2674 228.179 11.1066 228.465C10.946 228.751 11.2354 229.318 11.6425 229.316C12.01 229.435 12.4568 229.309 12.4537 228.902C12.4919 228.576 12.4857 227.762 12.1183 227.643Z" fill="#1BA9F5"/>
<path d="M7.16434 234.763C6.67291 234.4 6.14334 234.364 5.61681 234.734C5.04903 235.023 5.01237 235.553 5.17926 236.081C5.30483 236.528 5.39373 237.503 6.04583 237.58C6.69792 237.656 6.61214 237.087 6.93659 236.922C7.58393 236.388 7.69702 235.207 7.16434 234.763Z" fill="#1BA9F5"/>
<path d="M17.5198 236.434C18.0495 236.47 18.455 236.264 18.533 235.815C18.6906 235.122 17.9527 234.476 17.6267 234.439C17.3007 234.4 16.491 235.018 16.537 235.709C16.6213 236.074 16.9903 236.397 17.5198 236.434Z" fill="#1BA9F5"/>
<path d="M9.28216 240.119C8.91481 240 8.38672 240.167 8.18628 240.576C7.98583 240.984 8.19415 241.593 8.64261 241.671C9.09106 241.749 9.53804 241.624 9.73848 241.215C9.93893 240.806 9.69092 240.32 9.28216 240.119Z" fill="#1BA9F5"/>
<path d="M6.79199 228.62C6.50576 228.459 6.2639 228.787 6.22412 228.909C6.22568 229.112 6.22724 229.316 6.3911 229.437C6.43244 229.518 6.79822 229.434 6.838 229.312C6.91755 229.066 7.07822 228.78 6.79199 228.62Z" fill="#1BA9F5"/>
<path d="M263.32 208.46C263.12 208.87 262.797 209.238 262.597 209.647C262.8 209.645 263.044 209.521 263.245 209.316C263.325 209.071 263.364 208.746 263.32 208.46Z" fill="#1BA9F5"/>
<path d="M0.621331 215.114C0.498875 215.074 0.0917228 215.077 0.0121606 215.322C-0.0673934 215.566 0.260205 215.808 0.505116 215.888C0.627572 215.928 0.912269 215.885 0.991823 215.64C0.909144 215.478 0.78513 215.234 0.621331 215.114Z" fill="#1BA9F5"/>
<path d="M211.473 259.694C211.064 259.494 210.617 259.619 210.336 260.069C210.094 260.397 210.056 260.722 210.302 261.006C210.754 261.49 211.282 261.324 211.891 261.116C211.968 260.464 212.085 259.892 211.473 259.694Z" fill="#1BA9F5"/>
<path d="M261.158 213.239C260.953 213.037 260.667 212.877 260.423 212.797C260.02 213.411 259.617 214.024 259.133 214.679C259.216 214.842 259.299 215.004 259.463 215.125C260.037 215.649 260.974 215.683 261.255 215.233C261.659 214.823 261.569 213.643 261.158 213.239Z" fill="#1BA9F5"/>
<path d="M18.049 247.093C17.8454 247.095 17.4781 246.976 17.3986 247.22C17.319 247.466 17.5241 247.667 17.6879 247.789C17.8103 247.828 18.34 247.865 18.4195 247.62C18.418 247.416 18.1715 247.134 18.049 247.093Z" fill="#1BA9F5"/>
<path d="M16.1594 239.578C15.3833 239.259 14.3686 239.673 14.2508 240.244C14.0917 240.733 14.5862 241.503 15.1985 241.702C15.8107 241.901 16.4184 241.489 16.6984 240.836C16.8559 240.143 16.6492 239.737 16.1594 239.578Z" fill="#1BA9F5"/>
<path d="M21.2838 249.429C20.6715 249.231 20.3884 249.477 20.2277 249.763C20.1084 250.13 20.1115 250.538 20.5599 250.616C20.886 250.653 21.3329 250.528 21.4125 250.283C21.6145 250.079 21.4078 249.673 21.2838 249.429Z" fill="#1BA9F5"/>
<path d="M28.0824 243.923C28.2415 243.434 27.6276 243.031 27.3414 242.871C27.0138 242.629 26.6082 242.835 26.4491 243.326C26.2899 243.815 26.3742 244.181 26.9038 244.218C27.1885 244.174 27.9233 244.413 28.0824 243.923Z" fill="#1BA9F5"/>
<path d="M23.4802 238.504C22.623 238.226 21.5684 238.763 21.29 239.62C21.1324 240.314 21.6286 241.287 22.3632 241.525C23.1393 241.845 23.9903 241.309 24.2672 240.249C24.587 239.473 24.2563 238.824 23.4802 238.504Z" fill="#1BA9F5"/>
<path d="M14.8745 247.28C14.9938 246.913 14.7887 246.711 14.4627 246.673C14.1366 246.635 13.976 246.921 13.8551 247.085C13.8153 247.207 13.7771 247.533 14.1444 247.652C14.5118 247.772 14.7552 247.648 14.8745 247.28Z" fill="#1BA9F5"/>
<path d="M11.7495 248.567C11.4633 248.406 11.2628 248.814 11.1419 248.978C11.1021 249.101 11.2675 249.425 11.2675 249.425C11.471 249.424 11.7557 249.38 11.7956 249.258C11.9578 249.175 12.0358 248.727 11.7495 248.567Z" fill="#1BA9F5"/>
<path d="M218.152 254.555C217.989 254.638 217.828 254.72 217.788 254.843C217.95 254.76 217.989 254.638 218.152 254.555Z" fill="#1BA9F5"/>
<path d="M230.162 249.05C230.082 249.295 229.841 249.622 229.844 250.029C229.888 250.517 230.542 250.798 231.07 250.63C231.517 250.505 231.676 250.015 231.551 249.569C231.344 249.163 230.771 248.841 230.162 249.05Z" fill="#1BA9F5"/>
<path d="M228.294 255.006C228.17 254.764 227.758 254.156 227.392 254.24C227.027 254.324 227.033 255.138 227.157 255.382C227.24 255.544 227.648 255.744 227.933 255.701C228.217 255.658 228.5 255.412 228.294 255.006Z" fill="#1BA9F5"/>
<path d="M237.355 247.122C237.151 247.124 236.868 247.37 236.869 247.574C236.871 247.777 237.036 248.102 237.281 248.181C237.404 248.221 237.931 248.054 238.012 247.809C237.968 247.525 237.477 247.162 237.355 247.122Z" fill="#1BA9F5"/>
<path d="M235.665 249.822C235.416 249.335 235.008 249.135 234.603 249.341C233.912 249.591 233.797 250.569 233.84 250.853C233.965 251.097 234.904 251.537 235.47 251.044C235.834 250.756 235.994 250.267 235.665 249.822Z" fill="#1BA9F5"/>
<path d="M194.817 275.329C194.734 275.167 194.529 274.965 194.326 274.967C194.203 274.926 193.799 275.337 193.841 275.418C193.923 275.58 194.29 275.7 194.495 275.698C194.617 275.737 194.859 275.41 194.817 275.329Z" fill="#1BA9F5"/>
<path d="M225.581 256.899C225.411 255.965 224.632 255.238 223.899 255.406C223.045 255.535 222.16 256.803 222.328 257.535C222.538 258.348 223.438 258.91 224.292 258.782C225.105 258.572 225.709 257.754 225.581 256.899Z" fill="#1BA9F5"/>
<path d="M202.315 270.794C202.231 270.429 201.698 269.985 201.332 270.069C200.966 270.153 200.849 270.724 200.974 271.171C201.058 271.536 201.344 271.697 201.711 271.613C202.077 271.529 202.441 271.241 202.315 270.794Z" fill="#1BA9F5"/>
<path d="M266.401 211.897C266.235 211.572 265.544 211.618 265.383 211.904C265.304 212.149 265.388 212.515 265.512 212.759C265.676 212.879 266.248 213.2 266.45 212.996C266.733 212.749 266.525 212.14 266.401 211.897Z" fill="#1BA9F5"/>
<path d="M242.301 239.189C242.424 239.228 242.465 239.309 242.588 239.349C242.957 239.672 243.241 239.629 243.647 239.422C244.052 239.216 244.091 238.889 244.088 238.483C243.999 237.506 243.752 237.224 242.775 237.312C242.206 237.398 241.595 237.403 241.026 237.488C241.187 237.202 241.144 236.918 240.979 236.594C240.938 236.513 240.773 236.391 240.651 236.352C240.247 236.762 239.843 237.172 239.358 237.624C239.522 237.744 239.685 237.865 239.93 237.945C239.82 239.533 240.679 240.015 242.301 239.189Z" fill="#1BA9F5"/>
<path d="M225.258 252.058C225.385 252.709 226.205 253.313 226.855 253.186C227.505 253.059 228.027 252.078 227.942 251.509C227.856 250.94 227.08 250.62 226.348 250.788C225.494 250.917 225.131 251.408 225.258 252.058Z" fill="#1BA9F5"/>
<path d="M249.132 227.333C248.728 227.743 248.406 228.111 248.042 228.603C248.33 228.763 248.695 228.68 248.978 228.433C249.301 228.064 249.42 227.697 249.132 227.333Z" fill="#1BA9F5"/>
<path d="M220.705 252.949C221.152 252.822 221.599 252.697 221.635 252.168C221.352 252.414 220.947 252.621 220.664 252.868L220.705 252.949Z" fill="#1BA9F5"/>
<path d="M232.627 246.671C232.461 246.143 231.888 245.821 231.401 246.07C230.954 246.195 230.633 246.767 230.759 247.214C230.884 247.661 231.416 247.901 231.904 247.856C232.513 247.648 232.753 247.117 232.627 246.671Z" fill="#1BA9F5"/>
<path d="M212.44 258.384C212.65 259.196 212.977 259.438 213.547 259.352C214.279 259.184 214.681 258.571 214.595 258.001C214.513 257.839 214.144 257.517 213.857 257.356C213.371 257.604 212.925 257.933 212.439 258.181C212.399 258.303 212.399 258.303 212.44 258.384Z" fill="#1BA9F5"/>
<path d="M218.011 268.11C217.846 267.786 217.558 267.422 217.234 267.587C216.909 267.752 216.343 268.245 216.386 268.529C216.47 268.895 217.284 268.888 217.65 268.805C217.976 268.843 218.218 268.515 218.011 268.11Z" fill="#1BA9F5"/>
<path d="M192.586 281.777C192.303 282.023 192.516 283.243 193.046 283.279C193.494 283.357 193.979 282.906 194.018 282.58C194.054 282.051 192.87 281.531 192.586 281.777Z" fill="#1BA9F5"/>
<path d="M69.897 270.221C70.0163 269.854 69.6443 269.125 69.2356 268.924C68.7044 268.684 68.1366 268.974 68.0188 269.544C67.8597 270.034 68.149 270.601 68.5165 270.721C68.9251 270.921 69.7777 270.589 69.897 270.221Z" fill="#1BA9F5"/>
<path d="M66.1867 269.558C65.452 269.32 64.6806 269.611 64.523 270.303C64.2843 271.038 64.7391 271.93 65.2289 272.089C65.7187 272.248 66.7304 271.427 66.8482 270.856C67.0073 270.366 66.5954 269.758 66.1867 269.558Z" fill="#1BA9F5"/>
<path d="M73.9272 270.109C73.1924 269.871 71.7323 270.615 71.4936 271.35C71.255 272.083 71.8321 273.015 72.6893 273.293C73.4241 273.532 74.6409 272.912 74.8795 272.178C75.1166 271.24 74.743 270.307 73.9272 270.109Z" fill="#1BA9F5"/>
<path d="M56.4924 263.771C56.044 263.693 55.5174 264.064 55.3981 264.431C55.239 264.92 55.5284 265.489 55.9769 265.566C56.4667 265.725 57.0743 265.314 57.1523 264.865C57.2303 264.417 56.9409 263.85 56.4924 263.771Z" fill="#1BA9F5"/>
<path d="M160.689 279.742C161.018 280.187 161.347 280.632 161.954 280.221C162.319 279.933 162.357 279.608 162.273 279.241C162.557 279.199 162.801 279.075 163.004 279.073C163.085 279.032 163.37 278.989 163.286 278.623C163.202 278.257 162.547 277.774 162.1 277.9C161.734 277.984 161.494 278.515 161.578 278.88C161.131 279.006 160.848 279.253 160.689 279.742Z" fill="#1BA9F5"/>
<path d="M87.812 280.708C87.7325 280.952 87.7751 281.237 88.3476 281.558C88.92 281.879 89.2858 281.795 89.7303 281.263C90.174 280.73 89.9231 279.836 89.2678 279.354C88.6535 278.951 88.2893 279.239 87.9203 278.916C87.5512 278.593 87.2272 278.758 86.8631 279.046C86.4981 279.334 85.851 279.868 86.2628 280.475C86.7557 281.042 87.1616 280.835 87.2822 280.671C87.4036 280.507 87.9728 280.422 87.812 280.708Z" fill="#1BA9F5"/>
<path d="M93.9115 279.644C94.3986 279.395 94.9678 279.309 95.0867 278.943C95.2065 278.575 95.1236 278.413 94.9998 278.17C94.8759 277.926 94.8325 277.642 94.5462 277.481C94.219 277.239 93.4842 277.001 92.8748 277.209C92.3073 277.498 91.9841 277.867 91.948 278.397C91.9111 278.926 92.199 279.29 92.4852 279.451C92.8125 279.692 93.4251 279.891 93.9115 279.644Z" fill="#1BA9F5"/>
<path d="M46.2679 263.158C45.9004 263.039 45.2102 263.288 45.0097 263.696C44.8904 264.064 45.1798 264.631 45.5471 264.751C46.037 264.91 46.6048 264.62 46.7241 264.253C46.9246 263.845 46.6352 263.277 46.2679 263.158Z" fill="#1BA9F5"/>
<path d="M35.9639 257.579C36.4553 257.942 36.8655 258.345 37.3921 257.976C37.7563 257.688 37.8343 257.24 37.6276 256.834C37.4209 256.429 37.2157 256.226 36.7688 256.352C36.077 256.398 36.0403 256.927 35.9639 257.579Z" fill="#1BA9F5"/>
<path d="M165.831 281.209C165.705 280.762 165.255 280.481 164.768 280.728C164.24 280.896 164 281.426 164.125 281.873C164.251 282.32 164.618 282.439 165.065 282.314C165.594 282.147 165.956 281.655 165.831 281.209Z" fill="#1BA9F5"/>
<path d="M152.488 288.108C152.325 288.19 151.959 288.275 151.921 288.601C151.883 288.926 152.413 288.963 152.494 288.922C152.656 288.84 152.899 288.716 152.857 288.43C152.813 288.146 152.569 288.067 152.488 288.108Z" fill="#1BA9F5"/>
<path d="M170.787 279.705C171.353 279.212 171.227 278.765 171.512 278.723C171.796 278.68 172.37 279.002 172.692 278.633C173.015 278.264 172.393 276.844 172.229 276.723C172.024 276.521 171.331 276.363 171.49 275.874C171.53 275.752 171.57 275.629 171.651 275.588C171.204 275.713 170.676 275.881 170.229 276.006C170.27 276.087 170.312 276.167 170.353 276.249C170.437 276.614 170.318 276.982 169.83 277.027C169.342 277.071 168.736 277.686 168.946 278.702C168.994 279.597 170.22 280.198 170.787 279.705Z" fill="#1BA9F5"/>
<path d="M100.453 277.843C100.415 278.169 100.377 278.495 100.582 278.697C100.582 278.697 100.542 278.819 100.583 278.9C100.588 279.511 101.449 280.196 102.06 280.191C102.548 280.147 103.113 279.451 103.066 278.759C103.065 278.556 102.94 278.312 102.939 278.109C102.165 277.992 101.348 277.796 100.574 277.679C100.493 277.72 100.412 277.762 100.453 277.843Z" fill="#1BA9F5"/>
<path d="M43.2221 253.576C43.0996 253.536 43.0582 253.454 42.9355 253.415C43.0582 253.454 43.1808 253.495 43.2221 253.576Z" fill="#1BA9F5"/>
<path d="M216.954 257.617C216.796 258.31 217.496 259.282 218.19 259.439C218.924 259.678 219.247 259.309 219.602 257.8C220.173 257.918 220.785 258.117 220.983 257.301C221.142 256.812 221.058 256.446 220.607 256.165C220.443 256.043 220.199 255.964 220.036 256.047C219.631 256.253 219.308 256.622 218.944 256.91C217.925 256.714 217.153 257.005 216.954 257.617Z" fill="#1BA9F5"/>
<path d="M12.1574 232.73C11.7486 232.53 11.0997 232.86 10.9803 233.228C10.861 233.595 11.028 234.123 11.5178 234.282C12.0076 234.441 12.6168 234.233 12.7361 233.866C12.8554 233.498 12.5661 232.931 12.1574 232.73Z" fill="#1BA9F5"/>
<path d="M84.3805 273.977C84.1804 274.386 84.4272 274.669 84.7946 274.788C85.1613 274.907 85.4877 274.946 85.6878 274.537C85.8092 274.374 85.7657 274.088 85.6837 273.927C85.3573 273.888 85.071 273.728 84.7454 273.689C84.5831 273.772 84.4207 273.855 84.3805 273.977Z" fill="#1BA9F5"/>
<path d="M216.934 265.594C217.503 265.509 217.865 265.018 217.699 264.49C217.573 264.043 217.001 263.722 216.635 263.806C216.188 263.932 215.785 264.545 215.952 265.073C216.078 265.52 216.487 265.72 216.934 265.594Z" fill="#1BA9F5"/>
<path d="M104.947 279.844C104.747 280.252 105.037 280.82 105.485 280.898C105.975 281.057 106.258 280.81 106.417 280.321C106.456 280.199 106.456 280.199 106.497 280.076C106.62 280.319 106.907 280.48 107.11 280.478C107.559 280.556 108.207 280.022 108.2 279.208C108.159 279.127 108.198 279.005 108.157 278.924C107.709 278.846 107.138 278.728 106.689 278.65C106.527 278.733 106.488 278.855 106.366 279.019C106.327 279.141 106.328 279.344 106.329 279.548C106.288 279.467 106.166 279.427 106.043 279.388C105.514 279.351 105.067 279.476 104.947 279.844Z" fill="#1BA9F5"/>
<path d="M242.069 235.323C242.479 235.728 243.129 235.601 243.777 235.067C244.262 234.615 244.299 234.085 243.889 233.682C243.847 233.601 243.724 233.561 243.602 233.521C243.077 234.095 242.511 234.588 241.986 235.162C241.986 235.162 242.027 235.243 242.069 235.323Z" fill="#1BA9F5"/>
<path d="M220.313 265.609C220.394 265.568 220.556 265.485 220.473 265.323C220.432 265.242 220.35 265.08 220.146 265.082C219.984 265.164 219.985 265.368 219.985 265.368C220.068 265.53 220.232 265.651 220.313 265.609Z" fill="#1BA9F5"/>
<path d="M213.735 262.729C213.611 262.487 213.122 262.327 212.959 262.409C212.756 262.411 212.312 262.944 212.355 263.228C212.479 263.472 213.173 263.629 213.254 263.588C213.456 263.383 213.818 262.891 213.735 262.729Z" fill="#1BA9F5"/>
<path d="M25.2555 246.998C26.5214 247.476 26.6025 247.435 26.8381 246.293C26.3865 245.809 25.8982 245.853 25.332 246.346C23.9404 245.42 23.1293 245.833 22.9398 247.666C22.8587 247.707 22.6964 247.79 22.6152 247.832C22.127 247.876 22.0077 248.244 21.9297 248.692C21.9328 249.099 22.1379 249.3 22.4655 249.542C23.3243 250.024 23.7712 249.899 24.1308 249C24.5332 248.387 24.8944 247.692 25.2555 246.998Z" fill="#1BA9F5"/>
<path d="M259.658 219.316C260.025 219.434 260.553 219.268 260.673 218.901C260.832 218.411 259.971 217.726 259.647 217.891C259.323 218.056 259.249 219.115 259.658 219.316Z" fill="#1BA9F5"/>
<path d="M248.034 232.795C248.195 232.509 248.11 232.143 248.19 231.898C247.863 231.657 247.455 231.66 247.131 231.825C247.089 231.744 247.048 231.663 247.048 231.663C246.925 231.42 246.596 231.178 246.352 231.099C245.619 231.064 245.379 231.595 245.302 232.247C245.794 232.609 246.122 233.054 246.73 232.643L246.811 232.601C246.852 232.682 246.894 232.763 247.057 232.884C247.304 233.167 247.834 233.204 248.034 232.795Z" fill="#1BA9F5"/>
<path d="M206.871 270.108C206.788 269.946 206.583 269.744 206.379 269.746C206.256 269.706 205.851 269.912 205.894 270.197C205.936 270.481 206.344 270.479 206.547 270.477C206.062 270.928 205.782 271.582 206.032 272.272C206.241 273.084 207.305 273.768 208.037 273.6C208.931 273.348 209.698 272.447 209.406 271.676C209.238 270.945 207.888 270.1 207.157 270.269C207.076 270.31 206.913 270.393 206.832 270.434C206.83 270.23 206.871 270.108 206.871 270.108Z" fill="#1BA9F5"/>
<path d="M141.09 288.603C141.01 288.847 141.257 289.131 141.909 289.207C142.561 289.283 142.886 289.117 143.084 288.506C143.284 287.893 142.871 287.286 142.299 286.965C142.541 286.638 142.374 286.11 141.844 286.073C141.233 286.078 140.498 285.839 139.933 286.332C139.853 286.577 139.814 286.902 139.735 287.147C139.735 287.147 139.735 287.147 139.654 287.188C138.924 287.561 138.441 288.216 138.566 288.662C138.65 289.028 138.978 289.27 139.385 289.267C139.669 289.224 139.874 289.222 140.035 289.14C140.197 289.057 140.319 288.893 140.4 288.852C140.641 288.525 141.047 288.318 141.09 288.603Z" fill="#1BA9F5"/>
<path d="M120.223 280.744C120.426 280.742 120.67 280.618 120.872 280.413C120.343 280.376 119.935 280.38 119.405 280.343C119.733 280.585 120.02 280.745 120.223 280.744Z" fill="#1BA9F5"/>
<path d="M113.417 279.819C112.97 279.945 112.725 279.866 112.438 279.705C111.664 279.589 110.889 279.472 110.034 279.398C110.239 279.599 110.444 279.802 110.892 279.88C110.487 280.086 110.285 280.291 110 280.334C109.431 280.42 109.27 280.706 109.233 281.236C109.197 281.765 109.364 282.292 109.895 282.533C111.53 283.334 112.099 283.248 113.146 281.694C113.146 281.694 113.227 281.652 113.267 281.53C113.187 281.775 113.026 282.061 112.987 282.183C112.948 282.509 113.155 282.915 113.562 282.911C114.092 282.948 114.415 282.579 114.33 282.214C114.329 282.01 114.164 281.686 113.917 281.403C114.445 281.236 114.647 281.031 114.603 280.543C114.56 280.259 114.394 279.934 114.108 279.773C113.905 279.775 113.66 279.695 113.375 279.739C113.498 279.778 113.498 279.778 113.417 279.819Z" fill="#1BA9F5"/>
<path d="M154.989 290.409C154.984 289.799 154.491 289.232 154.003 289.277C153.638 289.361 153.359 290.218 153.403 290.706C153.323 290.747 153.281 290.666 153.2 290.707C152.753 290.833 152.27 291.488 152.353 291.853C152.479 292.3 153.215 292.743 153.662 292.617C154.109 292.491 154.35 291.961 154.224 291.514C154.183 291.433 154.141 291.352 154.1 291.27C154.466 291.186 154.993 290.816 154.989 290.409Z" fill="#1BA9F5"/>
<path d="M201.062 277.357C201.265 277.152 201.345 276.907 201.301 276.623C201.176 276.176 200.725 275.895 200.319 275.897C200.237 275.939 200.156 275.98 200.075 276.022C199.831 275.942 199.504 275.904 199.22 275.946C198.203 276.158 197.64 277.058 197.891 277.951C198.101 278.763 198.756 279.247 199.488 279.079C200.301 278.869 201.028 278.09 201.062 277.357Z" fill="#1BA9F5"/>
<path d="M180.068 290.095C180.191 290.134 180.273 290.296 180.355 290.255C180.436 290.214 180.557 290.05 180.557 290.05C180.515 289.969 180.433 289.807 180.31 289.767C180.148 289.85 180.109 289.973 180.068 290.095Z" fill="#1BA9F5"/>
<path d="M180.304 283.539C181.202 283.899 182.096 283.648 182.414 282.669C182.649 281.528 182.115 280.88 181.258 280.602C180.033 280.204 179.841 281.63 179.144 281.066C178.448 280.501 179.259 280.088 178.236 279.485C177.172 278.802 175.995 279.299 176.002 280.113C176.008 280.927 176.703 281.288 176.624 281.532C176.544 281.778 176.101 282.514 176.592 282.876C177.82 283.681 178.258 282.334 178.667 282.535C179.115 282.613 179.65 283.26 180.304 283.539Z" fill="#1BA9F5"/>
<path d="M256.597 218.524C256.436 218.607 256.071 218.895 256.154 219.057C256.197 219.342 256.404 219.748 256.648 219.827C257.138 219.986 257.339 219.577 257.581 219.25C257.413 218.722 257.126 218.358 256.597 218.524Z" fill="#1BA9F5"/>
<path d="M201.344 266.284C201.422 265.835 200.85 265.514 200.403 265.64C199.956 265.766 199.795 266.052 199.798 266.458C199.801 266.866 200.66 267.347 200.943 267.101C201.226 266.854 201.306 266.61 201.344 266.284Z" fill="#1BA9F5"/>
<path d="M195.694 267.63C195.821 268.28 196.436 268.683 197.208 268.595C197.778 268.509 198.058 267.855 197.97 267.083C197.887 266.717 197.762 266.474 197.518 266.394C197.599 266.353 197.719 266.19 197.759 266.067C197.191 266.357 196.624 266.645 196.014 266.854C195.812 267.059 195.693 267.426 195.694 267.63Z" fill="#1BA9F5"/>
<path d="M193.31 269.968C192.945 270.052 192.743 270.258 192.582 270.544C192.135 270.669 191.895 271.199 192.061 271.727C192.188 272.174 192.637 272.456 193.165 272.289C193.612 272.164 193.895 271.917 193.934 271.591C194.217 271.345 194.377 271.058 194.293 270.693C194.249 270.205 193.757 269.843 193.31 269.968Z" fill="#1BA9F5"/>
<path d="M152.973 282.446C153.178 282.649 153.545 282.768 153.83 282.725C154.724 282.474 155.168 281.941 155.082 281.372C154.998 281.007 154.384 280.604 153.936 280.526C153.689 280.244 153.321 280.124 152.833 280.168C152.141 280.214 151.86 280.664 151.907 281.559C151.994 282.128 152.281 282.492 152.81 282.529C152.769 282.448 152.892 282.488 152.973 282.446Z" fill="#1BA9F5"/>
<path d="M195.11 271.094C195.192 271.256 195.277 271.622 195.561 271.579C195.846 271.536 195.885 271.21 195.925 271.087C195.923 270.884 195.635 270.52 195.432 270.521C195.146 270.564 195.109 270.89 195.11 271.094Z" fill="#1BA9F5"/>
<path d="M156.837 281.806C156.84 282.214 157.25 282.618 157.657 282.615C158.146 282.57 158.387 282.243 158.343 281.755C158.339 281.347 158.093 281.064 157.686 281.068C157.117 281.153 156.834 281.4 156.837 281.806Z" fill="#1BA9F5"/>
<path d="M176.589 277.056C177.239 276.929 177.883 275.988 177.756 275.338C177.631 274.891 176.855 274.571 176.204 274.699C175.554 274.826 175.029 275.399 175.196 275.927C175.323 276.578 176.019 277.142 176.589 277.056Z" fill="#1BA9F5"/>
<path d="M167.956 276.96C167.915 276.878 167.832 276.716 167.75 276.554C166.937 276.764 166.043 277.014 165.188 277.143C165.23 277.224 165.19 277.347 165.232 277.428C165.442 278.24 165.973 278.48 166.908 278.311C167.517 278.102 168.082 277.406 167.956 276.96Z" fill="#1BA9F5"/>
<path d="M186.779 273.192C186.536 273.316 186.417 273.683 186.499 273.846C186.582 274.008 186.868 274.169 186.991 274.208C187.113 274.248 187.355 273.921 187.354 273.717C187.271 273.555 187.023 273.069 186.779 273.192Z" fill="#1BA9F5"/>
<path d="M192.648 273.88C192.729 273.839 192.891 273.757 192.808 273.594C192.726 273.432 192.684 273.351 192.481 273.352C192.319 273.435 192.32 273.638 192.32 273.638C192.322 273.842 192.566 273.921 192.648 273.88Z" fill="#1BA9F5"/>
<path d="M198.694 271.107C198.649 270.619 198.28 270.296 197.873 270.299C197.588 270.342 197.264 270.507 197.143 270.671C196.861 271.121 197.027 271.445 197.683 272.132C198.089 271.926 198.739 271.799 198.694 271.107Z" fill="#1BA9F5"/>
<path d="M207.162 265.67C207.033 264.815 206.093 264.375 205.036 264.505C204.589 264.631 204.183 264.837 203.983 265.246C203.9 265.084 203.736 264.963 203.574 265.046C203.37 265.047 203.251 265.415 203.211 265.537C203.213 265.74 203.5 266.104 203.704 266.103C203.704 266.103 203.704 266.103 203.785 266.061C203.827 266.143 203.787 266.265 203.829 266.346C203.957 267.2 205.021 267.884 205.956 267.713C206.606 267.586 207.29 266.523 207.162 265.67Z" fill="#1BA9F5"/>
<path d="M209.855 261.131C209.895 261.008 209.607 260.644 209.364 260.768C209.12 260.893 209.123 261.299 209.084 261.421C209.125 261.503 209.33 261.705 209.533 261.703C209.696 261.621 209.857 261.334 209.855 261.131Z" fill="#1BA9F5"/>
<path d="M181.836 276.324C181.961 276.771 182.737 277.09 183.388 276.963C184.201 276.754 184.441 276.222 184.231 275.41C184.062 274.679 183.53 274.235 182.921 274.443C182.311 274.652 181.627 275.715 181.836 276.324Z" fill="#1BA9F5"/>
<path d="M191.506 273.645C191.832 273.683 192.277 273.354 192.438 273.068C192.518 272.823 192.473 272.335 192.268 272.133C191.817 271.648 190.923 271.899 190.682 272.43C190.4 272.88 190.773 273.61 191.506 273.645Z" fill="#1BA9F5"/>
<path d="M187.007 276.447C187.138 277.505 187.431 278.479 188.128 279.247C188.292 279.368 188.457 279.489 188.579 279.528C189.6 279.927 190.368 279.23 190.279 278.253C190.152 277.603 189.943 276.995 189.735 276.386C189.446 275.817 188.425 275.419 187.735 275.668C187.166 275.754 186.963 275.959 187.007 276.447Z" fill="#1BA9F5"/>
<path d="M133.746 281.414C134.195 281.492 134.763 281.202 135.167 280.792C134.352 280.799 133.538 280.805 132.847 280.851C133.093 281.134 133.421 281.376 133.746 281.414Z" fill="#1BA9F5"/>
<path d="M186.524 271.689C187.093 271.603 187.658 270.907 187.653 270.296C186.882 270.587 186.192 270.836 185.42 271.127C185.75 271.573 186.158 271.773 186.524 271.689Z" fill="#1BA9F5"/>
<path d="M157.187 279.687C157.352 280.012 157.761 280.213 158.166 280.005C158.816 279.675 159.22 279.265 159.055 278.94C158.972 278.779 158.767 278.576 158.522 278.497C158.156 278.581 157.749 278.584 157.302 278.71C157.222 278.954 157.144 279.403 157.187 279.687Z" fill="#1BA9F5"/>
<path d="M155.643 280.066C156.131 280.021 156.696 279.325 156.569 278.878L156.528 278.797C155.878 278.924 155.228 279.051 154.617 279.056C154.742 279.502 155.277 280.149 155.643 280.066Z" fill="#1BA9F5"/>
<path d="M150.471 280.146C150.554 280.308 150.922 280.427 151.123 280.222C151.245 280.058 151.324 279.814 151.242 279.652C151.242 279.652 151.242 279.652 151.201 279.571C150.915 279.613 150.712 279.615 150.427 279.657C150.388 279.78 150.389 279.984 150.471 280.146Z" fill="#1BA9F5"/>
<path d="M138.227 281.583C138.51 281.337 138.835 281.171 139.076 280.844C139.158 280.803 139.116 280.722 139.116 280.722C138.424 280.768 137.691 280.732 136.999 280.778C137.246 281.061 137.614 281.384 138.227 281.583Z" fill="#1BA9F5"/>
<path d="M163.404 278.052C163.769 277.968 163.972 277.763 164.01 277.438C163.481 277.604 162.993 277.649 162.424 277.734C162.629 277.936 162.997 278.056 163.404 278.052Z" fill="#1BA9F5"/>
<path d="M144.554 283.57C144.149 283.98 143.99 284.469 144.158 284.997C144.283 285.444 144.733 285.725 145.101 285.845C145.426 285.883 146.078 285.959 146.401 285.591C146.725 285.222 147.292 284.932 147.289 284.526C147.329 284.403 147.246 284.241 147.204 284.16C147.286 284.118 147.326 283.996 147.488 283.913C147.609 283.75 147.81 283.544 147.93 283.177C148.049 282.81 147.84 281.998 147.348 281.635C146.857 281.272 146.328 281.236 145.922 281.442C145.435 281.691 145.234 282.099 145.238 282.506C145.239 282.71 145.243 283.116 145.407 283.441C144.918 283.282 144.755 283.365 144.554 283.57Z" fill="#1BA9F5"/>
<path d="M202.181 263.917C201.937 264.041 201.653 264.083 201.409 264.208C201.451 264.288 201.451 264.288 201.573 264.329C201.819 264.611 202.103 264.365 202.181 263.917Z" fill="#1BA9F5"/>
<path d="M140.597 282.623C140.842 282.702 140.962 282.538 141.042 282.294C141.04 282.091 140.958 281.928 140.713 281.849C140.51 281.851 140.347 281.933 140.268 282.178C140.229 282.504 140.312 282.665 140.597 282.623Z" fill="#1BA9F5"/>
<path d="M135.474 283.598C135.396 284.047 135.804 284.247 136.17 284.163C136.577 284.16 136.901 283.994 136.898 283.588C136.896 283.18 136.485 282.777 135.914 282.659C135.753 282.945 135.512 283.272 135.474 283.598Z" fill="#1BA9F5"/>
<path d="M142.089 280.74C142.415 280.777 142.862 280.652 143.104 280.325C142.535 280.41 142.005 280.374 141.436 280.459C141.641 280.661 141.804 280.782 142.089 280.74Z" fill="#1BA9F5"/>
<path d="M204.898 262.431C204.574 262.596 204.249 262.761 203.925 262.927C204.088 263.047 204.292 263.046 204.535 262.922C204.658 262.962 204.819 262.676 204.898 262.431Z" fill="#1BA9F5"/>
<path d="M135.902 281.031C135.945 281.315 136.19 281.395 136.271 281.354C136.433 281.271 136.879 281.145 136.837 280.861C136.796 280.78 136.796 280.78 136.796 280.78C136.511 280.822 136.266 280.743 135.981 280.786C135.9 280.827 135.819 280.868 135.902 281.031Z" fill="#1BA9F5"/>
<path d="M148.767 280.81C149.133 280.726 149.537 280.316 149.654 279.745C148.963 279.791 148.312 279.918 147.539 280.006C147.949 280.409 148.482 280.853 148.767 280.81Z" fill="#1BA9F5"/>
<path d="M189.562 269.63C189.319 269.754 188.953 269.839 188.709 269.962C189.075 269.878 189.319 269.754 189.562 269.63Z" fill="#1BA9F5"/>
<path d="M152.389 285.911C153.121 285.742 153.319 285.131 153.068 284.237C152.943 283.79 152.206 283.348 151.759 283.474C151.232 283.64 150.386 284.786 150.592 285.192C150.72 285.842 151.618 286.201 152.389 285.911Z" fill="#1BA9F5"/>
<path d="M225.921 264.183C226.09 264.914 226.785 265.275 227.637 264.943C228.45 264.733 228.811 264.038 228.561 263.348C228.312 262.659 227.576 262.217 226.763 262.426C226.112 262.553 225.752 263.451 225.921 264.183Z" fill="#1BA9F5"/>
<path d="M232.023 258.112C231.699 258.277 231.01 258.73 231.176 259.055C231.259 259.42 232.116 259.495 232.4 259.452C232.726 259.491 233.047 258.919 232.841 258.513C232.676 258.188 232.429 257.905 232.023 258.112Z" fill="#1BA9F5"/>
<path d="M235.47 256.254C235.554 256.62 236.128 257.144 236.575 257.019C236.941 256.935 237.303 256.444 237.178 255.997C237.052 255.55 236.519 255.106 236.154 255.191C235.707 255.316 235.385 255.888 235.47 256.254Z" fill="#1BA9F5"/>
<path d="M249.049 248.213C249.052 248.62 249.499 248.494 249.702 248.493C249.783 248.452 250.025 248.124 250.025 248.124C249.942 247.962 249.737 247.76 249.534 247.762C249.412 247.722 248.965 247.848 249.049 248.213Z" fill="#1BA9F5"/>
<path d="M243.195 254.77C243.279 255.136 243.77 255.498 244.177 255.496C244.666 255.451 245.028 254.96 244.822 254.555C244.696 254.108 244.327 253.785 243.839 253.829C243.432 253.832 243.069 254.323 243.195 254.77Z" fill="#1BA9F5"/>
<path d="M220.687 271.956C220.77 272.119 220.975 272.32 221.179 272.319C221.383 272.317 221.502 271.95 221.542 271.828C221.54 271.624 221.252 271.26 221.048 271.261C220.764 271.304 220.605 271.794 220.687 271.956Z" fill="#1BA9F5"/>
<path d="M239.851 259.436C239.775 260.088 240.103 260.533 240.635 260.773C241.207 261.094 241.694 260.847 242.017 260.478C242.34 260.109 243.068 259.533 242.86 258.924C242.652 258.315 242.084 258.605 241.758 258.567C240.982 258.247 239.886 258.703 239.851 259.436Z" fill="#1BA9F5"/>
<path d="M214.402 275.26C214.158 275.385 213.551 275.796 213.594 276.081C213.637 276.365 214.33 276.523 214.656 276.561C215.063 276.558 215.264 276.149 215.22 275.661C215.093 275.214 214.726 275.095 214.402 275.26Z" fill="#1BA9F5"/>
<path d="M166.53 292.803C167.424 292.553 167.826 291.938 167.617 291.126C167.448 290.395 166.793 289.911 166.265 290.078C165.493 290.369 164.931 291.269 165.099 292C165.185 292.569 166.002 292.97 166.53 292.803Z" fill="#1BA9F5"/>
<path d="M262.571 232.847C262.45 233.011 262.411 233.336 262.453 233.417C262.494 233.498 263.026 233.739 263.146 233.575C263.268 233.411 263.061 233.006 262.978 232.843C262.937 232.762 262.611 232.725 262.571 232.847Z" fill="#1BA9F5"/>
<path d="M266.297 230.131C266.583 230.292 267.44 230.571 267.723 230.324C268.006 230.078 267.511 229.308 267.389 229.269C267.022 229.149 266.532 228.99 266.168 229.278C265.804 229.566 266.133 230.011 266.297 230.131Z" fill="#1BA9F5"/>
<path d="M256.082 236.152C255.517 236.849 255.855 238.515 256.795 238.955C257.49 239.317 257.972 238.458 257.928 237.97C257.842 237.401 257.966 237.644 258.412 237.315C258.857 236.986 259.299 236.25 258.48 235.646C257.661 235.041 256.646 235.456 256.082 236.152Z" fill="#1BA9F5"/>
<path d="M241.358 248.964C241.151 248.355 240.497 248.076 239.846 248.203C239.195 248.33 238.914 248.779 239.081 249.307C239.291 250.119 240.029 250.765 240.679 250.638C241.166 250.39 241.485 249.614 241.358 248.964Z" fill="#1BA9F5"/>
<path d="M244.986 244.052C245.106 243.889 245.146 243.766 245.186 243.644C245.184 243.44 244.896 243.076 244.693 243.077C244.531 243.16 244.412 243.527 244.453 243.608C244.535 243.771 244.618 243.933 244.7 244.095C244.416 244.138 244.133 244.384 243.931 244.59C243.406 245.163 243.457 246.465 244.03 246.99C244.727 247.554 245.705 247.669 246.272 247.176C246.394 247.216 246.597 247.215 246.597 247.215C246.76 247.132 247.003 247.008 246.961 246.724C246.959 246.52 246.795 246.399 246.673 246.359C246.83 245.666 246.62 244.854 246.291 244.409C245.922 244.086 245.432 243.926 244.986 244.052Z" fill="#1BA9F5"/>
<path d="M211.687 266.326C211.812 266.773 212.549 267.216 212.995 267.09C213.524 266.923 214.37 265.777 214.163 265.371C213.996 264.844 213.098 264.484 212.285 264.694C211.676 264.902 211.354 265.475 211.687 266.326Z" fill="#1BA9F5"/>
<path d="M247.717 239.188C247.881 239.309 248.328 239.183 248.449 239.019C248.57 238.856 248.65 238.611 248.445 238.409C248.281 238.288 247.996 238.331 247.834 238.413C247.713 238.577 247.554 239.067 247.717 239.188Z" fill="#1BA9F5"/>
<path d="M254.657 241.577C254.821 241.697 255.065 241.574 255.227 241.491C255.308 241.45 255.508 241.041 255.303 240.839C255.098 240.637 254.734 240.925 254.572 241.007C254.655 241.17 254.616 241.496 254.657 241.577Z" fill="#1BA9F5"/>
<path d="M205.035 280.338C205.239 280.337 205.846 279.925 205.722 279.682C205.64 279.52 205.476 279.398 205.231 279.319C205.271 279.197 205.23 279.116 205.188 279.034C204.983 278.833 204.455 279 204.334 279.163C204.213 279.327 204.256 279.612 204.339 279.774C204.382 280.058 204.832 280.34 205.035 280.338Z" fill="#1BA9F5"/>
<path d="M171.111 295.373C171.558 295.247 171.837 294.594 171.709 293.74C171.545 293.619 171.217 293.378 171.014 293.38C170.403 293.384 169.92 294.039 169.964 294.527C170.09 294.973 170.664 295.498 171.111 295.373Z" fill="#1BA9F5"/>
<path d="M187.466 288.369C187.464 288.166 187.297 287.638 186.809 287.682C186.401 287.685 186.406 288.296 186.408 288.499C186.491 288.661 186.656 288.985 186.941 288.943C187.226 288.9 187.468 288.572 187.466 288.369Z" fill="#1BA9F5"/>
<path d="M235.356 262.645C235.194 262.727 234.828 262.812 234.79 263.138C234.833 263.423 235.2 263.541 235.281 263.5C235.444 263.418 235.645 263.213 235.644 263.009C235.684 262.886 235.437 262.603 235.356 262.645Z" fill="#1BA9F5"/>
<path d="M172.905 290.475C172.661 290.599 172.42 290.927 172.463 291.211C172.466 291.618 173.12 291.898 173.444 291.733C173.687 291.609 173.726 291.282 173.888 291.2C173.679 290.591 173.23 290.309 172.905 290.475Z" fill="#1BA9F5"/>
<path d="M155.373 297.976C155.124 297.49 154.35 297.374 153.988 297.865C153.785 298.07 154.156 298.596 154.281 299.043C154.323 299.124 154.447 299.368 154.731 299.324C155.016 299.282 155.621 298.463 155.373 297.976Z" fill="#1BA9F5"/>
<path d="M171.767 290.85C171.52 290.364 170.909 290.369 170.624 290.411C170.217 290.415 170.139 290.863 170.223 291.229C170.349 291.675 170.799 291.957 171.082 291.71C171.367 291.667 171.935 291.378 171.767 290.85Z" fill="#1BA9F5"/>
<path d="M165.351 298.307C165.391 298.185 165.103 297.821 164.859 297.945C164.575 297.987 164.619 298.476 164.58 298.598C164.621 298.679 164.826 298.881 165.03 298.879C165.233 298.877 165.311 298.429 165.351 298.307Z" fill="#1BA9F5"/>
<path d="M190.6 288.304C190.309 287.533 189.131 287.827 188.931 288.236C188.811 288.603 189.347 289.453 189.835 289.409C190.527 289.363 190.891 289.076 190.6 288.304Z" fill="#1BA9F5"/>
<path d="M188.449 294.508C188.491 294.588 188.818 294.83 188.981 294.748C189.143 294.665 189.304 294.379 189.343 294.256C189.26 294.095 189.095 293.77 188.73 293.854C188.283 293.98 188.366 294.345 188.449 294.508Z" fill="#1BA9F5"/>
<path d="M226.701 275.532C226.66 275.655 226.948 276.019 227.192 275.895C227.476 275.852 227.432 275.364 227.471 275.242C227.43 275.161 227.225 274.958 227.022 274.96C226.818 274.962 226.699 275.329 226.701 275.532Z" fill="#1BA9F5"/>
<path d="M176.293 296.92C175.927 297.005 175.607 297.781 175.734 298.227C175.859 298.674 176.309 298.955 176.879 298.87C177.407 298.703 177.648 298.376 177.522 297.929C177.356 297.401 176.74 296.795 176.293 296.92Z" fill="#1BA9F5"/>
<path d="M180.608 291.556C180.525 291.19 180.239 291.029 180.156 290.867C179.872 291.114 179.06 291.324 179.104 291.811C179.149 292.299 179.923 292.416 180.251 292.657C180.332 292.616 180.413 292.575 180.494 292.534C180.817 292.165 180.734 292.002 180.608 291.556Z" fill="#1BA9F5"/>
<path d="M166.507 300.374C166.424 300.212 166.3 299.969 166.016 300.011C165.73 300.054 165.693 300.38 165.652 300.502C165.654 300.706 165.942 301.07 166.145 301.069C166.431 301.025 166.509 300.578 166.507 300.374Z" fill="#1BA9F5"/>
<path d="M234.256 267.904C234.708 268.389 235.236 268.222 235.845 268.014C235.84 267.404 236.081 266.872 235.427 266.593C235.019 266.392 234.572 266.517 234.29 266.967C233.967 267.336 234.01 267.621 234.256 267.904Z" fill="#1BA9F5"/>
<path d="M197.511 286.827C198.039 286.66 197.831 286.051 197.829 285.847C197.746 285.686 197.378 285.363 197.174 285.364C196.767 285.368 196.567 285.776 196.61 286.06C196.652 286.345 196.983 286.993 197.511 286.827Z" fill="#1BA9F5"/>
<path d="M221.306 262.345C221.351 262.834 221.964 263.237 222.452 263.192C223.022 263.106 223.465 262.37 223.419 261.678C223.332 261.109 222.963 260.786 222.475 260.831C221.825 260.958 221.221 261.777 221.306 262.345Z" fill="#1BA9F5"/>
<path d="M271.795 193.214C271.837 193.295 271.837 193.295 271.837 193.295C272.206 193.618 272.775 193.532 273.098 193.163C273.42 192.794 273.376 192.306 272.966 191.902C272.802 191.782 272.68 191.742 272.516 191.621C272.317 192.234 272.035 192.683 271.795 193.214Z" fill="#1BA9F5"/>
<path d="M274.472 191.851C274.636 191.971 274.798 191.888 274.837 191.766C274.918 191.724 274.795 191.482 274.753 191.401C274.712 191.319 274.508 191.321 274.427 191.362C274.346 191.404 274.308 191.729 274.472 191.851Z" fill="#1BA9F5"/>
<path d="M274.657 189.407C274.698 189.488 275.188 189.647 275.35 189.564C275.471 189.4 275.265 188.995 275.182 188.833C275.14 188.752 274.733 188.755 274.693 188.877C274.654 189 274.574 189.245 274.657 189.407Z" fill="#1BA9F5"/>
<path d="M277.36 196.712C277.565 196.914 277.971 196.707 278.052 196.666C278.172 196.502 278.13 196.218 278.047 196.056C278.006 195.975 277.598 195.978 277.517 196.02C277.355 196.102 277.155 196.511 277.36 196.712Z" fill="#1BA9F5"/>
<path d="M269.019 203.003C269.388 203.326 270.081 203.281 270.404 202.912C270.726 202.543 270.682 202.055 270.313 201.732C269.903 201.328 269.292 201.333 268.969 201.702C268.727 202.029 268.773 202.721 269.019 203.003Z" fill="#1BA9F5"/>
<path d="M33.4751 246.283C33.4767 246.487 33.7629 246.647 33.8853 246.687C33.8853 246.687 33.8853 246.687 33.9664 246.646C33.844 246.606 33.6389 246.404 33.4751 246.283Z" fill="#1BA9F5"/>
<path d="M264.545 208.859C264.06 209.31 264.187 209.96 264.883 210.525C265.335 211.009 265.946 211.005 266.268 210.636C266.673 210.226 266.744 208.964 266.376 208.641C265.802 208.116 265.151 208.243 264.545 208.859Z" fill="#1BA9F5"/>
<path d="M272.844 202.689C273.091 202.972 274.026 202.803 274.187 202.516C274.267 202.271 274.06 201.866 273.855 201.664C273.608 201.381 273.241 201.262 272.918 201.63C272.676 201.958 272.434 202.285 272.844 202.689Z" fill="#1BA9F5"/>
<path d="M274.999 186.27C275.244 186.35 275.854 186.142 276.096 186.018C276.421 185.852 276.377 185.364 276.008 185.041C275.844 184.921 275.722 184.881 275.599 184.841C275.44 185.331 275.158 185.781 274.999 186.27Z" fill="#1BA9F5"/>
<path d="M285.358 151.269C285.399 151.35 285.399 151.35 285.441 151.431C285.768 151.673 286.298 151.71 286.621 151.341C286.986 151.053 286.981 150.443 286.653 150.201C286.325 149.959 285.919 149.962 285.513 150.169C285.516 150.576 285.477 150.902 285.358 151.269Z" fill="#1BA9F5"/>
<path d="M284.992 177.809C285.033 177.89 285.4 178.01 285.603 177.805C285.804 177.6 285.517 177.235 285.353 177.114C285.312 177.033 284.985 176.996 284.865 177.159C284.785 177.404 284.828 177.688 284.992 177.809Z" fill="#1BA9F5"/>
<path d="M285.688 157.127C286.059 157.654 286.548 157.813 287.117 157.727C287.768 157.6 287.969 157.191 288.006 156.662C288.002 156.255 288.32 155.276 287.748 154.955C287.176 154.633 286.935 155.165 286.692 155.288C285.798 155.539 285.276 156.52 285.688 157.127Z" fill="#1BA9F5"/>
<path d="M286.676 142.63C286.758 142.589 286.839 142.548 286.878 142.425C286.959 142.384 286.956 141.977 286.834 141.937L286.712 141.897C286.713 142.101 286.675 142.427 286.676 142.63Z" fill="#1BA9F5"/>
<path d="M283.82 163.084C284.025 163.286 284.349 163.121 284.431 163.079C284.551 162.916 284.509 162.632 284.426 162.469C284.385 162.388 283.978 162.391 283.978 162.391C283.938 162.514 283.696 162.841 283.82 163.084Z" fill="#1BA9F5"/>
<path d="M278.076 178.676C278.24 178.797 278.566 178.835 278.687 178.671C278.808 178.508 278.723 178.142 278.601 178.102C278.56 178.021 278.437 177.982 278.315 177.942C278.235 178.187 278.156 178.431 278.076 178.676Z" fill="#1BA9F5"/>
<path d="M285.76 166.488C285.763 166.895 285.928 167.22 286.336 167.217C287.029 167.374 287.31 166.924 287.632 166.352C287.261 165.826 287.095 165.298 286.444 165.425C286.038 165.631 285.838 166.04 285.76 166.488Z" fill="#1BA9F5"/>
<path d="M270.406 208.528C270.042 208.816 270.046 209.427 270.334 209.791C270.663 210.236 271.071 210.233 271.475 209.823C271.878 209.413 271.915 208.883 271.546 208.56C271.219 208.318 270.689 208.282 270.406 208.528Z" fill="#1BA9F5"/>
<path d="M268.348 221.528C268.512 221.649 268.673 221.566 268.713 221.444C268.794 221.403 268.671 221.159 268.629 221.078C268.588 220.997 268.384 220.999 268.303 221.04C268.222 221.081 268.225 221.488 268.348 221.528Z" fill="#1BA9F5"/>
<path d="M258.065 229.421C258.434 229.744 258.961 229.374 259.163 229.169C259.487 229.003 259.607 228.636 259.319 228.272C259.031 227.908 258.379 227.832 258.219 228.118C258.058 228.404 257.697 229.098 258.065 229.421Z" fill="#1BA9F5"/>
<path d="M264.877 225.544C265.451 226.068 266.184 226.103 266.547 225.612C267.072 225.038 266.941 223.981 266.448 223.415C266.038 223.011 265.225 223.22 264.782 223.753C264.257 224.327 264.303 225.019 264.877 225.544Z" fill="#1BA9F5"/>
<path d="M273.648 222.505C273.772 222.748 274.1 222.99 274.304 222.988C274.873 222.902 275.03 222.209 274.987 221.925C274.864 221.682 274.21 221.402 273.806 221.812C273.604 222.017 273.484 222.384 273.648 222.505Z" fill="#1BA9F5"/>
<path d="M237.145 241.101C236.817 240.859 236.49 240.617 236.082 240.62C235.435 241.154 234.91 241.728 234.263 242.262C234.223 242.384 234.306 242.547 234.347 242.628C234.187 242.914 234.149 243.239 234.233 243.605C234.484 244.499 235.507 245.101 236.401 244.85C237.09 244.601 237.612 243.62 237.444 242.889C237.765 242.316 237.596 241.585 237.145 241.101Z" fill="#1BA9F5"/>
<path d="M250.619 235.258C250.128 234.895 249.558 234.981 249.357 235.39C249.115 235.717 249.24 235.96 249.567 236.202C249.936 236.525 250.343 236.522 250.544 236.113C250.582 235.787 250.62 235.462 250.619 235.258Z" fill="#1BA9F5"/>
<path d="M255.796 230.782C255.71 230.212 255.463 229.726 254.85 229.527C254.36 229.368 253.388 230.067 253.27 230.639C253.111 231.128 252.952 231.618 253.566 232.02C254.017 232.301 254.466 232.583 254.835 232.906C255.206 233.432 255.613 233.429 256.058 233.1C256.503 232.771 256.54 232.242 256.17 231.715C256.005 231.391 255.758 231.108 255.796 230.782Z" fill="#1BA9F5"/>
<path d="M275.258 209.428C275.668 209.831 276.279 209.827 276.603 209.458C276.925 209.089 276.879 208.397 276.552 208.156C276.224 207.914 275.532 207.96 275.249 208.206C274.967 208.656 274.97 209.064 275.258 209.428Z" fill="#1BA9F5"/>
<path d="M278.595 203.948C278.719 204.191 279.78 204.468 280.103 204.099C280.426 203.731 279.849 202.798 279.602 202.516C279.397 202.313 278.745 202.237 278.381 202.525C278.058 202.894 278.307 203.584 278.595 203.948Z" fill="#1BA9F5"/>
<path d="M263.218 216.276C262.286 216.853 262.375 217.829 263.233 218.311C263.806 218.633 264.419 218.831 265.03 219.03C265.724 219.188 266.615 218.529 266.813 217.917C266.933 217.55 266.967 216.613 266.111 216.539C264.771 217.119 264.764 216.102 263.665 216.15C263.543 216.111 263.299 216.235 263.218 216.276Z" fill="#1BA9F5"/>
<path d="M245.527 240.304C245.893 240.219 246.257 239.931 246.05 239.526C245.926 239.283 245.515 238.879 245.273 239.003C244.987 239.046 244.787 239.454 244.585 239.659C244.794 240.268 245.161 240.387 245.527 240.304Z" fill="#1BA9F5"/>
<path d="M272.795 217.423C273.164 217.746 273.775 217.742 274.179 217.331C274.583 216.922 274.497 216.353 274.086 215.948C273.718 215.625 273.148 215.711 272.826 216.08C272.421 216.49 272.426 217.101 272.795 217.423Z" fill="#1BA9F5"/>
<path d="M260.359 225.904C260.647 226.268 261.258 226.263 261.662 225.853C262.066 225.443 262.103 224.913 261.734 224.59C261.365 224.268 260.835 224.231 260.513 224.6C260.067 224.929 259.99 225.581 260.359 225.904Z" fill="#1BA9F5"/>
<path d="M256.774 225.483C257.142 225.806 257.793 225.679 258.034 225.352C258.357 224.983 258.313 224.494 257.903 224.091C257.492 223.687 256.882 223.692 256.519 224.183C256.236 224.429 256.405 225.161 256.774 225.483Z" fill="#1BA9F5"/>
<path d="M252.2 223.728C251.514 224.588 250.748 225.489 249.981 226.39L249.941 226.513C249.823 227.083 250.438 227.689 251.172 227.724C251.701 227.76 252.39 227.308 252.549 226.819C252.788 226.084 252.214 225.559 251.969 225.48C252.331 224.988 252.448 224.214 252.2 223.728Z" fill="#1BA9F5"/>
<path d="M267.528 204.888C267.084 205.42 267.133 206.518 267.707 207.043C268.076 207.366 268.808 207.198 269.212 206.788C269.737 206.214 269.772 205.481 269.198 204.956C268.584 204.554 267.851 204.519 267.528 204.888Z" fill="#1BA9F5"/>
<path d="M69.7538 272.747C68.8966 272.468 67.8833 273.086 67.6462 274.024C67.4887 274.717 68.2297 275.77 69.1283 276.129C69.863 276.368 70.6741 275.954 70.9112 275.017C71.228 273.834 70.8559 273.104 69.7538 272.747Z" fill="#1BA9F5"/>
<path d="M59.932 276.932C61.1979 277.411 61.3601 277.328 61.4732 276.147C61.0215 275.662 60.4522 275.748 59.9671 276.199C58.5755 275.274 57.7246 275.809 57.6161 277.601C57.535 277.642 57.3728 277.725 57.2917 277.767C56.8448 277.892 56.7255 278.26 56.7286 278.666C56.7317 279.073 56.9368 279.275 57.2644 279.517C58.1232 279.999 58.5288 279.792 58.9297 278.975C59.2908 278.28 59.6519 277.586 59.932 276.932Z" fill="#1BA9F5"/>
<path d="M56.1243 279.485C55.5121 279.286 55.2289 279.533 55.1095 279.9C54.9902 280.267 54.9933 280.674 55.4419 280.752C55.7679 280.791 56.2545 280.542 56.2943 280.42C56.4137 280.053 56.1259 279.689 56.1243 279.485Z" fill="#1BA9F5"/>
<path d="M66.5403 278.469C65.602 278.232 64.7511 278.768 64.514 279.706C64.3564 280.399 64.8922 281.25 65.627 281.488C66.3617 281.727 67.2524 281.068 67.5294 280.008C67.6869 279.315 67.2751 278.707 66.5403 278.469Z" fill="#1BA9F5"/>
<path d="M46.4703 278.989C46.184 278.829 45.9836 279.237 45.904 279.482C45.8643 279.604 46.0296 279.929 46.1107 279.887C46.3143 279.886 46.599 279.843 46.6388 279.721C46.7597 279.557 46.8377 279.108 46.4703 278.989Z" fill="#1BA9F5"/>
<path d="M62.6348 273.615C62.794 273.125 62.099 272.764 61.8938 272.562C61.5663 272.321 61.1209 272.65 61.0015 273.017C60.8424 273.506 61.0078 273.831 61.4563 273.909C61.7012 273.988 62.5171 274.185 62.6348 273.615Z" fill="#1BA9F5"/>
<path d="M49.513 277.542C49.5512 277.215 49.4272 276.972 49.1012 276.934C48.7751 276.896 48.6144 277.182 48.4935 277.346C48.4951 277.549 48.4156 277.794 48.783 277.913C49.1503 278.033 49.4748 277.867 49.513 277.542Z" fill="#1BA9F5"/>
<path d="M52.7276 277.232C52.524 277.233 52.1567 277.114 52.0771 277.359C52.0787 277.562 52.2027 277.805 52.3665 277.926C52.4889 277.966 53.0186 278.003 53.0981 277.758C53.0966 277.555 52.8501 277.272 52.7276 277.232Z" fill="#1BA9F5"/>
<path d="M73.6928 276.664C73.2062 276.912 72.6398 277.405 72.5619 277.853C72.4839 278.302 72.7319 278.788 73.3028 278.906C74.1187 279.103 74.809 278.853 75.0079 278.242C75.0859 277.793 75.0414 277.305 74.7949 277.022C75.1194 276.857 75.2801 276.571 75.3184 276.245C75.3948 275.593 74.7825 275.394 74.3324 275.113C73.887 275.441 73.3606 275.812 73.6102 276.502C73.6515 276.583 73.6515 276.583 73.6928 276.664Z" fill="#1BA9F5"/>
<path d="M90.1598 278.898C90.9324 278.812 91.4163 278.156 91.3687 277.261C91.3638 276.651 90.5445 276.046 89.7719 276.134C88.9985 276.222 88.5966 276.835 88.7254 277.688C88.8541 278.543 89.3864 278.986 90.1598 278.898Z" fill="#1BA9F5"/>
<path d="M77.3421 280.014C76.6887 279.735 75.6326 280.068 75.4735 280.558C75.1935 281.211 75.6085 282.225 76.2621 282.506C76.9157 282.785 77.8481 282.208 78.1679 281.433C78.2852 280.862 77.9957 280.295 77.3421 280.014Z" fill="#1BA9F5"/>
<path d="M68.5636 287.448C68.1549 287.248 67.5059 287.578 67.3866 287.946C67.1464 288.477 67.4787 289.329 67.9685 289.488C68.5808 289.687 69.4746 289.436 69.6338 288.946C69.7929 288.456 69.3397 287.768 68.5636 287.448Z" fill="#1BA9F5"/>
<path d="M62.1833 283.753C61.6966 284.001 61.1272 284.087 61.0508 284.739C61.0539 285.145 61.3418 285.509 61.7902 285.587C62.0749 285.545 62.4408 285.46 62.6428 285.255C63.0452 284.642 62.7161 284.197 62.1833 283.753Z" fill="#1BA9F5"/>
<path d="M71.8216 282.214C71.2094 282.015 70.1946 282.43 69.9957 283.042C69.7968 283.654 70.2102 284.465 70.8225 284.663C71.4347 284.863 71.9215 284.614 72.1999 283.757C72.4402 283.227 72.2304 282.415 71.8216 282.214Z" fill="#1BA9F5"/>
<path d="M83.6888 274.024C83.6462 273.738 83.6027 273.454 83.3977 273.252C82.2954 272.894 81.1931 272.536 80.0917 272.178C80.0105 272.22 79.9293 272.261 79.8071 272.222C78.9952 272.635 77.9437 273.578 78.1996 275.083C78.1996 275.083 78.1996 275.083 78.2415 275.164C78.0791 275.247 78.0389 275.369 77.9995 275.491C78.0012 275.695 78.2464 275.775 78.4498 275.773C78.6163 276.301 78.9853 276.623 79.3938 276.824C80.0892 277.185 80.7347 276.447 81.5909 276.522C83.4239 276.712 83.8209 275.284 83.6888 274.024Z" fill="#1BA9F5"/>
<path d="M78.5975 279.069C78.7213 279.312 79.1716 279.594 79.3749 279.592C80.0663 279.546 80.1844 278.976 80.2607 278.324C79.8916 278.001 79.4816 277.597 78.914 277.886C78.5499 278.174 78.3908 278.663 78.5975 279.069Z" fill="#1BA9F5"/>
<path d="M41.3986 265.434C40.9073 265.071 40.3378 265.157 39.8512 265.405C39.3246 265.775 39.2466 266.224 39.4136 266.751C39.6203 267.157 39.7092 268.133 40.3613 268.209C41.0133 268.286 41.0086 267.675 41.2106 267.47C41.8581 266.936 41.89 265.796 41.3986 265.434Z" fill="#1BA9F5"/>
<path d="M44.2741 258.044C44.4776 258.043 44.6812 258.041 44.8848 258.04C45.5766 257.994 46.3051 257.419 46.5041 256.807C46.5821 256.358 46.4977 255.992 46.2911 255.587C45.8411 255.305 45.3496 254.943 44.8996 254.662C44.0455 254.791 43.4808 255.487 43.5284 256.382C43.53 256.585 43.5315 256.788 43.5331 256.992C43.1259 256.995 42.7999 256.957 42.3928 256.96C41.7009 257.006 41.4178 257.252 41.4638 257.944C41.4685 258.554 41.7165 259.041 42.2477 259.282C42.7788 259.521 43.3069 259.355 43.6298 258.986C43.9129 258.74 44.0322 258.372 44.2741 258.044Z" fill="#1BA9F5"/>
<path d="M40.7812 259.211C40.4949 259.051 40.2532 259.378 40.2134 259.501C40.2149 259.704 40.2976 259.866 40.3803 260.029C40.4216 260.11 40.8686 259.983 40.8273 259.903C40.9481 259.739 41.0675 259.372 40.7812 259.211Z" fill="#1BA9F5"/>
<path d="M57.8722 268.482C57.015 268.204 55.9207 268.864 55.7234 269.679C55.5658 270.372 56.143 271.303 56.8777 271.542C57.6936 271.74 58.4635 271.245 58.7404 270.185C58.979 269.451 58.6069 268.721 57.8722 268.482Z" fill="#1BA9F5"/>
<path d="M33.4828 257.924C33.074 257.723 32.4251 258.054 32.3058 258.422C32.0656 258.952 32.2754 259.764 32.8065 260.005C33.4188 260.204 34.2316 259.994 34.5131 259.544C34.6309 258.973 34.2589 258.244 33.4828 257.924Z" fill="#1BA9F5"/>
<path d="M36.9045 252.81C36.3733 252.57 35.3585 252.985 35.0372 253.557C34.8383 254.169 35.2517 254.98 35.864 255.178C36.5176 255.459 36.963 255.129 37.2828 254.354C37.523 253.822 37.3132 253.01 36.9045 252.81Z" fill="#1BA9F5"/>
<path d="M32.6523 250.482C32.891 249.747 32.4791 249.141 31.7443 248.902C30.8872 248.623 29.9138 249.119 29.6767 250.057C29.5191 250.75 29.9738 251.642 30.7086 251.88C31.4831 251.997 32.4151 251.42 32.6523 250.482Z" fill="#1BA9F5"/>
<path d="M27.2634 253.942C26.7354 254.109 26.166 254.195 26.1309 254.928C26.134 255.334 26.4218 255.699 26.8703 255.777C27.1963 255.815 27.5622 255.731 27.6417 255.486C28.0442 254.872 27.7151 254.427 27.2634 253.942Z" fill="#1BA9F5"/>
<path d="M171.909 288.122C172.438 287.955 173.001 287.056 172.834 286.528C172.708 286.081 171.85 285.599 171.28 285.685C170.833 285.81 170.431 286.424 170.515 286.789C170.644 287.643 171.259 288.249 171.909 288.122Z" fill="#1BA9F5"/>
<path d="M43.7184 270.585C43.351 270.466 42.823 270.633 42.6639 271.122C42.4633 271.531 42.6717 272.14 43.1201 272.218C43.5686 272.296 44.0155 272.17 44.1747 271.681C44.3751 271.272 44.1271 270.786 43.7184 270.585Z" fill="#1BA9F5"/>
<path d="M50.5527 269.76C49.818 269.52 48.7619 269.855 48.6855 270.507C48.5264 270.996 49.102 271.724 49.7143 271.923C50.2852 272.04 50.9342 271.71 51.1728 270.976C51.2906 270.405 51.0839 269.999 50.5527 269.76Z" fill="#1BA9F5"/>
<path d="M51.7097 266.617C52.2393 266.654 52.6035 266.366 52.6815 265.917C52.8391 265.224 52.0201 264.62 51.7752 264.54C51.4492 264.502 50.6809 265.2 50.808 265.85C50.8525 266.338 51.2214 266.661 51.7097 266.617Z" fill="#1BA9F5"/>
<path d="M46.0835 260.392C45.7591 260.557 45.6 261.047 45.7653 261.371C45.972 261.776 46.7879 261.973 47.149 261.279C47.3065 260.586 46.4081 260.226 46.0835 260.392Z" fill="#1BA9F5"/>
<path d="M46.4415 259.29C46.4798 258.964 46.3511 258.11 46.025 258.072C45.699 258.034 45.1741 258.608 45.0133 258.894C44.8527 259.18 45.2232 259.706 45.5492 259.744C46.039 259.903 46.4447 259.697 46.4415 259.29Z" fill="#1BA9F5"/>
<path d="M79.4325 287.121C79.6359 287.12 79.8401 287.118 80.0435 287.116C80.8161 287.029 81.5452 286.454 81.6215 285.802C81.7371 285.027 81.4066 284.379 80.8743 283.935C80.7103 283.815 80.3429 283.695 80.1395 283.697C79.2045 283.866 78.6394 284.563 78.6058 285.5C78.6074 285.703 78.6091 285.906 78.6107 286.11C78.2031 286.113 77.8775 286.075 77.5117 286.159C76.8197 286.205 76.5779 286.533 76.5826 287.143C76.5873 287.753 76.8354 288.24 77.3666 288.48C77.898 288.721 78.3844 288.472 78.8297 288.143C78.9904 287.857 79.1906 287.448 79.4325 287.121Z" fill="#1BA9F5"/>
<path d="M54.4791 261.426C54.0291 261.144 53.4629 261.638 53.3037 262.127C53.2257 262.576 53.5136 262.94 54.0034 263.099C54.4519 263.177 55.0197 262.887 55.1772 262.195C55.0946 262.032 54.8879 261.626 54.4791 261.426Z" fill="#1BA9F5"/>
<path d="M42.5664 253.092C41.9112 252.609 41.1749 252.166 40.5197 251.684C40.4433 252.335 40.8153 253.065 41.3465 253.305C41.7139 253.424 42.1608 253.299 42.5664 253.092Z" fill="#1BA9F5"/>
<path d="M118.135 300.501C117.732 300.911 117.244 301.158 117.495 301.848C117.701 302.253 118.029 302.495 118.476 302.37C118.719 302.246 119.043 302.081 119.123 301.836C119.239 301.061 118.829 300.658 118.135 300.501Z" fill="#1BA9F5"/>
<path d="M106.998 297.696C106.795 297.698 106.428 297.781 106.472 298.066C106.473 298.27 106.801 298.511 106.882 298.47C107.085 298.468 107.491 298.262 107.49 298.058C107.488 297.855 107.121 297.735 106.998 297.696Z" fill="#1BA9F5"/>
<path d="M127.596 297.009C127.591 296.398 127.057 295.751 126.608 295.674C125.998 295.678 125.148 296.417 125.194 297.109C125.199 297.719 125.937 298.365 126.629 298.319C127.24 298.314 127.602 297.823 127.596 297.009Z" fill="#1BA9F5"/>
<path d="M121.841 295.14C121.795 294.449 121.22 293.924 120.367 294.052C119.39 294.141 118.785 294.96 118.955 295.895C119.043 296.667 119.82 297.19 120.635 297.184C121.285 297.057 121.849 296.157 121.841 295.14Z" fill="#1BA9F5"/>
<path d="M130.832 294.338C131.565 294.373 132.251 293.513 132.245 292.699C132.24 292.089 131.749 291.726 131.016 291.692C130.283 291.656 129.392 292.315 129.477 292.884C129.442 293.616 130.099 294.304 130.832 294.338Z" fill="#1BA9F5"/>
<path d="M101.775 301.48C101.448 301.442 101.411 301.971 101.372 302.094C101.332 302.216 101.66 302.458 101.741 302.416C101.903 302.334 102.146 302.21 102.145 302.007C102.226 301.966 102.1 301.519 101.775 301.48Z" fill="#1BA9F5"/>
<path d="M110.955 298.642C110.262 298.688 110.144 299.055 110.105 299.382C110.108 299.788 110.315 300.194 110.762 300.069C111.047 300.025 111.451 299.615 111.449 299.412C111.488 299.086 111.037 298.804 110.955 298.642Z" fill="#1BA9F5"/>
<path d="M112.051 298.186C113.029 298.301 113.393 298.013 113.427 297.077C113.462 296.344 113.497 295.611 113.613 294.836C114.957 294.867 115.078 294.704 114.825 293.607C114.171 293.326 113.766 293.533 113.486 294.186C111.854 293.792 111.25 294.61 111.792 296.275C111.711 296.316 111.671 296.439 111.509 296.521C111.144 296.809 111.107 297.135 111.232 297.582C111.357 298.029 111.644 298.189 112.051 298.186Z" fill="#1BA9F5"/>
<path d="M126.866 302.795C126.903 302.265 126.207 301.7 125.393 301.707C124.985 301.71 124.5 302.161 124.463 302.69C124.468 303.301 125.002 303.948 125.491 303.904C126.182 303.858 126.83 303.323 126.866 302.795Z" fill="#1BA9F5"/>
<path d="M158.292 291.075C158.125 290.547 157.429 289.983 156.982 290.109C156.412 290.195 156.093 290.97 156.302 291.783C156.428 292.229 156.714 292.39 157.203 292.346C157.853 292.219 158.418 291.522 158.292 291.075Z" fill="#1BA9F5"/>
<path d="M135.459 297.6C135.621 297.517 135.784 297.435 135.945 297.352C136.595 297.021 137.076 296.163 136.91 295.635C136.741 294.904 136.167 294.379 135.513 294.099C135.269 294.019 134.984 294.063 134.741 294.186C133.848 294.641 133.651 295.456 134.025 296.39C134.107 296.552 134.19 296.714 134.233 296.998C133.908 297.164 133.542 297.249 133.218 297.413C132.65 297.703 132.531 298.07 132.739 298.679C132.948 299.288 133.397 299.569 133.968 299.688C134.579 299.683 134.943 299.395 135.183 298.864C135.303 298.496 135.381 298.048 135.459 297.6Z" fill="#1BA9F5"/>
<path d="M167.905 286.28C167.735 285.345 166.711 284.54 165.776 284.709C165.003 284.797 164.279 285.982 164.408 286.837C164.536 287.69 165.518 288.212 166.656 288.04C167.511 287.911 168.034 287.134 167.905 286.28Z" fill="#1BA9F5"/>
<path d="M151.596 293.976C151.552 293.488 151.224 293.246 150.817 293.249C150.328 293.294 150.047 293.744 150.172 294.19C150.298 294.637 150.665 294.756 151.073 294.753C151.357 294.71 151.64 294.463 151.596 293.976Z" fill="#1BA9F5"/>
<path d="M139.301 299.524C139.213 298.751 138.277 298.718 138.035 299.046C137.752 299.292 137.837 299.861 138.165 300.102C138.453 300.467 139.266 300.257 139.301 299.524Z" fill="#1BA9F5"/>
<path d="M142.317 294.617C142.643 294.655 142.682 294.329 142.64 294.248C142.638 294.045 142.513 293.598 142.31 293.599C142.025 293.642 141.905 294.009 141.947 294.09C141.99 294.375 141.991 294.578 142.317 294.617Z" fill="#1BA9F5"/>
<path d="M150.931 292.271C151.047 291.497 150.842 291.296 150.025 290.895C149.735 290.327 149.569 289.799 149.32 289.312C149.073 288.826 148.3 288.913 148.263 289.443C148.145 290.013 147.784 290.708 148.238 291.396C148.482 291.476 148.768 291.637 149.095 291.675C149.305 292.488 149.92 293.093 150.367 292.968C150.57 292.966 150.853 292.72 150.931 292.271Z" fill="#1BA9F5"/>
<path d="M81.2424 289.468C80.9176 289.633 80.7995 290.204 80.9652 290.528C81.1719 290.933 82.0273 291.009 82.3078 290.355C82.5046 289.54 81.6476 289.262 81.2424 289.468Z" fill="#1BA9F5"/>
<path d="M85.6378 283.858C85.432 283.656 85.1876 283.577 84.903 283.62C84.8168 283.051 84.2042 282.851 83.8802 283.017C83.5555 283.182 83.4382 283.752 83.603 284.077C83.7269 284.321 83.9721 284.4 84.2969 284.234C84.2173 284.48 84.301 284.845 84.3854 285.211C84.9563 285.328 85.5287 285.649 85.8502 285.077C86.0512 284.669 86.0061 284.181 85.6378 283.858Z" fill="#1BA9F5"/>
<path d="M95.9748 288.5C96.4628 288.456 96.9475 288.004 96.9451 287.597C96.9418 287.19 96.4505 286.828 96.1241 286.79L96.0429 286.831C96.0002 286.546 95.7952 286.345 95.4261 286.022C95.4212 285.411 95.4171 284.801 95.372 284.312C95.2867 283.744 94.5929 283.586 94.3116 284.036C93.9901 284.608 93.5054 285.059 93.5923 285.832C93.7973 286.034 94.0024 286.236 94.2886 286.396C94.214 287.252 94.5863 287.982 95.0349 288.06C95.1571 288.099 95.2383 288.058 95.4417 288.057C95.3622 288.302 95.6894 288.544 95.9748 288.5Z" fill="#1BA9F5"/>
<path d="M92.7892 292.676C93.2321 291.94 92.8565 290.804 92.1635 290.646C91.5508 290.447 91.0645 290.695 90.702 291.187C90.3386 291.678 90.4248 292.247 90.7938 292.57C91.0817 292.934 91.4951 293.745 92.1454 293.618C92.877 293.449 92.6293 292.963 92.7892 292.676Z" fill="#1BA9F5"/>
<path d="M86.922 286.778C87.1672 286.858 87.369 286.653 87.328 286.572C87.3673 286.45 87.4453 286.001 87.2009 285.922C86.9556 285.842 86.7137 286.17 86.6743 286.292C86.7153 286.373 86.6358 286.619 86.922 286.778Z" fill="#1BA9F5"/>
<path d="M89.4335 285.091C89.1079 285.053 88.9882 285.42 89.03 285.501C89.112 285.663 89.2367 285.906 89.4401 285.905C89.5623 285.945 89.8452 285.698 89.8042 285.617C89.7214 285.455 89.7181 285.048 89.4335 285.091Z" fill="#1BA9F5"/>
<path d="M104.159 299.142C104.075 298.777 103.788 298.616 103.504 298.659C103.219 298.702 103.099 299.069 103.101 299.273C103.103 299.476 103.227 299.719 103.553 299.757C103.879 299.796 104.121 299.468 104.159 299.142Z" fill="#1BA9F5"/>
<path d="M93.4103 283.27C93.3718 283.595 93.8631 283.958 94.2288 283.874C94.5946 283.789 94.9588 283.502 94.7939 283.178C94.7094 282.812 94.3371 282.082 93.9713 282.166C93.6867 282.209 93.4481 282.943 93.4103 283.27Z" fill="#1BA9F5"/>
<path d="M99.3232 279.235C99.2395 278.87 98.4645 278.753 98.1799 278.797C97.9765 278.798 97.7764 279.207 97.7378 279.533C97.6993 279.858 97.9462 280.141 98.312 280.058C98.7171 279.851 99.3667 279.52 99.3232 279.235Z" fill="#1BA9F5"/>
<path d="M111.379 285.045C111.375 284.435 110.803 284.113 109.988 284.119C109.296 284.165 108.812 284.617 108.856 285.104C108.9 285.593 109.803 286.563 110.211 286.56C110.983 286.473 111.508 285.899 111.379 285.045Z" fill="#1BA9F5"/>
<path d="M121.889 290.825C122.703 290.819 123.267 290.123 123.179 289.147C123.088 287.967 122.514 287.443 121.293 287.452C120.397 287.499 119.63 288.4 119.72 289.377C119.806 290.15 120.912 290.914 121.889 290.825Z" fill="#1BA9F5"/>
<path d="M118.029 286.663C117.985 286.174 117.371 285.772 116.883 285.817C116.11 285.904 115.544 286.397 115.59 287.088C115.677 287.861 116.334 288.548 116.944 288.543C117.391 288.417 118.075 287.354 118.029 286.663Z" fill="#1BA9F5"/>
<path d="M114.967 290.878C114.963 290.268 114.148 290.274 113.862 290.114C113.495 289.994 113.213 290.444 113.135 290.892C113.18 291.38 113.426 291.664 113.873 291.538C114.28 291.535 115.053 291.447 114.967 290.878Z" fill="#1BA9F5"/>
<path d="M97.0058 295.534C97.0837 295.086 96.6736 294.682 96.1848 294.726C95.778 294.729 95.3737 295.139 95.377 295.547C95.2991 295.995 95.751 296.48 96.1979 296.354C96.6859 296.31 96.9689 296.063 97.0058 295.534Z" fill="#1BA9F5"/>
<path d="M103.293 292.433C103.247 291.742 102.878 291.419 102.39 291.463C101.575 291.47 100.807 292.167 100.854 292.858C100.898 293.347 101.675 293.87 102.286 293.865C102.856 293.78 103.339 293.125 103.293 292.433Z" fill="#1BA9F5"/>
<path d="M110.148 289.043C110.101 288.147 109.527 287.623 108.673 287.751C107.777 287.799 106.929 288.742 107.099 289.676C107.145 290.368 108.128 291.093 108.82 291.047C109.674 290.918 110.197 290.141 110.148 289.043Z" fill="#1BA9F5"/>
<path d="M79.7218 324.783C81.9866 324.783 83.8225 322.948 83.8225 320.684C83.8225 318.42 81.9866 316.585 79.7218 316.585C77.457 316.585 75.6211 318.42 75.6211 320.684C75.6211 322.948 77.457 324.783 79.7218 324.783Z" fill="#1BA9F5"/>
</svg>
