<svg width="110" height="231" viewBox="0 0 110 231" fill="none" xmlns="http://www.w3.org/2000/svg">
<g clip-path="url(#clip0)">
<path fill-rule="evenodd" clip-rule="evenodd" d="M109.461 0V29.337C109.461 46.431 103.154 62.909 91.8461 75.768C66.0769 105.028 35.0769 123.816 -0.769287 132.055V0H109.461Z" fill="#FF957D"/>
<path fill-rule="evenodd" clip-rule="evenodd" d="M104.462 49.665C104.538 49.588 104.615 49.434 104.615 49.28C104.923 49.203 105.231 49.126 105.461 48.895C105.769 48.587 105.769 47.894 105.461 47.586C105 47.124 104.308 47.047 103.923 47.355C103.692 47.586 103.538 47.971 103.462 48.433C103.308 48.51 103.154 48.587 103 48.741C102.692 49.203 102.615 49.665 102.923 49.819C103.385 50.05 104.231 49.973 104.462 49.665Z" fill="#FA744E"/>
<path fill-rule="evenodd" clip-rule="evenodd" d="M38.2307 114.114C38.0769 114.114 37.923 114.345 37.8461 114.422C37.7692 114.576 37.6923 114.653 37.6153 114.73C37.5384 114.422 37.3076 114.191 36.8461 114.268C36.2307 114.422 36.2307 115.192 36.5384 115.5C36.1538 115.885 36.0769 116.501 36.4615 116.809C36.9999 117.194 37.4615 117.733 38.3076 117.425C38.6153 117.348 39 117.271 39.3076 117.425C40 117.117 40.6153 116.732 41.3076 116.347C41.3076 115.731 41.0769 114.884 40.7692 114.576C39.9999 114.499 39.1538 114.268 38.2307 114.114Z" fill="#FA744E"/>
<path fill-rule="evenodd" clip-rule="evenodd" d="M100 62.139C99.9231 62.293 99.9231 62.678 100.077 62.832C100.231 62.986 100.538 63.14 100.769 63.14C100.923 62.832 101.077 62.524 101.231 62.216C101.231 62.139 101.231 62.062 101.231 61.985C100.692 61.754 100.231 61.677 100 62.139Z" fill="#FA744E"/>
<path fill-rule="evenodd" clip-rule="evenodd" d="M36.4615 112.266C36.1538 112.651 36.1538 113.267 36.4615 113.652C36.6923 113.883 37.6922 113.806 37.923 113.575C38.1538 113.344 38 112.574 37.7692 112.343C37.3846 111.881 36.7692 111.881 36.4615 112.266Z" fill="#FA744E"/>
<path fill-rule="evenodd" clip-rule="evenodd" d="M101.692 50.5891C101.615 50.7431 101.615 51.0511 101.692 51.2051C101.769 51.2821 102.308 51.5131 102.384 51.2821C102.461 51.1281 102.385 50.7431 102.231 50.6661C102.154 50.5891 101.846 50.4351 101.692 50.5891Z" fill="#FA744E"/>
<path fill-rule="evenodd" clip-rule="evenodd" d="M102.538 47.1241C102.461 47.2011 102.461 47.3551 102.538 47.4321C102.615 47.5091 102.846 47.5091 102.923 47.4321C103 47.3551 102.923 47.1241 102.846 47.1241C102.769 46.9701 102.538 47.0471 102.538 47.1241Z" fill="#FA744E"/>
<path fill-rule="evenodd" clip-rule="evenodd" d="M15.2307 114.114C14.4615 114.191 14.3076 114.576 14.3846 115.423C14.5384 116.193 14.923 116.578 15.4615 116.424C15.923 116.347 16.6922 115.346 16.5384 114.884C16.4615 114.345 15.923 114.037 15.2307 114.114Z" fill="#FA744E"/>
<path fill-rule="evenodd" clip-rule="evenodd" d="M17.3845 112.42C17.2307 112.574 17.1538 112.805 17.3076 112.959C17.4615 113.113 17.7691 113.19 17.9999 113.113C18.2307 113.036 18.1538 112.651 17.9999 112.497C17.923 112.42 17.6153 112.266 17.3845 112.42Z" fill="#FA744E"/>
<path fill-rule="evenodd" clip-rule="evenodd" d="M26.8461 109.802C26.3076 110.341 26.2307 111.573 26.6922 112.112C27.3076 112.728 28.3076 112.882 28.8461 112.343C29.3845 111.881 29.4615 110.341 28.9999 109.802C28.6153 109.263 27.4614 109.263 26.8461 109.802Z" fill="#FA744E"/>
<path fill-rule="evenodd" clip-rule="evenodd" d="M23.2307 119.581C22.9999 119.735 22.7691 120.043 22.6922 120.351C22.3076 120.582 22.0768 120.89 21.9999 121.275C21.8461 121.737 21.923 122.276 22.2307 122.815C22.5384 123.354 22.3845 123.97 22.8461 124.355C22.9999 124.432 23.1537 124.586 23.3845 124.663C24.5384 124.201 25.6922 123.739 26.846 123.277C26.923 123.123 26.923 122.892 26.923 122.738C26.923 122.045 25.9999 121.737 25.6922 121.044C25.6922 120.967 25.6153 120.89 25.6153 120.89C25.6153 120.736 25.5384 120.582 25.3845 120.428C24.7691 119.427 23.8461 119.273 23.2307 119.581Z" fill="#FA744E"/>
<path fill-rule="evenodd" clip-rule="evenodd" d="M29.3846 122.045C29.3077 121.968 29.3077 121.891 29.2307 121.814C29.2307 121.66 29.2307 121.583 29.1538 121.506C28.7692 120.967 28.2307 121.044 27.6923 121.352C27.6154 121.583 27.6154 121.737 27.6154 121.968C27.3846 122.122 27.0769 122.276 27.0769 122.738C27.0769 122.892 27.0769 123.046 27.1538 123.2C28 122.815 28.8461 122.507 29.6923 122.122C29.6154 122.045 29.5384 122.045 29.3846 122.045Z" fill="#FA744E"/>
<path fill-rule="evenodd" clip-rule="evenodd" d="M100.461 57.827C100.692 58.212 101.231 58.135 101.538 57.827C101.769 57.519 101.769 57.134 101.461 56.826C101.231 56.518 100.308 56.672 100.231 57.057C100.154 57.442 100.308 57.596 100.461 57.827Z" fill="#FA744E"/>
<path fill-rule="evenodd" clip-rule="evenodd" d="M100 46.816C99.923 46.893 99.923 47.201 100 47.278C100.154 47.355 100.462 47.355 100.538 47.278C100.615 47.201 100.769 46.739 100.615 46.585C100.538 46.585 100.154 46.739 100 46.816Z" fill="#FA744E"/>
<path fill-rule="evenodd" clip-rule="evenodd" d="M102.846 58.9051C102.923 58.6741 103 58.5201 103.154 58.2891C103.154 58.2891 103.077 58.2891 103.077 58.3661C102.846 58.5201 102.846 58.6741 102.846 58.9051Z" fill="#FA744E"/>
<path fill-rule="evenodd" clip-rule="evenodd" d="M99.7692 64.218C99.1538 64.141 98.2307 64.911 98.3076 65.604C98.3076 65.912 98.5384 66.22 98.7692 66.528C99.2307 65.835 99.6153 65.065 100.077 64.372C99.9999 64.218 99.923 64.218 99.7692 64.218Z" fill="#FA744E"/>
<path fill-rule="evenodd" clip-rule="evenodd" d="M100.461 53.8231C100.615 53.9771 100.923 53.9771 101.077 53.9001C101.231 53.8231 101.462 53.3611 101.308 53.2071C101.154 53.0531 100.769 53.1301 100.692 53.2071C100.538 53.4381 100.308 53.6691 100.461 53.8231Z" fill="#FA744E"/>
<path fill-rule="evenodd" clip-rule="evenodd" d="M11.5384 125.433C11.7692 125.741 12 125.741 12.2307 125.741C12.4615 125.741 12.6923 125.895 13.0769 125.741C13.2307 125.664 13.3846 125.587 13.5384 125.433C13.5384 125.587 13.4615 125.664 13.5384 125.818C13.6154 126.203 14.0769 126.511 14.4615 126.434C14.7692 126.357 15.0769 126.049 15.1538 125.664C15.5384 125.664 15.8461 125.587 15.9231 125.51C16.3077 125.202 16.2308 124.817 16.2308 124.432C16.1538 124.047 16.2308 123.662 15.8461 123.354C15.3846 123.046 14.6154 123.354 14.3077 123.893C14.1538 124.124 14.1538 124.432 14.2307 124.74C14.1538 124.74 14 124.817 13.9231 124.894C14 124.74 14 124.663 14.0769 124.509C14.1538 123.97 13.9231 123.508 13.5384 123.2C13.1538 122.892 12.6923 122.969 12.3846 123.123C12.0769 123.277 11.6154 123.662 11.5384 124.124C11.4615 124.586 11.2307 125.125 11.5384 125.433Z" fill="#FA744E"/>
<path fill-rule="evenodd" clip-rule="evenodd" d="M18.0769 125.895C17.6923 125.895 17.4615 126.049 17.3846 126.357C17.3846 126.28 17.3077 126.28 17.2307 126.203C17.0769 126.126 16.7692 126.28 16.6923 126.511C16.6154 126.665 16.6923 126.896 16.8461 127.05C17.4615 126.819 18 126.665 18.6154 126.434C18.5384 126.049 18.3846 125.895 18.0769 125.895Z" fill="#FA744E"/>
<path fill-rule="evenodd" clip-rule="evenodd" d="M102 59.6749C101.769 59.5209 101.615 59.3669 101.385 59.3669C101.077 59.3669 101 59.7519 101.154 60.1369C101.308 60.3679 101.692 60.6759 102 60.7529C102.154 60.5219 102.231 60.2909 102.385 60.0599C102.308 59.9059 102.154 59.7519 102 59.6749Z" fill="#FA744E"/>
<path fill-rule="evenodd" clip-rule="evenodd" d="M19.7692 125.818C19.6923 125.895 19.6154 125.972 19.6154 126.126C20.0769 125.972 20.5384 125.818 21 125.587C20.5384 125.51 20 125.587 19.7692 125.818Z" fill="#FA744E"/>
<path fill-rule="evenodd" clip-rule="evenodd" d="M107.308 34.1111C107.462 34.4191 108.077 34.4961 108.231 34.1881C108.308 33.9571 108.308 33.5721 108.154 33.4181C108 33.2641 107.462 32.9561 107.231 33.1101C107.077 33.2641 107.231 33.8801 107.308 34.1111Z" fill="#FA744E"/>
<path fill-rule="evenodd" clip-rule="evenodd" d="M98.923 52.129C99.3076 52.514 99.6922 52.668 99.9999 52.36C100.308 52.052 100.385 51.205 100.154 50.897C99.8461 50.589 99.3076 50.589 98.923 50.897C98.5384 51.282 98.5384 51.744 98.923 52.129Z" fill="#FA744E"/>
<path fill-rule="evenodd" clip-rule="evenodd" d="M98.9999 42.0419C98.8461 42.2729 98.9999 42.6579 99.2307 42.8889C99.3845 43.1969 99.7691 43.3509 100.077 42.9659C100.384 42.6579 100.538 42.3499 100.308 41.9649C99.9999 41.7339 99.1538 41.8109 98.9999 42.0419Z" fill="#FA744E"/>
<path fill-rule="evenodd" clip-rule="evenodd" d="M104.231 38.5769C103.692 39.1159 103.615 39.7319 104.077 40.2709C104.461 40.7329 105.231 40.8869 105.615 40.5789C106.154 40.1169 106.154 39.0389 105.692 38.4999C105.308 38.1149 104.615 38.1919 104.231 38.5769Z" fill="#FA744E"/>
<path fill-rule="evenodd" clip-rule="evenodd" d="M-0.769287 128.128V132.132C-0.615441 132.132 -0.538518 132.055 -0.384672 132.055C-0.307749 131.901 -0.153903 131.747 -5.6386e-05 131.593C0.307636 131.516 0.615319 131.208 0.615319 130.9C1.07686 130.284 1.30764 129.668 0.769174 128.898C0.230713 128.205 -0.307749 128.051 -0.769287 128.128Z" fill="#FA744E"/>
<path fill-rule="evenodd" clip-rule="evenodd" d="M102.384 35.42C101.923 35.728 101.846 36.19 102.154 36.575C102.385 36.883 102.923 37.037 103.231 36.806C103.615 36.575 103.692 36.036 103.461 35.574C103.154 35.189 102.769 35.112 102.384 35.42Z" fill="#FA744E"/>
<path fill-rule="evenodd" clip-rule="evenodd" d="M97.3846 35.189C97.0769 35.497 97 36.113 97.3077 36.421C97.6154 36.729 98.2308 36.729 98.5385 36.498C98.8461 36.19 98.9231 35.728 98.6923 35.42C98.3846 35.035 97.7692 34.881 97.3846 35.189Z" fill="#FA744E"/>
<path fill-rule="evenodd" clip-rule="evenodd" d="M95.5385 67.914C95.8461 68.376 96.0769 68.915 96.6923 68.761C97.1538 68.607 97.3846 68.299 97.3077 67.837C97.3077 67.452 97.1538 67.221 96.7692 67.144C96.0769 66.913 95.8461 67.375 95.5385 67.914Z" fill="#FA744E"/>
<path fill-rule="evenodd" clip-rule="evenodd" d="M94.3846 48.972C94.0769 49.357 94.0769 49.896 94.4615 50.204C94.7692 50.435 95.3076 50.435 95.6153 50.127C95.923 49.742 95.8461 49.28 95.4615 48.895C95.0768 48.587 94.6923 48.587 94.3846 48.972Z" fill="#FA744E"/>
<path fill-rule="evenodd" clip-rule="evenodd" d="M96.923 54.2079C96.7691 54.1309 96.4614 54.0539 96.3845 54.1309C96.3076 54.2079 96.3845 54.6699 96.4615 54.8239C96.5384 54.9009 96.7692 54.9009 96.8461 54.9009C96.8461 54.9779 96.923 55.0549 96.9999 55.1319C97.3076 55.3629 97.923 55.3629 98.1537 55.0549C98.3845 54.8239 98.1537 54.2849 97.7691 53.9769C97.4614 53.7459 97.2307 53.7459 96.9999 54.0539C96.9999 54.1309 96.9999 54.2079 96.923 54.2079Z" fill="#FA744E"/>
<path fill-rule="evenodd" clip-rule="evenodd" d="M96.4615 61.6771C97.0769 62.2161 97.9999 62.0621 98.6922 61.2921C99.2307 60.6761 99.1538 59.7521 98.5384 59.2131C97.923 58.6741 96.6922 58.7511 96.1538 59.4441C95.7692 59.9831 95.8461 61.1381 96.4615 61.6771Z" fill="#FA744E"/>
<path fill-rule="evenodd" clip-rule="evenodd" d="M97.1538 52.052C97.0769 52.129 97.1538 52.283 97.1538 52.36C97.2307 52.437 97.3846 52.437 97.4615 52.437C97.5384 52.36 97.6154 52.206 97.4615 52.052C97.4615 51.975 97.2307 52.052 97.1538 52.052Z" fill="#FA744E"/>
<path fill-rule="evenodd" clip-rule="evenodd" d="M102.538 42.1189C102.231 42.4269 102.231 42.8889 102.462 43.1969C102.846 43.6589 103.385 43.7359 103.769 43.3509C104.077 43.0429 104.154 42.4269 103.846 42.1189C103.538 41.8109 102.846 41.8109 102.538 42.1189Z" fill="#FA744E"/>
<path fill-rule="evenodd" clip-rule="evenodd" d="M107.615 28.4131C107.461 28.7981 107.308 29.6451 108.154 29.7991C108.846 29.5681 109.154 29.7991 109.461 30.0301C109.461 29.7991 109.461 29.5681 109.461 29.3371V27.4891C108.846 27.3351 107.923 27.7971 107.615 28.4131Z" fill="#FA744E"/>
<path fill-rule="evenodd" clip-rule="evenodd" d="M-0.769287 115.962V119.119C-0.615441 118.888 -0.461585 118.657 -0.230816 118.426C0.153799 118.118 0.384564 117.579 0.0768714 117.04C-0.153898 116.578 -0.615441 116.193 -0.769287 115.962Z" fill="#FA744E"/>
<path fill-rule="evenodd" clip-rule="evenodd" d="M97.9999 65.1421C97.8461 64.9881 97.4614 64.8341 97.2307 64.9111C97.0768 64.9881 96.9999 65.4501 97.0768 65.6811C97.1537 65.8351 97.7691 66.1431 97.923 65.9891C98.1537 65.8351 98.0768 65.2191 97.9999 65.1421Z" fill="#FA744E"/>
<path fill-rule="evenodd" clip-rule="evenodd" d="M0.615319 113.498C0.538396 112.728 -0.153902 112.189 -0.769287 112.266V115.269C-0.692364 115.115 -0.538513 115.038 -0.307744 115.038C0.153795 115.038 0.692242 114.499 0.615319 113.498Z" fill="#FA744E"/>
<path fill-rule="evenodd" clip-rule="evenodd" d="M106.615 43.6591C106.538 43.7361 106.538 44.1211 106.615 44.1981C106.692 44.2751 107.154 44.5061 107.308 44.2751C107.461 44.0441 107.308 43.7361 107.154 43.5821C107.077 43.5051 106.692 43.5051 106.615 43.6591Z" fill="#FA744E"/>
<path fill-rule="evenodd" clip-rule="evenodd" d="M107.077 37.191C107.538 37.73 108.154 37.73 108.769 37.191C108.846 37.114 108.923 37.037 109 36.883C109 36.652 109.077 36.498 109.077 36.267C109 36.036 108.923 35.805 108.692 35.574C108.308 35.112 107.769 35.035 107.385 35.266C107 35.651 106.769 36.806 107.077 37.191Z" fill="#FA744E"/>
<path fill-rule="evenodd" clip-rule="evenodd" d="M106.231 24.794C106.154 24.871 106.231 25.025 106.231 25.102C106.308 25.179 106.462 25.179 106.538 25.179C106.615 25.102 106.692 24.948 106.538 24.794C106.385 24.64 106.308 24.717 106.231 24.794Z" fill="#FA744E"/>
<path fill-rule="evenodd" clip-rule="evenodd" d="M107.615 41.272C107.231 41.58 107.231 42.504 107.615 42.966C107.692 43.12 107.846 43.197 108 43.197C108.154 42.504 108.308 41.734 108.385 41.041C108.154 41.041 107.846 41.118 107.615 41.272Z" fill="#FA744E"/>
<path fill-rule="evenodd" clip-rule="evenodd" d="M103.385 55.517C103.154 55.671 103.231 56.518 103.538 56.749C103.615 56.826 103.769 56.8261 103.846 56.8261C104 56.4411 104.154 56.0561 104.308 55.6711C104.231 55.6711 104.231 55.594 104.154 55.594C103.846 55.44 103.538 55.363 103.385 55.517Z" fill="#FA744E"/>
<path fill-rule="evenodd" clip-rule="evenodd" d="M11.5384 121.044C11.6922 121.737 12.7691 122.199 13.6922 122.045C14.3845 121.891 14.7691 121.198 14.5384 120.505C14.5384 120.428 14.4614 120.274 14.4614 120.197C14.6153 119.966 14.6922 119.812 14.9999 119.658C15.4614 119.504 15.4614 119.196 15.4614 118.657C15.3845 118.195 15.3076 117.425 14.6153 117.502C13.923 117.579 13.923 118.041 13.923 118.272C13.9999 118.503 13.7691 118.888 13.6153 118.657C13.4615 118.426 13.2307 118.426 12.6922 118.734C12.3076 118.965 12.1537 119.196 12.1537 119.504C11.6153 119.812 11.3845 120.505 11.5384 121.044Z" fill="#FA744E"/>
<path fill-rule="evenodd" clip-rule="evenodd" d="M85.4614 58.7511C85.6153 58.5201 85.7691 57.8271 85.6153 57.6731C85.4615 57.5191 84.7692 57.7501 84.5384 57.9041C84.2307 58.1351 84.3076 58.5201 84.6153 58.8281C84.923 59.2131 85.2307 59.0591 85.4614 58.7511Z" fill="#FA744E"/>
<path fill-rule="evenodd" clip-rule="evenodd" d="M81.5384 74.1509C81.0769 74.8439 81.1538 75.4599 81.7692 75.9219C82.3846 76.3839 83.1538 76.2299 83.6922 75.5369C84.0769 75.0749 83.8461 74.1509 83.3076 73.6889C82.6922 73.3039 81.9999 73.4579 81.5384 74.1509Z" fill="#FA744E"/>
<path fill-rule="evenodd" clip-rule="evenodd" d="M84.4614 78.1551C84.7691 78.3091 85.5384 78.4631 85.6922 78.2321C85.8461 78.0011 85.4614 77.3081 85.3076 77.0771C85.0768 76.7691 84.5383 77.0001 84.3076 77.3081C84.1537 77.6161 84.0768 78.0011 84.4614 78.1551Z" fill="#FA744E"/>
<path fill-rule="evenodd" clip-rule="evenodd" d="M86.6153 69.4539C86.5384 69.5309 86.5384 69.6849 86.6153 69.7619C86.6922 69.8389 86.923 69.8389 86.9999 69.7619C87.0768 69.6849 86.9999 69.4539 86.923 69.4539C86.8461 69.2999 86.6922 69.3769 86.6153 69.4539Z" fill="#FA744E"/>
<path fill-rule="evenodd" clip-rule="evenodd" d="M82.8461 65.527C83 65.373 82.7692 64.911 82.6923 64.834C82.5384 64.757 82.2308 64.68 82.0769 64.834C81.9231 64.988 82 65.296 82.1538 65.373C82.2307 65.527 82.6923 65.681 82.8461 65.527Z" fill="#FA744E"/>
<path fill-rule="evenodd" clip-rule="evenodd" d="M87.7692 66.143C87.923 65.835 88.0769 65.142 87.8461 64.911C87.6154 64.68 86.923 65.219 86.6923 65.373C86.4615 65.604 86.4615 65.989 86.8461 66.22C87.2308 66.374 87.6153 66.451 87.7692 66.143Z" fill="#FA744E"/>
<path fill-rule="evenodd" clip-rule="evenodd" d="M93.7692 73.535C93.5384 72.919 92.3846 72.534 91.7692 72.842C91.0769 73.15 91.0769 73.535 91.6153 74.921C91.0769 75.229 90.5384 75.383 90.8461 76.076C90.923 76.307 91.0769 76.461 91.2307 76.538C91.4615 76.307 91.6923 76.076 91.8461 75.845C92.5384 75.075 93.1538 74.305 93.7692 73.535Z" fill="#FA744E"/>
<path fill-rule="evenodd" clip-rule="evenodd" d="M90.1538 50.281C90.3076 50.05 90.3845 49.665 90.2307 49.511C90.0769 49.357 89.6153 49.434 89.4615 49.511C89.3076 49.665 89.1538 50.281 89.3076 50.435C89.5384 50.589 90.0769 50.358 90.1538 50.281Z" fill="#FA744E"/>
<path fill-rule="evenodd" clip-rule="evenodd" d="M89.1539 68.6841C89.5385 68.9151 90.1539 68.9151 90.3846 68.5301C90.6923 68.1451 90.5385 67.5291 90.1539 67.2211C89.7693 66.9901 89.3077 66.9901 89.0769 67.3751C88.7692 67.8371 88.7693 68.3761 89.1539 68.6841Z" fill="#FA744E"/>
<path fill-rule="evenodd" clip-rule="evenodd" d="M86.3846 72.534C86.2307 72.457 86.0769 72.457 85.923 72.534C85.8461 72.534 85.8461 72.919 85.923 72.996C86 73.073 86.1538 73.15 86.2307 73.15C86.2307 73.458 86.3846 73.766 86.6153 73.997C86.9999 74.382 87.5384 74.382 87.8461 74.074C88.2307 73.689 88.2307 72.688 87.8461 72.303C87.5384 71.995 86.8461 71.995 86.5384 72.38C86.3846 72.457 86.3846 72.534 86.3846 72.534Z" fill="#FA744E"/>
<path fill-rule="evenodd" clip-rule="evenodd" d="M100.538 29.414C100.846 29.722 101.385 29.799 101.769 29.491C102.231 29.106 102.231 28.567 101.923 28.182C101.615 27.797 101 27.797 100.615 28.105C100.231 28.413 100.231 28.952 100.538 29.414Z" fill="#FA744E"/>
<path fill-rule="evenodd" clip-rule="evenodd" d="M44.0769 99.407C43.7692 99.715 43.7692 100.331 44.2307 100.793C44.4615 100.716 44.923 100.793 45.2307 100.639C45.5384 100.408 45.6153 99.946 45.3846 99.561C45.8461 99.561 46.1538 99.099 46.1538 98.791C46.1538 98.483 45.6923 98.098 45.3076 98.175C44.923 98.252 44.6153 98.714 44.8461 99.176C44.5384 99.099 44.2307 99.176 44.0769 99.407Z" fill="#FA744E"/>
<path fill-rule="evenodd" clip-rule="evenodd" d="M28.7691 95.942C29.1537 96.481 29.5384 97.097 29.923 97.636C28.923 98.483 28.923 98.56 29.7691 99.253C30.3845 99.099 30.5384 98.637 30.3845 98.021C31.7691 97.328 31.7691 96.404 30.3845 95.403C30.3845 95.326 30.3845 95.172 30.3845 95.095C30.5384 94.633 30.3076 94.402 29.923 94.171C29.6153 93.94 29.3076 94.017 28.9999 94.248C28.3076 94.71 28.2307 95.172 28.7691 95.942Z" fill="#FA744E"/>
<path fill-rule="evenodd" clip-rule="evenodd" d="M10.3845 108.416C10.3845 108.724 10.9999 109.263 11.3845 109.34C11.7691 109.34 12.0768 109.032 11.9999 108.57C11.9999 108.416 11.9999 108.262 11.923 108.185C11.9999 108.339 12.0768 108.493 12.1537 108.647C12.0768 108.801 11.9999 108.955 11.923 109.109C11.6922 109.725 11.7691 110.649 12.2307 110.957C12.6922 111.265 13.1537 111.419 13.6922 111.342C13.9999 111.804 14.6922 112.112 15.1538 111.958C15.5384 111.804 15.9999 110.957 15.8461 110.495C15.6922 110.11 15.2307 109.802 14.8461 109.879C14.7691 109.34 14.4614 108.878 13.923 108.57C13.7691 108.493 13.6153 108.416 13.4614 108.339C13.6153 108.031 13.8461 107.723 13.9999 107.415C14.2307 106.799 14.1538 106.491 13.6153 106.183C13.1538 105.875 12.6153 105.875 12.1537 106.183C11.6922 106.491 11.6153 107.03 11.7691 107.492C11.6922 107.338 11.5384 107.261 11.4614 107.261C11.0768 107.415 10.4614 108.031 10.3845 108.416Z" fill="#FA744E"/>
<path fill-rule="evenodd" clip-rule="evenodd" d="M3.15381 100.1C2.30766 100.254 1.92305 100.87 2.0769 101.64C2.23074 102.333 2.84611 102.795 3.30765 102.641C4.07688 102.41 4.61534 101.486 4.46149 100.793C4.46149 100.331 3.69228 99.9459 3.15381 100.1Z" fill="#FA744E"/>
<path fill-rule="evenodd" clip-rule="evenodd" d="M4.15375 92.7851C4.15375 92.6311 3.92298 92.2461 3.69221 92.2461C3.46144 92.2461 3.38452 92.7081 3.38452 92.8621C3.38452 93.0161 3.6153 93.2471 3.84606 93.2471C4.07683 93.2471 4.15375 92.9391 4.15375 92.7851Z" fill="#FA744E"/>
<path fill-rule="evenodd" clip-rule="evenodd" d="M12.0769 102.949C12.6153 102.872 12.923 102.102 12.7692 101.409C12.6922 100.947 12.3846 100.793 11.923 100.87C11.3076 100.947 10.7692 101.563 10.8461 101.948C10.9999 102.487 11.6923 103.026 12.0769 102.949Z" fill="#FA744E"/>
<path fill-rule="evenodd" clip-rule="evenodd" d="M34.4615 88.0881C34.2307 88.3191 34.1538 88.6271 34.4615 88.8581C34.6923 89.0891 35 89.0121 35.1538 88.7811C35.3077 88.5501 35.1538 88.2421 35.0769 88.0881C34.923 88.0111 34.6923 87.8571 34.4615 88.0881Z" fill="#FA744E"/>
<path fill-rule="evenodd" clip-rule="evenodd" d="M29.8462 92.2461C29.6154 92.0151 29.2308 91.7841 29 92.169C28.8462 92.4 28.7692 92.862 28.9231 93.093C29.0769 93.324 29.5385 93.247 29.7693 93.324C30.1539 92.862 30.0769 92.5541 29.8462 92.2461Z" fill="#FA744E"/>
<path fill-rule="evenodd" clip-rule="evenodd" d="M33.4615 113.806C33.8461 114.191 34.6153 114.037 35.2307 113.421C35.5384 113.113 35.4615 112.343 35.1538 112.112C34.8461 111.804 33.8461 111.727 33.5384 111.958C33.1538 112.343 33.0769 113.421 33.4615 113.806Z" fill="#FA744E"/>
<path fill-rule="evenodd" clip-rule="evenodd" d="M34.1538 84.931C34.0769 85.085 34 85.316 34.0769 85.47C34.1538 85.547 34.4615 85.855 34.6923 85.624C34.9231 85.393 34.6923 85.085 34.6154 84.931C34.5385 84.854 34.2308 84.854 34.1538 84.931Z" fill="#FA744E"/>
<path fill-rule="evenodd" clip-rule="evenodd" d="M28.5383 118.349C27.9999 118.657 27.7691 119.042 27.9999 119.427C28.3076 119.889 28.846 119.889 29.3845 119.504C29.4614 119.427 29.4614 119.35 29.5383 119.35C29.846 119.119 30.0768 119.119 30.2306 119.581C30.3076 119.735 30.2306 119.889 30.3076 120.043C30.5383 120.659 31.0768 121.044 31.6922 121.044C32.3845 121.044 32.7691 120.813 33.0768 120.043C33.0768 119.966 33.1537 119.889 33.1537 119.812C33.6153 120.043 34.1537 119.966 34.6153 119.658C34.7691 119.581 34.923 119.504 35.0768 119.35C35.0768 119.427 35.1537 119.504 35.1537 119.581C35.923 119.196 36.6922 118.811 37.4614 118.426C37.3076 118.426 37.1537 118.426 36.9999 118.503C36.846 118.426 36.7691 118.349 36.6153 118.349C36.2307 118.272 35.846 118.272 35.4614 118.195C35.3845 118.041 35.3076 117.887 35.1537 117.733C34.7691 117.194 33.9999 116.809 33.4614 117.04C33.923 116.27 33.5383 115.654 32.5383 115.577C31.6153 115.5 31.0768 116.039 31.1537 116.963C31.1537 117.194 31.3076 117.502 31.3845 117.964C30.9999 117.964 30.6153 118.041 30.4614 117.887C29.846 117.502 29.3076 117.656 28.846 118.118C28.923 118.195 28.6922 118.272 28.5383 118.349Z" fill="#FA744E"/>
<path fill-rule="evenodd" clip-rule="evenodd" d="M30.0768 116.27C30.3845 116.424 30.923 116.347 31.0768 116.039C31.3076 115.654 31.1537 115.423 30.3845 114.961C29.6153 115.192 29.6922 116.039 30.0768 116.27Z" fill="#FA744E"/>
<path fill-rule="evenodd" clip-rule="evenodd" d="M43.2307 114.345C42.9999 114.191 42.5384 114.114 42.3076 114.191C41.9999 114.345 41.923 114.499 41.8461 114.73C41.3845 114.807 41.2307 115.885 41.5384 116.27C42.2307 115.885 42.8461 115.577 43.5384 115.192C43.6153 114.884 43.5384 114.576 43.2307 114.345Z" fill="#FA744E"/>
<path fill-rule="evenodd" clip-rule="evenodd" d="M101.538 23.8701C101.692 23.7161 101.769 23.4081 101.692 23.2541C101.615 23.0231 101.308 22.7151 101.077 22.7151C100.538 22.7151 100.308 23.3311 100.385 23.6391C100.461 23.9471 101.154 24.2551 101.538 23.8701Z" fill="#FA744E"/>
<path fill-rule="evenodd" clip-rule="evenodd" d="M24.9999 103.719C25.3076 103.719 25.3076 103.257 25.2307 103.18C25.1537 103.026 24.9999 102.795 24.7691 102.872C24.5384 102.949 24.4614 103.18 24.5384 103.257C24.5384 103.488 24.6922 103.796 24.9999 103.719Z" fill="#FA744E"/>
<path fill-rule="evenodd" clip-rule="evenodd" d="M32.0769 107.723C31.7692 107.415 31.1538 107.338 30.8462 107.569C30.5385 107.877 30.4615 108.724 30.6154 108.955C30.9231 109.263 31.6154 109.263 32 109.032C32.3846 108.724 32.4615 108.108 32.0769 107.723Z" fill="#FA744E"/>
<path fill-rule="evenodd" clip-rule="evenodd" d="M31.4615 111.804C31.3077 111.804 30.9231 111.958 30.9231 112.189C30.9231 112.42 31.3846 112.497 31.4615 112.497C31.6154 112.42 31.9231 112.343 31.8462 112.112C31.8462 111.804 31.6154 111.727 31.4615 111.804Z" fill="#FA744E"/>
<path fill-rule="evenodd" clip-rule="evenodd" d="M79.6153 86.317C79.9999 86.625 80.6153 86.625 80.8461 86.317C81.0768 86.009 81.0769 85.47 80.7692 85.162C80.4615 84.931 79.7692 84.931 79.5384 85.162C79.2307 85.47 79.3076 86.086 79.6153 86.317Z" fill="#FA744E"/>
<path fill-rule="evenodd" clip-rule="evenodd" d="M46.1538 113.113C45.8461 112.805 45.3077 112.882 44.923 113.267C44.6154 113.575 44.4615 114.191 44.6923 114.576C45.3077 114.268 45.8461 113.96 46.4615 113.575C46.3846 113.421 46.2307 113.267 46.1538 113.113Z" fill="#FA744E"/>
<path fill-rule="evenodd" clip-rule="evenodd" d="M94.6922 57.519C94.4615 57.288 94.1538 57.596 94 57.673C93.923 57.75 93.923 58.058 94 58.135C94.1538 58.212 94.4615 58.212 94.5384 58.135C94.6923 58.135 94.923 57.827 94.6922 57.519Z" fill="#FA744E"/>
<path fill-rule="evenodd" clip-rule="evenodd" d="M79.923 75.6139C79.6153 75.9989 79.6153 76.6149 79.9999 76.8459C80.3076 77.0769 80.923 76.9999 81.1538 76.7689C81.3845 76.4609 81.3846 75.7679 81.0769 75.5369C80.7692 75.2289 80.2307 75.3059 79.923 75.6139Z" fill="#FA744E"/>
<path fill-rule="evenodd" clip-rule="evenodd" d="M95.3076 70.1471C94.923 70.6861 94.846 71.3021 95.2306 71.6101C95.6153 71.0711 95.9999 70.5321 96.3845 69.9931C95.9229 69.7621 95.6153 69.7621 95.3076 70.1471Z" fill="#FA744E"/>
<path fill-rule="evenodd" clip-rule="evenodd" d="M13.5384 114.345C13.5384 114.037 13.1538 113.652 12.8461 113.652C12.3845 113.652 12.3076 113.883 12.3076 114.807C12.8461 115.269 13.5384 114.73 13.5384 114.345Z" fill="#FA744E"/>
<path fill-rule="evenodd" clip-rule="evenodd" d="M4.99996 125.279C4.92303 125.433 4.84611 125.664 4.99996 125.818C5.1538 125.972 5.38458 125.895 5.4615 125.818C5.53842 125.664 5.76918 125.356 5.61533 125.125C5.38456 124.971 5.07688 125.202 4.99996 125.279Z" fill="#FA744E"/>
<path fill-rule="evenodd" clip-rule="evenodd" d="M94.6154 47.201C94.5384 47.278 94.4615 47.586 94.5385 47.74C94.6154 47.817 94.923 47.894 95.0769 47.817C95.2307 47.74 95.4615 47.355 95.3077 47.201C95.1538 46.97 94.7692 47.047 94.6154 47.201Z" fill="#FA744E"/>
<path fill-rule="evenodd" clip-rule="evenodd" d="M7.23071 123.046C6.69225 123.354 6.30763 124.047 6.38455 124.586C6.5384 125.356 7.30763 125.972 7.99994 125.895C8.69225 125.818 9.53841 124.509 9.38457 123.816C9.30765 123.508 9.07687 123.277 8.8461 123.123C9.07687 122.892 9.15378 122.584 9.07686 122.276C8.99993 121.814 8.46148 121.506 8.07687 121.66C7.92302 121.737 7.69225 121.891 7.61532 122.045C7.46148 121.66 7.23071 121.275 6.84609 120.967C6.76917 120.736 6.61532 120.582 6.38455 120.351C6.07686 120.12 5.69224 120.12 5.2307 119.966C5.2307 119.735 5.2307 119.504 5.2307 119.273C5.2307 118.811 4.99994 118.58 4.61533 118.426C4.15379 118.272 3.69225 118.503 3.38455 118.888C3.15379 119.119 3.07687 119.35 3.07687 119.581C2.8461 119.35 2.38456 119.196 1.99995 119.273C1.61533 119.35 1.30763 119.735 1.46148 120.12C1.5384 120.428 1.84611 120.813 2.07688 120.967C2.69226 121.121 3.23072 120.659 3.23072 120.12C3.38457 120.428 3.46149 120.736 3.53841 121.044C3.53841 121.198 3.76918 121.429 3.92303 121.506C3.92303 121.66 3.99993 121.737 4.07686 121.891C4.46147 122.507 4.76918 122.584 5.53842 122.353C6.07688 122.661 6.53841 122.892 6.99995 123.123C7.1538 123.046 7.15379 123.046 7.23071 123.046Z" fill="#FA744E"/>
<path fill-rule="evenodd" clip-rule="evenodd" d="M8.84611 129.36C8.92304 129.437 8.92304 129.514 8.99997 129.591C10.6154 129.129 12.1538 128.667 13.6923 128.128C13.6153 127.666 13.2307 127.435 12.4615 127.127C12.2307 126.588 12.1538 126.126 11.923 125.818C11.6153 125.356 10.923 125.279 10.6153 125.587C10.1538 125.972 9.69227 126.434 9.23073 126.896C8.38457 126.742 8.30765 126.742 8.07688 127.666C8.23073 128.051 8.99997 128.051 8.61535 128.667C8.23074 128.59 7.84612 128.513 7.46151 128.513C6.99997 128.513 6.69226 128.821 6.46149 129.206C6.23072 129.591 6.53841 129.899 6.76918 130.207C7.46149 130.053 8.07688 129.822 8.76918 129.668C8.76918 129.514 8.84611 129.437 8.84611 129.36Z" fill="#FA744E"/>
<path fill-rule="evenodd" clip-rule="evenodd" d="M17.2307 121.429C17.1537 121.814 17.3076 122.353 17.6153 122.738C17.5384 122.738 17.4614 122.738 17.4614 122.815C17.2307 122.969 17.2307 123.123 17.3845 123.354C17.5384 123.508 17.6922 123.585 17.8461 123.431C17.9999 123.277 18.0768 123.2 17.9999 123.046C18.1537 123.123 18.3845 123.2 18.6153 123.2C19.0768 123.2 19.3845 123.046 19.6922 122.892C19.6922 123.046 19.6153 123.123 19.6153 123.277C19.6153 123.893 20.0768 124.432 20.5384 124.509C21.2307 124.586 21.923 124.278 22.0768 123.662C22.1538 123.431 22.1537 122.969 21.9999 122.738C21.6153 122.122 21.0768 121.891 20.3076 122.045C20.3076 121.968 20.3845 121.814 20.3845 121.737C20.3845 121.044 19.4614 120.043 18.6153 120.043C17.6922 120.043 17.3845 120.813 17.2307 121.429Z" fill="#FA744E"/>
<path fill-rule="evenodd" clip-rule="evenodd" d="M24.7692 114.653C24.6922 115.115 24.923 115.346 25.3845 115.5C25.6922 115.654 26.2307 115.885 26.5384 115.731C26.4615 115.885 26.3076 116.039 26.2307 116.193C25.9999 116.732 26.4615 117.81 27.0769 117.964C27.6922 118.118 28.7691 117.502 28.8461 116.655C28.923 115.731 28.4614 115.192 27.923 114.961C27.6153 114.807 27.1538 115.038 26.8461 115.346C27.1538 114.73 26.7691 114.422 26.5384 114.345C26.3076 114.268 26.1538 113.883 26.3845 113.883C26.6153 113.883 26.8461 113.652 26.8461 113.036C26.8461 112.42 26.6153 112.112 25.9999 112.035C25.3076 111.958 24.6922 112.497 24.6153 113.19C24.4615 114.037 24.8461 114.191 24.7692 114.653Z" fill="#FA744E"/>
<path fill-rule="evenodd" clip-rule="evenodd" d="M20.8461 119.889C20.7692 119.658 20.8461 119.273 20.6153 118.965C20.3846 118.657 20 118.657 19.7692 118.888C19.5384 119.119 19.3076 119.427 19.6153 119.735C19.8461 120.197 20.3846 120.274 20.8461 119.889Z" fill="#FA744E"/>
<path fill-rule="evenodd" clip-rule="evenodd" d="M16.3846 106.953C15.6922 107.107 15.4615 107.646 15.6923 108.493C15.8461 108.955 16.4615 109.34 16.923 109.263C16.9999 109.263 17.1538 109.186 17.2307 109.109C17.1538 109.571 17.3076 110.033 17.6153 110.418C17.923 110.803 18.6153 110.803 19.1538 110.418C19.6923 110.033 19.923 109.032 19.6153 108.57C19.2307 108.108 18.6153 107.954 18.0769 108.108C18.1538 107.954 18.2307 107.723 18.1538 107.646C17.923 107.107 17.0769 106.799 16.3846 106.953Z" fill="#FA744E"/>
<path fill-rule="evenodd" clip-rule="evenodd" d="M18.4616 112.266C18.2308 112.805 18.5385 113.267 19.0769 113.575C19.5385 113.421 20 113.267 20.0769 112.651C20.0769 112.189 19.7693 111.804 19.3077 111.881C19 111.881 18.6154 112.112 18.4616 112.266Z" fill="#FA744E"/>
<path fill-rule="evenodd" clip-rule="evenodd" d="M81.3846 82.0049C81.6922 82.2359 82.0769 82.2359 82.2307 81.8509C82.3846 81.5429 82.6153 80.7729 82.3076 80.6189C82 80.4649 81.3846 80.8499 81.1538 81.0039C80.8461 81.2349 80.9999 81.7739 81.3846 82.0049Z" fill="#FA744E"/>
<path fill-rule="evenodd" clip-rule="evenodd" d="M32.6923 90.9371C32.5384 91.0141 32.3077 91.4761 32.4615 91.6301C32.6153 91.7841 33 91.7071 33.0769 91.5531C33.2307 91.3991 33.4615 91.0911 33.2307 91.0141C33.1538 90.8601 32.8461 90.8601 32.6923 90.9371Z" fill="#FA744E"/>
<path fill-rule="evenodd" clip-rule="evenodd" d="M31.6922 100.254C31.5384 100.485 30.9999 101.024 31.3845 101.409C31.7691 101.794 32.3076 101.409 32.6153 101.255C32.923 101.101 32.923 100.639 32.6922 100.254C32.3076 99.9461 31.923 99.8691 31.6922 100.254Z" fill="#FA744E"/>
<path fill-rule="evenodd" clip-rule="evenodd" d="M31.3846 104.335C31.0769 104.643 31.2308 105.875 31.6154 106.26C31.9231 106.568 32.6923 106.568 33 106.26C33.5385 105.721 33.6154 105.028 33.2308 104.566C32.6923 104.027 31.7692 103.95 31.3846 104.335Z" fill="#FA744E"/>
<path fill-rule="evenodd" clip-rule="evenodd" d="M37.3845 101.794C36.8461 102.256 36.923 103.026 37.4615 103.565C37.8461 104.027 38.4614 103.95 39.0768 103.411C39.5384 102.949 39.6922 102.41 39.3076 102.025C38.9999 101.64 37.6922 101.486 37.3845 101.794Z" fill="#FA744E"/>
<path fill-rule="evenodd" clip-rule="evenodd" d="M35.7691 97.6361C35.1538 98.1751 35.2307 99.0991 35.9999 99.8691C36.5384 100.485 37.3076 100.485 37.8461 99.9461C38.4615 99.3301 38.4615 98.1751 37.8461 97.5591C37.3845 97.1741 36.3076 97.1741 35.7691 97.6361Z" fill="#FA744E"/>
<path fill-rule="evenodd" clip-rule="evenodd" d="M26.3845 100.716C26.2307 100.716 26.0768 100.793 25.9999 100.87C25.923 100.562 25.7692 100.331 25.5384 100.1C24.9999 99.6381 24.0769 99.6381 23.5384 100.177C22.9999 100.716 23.1538 101.717 23.8461 102.41C24.3076 102.872 24.9999 102.872 25.5384 102.333C25.6153 102.256 25.6922 102.102 25.7692 102.025C26.2307 102.256 27.0769 102.256 27.3076 101.948C27.6922 101.563 26.923 100.639 26.3845 100.716Z" fill="#FA744E"/>
<path fill-rule="evenodd" clip-rule="evenodd" d="M27.5383 105.028C27.0768 105.105 26.6153 105.259 26.3076 105.567C26.0768 105.798 25.923 106.106 25.923 106.414C25.846 106.645 25.846 106.876 25.9999 107.03C26.0768 107.261 26.1537 107.415 26.3845 107.569C27.1537 108.416 27.923 108.416 28.7691 107.723C29.3076 107.261 29.3845 106.414 29.0768 105.798C29.3845 105.49 29.6153 105.182 29.4614 104.874C29.3845 104.489 29.0768 104.258 28.6922 104.258C27.9999 104.258 27.7691 104.412 27.5383 105.028Z" fill="#FA744E"/>
<path fill-rule="evenodd" clip-rule="evenodd" d="M20.2307 114.807C20.1538 114.884 20.0768 114.961 20.0768 115.115V115.192C19.9999 115.269 19.9999 115.423 19.923 115.5C19.5384 116.039 19.3845 116.578 19.5384 116.963C19.4615 116.886 19.3845 116.809 19.2307 116.732C18.6922 116.424 17.9999 116.501 17.6922 116.886C17.2307 117.425 17.1538 118.118 17.5384 118.657C17.6922 118.888 18.0768 119.042 18.3845 119.042C19.1538 119.042 19.6922 118.657 19.9999 117.733C20.2307 118.041 20.6153 118.195 20.9999 118.426C21.3076 118.58 21.6153 118.58 21.923 118.58C21.6922 118.734 21.4615 119.119 21.5384 119.504C21.7691 119.581 22.0768 119.812 22.3845 119.812C22.7692 119.812 22.923 119.504 22.8461 119.119C22.7692 118.811 22.6922 118.58 22.3845 118.503C22.7692 118.349 23.1538 118.041 23.3845 117.579C23.6922 117.04 24.3076 116.886 24.3845 116.27C24.4615 115.423 24.1538 114.114 22.8461 113.575C21.9999 113.267 21.3845 113.344 20.8461 113.652C20.3076 113.883 20.3076 114.345 20.2307 114.807Z" fill="#FA744E"/>
<path fill-rule="evenodd" clip-rule="evenodd" d="M21.0769 109.109C20.923 109.34 20.6923 109.417 20.6923 109.802C20.6923 110.187 20.7692 110.88 21.2307 111.265C21.6923 111.65 22.1538 111.65 22.6153 111.496C23.0769 111.342 23.2307 110.88 23.3076 110.572C23.7692 110.803 24.1538 110.495 24.6153 110.264C24.5384 109.725 24.5384 109.109 23.8461 109.032C23.7692 109.032 23.6923 109.032 23.6923 109.032C23.7692 108.57 23.5384 107.877 23.2307 107.569C22.923 107.261 22.3846 107.261 22 107.646C21.6923 107.954 21.4615 108.416 21.5384 108.801C21.2307 108.878 21.1538 108.955 21.0769 109.109Z" fill="#FA744E"/>
<path fill-rule="evenodd" clip-rule="evenodd" d="M22.9999 94.8641C22.6153 94.6331 22.2307 94.7101 21.9999 95.0951C21.8461 95.3261 21.7692 95.7111 21.8461 95.9421C22.1538 96.5581 22.6922 96.4811 23.3076 96.2501C23.3846 95.7111 23.6153 95.1721 22.9999 94.8641Z" fill="#FA744E"/>
<path fill-rule="evenodd" clip-rule="evenodd" d="M38.9231 91.63C38.5384 92.015 38.5384 92.785 39 93.247C39.4615 93.709 39.8461 93.786 40.2307 93.401C40.7692 92.862 41 91.938 40.5384 91.476C40.2308 91.091 39.3846 91.168 38.9231 91.63Z" fill="#FA744E"/>
<path fill-rule="evenodd" clip-rule="evenodd" d="M43.3846 95.4799C43 95.3259 42.5384 95.4799 42.3077 95.8649C42.0769 96.2499 42.0769 96.7119 42.3846 97.0199C42.9231 97.4819 43.7692 97.0969 43.9231 96.9429C44.1538 96.7119 44 95.7109 43.3846 95.4799Z" fill="#FA744E"/>
<path fill-rule="evenodd" clip-rule="evenodd" d="M49.7692 103.873C50.3846 104.258 50.923 103.642 50.923 103.257C50.923 102.949 50.4615 102.564 50.0769 102.641C49.6154 102.718 49.5384 103.026 49.7692 103.873Z" fill="#FA744E"/>
<path fill-rule="evenodd" clip-rule="evenodd" d="M48.0769 85.701C47.6153 85.624 46.8461 85.239 46.4615 85.778C46.0769 86.317 46.6154 86.548 46.6154 86.856C46.7692 87.626 47.6923 88.242 48.2307 88.011C48.7692 87.78 49 87.318 49 86.702C49 86.086 48.6153 85.778 48.0769 85.701Z" fill="#FA744E"/>
<path fill-rule="evenodd" clip-rule="evenodd" d="M47.6922 93.093C47.9999 92.862 48.0768 92.169 47.8461 91.861C47.6153 91.553 46.9999 91.553 46.6922 91.784C46.3076 92.092 46.2307 92.708 46.5384 93.016C46.8461 93.247 47.4614 93.324 47.6922 93.093Z" fill="#FA744E"/>
<path fill-rule="evenodd" clip-rule="evenodd" d="M45.0769 109.725C45.1538 110.187 45 110.341 44.7692 110.649C44.6923 110.803 44.6154 110.957 44.6154 111.111C44.5384 111.111 44.5384 111.188 44.4615 111.188C43.7692 110.88 43 110.88 42.7692 111.265C42.5384 111.573 42.6154 111.958 42.8461 112.266C43.3077 112.805 43.6154 112.805 44.3846 112.42C44.9231 112.574 45.4615 112.805 45.9231 112.882C46.4615 112.959 46.8461 112.42 46.5384 112.035C46.4615 111.881 46.3077 111.727 46.2308 111.573C46.3846 111.419 46.5385 111.265 46.6923 111.188C47.3077 110.88 48 110.726 48.7692 110.495C49.2307 111.034 49.6154 111.342 49.9231 111.496C50.4615 111.188 50.923 110.88 51.3846 110.572C51.6154 110.264 51.6154 109.956 51.5384 109.648C51.7692 109.648 52 109.571 52.2307 109.417C52.6923 109.109 52.6923 108.724 52.923 108.493C52.6923 108.801 52.6923 109.263 52.8461 109.648C53.5385 109.263 54.1538 108.801 54.8461 108.339C54.4615 108.031 53.7692 107.954 53.3077 108.185C53.6154 107.954 53.6154 107.646 53.4615 107.261C53.3077 106.799 53.0769 106.029 52.4615 106.26C52.1538 106.337 52 106.568 51.9231 106.722C51.6154 106.414 51.3077 106.029 50.7692 106.337C50.6154 106.491 50.5385 106.876 50.5385 107.107C50.5385 107.261 50.7692 107.492 51 107.569C50.923 107.646 50.8461 107.646 50.7692 107.723C50.4615 108.031 50.3077 108.262 50.3846 108.57C49.9231 108.493 49.3846 108.493 48.7692 108.493C48.3846 107.8 47.9231 107.03 47 107.03C45.6923 107.107 44.8461 108.416 45.0769 109.725ZM51.8461 106.953C51.8461 107.03 51.8461 107.107 51.9231 107.184C52 107.415 51.8461 107.8 51.6923 107.646C51.6923 107.646 51.6154 107.569 51.5384 107.569C51.6154 107.415 51.7692 107.184 51.8461 106.953Z" fill="#FA744E"/>
<path fill-rule="evenodd" clip-rule="evenodd" d="M47.2307 105.259C47.3846 105.105 47.1538 104.72 47.0769 104.72C46.923 104.643 46.6923 104.489 46.5384 104.72C46.3846 104.951 46.4615 105.105 46.5384 105.182C46.6923 105.259 47.0769 105.49 47.2307 105.259Z" fill="#FA744E"/>
<path fill-rule="evenodd" clip-rule="evenodd" d="M41.846 86.0861C41.5384 86.3941 41.4614 86.8561 41.7691 87.2411C41.9999 87.6261 42.5384 87.6261 42.8461 87.3951C43.1538 87.1641 43.2307 86.6251 42.923 86.2401C42.6922 85.9321 42.1537 85.7781 41.846 86.0861Z" fill="#FA744E"/>
<path fill-rule="evenodd" clip-rule="evenodd" d="M41.1537 101.178C41.4614 101.486 42.0768 101.486 42.3845 101.178C42.6922 100.87 42.6153 100.254 42.3076 99.946C41.9999 99.638 41.3845 99.561 41.0768 99.946C40.7691 100.177 40.7691 100.87 41.1537 101.178Z" fill="#FA744E"/>
<path fill-rule="evenodd" clip-rule="evenodd" d="M44.3846 105.875C44.7692 105.644 44.923 105.182 44.7692 104.797C44.5384 104.181 43.7692 104.027 43.3845 104.258C43.0769 104.489 42.8461 105.259 43.3076 105.798C43.6922 106.106 43.9999 106.106 44.3846 105.875Z" fill="#FA744E"/>
<path fill-rule="evenodd" clip-rule="evenodd" d="M40.0768 104.566C38.3845 104.951 38.0769 105.413 38.2307 107.184C38.2307 107.184 38.2307 107.261 38.2307 107.338C38.2307 107.107 38.0768 106.799 37.9999 106.645C37.8461 106.337 37.4614 106.183 37.1538 106.491C36.7691 106.799 36.6922 107.184 36.9999 107.492C37.1538 107.646 37.4615 107.8 37.7692 107.8C37.4615 108.185 37.4615 108.57 37.7692 108.878C38.1538 109.263 38.8461 109.263 39.2307 108.647C39.5384 108.108 39.923 108.185 40.4615 108.108C40.6922 109.417 41.3845 109.802 42.4615 109.34C42.5384 109.263 42.6922 109.263 42.7692 109.186C43.3845 108.724 43.4615 108.262 42.9999 107.646C42.5384 107.184 42.1538 106.722 41.1538 107.107C41.3076 106.645 41.3845 106.414 41.4615 106.26C41.7691 105.875 41.7691 105.49 41.4615 105.105C40.9999 104.72 40.6922 104.412 40.0768 104.566Z" fill="#FA744E"/>
<path fill-rule="evenodd" clip-rule="evenodd" d="M18.4615 102.872C18.2307 102.718 17.923 102.564 17.7692 102.641C17.1538 102.795 16.8461 103.257 17.0769 104.027C17.2307 104.643 17.6922 104.874 18.4615 104.72C18.5384 104.72 18.6153 104.643 18.6153 104.643C18.9999 104.951 19.6922 105.105 19.9999 104.874C20.4615 104.489 20.6153 103.488 20.1538 103.026C19.7692 102.564 18.9999 102.487 18.4615 102.872Z" fill="#FA744E"/>
<path fill-rule="evenodd" clip-rule="evenodd" d="M49 103.411C49.4615 102.949 49.6153 102.025 49.1538 101.563C48.7692 101.101 47.7692 101.101 47.3077 101.486C46.923 101.794 47 102.641 47.4615 103.103C48 103.719 48.5384 103.873 49 103.411Z" fill="#FA744E"/>
<path fill-rule="evenodd" clip-rule="evenodd" d="M1.38458 115.115C1.53842 115.808 2.61535 116.424 3.38458 116.27C3.92304 116.116 4.15383 115.423 3.99998 114.807C3.76921 114.037 3.30767 113.729 2.46152 113.96C1.76921 114.037 1.30765 114.576 1.38458 115.115Z" fill="#FA744E"/>
<path fill-rule="evenodd" clip-rule="evenodd" d="M4.23077 110.11C3.69231 110.187 3.46155 110.649 3.53847 111.111C3.61539 111.573 4.07692 111.804 4.53846 111.65C5 111.496 5.30771 111.034 5.15386 110.572C5.00001 110.11 4.69231 110.033 4.23077 110.11Z" fill="#FA744E"/>
<path fill-rule="evenodd" clip-rule="evenodd" d="M17.8461 98.6369C17.6922 98.6369 17.5384 98.7139 17.4615 98.8679C17.4615 98.7139 17.3845 98.5599 17.3076 98.4829C16.923 98.0209 16.1538 97.8669 15.7692 98.1749C15.3076 98.5599 15.1538 99.4069 15.4615 99.7919C15.7692 100.254 16.5384 100.177 17.2307 99.7149C17.3076 99.6379 17.3076 99.5609 17.3846 99.5609C17.4615 99.8689 17.7692 100.1 18.0769 100.1C18.4615 100.023 18.8461 99.6379 18.7692 99.2529C18.6153 98.7139 18.3076 98.5599 17.8461 98.6369Z" fill="#FA744E"/>
<path fill-rule="evenodd" clip-rule="evenodd" d="M4.84604 95.3259C5.07681 95.3259 5.07682 94.8639 5.07682 94.7099C5.07682 94.6329 4.84606 94.4019 4.69221 94.4019C4.53836 94.4019 4.46144 94.7099 4.38452 94.9409C4.46144 95.0179 4.61527 95.4029 4.84604 95.3259Z" fill="#FA744E"/>
<path fill-rule="evenodd" clip-rule="evenodd" d="M1.69226 106.183C1.76919 107.03 2.76919 107.8 3.61534 107.723C4.38457 107.646 5.07687 106.568 4.99995 105.798C4.92302 104.951 3.99996 104.489 2.84611 104.643C2.1538 104.72 1.61534 105.413 1.69226 106.183Z" fill="#FA744E"/>
<path fill-rule="evenodd" clip-rule="evenodd" d="M0.307599 108.647C-0.153939 108.724 -0.461627 109.263 -0.384704 109.648C-0.307781 110.033 0.153748 110.341 0.615287 110.187C1.07683 110.11 1.38454 109.725 1.30761 109.34C1.23069 108.878 0.769138 108.57 0.307599 108.647Z" fill="#FA744E"/>
<path fill-rule="evenodd" clip-rule="evenodd" d="M108.231 16.6321C108 16.8631 108.308 17.6331 108.461 17.6331C108.769 17.7101 109.154 17.9411 109.461 17.8641V16.9401C109.077 16.7091 108.461 16.4011 108.231 16.6321Z" fill="#FA744E"/>
<path fill-rule="evenodd" clip-rule="evenodd" d="M108.692 21.1751C108.154 21.7141 108.154 22.7151 108.615 23.2541C108.769 23.4851 109.077 23.5621 109.461 23.4851V20.9441C109.154 20.9441 108.923 21.0211 108.692 21.1751Z" fill="#FA744E"/>
<path fill-rule="evenodd" clip-rule="evenodd" d="M0.61527 123.354C0.230654 123.97 0.230664 125.048 0.769125 125.587C1.30759 126.126 2.46143 126.28 2.61527 126.588C2.6922 126.896 1.76912 127.897 2.23066 128.821C2.53835 129.437 2.9999 129.668 3.53836 129.745C3.38451 129.745 3.23066 129.745 3.07682 129.822C2.38451 129.976 2.07681 130.438 2.23066 131.208C2.23066 131.285 2.30759 131.362 2.30759 131.439C3.15374 131.208 4.07681 130.977 4.92297 130.746C4.92297 130.746 4.92297 130.746 4.92297 130.669C4.76912 130.13 4.30758 129.822 3.76912 129.745C4.07681 129.745 4.30759 129.745 4.61528 129.591C5.46143 129.283 6.23065 127.512 5.99989 126.742C5.76912 125.972 4.6922 125.972 4.61528 125.818C4.53836 125.587 5.30758 124.509 4.92297 123.508C4.53835 122.507 2.99989 122.122 2.30759 122.276C1.61528 122.43 0.922962 122.815 0.61527 123.354Z" fill="#FA744E"/>
<path fill-rule="evenodd" clip-rule="evenodd" d="M9.23073 115.962C8.53842 116.116 7.99995 116.655 7.92303 117.194C7.23072 117.425 6.61534 118.272 6.76918 118.965C6.99995 119.966 7.84611 120.582 8.76919 120.351C9.46149 120.197 9.84611 119.735 9.84611 119.042C9.92303 119.042 9.99996 119.042 9.99996 119.042C10.6923 118.888 11.1538 117.964 11 117.194C10.8461 116.501 9.92304 115.808 9.23073 115.962Z" fill="#FA744E"/>
<path fill-rule="evenodd" clip-rule="evenodd" d="M13.1538 104.258C13 104.489 13 104.874 13.0769 105.105C13.1538 105.259 13.4615 105.413 13.6923 105.413C14.1538 105.413 14.5384 105.336 15 105.259C15.3846 105.182 15.4615 104.951 15.3846 104.566C15.3077 104.489 15.1538 104.335 15.0769 104.335C14.6154 104.412 14.3077 104.181 13.9231 104.027C13.7692 103.873 13.3077 104.027 13.1538 104.258Z" fill="#FA744E"/>
<path fill-rule="evenodd" clip-rule="evenodd" d="M9.84605 113.421C9.9999 113.806 10.8461 114.114 11.2307 114.037C11.5384 113.96 11.8461 113.19 11.6922 112.728C11.5384 112.343 11.1538 112.266 10.7691 112.42C10.0768 112.728 9.6922 113.113 9.84605 113.421Z" fill="#FA744E"/>
<path fill-rule="evenodd" clip-rule="evenodd" d="M5.76923 114.191C5.3077 114.268 5.07694 114.653 5.15386 115.115C5.23078 115.577 5.53846 115.885 5.99999 115.808C6.46153 115.731 6.84615 115.346 6.76923 114.884C6.6923 114.422 6.23077 114.114 5.76923 114.191Z" fill="#FA744E"/>
<path fill-rule="evenodd" clip-rule="evenodd" d="M14.3845 94.248C14.0768 94.325 13.6153 95.018 13.8461 95.48C14.0768 95.942 14.7691 96.0959 15.0768 95.6339C15.2307 95.403 14.923 94.941 14.7691 94.556C14.7691 94.402 14.6922 94.171 14.3845 94.248Z" fill="#FA744E"/>
<path fill-rule="evenodd" clip-rule="evenodd" d="M14.7692 101.563C14.8461 102.025 15.3846 102.41 15.7692 102.333C16.1538 102.256 16.6923 101.563 16.6154 101.255C16.4615 100.793 15.7692 100.408 15.3846 100.485C14.9231 100.639 14.6923 101.101 14.7692 101.563Z" fill="#FA744E"/>
<path fill-rule="evenodd" clip-rule="evenodd" d="M7.61531 103.642C6.92301 103.719 6.38455 104.72 6.5384 105.644C6.69224 106.337 7.23069 106.722 7.923 106.568C8.84608 106.414 9.23069 105.798 9.07685 104.797C9.07685 104.181 8.30762 103.565 7.61531 103.642Z" fill="#FA744E"/>
<path fill-rule="evenodd" clip-rule="evenodd" d="M8.84605 108.416C8.38451 108.416 7.92297 109.032 8.30758 109.571C8.84604 110.033 9.53835 109.494 9.53835 109.109C9.53835 108.801 9.15374 108.339 8.84605 108.416Z" fill="#FA744E"/>
<path fill-rule="evenodd" clip-rule="evenodd" d="M8.38458 112.574C8.07689 112.112 7.7692 111.727 7.23073 112.035C6.69227 112.343 6.84613 112.805 7.0769 113.267C7.69229 113.421 8.07689 113.267 8.38458 112.574Z" fill="#FA744E"/>
<path fill-rule="evenodd" clip-rule="evenodd" d="M9.07681 114.961C8.84604 115.115 8.92298 115.346 8.99991 115.423C9.15375 115.577 9.46143 115.808 9.61528 115.654C9.84605 115.5 9.6922 115.115 9.61528 115.038C9.46143 115.038 9.23066 114.807 9.07681 114.961Z" fill="#FA744E"/>
<path fill-rule="evenodd" clip-rule="evenodd" d="M75.5384 65.681C75.3846 65.835 75.6153 66.2199 75.7692 66.2969C75.8461 66.3739 76.1538 66.3739 76.2307 66.2199C76.3076 66.0659 76.2307 65.835 76.1538 65.681C76.0769 65.604 75.6923 65.527 75.5384 65.681Z" fill="#FA744E"/>
<path fill-rule="evenodd" clip-rule="evenodd" d="M93.6154 39.8859C93.3077 40.1939 93.6923 41.1179 93.923 41.4259C94.0769 41.6569 94.6923 41.8109 95.0769 41.5029C95.3846 41.2719 95.2307 40.5789 95 40.2709C94.8461 39.9629 93.9231 39.5779 93.6154 39.8859Z" fill="#FA744E"/>
<path fill-rule="evenodd" clip-rule="evenodd" d="M73.7691 76.3069C73.3845 75.9989 72.5383 76.2299 72.1537 76.7689C71.846 77.2309 71.9999 77.924 72.4614 78.386C72.923 78.771 73.3845 78.7709 73.7691 78.3089C73.9999 78.0009 74.0768 77.693 74.1538 77.385C74.3076 77.539 74.4614 77.5389 74.7691 77.4619C75.2307 77.3079 75.4614 77 75.3845 76.538C75.3845 76.153 75.2307 75.922 74.846 75.845C74.3076 75.614 74.0768 75.9219 73.7691 76.3069Z" fill="#FA744E"/>
<path fill-rule="evenodd" clip-rule="evenodd" d="M74.2307 70.84C73.9999 71.225 73.9999 71.61 74.3076 71.995C74.6153 72.303 75.1537 72.303 75.3845 71.918C75.6153 71.61 75.6153 71.071 75.3076 70.763C74.9999 70.455 74.4614 70.4549 74.2307 70.84Z" fill="#FA744E"/>
<path fill-rule="evenodd" clip-rule="evenodd" d="M77.3076 79.849C77.3076 79.772 77.3076 79.772 77.2307 79.695C77.0768 79.464 76.6922 79.695 76.6153 79.772V79.849C76.3845 79.926 76.2307 80.08 76.1538 80.388C75.9999 80.85 76.0768 81.235 76.4615 81.466C77.0768 81.851 77.8461 81.312 77.9999 81.081C78.1538 80.927 77.923 80.08 77.3076 79.849Z" fill="#FA744E"/>
<path fill-rule="evenodd" clip-rule="evenodd" d="M76 85.778C76.3846 86.009 76.923 85.932 77.1538 85.547C77.3846 85.239 77.2307 84.623 76.9231 84.315C76.5384 84.0071 76 84.084 75.6923 84.469C75.4615 84.931 75.5384 85.547 76 85.778Z" fill="#FA744E"/>
<path fill-rule="evenodd" clip-rule="evenodd" d="M68.0768 93.7859C67.6922 93.4779 67.0768 93.5549 66.8461 93.8629C66.6153 94.1709 66.6153 95.0179 66.8461 95.2489C67.1537 95.4799 67.923 95.4029 68.1538 95.0949C68.5384 94.6329 68.5384 94.0939 68.0768 93.7859Z" fill="#FA744E"/>
<path fill-rule="evenodd" clip-rule="evenodd" d="M62.4615 101.486C62.5384 101.409 62.4615 101.255 62.4615 101.178C62.3846 101.101 62.2307 101.101 62.1538 101.178C62.0768 101.255 61.9999 101.409 62.1538 101.563C62.2307 101.563 62.4615 101.486 62.4615 101.486Z" fill="#FA744E"/>
<path fill-rule="evenodd" clip-rule="evenodd" d="M75.6153 85.393C75.3076 84.854 74.8461 84.7 74.2307 84.854C73.6153 84.931 73.3846 85.393 73.3846 85.932C73.3846 86.163 73.3076 86.471 73.3076 86.779C72.923 86.779 72.4615 86.856 72.3845 87.01C71.923 87.549 72.0769 88.319 72.7692 88.781C73.2307 89.166 73.7691 89.012 74.3076 88.319C74.6153 87.934 74.6153 87.626 74.5384 87.318C74.6153 87.241 74.6922 87.241 74.7692 87.164C75.4615 86.933 75.923 85.932 75.6153 85.393Z" fill="#FA744E"/>
<path fill-rule="evenodd" clip-rule="evenodd" d="M70.0769 83.237C69.6154 83.853 69.8461 84.777 70.6153 85.393C71.3077 85.855 72 85.778 72.4615 85.162C73 84.469 72.7692 83.314 72.0769 82.852C71.6154 82.467 70.5384 82.621 70.0769 83.237Z" fill="#FA744E"/>
<path fill-rule="evenodd" clip-rule="evenodd" d="M76.923 90.7829C77.1538 90.3209 77.1538 90.0129 76.7692 89.7049C76.3846 89.3969 75.9999 89.0889 75.4615 89.3199C73.8461 90.0129 73.6154 90.4749 74 92.1689C74 92.1689 74 92.2459 74 92.3229C73.923 92.0919 73.7692 91.8609 73.6923 91.7069C73.4615 91.3989 73.1538 91.3219 72.8461 91.7069C72.5384 92.0149 72.5384 92.4769 72.8461 92.7079C73 92.7849 73.3846 92.9389 73.6923 92.9389C73.4615 93.3239 73.5384 93.7089 73.8461 93.9399C74.8461 93.0159 75.923 92.0919 76.923 91.1679C76.8461 91.0139 76.923 90.8599 76.923 90.7829Z" fill="#FA744E"/>
<path fill-rule="evenodd" clip-rule="evenodd" d="M66.9999 97.251C66.8461 97.328 66.6922 97.79 66.7691 97.944C66.923 98.098 67.3845 97.944 67.4614 97.867C67.5384 97.79 67.6922 97.482 67.5383 97.251C67.4614 97.097 67.1537 97.174 66.9999 97.251Z" fill="#FA744E"/>
<path fill-rule="evenodd" clip-rule="evenodd" d="M86.6923 81.158C86.5385 81.235 86.5385 81.389 86.5385 81.543C86.7692 81.312 86.9231 81.158 87.1538 80.927C87 81.004 86.8462 81.081 86.6923 81.158Z" fill="#FA744E"/>
<path fill-rule="evenodd" clip-rule="evenodd" d="M88.7692 70.609C88.923 71.071 89.2307 71.225 89.6922 71.225C90.0769 71.225 90.3076 70.994 90.3846 70.609C90.5384 69.993 90.0769 69.685 89.5384 69.377C89.0769 69.762 88.5384 69.993 88.7692 70.609Z" fill="#FA744E"/>
<path fill-rule="evenodd" clip-rule="evenodd" d="M87.7692 78.9251C88 79.1561 88.3077 79.3101 88.6154 79.3871C89.1538 78.7711 89.6923 78.2321 90.2307 77.6161C90.1538 77.2311 90.0769 76.8461 89.7692 76.6151C89.1538 76.1531 88.0769 76.2301 87.6154 76.8461C87.1538 77.3851 87.1538 78.4631 87.7692 78.9251Z" fill="#FA744E"/>
<path fill-rule="evenodd" clip-rule="evenodd" d="M92.6922 63.8329C92.3076 63.5249 91.5383 63.6789 91.2307 63.9869C90.923 64.4489 90.9999 65.7579 91.3076 65.9889C91.7691 66.2969 92.6153 66.0659 93.0768 65.4499C93.5384 64.9109 93.3845 64.2949 92.6922 63.8329Z" fill="#FA744E"/>
<path fill-rule="evenodd" clip-rule="evenodd" d="M78.6923 88.4729C78.4615 88.6269 78.3846 89.1659 78.5384 89.5509C78.923 89.1659 79.3077 88.7809 79.7692 88.3959C79.3846 88.2419 78.923 88.2419 78.6923 88.4729Z" fill="#FA744E"/>
<path fill-rule="evenodd" clip-rule="evenodd" d="M93.0769 66.836C93 67.144 93 67.683 93.2307 67.76C93.4615 67.837 93.8461 67.76 94 67.529C94.1538 67.375 94.1538 66.682 94 66.605C93.7692 66.374 93.1538 66.682 93.0769 66.836Z" fill="#FA744E"/>
<path fill-rule="evenodd" clip-rule="evenodd" d="M85.2307 82.621C85 82.39 84.6153 82.39 84.4615 82.698C84.3846 82.929 84.1538 83.545 84.3846 83.776C84.6923 83.468 85 83.083 85.3077 82.775C85.3077 82.775 85.3077 82.698 85.2307 82.621Z" fill="#FA744E"/>
<path fill-rule="evenodd" clip-rule="evenodd" d="M80.2307 69.3771C79.7692 69.3771 78.923 69.1461 78.6153 69.6851C78.3076 70.2241 78.8461 70.4551 78.9999 70.6861C79.3076 71.4561 80.2307 71.9181 80.8461 71.5331C81.3076 71.2251 81.4615 70.6861 81.3845 70.1471C81.2307 69.6081 80.7692 69.3771 80.2307 69.3771Z" fill="#FA744E"/>
<path fill-rule="evenodd" clip-rule="evenodd" d="M78.923 84.931C79.1538 84.854 79.6153 84.854 79.8461 84.623C80.2307 84.315 80 83.622 79.6153 83.391C79.2307 83.16 78.7692 83.314 78.5384 83.622C78.3076 83.93 78.4615 84.623 78.923 84.931Z" fill="#FA744E"/>
<path fill-rule="evenodd" clip-rule="evenodd" d="M82.0769 85.162C81.8462 85.393 81.9231 85.855 82.0769 86.24C82.5385 85.778 83.0769 85.239 83.5384 84.777C83 84.623 82.3846 84.777 82.0769 85.162Z" fill="#FA744E"/>
<path fill-rule="evenodd" clip-rule="evenodd" d="M64.4615 81.851C64.4615 81.774 64.4615 81.62 64.4615 81.543C64.5384 81.081 64.2308 80.85 63.8461 80.696C63.4615 80.542 63.2308 80.696 62.9231 80.927C62.2308 81.543 62.2308 81.928 62.8462 82.621C63.3077 83.083 63.8462 83.622 64.3077 84.084C63.4615 85.085 63.4615 85.162 64.4615 85.701C65.0769 85.393 65.1538 84.931 64.9231 84.392C66.2308 83.468 66 82.621 64.4615 81.851Z" fill="#FA744E"/>
<path fill-rule="evenodd" clip-rule="evenodd" d="M53.923 96.712C53.4615 97.174 53.6153 98.252 54.2307 98.714C54.6153 99.099 55.3076 98.945 55.6922 98.483C56.1538 97.944 56.2307 96.943 55.8461 96.635C55.3846 96.173 54.3846 96.173 53.923 96.712Z" fill="#FA744E"/>
<path fill-rule="evenodd" clip-rule="evenodd" d="M57 82.5441C56.6154 82.3901 56.2307 82.5441 56 82.9291C55.923 83.1601 55.8461 83.5451 56 83.7761C56.3846 84.3151 56.923 84.2381 57.4615 83.8531C57.5384 83.3141 57.6154 82.6981 57 82.5441Z" fill="#FA744E"/>
<path fill-rule="evenodd" clip-rule="evenodd" d="M57.2307 87.241C56.6923 87.472 56.1538 87.626 56.2308 88.242C56.3077 88.704 56.6154 88.935 57.0769 89.012C57.4615 89.089 57.7692 88.935 57.8461 88.55C58.0769 87.934 57.7692 87.626 57.2307 87.241Z" fill="#FA744E"/>
<path fill-rule="evenodd" clip-rule="evenodd" d="M59.0769 89.7821C59.6153 90.1671 60.3076 90.0901 60.7692 89.4741C61.3076 88.7811 61.1538 87.7801 60.3846 87.3181C59.7692 86.9331 58.923 87.0871 58.4615 87.7031C57.9999 88.2421 58.3076 89.2431 59.0769 89.7821Z" fill="#FA744E"/>
<path fill-rule="evenodd" clip-rule="evenodd" d="M53.7692 91.2451C53.3077 91.7071 53.4615 92.2461 54.0769 92.7851C54.5384 93.1701 55.3077 93.1701 55.6154 92.8621C56 92.4001 55.9231 91.3991 55.4615 91.0141C55.0769 90.6291 54.2308 90.7061 53.7692 91.2451Z" fill="#FA744E"/>
<path fill-rule="evenodd" clip-rule="evenodd" d="M50.4615 86.9331C50.0769 87.3951 50 88.2421 50.3846 88.6271C50.7692 89.0121 51.5384 88.7811 52.0769 88.2421C52.3846 87.9341 52.3077 87.3181 52 87.0101C51.6154 86.625 50.7692 86.5481 50.4615 86.9331Z" fill="#FA744E"/>
<path fill-rule="evenodd" clip-rule="evenodd" d="M56.7692 95.4031C56.2307 95.9421 56.3076 96.7121 56.8461 97.3281C57.2307 97.7131 58.1538 97.7131 58.6153 97.2511C58.8461 97.3281 59.0769 97.3281 59.2307 97.2511C59.2307 97.5591 59.4615 97.8671 59.6923 97.9441C60.2307 98.1751 60.6153 97.7901 60.9999 97.4051C60.8461 96.8661 60.7692 96.3271 60.0769 96.3271C60 96.3271 59.923 96.3271 59.923 96.4041C59.923 95.9421 59.6153 95.2491 59.2307 95.0181C58.923 94.7871 58.5384 94.8641 58.2307 95.1721C57.6923 94.8641 57.1538 94.9411 56.7692 95.4031Z" fill="#FA744E"/>
<path fill-rule="evenodd" clip-rule="evenodd" d="M67.5383 87.3179C67.846 87.0869 67.7691 86.6249 67.3845 86.3169C66.9999 86.0089 66.6153 86.0089 66.4614 86.3939C66.3076 86.7019 65.923 87.2409 66.3076 87.6259C66.6922 88.0109 67.2306 87.4719 67.5383 87.3179Z" fill="#FA744E"/>
<path fill-rule="evenodd" clip-rule="evenodd" d="M50.7692 94.1711C50.5385 94.4791 50.4615 94.8641 50.7692 95.0181C51 95.1721 51.7692 95.4801 52 95.2491C52.2308 95.0181 51.9231 94.3251 51.7692 94.0171C51.6154 93.7861 51.0769 93.8631 50.7692 94.1711Z" fill="#FA744E"/>
<path fill-rule="evenodd" clip-rule="evenodd" d="M52.4616 103.026C52.9231 103.642 54.3846 103.796 54.9231 103.334C55.4615 102.795 55.5385 101.717 55 101.178C54.4615 100.562 53.4616 100.485 52.8462 100.947C52.2308 101.486 52 102.487 52.4616 103.026Z" fill="#FA744E"/>
<path fill-rule="evenodd" clip-rule="evenodd" d="M53.0768 89.7051C52.9999 89.7051 52.923 90.0901 52.9999 90.1671C53.1537 90.3211 53.3845 90.5521 53.6153 90.3981C53.846 90.2441 53.6922 89.8591 53.6153 89.7821C53.4614 89.7051 53.2307 89.7051 53.0768 89.7051Z" fill="#FA744E"/>
<path fill-rule="evenodd" clip-rule="evenodd" d="M66.3846 70.9171C66.3077 71.0711 66.3077 71.3791 66.3846 71.4561C66.4615 71.5331 66.7692 71.7641 67.0769 71.5331C67.3077 71.3021 67 70.9941 66.8461 70.8401C66.8461 70.8401 66.4615 70.8401 66.3846 70.9171Z" fill="#FA744E"/>
<path fill-rule="evenodd" clip-rule="evenodd" d="M63.3076 96.7119C62.846 97.3279 62.923 98.5599 63.5383 99.0219C64.2307 99.5609 65.2306 99.5609 65.6922 98.9449C66.1537 98.4059 65.9999 96.8659 65.4614 96.4039C64.846 95.7879 63.846 96.0189 63.3076 96.7119Z" fill="#FA744E"/>
<path fill-rule="evenodd" clip-rule="evenodd" d="M66 77.0769C65.923 77.1539 65.6923 77.6929 65.9231 77.7699C66.0769 77.8469 66.4615 77.6929 66.5384 77.6159C66.6153 77.4619 66.8461 77.1539 66.6154 76.9999C66.3846 76.9229 66.0769 76.9999 66 77.0769Z" fill="#FA744E"/>
<path fill-rule="evenodd" clip-rule="evenodd" d="M67.8462 73.92C67.6923 73.843 67.4615 73.689 67.2308 73.997C67 74.305 67.0769 74.536 67.3077 74.767C67.6154 74.921 67.8462 74.844 68 74.613C68.1538 74.305 67.9231 73.997 67.8462 73.92Z" fill="#FA744E"/>
<path fill-rule="evenodd" clip-rule="evenodd" d="M68.6923 90.4749C68.0769 90.0129 67.2308 90.0899 66.8462 90.5519C66.5385 90.9369 66.9231 92.0919 67.3846 92.4769C67.6923 92.7079 68.4615 92.554 68.6923 92.246C69.2308 91.553 69.1539 90.7829 68.6923 90.4749Z" fill="#FA744E"/>
<path fill-rule="evenodd" clip-rule="evenodd" d="M56.2308 101.64C56.6923 101.409 57.1538 101.178 57 100.562C56.9231 100.1 56.5385 99.792 56.0769 99.869C55.7692 99.946 55.3846 100.177 55.3846 100.408C55.2308 101.101 55.6923 101.409 56.2308 101.64Z" fill="#FA744E"/>
<path fill-rule="evenodd" clip-rule="evenodd" d="M61.9999 92.5541C61.5384 93.1701 61.6922 94.0171 62.3845 94.5561C63.3076 95.2491 64.0768 95.1721 64.7691 94.3251C65.3076 93.6321 65.1538 92.5541 64.3845 92.0151C63.7691 91.5531 62.6153 91.8611 61.9999 92.5541Z" fill="#FA744E"/>
<path fill-rule="evenodd" clip-rule="evenodd" d="M59.8461 101.024C59.7692 101.024 59.7692 101.024 59.6923 101.024C59.6923 100.87 59.6154 100.716 59.5384 100.562C59.2307 100.1 58.3846 100.1 57.923 100.485C57.4615 100.87 57.3846 101.332 57.6923 101.64C57.6923 101.64 57.6923 101.64 57.7692 101.717C57.5384 102.179 57.7692 102.872 57.4615 103.488C57.0769 104.181 57.1538 104.797 57.3846 105.182C57.1538 105.182 56.8461 105.259 56.4615 105.336C56.2307 104.797 56.1538 104.181 55.3846 104.412C54.923 104.489 54.6154 104.797 54.6154 105.259C54.6154 105.413 54.6923 105.721 54.7692 105.798C55.1538 106.029 55.5384 106.106 56 106.337C56.1538 106.722 56.3077 107.107 56.5384 107.338C58.3077 106.106 60.0769 104.874 61.8461 103.565V103.488C61.6923 102.564 61.2307 101.332 59.8461 101.024Z" fill="#FA744E"/>
<path fill-rule="evenodd" clip-rule="evenodd" d="M63.3845 78.8479C63.1538 78.6169 62.6922 78.5399 62.5384 78.8479C62.3845 79.0789 62.3845 79.6179 62.6153 79.7719C62.8461 79.9259 63.2307 79.8489 63.4615 79.8489C63.7692 79.3869 63.6153 79.0789 63.3845 78.8479Z" fill="#FA744E"/>
<path fill-rule="evenodd" clip-rule="evenodd" d="M49.6922 95.326C49.1537 95.095 48.6153 95.172 48.2307 95.557C47.846 95.942 47.846 96.481 48.0768 96.943C48.2306 97.251 48.4614 97.559 48.6922 97.867C48.6153 98.021 48.5383 98.175 48.5383 98.406C48.3845 99.099 48.6153 99.946 49.1537 100.177C49.3845 100.254 49.5383 100.331 49.7691 100.408C49.7691 100.485 49.7691 100.562 49.846 100.639C50.0768 100.87 50.7691 100.485 50.923 100.331C50.923 100.331 50.923 100.331 50.923 100.254C50.9999 100.254 50.9999 100.177 51.0768 100.177C51.3076 100.1 51.4614 99.792 51.5383 99.561C51.7691 98.637 51.3076 97.944 50.4614 97.636C50.3076 97.559 50.0768 97.482 49.9229 97.482C50.0768 97.174 50.1537 96.866 50.3076 96.481C50.4614 95.865 50.3076 95.557 49.6922 95.326Z" fill="#FA744E"/>
<path fill-rule="evenodd" clip-rule="evenodd" d="M14.6153 220.99V205.59H-0.769287V220.99H14.6153Z" fill="#E6EBF2"/>
<path fill-rule="evenodd" clip-rule="evenodd" d="M14.6153 182.49V167.09H-0.769287V182.49H14.6153Z" fill="#E6EBF2"/>
<path fill-rule="evenodd" clip-rule="evenodd" d="M53.0769 220.99V205.59H37.6923V220.99H53.0769Z" fill="#E6EBF2"/>
</g>
<defs>
<clipPath id="clip0">
<rect width="110" height="231" fill="white"/>
</clipPath>
</defs>
</svg>
