<svg width="214" height="214" viewBox="0 0 214 214" fill="none" xmlns="http://www.w3.org/2000/svg">
<g clip-path="url(#clip0)">
<path d="M9.53674e-06 181L9.53674e-06 1.66893e-06L178 1.66893e-06L9.53674e-06 181Z" fill="#E6EBF2"/>
<path d="M78.1239 117.146C77.9279 117.211 77.928 117.537 77.993 117.602C78.059 117.733 78.189 117.929 78.385 117.864C78.646 117.798 78.5809 117.602 78.5809 117.537C78.4499 117.407 78.3199 117.08 78.1239 117.146Z" fill="#E6EBF2"/>
<path d="M78.9072 114.927L77.7322 115.645C77.9932 115.971 78.3852 116.102 78.7112 115.906C78.9722 115.71 79.1032 115.253 78.9072 114.927C78.9072 114.992 78.9072 114.927 78.9072 114.927Z" fill="#E6EBF2"/>
<path d="M74.665 117.538C74.73 117.668 74.796 117.799 74.926 117.799C75.252 117.929 75.448 117.733 75.709 117.016C75.709 116.95 75.644 116.95 75.644 116.885L74.665 117.538Z" fill="#E6EBF2"/>
<path d="M77.4711 118.712C77.0801 118.973 77.0141 119.495 77.2751 119.822C77.4711 120.083 78.0591 120.148 78.3201 119.952C78.5811 119.691 78.6461 119.169 78.4501 118.908C78.1891 118.582 77.7981 118.516 77.4711 118.712Z" fill="#E6EBF2"/>
<path d="M76.101 122.366C75.97 122.627 76.166 123.084 76.427 123.149C76.753 123.28 77.341 122.953 77.21 122.366C77.014 121.844 76.297 122.04 76.101 122.366Z" fill="#E6EBF2"/>
<path d="M86.0209 111.011C85.6939 111.207 85.7599 112.381 86.1509 112.577C86.5429 112.773 87.1959 112.055 87.0649 111.598C86.8689 111.141 86.2819 110.815 86.0209 111.011Z" fill="#E6EBF2"/>
<path d="M81.3869 122.106C81.1909 122.171 80.7999 122.954 80.9959 123.28C81.1909 123.607 82.0399 123.28 82.3009 123.085C82.4969 122.954 82.6269 122.432 82.4309 122.171C82.2359 121.91 81.6479 121.975 81.3869 122.106Z" fill="#E6EBF2"/>
<path d="M84.128 114.666C84.324 114.535 84.389 114.274 84.389 114.013C84.259 113.426 84.063 113.23 83.345 113.23C83.149 113.034 82.953 112.773 82.823 112.577L80.408 114.079C80.408 114.144 80.473 114.209 80.539 114.274C80.93 114.796 81.518 114.862 81.975 114.535C82.105 114.405 82.236 114.274 82.301 114.079C82.497 114.079 82.627 114.079 82.823 114.079C83.019 114.405 83.345 114.601 83.606 114.731C83.28 114.992 83.215 115.514 83.476 115.841C83.737 116.102 84.128 116.167 84.389 115.971C84.781 115.71 84.846 115.253 84.585 114.862C84.455 114.796 84.324 114.731 84.128 114.666Z" fill="#E6EBF2"/>
<path d="M83.214 117.798C82.953 117.994 82.953 118.712 83.149 118.842C83.345 118.973 83.671 118.842 83.867 118.712C84.128 118.581 84.258 118.255 83.997 117.994C83.802 117.733 83.541 117.537 83.214 117.798Z" fill="#E6EBF2"/>
<path d="M37.9871 127.849C37.8561 128.305 38.0521 128.632 38.4441 128.828C38.7701 129.023 39.2921 129.545 39.7491 129.284C39.8801 129.219 39.9451 129.154 39.9451 129.023L37.9871 127.849Z" fill="#E6EBF2"/>
<path d="M87.261 122.236C87.13 122.366 87.13 122.693 87.261 122.823C87.326 122.889 87.587 122.954 87.718 122.889C87.783 122.823 87.913 122.562 87.848 122.432C87.718 122.301 87.391 122.04 87.261 122.236Z" fill="#E6EBF2"/>
<path d="M49.147 133.07L48.756 133.331C48.756 133.461 48.821 133.592 48.821 133.657C48.821 133.723 49.082 133.853 49.147 133.853C49.278 133.788 49.408 133.592 49.408 133.461C49.408 133.266 49.343 133.135 49.147 133.07Z" fill="#E6EBF2"/>
<path d="M73.0991 119.169C72.9031 119.169 72.6421 119.3 72.5111 119.43C71.9891 120.018 71.9891 120.67 72.4461 121.323C72.5771 121.454 72.6421 121.584 72.7721 121.715C72.5111 121.91 72.3151 122.106 72.1201 122.302C71.7281 122.694 71.7281 122.955 72.0541 123.411C72.3811 123.803 72.7721 123.934 73.2291 123.868C73.6861 123.738 73.8821 123.346 73.9471 122.955C74.0121 122.628 73.8821 122.302 73.8821 121.976C74.0121 121.845 74.1431 121.78 74.2081 121.649C74.6001 121.258 74.7951 120.475 74.5341 120.083C74.2081 119.43 73.6861 119.169 73.0991 119.169Z" fill="#E6EBF2"/>
<path d="M54.9561 129.546C55.0861 129.741 55.2821 129.872 55.4781 129.676C55.6741 129.546 55.8691 129.154 55.8041 129.023C55.8041 129.023 55.8041 129.023 55.8041 128.958L54.9561 129.546Z" fill="#E6EBF2"/>
<path d="M31.3961 123.868C31.3301 124.194 31.4611 124.455 31.6571 124.781C31.9831 124.716 32.3751 124.781 32.5701 124.585L31.3961 123.868Z" fill="#E6EBF2"/>
<path d="M67.2251 124.52C67.7471 124.324 67.8781 123.933 67.6821 123.28C67.5511 122.823 66.9641 122.432 66.5721 122.497C66.0501 122.628 65.6591 123.411 65.8541 123.933C65.9851 124.39 66.7031 124.716 67.2251 124.52Z" fill="#E6EBF2"/>
<path d="M67.0949 127.392C66.7679 127.522 66.507 127.979 66.638 128.305C66.768 128.762 67.356 129.154 67.747 129.023C68.204 128.893 68.661 128.24 68.53 127.849C68.4 127.457 67.7469 127.261 67.0949 127.392Z" fill="#E6EBF2"/>
<path d="M61.2861 128.24C61.0901 128.632 60.7641 128.958 61.0901 129.415C61.3511 129.676 61.6781 129.741 61.9391 129.545C62.1341 129.415 62.3301 129.154 62.3301 128.958C62.2651 128.371 61.8081 128.24 61.2861 128.24Z" fill="#E6EBF2"/>
<path d="M62.1351 125.173C62.2001 125.173 62.2001 125.173 62.2651 125.108C62.3961 125.043 62.5261 124.978 62.5911 124.847L62.1351 125.173Z" fill="#E6EBF2"/>
<path d="M102.598 120.931C102.467 121.062 102.271 121.388 102.337 121.519C102.402 121.649 102.794 121.714 102.989 121.649C103.12 121.584 103.446 121.127 103.316 120.931C103.185 120.801 102.663 120.866 102.598 120.931Z" fill="#E6EBF2"/>
<path d="M98.095 119.887C97.768 120.082 97.703 120.539 97.964 120.931C98.16 121.257 98.486 121.322 98.878 121.127C99.204 120.866 99.335 120.474 99.073 120.148C98.812 119.821 98.356 119.756 98.095 119.887Z" fill="#E6EBF2"/>
<path d="M97.8989 110.097C97.3109 110.488 97.1809 111.272 97.5719 111.859C97.9639 112.446 99.0079 112.577 99.5299 112.185C100.052 111.794 100.183 110.815 99.7909 110.293C99.4649 109.64 98.6819 109.575 97.8989 110.097Z" fill="#E6EBF2"/>
<path d="M97.1811 108.531C97.0501 108.335 96.7891 108.14 96.5931 108.14C96.0711 108.14 96.0711 108.596 96.0061 108.988C96.3321 109.314 96.6591 109.445 97.0501 109.119C97.1811 108.988 97.2461 108.662 97.1811 108.531Z" fill="#E6EBF2"/>
<path d="M99.53 102.331L97.246 103.702C97.377 103.897 97.507 104.028 97.768 103.963C98.29 103.832 98.747 104.419 99.4 104.158C100.053 103.897 100.509 103.245 100.118 102.723C99.922 102.592 99.726 102.462 99.53 102.331Z" fill="#E6EBF2"/>
<path d="M97.9641 115.514C97.7681 115.253 97.2461 115.123 97.0501 115.319C96.8541 115.449 96.854 115.906 97.115 116.232C97.311 116.493 97.507 116.493 97.768 116.297C98.029 116.102 98.1601 115.841 97.9641 115.514Z" fill="#E6EBF2"/>
<path d="M88.1091 113.621C87.7181 114.013 87.5871 114.6 87.8481 114.926C88.1751 115.318 89.0231 115.514 89.3491 115.253C89.6761 114.992 89.6101 114.209 89.2191 113.752C89.0231 113.425 88.4361 113.36 88.1091 113.621Z" fill="#E6EBF2"/>
<path d="M149.718 78.7061C149.913 78.5101 149.979 78.2491 150.044 78.1181C149.783 77.7271 149.326 77.5961 149.065 77.7921C148.804 77.9881 148.869 78.1841 148.935 78.4451C149.13 78.7711 149.522 78.9021 149.718 78.7061Z" fill="#E6EBF2"/>
<path d="M102.859 102.2C102.663 101.939 101.749 101.874 101.423 102.07C101.096 102.266 101.096 102.723 101.423 103.179C101.814 103.701 102.141 103.832 102.532 103.506C103.054 103.179 103.185 102.592 102.859 102.2Z" fill="#E6EBF2"/>
<path d="M101.162 104.419C100.77 104.419 100.509 104.68 100.444 105.072C100.379 105.398 100.444 105.659 100.77 105.79C101.292 106.051 101.619 105.725 101.945 105.398C101.749 104.876 101.749 104.354 101.162 104.419Z" fill="#E6EBF2"/>
<path d="M100.64 113.426C100.509 113.491 100.313 113.687 100.444 113.948C100.574 114.209 100.901 114.013 101.031 113.948C101.097 113.883 101.162 113.622 101.097 113.557C100.966 113.491 100.705 113.426 100.64 113.426Z" fill="#E6EBF2"/>
<path d="M94.8971 112.316C94.6361 112.512 94.5701 112.838 94.7011 113.165C94.8311 113.426 95.6151 113.491 95.7451 113.23C95.8761 112.969 95.8101 112.708 95.7451 112.512C95.6151 112.186 95.1581 112.055 94.8971 112.316Z" fill="#E6EBF2"/>
<path d="M90.72 118.386C90.459 118.582 90.393 119.104 90.654 119.43C90.915 119.756 91.307 119.756 91.699 119.495C92.09 119.234 92.155 118.843 91.96 118.582C91.699 118.255 90.981 118.19 90.72 118.386Z" fill="#E6EBF2"/>
<path d="M92.873 113.817C93.069 113.752 93.2 113.034 93.004 112.773C92.743 112.512 92.547 112.643 92.351 112.773C92.025 112.969 92.025 113.361 92.286 113.556C92.417 113.752 92.678 113.883 92.873 113.817Z" fill="#E6EBF2"/>
<path d="M88.9581 108.792C89.2841 108.922 89.6101 108.792 89.9361 108.727C90.0021 108.465 90.0021 108.335 90.0671 108.139L88.9581 108.792Z" fill="#E6EBF2"/>
<path d="M91.5031 120.605C91.3721 120.67 91.4381 120.866 91.5031 120.931C91.5681 120.996 91.6991 120.996 91.7641 120.931C91.8291 120.866 91.8951 120.735 91.8291 120.67C91.7641 120.605 91.6331 120.539 91.5031 120.605Z" fill="#E6EBF2"/>
<path d="M95.2881 111.076C95.5491 111.141 95.6801 110.815 95.6151 110.489C95.5491 110.228 95.2881 109.901 95.0271 109.836C94.7011 109.706 94.5701 109.967 94.5701 110.097C94.5701 110.293 94.7011 110.489 94.8311 110.684C94.9621 110.815 95.0921 111.011 95.2881 111.076Z" fill="#E6EBF2"/>
<path d="M94.8311 105.986C94.7011 105.725 94.5051 105.529 94.3091 105.529L93.3951 106.051C93.2001 106.377 92.9391 106.769 92.7431 107.16C92.6121 107.487 92.6781 107.878 93.0691 108.074C93.3951 108.205 93.7871 108.139 93.9831 107.813C94.1131 107.617 94.2441 107.487 94.3741 107.291C94.8971 106.899 95.0271 106.508 94.8311 105.986Z" fill="#E6EBF2"/>
<path d="M93.396 121.127C93.265 121.192 93.135 121.584 93.2 121.649C93.265 121.779 93.657 121.714 93.787 121.649C93.852 121.584 93.918 121.322 93.852 121.257C93.722 121.192 93.526 121.061 93.396 121.127Z" fill="#E6EBF2"/>
<path d="M93.2649 117.733C93.1999 117.603 92.8729 117.407 92.7429 117.472C92.6119 117.603 92.6779 117.929 92.7429 117.994C92.8729 118.125 93.0689 118.32 93.1999 118.19C93.3299 118.059 93.3299 117.864 93.2649 117.733Z" fill="#E6EBF2"/>
<path d="M137.644 80.076C137.709 80.076 137.709 80.076 137.775 80.011C138.231 79.75 138.492 79.162 138.362 78.64L135.882 80.141C136.078 80.272 136.273 80.402 136.535 80.468C137.122 80.663 137.448 80.533 137.644 80.076Z" fill="#E6EBF2"/>
<path d="M136.6 84.645C137.057 84.579 137.514 84.514 137.448 83.927C137.383 83.535 137.187 83.405 136.861 83.339C136.796 83.143 136.665 82.948 136.6 82.948C136.469 82.882 136.143 83.013 136.078 83.143C136.013 83.274 136.078 83.6 136.208 83.666C136.208 83.666 136.274 83.731 136.339 83.731C136.208 84.057 136.274 84.383 136.6 84.645Z" fill="#E6EBF2"/>
<path d="M131.118 83.4039C131.118 83.4699 131.052 83.5349 131.052 83.5349C130.922 84.1219 131.444 84.8399 132.096 84.9709C132.684 85.1009 133.532 84.6439 133.728 84.0569C133.859 83.4699 133.663 82.8819 133.271 82.5559C133.271 82.2949 133.271 82.0339 133.141 81.8379L130.922 83.2089C130.922 83.3389 130.987 83.4039 131.118 83.4039Z" fill="#E6EBF2"/>
<path d="M143.713 75.5731C143.909 76.0301 144.431 76.1601 145.019 75.8991C145.475 75.7031 145.671 75.3121 145.475 74.9201C145.41 74.7901 145.28 74.6591 145.149 74.5941L143.648 75.5081C143.713 75.5081 143.713 75.5081 143.713 75.5731Z" fill="#E6EBF2"/>
<path d="M140.255 77.531L138.884 78.379C139.537 78.575 140.255 78.053 140.255 77.531Z" fill="#E6EBF2"/>
<path d="M132.684 91.823C132.684 92.019 132.945 92.084 133.141 92.084C133.271 92.084 133.467 91.823 133.467 91.693C133.467 91.562 133.271 91.367 133.075 91.432C132.88 91.497 132.684 91.693 132.684 91.823Z" fill="#E6EBF2"/>
<path d="M130.139 93.2591C130.335 93.3241 130.465 93.2591 130.53 93.0631C130.596 92.8681 130.596 92.7371 130.4 92.6721C130.204 92.6071 130.073 92.6071 130.008 92.8021C129.878 93.0631 129.943 93.1941 130.139 93.2591Z" fill="#E6EBF2"/>
<path d="M121.459 90.0611C121.981 89.9961 122.503 89.1481 122.372 88.6251C122.372 88.6251 122.372 88.5601 122.307 88.5601L120.153 89.8651C120.48 89.9961 120.937 90.1261 121.459 90.0611Z" fill="#E6EBF2"/>
<path d="M123.221 89.8001C122.895 89.9961 122.829 90.3881 123.025 90.7141C123.221 90.9751 123.678 91.1051 123.939 90.9101C124.265 90.7141 124.396 90.2571 124.135 89.9961C123.939 89.7351 123.612 89.6701 123.221 89.8001Z" fill="#E6EBF2"/>
<path d="M128.573 89.474C128.311 89.539 128.05 89.735 127.985 89.996C127.659 90.714 127.855 91.302 128.573 91.824C128.834 91.693 129.16 91.628 129.421 91.432C129.878 91.171 130.074 90.584 129.878 90.192C129.617 89.735 129.095 89.344 128.573 89.474Z" fill="#E6EBF2"/>
<path d="M148.869 75.508C149.065 75.312 149.13 75.051 149.196 74.92C149.13 74.79 149.065 74.724 148.935 74.659C149.196 74.529 149.457 74.333 149.457 74.072C149.587 73.484 149.196 72.832 148.673 72.701C148.282 72.571 147.629 73.093 147.499 73.615C147.368 74.137 147.564 74.659 148.021 74.724C147.89 74.855 147.956 75.051 148.021 75.247C148.282 75.573 148.608 75.703 148.869 75.508Z" fill="#E6EBF2"/>
<path d="M150.958 74.333C150.893 74.464 151.023 74.464 151.088 74.594C151.219 74.529 151.284 74.529 151.349 74.464C151.349 74.398 151.284 74.268 151.284 74.268C151.088 74.203 150.958 74.203 150.958 74.333Z" fill="#E6EBF2"/>
<path d="M176.737 59.6491C176.475 59.8451 176.214 60.0411 176.345 60.4321C176.475 60.7581 177.193 60.8891 177.389 60.6931C177.52 60.4971 177.52 60.1711 177.389 59.9751C177.389 59.6491 177.128 59.4531 176.737 59.6491Z" fill="#E6EBF2"/>
<path d="M181.109 52.8611C181.175 52.8611 181.175 52.6661 181.175 52.6001L180.848 52.7961C180.914 52.9271 181.044 52.9271 181.109 52.8611Z" fill="#E6EBF2"/>
<path d="M166.294 62.2591C166.49 62.5861 166.817 62.7161 167.208 62.5201C167.534 62.3241 167.665 61.8681 167.534 61.5411C167.469 61.4111 167.273 61.2801 167.143 61.2151L166.229 61.7371C166.164 61.8681 166.229 62.0631 166.294 62.2591Z" fill="#E6EBF2"/>
<path d="M171.777 60.4971C171.255 60.7581 170.994 61.6061 171.255 62.1941C171.385 62.5201 172.038 62.6511 172.429 62.4551C173.017 62.1291 173.213 61.6061 172.952 61.0841C172.69 60.5621 172.103 60.3011 171.777 60.4971Z" fill="#E6EBF2"/>
<path d="M116.564 92.476C117.217 92.607 118.13 92.15 118.261 91.562C118.326 91.367 118.326 91.106 118.261 90.91L116.042 92.215C116.238 92.346 116.434 92.476 116.564 92.476Z" fill="#E6EBF2"/>
<path d="M159.311 66.698C159.507 66.371 159.572 66.045 159.572 65.784L157.549 67.024C158.006 67.35 158.92 67.285 159.311 66.698Z" fill="#E6EBF2"/>
<path d="M152.328 70.548C152.393 70.743 152.524 70.939 152.655 71.07C152.524 71.135 152.328 71.2 152.263 71.396C152.002 71.788 152.328 72.44 152.785 72.636C153.177 72.832 153.829 72.701 154.09 72.375C154.482 71.918 154.221 71.331 154.09 71.2C154.612 70.874 154.939 70.091 154.678 69.569C154.547 69.373 154.417 69.177 154.286 69.047L152.263 70.287C152.263 70.352 152.263 70.482 152.328 70.548Z" fill="#E6EBF2"/>
<path d="M154.939 75.1161C154.678 74.8551 153.699 75.1161 153.438 75.4421C153.177 75.7691 152.916 76.0951 153.242 76.5521C153.503 76.8781 153.699 77.27 153.96 77.596C154.09 78.053 154.417 78.2491 154.808 78.1181C155.2 77.9871 155.396 77.596 155.33 77.139C155.265 76.878 155.2 76.6171 155.265 76.3561C155.396 75.8341 155.33 75.4421 154.939 75.1161Z" fill="#E6EBF2"/>
<path d="M150.044 72.1791C150.24 72.5061 150.566 72.7011 150.892 72.5711C151.284 72.3751 151.48 72.0491 151.284 71.6571C151.153 71.3961 150.958 71.2661 150.762 71.2001L149.979 71.6571C149.979 71.7881 149.979 71.9841 150.044 72.1791Z" fill="#E6EBF2"/>
<path d="M103.381 107.878C102.924 108.27 102.924 108.726 103.381 109.314C103.642 109.64 104.294 109.705 104.621 109.444C105.012 109.183 105.208 108.074 104.947 107.813C104.686 107.421 103.903 107.486 103.381 107.878Z" fill="#E6EBF2"/>
<path d="M138.297 88.9519C138.819 89.2129 139.275 89.1479 139.406 88.8869C139.537 88.6259 139.275 87.8419 139.014 87.7119C138.753 87.5809 138.166 87.8419 137.97 88.1689C137.84 88.4949 137.97 88.8209 138.297 88.9519Z" fill="#E6EBF2"/>
<path d="M135.425 85.4931C135.099 85.4931 134.511 85.9501 134.511 86.3421C134.511 86.6031 134.968 87.1251 135.36 87.1251C135.686 87.1901 135.947 86.9291 135.947 86.5371C135.882 85.8851 135.686 85.4931 135.425 85.4931Z" fill="#E6EBF2"/>
<path d="M139.993 82.426C140.124 82.034 139.863 81.577 139.471 81.512C139.08 81.447 138.753 81.708 138.688 82.099C138.623 82.491 138.884 82.883 139.276 82.948C139.732 83.013 139.928 82.752 139.993 82.426Z" fill="#E6EBF2"/>
<path d="M135.36 91.237C135.686 91.302 136.143 90.976 136.208 90.649C136.339 89.931 136.143 89.344 135.686 89.279C135.229 89.214 134.577 89.736 134.511 90.192C134.446 90.519 134.968 91.171 135.36 91.237Z" fill="#E6EBF2"/>
<path d="M147.303 80.337C147.433 80.272 147.564 80.076 147.499 79.88C147.433 79.684 147.172 79.684 147.042 79.684C146.911 79.75 146.65 80.011 146.716 80.141C146.781 80.272 147.172 80.402 147.303 80.337Z" fill="#E6EBF2"/>
<path d="M148.543 76.944C148.674 76.552 148.347 76.356 148.086 76.356C147.825 76.356 147.238 76.356 147.238 76.682C147.238 77.009 147.695 77.4 147.89 77.466C148.217 77.531 148.478 77.335 148.543 76.944Z" fill="#E6EBF2"/>
<path d="M143.714 77.0081C143.714 76.5511 143.518 76.3561 143.192 76.2251C142.996 76.1601 142.735 76.1601 142.539 76.2251L141.299 76.9431C141.429 77.0741 141.625 77.2041 141.821 77.1391C141.952 77.5961 142.343 77.8571 142.604 78.0531C142.93 78.2481 143.648 77.6611 143.714 77.0081Z" fill="#E6EBF2"/>
<path d="M141.625 80.4031C142.017 80.5331 142.408 80.3371 142.539 79.9461C142.604 79.5541 142.343 79.0971 142.017 79.0321C141.69 78.9671 141.299 79.1631 141.234 79.5541C141.103 80.0111 141.234 80.3371 141.625 80.4031Z" fill="#E6EBF2"/>
<path d="M125.766 86.4071L125.57 86.5371C125.57 86.5371 125.636 86.5371 125.636 86.4721C125.701 86.4721 125.701 86.4071 125.766 86.4071Z" fill="#E6EBF2"/>
<path d="M97.6381 107.487C98.1601 107.683 99.0081 107.226 99.1391 106.704C99.2691 106.182 98.7471 105.268 97.9641 105.268C97.1811 105.268 96.7241 105.594 96.5281 106.116C96.3321 106.638 96.9851 107.161 97.6381 107.487Z" fill="#E6EBF2"/>
<path d="M103.055 105.985C102.924 106.116 102.728 106.638 102.859 106.768C102.989 106.899 103.577 106.834 103.642 106.768C103.772 106.573 103.838 106.116 103.707 105.985C103.642 105.855 103.25 105.855 103.055 105.985Z" fill="#E6EBF2"/>
<path d="M108.276 102.722C108.471 102.722 108.798 102.592 108.928 102.461C109.254 102.004 108.993 101.613 108.471 101.286C108.08 101.482 107.623 101.547 107.623 102.135C107.688 102.461 107.949 102.722 108.276 102.722Z" fill="#E6EBF2"/>
<path d="M111.147 95.3481C110.951 95.5441 111.212 96.1311 111.343 96.2621C111.408 96.3921 111.8 96.3271 111.995 96.2621C112.256 96.1311 112.322 95.8051 112.061 95.6091C111.865 95.5441 111.408 95.2171 111.147 95.3481Z" fill="#E6EBF2"/>
<path d="M113.758 94.891C114.41 95.087 114.998 94.63 115.194 93.977C115.324 93.52 115.259 93.194 115.128 92.868L112.844 94.238C113.105 94.564 113.431 94.76 113.758 94.891Z" fill="#E6EBF2"/>
<path d="M88.6971 111.533C89.2191 111.272 89.6101 111.011 89.4141 110.489C89.3491 110.293 89.0231 110.032 88.8921 110.097C88.6311 110.163 88.2401 110.293 88.1091 110.489C87.8481 111.011 88.3701 111.207 88.6971 111.533Z" fill="#E6EBF2"/>
<path d="M136.339 82.1C136.404 81.708 136.273 81.382 135.882 81.317C135.49 81.186 135.164 81.382 135.033 81.708C134.903 82.1 135.099 82.491 135.49 82.622C135.817 82.752 136.208 82.491 136.339 82.1Z" fill="#E6EBF2"/>
<path d="M95.81 105.007C95.941 104.876 96.071 104.68 96.137 104.419L94.962 105.137C95.288 105.202 95.614 105.202 95.81 105.007Z" fill="#E6EBF2"/>
<path d="M159.507 67.3501C159.377 67.3501 159.05 67.4801 158.985 67.6111C158.92 67.8721 158.985 68.1981 159.116 68.3291C159.442 68.6551 159.768 68.3941 160.029 68.1331C160.16 67.7411 160.029 67.4151 159.507 67.3501Z" fill="#E6EBF2"/>
<path d="M159.703 79.8811C159.572 79.9461 159.442 80.1422 159.507 80.2722C159.507 80.4032 159.834 80.6641 159.964 80.5991C160.16 80.5331 160.095 80.1422 160.095 80.0112C160.029 79.9462 159.834 79.8151 159.703 79.8811Z" fill="#E6EBF2"/>
<path d="M157.81 71.527C157.484 71.723 157.353 72.31 157.549 72.636C157.745 72.963 158.202 73.093 158.594 72.897C158.92 72.701 159.05 72.31 158.855 71.918C158.659 71.461 158.202 71.331 157.81 71.527Z" fill="#E6EBF2"/>
<path d="M155.135 68.4591C155.331 68.6551 155.592 68.7201 155.853 68.5901C156.179 68.4591 156.375 68.0681 156.31 67.7411L155.135 68.4591Z" fill="#E6EBF2"/>
<path d="M157.614 69.895C157.614 69.765 157.484 69.504 157.353 69.504C157.223 69.504 156.896 69.504 156.831 69.765C156.766 70.091 157.092 70.156 157.223 70.156C157.353 70.156 157.614 70.026 157.614 69.895Z" fill="#E6EBF2"/>
<path d="M157.875 75.0511C157.68 75.1811 157.223 75.6381 157.419 75.9651C157.614 76.2911 158.071 76.1601 158.332 76.0951C158.593 76.0301 158.854 75.8341 158.724 75.4431C158.528 75.1811 158.071 74.8551 157.875 75.0511Z" fill="#E6EBF2"/>
<path d="M164.01 66.371C164.402 66.175 164.728 65.261 164.467 64.87C164.141 64.217 163.619 64.021 163.031 64.348C162.509 64.674 162.313 65.196 162.64 65.718C162.966 66.24 163.619 66.567 164.01 66.371Z" fill="#E6EBF2"/>
<path d="M163.423 78.2491C163.097 78.3791 163.227 78.8361 163.293 78.9011C163.488 79.0971 164.011 79.5541 164.272 79.4891C164.533 79.4241 164.402 78.6401 164.337 78.5751C164.076 78.4451 163.749 78.1181 163.423 78.2491Z" fill="#E6EBF2"/>
<path d="M160.551 73.0279C160.225 73.1589 160.029 73.6809 160.094 74.0069C160.225 74.3329 160.682 74.5289 161.073 74.3329C161.465 74.1379 161.661 73.7459 161.465 73.4199C161.334 73.0279 160.878 72.8979 160.551 73.0279Z" fill="#E6EBF2"/>
<path d="M162.052 67.8719C161.726 67.9369 161.334 68.6549 161.661 68.9819C161.856 69.1769 162.378 69.1769 162.509 68.9819C162.77 68.6549 162.378 67.8069 162.052 67.8719Z" fill="#E6EBF2"/>
<path d="M147.695 95.087C147.303 95.087 146.912 95.609 147.107 96.001C147.238 96.196 147.695 96.131 148.021 96.196C148.086 96.196 148.347 96.262 148.347 95.935C148.478 95.674 148.086 95.087 147.695 95.087Z" fill="#E6EBF2"/>
<path d="M151.61 82.8821C151.676 82.5561 151.349 82.034 150.697 81.838C150.566 81.904 150.305 82.034 150.175 82.23C149.979 82.687 150.24 83.274 150.566 83.405C150.958 83.535 151.48 83.2091 151.61 82.8821Z" fill="#E6EBF2"/>
<path d="M148.739 79.815C148.739 80.011 148.934 80.272 149.13 80.402C149.391 80.533 149.848 80.206 149.848 79.88C149.848 79.684 149.652 79.488 149.587 79.358C149.13 79.293 148.739 79.554 148.739 79.815Z" fill="#E6EBF2"/>
<path d="M155.787 79.227C155.33 79.097 154.743 79.358 154.613 79.684C154.613 79.815 154.678 80.011 154.808 80.141C154.482 80.141 154.156 80.206 153.895 80.337C153.307 80.663 153.046 82.034 153.568 82.621C153.96 83.078 154.613 82.621 154.743 82.229C154.874 81.838 154.874 81.968 155.33 81.838C155.787 81.707 156.309 81.316 155.853 80.663C155.787 80.598 155.787 80.598 155.722 80.533C155.918 80.467 156.114 80.272 156.179 80.011C156.309 79.684 156.114 79.358 155.787 79.227Z" fill="#E6EBF2"/>
<path d="M164.075 73.6799C163.488 74.0059 163.358 74.5289 163.684 75.0509C163.945 75.6379 164.532 75.8339 164.924 75.6379C165.446 75.3119 165.707 74.5289 165.446 73.9409C165.25 73.5499 164.532 73.4189 164.075 73.6799Z" fill="#E6EBF2"/>
<path d="M148.608 80.7941C148.217 80.7941 147.955 81.2511 147.89 81.4471C147.76 81.7731 148.086 81.9691 148.347 82.0341C148.673 82.1001 149.065 81.9041 149 81.5781C149 81.3821 149 80.7941 148.608 80.7941Z" fill="#E6EBF2"/>
<path d="M152.328 74.7251C152.002 74.6591 151.806 74.7901 151.676 74.8551C151.741 75.1821 151.545 75.8341 151.937 75.9651C152.328 76.0951 152.655 75.6381 152.981 75.4431C152.981 75.3771 152.981 75.3121 152.981 75.1821C152.785 74.7901 152.655 74.7251 152.328 74.7251Z" fill="#E6EBF2"/>
<path d="M153.503 88.039C153.372 88.039 153.111 88.104 153.046 88.234C152.981 88.365 153.177 88.626 153.307 88.626C153.438 88.691 153.829 88.626 153.895 88.43C153.895 88.365 153.633 88.039 153.503 88.039Z" fill="#E6EBF2"/>
<path d="M151.414 83.665C151.349 83.665 151.219 83.926 151.284 84.057C151.284 84.187 151.545 84.187 151.741 84.187C151.806 84.187 152.067 83.926 152.002 83.731C151.871 83.535 151.545 83.6 151.414 83.665Z" fill="#E6EBF2"/>
<path d="M151.545 88.1039C151.48 88.0379 151.153 88.1039 151.088 88.2989C151.023 88.4949 151.349 88.6909 151.48 88.6909C151.545 88.6909 151.806 88.6259 151.871 88.4949C151.871 88.3649 151.676 88.1689 151.545 88.1039Z" fill="#E6EBF2"/>
<path d="M173.865 58.5391C173.539 58.7351 173.343 59.1921 173.539 59.5181C173.734 59.8451 174.256 60.0401 174.583 59.8451C174.909 59.6491 175.04 59.3231 174.844 58.9311C174.648 58.5391 174.191 58.3441 173.865 58.5391Z" fill="#E6EBF2"/>
<path d="M176.737 25.5811C176.802 25.5811 177.063 25.3201 176.998 25.1241C176.932 24.9281 176.541 24.9941 176.41 25.0591C176.345 25.0591 176.215 25.3201 176.28 25.4511C176.345 25.5811 176.606 25.5811 176.737 25.5811Z" fill="#E6EBF2"/>
<path d="M167.273 68.72C166.099 68.72 166.425 67.937 165.577 67.676C165.446 67.61 165.25 67.676 165.185 67.676C164.337 67.871 164.075 68.589 164.598 69.242C164.924 69.634 165.315 69.96 165.707 70.286C166.164 70.612 167.012 70.417 167.404 69.96C167.6 69.764 167.861 69.046 167.273 68.72Z" fill="#E6EBF2"/>
<path d="M181.892 56.8419C181.762 56.9079 181.436 57.1689 181.566 57.2989C181.697 57.4949 182.023 57.4949 182.153 57.4299C182.219 57.4299 182.284 57.1689 182.284 57.0379C182.219 56.9079 181.958 56.7769 181.892 56.8419Z" fill="#E6EBF2"/>
<path d="M180.522 61.9981C180.196 62.1291 180.196 62.7161 180.261 63.0421C180.326 63.2381 180.979 63.7601 181.305 63.6301C181.632 63.4991 181.501 62.5851 181.37 62.3241C181.305 62.1291 180.848 61.8681 180.522 61.9981Z" fill="#E6EBF2"/>
<path d="M176.541 65.3261C176.214 65.4571 176.019 65.8481 176.214 66.1751C176.41 66.5661 176.867 66.7621 177.259 66.6321C177.585 66.5011 177.781 65.9791 177.585 65.6531C177.389 65.3261 176.867 65.1961 176.541 65.3261Z" fill="#E6EBF2"/>
<path d="M151.61 12.594C151.871 12.529 151.741 12.137 151.741 12.007C151.741 11.941 151.415 11.811 151.415 11.876C151.284 11.941 151.153 12.137 151.219 12.268C151.153 12.333 151.349 12.659 151.61 12.594Z" fill="#E6EBF2"/>
<path d="M165.642 21.274C165.903 21.209 165.837 20.882 165.837 20.817C165.772 20.686 165.576 20.621 165.446 20.621C165.381 20.621 165.185 20.8819 165.25 20.9479C165.25 21.0779 165.381 21.339 165.642 21.274Z" fill="#E6EBF2"/>
<path d="M157.745 16.0529C158.071 15.9229 158.202 15.5309 158.137 15.1389C158.006 14.8129 157.615 14.5519 157.288 14.7479C156.962 14.9439 156.766 15.2699 156.897 15.6609C157.027 16.0529 157.419 16.1839 157.745 16.0529Z" fill="#E6EBF2"/>
<path d="M161.922 17.9459C162.444 17.8809 162.705 17.5539 162.835 17.0969C162.966 16.6409 162.77 16.2489 162.313 16.0529C161.987 15.9229 161.4 15.4009 160.943 15.6619C160.486 15.9879 160.812 16.3139 160.812 16.5749C160.812 17.2279 161.4 18.0109 161.922 17.9459Z" fill="#E6EBF2"/>
<path d="M168.774 21.078C169.101 21.208 169.362 21.208 169.558 20.882C169.884 20.425 169.688 20.033 169.362 19.642C168.905 19.707 168.383 19.642 168.318 20.229C168.252 20.621 168.448 20.882 168.774 21.078Z" fill="#E6EBF2"/>
<path d="M168.122 65.1311C167.991 65.2621 167.926 65.5881 167.991 65.7841C168.056 65.9791 168.448 66.3061 168.644 66.2411C168.84 66.1751 168.905 65.6531 168.905 65.4571C168.84 65.1311 168.317 64.9351 168.122 65.1311Z" fill="#E6EBF2"/>
<path d="M168.318 62.521C167.861 62.717 167.73 63.239 168.056 63.826C168.252 64.283 168.709 64.479 169.035 64.348C169.427 64.153 169.884 63.239 169.688 62.913C169.492 62.391 168.97 62.26 168.318 62.521Z" fill="#E6EBF2"/>
<path d="M169.819 59.519C169.949 59.519 170.08 59.519 170.145 59.453C170.276 59.388 170.341 59.323 170.406 59.192L169.819 59.519Z" fill="#E6EBF2"/>
<path d="M167.534 72.8969C167.469 72.9619 167.339 73.0929 167.404 73.1579C167.469 73.2879 167.6 73.2879 167.665 73.2229C167.73 73.1579 167.73 73.0269 167.73 72.9619C167.73 72.9619 167.6 72.8319 167.534 72.8969Z" fill="#E6EBF2"/>
<path d="M171.32 74.9851C171.189 75.0501 170.993 75.3121 171.059 75.5071C171.059 75.7031 171.254 76.0291 171.45 76.0951C171.907 76.2251 172.233 75.7681 172.233 75.5071C172.233 75.1811 171.776 74.7891 171.32 74.9851Z" fill="#E6EBF2"/>
<path d="M172.821 64.0869C172.429 64.2169 172.234 64.609 172.429 65C172.56 65.392 172.886 65.522 173.278 65.392C173.669 65.196 173.865 64.87 173.735 64.478C173.539 64.152 173.147 63.9559 172.821 64.0869Z" fill="#E6EBF2"/>
<path d="M148.086 85.2321C148.217 84.5141 147.956 83.9921 147.303 83.8621C146.716 83.7311 146.128 84.0581 146.063 84.4491C145.932 85.1021 146.454 85.8851 147.042 86.0151C147.433 86.1461 147.956 85.6891 148.086 85.2321Z" fill="#E6EBF2"/>
<path d="M172.364 70.4169C171.907 70.6129 171.777 71.0699 171.972 71.4619C172.168 71.8529 172.625 71.9839 173.017 71.7879C173.408 71.5919 173.539 71.1349 173.343 70.7439C173.212 70.4169 172.756 70.2219 172.364 70.4169Z" fill="#E6EBF2"/>
<path d="M111.8 96.9139C111.212 96.7839 110.625 97.0449 110.364 97.5669C109.907 97.1749 109.32 97.0449 108.928 97.3059C108.341 97.6969 108.08 98.8719 108.471 99.3939C108.863 99.9159 109.777 100.047 110.299 99.7209C110.495 99.5899 110.69 99.3939 110.756 99.1329C110.886 99.2639 111.017 99.3289 111.212 99.3289C111.8 99.4589 112.518 98.9369 112.648 98.0889C112.779 97.5669 112.452 97.0449 111.8 96.9139Z" fill="#E6EBF2"/>
<path d="M117.477 110.75C117.347 110.815 117.412 111.076 117.477 111.207C117.477 111.272 117.804 111.468 117.934 111.337C118.13 111.207 117.934 110.881 117.869 110.75C117.804 110.75 117.543 110.685 117.477 110.75Z" fill="#E6EBF2"/>
<path d="M118.913 93.5861C118.718 93.2591 118.195 93.1291 117.869 93.3241C117.608 93.5201 117.543 93.9121 117.673 94.1731C117.412 94.4341 117.217 94.6951 117.412 95.0871C117.412 95.1521 117.478 95.1521 117.478 95.2171C117.086 95.4131 116.694 95.8701 116.629 96.1961C116.564 96.5881 116.825 96.9141 117.217 97.0441C117.869 97.1751 118.457 96.9141 118.522 96.4571C118.587 96.0661 118.522 95.7391 118.326 95.4781C118.587 95.4131 118.718 95.1521 118.718 94.8261C118.718 94.6951 118.718 94.6301 118.652 94.5641H118.718C119.044 94.3691 119.174 93.9121 118.913 93.5861Z" fill="#E6EBF2"/>
<path d="M115.846 96.718C115.65 96.914 115.324 97.501 115.52 97.697C115.716 97.893 116.303 97.762 116.564 97.632C116.825 97.501 116.825 97.044 116.629 96.783C116.368 96.588 116.042 96.457 115.846 96.718Z" fill="#E6EBF2"/>
<path d="M121.198 98.8721C121.328 98.4151 121.067 97.9581 120.48 97.8281C119.958 97.6321 119.109 97.8931 118.979 98.3501C118.783 98.9371 119.174 99.6551 119.697 99.8511C120.284 99.9811 121.002 99.5241 121.198 98.8721Z" fill="#E6EBF2"/>
<path d="M123.417 100.83C123.286 100.699 122.96 100.634 122.764 100.699C121.981 100.83 121.589 101.417 121.655 102.2C121.655 102.331 121.655 102.527 121.72 102.657C121.589 102.266 121.524 101.939 121.002 101.939C120.61 101.939 120.349 102.2 120.284 102.592C120.219 102.723 120.284 102.853 120.284 102.984C120.153 103.114 120.153 103.31 120.153 103.571C120.153 104.093 120.415 104.419 120.871 104.615C121.328 104.811 121.72 104.615 121.981 104.289C122.177 104.093 122.307 103.767 122.503 103.44C122.633 103.44 122.829 103.44 122.96 103.375C123.547 103.245 124.069 102.788 124.135 102.266C124.135 101.678 123.873 101.156 123.417 100.83Z" fill="#E6EBF2"/>
<path d="M124.004 105.202C123.743 105.333 123.678 105.79 123.808 106.051C124.004 106.377 124.657 106.442 124.852 105.92C124.983 105.268 124.33 105.007 124.004 105.202Z" fill="#E6EBF2"/>
<path d="M124.983 91.889C124.656 91.563 124.2 91.497 123.678 91.497C123.155 91.563 122.764 91.171 122.307 91.432C121.654 91.759 120.871 92.542 121.132 93.782C121.263 94.5 121.589 94.891 122.046 95.152C122.046 95.217 122.046 95.217 122.046 95.283C122.176 95.74 122.568 96.001 123.09 96.066C123.612 96.131 123.873 95.805 124.004 95.348C124.004 95.217 124.134 95.087 124.134 94.891C125.374 94.826 125.57 93.782 125.44 92.803C125.374 92.411 125.244 92.085 124.983 91.889Z" fill="#E6EBF2"/>
<path d="M122.176 97.3711C122.698 97.3061 122.829 96.8491 122.829 96.3271C122.503 96.0661 122.176 95.8051 121.72 96.0661C121.393 96.2621 121.263 96.6531 121.524 96.9791C121.654 97.1751 121.981 97.3711 122.176 97.3711Z" fill="#E6EBF2"/>
<path d="M116.172 99.7211C115.716 99.5251 114.867 99.9821 114.737 100.438C114.606 100.895 114.998 101.548 115.52 101.744C116.042 101.939 116.433 101.678 116.629 100.961C116.76 100.504 116.499 99.8511 116.172 99.7211Z" fill="#E6EBF2"/>
<path d="M111.865 109.966C111.734 110.097 111.8 110.489 111.865 110.554C111.93 110.684 112.191 110.75 112.322 110.684C112.452 110.619 112.452 110.293 112.387 110.227C112.322 110.097 111.995 109.836 111.865 109.966Z" fill="#E6EBF2"/>
<path d="M109.32 105.659C109.189 105.725 109.254 105.92 109.32 105.986C109.385 106.051 109.515 106.051 109.581 105.986C109.646 105.92 109.711 105.79 109.646 105.725C109.581 105.659 109.385 105.594 109.32 105.659Z" fill="#E6EBF2"/>
<path d="M108.276 114.992C108.08 115.188 107.819 115.71 107.949 115.841C108.08 115.971 108.667 115.971 108.863 115.906C109.189 115.841 109.189 115.449 108.994 115.123C108.798 114.731 108.471 114.796 108.276 114.992Z" fill="#E6EBF2"/>
<path d="M108.667 108.531C108.471 108.335 108.145 108.14 107.949 108.401C107.753 108.596 107.427 109.184 107.623 109.38C107.819 109.641 108.406 109.314 108.667 109.184C108.928 109.119 108.928 108.792 108.667 108.531Z" fill="#E6EBF2"/>
<path d="M106.84 98.9381C106.709 98.9381 106.448 98.9381 106.383 99.0681C106.187 99.3291 106.057 99.7211 105.861 100.047C105.012 100.243 104.425 100.7 104.556 101.222C104.621 101.744 105.469 102.266 106.057 102.135C106.644 102.005 106.774 101.679 106.644 100.439C107.101 100.308 107.623 100.243 107.558 99.6551C107.492 99.2641 107.297 99.0031 106.84 98.9381Z" fill="#E6EBF2"/>
<path d="M106.252 105.855C105.926 106.116 105.861 106.638 106.122 106.965C106.383 107.226 106.774 107.291 107.035 107.095C107.427 106.834 107.492 106.377 107.231 105.986C107.101 105.725 106.579 105.594 106.252 105.855Z" fill="#E6EBF2"/>
<path d="M113.301 101.547C112.909 101.874 112.844 102.657 113.235 103.114C113.627 103.571 114.214 103.636 114.737 103.179C115.259 102.722 115.324 102.135 114.932 101.678C114.541 101.221 113.888 101.156 113.301 101.547Z" fill="#E6EBF2"/>
<path d="M113.758 104.027C113.431 103.897 112.909 104.158 112.844 104.484C112.713 104.941 112.974 105.594 113.301 105.724C113.758 105.855 114.476 105.594 114.606 105.202C114.802 104.811 114.41 104.289 113.758 104.027Z" fill="#E6EBF2"/>
<path d="M125.897 99.982C125.636 100.112 125.57 100.569 125.701 100.83C125.897 101.156 126.158 101.091 126.745 100.7C126.876 100.047 126.158 99.786 125.897 99.982Z" fill="#E6EBF2"/>
<path d="M109.646 101.809C109.189 102.07 109.059 102.853 109.32 103.245C109.515 103.571 110.038 103.701 110.429 103.506C110.821 103.245 110.951 102.592 110.69 102.135C110.364 101.744 109.972 101.613 109.646 101.809Z" fill="#E6EBF2"/>
<path d="M128.311 86.538C129.355 86.668 129.551 86.407 129.878 85.428C130.073 84.971 129.747 84.449 129.355 84.188L127.398 85.363C127.332 85.885 127.724 86.472 128.311 86.538Z" fill="#E6EBF2"/>
<path d="M143.714 87.3861C143.909 86.7981 143.322 86.0801 142.539 85.8191C141.951 85.6891 141.495 85.9501 141.299 86.5371C141.103 87.2551 141.429 87.8421 142.212 88.1031C142.8 88.2991 143.518 87.9081 143.714 87.3861Z" fill="#E6EBF2"/>
<path d="M140.059 94.4339C139.537 94.3039 139.145 94.5649 139.015 95.2169C138.949 95.6739 139.08 96.0659 139.406 96.1309C139.798 96.2619 140.712 95.8049 140.842 95.4129C140.973 94.9559 140.712 94.5649 140.059 94.4339Z" fill="#E6EBF2"/>
<path d="M140.646 91.04C140.516 91.04 140.255 91.2361 140.189 91.4321C140.059 91.7581 139.928 92.1501 139.863 92.4761C139.798 92.8021 139.928 92.933 140.255 92.998C140.32 92.933 140.516 92.933 140.516 92.802C140.646 92.411 140.907 92.2801 141.168 92.0841C141.299 92.0191 141.299 91.5621 141.234 91.3661C141.168 91.2361 140.842 91.04 140.646 91.04Z" fill="#E6EBF2"/>
<path d="M138.688 101.744C138.297 101.744 137.644 102.723 137.84 103.114C138.036 103.506 139.015 103.31 139.145 102.853C139.276 102.396 139.015 101.744 138.688 101.744Z" fill="#E6EBF2"/>
<path d="M143.322 94.4339C143.387 94.0429 143.126 93.7159 142.734 93.5859C142.343 93.5209 141.886 93.7159 141.821 94.0429C141.755 94.3689 142.082 95.0219 142.343 95.0869C142.669 95.1519 143.191 94.8259 143.322 94.4339Z" fill="#E6EBF2"/>
<path d="M138.035 100.765C138.101 100.569 137.905 100.438 137.84 100.438C137.709 100.438 137.383 100.438 137.318 100.634C137.252 100.895 137.579 101.026 137.644 101.026C137.774 101.026 137.97 100.961 138.035 100.765Z" fill="#E6EBF2"/>
<path d="M143.844 90.5181C143.387 90.3881 142.735 90.7141 142.669 91.0401C142.539 91.4971 142.996 92.0191 143.648 92.1501C144.04 92.2151 144.236 92.0851 144.366 91.6931C144.431 91.1711 144.236 90.5841 143.844 90.5181Z" fill="#E6EBF2"/>
<path d="M143.909 81.904C143.191 81.643 142.278 82.099 142.017 82.817C141.951 82.948 141.951 83.144 142.017 83.274C141.625 83.666 141.429 84.384 141.625 84.84C141.951 85.558 142.8 85.885 143.387 85.624C143.779 85.428 144.04 84.84 144.17 84.318C144.431 84.123 144.562 83.796 144.692 83.405C144.888 82.752 144.562 82.099 143.909 81.904Z" fill="#E6EBF2"/>
<path d="M143.452 96.3919C143.126 96.2609 142.8 96.3919 142.669 96.7179C142.539 97.0439 142.734 97.5009 143.126 97.5669C143.518 97.6319 143.713 97.4359 143.844 97.1099C143.909 96.7829 143.779 96.5219 143.452 96.3919Z" fill="#E6EBF2"/>
<path d="M135.229 102.005C135.164 101.483 135.164 101.026 135.099 100.634C134.968 100.178 134.446 100.112 134.25 100.439C133.989 100.895 133.598 101.287 133.728 101.874C133.924 102.005 134.12 102.201 134.316 102.331C134.316 102.984 134.577 103.571 134.968 103.636C135.294 103.702 135.556 103.571 135.686 103.245C135.882 102.658 135.751 102.462 135.229 102.005Z" fill="#E6EBF2"/>
<path d="M130.139 96.8491C129.616 96.5231 129.355 96.7841 129.029 96.5231C128.703 96.2621 128.442 96.3921 128.115 96.6531C127.789 96.9141 127.267 97.3711 127.659 97.8281C128.05 98.2851 128.376 98.0891 128.507 97.9591C128.638 97.8281 129.029 97.8281 128.899 98.0241C128.833 98.2201 128.899 98.4151 129.355 98.6761C129.812 98.8721 130.139 98.8721 130.465 98.4151C130.856 97.8931 130.661 97.1751 130.139 96.8491Z" fill="#E6EBF2"/>
<path d="M146.65 79.6851C146.781 79.2281 146.259 78.5761 145.802 78.4451C145.41 78.3151 144.758 78.8371 144.692 79.2931C144.627 79.6201 144.888 80.1421 145.214 80.2071C145.867 80.4031 146.585 80.1421 146.65 79.6851Z" fill="#E6EBF2"/>
<path d="M128.703 102.135C128.507 102.07 128.311 102.331 128.311 102.461C128.311 102.592 128.246 102.853 128.442 102.918C128.638 102.983 128.768 102.788 128.768 102.657C128.834 102.527 128.899 102.2 128.703 102.135Z" fill="#E6EBF2"/>
<path d="M126.615 88.3001C126.223 87.9731 125.179 87.8431 124.787 88.7561C124.396 89.6701 124.657 90.3881 125.244 90.6491C125.766 90.9101 126.941 90.5181 127.137 89.9311C127.463 89.0831 127.006 88.5611 126.615 88.3001Z" fill="#E6EBF2"/>
<path d="M126.549 92.2151C126.419 92.3451 126.093 92.5411 126.027 92.7371C125.897 93.0631 126.093 93.3241 126.419 93.3901C126.68 93.4551 127.006 93.4551 127.137 93.1291C127.202 92.8021 126.941 92.3451 126.549 92.2151Z" fill="#E6EBF2"/>
<path d="M138.036 92.8681C138.166 92.2811 137.84 91.889 137.122 91.759C136.73 91.693 136.143 92.0201 136.078 92.4111C135.947 92.8681 136.469 93.847 136.861 93.912C137.318 93.977 137.905 93.5211 138.036 92.8681Z" fill="#E6EBF2"/>
<path d="M132.945 89.344C133.141 88.757 132.945 88.4301 132.227 88.2351C131.64 88.0391 131.183 88.235 131.052 88.691C130.922 89.083 131.444 89.9971 131.835 90.1271C132.358 90.2581 132.749 89.931 132.945 89.344Z" fill="#E6EBF2"/>
<path d="M134.707 96.3259C134.772 95.9999 134.707 95.8699 134.642 95.6739C134.577 95.4779 134.511 95.2819 134.25 95.0859C133.989 94.8909 133.402 94.7599 132.945 94.9559C132.488 95.1519 132.292 95.5429 132.292 95.9349C132.292 96.3259 132.553 96.6529 132.749 96.7829C132.945 96.9139 133.467 97.1099 133.859 96.9139C134.185 96.7179 134.642 96.6529 134.707 96.3259Z" fill="#E6EBF2"/>
<path d="M-68 42.615L47.842 -28L163.684 42.615L47.842 113.165L-68 42.615Z" fill="#F04E98"/>
<path d="M84.3241 3.78393C84.2591 4.04493 84.3241 4.30593 84.4541 4.50193C84.5851 4.63193 85.3031 4.56693 85.3681 4.30593C85.4991 3.97993 85.3031 3.58793 84.9771 3.45693C84.7811 3.26193 84.3891 3.39193 84.3241 3.78393Z" fill="#E32682"/>
<path d="M113.692 22.5801C113.562 22.5151 113.236 22.6451 113.17 22.7761C113.105 22.9061 113.301 23.167 113.431 23.167C113.562 23.232 113.823 23.102 113.888 22.971C113.953 22.841 113.823 22.6451 113.692 22.5801Z" fill="#E32682"/>
<path d="M104.294 16.1191C104.817 16.3141 105.665 15.7921 105.73 15.2701C105.795 14.7481 105.273 13.9001 104.49 13.9001C103.772 13.9001 103.315 14.2911 103.185 14.8131C103.054 15.3351 103.642 15.8571 104.294 16.1191Z" fill="#E32682"/>
<path d="M111.473 20.1651C111.473 19.5771 111.212 19.0551 110.69 18.9251C110.494 18.8601 110.103 18.9251 109.972 19.0551C109.711 19.2511 109.515 19.5121 109.45 19.7731C109.32 19.8391 109.124 19.9691 109.124 20.1001C109.124 20.2301 109.254 20.2951 109.385 20.2951C109.45 20.4911 109.515 20.6871 109.581 20.8831C109.842 20.8831 110.168 21.0131 110.494 20.9481C111.082 21.0131 111.473 20.5561 111.473 20.1651Z" fill="#E32682"/>
<path d="M110.364 22.4491C110.233 22.5791 110.168 22.7101 110.299 22.8401C110.429 23.0361 110.56 23.0361 110.756 22.9061C110.886 22.7751 110.951 22.6451 110.821 22.5141C110.69 22.3831 110.56 22.3181 110.364 22.4491Z" fill="#E32682"/>
<path d="M123.613 18.2069L119.305 15.5309C119.109 15.5959 118.848 15.6619 118.718 15.8579C118.457 16.1839 118.326 16.7709 118.587 17.1629C118.914 17.6199 119.501 17.5539 119.697 17.4889C119.762 17.6199 119.827 17.7499 119.893 17.8809C119.827 18.0109 119.827 18.2069 119.893 18.4679C120.219 18.5989 120.545 18.6639 120.741 18.5329C120.806 18.5329 120.937 18.5329 121.002 18.5329C121.589 18.4679 121.981 18.1419 122.177 17.6849C122.307 17.8809 122.503 18.0759 122.895 18.1419H122.96L123.025 18.2069C123.221 18.4029 123.417 18.3379 123.613 18.2069Z" fill="#E32682"/>
<path d="M114.802 20.2299C114.867 20.0999 114.933 19.9689 114.867 19.9039C114.802 19.6429 114.541 19.1209 114.149 19.1859C114.084 19.1859 114.019 19.2509 113.954 19.3159C113.627 19.1859 113.366 19.1859 113.105 19.4469C112.844 19.7729 112.844 20.7519 113.105 21.0129C113.497 21.3399 114.019 21.2739 114.41 20.8829C114.737 20.5559 114.867 20.4259 114.802 20.2299Z" fill="#E32682"/>
<path d="M86.0861 3.45806C85.9551 3.78406 86.1511 4.11007 86.4781 4.30607C86.8041 4.50207 87.1951 4.43706 87.3911 4.17606C87.7181 3.71906 87.3911 3.00106 87.1951 2.87006C87.0001 2.74006 86.2161 2.93606 86.0861 3.45806Z" fill="#E32682"/>
<path d="M102.271 7.96105C102.01 8.54805 102.402 9.46204 102.989 9.72304C103.707 9.98404 104.555 9.72305 104.751 9.13605C104.947 8.67905 104.686 7.89604 104.294 7.43904C104.49 7.17804 104.621 6.91704 104.621 6.65604L101.945 5.02405C101.88 5.48105 101.814 5.93804 101.814 6.46004C101.814 6.52504 102.01 6.72104 102.141 6.78604C102.467 6.91704 102.663 7.11204 102.859 7.43904C102.598 7.50404 102.402 7.70005 102.271 7.96105Z" fill="#E32682"/>
<path d="M97.0501 8.67895C97.2461 8.15595 97.0501 7.56895 96.5931 7.30795V7.24295C96.9201 7.43895 97.2461 7.43895 97.4421 7.17695C97.7681 6.85095 97.7031 6.26394 97.1811 6.00294C96.7241 5.80694 96.7891 5.48095 96.6591 5.02395C97.3761 4.82795 97.7031 4.50195 97.7031 4.10995C97.8991 4.10995 98.0291 4.04495 98.1601 3.78395C98.3551 3.45695 98.2901 3.06595 97.9641 2.86995C97.7681 2.73995 97.5071 2.67394 97.3111 2.73994C97.2461 2.73994 97.1811 2.80495 97.1151 2.86995C96.7891 2.60895 96.4631 2.60894 96.0711 3.00094C95.6801 3.39194 95.3531 3.78395 95.8101 4.50195C95.4191 4.37095 95.2231 4.37095 95.0921 4.30595C94.7661 4.04495 94.4401 4.10995 94.1791 4.37095C93.8521 4.63195 93.6561 4.95895 93.7871 5.41495C94.2441 6.78595 94.6351 7.04695 96.0711 6.78595C96.0711 6.78595 96.1361 6.78595 96.2021 6.78595C96.0061 6.85095 95.8101 6.91595 95.6801 6.98195C95.2231 7.04695 94.8311 7.30795 94.6351 7.76495C94.3741 8.35195 94.5701 8.93996 95.0921 9.20096C95.7451 9.59196 96.8541 9.26595 97.0501 8.67895Z" fill="#E32682"/>
<path d="M94.2441 11.1581C93.8521 11.6151 93.7871 12.3981 94.1791 12.6591C94.4401 12.9201 95.4841 12.7251 95.7451 12.3331C95.9411 12.0721 95.8761 11.4851 95.6141 11.2241C95.2231 10.8321 94.5701 10.8321 94.2441 11.1581Z" fill="#E32682"/>
<path d="M83.802 0.977051C83.998 0.716051 83.998 0.259056 83.802 0.0640564C83.541 -0.196944 83.019 -0.196938 82.758 -0.00193787C82.497 0.194062 82.562 0.716064 82.758 0.912064C83.084 1.17306 83.606 1.23805 83.802 0.977051Z" fill="#E32682"/>
<path d="M90.198 9.20007C90.655 8.67807 90.655 8.09107 90.132 7.63407C89.61 7.17707 88.631 7.24307 88.175 7.76507C87.848 8.15607 87.913 9.07006 88.37 9.46206C88.892 9.98406 89.61 9.85307 90.198 9.20007Z" fill="#E32682"/>
<path d="M90.2629 13.3121C90.6539 13.4431 90.8499 12.9861 90.9149 12.8551V12.7901C91.1769 12.9211 91.5679 13.2471 91.8289 12.9211C92.1549 12.5941 91.7639 12.1371 91.6329 11.8761C91.5029 11.6151 91.1109 11.6811 90.8499 11.9421C90.7849 12.0071 90.7199 12.1371 90.6539 12.2031C90.3929 12.0721 90.1319 12.2031 90.0669 12.4641C89.9369 12.6601 89.8709 13.1821 90.2629 13.3121Z" fill="#E32682"/>
<path d="M88.4351 5.87207C88.3051 5.93707 88.2401 6.19807 88.3051 6.32907C88.3701 6.45907 88.6971 6.45907 88.7621 6.39407C88.8921 6.32907 89.0231 6.06807 88.9581 5.87207C88.8921 5.67607 88.5011 5.80707 88.4351 5.87207Z" fill="#E32682"/>
<path d="M89.806 5.02299C90.132 5.28499 90.654 5.21898 90.85 4.89298C91.046 4.63198 90.981 4.10999 90.72 3.91399C90.459 3.71799 89.937 3.78299 89.741 4.04499C89.48 4.30599 89.545 4.76199 89.806 5.02299Z" fill="#E32682"/>
<path d="M89.545 4.50204C89.806 4.04504 89.937 3.58804 90.067 3.06604C90.067 2.93504 90.067 2.80504 90.067 2.60904C90.198 2.54404 90.393 2.47804 90.459 2.34804C90.393 2.15204 90.393 1.82605 90.263 1.56505C90.002 1.23805 89.48 1.36904 89.219 1.69504C88.892 1.56504 88.631 1.63004 88.501 1.89104C88.109 2.60904 87.783 3.32705 87.913 4.17505C87.913 4.30605 88.044 4.43604 88.044 4.50204C88.37 5.21904 89.153 5.21904 89.545 4.50204Z" fill="#E32682"/>
<path d="M92.3511 -0.849939L88.8921 -2.93794C88.6971 -2.74194 88.6311 -2.48093 88.9581 -2.35093C89.1541 -2.28593 89.6101 -2.08993 89.8061 -2.21993C89.7411 -1.82893 89.9371 -1.43694 90.1981 -1.30694C90.2631 -1.24094 90.3941 -1.24093 90.4591 -1.24093C90.3941 -0.849931 90.5241 -0.45794 90.7201 -0.19694C91.0461 0.0640605 91.6991 -0.000938654 92.0251 -0.392939C92.2211 -0.588939 92.2861 -0.718939 92.3511 -0.849939Z" fill="#E32682"/>
<path d="M100.118 23.624C100.444 23.297 100.379 22.775 99.9869 22.384C99.5949 21.992 98.7469 21.861 98.4859 22.123C98.0939 22.514 98.0289 23.297 98.4209 23.754C98.7469 24.146 99.5949 24.08 100.118 23.624Z" fill="#E32682"/>
<path d="M100.966 14.2261C100.509 13.8341 99.269 13.8341 98.812 14.2261C98.356 14.6171 98.486 15.531 99.008 15.988C99.465 16.445 100.509 16.38 100.901 15.988C101.423 15.466 101.423 14.6171 100.966 14.2261Z" fill="#E32682"/>
<path d="M101.423 8.93912C101.162 8.74312 100.574 8.80912 100.313 9.07012C100.052 9.39612 100.052 10.1791 100.313 10.3751C100.64 10.7011 101.553 10.7011 101.88 10.3751C102.141 9.98313 102.01 9.39612 101.423 8.93912Z" fill="#E32682"/>
<path d="M98.0291 12.9861C98.1601 12.8551 98.2251 12.5941 98.1601 12.3981C98.2251 12.3981 98.2251 12.3981 98.2901 12.3981C98.4211 12.3981 98.7471 12.1371 98.7471 11.9421C98.7471 11.7461 98.2901 11.6151 98.1601 11.6151C98.0941 11.6151 98.0291 11.7461 97.9641 11.8111C97.6381 11.5501 97.2461 11.6151 96.9851 11.8761C96.7241 12.1371 96.7241 12.6591 96.9851 12.9211C97.1811 13.1161 97.8331 13.1821 98.0291 12.9861Z" fill="#E32682"/>
<path d="M97.5721 20.2301C98.0291 20.6221 98.6821 20.6871 99.0081 20.2951C99.2691 20.0341 99.3351 19.6431 99.2691 19.3821C99.5301 19.3821 99.7911 19.2511 99.9221 19.0551C100.183 18.6641 99.8571 18.2721 99.5961 17.9461C99.1391 18.0771 98.6821 18.0771 98.6821 18.6641C98.6821 18.7291 98.6821 18.7941 98.6821 18.7941C98.2901 18.7941 97.7031 18.9901 97.5071 19.2511C97.1811 19.5781 97.2461 19.9691 97.5721 20.2301Z" fill="#E32682"/>
<path d="M94.635 1.95597C94.962 2.15197 95.549 1.95596 95.68 1.62996C95.745 1.49896 95.745 1.36898 95.68 1.17298L94.766 0.650974C94.57 0.715974 94.374 0.780963 94.309 0.976963C94.179 1.36896 94.309 1.75997 94.635 1.95597Z" fill="#E32682"/>
<path d="M108.863 11.2891C108.863 11.2241 108.667 11.0281 108.537 11.0281C108.406 11.0281 108.276 11.2891 108.276 11.4191C108.276 11.4851 108.406 11.8111 108.602 11.7461C108.863 11.8111 108.863 11.4191 108.863 11.2891Z" fill="#E32682"/>
<path d="M122.242 20.622C122.633 20.556 122.895 20.165 122.895 19.839C122.829 19.447 122.568 19.251 122.177 19.251C121.72 19.251 121.459 19.577 121.459 19.969C121.524 20.295 121.916 20.687 122.242 20.622Z" fill="#E32682"/>
<path d="M100.248 6.91702C99.987 7.24302 99.987 7.76502 100.379 7.96102C100.705 8.22202 101.227 8.15703 101.488 7.89503C101.684 7.63403 101.553 6.91702 101.292 6.72102C101.097 6.52502 100.509 6.65502 100.248 6.91702Z" fill="#E32682"/>
<path d="M110.299 16.314C111.016 16.118 111.277 15.27 111.147 14.617C111.082 14.291 110.755 13.965 110.299 13.769C110.233 13.573 110.103 13.443 109.972 13.312C110.233 12.986 110.233 12.529 109.907 12.268C109.646 12.072 109.189 12.072 108.993 12.333C108.797 12.529 108.797 12.921 108.863 13.182C108.602 13.312 108.471 13.573 108.471 13.704C108.341 14.095 108.602 14.356 108.797 14.552C108.797 14.552 108.797 14.552 108.863 14.617C108.928 14.748 108.993 14.878 109.124 14.944C109.45 15.205 109.32 15.14 109.32 15.596C109.32 16.053 109.515 16.51 110.299 16.314Z" fill="#E32682"/>
<path d="M105.926 7.37305L105.534 7.11205C105.6 7.17705 105.6 7.24205 105.665 7.24205C105.665 7.37305 105.795 7.37305 105.926 7.37305Z" fill="#E32682"/>
<path d="M111.93 11.0929L108.471 8.93893C108.145 9.33093 108.145 9.78793 108.341 10.3749C108.602 11.0279 109.059 11.1579 109.907 10.8319C110.299 11.0929 110.625 11.3539 110.951 11.4189C111.343 11.5499 111.734 11.3539 111.93 11.0929Z" fill="#E32682"/>
<path d="M115.716 17.163C115.781 17.098 115.846 16.967 115.911 16.836C116.368 17.098 117.217 17.098 117.543 16.706C117.935 16.314 118 15.662 117.804 15.205C117.869 15.074 117.935 15.009 118 14.879L115.781 13.508C115.781 13.508 115.716 13.508 115.716 13.573C115.324 14.03 115.324 14.487 115.65 14.944C115.585 15.009 115.585 15.009 115.52 15.074C115.455 15.14 115.455 15.205 115.389 15.27C115.259 15.205 115.063 15.14 114.867 15.27C114.606 15.401 114.28 15.466 113.953 15.531C113.953 15.14 113.823 14.748 113.497 14.487C113.04 14.095 112.126 14.291 111.604 14.879C111.212 15.335 111.278 15.988 111.8 16.38C112.387 16.771 112.713 16.836 113.04 16.641C113.17 16.836 113.366 16.967 113.692 17.032C113.953 17.098 114.215 17.098 114.41 17.228C114.932 17.359 115.324 17.424 115.716 17.163Z" fill="#E32682"/>
<path d="M106.513 20.2951C106.644 19.9691 106.644 19.6431 106.513 19.3161C106.383 18.9251 106.056 18.5991 105.6 18.4031C105.143 18.2071 104.947 17.6851 104.425 17.6851C103.707 17.6851 102.663 18.0111 102.336 19.1211C102.141 19.8391 102.206 20.3611 102.532 20.7521C102.924 21.2091 103.642 20.9481 104.164 21.2741C105.469 22.1231 106.187 21.2741 106.513 20.2951Z" fill="#E32682"/>
<path d="M85.303 5.41511C85.042 5.41511 84.715 5.48112 84.52 5.67612C84.454 5.74212 84.454 5.93711 84.454 6.06811C83.998 5.67611 83.214 5.67611 82.953 6.00311C82.692 6.32911 82.823 7.04712 83.214 7.37312C83.606 7.69912 84.193 7.63412 84.52 7.17712C84.781 6.91612 84.846 6.65512 84.715 6.39412C84.781 6.39412 84.781 6.45912 84.846 6.45912C85.042 6.52512 85.303 6.39412 85.433 6.32912C85.694 5.87212 85.564 5.48111 85.303 5.41511Z" fill="#E32682"/>
<path d="M103.642 26.691C103.381 26.691 103.054 27.018 103.12 27.344C103.12 27.67 103.381 27.801 104.099 27.67C104.425 27.213 103.968 26.691 103.642 26.691Z" fill="#E32682"/>
<path d="M104.555 29.889C104.49 30.019 104.36 30.15 104.49 30.346C104.621 30.542 104.816 30.411 104.882 30.346C104.947 30.215 105.208 29.954 105.012 29.824C104.882 29.693 104.621 29.824 104.555 29.889Z" fill="#E32682"/>
<path d="M117.673 39.5481C117.217 39.6131 116.89 40.0051 116.956 40.3961C117.021 40.7231 117.412 41.0491 117.804 40.9841C118.13 40.9181 118.457 40.4621 118.391 40.1351C118.326 39.7441 118 39.4831 117.673 39.5481Z" fill="#E32682"/>
<path d="M110.56 30.9339C110.168 31.1949 109.581 31.391 109.45 31.913C109.516 32.108 109.646 32.304 109.711 32.565C109.385 33.153 109.385 33.7399 109.646 34.0009C109.907 34.1969 110.168 34.1969 110.429 34.0009C110.886 33.6749 110.951 33.414 110.756 32.892C110.886 32.761 110.951 32.631 110.951 32.435C110.951 32.435 110.951 32.37 110.886 32.37C111.017 32.108 111.147 31.847 111.212 31.521C111.343 31.064 110.951 30.6729 110.56 30.9339Z" fill="#E32682"/>
<path d="M119.436 29.2361C119.501 29.1061 119.566 28.9751 119.566 28.9101C119.631 28.0621 119.044 27.6051 118.326 27.8661C117.869 28.0621 117.412 28.3231 117.021 28.5841C116.564 28.9101 116.499 29.7581 116.825 30.2151C117.021 30.4761 117.543 30.9331 118 30.4761C118.326 29.4321 118.913 29.8891 119.436 29.2361Z" fill="#E32682"/>
<path d="M84.3241 15.5311C84.5201 15.6621 84.9111 15.6621 85.0421 15.5311C85.1721 15.4001 85.1721 15.0092 85.1721 14.8132C84.7811 14.4222 84.5201 14.5522 84.3241 14.7482C84.1281 15.0092 84.0631 15.3351 84.3241 15.5311Z" fill="#E32682"/>
<path d="M85.1721 11.0929C85.3031 10.4409 84.4551 10.1139 84.1931 10.3099C83.9321 10.5059 83.8671 11.2889 84.1931 11.4849C84.6501 11.7459 85.0421 11.7459 85.1721 11.0929Z" fill="#E32682"/>
<path d="M86.934 20.2301C86.804 20.5571 86.869 20.8831 87.195 21.0791C87.391 21.2091 87.718 21.2091 87.848 21.1441C88.305 20.8831 88.24 20.4261 88.044 19.9041C87.587 19.9041 87.195 19.7741 86.934 20.2301Z" fill="#E32682"/>
<path d="M101.031 27.9311C101.358 27.4091 101.358 26.887 101.162 26.299C101.096 26.103 100.901 25.973 100.705 25.908C99.9872 25.712 99.3342 25.973 99.0732 26.691C99.0082 26.821 98.9432 26.952 98.8782 27.148C98.6162 27.017 98.3552 26.8871 98.0942 26.8211C97.5722 26.6251 97.3112 26.7561 97.1152 27.2131C96.9202 27.6701 96.9202 28.0611 97.2462 28.4531C97.5722 28.8441 97.9642 28.844 98.3552 28.714C98.6162 28.583 98.8782 28.3881 99.1392 28.2571C99.2692 28.3221 99.4002 28.3881 99.5302 28.4531C100.052 28.4531 100.705 28.3221 101.031 27.9311Z" fill="#E32682"/>
<path d="M90.1321 14.3561C89.9371 13.8341 89.5451 13.7041 89.0881 13.8991C88.3701 12.7901 87.6521 12.8551 86.9351 14.0951C86.8691 14.0951 86.7391 14.0951 86.6731 14.0951C86.2821 14.0301 86.0861 14.2261 85.9561 14.5521C85.8251 14.8781 85.8901 15.0741 86.0861 15.3351C86.5431 15.9231 86.8691 15.9881 87.4571 15.4661C87.9131 15.0741 88.3701 14.7481 88.7621 14.3561C89.4801 15.0741 89.6101 15.0741 90.1321 14.3561Z" fill="#E32682"/>
<path d="M99.0731 30.998C99.0731 31.324 99.6611 31.716 100.052 31.324C100.444 30.868 99.9221 30.345 99.5961 30.345C99.3341 30.345 99.0081 30.737 99.0731 30.998Z" fill="#E32682"/>
<path d="M121.524 23.689C121.589 23.559 121.524 23.233 121.393 23.167C121.198 23.037 120.871 22.971 120.676 23.037C120.284 23.233 120.48 23.624 120.545 23.95C121.002 24.146 121.328 24.146 121.524 23.689Z" fill="#E32682"/>
<path d="M145.606 50.9689C145.41 51.0349 144.888 51.3609 144.888 51.5569C144.954 51.7529 145.41 52.0139 145.672 52.0139C145.998 52.0789 146.194 51.7529 146.194 51.3609C146.194 51.0349 145.867 50.9039 145.606 50.9689Z" fill="#E32682"/>
<path d="M139.406 46.4001C139.406 46.6611 139.798 46.6611 139.928 46.6611C139.993 46.6611 140.189 46.4651 140.189 46.4001C140.124 46.2701 139.993 46.0741 139.863 46.0741C139.732 46.0081 139.406 46.1391 139.406 46.4001Z" fill="#E32682"/>
<path d="M144.823 42.615C144.301 42.681 144.04 43.138 144.17 43.855C144.235 44.247 144.757 44.639 145.149 44.573C145.606 44.508 146.324 43.66 146.259 43.333C146.128 42.877 145.475 42.485 144.823 42.615Z" fill="#E32682"/>
<path d="M140.711 42.9421C140.646 42.2241 139.993 41.8321 139.145 41.8971C138.427 41.9631 137.97 42.5501 138.036 43.2031C138.101 43.9211 138.884 44.5081 139.537 44.4431C140.189 44.3781 140.777 43.5941 140.711 42.9421Z" fill="#E32682"/>
<path d="M149.326 47.1841C149.718 47.1181 149.587 47.1841 149.913 47.5101C150.174 47.8361 150.827 48.0971 151.153 47.4451C151.545 46.7921 151.088 46.0091 150.566 45.6171C150.174 45.3561 149.522 45.4871 149 45.8131V45.7481C148.934 45.4221 148.739 45.1611 148.412 45.2911C148.151 45.3561 147.629 45.6831 147.629 46.0091C147.629 46.2701 148.151 46.3351 148.478 46.3351L148.412 46.4011C148.282 46.9231 148.934 47.3141 149.326 47.1841Z" fill="#E32682"/>
<path d="M156.962 46.596C156.701 46.466 156.179 46.27 155.983 46.596C155.852 46.792 155.983 47.053 156.048 47.249L156.962 46.596C157.027 46.662 157.027 46.596 156.962 46.596Z" fill="#E32682"/>
<path d="M128.507 48.0321C128.507 48.0971 128.703 48.1631 128.703 48.1631C128.768 48.1631 128.899 48.0971 128.834 47.9671C128.834 47.9021 128.703 47.7711 128.572 47.7711C128.572 47.8361 128.507 47.9671 128.507 48.0321Z" fill="#E32682"/>
<path d="M126.353 24.9291C126.549 24.7331 126.81 24.6681 127.006 24.4721C127.267 24.2111 127.332 23.3631 127.202 23.1671C127.006 22.8411 126.419 22.7751 125.897 23.0361C125.701 23.1021 125.57 23.2321 125.44 23.2971C125.309 23.2321 125.113 23.1021 124.983 23.0361C124.918 22.7101 124.722 22.3841 124.461 22.1231C124.134 21.8621 123.808 21.7961 123.482 21.9271C123.156 21.7961 122.829 21.7961 122.568 21.9271C122.111 22.1881 121.785 23.1671 122.307 23.7541C122.568 24.0811 122.894 24.2761 123.221 24.2761C123.221 24.3421 123.221 24.4071 123.221 24.4721C123.286 25.1901 123.808 25.4511 124.461 25.5161C124.461 25.9081 124.265 26.3651 124.787 26.5611C125.113 26.6911 125.44 26.5611 125.57 26.3001C125.897 25.7771 125.505 25.5161 125.179 25.2551C125.309 24.9941 125.374 24.7981 125.505 24.6031C125.831 24.6681 126.092 24.7981 126.353 24.9291Z" fill="#E32682"/>
<path d="M122.96 41.441C122.633 41.441 122.307 42.093 122.438 42.289C122.568 42.485 122.895 42.55 123.156 42.55C123.417 42.55 123.678 42.354 123.612 42.028C123.482 41.702 123.351 41.376 122.96 41.441Z" fill="#E32682"/>
<path d="M124.33 37.133C124.2 36.546 123.547 36.089 122.895 36.154C122.503 36.22 122.242 36.677 122.307 37.199C122.438 37.851 122.829 38.178 123.417 38.112C123.939 37.917 124.396 37.46 124.33 37.133Z" fill="#E32682"/>
<path d="M131.705 38.2431C131.77 38.0471 131.575 37.7201 131.444 37.6551C131.183 37.5251 130.791 37.5251 130.596 37.6551C130.139 37.9161 130.4 38.3731 130.596 38.7651C131.118 38.7651 131.575 38.7651 131.705 38.2431Z" fill="#E32682"/>
<path d="M130.922 46.1391C130.987 46.2701 131.052 46.5961 131.248 46.5311C131.444 46.4661 131.574 46.2701 131.574 46.1391C131.574 46.0091 131.379 45.6171 131.248 45.6831C131.052 45.7481 130.922 46.0741 130.922 46.1391Z" fill="#E32682"/>
<path d="M130.008 46.2701C129.943 45.8781 129.356 45.4871 129.029 45.4871C128.703 45.5521 128.442 45.9441 128.507 46.3351C128.572 46.7271 128.899 46.9221 129.356 46.8571C129.812 46.8571 130.073 46.5961 130.008 46.2701Z" fill="#E32682"/>
<path d="M107.297 27.148C107.558 27.54 107.884 27.67 108.341 27.409C108.863 27.148 108.993 26.43 108.667 25.908C108.341 25.386 108.014 25.451 107.884 25.125C107.688 24.799 107.492 24.733 107.035 24.799C106.579 24.864 105.991 24.994 106.122 25.582C106.252 26.169 106.644 26.104 106.84 26.104C107.035 26.039 107.362 26.234 107.166 26.365C107.035 26.495 107.035 26.756 107.297 27.148Z" fill="#E32682"/>
<path d="M145.671 41.832C145.867 41.701 146.194 41.375 146.063 41.179C145.998 40.984 145.671 40.853 145.476 40.853C145.28 40.853 144.888 41.245 144.954 41.44C145.019 41.636 145.541 41.832 145.671 41.832Z" fill="#E32682"/>
<path d="M140.777 29.3671C140.972 29.4321 141.168 29.6281 141.364 29.5631C141.56 29.4981 141.756 29.4321 141.951 29.3021L139.863 27.9971C139.406 28.1921 139.015 28.5191 138.949 28.7801C138.949 28.8451 138.949 28.9101 138.949 28.9761C139.341 29.4981 138.949 29.8241 138.754 30.2811C138.492 30.8031 138.754 31.1951 139.276 31.3251C139.341 31.3251 139.406 31.3251 139.406 31.3901C139.341 31.5211 139.341 31.5861 139.341 31.7171C139.341 31.9781 139.537 32.2391 139.667 32.4351H139.602C139.928 32.3691 140.255 32.3691 140.646 32.3041C140.711 32.0431 140.711 31.8471 140.711 31.6511C140.711 31.3901 140.516 31.1291 140.32 30.9991C140.45 30.8031 140.516 30.5421 140.516 30.2811C140.45 30.0201 140.32 29.6931 140.777 29.3671Z" fill="#E32682"/>
<path d="M142.93 29.9541C142.8 30.0851 142.8 30.2811 142.8 30.4761C142.865 30.6721 143.126 30.9991 143.452 31.2601C143.518 31.3251 143.583 31.4551 143.648 31.5211C144.105 31.8471 144.758 31.7821 145.149 31.3251L142.93 29.9541Z" fill="#E32682"/>
<path d="M155.983 38.5691C155.787 38.8961 155.787 39.2221 156.048 39.4831C156.374 39.7441 156.766 39.7441 157.027 39.4181C157.223 39.1571 157.223 38.8961 157.158 38.6351L156.505 38.2431C156.309 38.2431 156.113 38.3741 155.983 38.5691Z" fill="#E32682"/>
<path d="M137.513 33.282C137.579 32.956 137.709 32.499 137.318 32.369C136.795 32.173 136.6 31.781 136.404 31.259C136.273 30.868 135.947 30.737 135.555 30.933C135.164 31.129 134.903 31.651 135.164 31.912C135.621 32.303 135.621 32.76 135.49 33.152C135.555 33.674 135.947 34.131 136.273 34.131C136.73 34.261 137.448 33.674 137.513 33.282Z" fill="#E32682"/>
<path d="M81.1911 14.4209C81.3221 14.4209 81.5831 14.3559 81.6481 14.2259C81.7141 14.0949 81.7141 13.7689 81.4521 13.7029C81.1911 13.6379 81.0611 13.8989 80.9961 14.0299C80.9301 14.1599 81.1261 14.4209 81.1911 14.4209Z" fill="#E32682"/>
<path d="M119.174 27.279C119.24 27.279 119.435 27.344 119.501 27.279C119.762 27.018 120.088 27.018 120.414 26.952C120.545 26.952 120.741 26.561 120.741 26.365C120.741 26.169 120.545 25.908 120.414 25.778H120.349C120.284 25.451 119.762 25.06 119.501 25.19C119.24 25.321 119.109 25.778 119.24 25.973C119.305 26.039 119.37 26.104 119.501 26.169C119.37 26.3 119.174 26.495 119.044 26.626C118.848 26.887 118.913 27.083 119.174 27.279Z" fill="#E32682"/>
<path d="M120.284 23.4279C120.545 23.2319 120.676 22.5139 120.48 22.2529C120.349 21.9919 119.697 21.9919 119.37 22.1879C119.109 22.3839 119.109 22.7099 119.305 22.9709C119.697 23.3629 120.088 23.5579 120.284 23.4279Z" fill="#E32682"/>
<path d="M128.703 26.4301C129.16 27.0171 130.726 27.2131 131.313 26.8221C131.901 26.4301 131.64 25.6471 131.77 25.5161C131.901 25.3861 132.945 25.7771 133.663 25.2551C133.859 25.1251 133.989 24.8641 134.12 24.5371L130.53 22.3841V22.4491C130.53 22.6451 130.726 22.8411 130.922 22.9061C130.791 23.4281 130.857 24.0151 130.726 24.1461C130.595 24.2761 130.008 24.0151 129.486 24.0811C129.943 23.5581 129.878 22.9711 129.421 22.5801C128.964 22.1881 128.377 22.1881 128.115 22.5141C127.724 23.0361 127.789 23.8851 128.246 24.3421C128.377 24.4721 128.572 24.4721 128.833 24.4721C128.181 25.0601 128.311 25.8431 128.703 26.4301Z" fill="#E32682"/>
<path d="M135.099 34.4572C134.707 34.5232 134.316 35.2411 134.381 35.6971C134.446 36.0891 134.772 36.2852 135.229 36.2202C136.012 36.0892 136.273 35.7631 136.208 35.2411C136.208 34.8491 135.49 34.3922 135.099 34.4572Z" fill="#E32682"/>
<path d="M128.833 21.405L125.44 19.317L125.374 19.382C124.917 19.839 124.983 20.883 125.44 21.34C125.831 21.731 126.419 21.731 126.941 21.47C127.397 21.731 127.985 21.797 128.637 21.535C128.703 21.47 128.768 21.405 128.833 21.405Z" fill="#E32682"/>
<path d="M126.875 27.3441C126.484 27.4091 126.027 27.9961 126.027 28.4531C126.092 28.7791 126.353 29.0411 126.745 28.9751C127.267 28.9101 127.659 28.5181 127.659 28.0621C127.659 27.6701 127.267 27.3441 126.875 27.3441Z" fill="#E32682"/>
<path d="M78.45 11.811C78.516 11.746 78.711 11.484 78.581 11.289C78.385 11.093 78.124 11.354 77.993 11.419C77.928 11.484 77.928 11.746 77.993 11.811C78.124 11.811 78.385 11.876 78.45 11.811Z" fill="#E32682"/>
<path d="M79.821 5.415C80.017 5.024 79.625 4.37101 79.103 4.11001C78.646 3.91401 78.124 4.04501 77.928 4.50201C77.667 5.02401 77.928 5.807 78.385 6.003C78.907 6.199 79.625 5.938 79.821 5.415Z" fill="#E32682"/>
<path d="M82.562 3.78405C83.28 3.19705 83.214 2.47906 82.758 1.95706C82.105 1.10806 81.387 1.95706 81.191 1.30406C80.995 0.651057 81.6479 0.782052 81.3219 -0.131948C80.9949 -1.04595 80.016 -1.30695 79.625 -0.718954C79.494 -0.522954 79.429 -0.327948 79.429 -0.131948C79.168 -0.457948 78.842 -0.522954 78.45 -0.522954C77.928 -0.457954 77.732 -0.131947 77.732 0.325053C77.732 0.651053 77.471 1.36905 77.928 1.69505C78.385 1.95705 78.5809 1.56506 78.7759 1.50006C78.8419 1.50006 78.842 1.50005 78.907 1.43405C79.364 2.34805 80.1469 1.76106 80.3429 2.02206C80.5389 2.28306 80.6039 3.00105 80.8649 3.45805C81.2559 3.98005 81.974 4.24105 82.562 3.78405Z" fill="#E32682"/>
<path d="M81.1261 10.701C80.9301 10.571 80.6691 10.701 80.6041 10.832C80.5391 10.963 80.4081 11.158 80.6041 11.354C80.8001 11.55 81.0611 11.55 81.2571 11.354C81.3871 11.093 81.3221 10.832 81.1261 10.701Z" fill="#E32682"/>
<path d="M64.484 5.35002C64.288 5.28502 64.092 5.54603 64.027 5.67603C63.962 5.74203 64.027 6.00303 64.158 6.06803C64.288 6.13303 64.484 5.93703 64.614 5.87203C64.614 5.80703 64.614 5.48102 64.484 5.35002Z" fill="#E32682"/>
<path d="M77.9279 7.30803C77.8629 7.24303 77.7969 7.37303 77.6669 7.37303C77.7319 7.50403 77.7319 7.56903 77.7319 7.63403C77.7319 7.63403 77.9279 7.63403 77.9279 7.56903C77.9929 7.50403 78.0589 7.37303 77.9279 7.30803Z" fill="#E32682"/>
<path d="M63.7659 7.43807C63.7009 7.56907 63.7009 7.96007 63.8309 8.02607C63.9619 8.09107 64.2879 7.83006 64.3539 7.76506C64.4189 7.63406 64.3539 7.37306 64.2229 7.30806C64.0919 7.24306 63.8309 7.37307 63.7659 7.43807Z" fill="#E32682"/>
<path d="M97.181 16.6409C97.833 15.9229 97.768 15.3349 97.116 14.6829C96.593 14.2259 95.68 14.2909 95.158 14.8129C94.766 15.2699 94.962 16.2489 95.484 16.7709C95.941 17.2279 96.659 17.1629 97.181 16.6409Z" fill="#E32682"/>
<path d="M130.53 35.436C131.118 35.305 131.444 34.979 131.379 34.653C131.313 34.196 130.922 33.87 130.465 34C130.073 34.065 129.878 34.457 130.008 34.849C130.139 35.11 130.204 35.436 130.53 35.436Z" fill="#E32682"/>
<path d="M130.139 49.729C130.204 49.729 130.4 49.534 130.4 49.468C130.334 49.338 130.204 49.142 130.073 49.142C129.943 49.142 129.617 49.338 129.617 49.468C129.617 49.599 129.943 49.729 130.139 49.729Z" fill="#E32682"/>
<path d="M129.355 42.2229C129.747 42.1579 130.073 41.4399 130.008 40.9179C129.943 40.5269 129.486 40.1999 129.094 40.3309C128.572 40.4609 128.181 40.9179 128.246 41.3099C128.376 41.7009 128.964 42.2889 129.355 42.2229Z" fill="#E32682"/>
<path d="M129.225 31.5859C129.16 31.1289 128.311 30.4759 127.854 30.5409C127.332 30.6069 126.941 31.1939 127.006 31.7159C127.071 32.2379 127.659 32.7599 128.181 32.6949C128.768 32.6299 129.29 32.1079 129.225 31.5859Z" fill="#E32682"/>
<path d="M124.265 47.1179C124.069 47.1839 123.939 47.4449 123.939 47.5749C123.939 47.7059 124.134 47.8359 124.265 47.8359C124.396 47.8359 124.591 47.6409 124.591 47.5099C124.657 47.4449 124.526 47.0529 124.265 47.1179Z" fill="#E32682"/>
<path d="M126.876 36.6759C127.267 36.6109 127.659 36.2189 127.594 35.8269C127.528 35.0439 127.072 34.5219 126.615 34.5869C126.158 34.6529 125.701 35.3709 125.766 35.8269C125.766 36.2839 126.419 36.7409 126.876 36.6759Z" fill="#E32682"/>
<path d="M132.553 29.628C132.684 29.693 132.88 29.693 132.945 29.628C133.075 29.497 132.945 29.106 132.814 29.041C132.749 28.975 132.684 28.975 132.619 28.975C132.553 28.323 132.031 27.931 131.183 28.062C131.052 28.062 130.987 28.127 130.857 28.127C130.791 28.127 130.661 28.127 130.595 28.192V28.257C130.204 28.453 130.008 28.845 130.073 29.367C130.139 30.15 130.791 30.542 131.64 30.476C132.031 30.411 132.423 30.02 132.553 29.628Z" fill="#E32682"/>
<path d="M132.684 32.8261C133.337 32.6961 133.663 32.5001 133.663 32.1081C133.598 31.7171 133.01 31.2601 132.553 31.2601C132.162 31.2601 131.836 31.9131 131.901 32.3691C131.966 32.6961 132.227 32.8921 132.684 32.8261Z" fill="#E32682"/>
<path d="M134.642 51.6871C135.033 51.6221 135.294 51.2951 135.294 50.9041C135.229 50.5771 134.903 50.2511 134.577 50.3161C134.185 50.3161 133.924 50.6431 133.989 51.1001C134.054 51.5561 134.25 51.7521 134.642 51.6871Z" fill="#E32682"/>
<path d="M135.817 43.5941C136.078 43.4641 136.143 43.2031 136.143 42.9421C136.208 42.6151 135.817 42.2891 135.49 42.3541C135.164 42.4191 134.968 42.6151 134.903 43.0071C134.903 43.2681 135.556 43.7251 135.817 43.5941Z" fill="#E32682"/>
<path d="M136.012 47.119C136.339 47.053 136.6 46.923 136.6 46.531C136.6 46.205 136.208 45.879 135.882 45.944C135.621 45.944 135.425 46.401 135.49 46.792C135.556 47.053 135.751 47.184 136.012 47.119Z" fill="#E32682"/>
<path d="M133.076 42.6799C133.271 42.6799 133.728 42.2229 133.663 41.8319C133.598 41.5049 133.337 41.5049 133.076 41.5049C132.749 41.5709 132.488 41.8319 132.619 42.1579C132.749 42.4189 132.814 42.6799 133.076 42.6799Z" fill="#E32682"/>
<path d="M132.945 36.937C133.532 36.35 133.598 36.024 133.337 35.632C133.141 35.371 132.88 35.241 132.488 35.371C132.096 35.502 131.835 35.828 131.901 36.22C132.097 36.742 132.553 36.872 132.945 36.937Z" fill="#E32682"/>
<path d="M134.381 28.9099C135.164 28.8439 135.751 28.0609 135.686 27.2779C135.621 26.4949 135.033 26.1029 134.12 26.1689C133.075 26.2339 132.488 26.8209 132.553 27.6699C132.684 28.5179 133.402 29.0399 134.381 28.9099Z" fill="#E32682"/>
<path d="M113.627 35.3061C113.758 35.5021 114.019 35.6321 114.345 35.5671C114.671 35.5021 114.998 35.1101 114.932 34.7191C114.867 34.2621 114.541 33.9351 114.084 34.0011C114.019 34.0011 113.953 34.0661 113.888 34.0661C113.888 34.0661 113.888 34.0011 113.823 34.0011C113.496 33.8051 112.517 34.3921 112.452 34.7841C112.452 35.2411 113.235 35.5021 113.627 35.3061Z" fill="#E32682"/>
<path d="M115.781 23.4931C116.042 23.6891 116.564 23.6241 116.76 23.3621C117.217 22.7751 117.282 22.2531 116.956 21.9271C116.629 21.6661 115.781 21.7961 115.52 22.1881C115.52 22.1881 115.455 22.2531 115.455 22.3181C115.389 22.3181 115.324 22.2531 115.259 22.2531C114.867 22.2531 114.606 22.6451 114.671 23.0361C114.737 23.4931 114.998 23.7541 115.389 23.6891C115.52 23.6891 115.65 23.6241 115.781 23.4931Z" fill="#E32682"/>
<path d="M117.282 26.169C117.674 25.712 117.543 25.256 117.021 24.799C116.695 24.538 116.107 24.603 115.846 24.864C115.52 25.19 115.52 26.3 115.846 26.496C116.173 26.822 116.89 26.626 117.282 26.169Z" fill="#E32682"/>
<path d="M119.631 45.487C119.827 45.487 120.219 45.095 120.219 44.769C120.153 44.443 119.631 44.247 119.305 44.247C119.109 44.247 118.391 44.704 118.457 45.03C118.522 45.422 119.37 45.552 119.631 45.487Z" fill="#E32682"/>
<path d="M114.019 29.4319C114.019 29.3659 113.888 29.2359 113.758 29.2359C113.627 29.2359 113.627 29.4319 113.627 29.4969C113.627 29.5619 113.823 29.627 113.823 29.627C113.954 29.627 114.084 29.5619 114.019 29.4319Z" fill="#E32682"/>
<path d="M113.105 32.4991C112.909 32.6301 113.17 32.9561 113.235 32.9561C113.366 33.0211 113.562 33.0871 113.692 32.8911C113.823 32.6951 113.758 32.5651 113.627 32.4991C113.562 32.4991 113.301 32.3691 113.105 32.4991Z" fill="#E32682"/>
<path d="M123.743 33.021C123.743 33.217 124.2 33.413 124.461 33.609C124.526 33.674 124.722 33.805 124.852 33.544C124.983 33.413 124.983 33.021 124.852 32.76C125.048 32.63 125.244 32.304 125.179 32.042C125.113 31.651 124.722 31.455 124.33 31.52C123.939 31.586 123.743 31.912 123.808 32.238C123.808 32.369 123.873 32.434 123.939 32.565C123.808 32.695 123.678 32.826 123.743 33.021Z" fill="#E32682"/>
<path d="M122.634 34.522C123.221 34.457 123.482 34 123.417 33.348C123.351 32.826 122.895 32.63 122.242 32.695C121.72 32.76 121.459 33.087 121.459 33.478C121.524 33.87 122.242 34.522 122.634 34.522Z" fill="#E32682"/>
<path d="M122.438 29.1061C123.09 28.9761 123.482 28.5191 123.351 27.9311C123.612 27.5401 123.678 27.0181 123.417 26.7571C123.09 26.4961 122.372 26.43 122.111 26.691C121.981 26.822 121.916 27.018 121.981 27.214C121.524 27.409 121.132 27.801 121.198 28.193C121.198 28.649 121.981 29.1711 122.438 29.1061Z" fill="#E32682"/>
<path d="M125.44 39.613C125.375 39.221 124.983 38.96 124.657 38.96C124.265 39.026 123.939 39.482 124.004 39.874C124.069 40.2 124.396 40.461 124.722 40.396C125.244 40.396 125.505 40.005 125.44 39.613Z" fill="#E32682"/>
<path d="M121.002 28.9101C120.676 28.6491 120.219 28.6491 119.958 28.9101C119.762 29.1711 119.697 29.8891 119.892 30.0201C120.219 30.2811 120.871 30.2151 121.067 29.8891C121.328 29.6281 121.263 29.1711 121.002 28.9101Z" fill="#E32682"/>
<path d="M120.676 37.0029C120.676 36.6109 120.349 36.3499 119.958 36.3499C119.566 36.3499 119.305 36.6109 119.37 37.0029C119.436 37.4599 119.697 37.7209 120.088 37.7209C120.349 37.6549 120.676 37.3289 120.676 37.0029Z" fill="#E32682"/>
<path d="M121.067 32.3041C121.002 32.1731 120.741 31.9781 120.545 31.9781C120.545 31.8471 120.48 31.7171 120.415 31.6511C120.154 31.3901 119.827 31.3251 119.631 31.5861C119.37 31.8471 119.37 32.3041 119.631 32.5001C119.762 32.6301 119.892 32.6301 120.023 32.6301C120.154 32.8261 120.48 32.9571 120.676 32.9571C120.871 33.0221 121.198 32.5651 121.067 32.3041Z" fill="#E32682"/>
<path d="M146.846 45.422C146.977 45.291 146.781 45.03 146.65 44.9C146.585 44.834 146.324 44.834 146.259 44.965C146.193 45.095 146.259 45.291 146.389 45.422C146.389 45.487 146.716 45.552 146.846 45.422Z" fill="#E32682"/>
<path d="M158.593 41.571C159.116 41.897 159.899 41.767 160.225 41.31C160.356 41.114 160.486 40.853 160.486 40.657L158.593 39.483C158.528 39.548 158.398 39.613 158.332 39.744C158.202 39.939 158.071 40.135 158.071 40.266C157.941 40.135 157.81 40.07 157.615 40.07C157.158 40.005 156.701 40.592 156.766 41.114C156.766 41.506 157.158 42.028 157.549 42.093C158.202 42.224 158.528 41.767 158.593 41.571Z" fill="#E32682"/>
<path d="M162.64 41.9629L161.53 41.2449C161.465 41.5059 161.465 41.7669 161.726 41.9629C161.922 42.2239 162.379 42.2239 162.64 41.9629Z" fill="#E32682"/>
<path d="M156.766 44.0509C157.419 43.9199 157.745 43.4639 157.614 42.8759C157.484 42.2889 156.962 41.8969 156.244 42.0279C155.722 42.0929 155.33 42.7459 155.461 43.3329C155.591 43.9199 156.048 44.1819 156.766 44.0509Z" fill="#E32682"/>
<path d="M152.263 37.5901C152.393 37.2641 152.328 36.9381 152.067 36.6771C151.937 36.6111 151.741 36.481 151.61 36.546C151.284 36.677 151.023 36.9381 150.697 37.1331C149.848 36.8721 149.196 37.0031 149 37.5251C148.804 37.9821 149.261 38.8301 149.848 39.0261C150.436 39.2221 150.697 39.0261 151.088 37.8511C151.61 37.9821 152.067 38.1781 152.263 37.5901Z" fill="#E32682"/>
<path d="M152.85 42.2891C153.307 42.2891 153.764 41.7671 153.699 41.2451C153.699 40.7881 153.372 40.4621 153.046 40.5271C152.589 40.5271 152.002 41.1141 152.067 41.5711C152.002 41.8971 152.394 42.2891 152.85 42.2891Z" fill="#E32682"/>
<path d="M154.025 45.357C154.221 45.226 154.417 45.03 154.678 44.965C155.135 44.835 155.461 44.639 155.591 44.117C155.657 43.79 155.069 43.072 154.612 43.007C154.221 42.942 153.829 42.811 153.568 43.334C153.372 43.725 153.177 44.051 152.981 44.443C152.589 44.769 152.655 45.096 152.916 45.422C153.242 45.618 153.699 45.618 154.025 45.357Z" fill="#E32682"/>
<path d="M158.92 45.2911C158.854 45.3571 158.854 45.4221 158.854 45.4871L159.768 44.9001C159.507 44.9001 159.115 45.0301 158.92 45.2911Z" fill="#E32682"/>
<path d="M162.901 42.877C162.77 42.877 162.444 42.942 162.444 43.203C162.444 43.268 162.444 43.333 162.509 43.333L163.096 43.007C163.031 42.877 162.966 42.811 162.901 42.877Z" fill="#E32682"/>
<path d="M106.84 14.4221C107.231 14.1611 107.166 13.7041 106.774 13.3121C106.709 13.2471 106.644 13.2471 106.579 13.2471C106.383 12.9861 106.383 12.7901 106.709 12.6601C106.84 12.5941 106.97 12.5941 107.101 12.5941C107.558 12.3991 107.819 11.8771 107.819 11.3541C107.819 10.7671 107.558 10.5061 106.905 10.3101C106.252 10.1141 105.665 10.3101 105.208 10.7671C104.947 10.5711 104.817 10.3101 104.556 10.1801C103.838 9.72306 103.25 10.1141 103.25 10.9631C103.25 11.6811 103.772 12.1381 104.49 12.0071C104.686 11.9421 104.882 11.8771 105.339 11.7461C105.339 12.0721 105.469 12.3331 105.339 12.5291C105.012 13.1171 105.208 13.5081 105.665 13.8341C105.796 13.9001 105.861 14.0951 105.926 14.2261C106.252 14.4871 106.579 14.6181 106.84 14.4221Z" fill="#E32682"/>
<path d="M138.427 36.938C138.492 36.415 138.166 36.089 137.383 36.22C137.056 36.415 136.534 36.676 136.077 37.003C135.816 37.199 135.686 37.59 135.947 37.916C136.143 38.178 136.469 38.308 136.861 38.112C137.056 37.982 137.252 37.916 137.448 37.916C138.101 37.786 138.362 37.525 138.427 36.938Z" fill="#E32682"/>
<path d="M141.821 39.613C141.951 39.482 142.017 39.287 142.017 39.091C142.539 39.091 143.191 38.96 143.452 38.634C143.648 38.373 143.713 37.981 143.648 37.655C144.17 37.59 144.627 37.264 144.497 36.807C144.366 36.219 143.974 35.893 143.518 35.501C143.191 35.175 142.669 35.501 142.734 34.979C142.8 34.457 142.604 33.348 141.625 33.413C141.168 33.478 140.711 34 140.646 34.522C140.385 34.261 139.928 34.066 139.471 34.196C138.884 34.327 138.362 35.11 138.492 35.697C138.623 36.285 139.21 36.741 139.732 36.611C140.189 36.546 140.777 35.893 140.842 35.306C140.972 35.501 141.103 35.632 141.299 35.632C141.69 35.697 141.364 36.415 141.755 36.676C141.494 36.741 141.299 36.872 141.168 37.068C141.038 37.264 140.972 37.459 140.907 37.655C140.515 37.59 140.124 37.72 139.863 37.916C139.471 38.242 139.667 39.026 140.124 39.613C140.45 39.939 141.494 40.005 141.821 39.613Z" fill="#E32682"/>
<path d="M144.823 39.7441C144.888 39.2871 145.084 38.8301 144.627 38.5691C144.301 38.3731 143.974 38.4381 143.713 38.7651C143.518 39.0261 143.452 39.2221 143.648 39.5481C143.909 40.0051 144.366 39.9391 144.823 39.7441Z" fill="#E32682"/>
<path d="M137.905 54.167C138.036 54.167 138.558 53.906 138.492 53.71C138.427 53.514 138.036 53.319 137.905 53.319C137.709 53.384 137.383 53.58 137.383 53.71C137.448 53.906 137.709 54.167 137.905 54.167Z" fill="#E32682"/>
<path d="M151.088 49.272C151.284 49.272 151.349 49.011 151.349 48.881C151.349 48.75 151.153 48.424 151.023 48.424C150.827 48.424 150.697 48.816 150.762 48.946C150.762 49.077 150.958 49.272 151.088 49.272Z" fill="#E32682"/>
<path d="M136.991 41.18C137.057 40.918 136.991 40.527 136.796 40.331C136.6 40.07 136.339 40.266 136.274 40.331C136.143 40.527 136.208 40.723 136.208 40.918C136.274 41.114 136.208 41.31 136.404 41.506C136.665 41.702 136.926 41.506 136.991 41.18Z" fill="#E32682"/>
<path d="M112.909 27.6051C113.105 27.4091 113.105 27.2781 113.105 27.1481C113.301 27.2131 113.497 27.2781 113.692 27.2131C114.084 27.1481 114.476 26.5601 114.345 26.0381C114.215 25.4511 113.823 25.1251 113.17 25.2551C112.779 25.3201 112.518 25.5161 112.387 25.7771C112.257 25.7121 112.126 25.7121 111.996 25.6471C111.539 25.6471 111.147 25.8431 110.951 26.1691C110.756 26.4951 110.821 26.8871 110.951 27.1481C111.082 27.4091 111.408 27.7351 111.8 27.7351C112.191 27.6701 112.648 27.8661 112.909 27.6051Z" fill="#E32682"/>
<path d="M138.101 40.0701C138.231 40.5271 138.427 40.7881 138.884 40.6571C139.015 40.5921 139.276 40.3961 139.276 40.2001C139.276 40.0051 139.145 39.6781 139.015 39.6131C138.492 39.3521 138.297 39.7441 138.101 40.0701Z" fill="#E32682"/>
<path d="M147.107 37.59C147.042 37.264 146.324 36.807 145.932 36.807C145.541 36.807 145.345 37.199 145.41 37.721C145.475 38.308 145.737 38.635 146.193 38.569C146.846 38.439 147.172 38.047 147.107 37.59Z" fill="#E32682"/>
<path d="M150.696 40.2661C150.435 40.0701 150.24 40.2661 150.109 40.4621C149.913 40.7231 149.913 41.1141 150.24 41.2451C150.435 41.3101 150.762 41.3101 150.892 41.3101C151.153 40.8531 150.957 40.4621 150.696 40.2661Z" fill="#E32682"/>
<path d="M150.762 43.7899C150.762 43.8549 150.958 43.9199 150.958 43.9199C151.023 43.9199 151.153 43.8549 151.088 43.7249C151.088 43.6589 150.958 43.5289 150.827 43.5289C150.697 43.5289 150.762 43.7249 150.762 43.7899Z" fill="#E32682"/>
<path d="M148.347 43.7251C148.804 43.6591 149.13 43.3331 149.065 42.9411C149 42.5501 148.608 42.2891 148.282 42.2891C147.89 42.3541 147.564 42.8111 147.629 43.2021C147.694 43.5291 148.021 43.7251 148.347 43.7251Z" fill="#E32682"/>
<path d="M148.151 39.8739C148.282 39.7439 148.151 39.4829 148.086 39.4179C148.021 39.3519 147.629 39.2219 147.499 39.3519C147.368 39.4829 147.564 39.8089 147.629 39.9399C147.76 39.9399 148.021 40.0049 148.151 39.8739Z" fill="#E32682"/>
<path d="M148.151 33.935C148.217 33.935 148.217 33.87 148.217 33.87C148.412 34 148.674 34 148.935 33.87C148.869 33.935 148.869 34.066 148.869 34.131C148.935 34.849 149.326 35.371 149.783 35.371C149.914 35.371 149.979 35.306 150.109 35.306C150.175 35.501 150.305 35.762 150.566 35.893C150.958 36.219 151.415 36.219 151.61 35.893C151.676 35.762 151.741 35.567 151.806 35.371L146.781 32.303C146.52 32.434 146.324 32.565 146.063 32.695C145.541 32.891 145.084 33.543 145.28 33.87C145.476 34.196 146.128 34.261 146.259 34.131C146.65 33.805 146.911 34.066 147.238 34.131C147.434 34.131 147.825 34.066 148.151 33.935Z" fill="#E32682"/>
<path d="M57.501 1.69493C57.762 1.82593 58.349 1.49994 58.414 1.10794C58.48 0.715938 58.023 0.259939 57.631 0.454939C57.435 0.520939 57.37 1.04294 57.305 1.30394C57.24 1.36894 57.24 1.56493 57.501 1.69493Z" fill="#E32682"/>
<path d="M117.543 21.731C118 21.666 118.261 21.274 118.196 20.883C118.13 20.557 117.608 20.23 117.217 20.361C116.89 20.426 116.629 20.883 116.695 21.209C116.76 21.601 117.086 21.797 117.543 21.731Z" fill="#E32682"/>
<path d="M118.391 19.7081C118.652 19.1861 118.718 18.7951 118.457 18.5991C118.196 18.4031 117.478 18.5991 117.282 18.8601C117.151 19.1211 117.347 19.7081 117.608 19.9041C117.869 20.1001 118.196 20.0351 118.391 19.7081Z" fill="#E32682"/>
<path d="M138.362 27.4751C138.492 27.4751 138.558 27.4751 138.688 27.4091L137.84 26.8871C137.84 26.9521 137.775 27.0181 137.84 27.1481C137.84 27.2791 138.166 27.4091 138.362 27.4751Z" fill="#E32682"/>
<path d="M107.753 21.3389C108.014 21.1439 108.014 20.6219 107.688 20.2949C107.492 20.3609 107.166 20.3609 106.97 20.4909C106.709 20.6869 106.774 21.0129 106.97 21.2089C107.231 21.4049 107.492 21.6009 107.753 21.3389Z" fill="#E32682"/>
<path d="M109.32 18.6641C109.972 18.1411 109.842 17.4891 109.581 17.0321C109.385 16.5751 108.537 15.9881 107.819 16.5751C107.101 17.1621 106.97 17.9461 107.297 18.4021C107.688 18.8591 108.798 19.0551 109.32 18.6641Z" fill="#E32682"/>
<path d="M152.589 39.0261C152.785 39.0911 153.111 39.0911 153.242 39.0911C153.503 38.6991 153.373 38.2421 153.046 38.1121C152.785 37.9161 152.589 38.1121 152.459 38.3081C152.198 38.5691 152.263 38.8951 152.589 39.0261Z" fill="#E32682"/>
<path d="M154.612 38.9599C155.2 38.8949 155.722 38.3729 155.787 37.7859L153.894 36.6109C153.503 36.9369 153.177 37.459 153.242 37.851C153.242 38.503 153.96 39.0259 154.612 38.9599Z" fill="#E32682"/>
<path d="M91.503 26.1041C91.829 25.8431 91.764 25.1901 91.307 24.6681C91.046 24.4071 90.524 24.4071 90.263 24.6681C89.937 24.9951 89.871 25.6471 90.132 25.9081C90.524 26.3001 91.177 26.3651 91.503 26.1041Z" fill="#E32682"/>
<path d="M82.6921 9.91814C82.9531 10.0491 83.1491 9.85314 83.2141 9.72314C83.2801 9.59214 83.4101 9.20013 83.1491 9.00513C82.8881 8.80913 82.6271 9.20014 82.5621 9.33114C82.4311 9.52714 82.4311 9.78814 82.6921 9.91814Z" fill="#E32682"/>
<path d="M83.671 12.66C83.802 12.529 83.671 12.203 83.606 12.138C83.475 12.072 83.214 11.877 83.149 12.007C83.084 12.138 83.084 12.399 83.149 12.529C83.149 12.594 83.541 12.79 83.671 12.66Z" fill="#E32682"/>
<path d="M76.8192 9.20093C77.2102 9.06993 77.2761 8.93992 77.3411 8.61292C77.4061 8.28692 77.4061 8.09092 77.3411 8.02592C77.0141 8.02592 76.4271 7.76493 76.2311 8.09093C76.0361 8.41693 76.4922 8.87392 76.5582 9.13492C76.6232 9.13492 76.7532 9.13493 76.8192 9.20093Z" fill="#E32682"/>
<path d="M94.57 2.73999C94.831 2.47899 94.766 2.15299 94.57 1.89099C94.309 1.56499 93.983 1.49999 93.657 1.62999V1.565C93.591 1.043 92.873 0.781999 92.482 0.977999C92.09 1.174 91.96 1.826 92.482 2.153C92.612 2.283 92.939 2.283 93.135 2.218C93.135 2.414 93.135 2.60899 93.2 2.73999C93.461 3.06599 94.179 3.19699 94.57 2.73999Z" fill="#E32682"/>
<path d="M95.1579 23.3629C95.4839 23.0369 95.6139 22.3189 95.3529 22.0579C95.0269 21.6659 94.1789 21.6659 93.7869 22.0579C93.4609 22.3839 93.4609 23.1019 93.8519 23.4929C94.2439 23.8849 94.7009 23.8199 95.1579 23.3629Z" fill="#E32682"/>
<path d="M75.7749 4.63202C76.1659 4.76202 76.3619 4.50101 76.4269 4.24001C76.4919 4.04401 76.5579 3.39202 76.2309 3.32602C75.9049 3.26102 75.5129 3.65302 75.3829 3.84902C75.2519 4.24002 75.4479 4.50102 75.7749 4.63202Z" fill="#E32682"/>
<path d="M101.618 22.7761C102.075 22.9711 102.402 22.6451 102.663 22.1881C102.532 21.7971 102.336 21.4051 101.88 21.4701C101.488 21.4701 101.227 21.7971 101.292 22.1881C101.227 22.3841 101.423 22.7101 101.618 22.7761Z" fill="#E32682"/>
<path d="M109.711 24.7991C109.972 24.6031 110.299 24.4071 110.299 24.0811C110.299 23.7541 109.842 23.6892 109.711 23.7542C109.45 23.8852 108.863 24.2112 108.863 24.4722C108.863 24.7992 109.581 24.8641 109.711 24.7991Z" fill="#E32682"/>
<path d="M92.873 6.46002C92.677 6.32902 92.547 6.19902 92.351 6.19902C92.416 5.80702 92.221 5.08903 92.025 4.95903C91.764 4.82803 91.242 5.35003 91.307 5.87203C91.307 6.19903 91.503 6.32903 91.764 6.39403C91.503 6.72103 91.503 7.76503 91.699 7.96103C92.09 8.35203 92.743 8.28703 93.2 7.76503C93.461 7.37303 93.395 6.91602 92.873 6.46002Z" fill="#E32682"/>
<path d="M93.0689 19.0561C93.4609 18.5991 93.3949 18.0771 92.9389 17.6201C92.3509 17.0981 91.5679 17.2281 91.1109 17.8161C90.7199 18.2721 90.8499 19.0561 91.3069 19.4471C91.6989 19.8391 92.5469 19.6431 93.0689 19.0561Z" fill="#E32682"/>
<path d="M87.1299 -0.000852406C87.3259 -0.522852 87.1959 -1.04486 86.7389 -1.17586C86.1509 -1.37186 85.3029 -0.979856 85.1719 -0.522856C85.0419 -0.131856 85.4339 0.390153 85.8249 0.586153C86.4119 0.782153 86.8689 0.586148 87.1299 -0.000852406Z" fill="#E32682"/>
<path d="M67.877 2.93493C68.53 3.19693 69.117 3.00093 69.313 2.34793C69.509 1.82593 69.313 1.23894 68.922 1.10794C68.334 0.911937 67.486 1.23894 67.29 1.82594C67.094 2.15194 67.421 2.80493 67.877 2.93493Z" fill="#E32682"/>
<path d="M69.64 6.656C69.966 6.786 70.488 6.52501 70.749 5.93801C70.684 5.80701 70.619 5.54601 70.423 5.41601C70.031 5.15401 69.444 5.285 69.248 5.611C69.118 5.938 69.248 6.525 69.64 6.656Z" fill="#E32682"/>
<path d="M74.7301 1.76001C74.8611 1.43401 74.5341 0.716023 74.0781 0.520023C73.7511 0.390023 73.2291 0.586019 73.0991 0.847019C72.8381 1.49902 72.9681 2.15201 73.3601 2.34801C73.8171 2.54401 74.5341 2.21701 74.7301 1.76001Z" fill="#E32682"/>
<path d="M73.294 5.28499C73.425 4.82799 73.294 4.43597 72.968 4.43597C72.772 4.43597 72.446 4.56698 72.381 4.69698C72.185 4.95798 72.446 5.47998 72.772 5.47998C72.968 5.47998 73.164 5.28499 73.294 5.28499Z" fill="#E32682"/>
<path d="M71.6631 -0.589019C71.9891 -1.24202 71.6631 -2.22101 71.0761 -2.54701C70.4881 -2.80801 69.5091 -2.48202 69.2481 -1.82902C68.9221 -1.24202 69.3131 -0.459016 70.1621 -0.067016C70.6841 0.258984 71.4021 -0.00201917 71.6631 -0.589019Z" fill="#E32682"/>
<path d="M71.598 11.551C71.989 11.681 72.316 11.5511 72.446 11.2241C72.642 10.8331 72.446 10.18 72.185 10.049C71.924 9.98405 71.337 10.311 71.206 10.637C71.076 11.028 71.206 11.355 71.598 11.551Z" fill="#E32682"/>
<path d="M71.2061 4.37106C71.4021 4.37106 71.9891 4.43705 72.0541 4.04505C72.1201 3.65305 71.7281 3.39205 71.5321 3.26205C71.2711 3.06605 71.0101 3.32705 70.9451 3.65305C70.7491 3.98005 70.8801 4.37106 71.2061 4.37106Z" fill="#E32682"/>
</g>
<defs>
<clipPath id="clip0">
<rect width="214" height="214" fill="white" transform="translate(214 214) rotate(-180)"/>
</clipPath>
</defs>
</svg>
