<svg width="58" height="68" viewBox="0 0 58 68" fill="none" xmlns="http://www.w3.org/2000/svg">
<path d="M29.4551 0.550049V12.1917C38.7517 12.1917 46.3247 19.7634 46.3247 29.0584C46.3247 33.6967 44.4543 37.895 41.4105 40.9384L49.6252 49.1517C54.7595 44 57.95 36.8867 57.95 29.0584C57.9683 13.3284 45.1695 0.550049 29.4551 0.550049Z" fill="#FED10A"/>
<path d="M29.4544 12.1734V0.550049C16.7839 0.550049 6.03872 8.85505 2.31641 20.295L13.41 23.8517C15.6104 17.0684 21.9731 12.1734 29.4544 12.1734Z" fill="#00BCB4"/>
<path d="M29.4542 45.9249C21.5512 45.9249 14.895 40.4615 13.0797 33.1099L1.80273 35.9699C4.4982 46.7499 13.3547 55.1099 24.3933 57.1082V67.0999L35.5969 56.9065C41.0245 55.7149 45.8654 52.9649 49.6427 49.1699L41.4279 40.9565C38.3657 43.9999 34.13 45.9249 29.4542 45.9249Z" fill="#535966"/>
<path d="M12.5851 29.0399C12.5851 27.2249 12.8785 25.4649 13.4102 23.8333L2.31665 20.2766C1.41816 23.0449 0.941406 25.9783 0.941406 29.0399C0.941406 31.4233 1.23479 33.7333 1.78488 35.9516L13.0618 33.0916C12.7685 31.8083 12.5851 30.4516 12.5851 29.0399Z" fill="#00BCB4"/>
</svg>
