<?xml version="1.0" encoding="UTF-8" standalone="no"?><svg xmlns="http://www.w3.org/2000/svg" xmlns:xlink="http://www.w3.org/1999/xlink" contentScriptType="application/ecmascript" contentStyleType="text/css" height="1034px" preserveAspectRatio="none" style="width:927px;height:1034px;" version="1.1" viewBox="0 0 927 1034" width="927px" zoomAndPan="magnify"><defs><filter height="300%" id="f7lkf0foff39e" width="300%" x="-1" y="-1"><feGaussianBlur result="blurOut" stdDeviation="2.0"/><feColorMatrix in="blurOut" result="blurOut2" type="matrix" values="0 0 0 0 0 0 0 0 0 0 0 0 0 0 0 0 0 0 .4 0"/><feOffset dx="4.0" dy="4.0" in="blurOut2" result="blurOut3"/><feBlend in="SourceGraphic" in2="blurOut3" mode="normal"/></filter></defs><g><rect fill="#99CCFF" height="1019.6719" style="stroke: #A80036; stroke-width: 1.0;" width="744" x="95.5" y="4"/><text fill="#000000" font-family="sans-serif" font-size="13" font-weight="bold" lengthAdjust="spacingAndGlyphs" textLength="90" x="422.5" y="16.5684">Google Cloud</text><rect fill="#FFBBBB" filter="url(#f7lkf0foff39e)" height="40.4658" style="stroke: #A80036; stroke-width: 1.0;" width="10" x="271" y="214.8857"/><rect fill="#FFBBBB" filter="url(#f7lkf0foff39e)" height="82.7764" style="stroke: #A80036; stroke-width: 1.0;" width="10" x="271" y="388.749"/><rect fill="#DDFFCC" filter="url(#f7lkf0foff39e)" height="40.4658" style="stroke: #A80036; stroke-width: 1.0;" width="10" x="406" y="600.9229"/><rect fill="#DDFFCC" filter="url(#f7lkf0foff39e)" height="84.2764" style="stroke: #A80036; stroke-width: 1.0;" width="10" x="406" y="815.252"/><rect fill="#FFFFFF" filter="url(#f7lkf0foff39e)" height="101.2422" style="stroke: #000000; stroke-width: 2.0;" width="345" x="13" y="162.1094"/><rect fill="#FFFFFF" filter="url(#f7lkf0foff39e)" height="101.2422" style="stroke: #000000; stroke-width: 2.0;" width="368" x="13" y="335.9727"/><rect fill="#FFFFFF" filter="url(#f7lkf0foff39e)" height="155.8633" style="stroke: #000000; stroke-width: 2.0;" width="493" x="13" y="493.5254"/><rect fill="#FFFFFF" filter="url(#f7lkf0foff39e)" height="256.7949" style="stroke: #000000; stroke-width: 2.0;" width="903.5" x="13" y="663.3887"/><line style="stroke: #A80036; stroke-width: 1.0; stroke-dasharray: 5.0,5.0;" x1="45" x2="45" y1="86.4883" y2="937.1836"/><line style="stroke: #A80036; stroke-width: 1.0; stroke-dasharray: 5.0,5.0;" x1="155.5" x2="155.5" y1="86.4883" y2="937.1836"/><line style="stroke: #A80036; stroke-width: 1.0; stroke-dasharray: 5.0,5.0;" x1="275.5" x2="275.5" y1="86.4883" y2="937.1836"/><line style="stroke: #A80036; stroke-width: 1.0; stroke-dasharray: 5.0,5.0;" x1="411" x2="411" y1="548.1465" y2="937.1836"/><line style="stroke: #A80036; stroke-width: 1.0; stroke-dasharray: 5.0,5.0;" x1="573.5" x2="573.5" y1="86.4883" y2="937.1836"/><line style="stroke: #A80036; stroke-width: 1.0; stroke-dasharray: 5.0,5.0;" x1="741.5" x2="741.5" y1="86.4883" y2="937.1836"/><line style="stroke: #A80036; stroke-width: 1.0; stroke-dasharray: 5.0,5.0;" x1="875.5" x2="875.5" y1="86.4883" y2="937.1836"/><text fill="#000000" font-family="sans-serif" font-size="14" lengthAdjust="spacingAndGlyphs" textLength="38" x="23" y="83.5352">Users</text><ellipse cx="45" cy="13" fill="#FFFFFF" filter="url(#f7lkf0foff39e)" rx="8" ry="8" style="stroke: #A80036; stroke-width: 2.0;"/><path d="M45,21 L45,48 M32,29 L58,29 M45,48 L32,63 M45,48 L58,63 " fill="none" filter="url(#f7lkf0foff39e)" style="stroke: #A80036; stroke-width: 2.0;"/><text fill="#000000" font-family="sans-serif" font-size="14" lengthAdjust="spacingAndGlyphs" textLength="38" x="23" y="949.7188">Users</text><ellipse cx="45" cy="962.6719" fill="#FFFFFF" filter="url(#f7lkf0foff39e)" rx="8" ry="8" style="stroke: #A80036; stroke-width: 2.0;"/><path d="M45,970.6719 L45,997.6719 M32,978.6719 L58,978.6719 M45,997.6719 L32,1012.6719 M45,997.6719 L58,1012.6719 " fill="none" filter="url(#f7lkf0foff39e)" style="stroke: #A80036; stroke-width: 2.0;"/><rect fill="#FEFECE" filter="url(#f7lkf0foff39e)" height="30.4883" style="stroke: #A80036; stroke-width: 1.5;" width="109" x="99.5" y="51"/><text fill="#000000" font-family="sans-serif" font-size="14" lengthAdjust="spacingAndGlyphs" textLength="95" x="106.5" y="71.5352">Load Balancer</text><rect fill="#FEFECE" filter="url(#f7lkf0foff39e)" height="30.4883" style="stroke: #A80036; stroke-width: 1.5;" width="109" x="99.5" y="936.1836"/><text fill="#000000" font-family="sans-serif" font-size="14" lengthAdjust="spacingAndGlyphs" textLength="95" x="106.5" y="956.7188">Load Balancer</text><rect fill="#FEFECE" filter="url(#f7lkf0foff39e)" height="30.4883" style="stroke: #A80036; stroke-width: 1.5;" width="103" x="222.5" y="51"/><text fill="#000000" font-family="sans-serif" font-size="14" lengthAdjust="spacingAndGlyphs" textLength="89" x="229.5" y="71.5352">Cloud Armor</text><rect fill="#FEFECE" filter="url(#f7lkf0foff39e)" height="30.4883" style="stroke: #A80036; stroke-width: 1.5;" width="103" x="222.5" y="936.1836"/><text fill="#000000" font-family="sans-serif" font-size="14" lengthAdjust="spacingAndGlyphs" textLength="89" x="229.5" y="956.7188">Cloud Armor</text><rect fill="#FEFECE" filter="url(#f7lkf0foff39e)" height="30.4883" style="stroke: #A80036; stroke-width: 1.5;" width="44" x="387" y="936.1836"/><text fill="#000000" font-family="sans-serif" font-size="14" lengthAdjust="spacingAndGlyphs" textLength="30" x="394" y="956.7188">CDN</text><rect fill="#FEFECE" filter="url(#f7lkf0foff39e)" height="30.4883" style="stroke: #A80036; stroke-width: 1.5;" width="123" x="510.5" y="51"/><text fill="#000000" font-family="sans-serif" font-size="14" lengthAdjust="spacingAndGlyphs" textLength="109" x="517.5" y="71.5352">Backend Service</text><rect fill="#FEFECE" filter="url(#f7lkf0foff39e)" height="30.4883" style="stroke: #A80036; stroke-width: 1.5;" width="123" x="510.5" y="936.1836"/><text fill="#000000" font-family="sans-serif" font-size="14" lengthAdjust="spacingAndGlyphs" textLength="109" x="517.5" y="956.7188">Backend Service</text><rect fill="#FEFECE" filter="url(#f7lkf0foff39e)" height="30.4883" style="stroke: #A80036; stroke-width: 1.5;" width="184" x="647.5" y="51"/><text fill="#000000" font-family="sans-serif" font-size="14" lengthAdjust="spacingAndGlyphs" textLength="170" x="654.5" y="71.5352">Network Endpoint Group</text><rect fill="#FEFECE" filter="url(#f7lkf0foff39e)" height="30.4883" style="stroke: #A80036; stroke-width: 1.5;" width="184" x="647.5" y="936.1836"/><text fill="#000000" font-family="sans-serif" font-size="14" lengthAdjust="spacingAndGlyphs" textLength="170" x="654.5" y="956.7188">Network Endpoint Group</text><rect fill="#FEFECE" filter="url(#f7lkf0foff39e)" height="30.4883" style="stroke: #A80036; stroke-width: 1.5;" width="57" x="845.5" y="51"/><text fill="#000000" font-family="sans-serif" font-size="14" lengthAdjust="spacingAndGlyphs" textLength="43" x="852.5" y="71.5352">Origin</text><rect fill="#FEFECE" filter="url(#f7lkf0foff39e)" height="30.4883" style="stroke: #A80036; stroke-width: 1.5;" width="57" x="845.5" y="936.1836"/><text fill="#000000" font-family="sans-serif" font-size="14" lengthAdjust="spacingAndGlyphs" textLength="43" x="852.5" y="956.7188">Origin</text><rect fill="#FFBBBB" filter="url(#f7lkf0foff39e)" height="40.4658" style="stroke: #A80036; stroke-width: 1.0;" width="10" x="271" y="214.8857"/><rect fill="#FFBBBB" filter="url(#f7lkf0foff39e)" height="82.7764" style="stroke: #A80036; stroke-width: 1.0;" width="10" x="271" y="388.749"/><rect fill="#DDFFCC" filter="url(#f7lkf0foff39e)" height="40.4658" style="stroke: #A80036; stroke-width: 1.0;" width="10" x="406" y="600.9229"/><rect fill="#DDFFCC" filter="url(#f7lkf0foff39e)" height="84.2764" style="stroke: #A80036; stroke-width: 1.0;" width="10" x="406" y="815.252"/><polygon fill="#A80036" points="144,113.7988,154,117.7988,144,121.7988,148,117.7988" style="stroke: #A80036; stroke-width: 1.0;"/><line style="stroke: #A80036; stroke-width: 1.0;" x1="45" x2="150" y1="117.7988" y2="117.7988"/><text fill="#000000" font-family="sans-serif" font-size="13" lengthAdjust="spacingAndGlyphs" textLength="87" x="52" y="113.0566">HTTP Request</text><polygon fill="#A80036" points="264,143.1094,274,147.1094,264,151.1094,268,147.1094" style="stroke: #A80036; stroke-width: 1.0;"/><line style="stroke: #A80036; stroke-width: 1.0;" x1="156" x2="270" y1="147.1094" y2="147.1094"/><text fill="#000000" font-family="sans-serif" font-size="13" lengthAdjust="spacingAndGlyphs" textLength="87" x="163" y="142.3672">HTTP Request</text><path d="M13,162.1094 L230,162.1094 L230,169.1094 L220,179.1094 L13,179.1094 L13,162.1094 " fill="#EEEEEE" style="stroke: #000000; stroke-width: 1.0;"/><rect fill="none" height="101.2422" style="stroke: #000000; stroke-width: 2.0;" width="345" x="13" y="162.1094"/><text fill="#000000" font-family="sans-serif" font-size="13" font-weight="bold" lengthAdjust="spacingAndGlyphs" textLength="172" x="28" y="175.6777">Block embargoed regions</text><line style="stroke: #A80036; stroke-width: 1.0;" x1="276" x2="323" y1="201.8857" y2="201.8857"/><line style="stroke: #A80036; stroke-width: 1.0;" x1="323" x2="323" y1="201.8857" y2="214.8857"/><line style="stroke: #A80036; stroke-width: 1.0;" x1="282" x2="323" y1="214.8857" y2="214.8857"/><polygon fill="#A80036" points="292,210.8857,282,214.8857,292,218.8857,288,214.8857" style="stroke: #A80036; stroke-width: 1.0;"/><text fill="#000000" font-family="sans-serif" font-size="13" lengthAdjust="spacingAndGlyphs" textLength="68" x="288" y="197.1436">Check ACL</text><path d="M83,184.4199 L83,224.4199 L262,224.4199 L262,194.4199 L252,184.4199 L83,184.4199 " fill="#FBFB77" filter="url(#f7lkf0foff39e)" style="stroke: #A80036; stroke-width: 1.0;"/><path d="M252,184.4199 L252,194.4199 L262,194.4199 L252,184.4199 " fill="#FBFB77" style="stroke: #A80036; stroke-width: 1.0;"/><text fill="#000000" font-family="sans-serif" font-size="13" lengthAdjust="spacingAndGlyphs" textLength="158" x="89" y="201.9883">If ACL denies the request</text><text fill="#000000" font-family="sans-serif" font-size="13" lengthAdjust="spacingAndGlyphs" textLength="140" x="89" y="217.2988">send 403 back to user</text><line style="stroke: #A80036; stroke-width: 2.0;" x1="51" x2="61" y1="250.3516" y2="260.3516"/><line style="stroke: #A80036; stroke-width: 2.0;" x1="51" x2="61" y1="260.3516" y2="250.3516"/><line style="stroke: #A80036; stroke-width: 1.0; stroke-dasharray: 2.0,2.0;" x1="57" x2="275" y1="255.3516" y2="255.3516"/><text fill="#000000" font-family="sans-serif" font-size="13" lengthAdjust="spacingAndGlyphs" textLength="128" x="62" y="250.6094">Access Denied (403)</text><polygon fill="#A80036" points="144,287.6621,154,291.6621,144,295.6621,148,291.6621" style="stroke: #A80036; stroke-width: 1.0;"/><line style="stroke: #A80036; stroke-width: 1.0;" x1="45" x2="150" y1="291.6621" y2="291.6621"/><text fill="#000000" font-family="sans-serif" font-size="13" lengthAdjust="spacingAndGlyphs" textLength="87" x="52" y="286.9199">HTTP Request</text><polygon fill="#A80036" points="264,316.9727,274,320.9727,264,324.9727,268,320.9727" style="stroke: #A80036; stroke-width: 1.0;"/><line style="stroke: #A80036; stroke-width: 1.0;" x1="156" x2="270" y1="320.9727" y2="320.9727"/><text fill="#000000" font-family="sans-serif" font-size="13" lengthAdjust="spacingAndGlyphs" textLength="87" x="163" y="316.2305">HTTP Request</text><path d="M13,335.9727 L171,335.9727 L171,342.9727 L161,352.9727 L13,352.9727 L13,335.9727 " fill="#EEEEEE" style="stroke: #000000; stroke-width: 1.0;"/><rect fill="none" height="101.2422" style="stroke: #000000; stroke-width: 2.0;" width="368" x="13" y="335.9727"/><text fill="#000000" font-family="sans-serif" font-size="13" font-weight="bold" lengthAdjust="spacingAndGlyphs" textLength="113" x="28" y="349.541">Block plain HTTP</text><line style="stroke: #A80036; stroke-width: 1.0;" x1="276" x2="323" y1="375.749" y2="375.749"/><line style="stroke: #A80036; stroke-width: 1.0;" x1="323" x2="323" y1="375.749" y2="388.749"/><line style="stroke: #A80036; stroke-width: 1.0;" x1="282" x2="323" y1="388.749" y2="388.749"/><polygon fill="#A80036" points="292,384.749,282,388.749,292,392.749,288,388.749" style="stroke: #A80036; stroke-width: 1.0;"/><text fill="#000000" font-family="sans-serif" font-size="13" lengthAdjust="spacingAndGlyphs" textLength="91" x="288" y="371.0068">Check scheme</text><path d="M63,358.2832 L63,398.2832 L262,398.2832 L262,368.2832 L252,358.2832 L63,358.2832 " fill="#FBFB77" filter="url(#f7lkf0foff39e)" style="stroke: #A80036; stroke-width: 1.0;"/><path d="M252,358.2832 L252,368.2832 L262,368.2832 L252,358.2832 " fill="#FBFB77" style="stroke: #A80036; stroke-width: 1.0;"/><text fill="#000000" font-family="sans-serif" font-size="13" lengthAdjust="spacingAndGlyphs" textLength="178" x="69" y="375.8516">If request is over plain HTTP</text><text fill="#000000" font-family="sans-serif" font-size="13" lengthAdjust="spacingAndGlyphs" textLength="161" x="69" y="391.1621">we send 403 back to user</text><line style="stroke: #A80036; stroke-width: 2.0;" x1="51" x2="61" y1="424.2148" y2="434.2148"/><line style="stroke: #A80036; stroke-width: 2.0;" x1="51" x2="61" y1="434.2148" y2="424.2148"/><line style="stroke: #A80036; stroke-width: 1.0;" x1="57" x2="270" y1="429.2148" y2="429.2148"/><text fill="#000000" font-family="sans-serif" font-size="13" lengthAdjust="spacingAndGlyphs" textLength="128" x="62" y="424.4727">Access Denied (403)</text><line style="stroke: #A80036; stroke-width: 1.0; stroke-dasharray: 2.0,2.0;" x1="281" x2="323" y1="470.5254" y2="470.5254"/><line style="stroke: #A80036; stroke-width: 1.0; stroke-dasharray: 2.0,2.0;" x1="323" x2="323" y1="470.5254" y2="483.5254"/><line style="stroke: #A80036; stroke-width: 1.0; stroke-dasharray: 2.0,2.0;" x1="276" x2="323" y1="483.5254" y2="483.5254"/><polygon fill="#A80036" points="286,479.5254,276,483.5254,286,487.5254,282,483.5254" style="stroke: #A80036; stroke-width: 1.0;"/><text fill="#000000" font-family="sans-serif" font-size="13" lengthAdjust="spacingAndGlyphs" textLength="68" x="288" y="465.7832">Check ACL</text><path d="M13,493.5254 L253,493.5254 L253,500.5254 L243,510.5254 L13,510.5254 L13,493.5254 " fill="#EEEEEE" style="stroke: #000000; stroke-width: 1.0;"/><rect fill="none" height="155.8633" style="stroke: #000000; stroke-width: 2.0;" width="493" x="13" y="493.5254"/><text fill="#000000" font-family="sans-serif" font-size="13" font-weight="bold" lengthAdjust="spacingAndGlyphs" textLength="195" x="28" y="507.0938">Access CDN and check cache</text><polygon fill="#A80036" points="375,528.1465,385,532.1465,375,536.1465,379,532.1465" style="stroke: #A80036; stroke-width: 1.0;"/><line style="stroke: #A80036; stroke-width: 1.0;" x1="276" x2="381" y1="532.1465" y2="532.1465"/><text fill="#000000" font-family="sans-serif" font-size="13" lengthAdjust="spacingAndGlyphs" textLength="87" x="283" y="527.4043">HTTP Request</text><rect fill="#FEFECE" filter="url(#f7lkf0foff39e)" height="30.4883" style="stroke: #A80036; stroke-width: 1.5;" width="44" x="387" y="515.4023"/><text fill="#000000" font-family="sans-serif" font-size="14" lengthAdjust="spacingAndGlyphs" textLength="30" x="394" y="535.9375">CDN</text><path d="M47,515.8359 L47,555.8359 L267,555.8359 L267,525.8359 L257,515.8359 L47,515.8359 " fill="#FBFB77" filter="url(#f7lkf0foff39e)" style="stroke: #A80036; stroke-width: 1.0;"/><path d="M257,515.8359 L257,525.8359 L267,525.8359 L257,515.8359 " fill="#FBFB77" style="stroke: #A80036; stroke-width: 1.0;"/><text fill="#000000" font-family="sans-serif" font-size="13" lengthAdjust="spacingAndGlyphs" textLength="150" x="53" y="533.4043">If any additional checks</text><text fill="#000000" font-family="sans-serif" font-size="13" lengthAdjust="spacingAndGlyphs" textLength="199" x="53" y="548.7148">pass, forward incoming request</text><line style="stroke: #A80036; stroke-width: 1.0; stroke-dasharray: 2.0,2.0;" x1="411" x2="458" y1="587.9229" y2="587.9229"/><line style="stroke: #A80036; stroke-width: 1.0; stroke-dasharray: 2.0,2.0;" x1="458" x2="458" y1="587.9229" y2="600.9229"/><line style="stroke: #A80036; stroke-width: 1.0; stroke-dasharray: 2.0,2.0;" x1="417" x2="458" y1="600.9229" y2="600.9229"/><polygon fill="#A80036" points="427,596.9229,417,600.9229,427,604.9229,423,600.9229" style="stroke: #A80036; stroke-width: 1.0;"/><text fill="#000000" font-family="sans-serif" font-size="13" lengthAdjust="spacingAndGlyphs" textLength="81" x="423" y="583.1807">Check Cache</text><path d="M130,570.457 L130,610.457 L397,610.457 L397,580.457 L387,570.457 L130,570.457 " fill="#FBFB77" filter="url(#f7lkf0foff39e)" style="stroke: #A80036; stroke-width: 1.0;"/><path d="M387,570.457 L387,580.457 L397,580.457 L387,570.457 " fill="#FBFB77" style="stroke: #A80036; stroke-width: 1.0;"/><text fill="#000000" font-family="sans-serif" font-size="13" lengthAdjust="spacingAndGlyphs" textLength="246" x="136" y="588.0254">If cache hit return response to the User</text><text fill="#000000" font-family="sans-serif" font-size="13" lengthAdjust="spacingAndGlyphs" textLength="182" x="136" y="603.3359">or send the request to Origin</text><polygon fill="#A80036" points="56,637.3887,46,641.3887,56,645.3887,52,641.3887" style="stroke: #A80036; stroke-width: 1.0;"/><line style="stroke: #A80036; stroke-width: 1.0; stroke-dasharray: 2.0,2.0;" x1="50" x2="410" y1="641.3887" y2="641.3887"/><text fill="#000000" font-family="sans-serif" font-size="13" lengthAdjust="spacingAndGlyphs" textLength="147" x="62" y="636.6465">Cached HTTP Response</text><path d="M13,663.3887 L149,663.3887 L149,670.3887 L139,680.3887 L13,680.3887 L13,663.3887 " fill="#EEEEEE" style="stroke: #000000; stroke-width: 1.0;"/><rect fill="none" height="256.7949" style="stroke: #000000; stroke-width: 2.0;" width="903.5" x="13" y="663.3887"/><text fill="#000000" font-family="sans-serif" font-size="13" font-weight="bold" lengthAdjust="spacingAndGlyphs" textLength="91" x="28" y="676.957">Origin access</text><polygon fill="#A80036" points="562,698.0098,572,702.0098,562,706.0098,566,702.0098" style="stroke: #A80036; stroke-width: 1.0;"/><line style="stroke: #A80036; stroke-width: 1.0; stroke-dasharray: 2.0,2.0;" x1="411" x2="568" y1="702.0098" y2="702.0098"/><text fill="#000000" font-family="sans-serif" font-size="13" lengthAdjust="spacingAndGlyphs" textLength="87" x="418" y="697.2676">HTTP Request</text><polygon fill="#A80036" points="864,739.9756,874,743.9756,864,747.9756,868,743.9756" style="stroke: #A80036; stroke-width: 1.0;"/><line style="stroke: #A80036; stroke-width: 1.0; stroke-dasharray: 2.0,2.0;" x1="574" x2="870" y1="743.9756" y2="743.9756"/><text fill="#000000" font-family="sans-serif" font-size="13" lengthAdjust="spacingAndGlyphs" textLength="87" x="581" y="739.2334">HTTP Request</text><path d="M377,715.0098 L377,755.0098 L565,755.0098 L565,725.0098 L555,715.0098 L377,715.0098 " fill="#FBFB77" filter="url(#f7lkf0foff39e)" style="stroke: #A80036; stroke-width: 1.0;"/><path d="M555,715.0098 L555,725.0098 L565,725.0098 L555,715.0098 " fill="#FBFB77" style="stroke: #A80036; stroke-width: 1.0;"/><text fill="#000000" font-family="sans-serif" font-size="13" lengthAdjust="spacingAndGlyphs" textLength="167" x="383" y="732.5781">If cache miss pass request</text><text fill="#000000" font-family="sans-serif" font-size="13" lengthAdjust="spacingAndGlyphs" textLength="110" x="383" y="747.8887">through to Origin</text><polygon fill="#A80036" points="585,781.9414,575,785.9414,585,789.9414,581,785.9414" style="stroke: #A80036; stroke-width: 1.0;"/><line style="stroke: #A80036; stroke-width: 1.0; stroke-dasharray: 2.0,2.0;" x1="579" x2="875" y1="785.9414" y2="785.9414"/><text fill="#000000" font-family="sans-serif" font-size="13" lengthAdjust="spacingAndGlyphs" textLength="97" x="591" y="781.1992">HTTP Response</text><polygon fill="#A80036" points="427,811.252,417,815.252,427,819.252,423,815.252" style="stroke: #A80036; stroke-width: 1.0;"/><line style="stroke: #A80036; stroke-width: 1.0; stroke-dasharray: 2.0,2.0;" x1="421" x2="573" y1="815.252" y2="815.252"/><text fill="#000000" font-family="sans-serif" font-size="13" lengthAdjust="spacingAndGlyphs" textLength="97" x="433" y="810.5098">HTTP Response</text><line style="stroke: #A80036; stroke-width: 1.0; stroke-dasharray: 2.0,2.0;" x1="416" x2="458" y1="844.5625" y2="844.5625"/><line style="stroke: #A80036; stroke-width: 1.0; stroke-dasharray: 2.0,2.0;" x1="458" x2="458" y1="844.5625" y2="857.5625"/><line style="stroke: #A80036; stroke-width: 1.0; stroke-dasharray: 2.0,2.0;" x1="417" x2="458" y1="857.5625" y2="857.5625"/><polygon fill="#A80036" points="427,853.5625,417,857.5625,427,861.5625,423,857.5625" style="stroke: #A80036; stroke-width: 1.0;"/><text fill="#000000" font-family="sans-serif" font-size="13" lengthAdjust="spacingAndGlyphs" textLength="139" x="423" y="839.8203">Cache HTTP Response</text><polygon fill="#A80036" points="56,895.5283,46,899.5283,56,903.5283,52,899.5283" style="stroke: #A80036; stroke-width: 1.0;"/><line style="stroke: #A80036; stroke-width: 1.0; stroke-dasharray: 2.0,2.0;" x1="50" x2="410" y1="899.5283" y2="899.5283"/><text fill="#000000" font-family="sans-serif" font-size="13" lengthAdjust="spacingAndGlyphs" textLength="147" x="62" y="894.7861">Cached HTTP Response</text><path d="M421,870.5625 L421,910.5625 L714,910.5625 L714,880.5625 L704,870.5625 L421,870.5625 " fill="#FBFB77" filter="url(#f7lkf0foff39e)" style="stroke: #A80036; stroke-width: 1.0;"/><path d="M704,870.5625 L704,880.5625 L714,880.5625 L704,870.5625 " fill="#FBFB77" style="stroke: #A80036; stroke-width: 1.0;"/><text fill="#000000" font-family="sans-serif" font-size="13" lengthAdjust="spacingAndGlyphs" textLength="272" x="427" y="888.1309">Cache the HTTP response if it cachable and</text><text fill="#000000" font-family="sans-serif" font-size="13" lengthAdjust="spacingAndGlyphs" textLength="124" x="427" y="903.4414">return it to the User</text></g></svg>